<?xml version="1.0" standalone="no"?>
<!DOCTYPE svg PUBLIC "-//W3C//DTD SVG 1.1//EN" "http://www.w3.org/Graphics/SVG/1.1/DTD/svg11.dtd" >
<svg xmlns="http://www.w3.org/2000/svg">
<metadata>
Created by FontPrep 20130207 at Thu Jun 19 23:03:18 2014
 By Diego Escares
Copyright (c) 2011 by Flora Argemi. All rights reserved.
</metadata>
<defs>
<font id="05e839af15b644f22ba3048f4a35a721" horiz-adv-x='1024' >
  <font-face 
    font-family="RakatanBlanca"
    font-weight="400"
    font-stretch="normal"
    units-per-em="2048"
    panose-1="2 0 0 0 0 0 0 0 0 0"
    ascent="1536"
    descent="-512"
    x-height="1335"
    cap-height="1333"
    bbox="-121 -381.048 1853 1944"
    underline-thickness="102"
    underline-position="-102"
    unicode-range="U+0020-FB02"
  />
<missing-glyph horiz-adv-x="573" 
 />
    <glyph glyph-name=".notdef" horiz-adv-x="573" 
 />
    <glyph glyph-name=".null" horiz-adv-x="0" 
 />
    <glyph glyph-name="nonmarkingreturn" horiz-adv-x="681" 
 />
    <glyph glyph-name="space" unicode=" " horiz-adv-x="573" 
 />
    <glyph glyph-name="exclam" unicode="!" horiz-adv-x="608" 
d="M451 1223l-291 4q25 -344 24 -443l13 -354l209 -16q35 324 34 403zM117 127q0 80 43 130t136 50t136 -50t43 -130t-49 -124t-130 -44t-130 44t-49 124zM180 127q0 -51 35 -77t81 -26t80 26t34 78t-30 81t-83 29t-85 -30t-32 -81zM524 1290q-12 -395 -12 -499t-33 -353
l-10 -100l-340 27q-14 322 -14 419l-31 516z" />
    <glyph glyph-name="quotedbl" unicode="&#x22;" horiz-adv-x="724" 
d="M23 1274l679 43q0 -137 -11 -249t-23 -155l-11 -43l-249 -34q0 152 -27 303q-9 -231 -29 -301l-6 -33l-272 -19q0 115 -13 237q-12 122 -24 185zM633 1243l-193 -10q37 -141 37 -315l127 18q29 86 29 307zM313 1227l-204 -17q35 -160 34 -348l146 10q24 97 24 355z" />
    <glyph glyph-name="numbersign" unicode="#" horiz-adv-x="1148" 
d="M621 524l-5 105l-96 -2l2 -103h99zM455 459l-6 235l233 2l8 -237h-235zM866 1073l-198 -14l-4 -217l-193 6l10 223l-184 8l4 -227l-145 6l4 -176l147 2l6 -215l-149 2l6 -143l152 4l8 -166l157 8l-6 166l193 2l10 -176l193 8l-9 172l123 4l-8 127l-121 -4l-6 217l133 8
l-8 166l-123 -10zM242 541l-4 71l-146 -2l-8 320l145 -2l-4 223l330 -10l-10 -223h49q2 71 2 206l344 23l-10 -217l121 8l10 -311l-131 -4v-78q45 2 121 2l14 -268l-123 -3l6 -172l-332 -10l-8 174h-55l6 -164l-297 -10l-8 164q-116 0 -154 -4l-10 289z" />
    <glyph glyph-name="dollar" unicode="$" horiz-adv-x="958" 
d="M588 301q0 -72 -187 -72q-85 0 -176 13l-35 6l17 -178q98 -8 221 -9l4 -106l152 4l2 113q233 41 233 227q0 68 -39 119t-94 81q-56 31 -112 57q-134 63 -134 142q0 49 49 79t147 30t179 -25l27 -6l-15 408q-102 27 -225 26l6 131l-223 -6l6 -151q-129 -39 -204 -133
q-75 -95 -75 -223t50 -208q49 -80 119 -122q69 -41 139 -70q70 -28 119 -58t49 -69zM622 737q-112 0 -112 -39q0 -31 125 -92q193 -98 234 -195q22 -50 22 -112q0 -215 -234 -283q-4 -94 -4 -125l-291 -10l-2 111l-219 14l-30 324q223 -31 315 -37t92 12q0 7 -43 23t-86 34
t-79 36q-36 16 -94 58q-173 124 -173 354q0 157 73 263t203 160l-6 172l365 10l-2 -139q116 -9 190 -31l31 -6l18 -557q-181 55 -293 55z" />
    <glyph glyph-name="percent" unicode="%" horiz-adv-x="1300" 
d="M962 186q0 -92 22 -92t22 92t-21 93q-23 -1 -23 -93zM318 987q22 0 22 92t-22 92t-22 -92t22 -92zM985 47q-45 0 -67 29q-22 30 -23 106q0 76 18 111t72 35q90 0 86 -156q0 -125 -86 -125zM319 940q-45 0 -67 29t-23 105q1 76 19 112q18 35 71 35q90 0 87 -156
q-1 -125 -87 -125zM983 -33q211 0 211 250q0 135 -51 193t-155 59q-104 0 -160 -55q-56 -54 -56 -194t56 -196t155 -57zM317 860q211 0 211 250q0 136 -51 194t-155 58t-159 -55q-57 -55 -57 -195t56 -196t155 -56zM950 1237l-760 -1112l123 -78l799 1088zM317 797
q-131 1 -203 71t-71 244q0 174 74 245q75 71 209 71t200 -74t66 -244q-1 -313 -275 -313zM983 -96q-131 0 -203 70t-72 245q0 174 74 245t209 71t201 -74t65 -244q0 -313 -274 -313zM1214 1153l-880 -1198l-244 149l840 1231z" />
    <glyph glyph-name="ampersand" unicode="&#x26;" horiz-adv-x="1048" 
d="M580 326h-45q-61 0 -62 -29q0 -29 38 -29q37 0 53 19t16 39zM518 205q-117 0 -117 94q0 37 34 63t100 27l122 2q0 -186 -139 -186zM377 670q0 152 213 155l256 11l31 389l-312 -6q-256 -7 -353 -91t-97 -294q-1 -82 21 -150q34 -109 116 -168q50 -36 90 -47
q-14 -4 -30 -8q-16 -3 -43 -19q-101 -56 -101 -163q0 -217 330 -218q178 0 252 80t77 242l99 2l8 166l-103 -6l5 90l-189 -19l6 -75q-276 0 -276 129zM498 -8q-401 0 -402 287q0 43 24 92t48 75l25 29q-150 121 -150 366t113 342t407 105l389 10l-39 -532l-321 -10
q-145 -4 -146 -86q0 -45 129 -58q-4 54 -4 68l334 33v-92l101 4l-13 -312h-100q-19 -161 -109 -241t-286 -80z" />
    <glyph glyph-name="quotesingle" unicode="'" horiz-adv-x="407" 
d="M313 1227l-204 -17q37 -160 36 -348l144 10q24 97 24 355zM23 1274l362 29q0 -300 -29 -451l-10 -47l-272 -19q0 115 -13 237q-12 122 -24 185z" />
    <glyph glyph-name="parenleft" unicode="(" horiz-adv-x="804" 
d="M465 612q0 -126 31 -258t98 -264q67 -133 137 -209l31 -31l-262 -137q-54 36 -141 138t-144 203q-57 100 -104 268q-92 326 -13 657q54 225 183 419q49 75 84 109l34 35l346 -215q-31 -31 -97 -128q-183 -279 -183 -587zM139 660q0 -160 38 -313t92 -249
q113 -201 198 -270l39 -31l135 68q-36 36 -83 111q-46 74 -79 154t-59 213q-27 133 -27 269q0 326 155 585q36 60 60 89l25 27l-225 141q-174 -174 -240 -496q-28 -138 -29 -298z" />
    <glyph glyph-name="parenright" unicode=")" horiz-adv-x="802" 
d="M739 660q0 -170 -45 -335t-108 -271q-133 -225 -236 -304l-45 -37l-262 137q40 40 96 122q57 82 97 166t72 215t32 259q0 239 -93 425t-157 257l-29 31l351 225q36 -31 103 -130q65 -99 109 -193t80 -245q36 -152 35 -322zM410 612q0 -134 -26 -268t-80 -261
q-54 -128 -116 -192l-24 -26l133 -68q52 38 122 123q70 86 119 178q48 92 88 247t40 316q0 306 -87 500q-87 195 -153 264l-29 29l-225 -141q28 -28 82 -115q156 -252 156 -586z" />
    <glyph glyph-name="asterisk" unicode="*" horiz-adv-x="702" 
d="M63 1178l236 139l53 -121l56 121l210 -148l-59 -65l84 8l16 -256l-75 -2l39 -70l-222 -141l-49 131l-53 -135l-217 160l78 67l-117 -8l4 248l96 -12zM287 1229l-127 -72l96 -121l-141 11l-6 -138l149 13l-84 -103l102 -76l76 131l78 -131l113 72l-84 107l133 -13l-6 146
l-133 -13l94 111l-127 78l-70 -144z" />
    <glyph glyph-name="plus" unicode="+" horiz-adv-x="870" 
d="M332 879l8 -248l-223 8l-4 -178l231 8l-8 -236l188 -8l-10 242l227 -6l11 182l-238 -8l2 237zM266 702l-6 250l328 -10l-2 -233l241 6l-20 -326l-219 4l8 -239l-332 10l6 231l-227 -6l4 324z" />
    <glyph glyph-name="comma" unicode="," horiz-adv-x="489" 
d="M446 143q0 -156 -133 -259q-31 -24 -51 -34l-22 -10l-140 135q35 16 58 35q-30 0 -72 44t-43 129q0 85 49 135t151 50q103 0 153 -50q50 -52 50 -175zM256 -78q121 60 121 238q0 138 -141 139q-60 0 -92 -32t-31 -85q0 -123 100 -123l55 11q0 -24 -16 -48t-33 -34
l-16 -13z" />
    <glyph glyph-name="hyphen" unicode="-" horiz-adv-x="763" 
d="M115 469l528 -6l6 184l-524 -16zM713 391l-670 6l12 301l666 23z" />
    <glyph glyph-name="period" unicode="." horiz-adv-x="483" 
d="M115 171q1 -67 31 -93t97 -25q67 0 97 27q30 26 31 92q0 66 -26 96q-27 30 -103 31q-76 -1 -102 -31t-25 -97zM43 169q0 103 41 151t159 49q117 0 157 -47q40 -46 40 -150t-47 -147t-149 -43t-152 42q-49 42 -49 145z" />
    <glyph glyph-name="slash" unicode="/" horiz-adv-x="856" 
d="M721 1268l-225 32l-346 -1314l169 -19zM442 1378l371 -51l-444 -1436l-310 31z" />
    <glyph glyph-name="zero" unicode="0" horiz-adv-x="1017" 
d="M511 293q34 0 48 30t16 103l7 215q-4 141 -74 141t-68 -141l4 -211q2 -76 18 -106t49 -31zM511 -18q-245 0 -344 116t-110 396l-12 313q-10 260 105 379q114 119 366 119t356 -121t101 -393l-4 -345q-5 -246 -109 -355t-349 -109zM511 53q206 0 294 93t92 303l6 344
q4 233 -85 337t-303 104t-311 -100q-97 -101 -89 -323l12 -313q10 -244 94 -344t290 -101zM511 852q77 0 111 -51t29 -162l-4 -215q-4 -111 -34 -156q-29 -45 -101 -45t-102 46t-35 159l-6 211q-2 111 31 162q34 51 111 51z" />
    <glyph glyph-name="one" unicode="1" horiz-adv-x="751" 
d="M102 942l113 -240l180 127l23 -774l223 21q-12 492 -12 514l26 614l-198 31zM186 596l-172 367l422 346l295 -43q-33 -653 -33 -676l15 -578l-365 -35l-20 719z" />
    <glyph glyph-name="two" unicode="2" horiz-adv-x="950" 
d="M928 801q0 -315 -400 -508l338 14l-30 -301l-766 -10q-47 106 -47 192q0 166 149 258l225 138q78 49 78 88q0 25 -102 30l-338 17l20 579l312 -8q325 -6 443 -109t118 -380zM92 199q0 -73 25 -131l653 8l16 168l-450 -8q16 28 78 62t135 73t143 92t117 140t47 198
q0 236 -102 325t-389 95l-242 4l-17 -439l269 -12q170 -8 170 -102q0 -47 -26 -79t-85 -69l-225 -137q-117 -76 -117 -188z" />
    <glyph glyph-name="three" unicode="3" horiz-adv-x="935" 
d="M356 66q434 0 435 229q0 150 -166 186q219 63 219 334q0 223 -114 310t-370 94l-264 6l21 -441l268 -8q195 -2 195 -123q0 -113 -220 -116l-139 -2l-6 -138l184 -6q137 -6 138 -92q-1 -45 -49 -71t-126 -25l-227 14l-16 -141q94 -10 237 -10zM368 272q96 0 97 31
q0 25 -103 31l-221 14l13 258l206 2q150 4 150 45q0 47 -125 54l-334 8l-28 581l339 -8q293 -8 422 -109t129 -364q0 -188 -92 -287q-27 -29 -63 -47q14 -6 34 -20q20 -15 44 -61q25 -46 24 -105q0 -301 -504 -301q-172 0 -272 14l-43 4l31 285q200 -25 296 -25z" />
    <glyph glyph-name="four" unicode="4" horiz-adv-x="1011" 
d="M449 504l86 -2v125zM104 188l-102 349l533 772l383 -39l-25 -764l98 -2l13 -318h-111l6 -180l-387 -26l10 213zM80 522l76 -262l438 4l-8 -209l241 17l-6 190l119 -6l-6 176l-113 4l25 770l-277 29zM594 438l-262 6l258 365z" />
    <glyph glyph-name="five" unicode="5" horiz-adv-x="970" 
d="M580 319q0 -49 -52 -73t-186 -23l-170 10l16 -159q104 -10 193 -11q436 0 436 263q0 121 -82 184t-221 68l-133 4l-12 206l475 13l26 428l-774 -23l58 -784l219 -2q207 -6 207 -101zM342 285q166 1 166 31t-137 32l-283 4l-68 924l926 27l-35 -572l-467 -12l2 -70l68 -2
q174 -4 273 -84t100 -237q0 -332 -506 -332l-258 14l-31 297q201 -20 250 -20z" />
    <glyph glyph-name="six" unicode="6" horiz-adv-x="968" 
d="M522 502q-104 0 -153 -21q4 141 83 214t250 79l170 4l-20 453l-217 -10q-541 -25 -541 -650q0 -281 100 -395t310 -113q166 -1 240 55t73 177q0 207 -295 207zM506 360q150 0 149 -81q0 -80 -127 -80q-155 0 -155 141q51 20 133 20zM518 258q58 0 60 18q0 23 -86 23
l-50 -6q18 -35 76 -35zM522 571q367 0 367 -276q0 -157 -90 -229q-91 -72 -315 -72t-343 129t-118 448q0 684 608 719l289 15l26 -594l-241 -9q-135 -4 -192 -51t-64 -90q31 10 73 10z" />
    <glyph glyph-name="seven" unicode="7" horiz-adv-x="927" 
d="M842 1202l-756 25l33 -449l487 10l-358 -675l209 -68l397 739zM8 1300l901 -28l17 -504l-434 -807l-347 109l344 647l-436 -10z" />
    <glyph glyph-name="eight" unicode="8" horiz-adv-x="1081" 
d="M541 262q82 0 82 23t-82 23t-82 -24q0 -22 82 -22zM541 608q86 0 86 60q0 53 -86 53t-86 -53q0 -60 86 -60zM541 203q-154 0 -154 81t154 81t153 -78q1 -84 -153 -84zM541 539q-154 0 -154 129q0 66 38 94t119 29q82 0 116 -28q34 -29 34 -97t-34 -98t-119 -29zM546 57
q192 1 268 57t77 171q0 71 -49 119t-105 59q121 37 181 117q59 80 59 270t-95 288q-95 99 -342 99t-342 -98q-96 -97 -96 -287t62 -271t182 -118q-152 -39 -151 -178q0 -113 80 -171q79 -58 271 -57zM548 -14q-232 0 -328 74q-95 76 -95 210t76 185q-168 109 -168 391
q0 227 109 345q110 118 397 118t399 -119t111 -344q0 -285 -164 -391q29 -14 53 -65q24 -50 25 -105q0 -151 -92 -225q-91 -74 -323 -74z" />
    <glyph glyph-name="nine" unicode="9" horiz-adv-x="1030" 
d="M934 651q0 166 -14 265q-32 226 -182 282q-81 31 -214 31q-242 0 -338 -96q-96 -97 -96 -313q0 -427 408 -429q125 0 194 27l21 10q-25 -120 -115 -180t-279 -64l31 -127q296 -1 440 141t144 453zM367 647q0 117 157 117q92 0 140 -42t49 -155q-72 -27 -178 -26
q-168 0 -168 106zM535 610q57 0 102 11q-17 71 -109 71t-92 -45q1 -37 99 -37zM498 322q-477 0 -478 485q0 266 112 380t392 113q156 0 251 -34t147 -121q52 -86 67 -197q16 -111 17 -297q0 -347 -176 -505t-537 -158l-55 264q298 0 358 80q-45 -10 -98 -10z" />
    <glyph glyph-name="colon" unicode=":" horiz-adv-x="483" 
d="M115 171q1 -67 31 -93t97 -25q67 0 97 27q30 26 31 92q0 66 -26 96q-27 30 -103 31q-76 -1 -102 -31t-25 -97zM115 851q1 -67 31 -93t97 -25q67 0 97 27q30 26 31 92q0 66 -26 96q-27 30 -103 31q-76 -1 -102 -31t-25 -97zM43 849q0 103 41 151t159 48q117 0 157 -46
q40 -48 40 -151t-47 -146t-149 -43t-152 41q-49 43 -49 146zM43 169q0 103 41 151t159 49q117 0 157 -47q40 -46 40 -150t-47 -147t-149 -43t-152 42q-49 42 -49 145z" />
    <glyph glyph-name="semicolon" unicode=";" horiz-adv-x="489" 
d="M115 851q1 -67 31 -93t97 -25q67 0 97 27q30 26 31 92q0 66 -26 96q-27 30 -103 31q-76 -1 -102 -31t-25 -97zM256 -78q121 60 121 238q0 138 -141 139q-60 0 -92 -32t-31 -85q0 -123 100 -123l55 11q0 -24 -16 -48t-33 -34l-16 -13zM43 849q0 103 41 151t159 48
q117 0 157 -46q40 -48 40 -151t-47 -146t-149 -43t-152 41q-49 43 -49 146zM446 143q0 -156 -133 -259q-31 -24 -51 -34l-22 -10l-140 135q35 16 58 35q-30 0 -72 44t-43 129q0 85 49 135t151 50q103 0 153 -50q50 -52 50 -175z" />
    <glyph glyph-name="less" unicode="&#x3c;" horiz-adv-x="780" 
d="M125 477l418 -280l100 186l-317 188l317 201l-100 193l-426 -306zM569 94l-514 346l-12 254l524 375l170 -321l-274 -177l272 -161z" />
    <glyph glyph-name="equal" unicode="=" horiz-adv-x="765" 
d="M119 713l524 -8l8 186l-524 -21zM115 322l524 -13l8 185l-524 -21zM709 238l-666 14l10 291l666 26zM713 633l-666 8l10 297l666 27z" />
    <glyph glyph-name="greater" unicode="&#x3e;" horiz-adv-x="778" 
d="M236 197l417 280l11 182l-428 306l-101 -193l318 -201l-316 -188zM723 440l-514 -346l-160 320l270 157l-276 177l168 321l524 -375z" />
    <glyph glyph-name="question" unicode="?" horiz-adv-x="841" 
d="M168 86q0 -51 35 -77q35 -25 81 -25t80 26t34 77q0 52 -30 81t-83 29t-85 -30t-32 -81zM104 86q0 80 43 130t137 50t136 -50q43 -50 43 -130t-49 -124t-130 -44q-80 0 -130 44t-50 124zM727 906q0 165 -109 242t-362 83l-139 4l8 -361l176 -8q104 -6 105 -90
q0 -73 -96 -153q-36 -31 -66 -91t-29 -139l188 -12q18 111 133 196q46 35 89 73q102 92 102 256zM336 776q0 16 -37 19l-244 10l-12 500l213 -2q293 -9 418 -103t125 -297q0 -148 -67 -234q-36 -46 -58 -68q-22 -21 -68 -57q-45 -36 -64 -56t-44 -67q-25 -48 -35 -114
l-318 21q0 104 24 182q23 78 45 108t72 80q50 51 50 78z" />
    <glyph glyph-name="at" unicode="@" horiz-adv-x="1447" 
d="M717 547q0 -74 16 -74t39 64l6 81l-20 3q-41 0 -41 -74zM752 692q36 0 84 -22l-11 -138q-43 -128 -112 -131q-47 0 -47 93v73q0 125 86 125zM700 1067h101q217 0 310 -80t85 -282l-10 -205q-2 -74 -44 -108t-87 -34q-109 0 -109 74l31 402l-129 -15l-4 -49
q-62 43 -158 43t-140 -52t-44 -177v-113q0 -98 28 -148q28 -51 108 -51q81 0 141 65q28 28 36 44q20 -79 123 -113q41 -12 92 -12q100 0 183 58t92 159l24 313q18 256 -114 372t-414 116h-101q-284 0 -436 -125t-147 -408l8 -411q4 -186 135 -280t361 -95q157 0 268 18l37 7
l-17 114q-350 -70 -521 49q-105 74 -107 217l-5 273q-2 227 102 331t322 103zM621 -117q-262 0 -413 112t-155 333l-8 413q-6 324 166 464t489 141h101q340 8 482 -132t118 -432l-27 -313q-8 -129 -113 -206t-231 -77q-51 0 -106 20t-86 40l-31 18q-75 -63 -183 -63
q-108 1 -150 69t-42 201v113q0 164 60 232t198 67q67 0 103 -23l14 -6v29l233 14q-29 -406 -28 -436q0 -41 41 -41q20 0 41 22q20 23 22 60l8 205q6 166 -68 227q-75 61 -255 61h-101q-180 0 -267 -86t-85 -276l2 -273q2 -108 88 -164t219 -56t263 28l49 8l37 -254
q-199 -39 -385 -39z" />
    <glyph glyph-name="A" unicode="A" horiz-adv-x="1134" 
d="M449 657l-29 -178l53 4zM-8 55l323 1229l533 57q119 -633 135 -696l160 -575l-586 -95l-39 209l-158 4l-57 -215zM375 1217l-295 -1108l170 -48l51 199l279 -2l36 -201l435 70q-121 432 -140 500l-120 630zM340 412l115 485l94 -473z" />
    <glyph glyph-name="B" unicode="B" horiz-adv-x="1036" 
d="M354 348v-51h64q139 0 139 26t-139 25h-64zM426 737h-57l-7 -100h62q180 0 180 50t-178 50zM631 324q0 -41 -41 -63t-164 -21l-141 6l4 153q59 7 159 7t142 -20q41 -20 41 -62zM426 809q144 0 198 -30t54 -93t-58 -93t-196 -30h-135l8 246h129zM893 317q0 63 -43 109
t-115 70q100 33 158 109q57 77 57 271t-111 285q-112 92 -395 96l-350 9q25 -694 25 -719l-27 -473l334 -4q236 -4 352 55t115 192zM1024 856q0 -176 -62 -264t-90 -100q29 -20 61 -68t32 -107q1 -173 -133 -249t-406 -72l-414 4q33 524 33 547l-29 792l430 -8
q324 -7 451 -115t127 -360z" />
    <glyph glyph-name="C" unicode="C" horiz-adv-x="956" 
d="M598 -8q-235 0 -393 136q-178 155 -178 564q0 322 142 472t462 165l252 10l45 -624l-234 -10q-238 -8 -237 -191q0 -197 196 -197h205l19 -315q-175 -10 -279 -10zM653 244q-270 0 -270 270q0 126 73 190t228 72l166 10l-35 480l-180 -11q-285 -14 -411 -146t-126 -417
q0 -366 158 -505q140 -123 369 -121l174 6l-11 172h-135z" />
    <glyph glyph-name="D" unicode="D" horiz-adv-x="1017" 
d="M383 319q71 0 107 40t36 159t-36 167t-107 48v-414zM377 811q115 0 168 -63t53 -240q0 -262 -215 -262h-78l4 565h68zM924 668q0 346 -110 465q-110 120 -445 124l-273 7q25 -692 25 -717l-21 -467l289 -6q301 -8 418 120t117 474zM995 662q0 -382 -132 -526t-476 -136
l-362 8q23 516 22 539l-24 792l348 -8q356 -8 490 -148q134 -139 134 -521z" />
    <glyph glyph-name="E" unicode="E" horiz-adv-x="946" 
d="M901 1337l19 -653l-523 6l2 -82h361l-23 -250l-327 4v-71l508 -10l-44 -289l-804 8q4 498 4 522l-56 807zM844 758l-15 506l-733 -9q49 -711 49 -733l-4 -448l670 -8l23 155l-494 6l-6 197l336 -2l12 123h-352l-6 219z" />
    <glyph glyph-name="F" unicode="F" horiz-adv-x="907" 
d="M395 629h332l-25 -273l-305 2l13 -374l-349 10q4 508 5 530l-54 807l875 8l8 -641l-500 7v-76zM823 768l-8 498l-725 -9q49 -709 49 -733l-4 -458l199 -9l-8 367l309 -4l12 145h-325l-5 209z" />
    <glyph glyph-name="G" unicode="G" horiz-adv-x="1042" 
d="M760 334q0 -123 -191 -123q-186 0 -186 289q0 152 73 224t222 77l244 8l-25 463l-219 -6q-324 -8 -451 -152t-129 -512q-2 -299 109 -426t375 -127q90 0 160 29q70 28 106 68q38 40 68 109t30 151t-8 114l-4 8l-332 2l10 -118l144 -6q4 -55 4 -72zM1020 436
q0 -72 -8 -120t-37 -111t-74 -111t-128 -84q-83 -35 -191 -35q-305 -1 -431 143t-124 484q2 410 143 568t506 169l291 7l30 -607l-317 -12q-115 -4 -169 -57t-54 -167q-1 -114 29 -166t96 -52q104 0 104 49v14l-137 4l-17 248h461q27 -92 27 -164z" />
    <glyph glyph-name="H" unicode="H" horiz-adv-x="1036" 
d="M940 1257l-248 -6l17 -682l-258 -10l22 698l-373 -6q31 -610 31 -633l-31 -552l336 -9l10 346l256 -4l-12 -333l213 -9zM621 1323l393 10l-39 -1349l-359 6l17 338l-119 2l-10 -346l-481 10q35 600 34 624l-34 705l522 10l-21 -698l117 4z" />
    <glyph glyph-name="I" unicode="I" horiz-adv-x="501" 
d="M403 1251l-305 6q18 -707 19 -745l26 -455l256 9q-31 426 -30 448zM23 1333l456 -10q-37 -784 -37 -809l37 -520l-405 -10q-29 492 -29 528z" />
    <glyph glyph-name="J" unicode="J" horiz-adv-x="972" 
d="M461 375q0 -84 37 -84t34 84l-10 325l-45 646l471 -17q-14 -588 -14 -633l4 -340q2 -110 -12 -174t-60 -114t-131 -72q-86 -20 -227 -21q-272 0 -374 83q-101 83 -109 290l-13 342l449 -33v-282zM500 217q-61 0 -86 32t-25 126v215l-301 22l8 -262q6 -168 93 -234
t318 -67q231 0 298 74q37 41 48 93t11 140l-4 340l12 561l-315 13q35 -528 37 -568l12 -327q2 -94 -22 -126t-84 -32z" />
    <glyph glyph-name="K" unicode="K" horiz-adv-x="1077" 
d="M358 -18l-354 24q57 547 57 621l-36 694l354 31l6 -338l328 383l364 -406l-471 -450l395 -308l-233 -307l-401 344zM86 76l207 -17l35 340l428 -366l147 190l-393 318l465 454l-262 293l-381 -436l-23 422l-207 -21q33 -549 33 -626z" />
    <glyph glyph-name="L" unicode="L" horiz-adv-x="860" 
d="M10 1329l488 12q6 -692 6 -716l-21 -310l373 4l-39 -327l-790 8q33 612 32 637zM424 1268l-336 -11q45 -598 45 -620l-31 -563l648 -8l24 180l-373 -4q31 362 31 383z" />
    <glyph glyph-name="M" unicode="M" horiz-adv-x="1361" 
d="M25 2v1331h503l148 -577l180 565h469v-1331h-494l31 428l-88 -228h-371l-55 228v-416h-323zM293 68v655l164 -473h268l182 477v-653h357v1186h-355l-237 -705l-199 692h-377l-4 -1179h201z" />
    <glyph glyph-name="N" unicode="N" horiz-adv-x="1069" 
d="M1038 1331l9 -1315l-515 -30l-174 501l15 -503l-348 20q20 608 20 639l-22 649l542 37l166 -538l-35 538zM973 86l-8 1171l-193 -2l16 -823l-274 821l-416 -28q20 -551 21 -582l-19 -569l199 -15l-4 762l287 -760z" />
    <glyph glyph-name="O" unicode="O" 
d="M545 737q-49 0 -67 -46t-19 -174t21 -172t65 -44q88 0 88 215q1 129 -19 175t-69 46zM496 -18q-126 0 -218 28q-192 59 -235 334q-20 138 -20 356q-1 218 21 336q43 239 236 289q93 25 250 25q281 0 375 -130t94 -529t-53 -514q-23 -50 -55 -92q-54 -69 -203 -93
q-66 -10 -192 -10zM926 715q0 333 -78 447t-318 114q-178 0 -268 -45t-129 -163t-39 -375t37 -394t127 -191t282 -53q192 0 275 71q84 71 103 313q8 101 8 276zM545 227q-78 -1 -119 59t-41 230t35 232t125 61q90 0 126 -59t36 -234q0 -289 -162 -289z" />
    <glyph glyph-name="P" unicode="P" horiz-adv-x="1050" 
d="M455 590q156 0 155 63q0 60 -125 62l-108 2l-4 -127h82zM684 651q0 -71 -55 -103t-176 -32l-154 6l6 269l182 -5q113 -2 155 -32t42 -103zM954 797q0 262 -99 357t-349 99l-404 4q25 -686 25 -710l-27 -467l189 -14l8 272l139 2q313 0 421 114q56 60 77 140q20 80 20 203
zM369 266q0 -69 -9 -276l-337 20q31 514 30 537l-28 786l483 -8q288 -2 404 -114t116 -414q0 -143 -24 -235t-88 -164q-66 -72 -182 -102t-298 -30h-67z" />
    <glyph glyph-name="Q" unicode="Q" 
d="M545 737q-49 0 -67 -46t-19 -174t21 -172t65 -44q88 0 88 215q1 129 -19 175t-69 46zM545 227q-78 -1 -119 59t-41 230t35 232t125 61q90 0 126 -59t36 -234q0 -289 -162 -289zM926 712q0 336 -78 450t-318 114q-178 0 -268 -45t-129 -163t-39 -353q0 -379 73 -512
t292 -146q35 -145 90 -227l16 -27l221 82q-61 78 -81 187q139 35 180 169t41 471zM530 1350q281 0 375 -130t94 -488q1 -358 -37 -504q-38 -148 -167 -203q19 -54 88 -148l20 -24l-368 -144q-92 119 -134 279q-215 28 -297 184t-81 543q-1 203 21 321q43 239 236 289
q93 25 250 25z" />
    <glyph glyph-name="R" unicode="R" horiz-adv-x="1054" 
d="M472 625q72 0 104 10t32 49t-34 53t-140 15h-57l-4 -125q27 -2 99 -2zM1032 802q0 -288 -186 -411q123 -221 158 -291l-429 -133l-157 334h-56v-324l-339 31q31 516 30 539l-28 790l516 -8q279 -4 385 -122q106 -117 106 -405zM289 375h176l149 -320l285 88l-151 281
q211 88 210 387q0 244 -86 343t-331 101l-439 7q25 -690 25 -715l-27 -471l189 -19v318zM434 823q152 1 200 -29t48 -113t-48 -106t-175 -22l-158 6l4 264h129z" />
    <glyph glyph-name="S" unicode="S" horiz-adv-x="946" 
d="M586 306q0 -36 -38 -52t-157 -16l-207 8l13 -172q137 -10 211 -11q246 -1 330 57t85 191q0 74 -39 126t-94 81q-55 30 -110 52q-134 55 -134 124q0 49 37 75t127 30l240 8l-10 459l-285 -9q-252 -8 -356 -98t-105 -297q0 -104 37 -185t91 -125q118 -96 241 -139t123 -107
zM520 696q0 -20 73 -51q144 -62 207 -113q97 -80 97 -236t-100 -230t-389 -74l-281 12l-21 320q408 -28 408 -7q0 8 -44 22q-44 15 -80 32t-58 27q-23 10 -72 37q-49 29 -75 51q-89 77 -111 131q-51 127 -51 245q0 248 120 356q121 107 410 113l356 8l15 -596l-312 -10
q-92 -2 -92 -37z" />
    <glyph glyph-name="T" unicode="T" horiz-adv-x="1013" 
d="M934 1266l-842 -13l-18 -450l278 -8q-4 -236 -4 -277l19 -457l243 23q-14 406 -14 428l10 279l283 -7zM23 1323l991 16l-58 -630l-280 6q-6 -156 -6 -203l16 -496l-389 -34q-23 498 -23 536l2 205l-276 8z" />
    <glyph glyph-name="U" unicode="U" horiz-adv-x="1054" 
d="M552 -23q-264 1 -382 107t-119 348v395l-6 504l541 4l-8 -909q0 -109 55 -109q61 0 61 109l-6 903l324 -6l2 -815q2 -297 -98 -414t-364 -117zM768 376q0 -13 -7 -45t-19 -46q-37 -41 -96 -41q-103 0 -125 64q-17 49 -17 118l10 836l-395 -5q8 -332 8 -430l-2 -395
q-2 -203 99 -292q102 -89 326 -89q224 1 309 101t83 356l-4 743l-176 4l6 -829v-50z" />
    <glyph glyph-name="V" unicode="V" horiz-adv-x="1179" 
d="M1174 1288l-306 -1286l-495 -14l-359 1306l568 47l131 -704l123 713zM811 74l272 1155l-190 37l-188 -899l-183 897l-413 -35l321 -1168z" />
    <glyph glyph-name="W" unicode="W" horiz-adv-x="1449" 
d="M1432 1307l-156 -1305l-447 -14l-59 338l-63 -322l-461 -14l-230 1290l492 66l78 -699l65 354l334 11l53 -367l52 694zM1210 74l140 1167l-195 21l-94 -885l-133 561l-219 -8l-138 -559l-129 893l-342 -47l207 -1154l340 13l125 477l115 -492z" />
    <glyph glyph-name="X" unicode="X" horiz-adv-x="1202" 
d="M465 1409l207 -373l205 369l309 -191l-320 -507l334 -527l-467 -268l-196 346l-193 -336l-301 199l289 471l-330 524zM674 901l-236 406l-336 -215l318 -500l-279 -451l176 -116l218 372l225 -385l340 197l-314 498l299 483l-182 113z" />
    <glyph glyph-name="Y" unicode="Y" horiz-adv-x="1175" 
d="M317 422l-315 790l518 154l158 -543l170 547l326 -145l-285 -776l2 -447l-586 -18zM676 655l-203 621l-375 -111l293 -733l-12 -375l440 17l-4 389l264 723l-188 86z" />
    <glyph glyph-name="Z" unicode="Z" horiz-adv-x="1040" 
d="M23 1339l995 -18l-27 -530l-405 -461l336 12l10 -336l-836 -10l-8 280l393 465l-436 -18zM942 1249l-844 15l19 -467l501 10l-456 -555l4 -182l690 8l-6 190l-406 -6l476 555z" />
    <glyph glyph-name="bracketleft" unicode="[" horiz-adv-x="673" 
d="M633 -240l-602 29q25 735 24 819l-32 858l610 29l12 -276l-219 -13l-14 -1159l233 -14zM102 -145l463 -21l6 133l-231 15l14 1292l217 14l-6 131l-469 -20q29 -692 29 -791z" />
    <glyph glyph-name="backslash" unicode="\" horiz-adv-x="757" 
d="M319 1300l-225 -32l402 -1301l170 19zM2 1327l371 51l383 -1456l-310 -31z" />
    <glyph glyph-name="bracketright" unicode="]" horiz-adv-x="673" 
d="M643 -211l-602 -29l-12 273l233 14l-14 1159l-219 13l12 276l610 -29q-33 -760 -33 -858zM109 -166l462 21q-23 668 -22 753l29 791l-469 20l-7 -131l217 -14l15 -1292l-232 -15z" />
    <glyph glyph-name="asciicircum" unicode="^" horiz-adv-x="1007" 
d="M436 1870l-250 -303l148 -99l178 236l174 -240l137 97l-233 309h-154zM84 1550l315 394l226 -5l299 -395l-254 -178l-160 231l-162 -225z" />
    <glyph glyph-name="underscore" unicode="_" horiz-adv-x="937" 
d="M137 63l680 15l6 182l-704 -14zM887 8l-815 -16l-29 321l852 19z" />
    <glyph glyph-name="grave" unicode="`" horiz-adv-x="815" 
d="M610 1419l23 119l-424 141l-25 -188zM711 1587l-43 -248l-564 95l43 340z" />
    <glyph glyph-name="a" unicode="a" horiz-adv-x="1134" 
d="M449 657l-29 -178l53 4zM-8 55l323 1229l533 57q119 -633 135 -696l160 -575l-586 -95l-39 209l-158 4l-57 -215zM375 1217l-295 -1108l170 -48l51 199l279 -2l36 -201l435 70q-121 432 -140 500l-120 630zM340 412l115 485l94 -473z" />
    <glyph glyph-name="b" unicode="b" horiz-adv-x="1036" 
d="M354 348v-51h64q139 0 139 26t-139 25h-64zM426 737h-57l-7 -100h62q180 0 180 50t-178 50zM631 324q0 -41 -41 -63t-164 -21l-141 6l4 153q59 7 159 7t142 -20q41 -20 41 -62zM426 809q144 0 198 -30t54 -93t-58 -93t-196 -30h-135l8 246h129zM893 317q0 63 -43 109
t-115 70q100 33 158 109q57 77 57 271t-111 285q-112 92 -395 96l-350 9q25 -694 25 -719l-27 -473l334 -4q236 -4 352 55t115 192zM1024 856q0 -176 -62 -264t-90 -100q29 -20 61 -68t32 -107q1 -173 -133 -249t-406 -72l-414 4q33 524 33 547l-29 792l430 -8
q324 -7 451 -115t127 -360z" />
    <glyph glyph-name="c" unicode="c" horiz-adv-x="956" 
d="M598 -8q-235 0 -393 136q-178 155 -178 564q0 322 142 472t462 165l252 10l45 -624l-234 -10q-238 -8 -237 -191q0 -197 196 -197h205l19 -315q-175 -10 -279 -10zM653 244q-270 0 -270 270q0 126 73 190t228 72l166 10l-35 480l-180 -11q-285 -14 -411 -146t-126 -417
q0 -366 158 -505q140 -123 369 -121l174 6l-11 172h-135z" />
    <glyph glyph-name="d" unicode="d" horiz-adv-x="1017" 
d="M383 319q71 0 107 40t36 159t-36 167t-107 48v-414zM377 811q115 0 168 -63t53 -240q0 -262 -215 -262h-78l4 565h68zM924 668q0 346 -110 465q-110 120 -445 124l-273 7q25 -692 25 -717l-21 -467l289 -6q301 -8 418 120t117 474zM995 662q0 -382 -132 -526t-476 -136
l-362 8q23 516 22 539l-24 792l348 -8q356 -8 490 -148q134 -139 134 -521z" />
    <glyph glyph-name="e" unicode="e" horiz-adv-x="946" 
d="M901 1337l19 -653l-523 6l2 -82h361l-23 -250l-327 4v-71l508 -10l-44 -289l-804 8q4 498 4 522l-56 807zM844 758l-15 506l-733 -9q49 -711 49 -733l-4 -448l670 -8l23 155l-494 6l-6 197l336 -2l12 123h-352l-6 219z" />
    <glyph glyph-name="f" unicode="f" horiz-adv-x="907" 
d="M395 629h332l-25 -273l-305 2l13 -374l-349 10q4 508 5 530l-54 807l875 8l8 -641l-500 7v-76zM823 768l-8 498l-725 -9q49 -709 49 -733l-4 -458l199 -9l-8 367l309 -4l12 145h-325l-5 209z" />
    <glyph glyph-name="g" unicode="g" horiz-adv-x="1042" 
d="M760 334q0 -123 -191 -123q-186 0 -186 289q0 152 73 224t222 77l244 8l-25 463l-219 -6q-324 -8 -451 -152t-129 -512q-2 -299 109 -426t375 -127q90 0 160 29q70 28 106 68q38 40 68 109t30 151t-8 114l-4 8l-332 2l10 -118l144 -6q4 -55 4 -72zM1020 436
q0 -72 -8 -120t-37 -111t-74 -111t-128 -84q-83 -35 -191 -35q-305 -1 -431 143t-124 484q2 410 143 568t506 169l291 7l30 -607l-317 -12q-115 -4 -169 -57t-54 -167q-1 -114 29 -166t96 -52q104 0 104 49v14l-137 4l-17 248h461q27 -92 27 -164z" />
    <glyph glyph-name="h" unicode="h" horiz-adv-x="1036" 
d="M940 1257l-248 -6l17 -682l-258 -10l22 698l-373 -6q31 -610 31 -633l-31 -552l336 -9l10 346l256 -4l-12 -333l213 -9zM621 1323l393 10l-39 -1349l-359 6l17 338l-119 2l-10 -346l-481 10q35 600 34 624l-34 705l522 10l-21 -698l117 4z" />
    <glyph glyph-name="i" unicode="i" horiz-adv-x="501" 
d="M403 1251l-305 6q18 -707 19 -745l26 -455l256 9q-31 426 -30 448zM23 1333l456 -10q-37 -784 -37 -809l37 -520l-405 -10q-29 492 -29 528z" />
    <glyph glyph-name="j" unicode="j" horiz-adv-x="972" 
d="M461 375q0 -84 37 -84t34 84l-10 325l-45 646l471 -17q-14 -588 -14 -633l4 -340q2 -110 -12 -174t-60 -114t-131 -72q-86 -20 -227 -21q-272 0 -374 83q-101 83 -109 290l-13 342l449 -33v-282zM500 217q-61 0 -86 32t-25 126v215l-301 22l8 -262q6 -168 93 -234
t318 -67q231 0 298 74q37 41 48 93t11 140l-4 340l12 561l-315 13q35 -528 37 -568l12 -327q2 -94 -22 -126t-84 -32z" />
    <glyph glyph-name="k" unicode="k" horiz-adv-x="1077" 
d="M358 -18l-354 24q57 547 57 621l-36 694l354 31l6 -338l328 383l364 -406l-471 -450l395 -308l-233 -307l-401 344zM86 76l207 -17l35 340l428 -366l147 190l-393 318l465 454l-262 293l-381 -436l-23 422l-207 -21q33 -549 33 -626z" />
    <glyph glyph-name="l" unicode="l" horiz-adv-x="860" 
d="M10 1329l488 12q6 -692 6 -716l-21 -310l373 4l-39 -327l-790 8q33 612 32 637zM424 1268l-336 -11q45 -598 45 -620l-31 -563l648 -8l24 180l-373 -4q31 362 31 383z" />
    <glyph glyph-name="m" unicode="m" horiz-adv-x="1361" 
d="M20 2l5 1317l503 14l148 -577l180 579l481 -14l-12 -1319l-494 -12l31 428l-88 -244l-371 16l-61 228l6 -426zM96 1247l-4 -1173l184 -6l17 655l164 -461l268 -12l193 477l-11 -664l346 11l11 1175l-355 11l-237 -705l-199 702z" />
    <glyph glyph-name="n" unicode="n" horiz-adv-x="1069" 
d="M1038 1331l9 -1315l-515 -30l-174 501l15 -503l-348 20q20 608 20 639l-22 649l542 37l166 -538l-35 538zM973 86l-8 1171l-193 -2l16 -823l-274 821l-416 -28q20 -551 21 -582l-19 -569l199 -15l-4 762l287 -760z" />
    <glyph glyph-name="o" unicode="o" 
d="M545 737q-49 0 -67 -46t-19 -174t21 -172t65 -44q88 0 88 215q1 129 -19 175t-69 46zM496 -18q-126 0 -218 28q-192 59 -235 334q-20 138 -20 356q-1 218 21 336q43 239 236 289q93 25 250 25q281 0 375 -130t94 -529t-53 -514q-23 -50 -55 -92q-54 -69 -203 -93
q-66 -10 -192 -10zM926 715q0 333 -78 447t-318 114q-178 0 -268 -45t-129 -163t-39 -375t37 -394t127 -191t282 -53q192 0 275 71q84 71 103 313q8 101 8 276zM545 227q-78 -1 -119 59t-41 230t35 232t125 61q90 0 126 -59t36 -234q0 -289 -162 -289z" />
    <glyph glyph-name="p" unicode="p" horiz-adv-x="1040" 
d="M455 590q156 0 155 63q0 60 -125 62l-108 2l-4 -127h82zM684 651q0 -71 -55 -103t-176 -32l-154 6l6 269l182 -5q113 -2 155 -32t42 -103zM954 797q0 262 -99 357t-349 99l-404 4q25 -686 25 -710l-27 -467l189 -14l8 272l139 2q313 0 421 114q56 60 77 140q20 80 20 203
zM369 266q0 -69 -9 -276l-337 20q31 514 30 537l-28 786l483 -8q288 -2 404 -114t116 -414q0 -143 -24 -235t-88 -164q-66 -72 -182 -102t-298 -30h-67z" />
    <glyph glyph-name="q" unicode="q" 
d="M545 737q-49 0 -67 -46t-19 -174t21 -172t65 -44q88 0 88 215q1 129 -19 175t-69 46zM545 227q-78 -1 -119 59t-41 230t35 232t125 61q90 0 126 -59t36 -234q0 -289 -162 -289zM926 712q0 336 -78 450t-318 114q-178 0 -268 -45t-129 -163t-39 -353q0 -379 73 -512
t292 -146q35 -145 90 -227l16 -27l221 82q-61 78 -81 187q139 35 180 169t41 471zM530 1350q281 0 375 -130t94 -488q1 -358 -37 -504q-38 -148 -167 -203q19 -54 88 -148l20 -24l-368 -144q-92 119 -134 279q-215 28 -297 184t-81 543q-1 203 21 321q43 239 236 289
q93 25 250 25z" />
    <glyph glyph-name="r" unicode="r" horiz-adv-x="1054" 
d="M472 625q72 0 104 10t32 49t-34 53t-140 15h-57l-4 -125q27 -2 99 -2zM1032 802q0 -288 -186 -411q123 -221 158 -291l-429 -133l-157 334h-56v-324l-339 31q31 516 30 539l-28 790l516 -8q279 -4 385 -122q106 -117 106 -405zM289 375h176l149 -320l285 88l-151 281
q211 88 210 387q0 244 -86 343t-331 101l-439 7q25 -690 25 -715l-27 -471l189 -19v318zM434 823q152 1 200 -29t48 -113t-48 -106t-175 -22l-158 6l4 264h129z" />
    <glyph glyph-name="s" unicode="s" horiz-adv-x="946" 
d="M586 306q0 -36 -38 -52t-157 -16l-207 8l13 -172q137 -10 211 -11q246 -1 330 57t85 191q0 74 -39 126t-94 81q-55 30 -110 52q-134 55 -134 124q0 49 37 75t127 30l240 8l-10 459l-285 -9q-252 -8 -356 -98t-105 -297q0 -104 37 -185t91 -125q118 -96 241 -139t123 -107
zM520 696q0 -20 73 -51q144 -62 207 -113q97 -80 97 -236t-100 -230t-389 -74l-281 12l-21 320q408 -28 408 -7q0 8 -44 22q-44 15 -80 32t-58 27q-23 10 -72 37q-49 29 -75 51q-89 77 -111 131q-51 127 -51 245q0 248 120 356q121 107 410 113l356 8l15 -596l-312 -10
q-92 -2 -92 -37z" />
    <glyph glyph-name="t" unicode="t" horiz-adv-x="1013" 
d="M934 1266l-842 -13l-18 -450l278 -8q-4 -236 -4 -277l19 -457l243 23q-14 406 -14 428l10 279l283 -7zM23 1323l991 16l-58 -630l-280 6q-6 -156 -6 -203l16 -496l-389 -34q-23 498 -23 536l2 205l-276 8z" />
    <glyph glyph-name="u" unicode="u" horiz-adv-x="1054" 
d="M552 -23q-264 1 -382 107t-119 348v395l-6 504l541 4l-8 -909q0 -109 55 -109q61 0 61 109l-6 903l324 -6l2 -815q2 -297 -98 -414t-364 -117zM768 376q0 -13 -7 -45t-19 -46q-37 -41 -96 -41q-103 0 -125 64q-17 49 -17 118l10 836l-395 -5q8 -332 8 -430l-2 -395
q-2 -203 99 -292q102 -89 326 -89q224 1 309 101t83 356l-4 743l-176 4l6 -829v-50z" />
    <glyph glyph-name="v" unicode="v" horiz-adv-x="1185" 
d="M1174 1288l-306 -1286l-495 -14l-359 1306l568 47l131 -704l123 713zM811 74l272 1155l-190 37l-188 -899l-183 897l-413 -35l321 -1168z" />
    <glyph glyph-name="w" unicode="w" horiz-adv-x="1449" 
d="M1432 1307l-156 -1305l-447 -14l-59 338l-63 -322l-461 -14l-230 1290l492 66l78 -699l65 354l334 11l53 -367l52 694zM1210 74l140 1167l-195 21l-94 -885l-133 561l-219 -8l-138 -559l-129 893l-342 -47l207 -1154l340 13l125 477l115 -492z" />
    <glyph glyph-name="x" unicode="x" horiz-adv-x="1202" 
d="M465 1409l207 -373l205 369l309 -191l-320 -507l334 -527l-467 -268l-196 346l-193 -336l-301 199l289 471l-330 524zM674 901l-236 406l-336 -215l318 -500l-279 -451l176 -116l218 372l225 -385l340 197l-314 498l299 483l-182 113z" />
    <glyph glyph-name="y" unicode="y" horiz-adv-x="1175" 
d="M317 422l-315 790l518 154l158 -543l170 547l326 -145l-285 -776l2 -447l-586 -18zM676 655l-203 621l-375 -111l293 -733l-12 -375l440 17l-4 389l264 723l-188 86z" />
    <glyph glyph-name="z" unicode="z" horiz-adv-x="1040" 
d="M23 1339l995 -18l-27 -530l-405 -461l336 12l10 -336l-836 -10l-8 280l393 465l-436 -18zM942 1249l-844 15l19 -467l501 10l-456 -555l4 -182l690 8l-6 190l-406 -6l476 555z" />
    <glyph glyph-name="braceleft" unicode="{" horiz-adv-x="813" 
d="M238 864q0 -166 -134 -166l-2 -129q135 0 138 -192l4 -248q2 -133 49 -187t145 -61l256 -16l11 129l-123 10q-74 4 -102 31t-29 104l-2 271q0 59 -20 103q-36 83 -128 110q34 10 68 38q68 56 73 160l9 305q0 135 118 148l129 10v131l-249 -18q-117 -7 -162 -59t-49 -152
v-322zM168 864v324q4 133 62 201t212 79l328 23v-272l-195 -17q-51 -2 -55 -78l-6 -305q0 -41 -19 -90t-40 -78l-19 -26q82 -78 82 -215l4 -271q2 -37 16 -49t48 -16l192 -13l-16 -270l-328 21q-132 8 -196 78t-66 237l-4 250q0 121 -137 121l2 270q135 0 135 96z" />
    <glyph glyph-name="bar" unicode="|" horiz-adv-x="583" 
d="M401 1343l-221 7q25 -702 25 -740l10 -616l193 6q-29 588 -29 612zM106 1423l367 -10q-25 -778 -24 -801l32 -680l-336 -12q-10 653 -10 690z" />
    <glyph glyph-name="braceright" unicode="}" horiz-adv-x="813" 
d="M508 623q-145 -59 -143 -213l-3 -271q-2 -79 -30 -105t-101 -30l-122 -10l10 -129l256 16q98 7 145 61t49 187l4 248q2 193 138 192l-2 129q-133 0 -134 166v322q-4 100 -49 151t-161 60l-250 18v-131l129 -10q119 -12 118 -148l9 -305q4 -150 137 -198zM645 864
q0 -96 135 -96l2 -270q-137 0 -137 -121l-4 -250q-3 -167 -67 -237t-195 -78l-328 -23l-16 272l192 13q35 4 48 16t16 49l4 271q0 47 20 101t41 83l21 31q-76 76 -78 194l-6 305q-4 76 -55 78l-195 17v272l328 -23q154 -12 212 -80t62 -200v-324z" />
    <glyph glyph-name="asciitilde" unicode="~" horiz-adv-x="788" 
d="M228 487q42 1 120 -21t160 -22t143 37l19 13l-29 159q-57 -37 -113 -37t-137 23t-157 23t-105 -29l-10 -10l33 -154q35 18 76 18zM384 708q85 -22 144 -22t134 45l24 14l59 -282q-121 -88 -249 -88q-62 -1 -138 21t-132 22t-107 -31l-21 -10l-55 270q4 9 15 23t66 38
q98 43 260 0z" />
    <glyph glyph-name="exclamdown" unicode="&#xa1;" horiz-adv-x="608" 
d="M158 106l291 -4q-25 344 -25 443l-12 354l-209 16q-35 -324 -35 -403zM492 1202q0 -80 -43 -130t-137 -50t-136 50q-43 50 -43 130t49 124t130 44q80 0 130 -44t50 -124zM428 1202q0 51 -35 77t-81 26t-80 -26t-34 -78t30 -81q30 -28 83 -28t85 30t32 80zM84 39
q12 395 12 459t33 395l10 98l340 -26q14 -322 15 -420l30 -516z" />
    <glyph glyph-name="cent" unicode="&#xa2;" horiz-adv-x="960" 
d="M43 653q0 240 83 379t265 197l-4 176l348 10l-2 -141l139 6l46 -606l-234 -10q-119 -6 -172 -44t-53 -126t47 -128t143 -40h199l10 -312q-70 -4 -137 -4l-2 -116l-309 -9l-11 148q-356 111 -356 620zM113 628q0 -254 92 -380t262 -156l8 -135l172 6l2 119l142 4l-11 168
h-131q-131 0 -195 57t-65 183q0 126 69 179q69 54 222 62l160 8l-33 465l-148 -8l5 141l-205 -6l6 -159q-184 -43 -268 -168q-84 -126 -84 -380z" />
    <glyph glyph-name="sterling" unicode="&#xa3;" horiz-adv-x="942" 
d="M133 827q0 -71 23 -143t45 -111l22 -38l-108 -3l4 -129l141 -4q0 -72 -28 -178t-27 -147l536 -17l23 156l-324 -8q25 111 25 211l231 -4l6 137l-266 -8q-29 63 -28 123q0 96 192 108l225 12l-10 443l-192 -2q-262 -5 -376 -95t-114 -303zM621 1294l264 4l14 -581
l-295 -17q-127 -6 -127 -36l8 -54l289 13l-10 -285l-232 6l-4 -78l318 6l-41 -286l-672 20q-1 126 23 202t28 122q-49 2 -137 2l-4 270h68q-47 109 -48 225q1 251 131 357t427 110z" />
    <glyph glyph-name="currency" unicode="&#xa4;" horiz-adv-x="1212" 
d="M626 203q132 0 201 43l97 -144l159 144l-127 145q41 111 41 236t-22 182l-8 20l147 140l-166 157l-108 -133q-59 53 -207 54q-66 1 -119 -15t-72 -31l-20 -14l-127 133l-152 -166l162 -145q-37 -106 -16 -281q6 -49 14 -73l6 -25l-157 -170l167 -139l109 137
q66 -55 198 -55zM498 551q0 180 135 180q143 0 143 -178t-143 -178q-61 0 -98 44t-37 132zM633 662q-64 0 -64 -108t64 -110q74 0 74 109t-74 109zM434 1077q86 41 183 41t178 -24l28 -11l119 148l275 -262l-170 -158q37 -116 14 -280q-8 -56 -17 -89l-8 -34l150 -168
l-277 -246l-106 164q-69 -25 -161 -25t-167 25l-29 8q-30 -41 -116 -148l-283 234l184 199q-20 98 -20 178l14 157l-182 162l250 277z" />
    <glyph glyph-name="yen" unicode="&#xa5;" horiz-adv-x="1140" 
d="M301 199l-182 -2l-68 546h125q-27 72 -88 230t-86 223l502 125l153 -465l162 465l320 -113l-166 -458l119 6l-58 -553l-176 -2l8 -199l-573 -18zM786 272l183 2l12 156l-199 -2l27 76l178 2l23 176l-140 -6l177 489l-183 66l-209 -596l-196 602l-363 -90l183 -477l-148 4
l25 -180l190 2l31 -74l-213 -4l18 -152l191 2l-4 -211l424 13z" />
    <glyph glyph-name="brokenbar" unicode="&#xa6;" horiz-adv-x="579" 
d="M399 -98l-20 561l-180 -6l-21 -561zM449 537l22 -705l-367 -10l27 702zM379 735l20 623l-221 6l21 -623zM471 1427l-22 -765l-318 12l-27 764z" />
    <glyph glyph-name="section" unicode="&#xa7;" horiz-adv-x="995" 
d="M328 744q-39 60 -39 133t35 94l12 6q0 -151 133 -269q55 -48 111 -96q134 -113 135 -235q0 -62 -49 -107q0 92 -39 163t-95 117t-110 90q-55 44 -94 104zM369 49q258 0 385 70t127 258q0 81 -40 153q-41 72 -97 123t-112 97t-96 87q-40 42 -40 76q0 76 153 80l152 4
l35 263q-84 2 -181 2q-274 0 -407 -90t-133 -287q0 -88 40 -168t95 -135q55 -56 111 -102q57 -46 97 -84t40 -64q0 -70 -140 -70q-66 0 -129 12l-22 5l-23 -218q88 -12 185 -12zM428 332q0 8 -90 76q-66 55 -102 89q-131 125 -167 233q-26 73 -26 155q0 238 151 342t461 104
l258 -2l-49 -403l-215 -4q-82 0 -82 -9q0 -20 111 -108q210 -177 252 -293q23 -63 22 -135q0 -231 -144 -315t-439 -85q-70 0 -217 21l-46 6l37 352q145 -25 215 -24h70z" />
    <glyph glyph-name="dieresis" unicode="&#xa8;" horiz-adv-x="811" 
d="M553 1667q-69 0 -89 -30t-20 -87t22 -79q22 -21 85 -21t85 24t22 83t-19 85q-18 26 -86 25zM154 1556q0 -58 20 -82t85 -24t87 20t21 81t-21 89t-87 27q-67 0 -86 -27t-19 -84zM82 1556q0 92 34 134t144 43q110 0 148 -50q44 49 150 49t138 -40t33 -134q0 -94 -38 -134
q-39 -40 -143 -40t-142 39q-38 -39 -144 -39t-143 40t-37 132z" />
    <glyph glyph-name="copyright" unicode="&#xa9;" horiz-adv-x="1120" 
d="M256 819q0 -352 305 -352q168 0 237 89q68 89 68 262t-67 254q-68 81 -233 81q-166 0 -238 -84t-72 -250zM35 812q0 272 131 426q131 153 395 153q529 -1 529 -571t-529 -570q-258 0 -392 145t-134 417zM612 535q-293 0 -293 278q0 262 285 272l141 2l21 -282l-133 -8
q-43 -6 -43 -35q0 -18 39 -23l127 -4l-13 -190q-104 -10 -131 -10zM532 763q0 37 27 61t72 28l74 6l-13 174l-86 -4q-229 -4 -229 -215q0 -221 235 -221l76 2l6 84l-65 4q-39 2 -68 22t-29 59zM561 1333q-239 0 -355 -136t-116 -382t121 -377t350 -131q471 0 471 513
t-471 513zM201 819q0 195 86 293q87 98 281 98t274 -96t80 -296t-81 -304t-280 -104q-360 -1 -360 409z" />
    <glyph glyph-name="ordfeminine" unicode="&#xaa;" horiz-adv-x="854" 
d="M317 834l60 241l55 -233zM719 295l6 147l-596 -16l-8 -127zM55 236l13 253l720 19l-6 -277zM313 1231l-166 -569l119 -23l29 109h156l24 -113l232 39q-78 223 -91 258l-73 317zM68 612l198 680l322 31q88 -348 94 -381l109 -319l-365 -62l-29 123h-53l-31 -119z" />
    <glyph glyph-name="guillemotleft" unicode="&#xab;" horiz-adv-x="876" 
d="M78 518l241 -358l152 102l-195 256l195 256l-152 103zM356 518l258 -358l152 102l-195 256l195 256l-152 103zM299 61l-301 457l301 455l201 -135l94 135l272 -185l-213 -270l213 -272l-272 -185l-94 136z" />
    <glyph glyph-name="logicalnot" unicode="&#xac;" horiz-adv-x="860" 
d="M547 311l201 2l-5 349l-626 -15l-4 -166l436 -4zM817 246l-342 -6l4 168l-436 4l2 305l770 18z" />
    <glyph glyph-name="registered" unicode="&#xae;" horiz-adv-x="1140" 
d="M549 793v-27q11 -4 39 -4t28 15t-47 16h-20zM264 778q0 -352 305 -352q168 0 237 89q68 89 68 262t-67 254q-68 81 -233 81q-166 0 -238 -84t-72 -250zM43 772q0 272 131 425t395 153q529 0 529 -570t-529 -571q-258 0 -392 145q-134 146 -134 418zM569 1292
q-239 0 -355 -136t-116 -382t121 -377t350 -131q471 0 471 513t-471 513zM209 778q0 195 86 293q87 98 281 98t274 -96t80 -296t-81 -304t-280 -104q-360 -1 -360 409zM564 1028q142 0 199 -50q56 -50 56 -159q0 -37 -18 -75t-39 -56l-19 -20l50 -105l-197 -71l-43 118v-98
l-176 6q-8 219 -8 230l-13 264q66 16 208 16zM768 819q0 160 -188 160l-170 -8q12 -213 12 -223l4 -187l90 -6l2 109l43 2l55 -121l113 43l-49 102q10 4 25 12q14 8 38 42q25 34 25 75zM518 831h41q57 0 75 -11t19 -32q0 -59 -82 -59q-33 0 -53 4v98z" />
    <glyph glyph-name="degree" unicode="&#xb0;" horiz-adv-x="720" 
d="M362 903q14 0 26 10q11 10 11 29q0 45 -37 45t-37 -42t37 -42zM688 954q0 -152 -92 -242q-92 -91 -235 -91q-144 0 -236 85q-92 86 -92 246t88 249q87 89 243 89t240 -92t84 -244zM363 1221q-121 0 -191 -71t-70 -197q0 -127 72 -195t187 -68q114 0 185 72q70 72 70 193
t-66 193t-187 73zM359 831q-45 0 -75 30t-30 82t29 84t81 32t79 -36q28 -36 28 -82t-34 -78t-78 -32z" />
    <glyph glyph-name="plusminus" unicode="&#xb1;" horiz-adv-x="878" 
d="M186 123l500 -4l6 164l-497 -19zM348 1073l8 -217l-198 10l-2 -157l204 6l-8 -213l166 -8l-8 219l205 -4l6 159l-211 -6l2 205zM285 930l-9 217l306 -12l-2 -201l215 8l-11 -307l-202 4l10 -217l-313 10l8 211l-203 -8l2 305zM756 47l-643 6l14 281l637 20z" />
    <glyph glyph-name="twosuperior" unicode="&#xb2;" horiz-adv-x="645" 
d="M88 624q0 -60 14 -87l392 6l10 100l-271 -6q16 27 173 108q53 29 97 91t44 143q-1 139 -63 193t-232 57l-146 4l-10 -264l162 -8q102 -6 102 -62q0 -45 -67 -86l-135 -84q-70 -45 -70 -105zM16 616q0 102 103 172l135 74q31 18 31 21q0 8 -29 8l-233 8l16 406l213 -5
q211 -6 288 -74t76 -247q0 -84 -44 -154t-87 -96l-43 -29h138l-23 -229l-502 -4q-39 86 -39 149z" />
    <glyph glyph-name="threesuperior" unicode="&#xb3;" horiz-adv-x="632" 
d="M246 545q260 0 260 129q0 92 -98 112q131 41 131 201q0 135 -69 187t-220 55l-160 4l12 -264l162 -4q117 -2 117 -74q0 -39 -36 -61t-97 -21l-82 -2l-4 -72l110 -4q82 0 82 -45q0 -34 -49 -39q-18 -2 -55 -2l-135 10l-13 -102q57 -8 144 -8zM262 874q47 0 47 14t-47 13
l-225 4l-21 398l234 -3q188 -6 273 -74t85 -220t-65 -218q35 -47 35 -114q0 -201 -332 -201l-219 14l24 238q16 -2 39 -4l8 153h164z" />
    <glyph glyph-name="acute" unicode="&#xb4;" horiz-adv-x="831" 
d="M184 1546l21 -119l442 74l-24 189zM150 1346l-46 247l578 191l45 -342z" />
    <glyph glyph-name="mu" unicode="&#xb5;" horiz-adv-x="1361" 
d="M23 2l4 1317l503 14l148 -577l180 579l481 -14l-12 -1319l-493 -12l30 428l-88 -244l-370 16l-62 228l6 -426zM98 1247l-4 -1173l185 -6l16 655l164 -461l268 -12l193 477l-11 -664l346 11l11 1175l-355 11l-237 -705l-199 702z" />
    <glyph glyph-name="mu" unicode="&#x3bc;" horiz-adv-x="1361" 
d="M23 2l4 1317l503 14l148 -577l180 579l481 -14l-12 -1319l-493 -12l30 428l-88 -244l-370 16l-62 228l6 -426zM98 1247l-4 -1173l185 -6l16 655l164 -461l268 -12l193 477l-11 -664l346 11l11 1175l-355 11l-237 -705l-199 702z" />
    <glyph glyph-name="paragraph" unicode="&#xb6;" horiz-adv-x="1003" 
d="M881 1206l-101 8q-12 -690 -12 -712l23 -418l83 8q-20 395 -20 410zM723 1294l231 -12q-41 -762 -41 -786l29 -467l-207 -15q-31 451 -30 488zM588 1212l-170 -8q-154 -6 -230 -87t-77 -259q-2 -352 321 -352l6 -445l150 13q-27 432 -27 456zM414 1276l252 6
q-6 -47 -20 -384t-13 -368l31 -522l-295 -22l-9 454q-324 29 -321 418q1 216 95 312t280 106z" />
    <glyph glyph-name="periodcentered" unicode="&#xb7;" horiz-adv-x="483" 
d="M115 611q1 -67 31 -93t97 -24q67 0 97 26t31 92q0 66 -26 97q-27 31 -103 31t-102 -31q-25 -31 -25 -98zM43 609q0 103 41 151t159 49q117 0 157 -47q40 -46 40 -150t-47 -147t-149 -43t-152 42q-49 42 -49 145z" />
    <glyph glyph-name="cedilla" unicode="&#xb8;" horiz-adv-x="649" 
d="M545 -186q1 -90 -61 -142t-181 -53q-66 -1 -120 19t-77 38l-22 21l131 358l254 -2l-39 -86q115 -33 115 -153zM342 -184q0 -37 -62 -37q-63 0 -90 18l-26 -80q37 -35 130 -35t136 36t43 96q0 98 -145 98l32 70l-96 2l-51 -125l66 -4q63 -2 63 -39z" />
    <glyph glyph-name="onesuperior" unicode="&#xb9;" horiz-adv-x="522" 
d="M98 1061l68 -143l106 75l15 -463l135 13q-8 295 -8 307l16 369l-119 18zM137 813l-125 268l279 230l213 -31q-18 -416 -19 -430l9 -373l-275 -22l-4 428z" />
    <glyph glyph-name="ordmasculine" unicode="&#xba;" horiz-adv-x="790" 
d="M662 352l6 148l-541 -17l-6 -129zM53 293l15 252l665 18l-8 -276zM385 829q21 0 21 80t-23 80t-23 -80t25 -80zM381 596q-147 0 -231 85t-84 297t71 289q72 77 241 77q170 0 234 -78t64 -295t-74 -296t-221 -79zM127 978q-1 -176 67 -246t185 -70t174 66t57 244
q0 179 -50 242q-50 64 -184 64t-192 -62t-57 -238zM301 899q0 78 17 110q18 31 66 31t66 -30q17 -31 17 -108q1 -78 -19 -102t-63 -24q-84 0 -84 123z" />
    <glyph glyph-name="guillemotright" unicode="&#xbb;" horiz-adv-x="872" 
d="M569 160l242 358l-242 359l-151 -103l194 -256l-194 -256zM274 160l258 358l-258 359l-151 -103l194 -256l-194 -256zM891 518l-301 -457l-201 136l-94 -136l-272 185l213 272l-213 270l272 185l94 -135l201 135z" />
    <glyph glyph-name="onequarter" unicode="&#xbc;" horiz-adv-x="1476" 
d="M1143 213l-160 2l156 219zM831 264l48 -160l264 5l-6 -125l145 10l-6 112l67 -4l-6 107l-61 2l16 463l-166 16zM760 268l332 496l274 -27l-16 -458h55l12 -246l-67 2l6 -107l-289 -20v129q-80 -2 -240 -2zM119 1145l67 -144l107 76l14 -463l135 13q-8 295 -8 307l17 369
l-119 18zM158 897l-125 268l278 230l213 -31q-18 -416 -18 -430l8 -373l-274 -22l-4 428zM1161 1274l-166 78l-622 -1307l131 -41zM961 1444l294 -137l-716 -1387l-265 80z" />
    <glyph glyph-name="onehalf" unicode="&#xbd;" horiz-adv-x="1533" 
d="M102 1145l68 -144l106 76l15 -463l135 13q-8 295 -8 307l16 369l-119 18zM981 16q0 -44 14 -79l391 6l11 100l-271 -6q15 25 172 108q54 29 98 91t44 143q0 139 -62 193t-233 57l-146 4l-10 -264l162 -9q102 -6 102 -61q0 -45 -67 -86l-135 -84q-70 -45 -70 -113z
M1145 1274l-166 78l-623 -1307l131 -41zM141 897l-125 268l279 230l213 -31q-18 -416 -19 -430l9 -373l-275 -22l-4 428zM909 16q0 102 103 172l135 74q31 18 31 21q0 8 -29 8l-234 8l17 406l213 -5q211 -6 288 -74t76 -247q0 -84 -44 -154t-87 -98l-43 -27h138l-23 -229
l-502 -4q-39 86 -39 149zM944 1444l295 -137l-717 -1387l-264 80z" />
    <glyph glyph-name="threequarters" unicode="&#xbe;" horiz-adv-x="1456" 
d="M1163 213l-159 2l155 219zM242 586q260 0 260 129q0 92 -99 112q131 41 131 189t-68 198q-69 51 -220 56l-160 4l12 -264l162 -4q117 -2 117 -74q0 -39 -36 -61t-97 -21l-82 -2l-4 -72l110 -4q82 0 82 -45q0 -34 -49 -39q-18 -2 -55 -2l-135 10l-13 -102q57 -8 144 -8z
M852 264l47 -160l264 5l-6 -125l146 10l-7 112l68 -4l-6 107l-62 2l17 463l-166 16zM1182 1274l-166 78l-623 -1307l131 -41zM780 268l332 496l274 -27l-16 -458h55l13 -246l-68 2l6 -107l-289 -20v129q-80 -2 -239 -2zM258 915q47 -1 47 13t-47 14l-225 4l-21 397l234 -2
q188 -5 273 -73t85 -220t-65 -219q35 -47 34 -114q0 -201 -331 -201l-219 14l24 238q16 -2 39 -4l8 153h164zM981 1444l295 -137l-717 -1387l-264 80z" />
    <glyph glyph-name="questiondown" unicode="&#xbf;" horiz-adv-x="841" 
d="M674 1231q0 51 -35 77t-81 26t-80 -26t-34 -78t30 -81t83 -29t85 30t32 81zM737 1231q0 -80 -43 -130t-136 -50t-136 50t-43 130t49 124t130 44t130 -44t49 -124zM627 924l-189 12q-18 -112 -132 -196q-46 -34 -89 -72q-104 -93 -103 -258q2 -164 110 -241t362 -83
l139 -4l-8 360l-176 9q-104 6 -105 90q0 72 95 153q36 32 66 92t30 138zM506 541q0 -16 37 -19l243 -10l13 -500l-213 2q-293 8 -418 102t-125 298q0 151 67 234q36 46 58 68q23 22 68 58t64 54q19 20 44 68t35 114l317 -21q0 -104 -24 -182t-44 -108q-22 -31 -72 -81
t-50 -77z" />
    <glyph glyph-name="Agrave" unicode="&#xc0;" horiz-adv-x="1134" 
d="M807 1423l22 119l-423 141l-25 -188zM907 1591l-43 -248l-563 95l43 340zM449 657l-29 -178l53 4zM-8 55l323 1229l533 57q119 -633 135 -696l160 -575l-586 -95l-39 209l-158 4l-57 -215zM375 1217l-295 -1108l170 -48l51 199l279 -2l36 -201l435 70q-121 432 -140 500
l-120 630zM340 412l115 485l94 -473z" />
    <glyph glyph-name="Aacute" unicode="&#xc1;" horiz-adv-x="1134" 
d="M449 657l-29 -178l53 4zM340 412l115 485l94 -473zM365 1550l20 -118l442 73l-24 189zM330 1350l-45 247l577 191l45 -342zM375 1217l-295 -1108l170 -48l51 199l279 -2l36 -201l435 70q-121 432 -140 500l-120 630zM-8 55l323 1229l533 57q119 -633 135 -696l160 -575
l-586 -95l-39 209l-158 4l-57 -215z" />
    <glyph glyph-name="Acircumflex" unicode="&#xc2;" horiz-adv-x="1134" 
d="M338 1348l-57 264l315 200l317 -200l-57 -264l-260 131zM360 1577l29 -127l207 96l209 -96l29 127l-238 158zM449 657l-29 -178l53 4zM-8 55l323 1229l533 57q119 -633 135 -696l160 -575l-586 -95l-39 209l-158 4l-57 -215zM375 1217l-295 -1108l170 -48l51 199l279 -2
l36 -201l435 70q-121 432 -140 500l-120 630zM340 412l115 485l94 -473z" />
    <glyph glyph-name="Atilde" unicode="&#xc3;" horiz-adv-x="1134" 
d="M449 657l-29 -178l53 4zM340 412l115 485l94 -473zM434 1481q58 0 141 -34q84 -34 148 -34t117 25l16 6l12 180q-64 -33 -122 -33t-144 24q-143 40 -216 10t-87 -60l-4 -4l24 -121q57 41 115 41zM460 1710q50 0 138 -24t149 -25q61 0 156 35l35 10l-14 -303
q-110 -61 -186 -61t-161 34q-85 35 -138 35t-140 -51l-29 -17l-47 238q7 20 25 45q31 44 96 64q66 20 116 20zM375 1217l-295 -1108l170 -48l51 199l279 -2l36 -201l435 70q-121 432 -140 500l-120 630zM-8 55l323 1229l533 57q119 -633 135 -696l160 -575l-586 -95l-39 209
l-158 4l-57 -215z" />
    <glyph glyph-name="Adieresis" unicode="&#xc4;" horiz-adv-x="1134" 
d="M449 657l-29 -178l53 4zM621 1550q-1 -57 21 -79q22 -21 85 -21t85 24t22 83t-18 85t-87 25q-68 0 -88 -30t-20 -87zM330 1556q0 -58 20 -82t85 -24t87 20t21 81t-21 89t-87 27q-67 0 -86 -27t-19 -84zM340 412l115 485l94 -473zM258 1556q0 92 34 134t144 43
q110 0 148 -50q44 49 150 49t138 -40t33 -134q0 -94 -38 -134q-39 -40 -143 -40t-142 39q-38 -39 -144 -39t-143 40t-37 132zM375 1217l-295 -1108l170 -48l51 199l279 -2l36 -201l435 70q-121 432 -140 500l-120 630zM-8 55l323 1229l533 57q119 -633 135 -696l160 -575
l-586 -95l-39 209l-158 4l-57 -215z" />
    <glyph glyph-name="Aring" unicode="&#xc5;" horiz-adv-x="1073" 
d="M646 1370q-103 0 -173 60t-70 178q0 117 68 180q69 63 179 63t173 -61t63 -177q0 -115 -68 -179q-69 -64 -172 -64zM646 1442q73 0 122 44t49 126t-45 125t-124 43t-126 -44t-47 -127t49 -125t122 -42zM580 1591q0 27 19 47t48 20t48 -20t19 -47t-18 -47q-20 -20 -49 -20
t-48 20t-19 47zM508 657l-29 -178l53 4zM51 55l324 1229l532 57q119 -633 135 -696l160 -575l-586 -95l-38 209l-158 4l-58 -215zM434 1217l-295 -1108l170 -48l51 199l279 -2l37 -201l434 70q-121 432 -139 500l-121 630zM399 412l115 485l94 -473z" />
    <glyph glyph-name="AE" unicode="&#xc6;" horiz-adv-x="1386" 
d="M451 637l-29 -156l51 2zM340 412l115 485l94 -473zM1290 778l-14 486l-901 -47l-293 -1108l168 -48l51 199l281 -2l34 -199l641 7l23 174l-297 2l-55 202h188l19 115h-240q-8 31 -45 223zM1348 1339l16 -632l-432 4l18 -78h262l-30 -262l-158 2l14 -58q53 0 167 -2
t159 -2l-41 -319l-768 -4l-35 196q-98 4 -160 4l-57 -215l-311 82l325 1233z" />
    <glyph glyph-name="Ccedilla" unicode="&#xc7;" horiz-adv-x="956" 
d="M478 -197q-63 0 -89 19l-27 -80q36 -35 130 -35t137 36t43 95q0 98 -146 99l68 129h27l174 6l-11 172h-135q-270 0 -270 270q0 126 73 190t228 72l166 10l-35 480l-180 -11q-285 -14 -411 -146t-126 -426t108 -437t296 -172l-86 -191l65 -4q63 -2 64 -39q0 -37 -63 -37z
M741 -162q0 -90 -60 -142t-179 -52q-66 0 -120 19t-77 38l-22 20l112 297q-373 109 -372 674q0 322 142 472t462 165l252 10l45 -624l-234 -10q-238 -8 -237 -191q0 -197 196 -197h205l18 -315q-172 -8 -262 -10q131 -37 131 -154z" />
    <glyph glyph-name="Egrave" unicode="&#xc8;" horiz-adv-x="946" 
d="M672 1430l22 118l-424 142l-24 -189zM772 1597l-43 -247l-563 94l43 340zM905 1337l19 -653l-523 6l2 -82h361l-23 -250l-327 4v-71l508 -10l-43 -289l-805 8q4 498 4 522l-55 807zM848 758l-14 506l-734 -9q49 -711 50 -733l-5 -448l670 -8l23 155l-494 6l-6 197l336 -2
l12 123h-352l-6 219z" />
    <glyph glyph-name="Eacute" unicode="&#xc9;" horiz-adv-x="946" 
d="M307 1556l21 -118l442 73l-25 189zM272 1356l-45 248l578 190l45 -342zM848 758l-14 506l-734 -9q49 -711 50 -733l-5 -448l670 -8l23 155l-494 6l-6 197l336 -2l12 123h-352l-6 219zM905 1337l19 -653l-523 6l2 -82h361l-23 -250l-327 4v-71l508 -10l-43 -289l-805 8
q4 498 4 522l-55 807z" />
    <glyph glyph-name="Ecircumflex" unicode="&#xca;" horiz-adv-x="946" 
d="M240 1348l-58 264l316 200l317 -200l-57 -264l-260 131zM262 1577l29 -127l207 96l209 -96l28 127l-237 158zM905 1337l19 -653l-523 6l2 -82h361l-23 -250l-327 4v-71l508 -10l-43 -289l-805 8q4 498 4 522l-55 807zM848 758l-14 506l-734 -9q49 -711 50 -733l-5 -448
l670 -8l23 155l-494 6l-6 197l336 -2l12 123h-352l-6 219z" />
    <glyph glyph-name="Edieresis" unicode="&#xcb;" horiz-adv-x="946" 
d="M633 1667q-69 0 -89 -30t-20 -87t22 -79q22 -21 85 -21t85 24t22 83t-19 85q-18 26 -86 25zM233 1556q1 -58 21 -82t85 -24t87 20t20 81q0 61 -20 89t-87 27q-67 0 -87 -27t-19 -84zM162 1556q0 92 34 134t144 43q110 0 147 -50q43 49 150 49t139 -40t33 -134
q0 -94 -38 -134q-39 -40 -143 -40t-143 39q-37 -39 -143 -39t-143 40t-37 132zM848 758l-14 506l-734 -9q49 -711 50 -733l-5 -448l670 -8l23 155l-494 6l-6 197l336 -2l12 123h-352l-6 219zM905 1337l19 -653l-523 6l2 -82h361l-23 -250l-327 4v-71l508 -10l-43 -289
l-805 8q4 498 4 522l-55 807z" />
    <glyph glyph-name="Igrave" unicode="&#xcc;" horiz-adv-x="477" 
d="M385 1423l23 119l-424 141l-25 -188zM485 1591l-43 -248l-563 95l43 340zM406 1251l-306 6q18 -707 19 -745l26 -455l256 9q-31 426 -30 448zM25 1333l456 -10q-37 -784 -37 -809l37 -520l-405 -10q-29 492 -29 528z" />
    <glyph glyph-name="Iacute" unicode="&#xcd;" horiz-adv-x="473" 
d="M72 1550l20 -118l443 73l-25 189zM37 1350l-45 247l577 191l45 -342zM98 1257l19 -745q0 -37 26 -455l256 9l-30 448q0 25 34 737zM479 1323l-37 -809q0 -23 37 -520l-405 -10l-29 528q0 39 -22 821z" />
    <glyph glyph-name="Icircumflex" unicode="&#xce;" horiz-adv-x="473" 
d="M-23 1348l-57 264l316 200l317 -200l-57 -264l-260 131zM0 1577l29 -127l207 96l208 -96l29 127l-237 158zM94 1257l19 -745q0 -37 26 -455l256 9l-30 448q0 25 34 737zM475 1323l-37 -809q0 -23 37 -520l-405 -10l-29 528q0 39 -23 821z" />
    <glyph glyph-name="Idieresis" unicode="&#xcf;" horiz-adv-x="425" 
d="M371 1667q-69 0 -89 -30t-20 -87t22 -79q22 -21 85 -21t85 24t22 83t-19 85q-18 26 -86 25zM-29 1556q1 -58 21 -82t85 -24t87 20t20 81q0 61 -20 89t-87 27q-67 0 -87 -27t-19 -84zM-100 1556q0 92 33 135q34 42 143 42t149 -50q43 49 150 49t139 -40t33 -134
q0 -94 -38 -134q-39 -40 -143 -40t-143 39q-37 -39 -143 -39t-143 40t-37 132zM96 1257l19 -745q0 -37 26 -455l256 9l-30 448q0 25 34 737zM477 1323l-37 -809q0 -23 37 -520l-405 -10l-29 528q0 39 -23 821z" />
    <glyph glyph-name="Eth" unicode="&#xd0;" horiz-adv-x="1003" 
d="M598 518q0 114 -44 164q-44 49 -122 53l2 -92l84 -4l-29 -266h-61l2 -60h16q63 0 108 45q44 46 44 160zM358 809l70 -2q119 -1 180 -63t62 -236q0 -266 -224 -266l-92 4l6 192l78 -4l19 150l-95 -4zM973 659q0 155 -25 261q-55 230 -256 299q-108 36 -274 38l-271 7
l21 -689h-76l10 -133l64 -2l-16 -360l288 -6q303 -8 419 120t116 465zM92 641l-20 698l348 -8q344 -14 485 -175q141 -160 141 -518t-132 -502q-134 -144 -478 -136l-362 8l18 369h-55l-25 264h80z" />
    <glyph glyph-name="Ntilde" unicode="&#xd1;" horiz-adv-x="1069" 
d="M426 1481q56 0 143 -34q86 -34 152 -34t110 25l19 6l12 180q-62 -33 -120 -33t-146 24q-144 39 -205 14q-61 -26 -79 -43l-21 -21l-2 -4l24 -121q57 41 113 41zM454 1710q50 0 138 -24t149 -25q61 0 156 35l35 10l-14 -303q-110 -61 -186 -61t-162 34q-86 35 -138 35
q-53 0 -139 -51l-29 -17l-47 238q7 20 25 45q31 44 96 64q66 20 116 20zM973 86l-8 1171l-193 -2l16 -823l-274 821l-416 -28q20 -551 21 -582l-19 -569l199 -15l-4 762l287 -760zM1038 1331l9 -1315l-515 -30l-174 501l15 -503l-348 20q20 608 20 639l-22 649l542 37
l166 -538l-35 538z" />
    <glyph glyph-name="Ograve" unicode="&#xd2;" 
d="M711 1430l22 118l-424 142l-24 -189zM811 1597l-43 -247l-563 94l43 340zM545 737q-49 0 -67 -46t-19 -174t21 -172t65 -44q88 0 88 215q1 129 -19 175t-69 46zM496 -18q-126 0 -218 28q-192 59 -235 334q-20 138 -20 356q-1 218 21 336q43 239 236 289q93 25 250 25
q281 0 375 -130t94 -529t-53 -514q-23 -50 -55 -92q-54 -69 -203 -93q-66 -10 -192 -10zM926 715q0 333 -78 447t-318 114q-178 0 -268 -45t-129 -163t-39 -375t37 -394t127 -191t282 -53q192 0 275 71q84 71 103 313q8 101 8 276zM545 227q-78 -1 -119 59t-41 230t35 232
t125 61q90 0 126 -59t36 -234q0 -289 -162 -289z" />
    <glyph glyph-name="Oacute" unicode="&#xd3;" 
d="M545 737q-49 0 -67 -46t-19 -174t21 -172t65 -44q88 0 88 215q1 129 -19 175t-69 46zM326 1556l20 -118l442 73l-24 189zM545 227q-78 -1 -119 59t-41 230t35 232t125 61q90 0 126 -59t36 -234q0 -289 -162 -289zM291 1356l-45 248l577 190l45 -342zM926 715
q0 333 -78 447t-318 114q-178 0 -268 -45t-129 -163t-39 -375t37 -394t127 -191t282 -53q192 0 275 71q84 71 103 313q8 101 8 276zM496 -18q-126 0 -218 28q-192 59 -235 334q-20 138 -20 356q-1 218 21 336q43 239 236 289q93 25 250 25q281 0 375 -130t94 -529t-53 -514
q-23 -50 -55 -92q-54 -69 -203 -93q-66 -10 -192 -10z" />
    <glyph glyph-name="Ocircumflex" unicode="&#xd4;" 
d="M274 1354l-57 264l315 201l318 -201l-57 -264l-261 131zM297 1583l29 -127l206 96l209 -96l29 127l-238 158zM545 737q-49 0 -67 -46t-19 -174t21 -172t65 -44q88 0 88 215q1 129 -19 175t-69 46zM496 -18q-126 0 -218 28q-192 59 -235 334q-20 138 -20 356
q-1 218 21 336q43 239 236 289q93 25 250 25q281 0 375 -130t94 -529t-53 -514q-23 -50 -55 -92q-54 -69 -203 -93q-66 -10 -192 -10zM926 715q0 333 -78 447t-318 114q-178 0 -268 -45t-129 -163t-39 -375t37 -394t127 -191t282 -53q192 0 275 71q84 71 103 313
q8 101 8 276zM545 227q-78 -1 -119 59t-41 230t35 232t125 61q90 0 126 -59t36 -234q0 -289 -162 -289z" />
    <glyph glyph-name="Otilde" unicode="&#xd5;" 
d="M545 737q-49 0 -67 -46t-19 -174t21 -172t65 -44q88 0 88 215q1 129 -19 175t-69 46zM372 1497q58 0 142 -34q149 -60 264 -9l17 6l12 180q-63 -32 -121 -32t-145 24q-86 24 -136 23q-50 0 -93 -19t-54 -31q-10 -12 -14 -16t-6 -8l-5 -4l25 -121q56 41 114 41zM545 227
q-78 -1 -119 59t-41 230t35 232t125 61q90 0 126 -59t36 -234q0 -289 -162 -289zM398 1726q50 0 139 -24q88 -24 145 -25q57 0 160 35l35 10l-15 -303q-110 -61 -186 -61t-161 35t-139 34t-138 -51l-29 -16l-47 237q27 81 120 109q66 20 116 20zM926 715q0 333 -78 447
t-318 114q-178 0 -268 -45t-129 -163t-39 -375t37 -394t127 -191t282 -53q192 0 275 71q84 71 103 313q8 101 8 276zM496 -18q-126 0 -218 28q-192 59 -235 334q-20 138 -20 356q-1 218 21 336q43 239 236 289q93 25 250 25q281 0 375 -130t94 -529t-53 -514
q-23 -50 -55 -92q-54 -69 -203 -93q-66 -10 -192 -10z" />
    <glyph glyph-name="Odieresis" unicode="&#xd6;" 
d="M674 1667q-68 0 -88 -30t-21 -87q0 -57 22 -79q22 -21 85 -21t85 24q21 24 21 83t-18 85t-86 25zM274 1556q0 -58 20 -82t86 -24q64 0 86 20t22 81t-21 89q-20 28 -87 27q-66 0 -86 -27t-20 -84zM545 737q-49 0 -67 -46t-19 -174t21 -172t65 -44q88 0 88 215
q1 129 -19 175t-69 46zM545 227q-78 -1 -119 59t-41 230t35 232t125 61q90 0 126 -59t36 -234q0 -289 -162 -289zM203 1556q0 92 34 134q35 42 143 43q108 0 148 -50q43 49 150 49q108 0 140 -40t32 -134t-38 -134t-142 -40t-144 39q-37 -39 -143 -39t-143 40t-37 132z
M926 715q0 333 -78 447t-318 114q-178 0 -268 -45t-129 -163t-39 -375t37 -394t127 -191t282 -53q192 0 275 71q84 71 103 313q8 101 8 276zM496 -18q-126 0 -218 28q-192 59 -235 334q-20 138 -20 356q-1 218 21 336q43 239 236 289q93 25 250 25q281 0 375 -130t94 -529
t-53 -514q-23 -50 -55 -92q-54 -69 -203 -93q-66 -10 -192 -10z" />
    <glyph glyph-name="multiply" unicode="&#xd7;" horiz-adv-x="823" 
d="M141 739l201 -194l-188 -193l139 -127l170 195l178 -189l129 138l-178 168l186 200l-137 129l-174 -198l-201 204zM690 541l180 -168l-227 -244l-178 186l-168 -190l-246 223l191 197l-199 192l221 236l199 -203l176 199l238 -228z" />
    <glyph glyph-name="Oslash" unicode="&#xd8;" horiz-adv-x="980" 
d="M568 737q-52 0 -70 -45t-19 -176q1 -131 21 -173t73 -42t71 39t18 171t-20 179q-22 47 -74 47zM406 515q0 175 32 235q33 59 128 59t131 -61q36 -62 36 -238t-32 -229t-127 -53q-96 0 -132 56t-36 231zM559 55q223 0 302 114t79 437q0 207 -15 338t-30 158l-14 26l86 160
l-148 90l-71 -133q-52 25 -178 25t-198 -18t-125 -55q-89 -65 -112 -307q-10 -108 -10 -260t17 -249q17 -98 34 -131l19 -35l-97 -178l150 -92l80 147q70 -37 231 -37zM1014 600q0 -362 -94 -490t-361 -128q-83 0 -166 16l-28 6l-89 -162l-274 166l111 209q-61 143 -61 348
t6 311q15 228 85 331q70 104 229 124q77 10 191 10l148 -10l82 148l270 -166l-102 -191q53 -160 53 -522z" />
    <glyph glyph-name="Ugrave" unicode="&#xd9;" horiz-adv-x="1015" 
d="M762 1430l22 118l-424 142l-24 -189zM862 1597l-43 -247l-563 94l43 340zM530 -23q-264 1 -383 107t-118 348v395l-6 504l540 4l-8 -909q0 -109 55 -109q61 0 62 109l-6 903l323 -6l2 -815q2 -297 -97 -414q-100 -117 -364 -117zM745 376q0 -13 -7 -45q-19 -87 -114 -87
q-58 0 -86 16q-56 33 -57 166l11 836l-396 -5q8 -332 8 -430l-2 -395q-2 -203 100 -292t326 -89q224 1 309 101t83 356l-5 743l-176 4l6 -829v-50z" />
    <glyph glyph-name="Uacute" unicode="&#xda;" horiz-adv-x="1015" 
d="M393 1556l21 -118l442 73l-25 189zM358 1356l-45 248l578 190l45 -342zM745 376q0 -13 -7 -45q-19 -87 -114 -87q-58 0 -86 16q-56 33 -57 166l11 836l-396 -5q8 -332 8 -430l-2 -395q-2 -203 100 -292t326 -89q224 1 309 101t83 356l-5 743l-176 4l6 -829v-50zM530 -23
q-264 1 -383 107t-118 348v395l-6 504l540 4l-8 -909q0 -109 55 -109q61 0 62 109l-6 903l323 -6l2 -815q2 -297 -97 -414q-100 -117 -364 -117z" />
    <glyph glyph-name="Ucircumflex" unicode="&#xdb;" horiz-adv-x="1015" 
d="M340 1354l-57 264l315 201l317 -201l-57 -264l-260 131zM362 1583l29 -127l207 96l209 -96l29 127l-238 158zM530 -23q-264 1 -383 107t-118 348v395l-6 504l540 4l-8 -909q0 -109 55 -109q61 0 62 109l-6 903l323 -6l2 -815q2 -297 -97 -414q-100 -117 -364 -117z
M745 376q0 -13 -7 -45q-19 -87 -114 -87q-58 0 -86 16q-56 33 -57 166l11 836l-396 -5q8 -332 8 -430l-2 -395q-2 -203 100 -292t326 -89q224 1 309 101t83 356l-5 743l-176 4l6 -829v-50z" />
    <glyph glyph-name="Udieresis" unicode="&#xdc;" horiz-adv-x="1015" 
d="M756 1667q-68 0 -88 -30t-21 -87q0 -57 22 -79q22 -21 85 -21t85 24q21 24 21 83t-18 85t-86 25zM356 1556q0 -58 20 -82t86 -24q64 0 86 20t22 81t-21 89q-20 28 -87 27q-66 0 -86 -27t-20 -84zM285 1556q0 92 33 135q34 42 143 42t149 -50q43 49 150 49q108 0 140 -40
t32 -134t-38 -134t-142 -40t-144 39q-37 -39 -143 -39t-143 40t-37 132zM745 376q0 -13 -7 -45q-19 -87 -114 -87q-58 0 -86 16q-56 33 -57 166l11 836l-396 -5q8 -332 8 -430l-2 -395q-2 -203 100 -292t326 -89q224 1 309 101t83 356l-5 743l-176 4l6 -829v-50zM530 -23
q-264 1 -383 107t-118 348v395l-6 504l540 4l-8 -909q0 -109 55 -109q61 0 62 109l-6 903l323 -6l2 -815q2 -297 -97 -414q-100 -117 -364 -117z" />
    <glyph glyph-name="Yacute" unicode="&#xdd;" horiz-adv-x="1105" 
d="M545 1583l20 -119l443 74l-25 188zM510 1382l-45 248l577 191l45 -342zM676 655l-203 621l-375 -111l293 -733l-12 -375l440 17l-4 389l264 723l-188 86zM317 422l-315 790l518 154l158 -543l170 547l326 -145l-285 -776l2 -447l-586 -18z" />
    <glyph glyph-name="Thorn" unicode="&#xde;" horiz-adv-x="1005" 
d="M483 489q127 0 127 54q0 31 -20 45t-80 16l-133 2l-4 -117h110zM684 540q0 -70 -49 -97q-49 -28 -152 -27l-184 4l6 258l207 -2q100 -2 136 -34t36 -102zM436 238q400 0 479 192q39 92 39 258q0 238 -101 335t-347 101l-197 4l6 127l-213 2q25 -686 25 -710l-27 -467
l189 -14l8 172h139zM1028 688q0 -145 -24 -236t-88 -160q-66 -68 -182 -98t-298 -30h-67l-9 -174l-337 20q31 514 30 537l-28 784l362 -2l-2 -129q41 -2 121 -2q286 -6 404 -120t118 -390z" />
    <glyph glyph-name="germandbls" unicode="&#xdf;" horiz-adv-x="1896" 
d="M1024 862q0 -104 37 -185t91 -125q118 -96 241 -139t123 -102q0 -41 -38 -57t-157 -16l-207 8l12 -172q137 -10 211 -11q246 -1 331 57t85 191q0 74 -39 126t-94 81q-54 30 -110 52q-134 54 -134 124q0 49 37 75t127 30l240 8l-11 459l-284 -9q-253 -8 -357 -98
t-104 -297zM1450 696q0 -12 16 -21q39 -23 63 -33q134 -55 193 -104q60 -49 82 -103t23 -124q-1 -171 -101 -245t-389 -74l-280 12l-21 320q408 -28 408 -7q0 8 -44 22q-44 15 -80 32t-58 27t-72 37q-49 29 -75 51q-88 76 -111 131q-50 120 -52 245q0 248 121 356t410 113
l356 8l14 -596l-311 -10q-92 -2 -92 -37zM586 306q0 -36 -38 -52t-157 -16l-207 8l13 -172q137 -10 211 -11q246 -1 330 57t85 191q0 74 -39 126t-94 81q-55 30 -110 52q-134 55 -134 124q0 49 37 75t127 30l240 8l-10 459l-285 -9q-252 -8 -356 -98t-105 -297
q0 -104 37 -185t91 -125q118 -96 241 -139t123 -107zM520 696q0 -20 73 -51q144 -62 207 -113q97 -80 97 -236t-100 -230t-389 -74l-281 12l-21 320q408 -28 408 -7q0 8 -44 22q-44 15 -80 32t-58 27q-23 10 -72 37q-49 29 -75 51q-89 77 -111 131q-51 127 -51 245
q0 248 120 356q121 107 410 113l356 8l15 -596l-312 -10q-92 -2 -92 -37z" />
    <glyph glyph-name="agrave" unicode="&#xe0;" horiz-adv-x="1134" 
d="M449 657l-29 -178l53 4zM-8 55l323 1229l533 57q119 -633 135 -696l160 -575l-586 -95l-39 209l-158 4l-57 -215zM375 1217l-295 -1108l170 -48l51 199l279 -2l36 -201l435 70q-121 432 -140 500l-120 630zM340 412l115 485l94 -473zM807 1423l22 119l-423 141l-25 -188z
M907 1591l-43 -248l-563 95l43 340z" />
    <glyph glyph-name="aacute" unicode="&#xe1;" horiz-adv-x="1134" 
d="M449 657l-29 -178l53 4zM340 412l115 485l94 -473zM365 1550l20 -118l442 73l-24 189zM330 1350l-45 247l577 191l45 -342zM375 1217l-295 -1108l170 -48l51 199l279 -2l36 -201l435 70q-121 432 -140 500l-120 630zM-8 55l323 1229l533 57q119 -633 135 -696l160 -575
l-586 -95l-39 209l-158 4l-57 -215z" />
    <glyph glyph-name="acircumflex" unicode="&#xe2;" horiz-adv-x="1134" 
d="M338 1348l-57 264l315 200l317 -200l-57 -264l-260 131zM360 1577l29 -127l207 96l209 -96l29 127l-238 158zM449 657l-29 -178l53 4zM-8 55l323 1229l533 57q119 -633 135 -696l160 -575l-586 -95l-39 209l-158 4l-57 -215zM375 1217l-295 -1108l170 -48l51 199l279 -2
l36 -201l435 70q-121 432 -140 500l-120 630zM340 412l115 485l94 -473z" />
    <glyph glyph-name="atilde" unicode="&#xe3;" horiz-adv-x="1134" 
d="M449 657l-29 -178l53 4zM340 412l115 485l94 -473zM434 1481q58 0 141 -34q84 -34 148 -34t117 25l16 6l12 180q-64 -33 -122 -33t-144 24q-143 40 -216 10t-87 -60l-4 -4l24 -121q57 41 115 41zM460 1710q50 0 138 -24t149 -25q61 0 156 35l35 10l-14 -303
q-110 -61 -186 -61t-161 34q-85 35 -138 35t-140 -51l-29 -17l-47 238q7 20 25 45q31 44 96 64q66 20 116 20zM375 1217l-295 -1108l170 -48l51 199l279 -2l36 -201l435 70q-121 432 -140 500l-120 630zM-8 55l323 1229l533 57q119 -633 135 -696l160 -575l-586 -95l-39 209
l-158 4l-57 -215z" />
    <glyph glyph-name="adieresis" unicode="&#xe4;" horiz-adv-x="1134" 
d="M449 657l-29 -178l53 4zM621 1550q-1 -57 21 -79q22 -21 85 -21t85 24t22 83t-18 85t-87 25q-68 0 -88 -30t-20 -87zM330 1556q0 -58 20 -82t85 -24t87 20t21 81t-21 89t-87 27q-67 0 -86 -27t-19 -84zM340 412l115 485l94 -473zM258 1556q0 92 34 134t144 43
q110 0 148 -50q44 49 150 49t138 -40t33 -134q0 -94 -38 -134q-39 -40 -143 -40t-142 39q-38 -39 -144 -39t-143 40t-37 132zM375 1217l-295 -1108l170 -48l51 199l279 -2l36 -201l435 70q-121 432 -140 500l-120 630zM-8 55l323 1229l533 57q119 -633 135 -696l160 -575
l-586 -95l-39 209l-158 4l-57 -215z" />
    <glyph glyph-name="aring" unicode="&#xe5;" horiz-adv-x="1134" 
d="M827 1613q-1 -115 -69 -179t-171 -64t-173 60t-70 178q0 117 68 180t178 63t174 -61q63 -61 63 -177zM587 1442q73 0 122 44t49 126t-45 125t-124 43t-126 -44t-47 -127t49 -125t122 -42zM520 1591q0 27 20 47t48 20q27 0 47 -20t20 -47t-20 -47t-47 -20q-28 0 -48 20
t-20 47zM449 657l-29 -178l53 4zM-8 55l323 1229l533 57q119 -633 135 -696l160 -575l-586 -95l-39 209l-158 4l-57 -215zM375 1217l-295 -1108l170 -48l51 199l279 -2l36 -201l435 70q-121 432 -140 500l-120 630zM340 412l115 485l94 -473z" />
    <glyph glyph-name="ae" unicode="&#xe6;" horiz-adv-x="1386" 
d="M451 637l-29 -156l51 2zM340 412l115 485l94 -473zM1290 778l-14 486l-901 -47l-293 -1108l168 -48l51 199l281 -2l34 -199l641 7l23 174l-297 2l-55 202h188l19 115h-240q-8 31 -45 223zM1348 1339l16 -632l-432 4l18 -78h262l-30 -262l-158 2l14 -58q53 0 167 -2
t159 -2l-41 -319l-768 -4l-35 196q-98 4 -160 4l-57 -215l-311 82l325 1233z" />
    <glyph glyph-name="ccedilla" unicode="&#xe7;" horiz-adv-x="952" 
d="M478 -197q-63 0 -89 19l-27 -80q36 -35 130 -35t137 36t43 95q0 98 -146 99l68 129h27l174 6l-11 172h-135q-270 0 -270 270q0 126 73 190t228 72l166 10l-35 480l-180 -11q-285 -14 -411 -146t-126 -426t108 -437t296 -172l-86 -191l65 -4q63 -2 64 -39q0 -37 -63 -37z
M741 -162q0 -90 -60 -142t-179 -52q-66 0 -120 19t-77 38l-22 20l112 297q-373 109 -372 674q0 322 142 472t462 165l252 10l45 -624l-234 -10q-238 -8 -237 -191q0 -197 196 -197h205l18 -315q-172 -8 -262 -10q131 -37 131 -154z" />
    <glyph glyph-name="egrave" unicode="&#xe8;" horiz-adv-x="884" 
d="M672 1430l22 118l-424 142l-24 -189zM772 1597l-43 -247l-563 94l43 340zM905 1337l19 -653l-523 6l2 -82h361l-23 -250l-327 4v-71l508 -10l-43 -289l-805 8q4 498 4 522l-55 807zM848 758l-14 506l-734 -9q49 -711 50 -733l-5 -448l670 -8l23 155l-494 6l-6 197l336 -2
l12 123h-352l-6 219z" />
    <glyph glyph-name="eacute" unicode="&#xe9;" horiz-adv-x="884" 
d="M307 1556l21 -118l442 73l-25 189zM272 1356l-45 248l578 190l45 -342zM848 758l-14 506l-734 -9q49 -711 50 -733l-5 -448l670 -8l23 155l-494 6l-6 197l336 -2l12 123h-352l-6 219zM905 1337l19 -653l-523 6l2 -82h361l-23 -250l-327 4v-71l508 -10l-43 -289l-805 8
q4 498 4 522l-55 807z" />
    <glyph glyph-name="ecircumflex" unicode="&#xea;" horiz-adv-x="884" 
d="M240 1348l-58 264l316 200l317 -200l-57 -264l-260 131zM262 1577l29 -127l207 96l209 -96l28 127l-237 158zM905 1337l19 -653l-523 6l2 -82h361l-23 -250l-327 4v-71l508 -10l-43 -289l-805 8q4 498 4 522l-55 807zM848 758l-14 506l-734 -9q49 -711 50 -733l-5 -448
l670 -8l23 155l-494 6l-6 197l336 -2l12 123h-352l-6 219z" />
    <glyph glyph-name="edieresis" unicode="&#xeb;" horiz-adv-x="946" 
d="M633 1667q-69 0 -89 -30t-20 -87t22 -79q22 -21 85 -21t85 24t22 83t-19 85q-18 26 -86 25zM233 1556q1 -58 21 -82t85 -24t87 20t20 81q0 61 -20 89t-87 27q-67 0 -87 -27t-19 -84zM162 1556q0 92 34 134t144 43q110 0 147 -50q43 49 150 49t139 -40t33 -134
q0 -94 -38 -134q-39 -40 -143 -40t-143 39q-37 -39 -143 -39t-143 40t-37 132zM848 758l-14 506l-734 -9q49 -711 50 -733l-5 -448l670 -8l23 155l-494 6l-6 197l336 -2l12 123h-352l-6 219zM905 1337l19 -653l-523 6l2 -82h361l-23 -250l-327 4v-71l508 -10l-43 -289
l-805 8q4 498 4 522l-55 807z" />
    <glyph glyph-name="igrave" unicode="&#xec;" horiz-adv-x="477" 
d="M385 1423l23 119l-424 141l-25 -188zM485 1591l-43 -248l-563 95l43 340zM406 1251l-306 6q18 -707 19 -745l26 -455l256 9q-31 426 -30 448zM25 1333l456 -10q-37 -784 -37 -809l37 -520l-405 -10q-29 492 -29 528z" />
    <glyph glyph-name="iacute" unicode="&#xed;" horiz-adv-x="473" 
d="M72 1550l20 -118l443 73l-25 189zM37 1350l-45 247l577 191l45 -342zM98 1257l19 -745q0 -37 26 -455l256 9l-30 448q0 25 34 737zM479 1323l-37 -809q0 -23 37 -520l-405 -10l-29 528q0 39 -22 821z" />
    <glyph glyph-name="icircumflex" unicode="&#xee;" horiz-adv-x="473" 
d="M-23 1348l-57 264l316 200l317 -200l-57 -264l-260 131zM0 1577l29 -127l207 96l208 -96l29 127l-237 158zM94 1257l19 -745q0 -37 26 -455l256 9l-30 448q0 25 34 737zM475 1323l-37 -809q0 -23 37 -520l-405 -10l-29 528q0 39 -23 821z" />
    <glyph glyph-name="idieresis" unicode="&#xef;" horiz-adv-x="446" 
d="M371 1667q-69 0 -89 -30t-20 -87t22 -79q22 -21 85 -21t85 24t22 83t-19 85q-18 26 -86 25zM-29 1556q1 -58 21 -82t85 -24t87 20t20 81q0 61 -20 89t-87 27q-67 0 -87 -27t-19 -84zM-100 1556q0 92 33 135q34 42 143 42t149 -50q43 49 150 49t139 -40t33 -134
q0 -94 -38 -134q-39 -40 -143 -40t-143 39q-37 -39 -143 -39t-143 40t-37 132zM96 1257l19 -745q0 -37 26 -455l256 9l-30 448q0 25 34 737zM477 1323l-37 -809q0 -23 37 -520l-405 -10l-29 528q0 39 -23 821z" />
    <glyph glyph-name="eth" unicode="&#xf0;" horiz-adv-x="1003" 
d="M598 518q0 114 -44 164q-44 49 -122 53l2 -92l84 -4l-29 -266h-61l2 -60h16q63 0 108 45q44 46 44 160zM358 809l70 -2q119 -1 180 -63t62 -236q0 -266 -224 -266l-92 4l6 192l78 -4l19 150l-95 -4zM973 659q0 155 -25 261q-55 230 -256 299q-108 36 -274 38l-271 7
l21 -689h-76l10 -133l64 -2l-16 -360l288 -6q303 -8 419 120t116 465zM92 641l-20 698l348 -8q344 -14 485 -175q141 -160 141 -518t-132 -502q-134 -144 -478 -136l-362 8l18 369h-55l-25 264h80z" />
    <glyph glyph-name="ntilde" unicode="&#xf1;" horiz-adv-x="1069" 
d="M426 1481q56 0 143 -34q86 -34 152 -34t110 25l19 6l12 180q-62 -33 -120 -33t-146 24q-144 39 -205 14q-61 -26 -79 -43l-21 -21l-2 -4l24 -121q57 41 113 41zM454 1710q50 0 138 -24t149 -25q61 0 156 35l35 10l-14 -303q-110 -61 -186 -61t-162 34q-86 35 -138 35
q-53 0 -139 -51l-29 -17l-47 238q7 20 25 45q31 44 96 64q66 20 116 20zM973 86l-8 1171l-193 -2l16 -823l-274 821l-416 -28q20 -551 21 -582l-19 -569l199 -15l-4 762l287 -760zM1038 1331l9 -1315l-515 -30l-174 501l15 -503l-348 20q20 608 20 639l-22 649l542 37
l166 -538l-35 538z" />
    <glyph glyph-name="ograve" unicode="&#xf2;" 
d="M711 1430l22 118l-424 142l-24 -189zM811 1597l-43 -247l-563 94l43 340zM545 737q-49 0 -67 -46t-19 -174t21 -172t65 -44q88 0 88 215q1 129 -19 175t-69 46zM496 -18q-126 0 -218 28q-192 59 -235 334q-20 138 -20 356q-1 218 21 336q43 239 236 289q93 25 250 25
q281 0 375 -130t94 -529t-53 -514q-23 -50 -55 -92q-54 -69 -203 -93q-66 -10 -192 -10zM926 715q0 333 -78 447t-318 114q-178 0 -268 -45t-129 -163t-39 -375t37 -394t127 -191t282 -53q192 0 275 71q84 71 103 313q8 101 8 276zM545 227q-78 -1 -119 59t-41 230t35 232
t125 61q90 0 126 -59t36 -234q0 -289 -162 -289z" />
    <glyph glyph-name="oacute" unicode="&#xf3;" 
d="M545 737q-49 0 -67 -46t-19 -174t21 -172t65 -44q88 0 88 215q1 129 -19 175t-69 46zM326 1556l20 -118l442 73l-24 189zM545 227q-78 -1 -119 59t-41 230t35 232t125 61q90 0 126 -59t36 -234q0 -289 -162 -289zM291 1356l-45 248l577 190l45 -342zM926 715
q0 333 -78 447t-318 114q-178 0 -268 -45t-129 -163t-39 -375t37 -394t127 -191t282 -53q192 0 275 71q84 71 103 313q8 101 8 276zM496 -18q-126 0 -218 28q-192 59 -235 334q-20 138 -20 356q-1 218 21 336q43 239 236 289q93 25 250 25q281 0 375 -130t94 -529t-53 -514
q-23 -50 -55 -92q-54 -69 -203 -93q-66 -10 -192 -10z" />
    <glyph glyph-name="ocircumflex" unicode="&#xf4;" 
d="M274 1354l-57 264l315 201l318 -201l-57 -264l-261 131zM297 1583l29 -127l206 96l209 -96l29 127l-238 158zM545 737q-49 0 -67 -46t-19 -174t21 -172t65 -44q88 0 88 215q1 129 -19 175t-69 46zM496 -18q-126 0 -218 28q-192 59 -235 334q-20 138 -20 356
q-1 218 21 336q43 239 236 289q93 25 250 25q281 0 375 -130t94 -529t-53 -514q-23 -50 -55 -92q-54 -69 -203 -93q-66 -10 -192 -10zM926 715q0 333 -78 447t-318 114q-178 0 -268 -45t-129 -163t-39 -375t37 -394t127 -191t282 -53q192 0 275 71q84 71 103 313
q8 101 8 276zM545 227q-78 -1 -119 59t-41 230t35 232t125 61q90 0 126 -59t36 -234q0 -289 -162 -289z" />
    <glyph glyph-name="otilde" unicode="&#xf5;" 
d="M545 737q-49 0 -67 -46t-19 -174t21 -172t65 -44q88 0 88 215q1 129 -19 175t-69 46zM372 1497q58 0 142 -34q149 -60 264 -9l17 6l12 180q-63 -32 -121 -32t-145 24q-86 24 -136 23q-50 0 -93 -19t-54 -31q-10 -12 -14 -16t-6 -8l-5 -4l25 -121q56 41 114 41zM545 227
q-78 -1 -119 59t-41 230t35 232t125 61q90 0 126 -59t36 -234q0 -289 -162 -289zM398 1726q50 0 139 -24q88 -24 145 -25q57 0 160 35l35 10l-15 -303q-110 -61 -186 -61t-161 35t-139 34t-138 -51l-29 -16l-47 237q27 81 120 109q66 20 116 20zM926 715q0 333 -78 447
t-318 114q-178 0 -268 -45t-129 -163t-39 -375t37 -394t127 -191t282 -53q192 0 275 71q84 71 103 313q8 101 8 276zM496 -18q-126 0 -218 28q-192 59 -235 334q-20 138 -20 356q-1 218 21 336q43 239 236 289q93 25 250 25q281 0 375 -130t94 -529t-53 -514
q-23 -50 -55 -92q-54 -69 -203 -93q-66 -10 -192 -10z" />
    <glyph glyph-name="odieresis" unicode="&#xf6;" 
d="M674 1667q-68 0 -88 -30t-21 -87q0 -57 22 -79q22 -21 85 -21t85 24q21 24 21 83t-18 85t-86 25zM274 1556q0 -58 20 -82t86 -24q64 0 86 20t22 81t-21 89q-20 28 -87 27q-66 0 -86 -27t-20 -84zM545 737q-49 0 -67 -46t-19 -174t21 -172t65 -44q88 0 88 215
q1 129 -19 175t-69 46zM545 227q-78 -1 -119 59t-41 230t35 232t125 61q90 0 126 -59t36 -234q0 -289 -162 -289zM203 1556q0 92 34 134q35 42 143 43q108 0 148 -50q43 49 150 49q108 0 140 -40t32 -134t-38 -134t-142 -40t-144 39q-37 -39 -143 -39t-143 40t-37 132z
M926 715q0 333 -78 447t-318 114q-178 0 -268 -45t-129 -163t-39 -375t37 -394t127 -191t282 -53q192 0 275 71q84 71 103 313q8 101 8 276zM496 -18q-126 0 -218 28q-192 59 -235 334q-20 138 -20 356q-1 218 21 336q43 239 236 289q93 25 250 25q281 0 375 -130t94 -529
t-53 -514q-23 -50 -55 -92q-54 -69 -203 -93q-66 -10 -192 -10z" />
    <glyph glyph-name="divide" unicode="&#xf7;" horiz-adv-x="927" 
d="M264 976q0 103 41 151q41 49 159 49t158 -48t40 -150t-48 -146t-149 -44q-102 0 -152 42q-49 43 -49 146zM336 978q0 -66 31 -92t97 -26t98 27q30 27 30 93t-26 96t-102 30t-102 -30t-26 -98zM264 169q0 103 41 151t159 49q118 0 158 -47q40 -46 40 -150t-48 -147
t-149 -43q-102 0 -152 42q-49 42 -49 145zM336 171q0 -67 31 -93t97 -25q66 0 98 27q30 26 30 92t-26 96t-102 31q-76 -1 -102 -31t-26 -97zM807 494l6 184l-688 -16l-10 -162zM43 428l12 301l830 23l-8 -330z" />
    <glyph glyph-name="oslash" unicode="&#xf8;" horiz-adv-x="1064" 
d="M568 737q-52 0 -70 -45t-19 -176q1 -131 21 -173t73 -42t71 39t18 171t-20 179q-22 47 -74 47zM406 515q0 175 32 235q33 59 128 59t131 -61q36 -62 36 -238t-32 -229t-127 -53q-96 0 -132 56t-36 231zM559 55q223 0 302 114t79 437q0 207 -15 338t-30 158l-14 26l86 160
l-148 90l-71 -133q-52 25 -178 25t-198 -18t-125 -55q-89 -65 -112 -307q-10 -108 -10 -260t17 -249q17 -98 34 -131l19 -35l-97 -178l150 -92l80 147q70 -37 231 -37zM1014 600q0 -362 -94 -490t-361 -128q-83 0 -166 16l-28 6l-89 -162l-274 166l111 209q-61 143 -61 348
t6 311q15 228 85 331q70 104 229 124q77 10 191 10l148 -10l82 148l270 -166l-102 -191q53 -160 53 -522z" />
    <glyph glyph-name="ugrave" unicode="&#xf9;" 
d="M762 1430l22 118l-424 142l-24 -189zM862 1597l-43 -247l-563 94l43 340zM530 -23q-264 1 -383 107t-118 348v395l-6 504l540 4l-8 -909q0 -109 55 -109q61 0 62 109l-6 903l323 -6l2 -815q2 -297 -97 -414q-100 -117 -364 -117zM745 376q0 -13 -7 -45q-19 -87 -114 -87
q-58 0 -86 16q-56 33 -57 166l11 836l-396 -5q8 -332 8 -430l-2 -395q-2 -203 100 -292t326 -89q224 1 309 101t83 356l-5 743l-176 4l6 -829v-50z" />
    <glyph glyph-name="uacute" unicode="&#xfa;" 
d="M393 1556l21 -118l442 73l-25 189zM358 1356l-45 248l578 190l45 -342zM745 376q0 -13 -7 -45q-19 -87 -114 -87q-58 0 -86 16q-56 33 -57 166l11 836l-396 -5q8 -332 8 -430l-2 -395q-2 -203 100 -292t326 -89q224 1 309 101t83 356l-5 743l-176 4l6 -829v-50zM530 -23
q-264 1 -383 107t-118 348v395l-6 504l540 4l-8 -909q0 -109 55 -109q61 0 62 109l-6 903l323 -6l2 -815q2 -297 -97 -414q-100 -117 -364 -117z" />
    <glyph glyph-name="ucircumflex" unicode="&#xfb;" 
d="M381 1354l-57 264l315 201l317 -201l-57 -264l-260 131zM403 1583l29 -127l207 96l209 -96l29 127l-238 158zM530 -23q-264 1 -383 107t-118 348v395l-6 504l540 4l-8 -909q0 -109 55 -109q61 0 62 109l-6 903l323 -6l2 -815q2 -297 -97 -414q-100 -117 -364 -117z
M745 376q0 -13 -7 -45q-19 -87 -114 -87q-58 0 -86 16q-56 33 -57 166l11 836l-396 -5q8 -332 8 -430l-2 -395q-2 -203 100 -292t326 -89q224 1 309 101t83 356l-5 743l-176 4l6 -829v-50z" />
    <glyph glyph-name="udieresis" unicode="&#xfc;" 
d="M670 1550q0 -57 22 -79q22 -21 84 -21q63 0 85 24t22 83q-1 59 -19 85t-86 25q-68 0 -88 -30t-20 -87zM379 1556q0 -58 20 -82t85 -24q64 0 86 20t22 81t-20 89t-88 27q-67 0 -86 -27t-19 -84zM307 1556q0 92 34 134q33 42 143 43q110 0 149 -50q43 49 149 49t140 -40
q32 -40 32 -134t-38 -134t-142 -40t-143 39q-37 -39 -143 -39t-144 40q-37 40 -37 132zM745 376q0 -13 -7 -45q-19 -87 -114 -87q-58 0 -86 16q-56 33 -57 166l11 836l-396 -5q8 -332 8 -430l-2 -395q-2 -203 100 -292t326 -89q224 1 309 101t83 356l-5 743l-176 4l6 -829
v-50zM530 -23q-264 1 -383 107t-118 348v395l-6 504l540 4l-8 -909q0 -109 55 -109q61 0 62 109l-6 903l323 -6l2 -815q2 -297 -97 -414q-100 -117 -364 -117z" />
    <glyph glyph-name="yacute" unicode="&#xfd;" horiz-adv-x="1105" 
d="M483 1556l21 -118l442 73l-24 189zM449 1356l-46 248l578 190l45 -342zM676 655l-203 621l-375 -111l293 -733l-12 -375l440 17l-4 389l264 723l-188 86zM317 422l-315 790l518 154l158 -543l170 547l326 -145l-285 -776l2 -447l-586 -18z" />
    <glyph glyph-name="thorn" unicode="&#xfe;" horiz-adv-x="1028" 
d="M483 489q127 0 127 54q0 31 -20 45t-80 16l-133 2l-4 -117h110zM684 540q0 -70 -49 -97q-49 -28 -152 -27l-184 4l6 258l207 -2q100 -2 136 -34t36 -102zM436 238q400 0 479 192q39 92 39 258q0 238 -101 335t-347 101l-197 4l6 127l-213 2q25 -686 25 -710l-27 -467
l189 -14l8 172h139zM1028 688q0 -145 -24 -236t-88 -160q-66 -68 -182 -98t-298 -30h-67l-9 -174l-337 20q31 514 30 537l-28 784l362 -2l-2 -129q41 -2 121 -2q286 -6 404 -120t118 -390z" />
    <glyph glyph-name="ydieresis" unicode="&#xff;" horiz-adv-x="1175" 
d="M848 1667q-68 0 -88 -30t-21 -87q0 -57 22 -79q22 -21 85 -21t85 24q21 24 21 83t-18 85t-86 25zM449 1556q0 -58 20 -82t85 -24q64 0 86 20t22 81t-20 89t-88 27q-67 0 -86 -27t-19 -84zM377 1556q0 92 34 134q33 42 143 43q110 0 148 -50q43 49 150 49q108 0 140 -40
t32 -134t-38 -134t-142 -40t-144 39q-37 -39 -143 -39t-143 40t-37 132zM676 655l-203 621l-375 -111l293 -733l-12 -375l440 17l-4 389l264 723l-188 86zM317 422l-315 790l518 154l158 -543l170 547l326 -145l-285 -776l2 -447l-586 -18z" />
    <glyph glyph-name="dotlessi" unicode="&#x131;" horiz-adv-x="616" 
d="M453 1212l-297 7q20 -686 20 -723l31 -439l248 6q-39 412 -39 435zM84 1290l442 -10q-39 -760 -39 -782l45 -504l-391 -10q-37 475 -37 512z" />
    <glyph glyph-name="Lslash" unicode="&#x141;" horiz-adv-x="942" 
d="M104 1329l488 8l4 -508l199 39l43 -313l-244 -41l-19 -199l375 4l-39 -327l-784 18l18 459l-102 -23l-35 295l137 23zM518 1268l-336 -11l41 -552l-135 -25l18 -148l119 25l-28 -483l647 -8l24 180l-372 -4l28 333l232 39l-23 168l-209 -41z" />
    <glyph glyph-name="lslash" unicode="&#x142;" horiz-adv-x="942" 
d="M104 1329l488 8l4 -508l199 39l43 -313l-244 -41l-19 -199l375 4l-39 -327l-784 18l18 459l-102 -23l-35 295l137 23zM518 1268l-336 -11l41 -552l-135 -25l18 -148l119 25l-28 -483l647 -8l24 180l-372 -4l28 333l232 39l-23 168l-209 -41z" />
    <glyph glyph-name="OE" unicode="&#x152;" horiz-adv-x="1492" 
d="M550 737q-52 0 -70 -45t-19 -176q0 -131 20 -173q19 -42 73 -42t72 39q17 39 17 171t-20 179q-21 47 -73 47zM993 643h307l-22 -274l-293 4l-8 -54l481 -10l-43 -317l-874 -10q-270 -4 -389 128t-119 473t29 459q29 117 61 165q71 103 230 124q77 10 192 10l897 -4
l18 -651l-467 8v-51zM541 55l811 11l22 174l-491 6q29 72 35 196l292 -2l13 140h-301l-4 182l466 -4l-14 506l-825 6q-217 0 -311 -69t-117 -311q-10 -108 -11 -284q0 -324 102 -440t333 -111zM387 515q0 175 33 235t128 59q95 0 131 -61q36 -62 36 -238t-32 -229t-127 -53
t-132 56t-37 231z" />
    <glyph glyph-name="oe" unicode="&#x153;" horiz-adv-x="1492" 
d="M550 737q-52 0 -70 -45t-19 -176q0 -131 20 -173q19 -42 73 -42t72 39q17 39 17 171t-20 179q-21 47 -73 47zM993 643h307l-22 -274l-293 4l-8 -54l481 -10l-43 -317l-874 -10q-270 -4 -389 128t-119 473t29 459q29 117 61 165q71 103 230 124q77 10 192 10l897 -4
l18 -651l-467 8v-51zM541 55l811 11l22 174l-491 6q29 72 35 196l292 -2l13 140h-301l-4 182l466 -4l-14 506l-825 6q-217 0 -311 -69t-117 -311q-10 -108 -11 -284q0 -324 102 -440t333 -111zM387 515q0 175 33 235t128 59q95 0 131 -61q36 -62 36 -238t-32 -229t-127 -53
t-132 56t-37 231z" />
    <glyph glyph-name="Scaron" unicode="&#x160;" horiz-adv-x="956" 
d="M307 1677l146 -221l221 4l153 217l-159 52l-97 -162l-102 164zM416 1386l-217 330l293 101l75 -148l72 148l303 -103l-229 -325zM586 306q0 -36 -38 -52t-157 -16l-207 8l13 -172q137 -10 211 -11q246 -1 330 57t85 191q0 74 -39 126t-94 81q-55 30 -110 52
q-134 55 -134 124q0 49 37 75t127 30l240 8l-10 459l-285 -9q-252 -8 -356 -98t-105 -297q0 -104 37 -185t91 -125q118 -96 241 -139t123 -107zM520 696q0 -20 73 -51q144 -62 207 -113q97 -80 97 -236t-100 -230t-389 -74l-281 12l-21 320q408 -28 408 -7q0 8 -44 22
q-44 15 -80 32t-58 27q-23 10 -72 37q-49 29 -75 51q-89 77 -111 131q-51 127 -51 245q0 248 120 356q121 107 410 113l356 8l15 -596l-312 -10q-92 -2 -92 -37z" />
    <glyph glyph-name="scaron" unicode="&#x161;" horiz-adv-x="956" 
d="M307 1683l146 -221l221 4l153 217l-159 52l-97 -162l-102 164zM416 1393l-217 329l293 101l75 -148l72 148l303 -103l-229 -325zM586 306q0 -36 -38 -52t-157 -16l-207 8l13 -172q137 -10 211 -11q246 -1 330 57t85 191q0 74 -39 126t-94 81q-55 30 -110 52
q-134 55 -134 124q0 49 37 75t127 30l240 8l-10 459l-285 -9q-252 -8 -356 -98t-105 -297q0 -104 37 -185t91 -125q118 -96 241 -139t123 -107zM520 696q0 -20 73 -51q144 -62 207 -113q97 -80 97 -236t-100 -230t-389 -74l-281 12l-21 320q408 -28 408 -7q0 8 -44 22
q-44 15 -80 32t-58 27q-23 10 -72 37q-49 29 -75 51q-89 77 -111 131q-51 127 -51 245q0 248 120 356q121 107 410 113l356 8l15 -596l-312 -10q-92 -2 -92 -37z" />
    <glyph glyph-name="Ydieresis" unicode="&#x178;" horiz-adv-x="1175" 
d="M848 1667q-68 0 -88 -30t-21 -87q0 -57 22 -79q22 -21 85 -21t85 24q21 24 21 83t-18 85t-86 25zM449 1556q0 -58 20 -82t85 -24q64 0 86 20t22 81t-20 89t-88 27q-67 0 -86 -27t-19 -84zM377 1556q0 92 34 134q33 42 143 43q110 0 148 -50q43 49 150 49q108 0 140 -40
t32 -134t-38 -134t-142 -40t-144 39q-37 -39 -143 -39t-143 40t-37 132zM676 655l-203 621l-375 -111l293 -733l-12 -375l440 17l-4 389l264 723l-188 86zM317 422l-315 790l518 154l158 -543l170 547l326 -145l-285 -776l2 -447l-586 -18z" />
    <glyph glyph-name="Zcaron" unicode="&#x17d;" horiz-adv-x="1040" 
d="M315 1681l146 -221l221 4l154 217l-160 52l-96 -162l-103 164zM424 1391l-217 329l293 101l75 -148l72 148l303 -103l-229 -325zM23 1339l995 -18l-27 -530l-405 -461l336 12l10 -336l-836 -10l-8 280l393 465l-436 -18zM942 1249l-844 15l19 -467l501 10l-456 -555
l4 -182l690 8l-6 190l-406 -6l476 555z" />
    <glyph glyph-name="zcaron" unicode="&#x17e;" horiz-adv-x="1040" 
d="M315 1683l146 -221l221 4l154 217l-160 52l-96 -162l-103 164zM424 1393l-217 329l293 101l75 -148l72 148l303 -103l-229 -325zM23 1339l995 -18l-27 -530l-405 -461l336 12l10 -336l-836 -10l-8 280l393 465l-436 -18zM942 1249l-844 15l19 -467l501 10l-456 -555
l4 -182l690 8l-6 190l-406 -6l476 555z" />
    <glyph glyph-name="florin" unicode="&#x192;" horiz-adv-x="1040" 
d="M346 244q0 -68 -57 -109t-156 -43l29 -127q192 0 308 79t116 206q0 77 -21 147l-6 31l244 -6l16 149l-289 -8q-8 27 -8 51q0 76 60 120t147 48l199 9l-10 438l-207 -6q-264 -11 -386 -99t-122 -278q0 -57 15 -129t32 -115l14 -43l-131 -4l-12 -115l190 -6
q35 -122 35 -190zM133 846q0 228 138 332t440 114l276 11l10 -580l-266 -10q-59 -1 -93 -19t-38 -39l-4 -18l303 6l-33 -295l-221 8q12 -94 12 -106q-1 -160 -151 -258t-400 -98l-59 266q227 4 227 94l-20 113l-211 4l25 256h96q-31 92 -31 219z" />
    <glyph glyph-name="circumflex" unicode="&#x2c6;" horiz-adv-x="862" 
d="M172 1343l-57 265l315 200l318 -200l-58 -265l-260 132zM195 1573l28 -127l207 96l209 -96l29 127l-238 158z" />
    <glyph glyph-name="caron" unicode="&#x2c7;" horiz-adv-x="952" 
d="M213 1683l145 -221l222 4l153 217l-160 52l-96 -162l-102 164zM322 1393l-218 329l293 101l76 -148l72 148l303 -103l-230 -325z" />
    <glyph glyph-name="breve" unicode="&#x2d8;" horiz-adv-x="1183" 
d="M338 1483q0 -97 63 -159t169 -62t171 61q63 61 64 160v22l-96 27q-2 -47 -40 -92q-37 -45 -97 -45t-97 45t-41 92l-96 -27v-22zM571 1466q29 0 49 52t23 104l231 -63v-76q0 -129 -82 -211t-222 -82q-138 0 -220 82t-82 211v76l228 63q14 -156 75 -156z" />
    <glyph glyph-name="dotaccent" unicode="&#x2d9;" horiz-adv-x="1015" 
d="M309 1407q0 105 41 153t159 48t158 -48t40 -152q1 -104 -47 -145q-48 -42 -150 -42t-152 41q-49 41 -49 145zM381 1408q0 -66 31 -92q32 -26 98 -26t96 27t31 93q0 66 -27 96q-26 30 -102 30t-102 -30t-25 -98z" />
    <glyph glyph-name="ring" unicode="&#x2da;" horiz-adv-x="630" 
d="M320 1845q110 0 174 -61t63 -177q0 -115 -69 -179t-172 -64t-173 60q-69 60 -69 178t67 180q69 63 179 63zM318 1774q-80 0 -126 -44t-46 -127t48 -125q49 -42 122 -42t122 44t49 126t-45 125t-124 43zM250 1585q0 29 20 48t47 19t47 -18q20 -20 21 -49q0 -29 -20 -48
q-19 -19 -47 -19t-48 19t-20 48z" />
    <glyph glyph-name="ogonek" unicode="&#x2db;" horiz-adv-x="571" 
d="M295 -53q0 -23 16 -23q23 0 53 16t48 35l18 17l139 -123q-64 -128 -190 -182q-51 -23 -105 -23q-120 0 -186 65t-65 189q0 74 46 131q45 57 111 84q139 57 242 64l45 4v-201q-172 -18 -172 -53zM330 -147q-108 0 -107 96q0 41 44 71t87 37l43 6v64q-36 0 -96 -15
q-61 -14 -101 -34t-73 -62t-33 -98q0 -182 180 -182q66 0 117 28t72 60l18 29l-49 41q-42 -41 -102 -41z" />
    <glyph glyph-name="tilde" unicode="&#x2dc;" horiz-adv-x="923" 
d="M316 1483q58 0 141 -34q84 -34 151 -34t129 31l13 180q-63 -33 -122 -33t-145 24q-85 23 -117 23t-60 -3t-58 -18q-29 -15 -37 -21t-14 -13q-7 -6 -11 -10t-6 -8l-4 -4l25 -121q57 41 115 41zM341 1712q50 0 138 -24t144 -25q56 0 161 33l35 12l-14 -303
q-109 -61 -185 -61t-162 34q-85 35 -140 35t-138 -49l-28 -18l-48 237q18 53 54 77q37 24 85 38t98 14z" />
    <glyph glyph-name="hungarumlaut" unicode="&#x2dd;" horiz-adv-x="927" 
d="M219 1534l53 -80l314 193l-84 127zM555 1522l53 -80l316 192l-86 127zM248 1356l-123 190l391 332l125 -192l211 180l170 -256l-436 -267l-105 160z" />
    <glyph glyph-name="endash" unicode="&#x2013;" horiz-adv-x="1069" 
d="M113 469l843 -6v184l-843 -16v-162zM1026 391l-983 6v301l983 23v-330z" />
    <glyph glyph-name="emdash" unicode="&#x2014;" horiz-adv-x="1384" 
d="M113 469l1157 -4v184l-1157 -16v-164zM1341 393l-1298 6v301l1298 23v-330z" />
    <glyph glyph-name="quoteleft" unicode="&#x2018;" horiz-adv-x="489" 
d="M246 971q-102 0 -152 51q-51 51 -51 174q0 153 134 259q30 24 52 34l21 10l139 -135q-35 -16 -57 -35q13 0 36 -14q22 -15 38 -31q40 -42 40 -127q0 -86 -49 -136t-151 -50zM113 1178q0 -138 141 -138q59 0 91 32t32 85q0 123 -101 123l-55 -10q1 24 17 48t32 34l17 12
l-54 53q-120 -60 -120 -239z" />
    <glyph glyph-name="quoteright" unicode="&#x2019;" horiz-adv-x="489" 
d="M243 1380q103 0 153 -51t50 -174q0 -160 -133 -259q-31 -24 -51 -34l-22 -10l-140 135q35 16 58 35q-33 0 -61 30q-54 57 -54 143q0 85 49 135t151 50zM256 934q121 60 121 238q0 138 -141 139q-60 0 -92 -32t-31 -85q0 -123 100 -123l55 10q0 -45 -65 -94z" />
    <glyph glyph-name="quotesinglbase" unicode="&#x201a;" horiz-adv-x="489" 
d="M446 143q0 -156 -133 -259q-31 -24 -51 -34l-22 -10l-140 135q35 16 58 35q-30 0 -72 44t-43 129q0 85 49 135t151 50q103 0 153 -50q50 -52 50 -175zM256 -78q121 60 121 238q0 138 -141 139q-60 0 -92 -32t-31 -85q0 -123 100 -123l55 11q0 -24 -16 -48t-33 -34
l-16 -13z" />
    <glyph glyph-name="quotedblleft" unicode="&#x201c;" horiz-adv-x="833" 
d="M113 1178q0 -138 141 -138q59 0 91 32t32 85q0 123 -101 123l-55 -10q1 24 17 48t32 34l17 12l-54 53q-120 -60 -120 -239zM578 1417q-121 -61 -121 -239q0 -138 141 -138q59 0 91 32t32 85q0 123 -100 123l-56 -10q1 24 17 48t32 34l17 12zM598 971q-135 0 -180 76
q-47 -76 -160 -76t-164 51t-51 174q0 153 134 259q30 24 52 34l21 10l139 -135q-35 -16 -57 -35q37 -8 67 -39q19 66 69 118t89 71l37 20l139 -135q-35 -16 -57 -35q13 0 36 -14q22 -15 38 -31q38 -41 40 -127t-48 -136t-144 -50z" />
    <glyph glyph-name="quotedblright" unicode="&#x201d;" horiz-adv-x="833" 
d="M600 950q121 60 121 238q0 138 -141 139q-60 0 -92 -32t-31 -85q0 -123 100 -123l55 11q0 -45 -65 -94zM256 950q121 60 121 238q0 138 -141 139q-60 0 -92 -32t-31 -85q0 -123 100 -123l55 11q0 -45 -65 -94zM236 1397q131 0 178 -78q49 78 162 78q114 0 164 -51
t51 -175q0 -155 -134 -259q-31 -24 -51 -33l-22 -11l-140 136q35 16 58 34q-37 8 -70 39q-20 -66 -68 -118t-85 -70l-39 -21l-140 136q35 16 58 34q-30 0 -72 44t-43 129q0 85 49 135t144 51z" />
    <glyph glyph-name="quotedblbase" unicode="&#x201e;" horiz-adv-x="854" 
d="M268 12q0 -45 -65 -94l53 -53q121 61 121 239q0 138 -141 138q-60 0 -92 -32t-31 -85q0 -123 100 -123zM741 100q0 138 -141 138q-59 0 -91 -32t-32 -85q0 -123 101 -123l55 10q-1 -24 -17 -48t-32 -34l-17 -12l54 -53q120 61 120 239zM236 311q147 0 190 -98
q43 94 163 94t171 -51t51 -174q0 -157 -133 -259q-31 -24 -51 -34l-23 -10l-139 135q35 16 57 35q-51 12 -86 59q-32 -143 -196 -225l-140 135q35 16 58 35q-33 1 -61 31q-54 57 -54 142t49 135t144 50z" />
    <glyph glyph-name="dagger" unicode="&#x2020;" horiz-adv-x="778" 
d="M553 1212l-268 7q31 -162 49 -265l-213 23l-4 -203l207 19l-23 -86l33 -469l164 12l28 455l-18 86l199 -19l6 195l-209 -15zM201 1290l426 4q-18 -164 -37 -266l194 12l-10 -346l-178 19v-6l-31 -523l-297 -22l-37 551l-188 -15l10 357l195 -23z" />
    <glyph glyph-name="daggerdbl" unicode="&#x2021;" horiz-adv-x="827" 
d="M549 1212l-268 7q31 -162 49 -265l-213 23l-4 -203l204 19l-24 -78l24 -86l-147 18l-6 -203l166 21l-31 -356l221 12l-28 342l157 -21l6 195l-147 -12l22 80l-22 86l194 -19l7 195l-209 -15zM197 1290l444 4q-37 -164 -55 -266l194 12l-10 -342l-41 2l-12 -333l-148 14
l27 -326l-375 -20l33 350l-162 -18l8 335l-61 -4l10 357l195 -23z" />
    <glyph glyph-name="bullet" unicode="&#x2022;" horiz-adv-x="620" 
d="M63 548q1 124 53 186t193 62t195 -60q54 -62 53 -186q0 -124 -61 -177q-62 -53 -186 -53t-186 52t-61 176zM133 549q0 -86 44 -122t133 -36t133 36t44 123t-38 131q-39 44 -139 44t-139 -45q-38 -45 -38 -131z" />
    <glyph glyph-name="ellipsis" unicode="&#x2026;" horiz-adv-x="1241" 
d="M1000 244q-76 0 -102 -30t-26 -98q0 -66 31 -92t97 -26t98 27q30 27 30 93t-26 96t-102 30zM494 116q0 -66 30 -92t98 -26t98 27t30 93t-26 96t-102 30t-102 -30t-26 -98zM115 116q1 -66 31 -92t97 -26t97 27t31 93q0 66 -26 96q-27 30 -103 30t-102 -30t-25 -98zM43 114
q0 103 41 151q42 48 144 48q102 -1 145 -27t57 -81q29 109 193 108q86 -1 129 -27t57 -81q29 109 192 108q117 0 157 -47t40 -150q0 -102 -47 -146t-150 -44q-160 0 -192 107q-31 -107 -189 -107t-190 107q-31 -106 -186 -107q-102 0 -152 42q-49 43 -49 146z" />
    <glyph glyph-name="perthousand" unicode="&#x2030;" horiz-adv-x="1884" 
d="M1546 186q0 -92 22 -92t21 92q0 92 -20 93q-23 -1 -23 -93zM1567 -96q-131 0 -203 70t-72 245q0 174 74 245t209 71t201 -74t65 -244q0 -313 -274 -313zM1567 -33q211 0 211 250q0 135 -52 193t-154 59q-104 0 -160 -55q-56 -54 -56 -194t56 -196t155 -57zM1569 47
q-45 0 -68 29q-23 30 -23 106t19 111q18 35 72 35q90 0 86 -156q0 -125 -86 -125zM318 987q22 0 22 92t-22 92t-22 -92t22 -92zM317 797q-131 1 -203 71t-71 244q0 174 74 245q75 71 209 71t200 -74t66 -244q-1 -313 -275 -313zM317 860q211 0 211 250q0 136 -51 194
t-155 58t-159 -55q-57 -55 -57 -195t56 -196t155 -56zM319 940q-45 0 -67 29t-23 105q1 76 19 112q18 35 71 35q90 0 87 -156q-1 -125 -87 -125zM962 186q0 -92 22 -92t22 92t-21 93q-23 -1 -23 -93zM983 -96q-131 0 -203 70t-72 245q0 174 74 245t209 71t201 -74t65 -244
q0 -313 -274 -313zM983 -33q211 0 211 250q0 135 -51 193t-155 59q-104 0 -160 -55q-56 -54 -56 -194t56 -196t155 -57zM985 47q-45 0 -67 29q-22 30 -23 106q0 76 18 111t72 35q90 0 86 -156q0 -125 -86 -125zM950 1237l-760 -1112l123 -78l799 1088zM1214 1153l-880 -1198
l-244 149l840 1231z" />
    <glyph glyph-name="guilsinglleft" unicode="&#x2039;" horiz-adv-x="577" 
d="M61 518l258 -358l152 102l-195 256l195 256l-152 103zM299 61l-317 457l317 455l272 -185l-213 -270l213 -272z" />
    <glyph glyph-name="guilsinglright" unicode="&#x203a;" horiz-adv-x="616" 
d="M264 160l258 358l-258 359l-151 -103l194 -256l-194 -256zM602 518l-317 -457l-273 185l213 272l-213 270l273 185z" />
    <glyph glyph-name="fraction" unicode="&#x2044;" horiz-adv-x="663" 
d="M-18 -174l333 1745l330 -55l-334 -1743zM373 1491l-307 -1608l190 -30l307 1605z" />
    <glyph glyph-name="foursuperior" unicode="&#x2074;" horiz-adv-x="825" 
d="M307 766l156 219l4 -221zM156 815l47 -160l264 4l-6 -124l145 10l-6 112l68 -4l-6 107l-62 2l16 463l-165 16zM84 819l332 496l274 -27l-16 -459h55l12 -245l-67 2l6 -107l-289 -20v129q-80 -2 -239 -2z" />
    <glyph glyph-name="Euro" unicode="&#x20ac;" horiz-adv-x="1060" 
d="M643 -6q-203 0 -317 68t-160 208l-139 2l20 428h86q13 304 149 442t443 148l248 8l45 -606l-115 -4l-14 -379h43l18 -303q-180 -12 -307 -12zM688 238q-166 0 -209 100l340 -6l8 123l-364 -9v84l360 -6l6 123l-346 -8q55 111 269 117l190 6l-35 463l-180 -4
q-291 -9 -409 -143t-117 -445l-88 -2l-7 -96l95 -3q0 -63 4 -92l-96 -2l-9 -96l121 -2q33 -141 132 -209t290 -68l231 7l-10 168h-176z" />
    <glyph glyph-name="trademark" unicode="&#x2122;" horiz-adv-x="1058" 
d="M350 926q0 6 4 96l92 -2l-6 -268l97 -2l12 286l67 -209h95l73 203l-8 -289l154 9l12 462l-164 11l-94 -267l-76 269l-485 -11l-8 -188l118 -2q-2 -45 -2 -94l13 -180l114 4q-8 166 -8 172zM162 954l-119 2l10 328l613 10l32 -157l31 159l287 -18l-17 -596l-294 -12l2 88
h-99l-2 -80l-430 -4z" />
    <glyph glyph-name="minus" unicode="&#x2212;" horiz-adv-x="763" 
d="M115 469l528 -6l6 184l-524 -16zM713 391l-670 6l12 301l666 23z" />
    <glyph glyph-name="fi" unicode="&#xfb01;" horiz-adv-x="1445" 
d="M1042 1257l19 -745q0 -37 26 -455l256 9l-30 448q0 25 35 737zM1423 1323l-37 -809q0 -23 37 -520l-405 -10l-29 528q0 39 -22 821zM406 629h331l-24 -273l-305 2l12 -374l-348 10q4 508 4 530l-53 807l874 8l8 -641l-499 7v-76zM834 768l-9 498l-725 -9q49 -709 50 -733
l-5 -458l199 -9l-8 367l309 -4l12 145h-325l-4 209z" />
    <glyph glyph-name="fl" unicode="&#xfb02;" horiz-adv-x="1763" 
d="M926 1329l487 12q6 -692 6 -716l-20 -310l373 4l-39 -327l-791 8q33 612 33 637zM1339 1268l-335 -11q45 -598 45 -620l-31 -563l647 -8l25 180l-373 -4q31 362 31 383zM406 629h331l-24 -273l-305 2l12 -374l-348 10q4 508 4 530l-53 807l874 8l8 -641l-499 7v-76z
M834 768l-9 498l-725 -9q49 -709 50 -733l-5 -458l199 -9l-8 367l309 -4l12 145h-325l-4 209z" />
    <glyph glyph-name="pictograma1" horiz-adv-x="1167" 
d="M817 338l-76 280l201 181l-254 -23l-108 252l-82 -256l-269 -33l222 -121l-91 -280l230 182zM821 596l94 -395l-325 231l-340 -242l117 394l-283 188l360 66l125 395l166 -381l348 14z" />
    <glyph glyph-name="pictograma2" horiz-adv-x="1208" 
d="M758 573l219 50l-223 73l104 201l-205 -113l-53 236l-94 -236l-207 113l137 -205l-225 -59l229 -55l-139 -205l203 102l61 -225l86 227l183 -137zM1124 616l-276 -96l80 -323l-246 168l-129 -259l-94 267l-262 -103l125 262l-238 84l238 121l-113 250l260 -104l149 379
l82 -371l271 117l-117 -271z" />
    <glyph glyph-name="pictograma3" horiz-adv-x="1216" 
d="M690 512l244 -94l-168 155l246 68l-264 33l190 194l-227 -80l26 213l-141 -217l-166 207l49 -203l-276 64l227 -186l-233 -62l264 -39l-111 -223l219 170l70 -201zM1034 340l-295 78l-88 -277l-116 254l-269 -159l88 272l-270 86l195 104l-183 222l297 -52l-24 244
l225 -209l223 326l-24 -338l249 57l-145 -223l236 -74l-226 -112z" />
    </font>
</defs>
</svg>
