<?xml version="1.0" standalone="no"?>
<!DOCTYPE svg PUBLIC "-//W3C//DTD SVG 1.1//EN" "http://www.w3.org/Graphics/SVG/1.1/DTD/svg11.dtd" >
<svg xmlns="http://www.w3.org/2000/svg">
<metadata>
Created by FontPrep 20130207 at Thu Jun 19 23:03:37 2014
 By Diego Escares
La tipografa "Hospital" es una tipografa diseada a partir del estudio de sealtica, orientado a los hospitales. Es de uso libre y puede modificarse.
</metadata>
<defs>
<font id="4b77489924061d0efd051561ae6f3bc7" horiz-adv-x='1024' >
  <font-face 
    font-family="Hospital-Bold"
    font-weight="700"
    font-stretch="normal"
    units-per-em="2048"
    panose-1="0 0 0 0 0 0 0 0 0 0"
    ascent="1530"
    descent="-518"
    x-height="834"
    cap-height="1190"
    bbox="-113 -430 1661 1638"
    underline-thickness="0"
    underline-position="-204"
    unicode-range="U+0020-2044"
  />
<missing-glyph horiz-adv-x="368" 
 />
    <glyph glyph-name=".notdef" horiz-adv-x="368" 
 />
    <glyph glyph-name=".null" horiz-adv-x="0" 
 />
    <glyph glyph-name="nonmarkingreturn" horiz-adv-x="681" 
 />
    <glyph glyph-name="space" unicode=" " horiz-adv-x="368" 
 />
    <glyph glyph-name="exclam" unicode="!" horiz-adv-x="499" 
d="M135 -43v211h203v-211h-203zM133 1190h209v-367q0 -158 -31 -557h-149q-29 373 -29 557v367z" />
    <glyph glyph-name="quotedbl" unicode="&#x22;" horiz-adv-x="784" 
d="M696 1124q0 -221 -186 -309l-90 88q45 53 61 98q41 116 -18 254h215q18 -66 18 -131zM180 1110q0 64 -35 145h215q20 -72 21 -131q0 -219 -188 -309l-91 88q45 53 62 98q16 45 16 109z" />
    <glyph glyph-name="numbersign" unicode="#" horiz-adv-x="1310" 
d="M756 487l41 172h-234l-41 -172h234zM1159 659h-158l-40 -172h118v-178h-161l-84 -352h-205l86 352h-236l-84 -352h-198l84 352h-129v178h170l40 172h-129v175h173l83 358h201l-86 -358h236l86 358h200l-84 -358h117v-175z" />
    <glyph glyph-name="dollar" unicode="$" horiz-adv-x="1146" 
d="M680 133q150 20 150 153q0 70 -40 106q-38 36 -110 59v-318zM362 840q0 -98 115 -140v308q-115 -35 -115 -168zM1034 289q0 -158 -97 -244t-257 -102v-183h-203v187q-229 39 -364 215l141 119q100 -104 223 -140v361q-153 38 -237 114t-84 222t86 242q86 95 235 120v156
h203v-156q211 -29 317 -160l-125 -131q-100 80 -192 101v-363q172 -43 263 -121t91 -237z" />
    <glyph glyph-name="percent" unicode="%" horiz-adv-x="1277" 
d="M948 352q-68 0 -72 -96q0 -23 -2 -37t-1 -37t1 -30q0 -135 76 -136q76 0 76 138q0 6 1 30t0 37q-1 14 -2 42t-14 52q-21 37 -63 37zM711 182q0 330 233 330q150 0 203 -103q43 -87 43 -235t-50 -232t-193 -83q-143 0 -193 99q-43 83 -43 224zM252 899q0 -135 76 -135
t75 135q0 6 1 30t0 38t-2 41t-18 59q-17 33 -56 33t-52 -22q-22 -40 -23 -69q-1 -28 -2 -42t0 -38t1 -30zM1051 1356l-625 -1596h-199l625 1596h199zM88 928q0 150 50 240q50 89 188 89t190 -87q51 -88 51 -240t-48 -239t-189 -87t-192 87q-50 87 -50 237z" />
    <glyph glyph-name="ampersand" unicode="&#x26;" horiz-adv-x="1216" 
d="M475 127q119 0 219 80l-254 297q-154 -104 -153 -213q0 -70 55 -117t133 -47zM623 920q0 46 -33 72t-90 26q-125 0 -125 -98q0 -30 36 -88t70 -87q142 85 142 175zM88 291q0 205 229 358q-6 4 -18 17q-111 115 -119 229l-2 27q-10 130 89 208t233 78t228 -80
q93 -80 93 -210q0 -182 -207 -316l217 -254q66 88 101 225l192 -47q-57 -206 -168 -331l203 -240h-258l-82 104q-154 -121 -328 -121q-175 0 -289 102q-114 101 -114 251z" />
    <glyph glyph-name="quotesingle" unicode="'" horiz-adv-x="466" 
d="M180 1111q0 62 -35 144h215q20 -72 21 -131q0 -219 -188 -309l-91 90q46 53 62 99t16 107z" />
    <glyph glyph-name="parenleft" unicode="(" horiz-adv-x="768" 
d="M164 555q0 78 5 154t18 175t43 182t72 156q42 72 111 112t154 38l37 -2v-143q-63 -7 -111 -65q-124 -152 -131 -607q0 -627 242 -670v-143l-35 -2q-85 -2 -155 38t-112 112t-72 155q-30 82 -43 181t-18 175t-5 154z" />
    <glyph glyph-name="parenright" unicode=")" horiz-adv-x="768" 
d="M408 555q0 178 -36 385q-22 121 -75 199t-133 88v143l39 2q173 4 264 -153t114 -333q23 -177 23 -293t-5 -192t-18 -175t-43 -181t-72 -155q-42 -72 -112 -112t-155 -38l-35 2v143q244 43 244 670z" />
    <glyph glyph-name="asterisk" unicode="*" horiz-adv-x="874" 
d="M346 1268h176v-230q12 6 219 86l72 -147q-41 -16 -120 -49t-118 -49q35 -39 95 -115t73 -92l-139 -99q-18 25 -79 97q-60 72 -91 112q-53 -80 -168 -207l-139 97q114 147 170 209q-12 4 -236 98l72 145q201 -80 213 -86v230z" />
    <glyph glyph-name="plus" unicode="+" horiz-adv-x="1028" 
d="M915 561v-176h-313v-313h-176v313h-313v176h313v313h176v-313h313z" />
    <glyph glyph-name="comma" unicode="," horiz-adv-x="458" 
d="M190 -334h-149q37 270 111 494h215q-62 -234 -177 -494z" />
    <glyph glyph-name="hyphen" unicode="-" horiz-adv-x="1212" 
d="M205 541h803v-176h-803v176z" />
    <glyph glyph-name="period" unicode="." horiz-adv-x="387" 
d="M295 -43h-203v211h203v-211z" />
    <glyph glyph-name="slash" unicode="/" horiz-adv-x="1069" 
d="M967 1356l-625 -1596h-199l625 1596h199z" />
    <glyph glyph-name="zero" unicode="0" horiz-adv-x="1034" 
d="M709 399v291q0 179 -25 236q-39 96 -169 96t-169 -94q-24 -58 -24 -230v-278q0 -186 45 -239q45 -54 149 -54q103 0 148 56q45 55 45 216zM123 510v211q0 202 67 331q81 156 324 156q303 0 373 -276q25 -100 24 -240v-229q0 -302 -96 -412q-41 -47 -118 -80t-183 -32
q-363 0 -385 374q-6 63 -6 197z" />
    <glyph glyph-name="one" unicode="1" horiz-adv-x="733" 
d="M600 -43h-199v909l-153 -200l-146 100l306 424h192v-1233z" />
    <glyph glyph-name="two" unicode="2" horiz-adv-x="1036" 
d="M913 -43h-784v184l315 342q110 111 150 161q109 136 108 206q0 172 -225 172q-109 0 -211 -92l-143 108q143 170 341 170t317 -89q118 -89 118 -273q0 -70 -36 -146q-37 -76 -73 -120t-100 -115l-291 -315h514v-193z" />
    <glyph glyph-name="three" unicode="3" horiz-adv-x="1062" 
d="M739 311q0 57 -20 97t-46 60q-57 42 -198 42h-69v186l92 -2q104 0 162 32t59 130q0 162 -195 162q-137 0 -237 -88l-144 108q143 170 381 170q166 0 281 -93t115 -253t-99 -256q119 -104 119 -292t-117 -281q-117 -94 -307 -94q-243 0 -393 186l143 111
q111 -106 248 -107q225 0 225 182z" />
    <glyph glyph-name="four" unicode="4" horiz-adv-x="1034" 
d="M618 479v369l-262 -369h262zM932 291h-115v-334h-199v334h-516v170l519 729h196v-711h115v-188z" />
    <glyph glyph-name="five" unicode="5" horiz-adv-x="1058" 
d="M737 344q0 115 -45 166t-169 51t-218 -88l-137 86v631h700v-191h-501v-276q74 25 172 25q197 0 297 -106t100 -298t-104 -298t-293 -107q-137 0 -233 39t-183 137l135 112q80 -59 134 -81t153 -22t145 53q46 52 47 167z" />
    <glyph glyph-name="six" unicode="6" horiz-adv-x="1034" 
d="M322 340q0 -110 44 -162t150 -51q106 0 152 49q45 49 45 166t-41 168q-40 51 -152 51t-155 -55q-43 -56 -43 -166zM123 283v559q0 176 122 271t301 95t335 -114l-111 -140q-119 68 -215 68q-233 0 -233 -186v-125q88 37 192 37q397 0 397 -414q0 -395 -409 -395
q-164 0 -272 94q-107 94 -107 250z" />
    <glyph glyph-name="seven" unicode="7" horiz-adv-x="1024" 
d="M135 999v191h787v-172l-592 -1061h-228l584 1042h-551z" />
    <glyph glyph-name="eight" unicode="8" horiz-adv-x="1038" 
d="M696 854q0 166 -178 166t-178 -163t178 -163t178 160zM319 313q0 -186 189 -186q209 0 209 182q0 205 -199 205t-199 -201zM121 319q0 178 117 287q-98 96 -98 253t102 253t274 96t276 -94t105 -254q0 -160 -98 -256q117 -109 117 -286t-112 -278q-110 -101 -289 -101
t-287 101q-107 101 -107 279z" />
    <glyph glyph-name="nine" unicode="9" horiz-adv-x="1034" 
d="M713 806q0 112 -44 164t-151 52q-108 0 -152 -50t-44 -166t40 -167t154 -51q113 0 155 53t42 165zM518 399q-395 0 -395 414q0 395 407 395q166 0 274 -93t107 -249v-561q0 -178 -123 -272q-124 -95 -300 -95t-334 113l110 139q123 -66 215 -65q233 0 234 186v125
q-86 -37 -195 -37z" />
    <glyph glyph-name="colon" unicode=":" horiz-adv-x="387" 
d="M92 -43v211h203v-211h-203zM92 729h203v-211h-203v211z" />
    <glyph glyph-name="semicolon" unicode=";" horiz-adv-x="458" 
d="M164 729h203v-211h-203v211zM41 -334q35 266 109 494h217q-61 -233 -177 -494h-149z" />
    <glyph glyph-name="less" unicode="&#x3c;" horiz-adv-x="960" 
d="M838 633l-447 -182l447 -181v-215l-705 295v203l705 295v-215z" />
    <glyph glyph-name="equal" unicode="=" horiz-adv-x="1181" 
d="M184 610h803v-178h-803v178zM184 174v176h803v-176h-803z" />
    <glyph glyph-name="greater" unicode="&#x3e;" horiz-adv-x="960" 
d="M569 451l-446 182v215l704 -295v-203l-704 -295v215z" />
    <glyph glyph-name="question" unicode="?" horiz-adv-x="833" 
d="M317 -43v211h205v-211h-205zM408 1190q170 0 267 -86t97 -256q0 -80 -35 -149t-79 -109q-121 -109 -134 -168q-8 -35 -8 -82l2 -70h-196v125q0 118 89 212q38 40 74 79q90 95 88 168q0 147 -174 147q-71 -1 -117 -29t-98 -91l-123 106q39 91 141 147t206 56z" />
    <glyph glyph-name="at" unicode="@" horiz-adv-x="1701" 
d="M828 725q-100 0 -138 -62q-38 -61 -37 -189q0 -128 37 -190t138 -62t169 81v340q-69 82 -169 82zM997 872h187q0 -59 2 -518q0 -106 88 -106q68 0 94 76q16 51 16 172q0 246 -137 389t-381 143t-396 -157q-153 -157 -153 -397q1 -240 139 -387q138 -148 400 -148
q113 0 234 49l63 -127q-156 -78 -326 -78q-344 -1 -519 195t-175 504t206 514q205 208 529 208t512 -196t189 -519q0 -156 -49 -273q-61 -144 -254 -144q-152 0 -211 78q-43 -43 -114 -69t-126 -26q-190 0 -269 119t-79 299t79 299t269 119q104 0 182 -51v32z" />
    <glyph glyph-name="A" unicode="A" horiz-adv-x="1202" 
d="M739 510l-137 442l-139 -442h276zM1130 -43h-219l-118 383h-381l-121 -383h-219l399 1235h260z" />
    <glyph glyph-name="B" unicode="B" horiz-adv-x="1181" 
d="M655 502h-295v-357h289q123 0 178 42t56 145q-1 170 -228 170zM612 1001h-252v-319h250q221 0 221 164q0 78 -60 117q-61 38 -159 38zM653 -43h-495v1233h426q192 0 318 -84t126 -253t-110 -245q78 -45 120 -125t41 -166q-1 -182 -115 -271t-311 -89z" />
    <glyph glyph-name="C" unicode="C" horiz-adv-x="1159" 
d="M123 586q0 258 95 423q54 95 164 147t269 52q258 0 406 -166l-127 -124q-84 61 -139 81q-55 21 -139 21q-159 1 -231 -77q-72 -77 -87 -226q-6 -59 -6 -155t10 -167q26 -182 141 -237q68 -33 162 -33q95 0 149 19t140 83l127 -125q-147 -166 -403 -166t-383 130
q-56 57 -91 143t-46 171q-11 86 -11 206z" />
    <glyph glyph-name="D" unicode="D" horiz-adv-x="1234" 
d="M909 502v106q0 174 -41 274q-50 121 -217 119h-291v-856h291q156 -1 207 91t51 266zM651 -43h-493v1233h493q125 0 215 -39t136 -94t73 -145t32 -162q5 -70 5 -175q4 -272 -57 -403q-105 -215 -404 -215z" />
    <glyph glyph-name="E" unicode="E" horiz-adv-x="1191" 
d="M1034 997h-674v-307h613v-192h-613v-348h674v-193h-876v1233h876v-193z" />
    <glyph glyph-name="F" unicode="F" horiz-adv-x="1167" 
d="M1034 997h-674v-299h531v-192h-531v-551h-202v1235h876v-193z" />
    <glyph glyph-name="G" unicode="G" horiz-adv-x="1189" 
d="M652 1020q-240 0 -296 -191q-28 -98 -28 -231t10 -203q26 -182 141 -237q67 -33 181 -33t182 45v270h-260v178h462v-520q-112 -162 -398 -162t-404 164t-119 462q0 298 104 462q118 186 418 186q265 0 412 -168l-127 -124q-76 58 -133 80t-145 22z" />
    <glyph glyph-name="H" unicode="H" horiz-adv-x="1236" 
d="M1079 -43h-202v541h-517v-541h-202v1233h202v-508h517v508h202v-1233z" />
    <glyph glyph-name="I" unicode="I" horiz-adv-x="518" 
d="M158 -43v1233h202v-1233h-202z" />
    <glyph glyph-name="J" unicode="J" horiz-adv-x="960" 
d="M596 412v778h207v-852q0 -215 -85 -307t-300 -92q-100 -1 -172 29t-148 100l119 127q92 -61 193 -61t148 54q38 45 38 224z" />
    <glyph glyph-name="K" unicode="K" horiz-adv-x="1169" 
d="M360 -43h-202v1233h202v-545l459 545h264l-479 -565l488 -668h-261l-364 508l-107 -123v-385z" />
    <glyph glyph-name="L" unicode="L" horiz-adv-x="931" 
d="M840 -43h-682v1233h202v-1040h480v-193z" />
    <glyph glyph-name="M" unicode="M" horiz-adv-x="1560" 
d="M1403 -43h-203v868l-315 -831h-207l-318 831v-868h-202v1233h280l342 -905l344 905h279v-1233z" />
    <glyph glyph-name="N" unicode="N" horiz-adv-x="1236" 
d="M158 1190h282l437 -868v868h202v-1233h-278l-441 866v-866h-202v1233z" />
    <glyph glyph-name="O" unicode="O" horiz-adv-x="1280" 
d="M400 929q-32 -36 -49 -104q-17 -69 -20 -121t-3 -138q0 -275 77 -357t234 -82t238 83q60 66 71 215q4 54 4 140t-3 138t-20 120t-49 105q-78 90 -237 90t-243 -89zM640 -63q-267 0 -407 172q-49 63 -75 153q-27 90 -31 157t-4 173q0 616 517 616t517 -616q0 -106 -4 -173
t-31 -157t-75 -153q-140 -172 -407 -172z" />
    <glyph glyph-name="P" unicode="P" horiz-adv-x="1146" 
d="M596 1001h-236v-374h242q98 0 162 42q63 42 63 136q0 196 -231 196zM360 438v-481h-202v1233h442q188 0 306 -93t118 -279t-94 -271t-250 -100t-230 -12t-90 3z" />
    <glyph glyph-name="Q" unicode="Q" horiz-adv-x="1273" 
d="M952 563q0 88 -3 140t-20 120t-49 105q-78 90 -238 90t-241 -89q-57 -66 -69 -223q-4 -54 -4 -140q0 -275 77 -357t236 -82q9 0 25 1t26 1l-117 186h238l64 -102q37 43 54 113t19 110t2 127zM1157 592q0 -125 -7 -205t-49 -180t-120 -164l137 -223h-235l-84 137
q-74 -20 -158 -20q-268 0 -408 172q-49 63 -75 153q-27 90 -31 157t-4 173q0 616 517 616t517 -616z" />
    <glyph glyph-name="R" unicode="R" horiz-adv-x="1187" 
d="M596 1001h-236v-374h242q225 0 225 182q0 192 -231 192zM360 440v-485h-202v1235h442q184 0 304 -91t120 -270q0 -264 -193 -346l269 -528h-221l-250 485h-269z" />
    <glyph glyph-name="S" unicode="S" horiz-adv-x="1146" 
d="M586 129q185 0 224 72q19 35 19 97t-50 102q-50 42 -125 58q-188 41 -323 94q-75 30 -125 102t-50 184q0 180 119 275q120 95 307 95q120 0 234 -42t181 -126l-125 -131q-135 111 -290 111q-219 0 -220 -180q0 -64 50 -104t125 -55q182 -37 323 -96q74 -32 124 -108
t50 -190q0 -183 -126 -267t-292 -84q-333 1 -503 226l141 119q147 -152 332 -152z" />
    <glyph glyph-name="T" unicode="T" horiz-adv-x="1191" 
d="M1110 997h-412v-1040h-204v1040h-412v193h1028v-193z" />
    <glyph glyph-name="U" unicode="U" horiz-adv-x="1343" 
d="M158 487v703h202v-655q0 -185 55 -288q64 -120 259 -120t257 120q54 101 54 288v655h201v-703q0 -254 -130 -402t-383 -148t-384 147t-131 403z" />
    <glyph glyph-name="V" unicode="V" horiz-adv-x="1202" 
d="M1130 1190l-389 -1233h-280l-389 1233h219l311 -946l309 946h219z" />
    <glyph glyph-name="W" unicode="W" horiz-adv-x="1732" 
d="M1661 1190l-309 -1233h-281l-203 831l-204 -831h-283l-309 1233h209l241 -940l240 936h211l239 -936l242 940h207z" />
    <glyph glyph-name="X" unicode="X" horiz-adv-x="1259" 
d="M1157 -43h-233l-293 457l-295 -457h-234l408 639l-379 594h238l262 -410l258 410h239l-380 -594z" />
    <glyph glyph-name="Y" unicode="Y" horiz-adv-x="1136" 
d="M668 -43h-203v596l-393 637h235l260 -432l262 432h236l-397 -637v-596z" />
    <glyph glyph-name="Z" unicode="Z" horiz-adv-x="1196" 
d="M1059 1190v-182l-660 -869h660v-182h-922v182l662 869h-635v182h895z" />
    <glyph glyph-name="bracketleft" unicode="[" horiz-adv-x="831" 
d="M586 -258h-422v1628h422v-176h-224v-1274h224v-178z" />
    <glyph glyph-name="backslash" unicode="\" horiz-adv-x="1069" 
d="M727 -240l-625 1596h199l625 -1596h-199z" />
    <glyph glyph-name="bracketright" unicode="]" horiz-adv-x="831" 
d="M668 -258h-422v178h225v1274h-225v176h422v-1628z" />
    <glyph glyph-name="asciicircum" unicode="^" horiz-adv-x="948" 
d="M846 711h-215l-156 299l-158 -299h-215l273 506h200z" />
    <glyph glyph-name="underscore" unicode="_" horiz-adv-x="1374" 
d="M184 133h1006v-176h-1006v176z" />
    <glyph glyph-name="grave" unicode="`" horiz-adv-x="909" 
d="M582 999h-183q-100 109 -252 306h252q97 -128 183 -306z" />
    <glyph glyph-name="a" unicode="a" 
d="M694 326h-200q-123 0 -160 -22t-37 -72t34 -76q35 -26 71 -32q36 -5 103 -5q67 -1 118 33t71 77v97zM899 -43h-205v90q-96 -109 -254 -108q-346 0 -346 288q0 151 102 215t259 64h237q0 96 -57 135t-184 39t-207 -64l-113 105q145 135 356 135t311 -88t101 -291v-520z
" />
    <glyph glyph-name="b" unicode="b" horiz-adv-x="1034" 
d="M729 398q0 282 -207 282q-135 0 -196 -117v-334q66 -115 200 -114q203 1 203 283zM326 -43h-203v1233h203v-451q86 117 229 117q377 0 377 -459t-377 -458q-66 1 -129 31t-100 83v-96z" />
    <glyph glyph-name="c" unicode="c" horiz-adv-x="915" 
d="M102 396q0 212 94 335t305 123q210 0 312 -137l-102 -109q-80 70 -200 70t-162 -70t-42 -213t43 -213q44 -70 160 -70t201 74l102 -108q-47 -70 -135 -105t-182 -34q-206 1 -300 123t-94 334z" />
    <glyph glyph-name="d" unicode="d" horiz-adv-x="1034" 
d="M512 680q-207 0 -207 -283t203 -282q137 0 199 114v334q-62 117 -195 117zM479 -61q-377 1 -377 459t377 458q143 0 228 -117v451h204v-1233h-204v96q-37 -53 -99 -83t-129 -31z" />
    <glyph glyph-name="e" unicode="e" 
d="M506 680q-168 0 -199 -193h398q-15 93 -61 143t-138 50zM909 383v-59h-606q0 -102 59 -162t162 -60q147 0 238 82l100 -110q-100 -140 -330 -140t-329 115q-100 115 -101 344q0 459 404 459t403 -469z" />
    <glyph glyph-name="f" unicode="f" horiz-adv-x="806" 
d="M428 918v-89h266v-165h-266v-707h-203v707h-143v165h143q-4 205 56 283q78 96 211 96q76 0 150 -34t124 -105l-96 -104q-72 65 -126 65t-85 -29t-31 -83z" />
    <glyph glyph-name="g" unicode="g" horiz-adv-x="1034" 
d="M508 115q133 0 197 112v340q-61 113 -183 113t-170 -73q-47 -73 -47 -210q0 -282 203 -282zM707 838h204v-777q0 -225 -99 -348q-100 -123 -334 -123t-331 142l101 108q90 -80 216 -80q237 0 243 228v65q-33 -51 -98 -83t-130 -31q-377 1 -377 459t377 458q57 0 121 -29
t107 -86v97z" />
    <glyph glyph-name="h" unicode="h" horiz-adv-x="1052" 
d="M537 856q388 0 393 -469v-430h-205v430q0 143 -42 216q-41 73 -155 73t-202 -94v-625h-203v1235h203v-397q94 61 211 61z" />
    <glyph glyph-name="i" unicode="i" horiz-adv-x="448" 
d="M326 -43h-203v881h203v-881zM326 979h-203v211h203v-211z" />
    <glyph glyph-name="j" unicode="j" horiz-adv-x="491" 
d="M369 838v-838q0 -193 -27 -260q-57 -150 -246 -150q-127 0 -209 86l86 119q55 -29 105 -29t68 38q19 38 20 102v932h203zM166 1188h203v-211h-203v211z" />
    <glyph glyph-name="k" unicode="k" horiz-adv-x="964" 
d="M319 -43h-202v1233h202v-658l299 306h263l-332 -340l354 -541h-229l-266 399l-89 -90v-309z" />
    <glyph glyph-name="l" unicode="l" horiz-adv-x="448" 
d="M326 -43h-203v1233h203v-1233z" />
    <glyph glyph-name="m" unicode="m" horiz-adv-x="1654" 
d="M1532 459v-502h-203v432q0 207 -44 243q-54 42 -135 42t-137 -26t-83 -64v-627h-205v502q0 121 -38 168t-165 47q-57 0 -112 -26t-84 -64v-627h-203v881h203v-99q86 117 256 117q211 0 292 -137q57 73 126 105t184 32q192 0 270 -97t78 -300z" />
    <glyph glyph-name="n" unicode="n" horiz-adv-x="1052" 
d="M930 -43h-205v438q0 164 -25 209q-37 70 -178 70q-57 0 -112 -26t-84 -64v-627h-203v881h203v-99q86 117 268 117t258 -97q78 -97 78 -300v-502z" />
    <glyph glyph-name="o" unicode="o" 
d="M305 397q0 -131 40 -207t160 -76t160 76q40 74 40 207t-40 208t-160 75t-160 -76t-40 -207zM102 396q0 458 404 458t404 -458t-404 -457q-404 -1 -404 457z" />
    <glyph glyph-name="p" unicode="p" horiz-adv-x="1034" 
d="M512 113q123 1 170 73t47 209q0 283 -203 283q-137 0 -200 -117v-332q63 -116 186 -116zM555 854q377 0 377 -459t-377 -458q-57 -1 -122 29t-107 87v-463h-203v1248h203v-99q35 51 99 83t130 32z" />
    <glyph glyph-name="q" unicode="q" horiz-adv-x="1034" 
d="M508 678q-203 0 -203 -283q0 -137 47 -210t160 -72q134 -1 197 116v332q-63 117 -201 117zM709 838h202v-1248h-202v463q-43 -57 -108 -87t-122 -29q-377 1 -377 459t377 458q67 0 131 -32t99 -83v99z" />
    <glyph glyph-name="r" unicode="r" horiz-adv-x="868" 
d="M518 682q-127 0 -192 -119v-606h-203v881h203v-99q29 47 86 82t129 35q149 1 245 -108l-122 -121q-70 55 -146 55z" />
    <glyph glyph-name="s" unicode="s" horiz-adv-x="935" 
d="M125 584q0 272 352 272q203 0 334 -137l-106 -107q-92 74 -213 74t-150 -44q-14 -22 -14 -58t38 -57q38 -22 132 -30t204 -52q55 -22 94 -77q38 -56 38 -145q0 -141 -98 -213t-244 -71q-243 -1 -390 165l105 107q129 -94 240 -94t135 16q47 31 48 77q0 46 -16 66t-74 30
t-126 20t-134 32t-111 78q-44 57 -44 148z" />
    <glyph glyph-name="t" unicode="t" horiz-adv-x="788" 
d="M496 -61q-188 0 -244 147q-27 70 -27 262v316h-143v165h143v215h203v-215h266v-165h-266v-410q0 -66 19 -104t81 -37q34 -1 93 30l86 -120q-82 -84 -211 -84z" />
    <glyph glyph-name="u" unicode="u" horiz-adv-x="1052" 
d="M123 838h203v-435q0 -208 49 -246t130 -38q81 -1 137 25t83 65v629h205v-881h-205v96q-84 -115 -264 -115t-259 103q-79 102 -79 293v504z" />
    <glyph glyph-name="v" unicode="v" horiz-adv-x="942" 
d="M891 834l-307 -877h-226l-307 877h225l191 -609l201 609h223z" />
    <glyph glyph-name="w" unicode="w" horiz-adv-x="1449" 
d="M1399 834l-260 -877h-230l-184 594l-184 -594h-228l-262 877h223l158 -586l178 586h228l180 -588l158 588h223z" />
    <glyph glyph-name="x" unicode="x" horiz-adv-x="989" 
d="M928 -43h-236l-198 281l-203 -281h-230l318 440l-307 437h239l189 -269l192 269h228l-306 -431z" />
    <glyph glyph-name="y" unicode="y" horiz-adv-x="942" 
d="M214 -410q-118 0 -173 82l82 119q37 -27 83 -27t68 22q21 22 28 28q7 8 15 25q9 17 13 25t11 31l9 27t9 30t8 25l-312 857h224l196 -584l201 584h225q-156 -432 -319 -867q-92 -250 -181 -321q-69 -56 -187 -56z" />
    <glyph glyph-name="z" unicode="z" horiz-adv-x="937" 
d="M836 -43h-734v152l457 550h-442v179h719v-156l-457 -549h457v-176z" />
    <glyph glyph-name="braceleft" unicode="{" horiz-adv-x="649" 
d="M506 1372v-147q-70 -10 -94 -46t-25 -108l6 -264q0 -162 -61 -242q61 -82 61 -260l-6 -264q0 -72 25 -108t94 -44v-147l-47 -2q-198 -5 -242 180q-22 93 -22 169q0 77 2 147q6 195 -23 214t-117 19v193q84 0 112 20t28 98l-4 187q0 129 12 181q28 121 87 174t167 50h47z
" />
    <glyph glyph-name="bar" unicode="|" horiz-adv-x="448" 
d="M326 1356v-1596h-203v1596h203z" />
    <glyph glyph-name="braceright" unicode="}" horiz-adv-x="649" 
d="M143 1372h50q135 4 190 -77q29 -42 45 -82t23 -127t5 -183q-3 -96 -3 -123q-1 -78 27 -98t112 -20v-193q-88 0 -113 -16q-23 -18 -24 -83q-2 -65 -2 -100l2 -123q0 -237 -66 -325t-199 -82l-47 2v147q70 8 95 44t24 108l-6 264q0 178 61 260q-61 80 -61 242l6 264
q0 72 -24 108q-25 36 -95 46v147z" />
    <glyph glyph-name="asciitilde" unicode="~" horiz-adv-x="753" 
d="M297 975q-35 0 -55 -53l-133 30q10 80 63 132q52 52 118 52t146 -30q80 -31 107 -31q45 0 63 51l131 -30q-10 -80 -63 -133q-52 -53 -118 -53t-145 32q-79 33 -114 33z" />
    <glyph glyph-name="uni00A0" unicode="&#xa0;" horiz-adv-x="552" 
 />
    <glyph glyph-name="exclamdown" unicode="&#xa1;" horiz-adv-x="479" 
d="M362 823v-211h-202v211h202zM367 -43v-367h-209v367q0 160 30 555h150q29 -369 29 -555z" />
    <glyph glyph-name="dieresis" unicode="&#xa8;" horiz-adv-x="1007" 
d="M782 1219v-213h-202v213h202zM225 1219h203v-213h-203v213z" />
    <glyph glyph-name="ordfeminine" unicode="&#xaa;" horiz-adv-x="796" 
d="M551 791h-191q-111 0 -110 -74q0 -84 149 -84q109 0 152 84v74zM363 1059q-90 0 -154 -49l-84 80q109 102 268 102q312 0 312 -287v-393h-154v68q-70 -82 -193 -82q-262 0 -262 217q0 133 101 175q89 38 211 38l141 -2q-2 82 -49 108t-137 25z" />
    <glyph glyph-name="logicalnot" unicode="&#xac;" horiz-adv-x="1204" 
d="M164 571h876v-389h-178v211h-698v178z" />
    <glyph glyph-name="degree" unicode="&#xb0;" horiz-adv-x="798" 
d="M400 1079q-90 0 -120 -49t-30 -144q0 -94 30 -144t122 -50t121 50q30 50 30 144q0 95 -31 144t-122 49zM707 887q0 -160 -72 -244t-234 -84q-161 0 -233 84t-72 244q0 326 305 325q306 1 306 -325z" />
    <glyph glyph-name="acute" unicode="&#xb4;" horiz-adv-x="909" 
d="M510 997h-182q86 180 182 303h254q-174 -219 -254 -303z" />
    <glyph glyph-name="periodcentered" unicode="&#xb7;" horiz-adv-x="530" 
d="M367 367h-203v211h203v-211z" />
    <glyph glyph-name="ordmasculine" unicode="&#xba;" horiz-adv-x="798" 
d="M250 845q0 -99 31 -157t121 -57q90 -1 120 57q31 58 31 157t-31 156t-121 57q-91 0 -121 -56q-30 -58 -30 -157zM707 845q1 -347 -305 -347t-306 347t306 347t305 -347z" />
    <glyph glyph-name="questiondown" unicode="&#xbf;" horiz-adv-x="751" 
d="M557 823v-211h-203v211h203zM467 -410q-170 0 -267 86t-98 254q0 80 35 150t79 110q124 111 136 168q6 27 6 82v70h195v-125q0 -75 -39 -143t-86 -110q-125 -112 -125 -208q0 -145 174 -145q72 1 117 29t96 92l123 -107q-39 -91 -141 -147t-205 -56z" />
    <glyph glyph-name="Agrave" unicode="&#xc0;" horiz-adv-x="1202" 
d="M690 1331h-180q-68 72 -254 305h252q102 -127 182 -305zM463 510h276l-137 442zM731 1192l399 -1235h-219l-118 383h-381l-121 -383h-219l399 1235h260z" />
    <glyph glyph-name="Aacute" unicode="&#xc1;" horiz-adv-x="1202" 
d="M944 1636q-168 -217 -252 -305h-182q84 180 182 305h252zM463 508h276l-137 442zM731 1190l399 -1235h-219l-118 383h-381l-121 -383h-219l399 1235h260z" />
    <glyph glyph-name="Acircumflex" unicode="&#xc2;" horiz-adv-x="1202" 
d="M463 510h276l-137 442zM731 1192l399 -1235h-219l-118 383h-381l-121 -383h-219l399 1235h260zM702 1638l246 -305h-209l-137 176l-139 -176h-209l246 305h202z" />
    <glyph glyph-name="Adieresis" unicode="&#xc4;" horiz-adv-x="1202" 
d="M526 1544v-213h-204v213h204zM881 1544v-213h-203v213h203zM463 508h276l-137 442zM731 1192l399 -1235h-219l-118 383h-381l-121 -383h-219l399 1235h260z" />
    <glyph glyph-name="Ccedilla" unicode="&#xc7;" horiz-adv-x="1146" 
d="M123 566q0 300 117 465t389 165t415 -166l-124 -123q-74 57 -132 80t-142 23q-236 0 -292 -186q-28 -96 -28 -218q0 -121 5 -178t23 -119q54 -184 292 -184q85 -1 142 21t132 79l124 -123q-144 -166 -416 -166t-388 166q-116 164 -117 464zM418 -430l133 260h178
q-57 -190 -88 -260h-223z" />
    <glyph glyph-name="Egrave" unicode="&#xc8;" horiz-adv-x="1191" 
d="M672 1331h-183q-53 57 -251 305h251q95 -117 183 -305zM1034 997h-674v-307h613v-192h-613v-348h674v-193h-876v1233h876v-193z" />
    <glyph glyph-name="Eacute" unicode="&#xc9;" horiz-adv-x="1191" 
d="M924 1636q-190 -238 -252 -305h-183q88 188 183 305h252zM1034 997h-674v-307h613v-192h-613v-348h674v-193h-876v1233h876v-193z" />
    <glyph glyph-name="Ecircumflex" unicode="&#xca;" horiz-adv-x="1191" 
d="M1034 150v-193h-876v1233h876v-193h-674v-305h613v-192h-613v-350h674zM688 1638l248 -305h-209l-139 176l-139 -176h-207l245 305h201z" />
    <glyph glyph-name="Edieresis" unicode="&#xcb;" horiz-adv-x="1191" 
d="M520 1544v-213h-203v213h203zM874 1544v-213h-202v213h202zM1034 997h-674v-307h613v-192h-613v-348h674v-193h-876v1233h876v-193z" />
    <glyph glyph-name="Igrave" unicode="&#xcc;" horiz-adv-x="542" 
d="M180 1190h205v-1233h-205v1233zM375 1331h-182q-53 57 -252 305h252q102 -127 182 -305z" />
    <glyph glyph-name="Iacute" unicode="&#xcd;" horiz-adv-x="544" 
d="M604 1636q-176 -221 -254 -305h-182q84 180 182 305h254zM158 -43v1233h202v-1233h-202z" />
    <glyph glyph-name="Icircumflex" unicode="&#xce;" horiz-adv-x="694" 
d="M449 1190v-1233h-203v1233h203zM449 1638l245 -305h-209l-139 176l-137 -176h-209l246 305h203z" />
    <glyph glyph-name="Idieresis" unicode="&#xcf;" horiz-adv-x="557" 
d="M203 1544v-213h-203v213h203zM354 1544h203v-213h-203v213zM178 -43v1233h203v-1233h-203z" />
    <glyph glyph-name="Ntilde" unicode="&#xd1;" horiz-adv-x="1236" 
d="M1079 1190v-1233h-278l-441 868v-868h-202v1233h282l437 -868v868h202zM748 1331q-64 0 -144 33t-112 33t-54 -51l-133 30q11 86 67 135t120 49t146 -31q81 -32 103 -32q42 0 62 53l133 -32q-12 -88 -68 -138t-120 -49z" />
    <glyph glyph-name="Ograve" unicode="&#xd2;" horiz-adv-x="1280" 
d="M645 127q89 0 153 28q113 50 142 203q12 66 12 228t-24 245q-57 186 -287 187q-157 0 -241 -89q-32 -36 -49 -104q-17 -69 -20 -121t-3 -138q0 -275 75 -355q79 -84 242 -84zM123 592q0 616 517 616t517 -616q0 -106 -4 -173t-31 -157t-75 -153q-139 -172 -407 -172
t-407 172q-49 63 -75 153q-27 90 -31 157t-4 173zM727 1331h-182q-61 68 -252 305h252q94 -117 182 -305z" />
    <glyph glyph-name="Oacute" unicode="&#xd3;" horiz-adv-x="1280" 
d="M997 1636q-199 -248 -252 -305h-182q88 188 182 305h252zM645 127q89 0 153 28q113 50 142 203q12 66 12 228t-24 245q-57 186 -287 187q-157 0 -241 -89q-32 -36 -49 -104q-17 -69 -20 -121t-3 -138q0 -275 75 -355q79 -84 242 -84zM123 592q0 616 517 616t517 -616
q0 -106 -4 -173t-31 -157t-75 -153q-139 -172 -407 -172t-407 172q-49 63 -75 153q-27 90 -31 157t-4 173z" />
    <glyph glyph-name="Ocircumflex" unicode="&#xd4;" horiz-adv-x="1280" 
d="M645 127q89 0 153 28q113 50 142 203q12 66 12 228t-24 245q-57 186 -287 187q-157 0 -241 -89q-32 -36 -49 -104q-17 -69 -20 -121t-3 -138q0 -275 75 -355q79 -84 242 -84zM123 592q0 616 517 616t517 -616q0 -106 -4 -173t-31 -157t-75 -153q-139 -172 -407 -172
t-407 172q-49 63 -75 153q-27 90 -31 157t-4 173zM502 1329h-209l246 307h202l246 -307h-209l-139 176z" />
    <glyph glyph-name="Odieresis" unicode="&#xd6;" horiz-adv-x="1280" 
d="M565 1544v-213h-205v213h205zM920 1544v-213h-203v213h203zM877 210q60 66 71 215q4 54 4 140t-3 138t-20 120t-49 105q-78 90 -238 90t-241 -89q-57 -66 -69 -223q-4 -54 -4 -140q0 -275 75 -355q79 -84 236 -84t238 83zM123 592q0 616 517 616t517 -616q0 -106 -4 -173
t-31 -157t-75 -153q-139 -172 -407 -172t-407 172q-49 63 -75 153q-27 90 -31 157t-4 173z" />
    <glyph glyph-name="Ugrave" unicode="&#xd9;" horiz-adv-x="1343" 
d="M762 1331h-182q-53 57 -252 305h252q94 -117 182 -305zM985 1190h201v-703q0 -254 -130 -402t-383 -148t-384 147t-131 403v703h202v-655q0 -185 55 -288q64 -120 259 -120t257 120q54 101 54 288v655z" />
    <glyph glyph-name="Uacute" unicode="&#xda;" horiz-adv-x="1343" 
d="M1014 1636q-168 -217 -252 -305h-182q84 180 182 305h252zM985 1190h201v-703q0 -254 -130 -402t-383 -148t-384 147t-131 403v703h202v-655q0 -185 55 -288q64 -120 259 -120t257 120q54 101 54 288v655z" />
    <glyph glyph-name="Ucircumflex" unicode="&#xdb;" horiz-adv-x="1343" 
d="M985 1190h201v-703q0 -254 -130 -402t-383 -148t-384 147t-131 403v703h202v-655q0 -185 55 -288q64 -120 259 -120t257 120q54 101 54 288v655zM532 1331h-208l245 307h203l246 -307h-209l-139 176z" />
    <glyph glyph-name="Udieresis" unicode="&#xdc;" horiz-adv-x="1343" 
d="M596 1544v-213h-203v213h203zM950 1544v-213h-202v213h202zM985 1190h201v-703q0 -254 -130 -402t-383 -148t-384 147t-131 403v703h202v-655q0 -185 55 -288q64 -120 259 -120t257 120q54 101 54 288v655z" />
    <glyph glyph-name="agrave" unicode="&#xe0;" 
d="M694 326h-237q-69 0 -100 -12q-60 -22 -60 -85q0 -113 197 -112q61 -1 116 29t84 83v97zM437 678q-111 0 -193 -62l-113 105q141 133 352 133t313 -87t103 -290v-520h-205v90q-94 -109 -254 -108q-346 0 -346 288q0 108 62 182q82 99 348 99l188 -2q0 112 -72 142
t-183 30zM586 1004h-180q-68 72 -254 305h251q103 -127 183 -305z" />
    <glyph glyph-name="aacute" unicode="&#xe1;" 
d="M694 326h-237q-69 0 -100 -12q-60 -22 -60 -85q0 -113 197 -112q61 -1 116 29t84 83v97zM437 678q-111 0 -193 -62l-113 105q141 133 352 133t313 -87t103 -290v-520h-205v90q-94 -109 -254 -108q-346 0 -346 288q0 108 62 182q82 99 348 99l188 -2q0 112 -72 142
t-183 30zM856 1309q-190 -238 -252 -305h-182q80 178 182 305h252z" />
    <glyph glyph-name="acircumflex" unicode="&#xe2;" 
d="M694 326h-237q-69 0 -100 -12q-60 -22 -60 -85q0 -113 197 -112q61 -1 116 29t84 83v97zM437 678q-111 0 -193 -62l-113 105q141 133 353 133t314 -86t101 -291v-520h-205v90q-94 -109 -254 -108q-346 0 -346 288q0 108 62 182q82 99 348 99l188 -2q0 112 -72 142
t-183 30zM375 1006h-207l246 305h200l248 -305h-209l-139 176z" />
    <glyph glyph-name="adieresis" unicode="&#xe4;" 
d="M694 326h-237q-69 0 -100 -12q-60 -22 -60 -85q0 -113 197 -112q61 -1 116 29t84 83v97zM437 678q-111 0 -193 -62l-113 105q141 133 352 133t313 -87t103 -290v-520h-205v90q-94 -109 -254 -108q-346 0 -346 288q0 108 62 182q82 99 348 99l188 -2q0 112 -72 142
t-183 30zM799 1217v-213h-203v213h203zM444 1217v-213h-202v213h202z" />
    <glyph glyph-name="ccedilla" unicode="&#xe7;" horiz-adv-x="905" 
d="M305 391q0 -141 42 -209q41 -68 159 -69q118 0 196 71l101 -106q-47 -70 -133 -105t-178 -34q-203 -1 -296 121t-94 331q0 209 94 331t300 122q207 0 307 -135l-98 -107q-86 70 -201 70t-157 -70t-42 -211zM229 -430l133 262h179q-57 -193 -88 -262h-224z" />
    <glyph glyph-name="egrave" unicode="&#xe8;" 
d="M506 680q-168 0 -199 -193h398q-15 93 -61 143t-138 50zM909 383v-59h-606q0 -102 59 -162t162 -60q147 0 238 82l100 -110q-100 -140 -330 -140t-329 115q-100 115 -101 344q0 459 404 459t403 -469zM592 1001h-180q-90 96 -254 306h252q100 -130 182 -306z" />
    <glyph glyph-name="eacute" unicode="&#xe9;" 
d="M868 1307q-164 -209 -254 -306h-180q82 176 182 306h252zM506 680q-168 0 -199 -193h398q-15 93 -61 143t-138 50zM909 383v-59h-606q0 -102 59 -162t162 -60q147 0 238 82l100 -110q-100 -140 -330 -140t-329 115q-100 115 -101 344q0 459 404 459t403 -469z" />
    <glyph glyph-name="ecircumflex" unicode="&#xea;" 
d="M506 680q-168 0 -199 -193h398q-15 93 -61 143t-138 50zM909 383v-59h-606q0 -102 59 -162t162 -60q147 0 238 82l100 -110q-100 -140 -330 -140t-329 115q-100 115 -101 344q0 459 404 459t403 -469zM367 1001h-209l248 308h200l246 -308h-207l-139 177z" />
    <glyph glyph-name="edieresis" unicode="&#xeb;" 
d="M506 680q-168 0 -199 -193h398q-15 93 -61 143t-138 50zM909 383v-59h-606q0 -102 59 -162t162 -60q147 0 238 82l100 -110q-100 -140 -330 -140t-329 115q-100 115 -101 344q0 459 404 459t403 -469zM795 1212v-211h-203v211h203zM440 1212v-211h-204v211h204z" />
    <glyph glyph-name="igrave" unicode="&#xec;" horiz-adv-x="534" 
d="M209 -43v881h203v-881h-203zM-41 1309h252q31 -39 92 -141t90 -164h-182q-92 102 -252 305z" />
    <glyph glyph-name="iacute" unicode="&#xed;" horiz-adv-x="532" 
d="M573 1309q-162 -209 -254 -305h-180q29 63 90 164t93 141h251zM123 -43v881h203v-881h-203z" />
    <glyph glyph-name="icircumflex" unicode="&#xee;" horiz-adv-x="641" 
d="M182 1004h-209l246 307h203l246 -307h-209l-140 178zM428 -43h-203v881h203v-881z" />
    <glyph glyph-name="idieresis" unicode="&#xef;" horiz-adv-x="503" 
d="M152 -43v881h202v-881h-202zM328 1217h202v-213h-202v213zM176 1217v-213h-203v213h203z" />
    <glyph glyph-name="ntilde" unicode="&#xf1;" horiz-adv-x="1052" 
d="M930 459v-502h-205v438q0 164 -25 209q-37 70 -178 70q-57 0 -112 -26t-84 -64v-627h-203v881h203v-99q86 117 268 117t258 -97q78 -97 78 -300zM650 946q-64 0 -144 33t-112 33t-54 -51l-133 30q12 86 67 135q54 50 120 50t146 -32t103 -32q42 0 62 53l133 -32
q-12 -87 -68 -137t-120 -50z" />
    <glyph glyph-name="ograve" unicode="&#xf2;" 
d="M305 397q0 -131 40 -207t160 -75t160 75t40 182q-1 108 -13 166q-12 56 -58 99t-130 43q-119 0 -159 -76t-40 -207zM504 854q406 0 406 -458t-404 -457q-403 -1 -403 457t401 458zM580 1004h-181q-78 84 -254 305h252q103 -127 183 -305z" />
    <glyph glyph-name="oacute" unicode="&#xf3;" 
d="M868 1309q-176 -221 -254 -305h-180q80 178 182 305h252zM305 397q0 -131 40 -207t160 -75t160 75t40 182q-1 108 -13 166q-12 56 -58 99t-130 43q-119 0 -159 -76t-40 -207zM504 854q406 0 406 -458t-404 -457q-403 -1 -403 457t401 458z" />
    <glyph glyph-name="ocircumflex" unicode="&#xf4;" 
d="M305 397q0 -131 40 -207t160 -75t160 75t40 182q-1 108 -13 166q-12 56 -58 99t-130 43q-119 0 -159 -76t-40 -207zM504 854q406 0 406 -458t-404 -457q-403 -1 -403 457t401 458zM360 1004h-208l247 307h201l246 -307h-207l-139 178z" />
    <glyph glyph-name="odieresis" unicode="&#xf6;" 
d="M305 397q0 -131 40 -207t160 -75t160 75t40 207t-40 208t-160 75t-160 -76t-40 -207zM504 854q406 0 406 -458t-404 -457q-403 -1 -403 457t401 458zM788 1217v-213h-202v213h202zM434 1217v-213h-203v213h203z" />
    <glyph glyph-name="ugrave" unicode="&#xf9;" horiz-adv-x="1052" 
d="M725 838h205v-881h-205v96q-84 -115 -264 -115t-259 103q-79 102 -79 293v504h203v-435q0 -209 44 -241q56 -41 136 -41q160 0 219 90v627zM612 1006h-180q-66 70 -254 305h252q31 -37 91 -139t91 -166z" />
    <glyph glyph-name="uacute" unicode="&#xfa;" horiz-adv-x="1052" 
d="M870 1309q-160 -203 -252 -305h-182q31 66 92 166t90 139h252zM725 838h205v-881h-205v96q-84 -115 -264 -115t-259 103q-79 102 -79 293v504h203v-435q0 -209 44 -241q56 -41 136 -41q160 0 219 90v627z" />
    <glyph glyph-name="ucircumflex" unicode="&#xfb;" horiz-adv-x="1052" 
d="M381 1006h-209l246 305h203l245 -305h-209l-137 176zM123 838h203v-435q0 -209 44 -241q56 -41 136 -41q160 0 219 90v627h205v-881h-205v96q-84 -115 -264 -115t-259 103q-79 102 -79 293v504z" />
    <glyph glyph-name="udieresis" unicode="&#xfc;" horiz-adv-x="1052" 
d="M725 838h205v-881h-205v96q-84 -115 -264 -115t-259 103q-79 102 -79 293v504h203v-435q0 -209 44 -241q56 -41 136 -41q160 0 219 90v627zM805 1217v-211h-203v211h203zM451 1217v-211h-203v211h203z" />
    <glyph glyph-name="endash" unicode="&#x2013;" horiz-adv-x="935" 
d="M109 541h802v-176h-802v176z" />
    <glyph glyph-name="emdash" unicode="&#x2014;" horiz-adv-x="1746" 
d="M205 541h1337v-176h-1337v176z" />
    <glyph glyph-name="quoteleft" unicode="&#x2018;" horiz-adv-x="452" 
d="M287 960q0 -62 35 -145h-213q-20 61 -21 131q0 221 186 309l91 -90q-45 -53 -61 -98t-17 -107z" />
    <glyph glyph-name="quoteright" unicode="&#x2019;" horiz-adv-x="372" 
d="M166 1111q0 62 -35 144h213q20 -61 21 -131q-1 -221 -189 -309l-88 90q46 53 62 99t16 107z" />
    <glyph glyph-name="quotedblleft" unicode="&#x201c;" horiz-adv-x="784" 
d="M287 960q0 -62 35 -145h-213q-20 59 -21 129q0 219 186 311l91 -90q-45 -53 -61 -98t-17 -107zM406 944q0 219 186 311l90 -90q-45 -53 -61 -98q-41 -114 18 -252h-213q-20 59 -20 129z" />
    <glyph glyph-name="quotedblright" unicode="&#x201d;" horiz-adv-x="559" 
d="M659 1124q0 -221 -186 -309l-90 88q45 53 61 98q41 116 -18 254h213q20 -61 20 -131zM342 1124q0 -221 -186 -309l-90 88q45 53 61 98q41 116 -18 254h213q20 -61 20 -131z" />
    <glyph glyph-name="bullet" unicode="&#x2022;" horiz-adv-x="909" 
d="M735 560q0 -122 -87 -208t-209 -86t-209 86t-87 208t87 209t209 87t209 -87t87 -209z" />
    <glyph glyph-name="fraction" unicode="&#x2044;" horiz-adv-x="716" 
d="M823 1356l-624 -1596h-199l625 1596h198z" />
    </font>
</defs>
</svg>
