<?xml version="1.0" standalone="no"?>
<!DOCTYPE svg PUBLIC "-//W3C//DTD SVG 1.1//EN" "http://www.w3.org/Graphics/SVG/1.1/DTD/svg11.dtd" >
<svg xmlns="http://www.w3.org/2000/svg">
<metadata>
Created by FontPrep 20130207 at Thu Jun 19 23:03:41 2014
 By Diego Escares
Copyright (c) 2011 by PYRS Fontlab Ltd. / Made with FontLab. All rights reserved.
</metadata>
<defs>
<font id="47bc139c4e09a42dec3204d4eaadbc2c" horiz-adv-x='1024' >
  <font-face 
    font-family="HospitalRegular"
    font-weight="400"
    font-stretch="normal"
    units-per-em="2048"
    panose-1="2 0 0 0 0 0 0 0 0 0"
    ascent="1530"
    descent="-518"
    x-height="815"
    cap-height="1190"
    bbox="-113 -410 1532 1638"
    underline-thickness="0"
    underline-position="-204"
    unicode-range="U+000D-2044"
  />
<missing-glyph horiz-adv-x="409" 
 />
    <glyph glyph-name=".notdef" horiz-adv-x="409" 
 />
    <glyph glyph-name=".null" horiz-adv-x="0" 
 />
    <glyph glyph-name=".null" horiz-adv-x="0" 
 />
    <glyph glyph-name="nonmarkingreturn" horiz-adv-x="681" 
 />
    <glyph glyph-name="CR" unicode="&#xd;" horiz-adv-x="409" 
 />
    <glyph glyph-name="space" unicode=" " horiz-adv-x="409" 
 />
    <glyph glyph-name="exclam" unicode="!" horiz-adv-x="425" 
d="M133 840v350h135v-338q0 -229 -26 -598h-82q-27 360 -27 586zM137 -45v147h127v-147h-127z" />
    <glyph glyph-name="quotedbl" unicode="&#x22;" horiz-adv-x="628" 
d="M301 1133q0 -233 -143 -318l-56 66q74 102 74 254q0 61 -20 114h131q14 -51 14 -116zM395 1249h131q14 -51 14 -133t-34 -170q-35 -88 -109 -131l-55 66q74 104 74 249q-1 66 -21 119z" />
    <glyph glyph-name="numbersign" unicode="#" horiz-adv-x="1241" 
d="M737 461l49 225h-280l-51 -225h282zM1090 686h-175l-51 -225h146v-115h-170l-88 -389h-129l88 389h-281l-88 -389h-127l86 389h-149v115h176l49 225h-144v113h170l89 391h126l-86 -391h281l86 391h129l-86 -391h148v-113z" />
    <glyph glyph-name="dollar" unicode="$" horiz-adv-x="1040" 
d="M801 272q0 100 -52 144t-163 73v-423q215 11 215 206zM270 854q0 -90 47 -132t144 -69v424q-191 -26 -191 -223zM928 270q0 -156 -91 -238t-251 -93v-179h-125v181q-103 10 -197 60t-151 132l86 76q109 -117 262 -139v452q-152 41 -235 115q-83 75 -83 221t83 238
t235 108v150h125v-150q86 -8 169 -44t126 -93l-78 -88q-96 86 -217 98v-456q170 -43 256 -119t86 -232z" />
    <glyph glyph-name="percent" unicode="%" horiz-adv-x="1208" 
d="M917 -47q47 0 73 29q26 28 31 60t5 83v78q0 51 -5 84t-32 63t-69 29t-66 -17q-46 -31 -47 -169v-66q0 -51 5 -83t31 -62t74 -29zM713 193q0 280 194 280q163 0 196 -140q17 -71 17 -156t-6 -130q-25 -189 -196 -186q-134 0 -174 98q-19 49 -25 94t-6 140zM182 977v-64
q0 -73 14 -109q24 -63 88 -64q65 -1 91 35t26 153v59q0 51 -5 84t-31 63q-27 30 -69 30q-84 -1 -100 -66q-14 -51 -14 -121zM465 744q-37 -99 -172 -99t-173 98q-32 83 -32 176q0 95 6 141q26 200 188 198q154 -1 194 -135q20 -68 20 -181q0 -114 -31 -198zM842 1356h121
l-596 -1594h-121z" />
    <glyph glyph-name="ampersand" unicode="&#x26;" horiz-adv-x="1105" 
d="M440 66q154 0 269 118l-295 367q-201 -129 -201 -275q-1 -90 67 -150t160 -60zM303 952q0 -58 49 -136q49 -79 92 -101q180 100 181 227q0 68 -46 105t-115 37t-115 -38q-46 -36 -46 -94zM440 -59q-143 0 -247 97t-105 238q0 213 248 373q-6 13 -24 29q-134 119 -134 276
q0 115 85 185q85 69 204 69t201 -74t82 -194q0 -188 -226 -326l273 -338q92 111 129 254l121 -30q-43 -178 -173 -324l177 -219h-164l-99 129q-145 -145 -348 -145z" />
    <glyph glyph-name="quotesingle" unicode="'" horiz-adv-x="389" 
d="M301 1073q0 -233 -143 -319l-56 67q74 100 74 254q0 62 -20 115h131q14 -55 14 -117z" />
    <glyph glyph-name="parenleft" unicode="(" horiz-adv-x="696" 
d="M289 557q0 -473 133 -651q47 -63 110 -74v-84q-57 -9 -129 37q-239 150 -239 763t242 779q70 47 124 45h2v-86q-243 -96 -243 -729z" />
    <glyph glyph-name="parenright" unicode=")" horiz-adv-x="696" 
d="M408 557q0 633 -244 729v86h4q55 2 125 -45q239 -165 239 -779t-239 -763q-70 -45 -129 -37v84q63 10 110 74q109 147 129 513q5 72 5 138z" />
    <glyph glyph-name="asterisk" unicode="*" horiz-adv-x="737" 
d="M418 1251q0 -27 3 -111t-5 -161q23 12 239 106l41 -94q-217 -96 -254 -106q57 -53 114 -136q58 -83 71 -100l-82 -61q-14 18 -78 97t-98 151q-33 -68 -179 -248l-79 61q133 190 182 236q-78 24 -152 60q-73 36 -100 48l41 92q205 -90 237 -106q-6 55 -6 108l4 164h101z
" />
    <glyph glyph-name="plus" unicode="+" horiz-adv-x="944" 
d="M831 492v-115h-303v-303h-112v303h-303v115h303v301h112v-301h303z" />
    <glyph glyph-name="comma" unicode="," horiz-adv-x="364" 
d="M133 102h139q-82 -266 -149 -434h-82q43 250 92 434z" />
    <glyph glyph-name="hyphen" unicode="-" horiz-adv-x="1087" 
d="M184 471h719v-115h-719v115z" />
    <glyph glyph-name="period" unicode="." horiz-adv-x="309" 
d="M92 102h125v-145h-125v145z" />
    <glyph glyph-name="slash" unicode="/" horiz-adv-x="962" 
d="M143 -238l596 1594h121l-596 -1594h-121z" />
    <glyph glyph-name="zero" unicode="0" horiz-adv-x="964" 
d="M711 774q-1 107 -13 140q-12 32 -28 70t-41 54q-70 45 -138 45q-67 0 -109 -14q-65 -22 -106 -107q-23 -50 -26 -124q-2 -74 -2 -133v-273q0 -165 13 -205q13 -41 31 -73q47 -91 196 -91q56 1 102 21t68 50q54 70 55 278l-2 282v80zM123 413v314q0 356 174 443
q73 38 175 38q190 0 274 -109q75 -94 90 -262q6 -67 6 -155l-4 -225q0 -310 -88 -415q-37 -44 -105 -75q-67 -31 -145 -31q-200 1 -272 89q-28 33 -47 61t-35 105q-23 103 -23 222z" />
    <glyph glyph-name="one" unicode="1" horiz-adv-x="649" 
d="M516 1190v-1233h-127v1036l-199 -272l-88 63l277 406h137z" />
    <glyph glyph-name="two" unicode="2" horiz-adv-x="972" 
d="M850 80v-125h-715v139l309 355q88 88 122 134t73 99q70 95 72 180q0 115 -72 167t-190 52q-57 1 -126 -23t-110 -61l-90 74q51 63 143 99t180 36q174 0 282 -88t108 -260q0 -68 -35 -144t-71 -124q-36 -47 -97 -115l-342 -395h559z" />
    <glyph glyph-name="three" unicode="3" horiz-adv-x="976" 
d="M854 293q0 -178 -103 -268t-284 -91q-223 0 -344 154l92 74q99 -100 235 -100q276 -1 277 231q0 156 -99 207q-50 24 -102 32t-133 9v125q179 0 219 24q70 42 82 86q12 43 13 94q-1 102 -63 156t-167 55q-156 0 -241 -84l-93 74q109 137 332 137q156 0 257 -90
q102 -90 102 -258t-117 -256q137 -94 137 -311z" />
    <glyph glyph-name="four" unicode="4" horiz-adv-x="960" 
d="M618 434v551l-368 -551h368zM858 434v-125h-115v-352h-125v352h-516v131l502 750h139v-756h115z" />
    <glyph glyph-name="five" unicode="5" horiz-adv-x="974" 
d="M489 723q183 0 273 -103q90 -104 90 -288t-92 -290t-271 -105q-121 -1 -207 31t-159 116l86 76q74 -58 130 -78q55 -20 165 -20q220 -1 221 266q0 138 -54 204q-53 66 -195 66t-226 -82l-96 64v610h630v-127h-505v-383q79 43 210 43z" />
    <glyph glyph-name="six" unicode="6" horiz-adv-x="962" 
d="M477 63q127 0 182 65t55 200q0 134 -48 202t-182 68t-185 -72t-51 -204q0 -259 229 -259zM479 723q360 0 361 -404q0 -383 -373 -382q-150 0 -247 90t-97 239v590q0 170 110 261q111 91 276 91t286 -92l-70 -92q-98 59 -205 59q-272 0 -272 -235v-191q90 66 231 66z" />
    <glyph glyph-name="seven" unicode="7" horiz-adv-x="925" 
d="M106 1190h717v-135l-577 -1098h-144l584 1108h-580v125z" />
    <glyph glyph-name="eight" unicode="8" horiz-adv-x="968" 
d="M248 298q0 -112 59 -174t171 -63t176 57t65 175q-1 117 -61 185t-176 67q-116 0 -175 -67q-59 -68 -59 -180zM487 1083q-102 0 -160 -53t-59 -160q0 -208 216 -208t216 206q0 100 -55 158q-56 57 -158 57zM846 293q0 -164 -100 -260t-265 -96q-164 0 -261 97t-97 259
q0 211 135 311q-115 88 -115 255t91 258t248 91t250 -90t93 -258t-116 -258q137 -102 137 -309z" />
    <glyph glyph-name="nine" unicode="9" horiz-adv-x="962" 
d="M485 1083q-127 1 -182 -65t-55 -201t50 -203t182 -68t184 72q51 72 51 207q-1 258 -230 258zM483 422q-360 0 -360 403q0 383 373 383q150 0 246 -90t98 -237v-592q0 -170 -111 -261t-277 -91t-284 92l70 92q98 -59 204 -60q272 0 273 236v190q-95 -65 -232 -65z" />
    <glyph glyph-name="colon" unicode=":" horiz-adv-x="309" 
d="M92 815h125v-147h-125v147zM92 -43v145h125v-145h-125z" />
    <glyph glyph-name="semicolon" unicode=";" horiz-adv-x="364" 
d="M264 813v-145h-125v145h125zM133 102h139q-82 -266 -149 -434h-82q43 250 92 434z" />
    <glyph glyph-name="less" unicode="&#x3c;" horiz-adv-x="897" 
d="M795 197v-142l-662 277v166l662 276v-141l-545 -219z" />
    <glyph glyph-name="equal" unicode="=" horiz-adv-x="1056" 
d="M164 209v115h719v-115h-719zM164 580h719v-115h-719v115z" />
    <glyph glyph-name="greater" unicode="&#x3e;" horiz-adv-x="897" 
d="M102 55v142l545 217l-545 219v141l662 -276v-166z" />
    <glyph glyph-name="question" unicode="?" horiz-adv-x="804" 
d="M324 -43v145h125v-145h-125zM446 358q0 -60 3 -102h-125v127q0 114 89 212q38 42 74 83q90 99 89 197q-1 97 -49 143q-49 46 -157 45q-108 0 -223 -115l-86 78q121 164 312 164q161 0 245 -83t84 -243q0 -82 -40 -154t-88 -118q-48 -45 -88 -110q-40 -64 -40 -124z" />
    <glyph glyph-name="at" unicode="@" horiz-adv-x="1572" 
d="M763 795q-122 0 -167 -81t-45 -221q0 -139 45 -221t167 -82t208 109v387q-86 109 -208 109zM804 1208q308 0 487 -196t179 -505q0 -308 -125 -386q-55 -35 -135 -35q-160 0 -217 139q-16 -59 -95 -98t-148 -39q-312 0 -312 404t312 405q64 0 126 -28t95 -76v84h112v-314
q-6 -199 4 -248q4 -53 34 -85t83 -32t87 26q67 50 67 255q0 283 -144 450t-409 167q-264 0 -427 -177t-163 -435t158 -438q158 -179 418 -179q111 0 219 45l30 -70q-123 -66 -276 -65q-295 0 -478 210q-184 210 -184 507q0 298 196 506q198 208 506 208z" />
    <glyph glyph-name="A" unicode="A" horiz-adv-x="1081" 
d="M360 471h361l-180 592zM870 -43l-116 397h-426l-117 -397h-139l366 1233h205l367 -1233h-140z" />
    <glyph glyph-name="B" unicode="B" horiz-adv-x="1087" 
d="M283 535v-453h319q131 0 198 53q66 53 66 174q-1 226 -258 226h-325zM565 1065h-282v-414h280q254 0 254 211q0 102 -73 152t-179 51zM158 1190h379q175 0 287 -81t112 -251q0 -94 -34 -151t-116 -103q92 -27 146 -114t53 -187q0 -176 -100 -261t-279 -85h-448v1233z" />
    <glyph glyph-name="C" unicode="C" horiz-adv-x="1058" 
d="M123 558q0 378 136 524q119 128 352 127t343 -142l-82 -80q-66 55 -124 75t-148 21t-158 -29t-104 -74t-62 -133t-26 -227q0 -139 5 -201t25 -135t57 -116q35 -43 103 -73q68 -29 159 -29t149 19t124 73l84 -80q-119 -139 -354 -139q-145 0 -244 49q-235 118 -235 570z
" />
    <glyph glyph-name="D" unicode="D" horiz-adv-x="1140" 
d="M893 498v112q0 260 -71 357q-71 98 -218 98h-321v-983h321q207 0 261 180q28 94 28 236zM951 138q-67 -123 -181 -158q-72 -23 -166 -23h-446v1233h446q113 0 192 -37q78 -37 120 -89q102 -127 102 -465t-67 -461z" />
    <glyph glyph-name="E" unicode="E" horiz-adv-x="1099" 
d="M942 1065h-659v-412h598v-125h-598v-446h659v-125h-784v1233h784v-125z" />
    <glyph glyph-name="F" unicode="F" horiz-adv-x="1075" 
d="M942 1065h-659v-412h518v-125h-518v-571h-125v1233h784v-125z" />
    <glyph glyph-name="G" unicode="G" horiz-adv-x="1087" 
d="M123 552q0 124 10 211q24 205 123 316q115 129 350 129q234 0 348 -141l-82 -80q-74 55 -129 75t-145 21q-90 -1 -158 -31t-104 -74q-86 -107 -86 -411q0 -90 5 -153t27 -134t58 -114t102 -72t160 -28q154 0 223 65v338h-254v115h379v-500q-96 -145 -348 -145
q-143 0 -242 48q-237 116 -237 565z" />
    <glyph glyph-name="H" unicode="H" horiz-adv-x="1142" 
d="M860 1190h125v-1233h-125v578h-577v-578h-125v1233h125v-539h577v539z" />
    <glyph glyph-name="I" unicode="I" horiz-adv-x="440" 
d="M158 -43v1233h125v-1233h-125z" />
    <glyph glyph-name="J" unicode="J" horiz-adv-x="868" 
d="M711 1190v-848q-2 -193 -78 -298t-248 -105t-279 96l78 88q86 -57 179 -57t124 22q32 22 47 36t24 43l18 54t8 75v894h127z" />
    <glyph glyph-name="K" unicode="K" horiz-adv-x="1062" 
d="M283 -43h-125v1233h125v-633l503 633h164l-438 -547l473 -686h-166l-393 582l-143 -179v-403z" />
    <glyph glyph-name="L" unicode="L" horiz-adv-x="843" 
d="M283 82h469v-125h-594v1233h125v-1108z" />
    <glyph glyph-name="M" unicode="M" horiz-adv-x="1460" 
d="M1303 1190v-1233h-125v1065l-381 -1018h-133l-381 1018v-1065h-125v1233h196l375 -1006l377 1006h197z" />
    <glyph glyph-name="N" unicode="N" horiz-adv-x="1142" 
d="M985 1190v-1233h-201l-501 1090v-1090h-125v1233h196l506 -1098v1098h125z" />
    <glyph glyph-name="O" unicode="O" horiz-adv-x="1183" 
d="M589 63q240 0 308 186q37 97 37 308t-31 309q-63 215 -311 215q-167 0 -238 -82q-36 -43 -58 -86t-34 -128t-12 -203q0 -119 5 -181q13 -161 81 -241q34 -42 100 -69q66 -28 153 -28zM1061 594q0 -112 -3 -176t-27 -158t-70 -156q-125 -168 -369 -168t-369 168
q-47 62 -71 156t-26 159q-3 65 -3 185q0 252 90 416q102 188 379 188q469 0 469 -614z" />
    <glyph glyph-name="P" unicode="P" horiz-adv-x="1054" 
d="M283 1065v-471h272q117 0 187 56t71 169q0 246 -264 246h-266zM283 -43h-125v1233h395q178 0 278 -90t101 -264q0 -267 -189 -332q-101 -37 -282 -37h-178v-510z" />
    <glyph glyph-name="Q" unicode="Q" horiz-adv-x="1163" 
d="M934 540q0 288 -35 352t-71 107q-69 82 -236 82q-248 0 -312 -212q-26 -80 -28 -165t-2 -163q0 -279 86 -380q34 -42 100 -70t146 -28t135 17l-113 188h146l75 -127q51 47 77 126t29 131t3 142zM592 1208q469 0 469 -614q0 -320 -74 -450q-37 -65 -96 -111l127 -213h-144
l-92 151q-94 -35 -190 -34q-244 0 -369 167q-47 62 -71 156t-26 159q-3 65 -3 185q0 252 90 416q102 188 379 188z" />
    <glyph glyph-name="R" unicode="R" horiz-adv-x="1073" 
d="M283 598h272q117 0 187 58t71 179q0 121 -67 175t-197 55h-266v-467zM283 473v-516h-125v1233h395q178 0 278 -85t101 -261q0 -274 -203 -344l256 -543h-137l-246 516h-319z" />
    <glyph glyph-name="S" unicode="S" horiz-adv-x="1040" 
d="M270 856q0 -133 130 -182q58 -23 179 -51t219 -83q58 -34 94 -103t36 -167q0 -172 -109 -252t-287 -79q-124 0 -238 49t-181 145l86 78q135 -145 327 -145q131 0 203 43t72 172t-130 183q-58 24 -183 54t-215 79q-58 31 -94 97t-36 160q-1 170 103 262t276 92
q102 0 204 -34t155 -105l-78 -88q-115 102 -281 102q-252 0 -252 -227z" />
    <glyph glyph-name="T" unicode="T" horiz-adv-x="1095" 
d="M1014 1190v-119h-404v-1114h-125v1114h-403v119h932z" />
    <glyph glyph-name="U" unicode="U" horiz-adv-x="1247" 
d="M1090 1190v-707q-2 -247 -115 -397t-352 -149q-275 0 -377 185q-49 89 -69 190q-19 101 -19 235v643h125v-658q0 -205 58 -324q69 -145 283 -145t283 145q35 72 47 146t13 178v658h123z" />
    <glyph glyph-name="V" unicode="V" horiz-adv-x="1081" 
d="M870 1190h140l-367 -1233h-205l-366 1233h139l330 -1096z" />
    <glyph glyph-name="W" unicode="W" horiz-adv-x="1603" 
d="M1405 1190h127l-291 -1233h-203l-235 999l-236 -999h-205l-290 1233h129l264 -1096l264 1092h148l264 -1092z" />
    <glyph glyph-name="X" unicode="X" horiz-adv-x="1120" 
d="M1018 -43h-141l-316 522l-317 -522h-142l385 641l-358 592h147l285 -473l283 473h147l-358 -592z" />
    <glyph glyph-name="Y" unicode="Y" horiz-adv-x="1003" 
d="M563 -43h-125v604l-366 629h147l283 -500l284 500h146l-369 -629v-604z" />
    <glyph glyph-name="Z" unicode="Z" horiz-adv-x="1101" 
d="M164 1077v113h801v-113l-676 -1005h676v-115h-828v115l676 1005h-649z" />
    <glyph glyph-name="bracketleft" unicode="[" horiz-adv-x="759" 
d="M514 1260h-225v-1403h225v-113h-350v1626h350v-110z" />
    <glyph glyph-name="backslash" unicode="\" horiz-adv-x="962" 
d="M223 1356l596 -1594h-121l-596 1594h121z" />
    <glyph glyph-name="bracketright" unicode="]" horiz-adv-x="759" 
d="M471 1260h-225v110h350v-1626h-350v113h225v1403z" />
    <glyph glyph-name="asciicircum" unicode="^" horiz-adv-x="864" 
d="M244 741h-142l248 467h164l248 -467h-141l-189 349z" />
    <glyph glyph-name="underscore" unicode="_" horiz-adv-x="1306" 
d="M184 51h938v-94h-938v94z" />
    <glyph glyph-name="grave" unicode="`" horiz-adv-x="776" 
d="M143 1300h164q129 -207 162 -282h-107q-92 112 -219 282z" />
    <glyph glyph-name="a" unicode="a" horiz-adv-x="937" 
d="M457 55q172 0 233 115v178h-233q-174 0 -210 -59q-19 -31 -20 -80q1 -154 230 -154zM815 -43h-125v92q-90 -111 -274 -110q-135 0 -225 68q-89 69 -89 200q0 258 316 258h272v10q2 143 -64 196q-67 52 -206 52t-207 -53l-59 61q102 104 297 105q365 0 364 -363v-516z" />
    <glyph glyph-name="b" unicode="b" horiz-adv-x="942" 
d="M715 350q0 111 -8 164t-33 104q-51 105 -190 105q-138 0 -236 -121v-430q98 -121 236 -121t190 105q41 83 41 194zM123 1190h125v-469q34 53 104 84t142 31q346 0 346 -449t-346 -448q-72 1 -142 31t-104 85v-98h-125v1233z" />
    <glyph glyph-name="c" unicode="c" horiz-adv-x="813" 
d="M479 51q109 0 174 58l58 -64q-33 -51 -111 -79t-151 -27q-347 1 -347 449t347 448q73 0 151 -27t111 -78l-58 -63q-68 55 -174 55q-151 0 -201 -87t-50 -249t50 -249q51 -87 201 -87z" />
    <glyph glyph-name="d" unicode="d" horiz-adv-x="942" 
d="M227 387q0 -246 116 -309q50 -27 126 -27q127 0 225 121v430q-98 121 -236 121t-190 -105q-41 -84 -41 -231zM694 1190h125v-1233h-125v98q-34 -55 -104 -86t-141 -30q-347 1 -347 449t347 448q71 0 141 -31t104 -84v469z" />
    <glyph glyph-name="e" unicode="e" 
d="M461 719q-211 0 -230 -256h459q-18 256 -229 256zM492 45q150 0 215 59l57 -63q-35 -55 -115 -81t-160 -26q-215 0 -301 115t-86 336q0 449 360 449t357 -445l-2 -43h-590q3 -143 59 -222t206 -79z" />
    <glyph glyph-name="f" unicode="f" horiz-adv-x="706" 
d="M219 903q0 305 225 305q64 0 126 -28t96 -76l-60 -62q-55 56 -141 56q-121 0 -121 -154v-129h262v-113h-262v-745h-125v745h-137v113h137v88z" />
    <glyph glyph-name="g" unicode="g" horiz-adv-x="942" 
d="M227 387q0 -246 116 -309q50 -27 126 -27q127 0 225 121v430q-98 121 -236 121t-190 -105q-41 -84 -41 -231zM694 815h125v-774q0 -221 -87 -336t-302 -115q-80 0 -160 26t-114 81l57 63q72 -61 221 -61q264 0 260 293v61q-34 -53 -104 -84t-141 -30q-347 1 -347 449
t347 448q71 0 141 -31t104 -84v94z" />
    <glyph glyph-name="h" unicode="h" horiz-adv-x="962" 
d="M494 836q346 0 346 -449v-430h-125v430q0 147 -33 215q-33 67 -83 94t-126 27q-129 0 -225 -121v-645h-125v1233h125v-469q34 53 104 84t142 31z" />
    <glyph glyph-name="i" unicode="i" horiz-adv-x="370" 
d="M123 -43v858h125v-858h-125zM123 1190h125v-146h-125v146z" />
    <glyph glyph-name="j" unicode="j" horiz-adv-x="397" 
d="M20 -303q94 0 113 65q14 49 14 132v921h127v-870q0 -174 -35 -246q-35 -73 -103 -95q-40 -13 -93 -14q-104 0 -156 54l50 71q35 -18 83 -18zM147 1190h127v-146h-127v146z" />
    <glyph glyph-name="k" unicode="k" horiz-adv-x="851" 
d="M248 -43h-125v1233h125v-768l362 393h156l-305 -330l330 -528h-140l-274 438l-129 -139v-299z" />
    <glyph glyph-name="l" unicode="l" horiz-adv-x="370" 
d="M123 -43v1233h125v-1233h-125z" />
    <glyph glyph-name="m" unicode="m" horiz-adv-x="1556" 
d="M1434 451v-494h-125v494q0 141 -49 203t-187 63q-70 0 -133 -33t-92 -90v-637h-125v494q0 141 -49 203t-187 63q-71 0 -137 -34t-102 -89v-637h-125v858h125v-94q36 57 112 86t158 29t166 -35t121 -103q35 66 119 102t168 36q342 0 342 -385z" />
    <glyph glyph-name="n" unicode="n" horiz-adv-x="960" 
d="M838 453v-496h-125v397q0 178 -11 224q-35 139 -225 139q-69 0 -133 -33t-96 -90v-637h-125v858h125v-94q32 55 104 85t146 30q340 0 340 -383z" />
    <glyph glyph-name="o" unicode="o" 
d="M582 79q110 63 110 307t-110 309q-49 28 -122 28q-195 0 -224 -212q-32 -206 30 -352q48 -108 195 -108q72 0 121 28zM461 836q358 0 358 -450t-358 -449q-358 -1 -358 449t358 450z" />
    <glyph glyph-name="p" unicode="p" horiz-adv-x="942" 
d="M484 723q-138 0 -236 -121v-430q98 -121 236 -121t190 105q41 84 41 194q0 111 -8 164t-33 104q-52 105 -190 105zM248 -410h-125v1223h125v-92q34 53 104 84t142 31q346 0 346 -449t-346 -448q-72 1 -142 31t-104 83v-463z" />
    <glyph glyph-name="q" unicode="q" horiz-adv-x="942" 
d="M458 723q-227 0 -230 -297q0 -113 8 -166t32 -104q50 -105 189 -105t237 121v430q-98 121 -236 121zM819 -410h-125v463q-34 -53 -104 -84t-141 -30q-347 1 -347 449t347 448q71 0 141 -31t104 -84v92h125v-1223z" />
    <glyph glyph-name="r" unicode="r" horiz-adv-x="770" 
d="M467 725q-121 0 -219 -123v-645h-125v858h125v-94q74 115 222 115t218 -78l-84 -86q-63 53 -137 53z" />
    <glyph glyph-name="s" unicode="s" horiz-adv-x="833" 
d="M378 53q114 0 171 29t57 107q0 77 -50 109t-123 41t-145 23t-123 68q-50 54 -50 154q0 252 305 252q180 0 278 -107l-59 -63q-78 63 -203 63q-197 0 -196 -139q0 -66 50 -96t123 -38t145 -24t123 -72q50 -56 50 -172t-81 -184t-214 -67q-223 0 -334 139l58 63
q104 -86 218 -86z" />
    <glyph glyph-name="t" unicode="t" horiz-adv-x="688" 
d="M219 211v489h-137v115h137v229h125v-229h262v-115h-262l2 -469q0 -147 54 -174q28 -14 69 -14t88 18l47 -71q-49 -51 -143 -51t-160 45q-25 16 -41 55t-28 74q-12 36 -13 98z" />
    <glyph glyph-name="u" unicode="u" horiz-adv-x="962" 
d="M469 -61q-346 0 -346 448v428h125v-428q0 -147 33 -215q33 -67 83 -94t125 -27q129 0 226 121v643h125v-858h-125v96q-37 -53 -107 -83t-139 -31z" />
    <glyph glyph-name="v" unicode="v" horiz-adv-x="841" 
d="M639 815h141l-276 -858h-166l-277 858h142l213 -741z" />
    <glyph glyph-name="w" unicode="w" horiz-adv-x="1341" 
d="M1139 815h141l-233 -858h-166l-209 729l-211 -729h-164l-236 858h142l178 -731l207 731h166l207 -731z" />
    <glyph glyph-name="x" unicode="x" horiz-adv-x="833" 
d="M772 -43h-145l-213 328l-217 -328h-136l285 432l-276 426h145l205 -315l207 315h135l-277 -420z" />
    <glyph glyph-name="y" unicode="y" horiz-adv-x="833" 
d="M90 -289q24 -14 78 -14q54 -1 78 27l36 42t26 47q13 34 18 46q4 12 15 52t13 46l-295 858h142l221 -698l229 698h142q-274 -784 -301 -859q-27 -76 -67 -172t-98 -144q-57 -48 -155 -50q-98 0 -131 48z" />
    <glyph glyph-name="z" unicode="z" horiz-adv-x="847" 
d="M745 815v-115l-485 -630h485v-113h-643v113l486 630h-471v115h628z" />
    <glyph glyph-name="braceleft" unicode="{" horiz-adv-x="573" 
d="M430 -254h-24q-61 -2 -105 27q-43 29 -63 65q-45 81 -48 312q0 8 3 54q11 246 -41 285q-31 25 -99 21v127q82 -4 110 32q28 35 32 157t4 239t48 212t154 95q18 0 29 -2v-86q-109 -10 -115 -188v-66q0 -6 2 -104t0 -140t-19 -110t-52 -103q72 -72 71 -262l-6 -266
q0 -63 4 -97t32 -71t83 -45v-86z" />
    <glyph glyph-name="bar" unicode="|" horiz-adv-x="370" 
d="M123 -240v1594h125v-1594h-125z" />
    <glyph glyph-name="braceright" unicode="}" horiz-adv-x="573" 
d="M143 -254v86q55 8 83 45t32 71t4 97l-6 266q0 190 72 262q-83 83 -74 372q2 67 2 79v23q0 169 -47 210q-25 23 -66 27v86q10 2 29 2q106 0 154 -95t49 -212q0 -117 4 -239t32 -158t107 -31v-127q-66 4 -89 -14q-50 -40 -50 -208l2 -138q0 -229 -47 -312q-20 -38 -64 -66
t-104 -26h-23z" />
    <glyph glyph-name="asciitilde" unicode="~" horiz-adv-x="753" 
d="M247 492q-48 0 -71 -48l-67 17q8 55 52 91t95 36t127 -33t113 -33q63 0 82 47l67 -16q-8 -55 -52 -92t-96 -37t-127 34t-123 34z" />
    <glyph glyph-name="uni00A0" unicode="&#xa0;" horiz-adv-x="552" 
 />
    <glyph glyph-name="exclamdown" unicode="&#xa1;" horiz-adv-x="405" 
d="M293 -59v-351h-135v351q0 225 26 585h82q27 -360 27 -585zM289 823v-145h-127v145h127z" />
    <glyph glyph-name="dieresis" unicode="&#xa8;" horiz-adv-x="901" 
d="M676 1163v-145h-125v145h125zM350 1163v-145h-125v145h125z" />
    <glyph glyph-name="ordfeminine" unicode="&#xaa;" horiz-adv-x="745" 
d="M555 815h-180q-136 0 -162 -47q-14 -25 -14 -61q0 -117 178 -117q131 0 178 86v139zM350 1104q-110 0 -164 -43l-45 49q82 82 230 82q280 0 280 -281v-399h-96v72q-70 -86 -211 -86q-104 0 -173 54t-69 155q0 59 25 100t55 61q31 20 88 30t94 9l191 -4q-2 117 -49 159
q-46 42 -156 42z" />
    <glyph glyph-name="logicalnot" unicode="&#xac;" horiz-adv-x="1136" 
d="M164 526h809v-307h-115v193h-694v114z" />
    <glyph glyph-name="degree" unicode="&#xb0;" horiz-adv-x="735" 
d="M547 857q0 83 -6 121q-5 38 -23 74q-35 72 -145 72q-111 0 -147 -61t-36 -174t36 -175t142 -62t143 60q36 62 36 145zM369 1212q152 0 213 -84t61 -240q0 -155 -60 -239t-213 -84t-213 84q-61 84 -61 239q0 156 60 240t213 84z" />
    <glyph glyph-name="acute" unicode="&#xb4;" horiz-adv-x="776" 
d="M633 1300q-127 -170 -219 -282h-107q33 76 162 282h164z" />
    <glyph glyph-name="periodcentered" unicode="&#xb7;" horiz-adv-x="452" 
d="M164 557h125v-145h-125v145z" />
    <glyph glyph-name="ordmasculine" unicode="&#xba;" horiz-adv-x="743" 
d="M547 848q0 116 -36 186t-142 70q-74 0 -115 -40t-52 -91q-12 -51 -12 -147t37 -166t141 -70t142 70q37 70 37 188zM643 848q0 -344 -273 -344t-274 344q0 344 274 344t273 -344z" />
    <glyph glyph-name="questiondown" unicode="&#xbf;" horiz-adv-x="681" 
d="M481 823v-143h-127v143h127zM481 526v-129q0 -110 -88 -212q-37 -42 -75 -83q-89 -96 -89 -194q1 -98 49 -144t133 -47q85 0 136 29t108 86l88 -78q-125 -164 -298 -164q-343 0 -343 326q0 123 91 229q37 43 74 84q93 100 91 203l-4 94h127z" />
    <glyph glyph-name="Agrave" unicode="&#xc0;" horiz-adv-x="1081" 
d="M588 1356h-107q-92 113 -219 282h164q121 -188 162 -282zM360 471h361l-180 592zM643 1190l367 -1233h-140l-116 397h-426l-117 -397h-139l366 1233h205z" />
    <glyph glyph-name="Aacute" unicode="&#xc1;" horiz-adv-x="1081" 
d="M829 1638q-113 -156 -217 -282h-108q37 82 162 282h163zM360 471h361l-180 592zM643 1190l367 -1233h-140l-116 397h-426l-117 -397h-139l366 1233h205z" />
    <glyph glyph-name="Acircumflex" unicode="&#xc2;" horiz-adv-x="1081" 
d="M375 1331h-142l224 307h168l223 -307h-141l-166 213zM360 471h361l-180 592zM870 -43l-116 397h-426l-117 -397h-139l366 1233h205l367 -1233h-140z" />
    <glyph glyph-name="Adieresis" unicode="&#xc4;" horiz-adv-x="1081" 
d="M766 1501v-145h-125v145h125zM440 1501v-145h-125v145h125zM360 471h361l-180 592zM643 1190l367 -1233h-140l-116 397h-426l-117 -397h-139l366 1233h205z" />
    <glyph glyph-name="Ccedilla" unicode="&#xc7;" horiz-adv-x="1058" 
d="M602 -61q-290 0 -391 191q-88 167 -88 443q0 363 136 509q119 128 352 127t343 -142l-82 -80q-66 55 -124 75t-148 21t-158 -29t-104 -74t-62 -133t-26 -227q0 -139 5 -202q13 -168 83 -251q87 -103 264 -101q88 0 146 20t124 72l84 -80q-117 -139 -354 -139zM442 -410
l113 240h104q-7 -18 -33 -106t-44 -134h-140z" />
    <glyph glyph-name="Egrave" unicode="&#xc8;" horiz-adv-x="1099" 
d="M590 1356h-109q-96 119 -217 282h164q125 -200 162 -282zM942 1065h-659v-410h598v-127h-598v-446h659v-125h-784v1235h784v-127z" />
    <glyph glyph-name="Eacute" unicode="&#xc9;" horiz-adv-x="1099" 
d="M807 1638q-121 -164 -217 -282h-109q31 72 162 282h164zM942 1065h-659v-412h598v-125h-598v-446h659v-125h-784v1233h784v-125z" />
    <glyph glyph-name="Ecircumflex" unicode="&#xca;" horiz-adv-x="1099" 
d="M362 1331h-141l223 307h166l224 -307h-142l-164 213zM942 1065h-659v-412h598v-125h-598v-446h659v-125h-784v1233h784v-125z" />
    <glyph glyph-name="Edieresis" unicode="&#xcb;" horiz-adv-x="1099" 
d="M788 1501v-145h-124v145h124zM463 1501v-145h-125v145h125zM942 1065h-659v-410h598v-127h-598v-446h659v-125h-784v1235h784v-127z" />
    <glyph glyph-name="Igrave" unicode="&#xcc;" horiz-adv-x="440" 
d="M266 1356h-106q-92 113 -219 282h163q131 -210 162 -282zM158 1190h125v-1233h-125v1233z" />
    <glyph glyph-name="Iacute" unicode="&#xcd;" horiz-adv-x="438" 
d="M498 1638q-86 -117 -217 -282h-109q37 82 162 282h164zM158 -43v1233h125v-1233h-125z" />
    <glyph glyph-name="Icircumflex" unicode="&#xce;" horiz-adv-x="612" 
d="M141 1331h-141l223 307h166l223 -307h-141l-164 213zM244 -43v1233h125v-1233h-125z" />
    <glyph glyph-name="Idieresis" unicode="&#xcf;" horiz-adv-x="450" 
d="M326 1501h125v-145h-125v145zM0 1356v145h125v-145h-125zM162 -43v1233h127v-1233h-127z" />
    <glyph glyph-name="Ntilde" unicode="&#xd1;" horiz-adv-x="1142" 
d="M690 1331q-50 0 -126 34t-125 34t-68 -47l-68 16q8 55 51 91q44 36 96 36t129 -33t111 -32q63 0 82 47l68 -17q-8 -55 -54 -92t-96 -37zM860 1190h125v-1233h-201l-501 1090v-1090h-125v1233h196l506 -1098v1098z" />
    <glyph glyph-name="Ograve" unicode="&#xd2;" horiz-adv-x="1183" 
d="M647 1356h-106q-92 113 -219 282h163q121 -188 162 -282zM589 63q240 0 308 186q37 97 37 308t-31 309q-63 215 -311 215t-312 -212q-26 -80 -28 -165t-2 -163t5 -140q13 -161 81 -241q34 -42 100 -69q66 -28 153 -28zM592 1208q469 0 469 -614q0 -111 -3 -174
q-3 -64 -27 -158t-70 -158q-123 -166 -369 -166t-369 166q-47 64 -71 158t-26 158q-3 64 -3 184q0 252 90 416q102 188 379 188z" />
    <glyph glyph-name="Oacute" unicode="&#xd3;" horiz-adv-x="1183" 
d="M874 1638q-127 -170 -219 -282h-106q41 94 162 282h163zM589 63q240 0 308 186q37 97 37 308t-31 309q-63 215 -311 215t-312 -212q-26 -80 -28 -165t-2 -163t5 -140q13 -161 81 -241q34 -42 100 -69q66 -28 153 -28zM592 1208q469 0 469 -614q0 -111 -3 -174
q-3 -64 -27 -158t-70 -158q-123 -166 -369 -166t-369 166q-47 64 -71 158t-26 158q-3 64 -3 184q0 252 90 416q102 188 379 188z" />
    <glyph glyph-name="Ocircumflex" unicode="&#xd4;" horiz-adv-x="1183" 
d="M589 63q240 0 308 186q37 97 37 308t-31 309q-63 215 -311 215t-312 -212q-26 -80 -28 -165t-2 -163t5 -140q13 -161 81 -241q34 -42 100 -69q66 -28 153 -28zM592 1208q469 0 469 -614q0 -111 -3 -174q-3 -64 -27 -158t-70 -158q-123 -166 -369 -166t-369 166
q-47 64 -71 158t-26 158q-3 64 -3 184q0 252 90 416q102 188 379 188zM426 1333h-141l225 305h166l223 -305h-141l-166 211z" />
    <glyph glyph-name="Odieresis" unicode="&#xd6;" horiz-adv-x="1183" 
d="M817 1501v-145h-125v145h125zM492 1501v-145h-125v145h125zM589 63q240 0 308 186q37 97 37 308t-31 309q-63 215 -311 215q-167 0 -238 -82q-36 -43 -58 -86t-34 -128t-12 -203q0 -119 5 -181q13 -161 81 -241q34 -42 100 -69q66 -28 153 -28zM592 1208q469 0 469 -614
q0 -111 -3 -174q-3 -64 -27 -158t-70 -158q-123 -166 -369 -166t-369 166q-45 62 -69 154t-27 157q-4 65 -4 170t11 191q25 196 130 314q106 118 328 118z" />
    <glyph glyph-name="Ugrave" unicode="&#xd9;" horiz-adv-x="1247" 
d="M682 1356h-109q-131 166 -217 282h164q125 -200 162 -282zM1090 1190v-707q-2 -247 -115 -397t-352 -149q-275 0 -377 185q-49 89 -69 190q-19 101 -19 235v643h125v-658q0 -205 58 -324q69 -145 283 -145t283 145q35 72 47 146t13 178v658h123z" />
    <glyph glyph-name="Uacute" unicode="&#xda;" horiz-adv-x="1247" 
d="M887 1638q-127 -170 -219 -282h-107q31 72 162 282h164zM1090 1190v-707q-2 -250 -116 -397t-353 -147q-314 0 -410 256q-53 140 -53 352v643h125v-658q0 -205 58 -324q69 -145 283 -145t283 145q35 72 47 146t13 178v658h123z" />
    <glyph glyph-name="Ucircumflex" unicode="&#xdb;" horiz-adv-x="1247" 
d="M1090 1190v-707q-2 -247 -115 -397t-352 -149q-275 0 -377 185q-49 89 -69 190q-19 101 -19 235v643h125v-658q0 -205 58 -324q69 -145 283 -145t283 145q35 72 47 146t13 178v658h123zM457 1331h-142l224 307h166l225 -307h-142l-165 213z" />
    <glyph glyph-name="Udieresis" unicode="&#xdc;" horiz-adv-x="1247" 
d="M850 1501v-145h-127v145h127zM524 1501v-145h-127v145h127zM1090 1190v-643q0 -444 -233 -562q-95 -48 -233 -48t-234 48q-232 117 -232 562v643h125v-658q0 -205 58 -324q69 -145 283 -145t283 145q35 72 47 146t13 178v658h123z" />
    <glyph glyph-name="agrave" unicode="&#xe0;" horiz-adv-x="937" 
d="M690 348h-233q-174 0 -210 -59q-19 -31 -20 -80q0 -154 230 -154q172 0 233 115v178zM451 836q365 0 364 -363v-516h-125v92q-90 -111 -274 -110q-135 0 -225 68q-89 69 -89 200q0 258 316 258h272v8q2 143 -64 197q-67 53 -206 53t-207 -53l-59 61q102 105 297 105z
M510 1018h-107q-92 113 -219 282h164q121 -188 162 -282z" />
    <glyph glyph-name="aacute" unicode="&#xe1;" horiz-adv-x="937" 
d="M690 348h-233q-174 0 -210 -59q-19 -31 -20 -80q0 -154 232 -154q170 0 231 115v178zM451 836q365 0 364 -363v-516h-125v92q-90 -111 -274 -110q-135 0 -225 68q-89 69 -89 200q0 258 316 258h272v12q2 141 -64 194q-67 52 -206 52t-207 -53l-59 61q102 105 297 105z
M756 1300q-121 -164 -217 -282h-109q37 82 162 282h164z" />
    <glyph glyph-name="acircumflex" unicode="&#xe2;" horiz-adv-x="937" 
d="M313 1004h-141l223 307h166l223 -307h-141l-164 213zM457 55q172 0 233 115v178h-233q-115 0 -172 -26t-58 -113q1 -154 230 -154zM815 -43h-125v92q-86 -111 -274 -110q-152 1 -233 77t-81 191q0 258 316 258h272v16q-2 137 -59 185t-185 57q-128 8 -210 -39l-23 -16
l-59 63q113 113 333 105q328 -14 328 -363v-516z" />
    <glyph glyph-name="adieresis" unicode="&#xe4;" horiz-adv-x="937" 
d="M690 348h-233q-174 0 -210 -59q-19 -31 -20 -80q0 -154 232 -154q170 0 231 115v178zM451 836q365 0 364 -363v-516h-125v92q-90 -111 -274 -110q-135 0 -225 68q-89 69 -89 200q0 258 316 258h272v8q2 143 -64 197q-67 53 -206 53t-207 -53l-59 61q102 105 297 105z
M715 1163v-145h-125v145h125zM389 1163v-145h-125v145h125z" />
    <glyph glyph-name="ccedilla" unicode="&#xe7;" horiz-adv-x="813" 
d="M285 -410l110 240h105q-63 -203 -78 -240h-137zM479 51q109 0 174 58l58 -64q-33 -51 -111 -79t-151 -27q-347 1 -347 449t347 448q73 0 151 -27t111 -78l-58 -63q-68 55 -174 55q-151 0 -201 -87t-50 -249t50 -249q51 -87 201 -87z" />
    <glyph glyph-name="egrave" unicode="&#xe8;" 
d="M460 723q-212 0 -229 -258h459q-18 258 -230 258zM492 49q150 0 215 60l57 -64q-35 -55 -115 -81t-160 -25q-215 -1 -301 113t-86 335q0 449 359 449q362 -1 358 -445l-2 -41h-590q3 -143 59 -222t206 -79zM512 1018h-109q-104 127 -217 282h164q125 -200 162 -282z" />
    <glyph glyph-name="eacute" unicode="&#xe9;" 
d="M460 723q-212 0 -229 -258h459q-18 258 -230 258zM492 49q150 0 215 60l57 -64q-35 -55 -115 -81t-160 -25q-215 -1 -301 113t-86 335q0 449 359 449q362 -1 358 -445l-2 -41h-590q3 -143 59 -222t206 -79zM741 1300q-127 -170 -219 -282h-106q31 72 162 282h163z" />
    <glyph glyph-name="ecircumflex" unicode="&#xea;" 
d="M460 723q-212 0 -229 -258h459q-18 258 -230 258zM492 49q150 0 215 60l57 -64q-35 -55 -115 -81t-160 -25q-215 -1 -301 113t-86 335q0 449 359 449q362 -1 358 -445l-2 -41h-590q3 -143 59 -222t206 -79zM295 1004h-141l223 307h166l223 -307h-141l-164 213z" />
    <glyph glyph-name="edieresis" unicode="&#xeb;" 
d="M460 723q-212 0 -229 -258h459q-18 258 -230 258zM492 49q150 0 215 60l57 -64q-35 -55 -115 -81t-160 -25q-215 -1 -301 113t-86 335q0 449 359 449q362 -1 358 -445l-2 -41h-590q3 -143 59 -222t206 -79zM698 1163v-145h-127v145h127zM373 1163v-145h-127v145h127z" />
    <glyph glyph-name="igrave" unicode="&#xec;" horiz-adv-x="423" 
d="M174 815h127v-858h-127v858zM285 1018h-107q-92 113 -219 282h164q131 -210 162 -282z" />
    <glyph glyph-name="iacute" unicode="&#xed;" horiz-adv-x="421" 
d="M123 -43v858h125v-858h-125zM463 1300q-127 -170 -219 -282h-107q41 94 162 282h164z" />
    <glyph glyph-name="icircumflex" unicode="&#xee;" horiz-adv-x="550" 
d="M338 815v-858h-125v858h125zM358 1311l224 -307h-142l-164 213l-165 -213h-142l224 307h165z" />
    <glyph glyph-name="idieresis" unicode="&#xef;" horiz-adv-x="389" 
d="M295 1165h125v-147h-125v147zM-31 1018v147h125v-147h-125zM131 -43v858h127v-858h-127z" />
    <glyph glyph-name="ntilde" unicode="&#xf1;" horiz-adv-x="960" 
d="M568 946q-52 0 -126 34t-125 34q-50 0 -69 -47l-68 16q8 53 52 90t96 37t129 -33q76 -33 110 -33q63 0 82 48l68 -17q-8 -55 -52 -92q-45 -37 -97 -37zM498 836q340 0 340 -383v-496h-125v397q0 178 -11 224q-35 139 -225 139q-69 0 -133 -33t-96 -90v-637h-125v858h125
v-94q32 55 104 85t146 30z" />
    <glyph glyph-name="ograve" unicode="&#xf2;" 
d="M582 79q110 63 110 307t-110 309q-49 28 -122 28q-195 0 -224 -212q-28 -185 15 -312q46 -145 210 -148q72 0 121 28zM461 836q358 0 358 -449t-358 -448t-358 449t358 448zM500 1018h-107q-92 113 -219 282h164q121 -188 162 -282z" />
    <glyph glyph-name="oacute" unicode="&#xf3;" 
d="M582 79q110 63 110 307t-110 309q-49 28 -122 28q-195 0 -224 -212q-28 -185 15 -312q46 -145 210 -148q72 0 121 28zM461 836q358 0 358 -449t-358 -448t-358 449t358 448zM741 1300q-127 -170 -219 -282h-106q31 72 162 282h163z" />
    <glyph glyph-name="ocircumflex" unicode="&#xf4;" 
d="M582 79q110 63 110 307t-110 309q-49 28 -122 28q-195 0 -224 -212q-28 -185 15 -312q46 -145 210 -148q72 0 121 28zM461 836q358 0 358 -449t-358 -448t-358 449t358 448zM295 1004h-141l223 307h166l223 -307h-139l-166 213z" />
    <glyph glyph-name="odieresis" unicode="&#xf6;" 
d="M686 1163v-145h-125v145h125zM360 1163v-145h-124v145h124zM582 79q110 63 110 307t-110 309q-49 28 -122 28q-195 0 -224 -212q-28 -185 15 -312q46 -145 210 -148q72 0 121 28zM461 836q358 0 358 -449t-358 -448t-358 449t358 448z" />
    <glyph glyph-name="ugrave" unicode="&#xf9;" horiz-adv-x="962" 
d="M715 815h125v-858h-125v96q-37 -53 -107 -84t-139 -30q-346 0 -346 448v428h125v-250q0 -20 -2 -88t0 -150t22 -126q20 -45 46 -81q48 -67 176 -68t225 120v643zM526 1018h-108q-96 119 -217 282h164q130 -210 161 -282z" />
    <glyph glyph-name="uacute" unicode="&#xfa;" horiz-adv-x="962" 
d="M715 815h125v-858h-125v96q-37 -53 -107 -84t-139 -30q-346 0 -346 448v428h125v-250q0 -20 -2 -88t0 -150t22 -126q20 -45 46 -81q48 -67 176 -68t225 120v643zM733 1300q-127 -170 -219 -282h-106q41 94 161 282h164z" />
    <glyph glyph-name="ucircumflex" unicode="&#xfb;" horiz-adv-x="962" 
d="M715 815h125v-858h-125v96q-37 -53 -107 -84t-139 -30q-346 0 -346 448v428h125v-250q0 -20 -2 -88t0 -150t22 -126q20 -45 46 -81q48 -67 176 -68t225 120v643zM315 1004h-141l223 307h166l223 -307h-139l-166 213z" />
    <glyph glyph-name="udieresis" unicode="&#xfc;" horiz-adv-x="962" 
d="M700 1163v-145h-125v145h125zM375 1163v-145h-125v145h125zM715 815h125v-858h-125v96q-37 -53 -107 -84t-139 -30q-346 0 -346 448v428h125v-250q0 -20 -2 -88t0 -150t22 -126q20 -45 46 -81q48 -67 176 -68t225 120v643z" />
    <glyph glyph-name="endash" unicode="&#x2013;" horiz-adv-x="935" 
d="M109 471h718v-115h-718v115z" />
    <glyph glyph-name="emdash" unicode="&#x2014;" horiz-adv-x="1636" 
d="M184 471h1268v-115h-1268v115z" />
    <glyph glyph-name="quoteleft" unicode="&#x2018;" horiz-adv-x="372" 
d="M88 932q0 236 143 317l56 -65q-74 -104 -74 -250q0 -74 20 -119h-133q-12 45 -12 117z" />
    <glyph glyph-name="quoteright" unicode="&#x2019;" horiz-adv-x="372" 
d="M162 1075q0 58 -23 115h133q14 -55 15 -117q0 -231 -146 -319l-53 67q74 104 74 254z" />
    <glyph glyph-name="quotedblleft" unicode="&#x201c;" horiz-adv-x="626" 
d="M326 948q0 82 34 170q35 88 109 131l55 -65q-74 -104 -73 -250q0 -66 20 -119h-131q-14 51 -14 133zM88 932q0 236 143 317l56 -65q-74 -104 -74 -250q0 -74 20 -119h-133q-12 45 -12 117z" />
    <glyph glyph-name="quotedblright" unicode="&#x201d;" horiz-adv-x="559" 
d="M231 1133q0 -233 -143 -318l-55 66q74 102 73 254q0 61 -20 114h133q12 -45 12 -116zM471 1133q0 -236 -143 -318l-56 66q74 104 74 249q0 66 -20 119h131q14 -51 14 -116z" />
    <glyph glyph-name="bullet" unicode="&#x2022;" horiz-adv-x="878" 
d="M715 551q0 -119 -84 -202t-202 -83t-202 83t-84 202t84 202t202 83t202 -83t84 -202z" />
    <glyph glyph-name="fraction" unicode="&#x2044;" horiz-adv-x="716" 
d="M0 -238l596 1594h121l-596 -1594h-121z" />
    </font>
</defs>
</svg>
