<?xml version="1.0" standalone="no"?>
<!DOCTYPE svg PUBLIC "-//W3C//DTD SVG 1.1//EN" "http://www.w3.org/Graphics/SVG/1.1/DTD/svg11.dtd" >
<svg xmlns="http://www.w3.org/2000/svg">
<metadata>
Created by FontPrep 20130207 at Thu Jun 19 23:03:36 2014
 By Diego Escares
La tipografa "Hospital" es una tipografa diseada a partir del estudio de sealtica, orientado a los hospitales. Es de uso libre y se permite su modificacin.
</metadata>
<defs>
<font id="1197ac9b3b6647b93b919fe63e957c13" horiz-adv-x='1024' >
  <font-face 
    font-family="Hospital-Black"
    font-weight="900"
    font-stretch="normal"
    units-per-em="2048"
    panose-1="0 0 0 0 0 0 0 0 0 0"
    ascent="1530"
    descent="-518"
    x-height="836"
    cap-height="1192"
    bbox="-106 -449 1739 1638"
    underline-thickness="0"
    underline-position="-204"
    unicode-range="U+0020-2044"
  />
<missing-glyph horiz-adv-x="368" 
 />
    <glyph glyph-name=".notdef" horiz-adv-x="368" 
 />
    <glyph glyph-name=".null" horiz-adv-x="0" 
 />
    <glyph glyph-name="nonmarkingreturn" horiz-adv-x="681" 
 />
    <glyph glyph-name="space" unicode=" " horiz-adv-x="368" 
 />
    <glyph glyph-name="exclam" unicode="!" horiz-adv-x="499" 
d="M387 170v-213h-235v213h235zM395 1190v-369q0 -147 -28 -553h-193q-31 381 -31 553v369h252z" />
    <glyph glyph-name="quotedbl" unicode="&#x22;" horiz-adv-x="880" 
d="M172 1090q0 86 -39 165h279q30 -88 16 -190q-35 -190 -211 -256l-108 111q63 84 63 170zM526 1090q0 90 -37 165h277q34 -96 16 -190q-31 -190 -209 -256l-110 111q63 80 63 170z" />
    <glyph glyph-name="numbersign" unicode="#" horiz-adv-x="1361" 
d="M799 643h-195l-31 -137h193zM1204 862v-219h-149l-33 -137h102v-219h-153l-78 -330h-256l78 330h-195l-78 -330h-256l78 330h-106v219h157l33 137h-108v219h161l78 328h256l-78 -328h193l80 328h256l-78 -328h96z" />
    <glyph glyph-name="dollar" unicode="$" horiz-adv-x="1208" 
d="M829 295q0 90 -88 123l-4 2v-236q92 21 92 111zM418 829q0 -65 82 -102v234q-82 -29 -82 -132zM1090 299q0 -160 -98 -245t-255 -107v-187h-237v189q-227 43 -381 231l178 150q98 -104 203 -137v288q-249 61 -314 200q-29 62 -28 146q0 158 94 253t248 120v156h237v-158
q207 -37 324 -176l-158 -162q-86 70 -166 96v-292q257 -62 323 -208q30 -67 30 -157z" />
    <glyph glyph-name="percent" unicode="%" horiz-adv-x="1378" 
d="M963 154q0 -94 19 -116t53 -22t43 12t19 22q15 16 15 97v82q0 69 -12 85t-22 27t-40 11q-56 0 -67 -44q-8 -32 -8 -85v-69zM416 893v72q0 92 -26 118t-74 14q-11 -3 -18 -11q-8 -8 -20 -24q-12 -15 -12 -53v-122q0 -29 3 -43l6 -28t9 -20t16 -18q9 -12 39 -12q55 0 66 37
t11 90zM1284 184q0 -98 -17 -165t-75 -113t-156 -47q-98 0 -155 47q-57 48 -75 114t-18 164t18 165q16 67 74 114t156 47t156 -47t74 -114q18 -67 18 -165zM872 1356h258l-626 -1596h-256zM588 933q0 -245 -121 -302q-51 -25 -137 -25t-144 47q-57 47 -74 114
q-18 67 -18 152t10 139t36 102t77 74t125 26q149 0 197 -93q49 -93 49 -234z" />
    <glyph glyph-name="ampersand" unicode="&#x26;" horiz-adv-x="1228" 
d="M338 303q0 -55 48 -93t129 -38t159 51l-213 248q-123 -84 -123 -168zM621 905q-1 72 -97 72t-96 -72q0 -23 27 -63t55 -70q111 67 111 133zM506 -61q-170 0 -295 102t-125 262q0 203 211 346q-123 129 -123 269t110 216q110 74 248 74t240 -83t102 -222q0 -178 -192 -307
l170 -201q43 45 88 211l221 -53q-22 -182 -149 -350l209 -246h-326l-70 86q-149 -104 -319 -104z" />
    <glyph glyph-name="quotesingle" unicode="'" horiz-adv-x="542" 
d="M451 1114q0 -211 -222 -305l-120 109q53 55 70 94t17 91t-49 152h277q27 -73 27 -141z" />
    <glyph glyph-name="parenleft" unicode="(" horiz-adv-x="835" 
d="M422 611q0 -683 244 -703v-170q-142 -8 -236 50t-159 210t-83 288t-18 269t18 269t83 288t159 209t236 49v-170q-72 -6 -123 -72t-76 -170q-45 -187 -45 -347z" />
    <glyph glyph-name="parenright" unicode=")" horiz-adv-x="835" 
d="M666 555q0 -93 -12 -195t-38 -219q-27 -117 -84 -213t-139 -147t-223 -43v170q72 6 123 72q117 151 121 575q0 208 -45 403q-25 104 -76 170t-123 72v170q141 8 227 -43q209 -131 257 -576q12 -102 12 -196z" />
    <glyph glyph-name="asterisk" unicode="*" horiz-adv-x="897" 
d="M340 1268h213v-209l192 80l84 -187l-213 -88l156 -198l-170 -121l-153 196l-156 -196l-170 121l158 198l-213 88l86 187l186 -78v207z" />
    <glyph glyph-name="plus" unicode="+" horiz-adv-x="1040" 
d="M922 565v-219h-293v-293h-217v293h-293v219h293v291h217v-291h293z" />
    <glyph glyph-name="comma" unicode="," horiz-adv-x="528" 
d="M170 193h260q-117 -348 -201 -527h-178q43 324 119 527z" />
    <glyph glyph-name="hyphen" unicode="-" horiz-adv-x="1212" 
d="M1008 565v-219h-803v219h803z" />
    <glyph glyph-name="period" unicode="." horiz-adv-x="454" 
d="M356 193v-236h-258v236h258z" />
    <glyph glyph-name="slash" unicode="/" horiz-adv-x="1138" 
d="M774 1356h256l-624 -1596h-256z" />
    <glyph glyph-name="zero" unicode="0" horiz-adv-x="1101" 
d="M551 172q164 0 168 190v424q-4 190 -168 191q-105 0 -136 -59t-34 -132v-424q4 -76 25 -116q39 -74 145 -74zM550 1208q103 0 183 -30t124 -72q116 -113 116 -293v-479q0 -180 -116 -293q-44 -43 -124 -73t-184 -30t-184 30t-123 73t-78 117t-35 176v479q0 180 116 293
q44 42 123 72t182 30z" />
    <glyph glyph-name="one" unicode="1" horiz-adv-x="794" 
d="M655 1192v-1235h-237v819l-123 -151l-186 129l321 438h225z" />
    <glyph glyph-name="two" unicode="2" horiz-adv-x="1103" 
d="M975 193v-236h-842v211l324 336q193 193 231 269q18 36 19 65q0 139 -197 139q-96 0 -211 -96l-170 131q158 196 368 196t337 -91t127 -283q0 -72 -39 -150t-77 -123t-102 -112l-247 -256h479z" />
    <glyph glyph-name="three" unicode="3" horiz-adv-x="1122" 
d="M993 312q0 -183 -126 -278t-324 -95q-141 0 -235 44t-179 160l168 138q59 -61 115 -86t133 -25q193 0 192 158q0 158 -159 157h-172v228h163q147 0 148 131q0 129 -166 129q-129 0 -236 -92l-170 131q95 116 187 156t219 40q176 0 299 -96t123 -252t-86 -256
q106 -109 106 -292z" />
    <glyph glyph-name="four" unicode="4" horiz-adv-x="1071" 
d="M612 528v269l-190 -269h190zM963 528v-233h-111v-338h-240v338h-503v197l503 700h240v-664h111z" />
    <glyph glyph-name="five" unicode="5" horiz-adv-x="1112" 
d="M983 350q0 -199 -105 -305t-319 -106q-152 0 -246 41t-184 165l168 138q72 -73 120 -93t141 -20t132 42t39 142t-38 140q-39 40 -151 41q-112 0 -212 -93l-168 103v645h755v-236h-501v-202q70 14 145 14q424 0 424 -416z" />
    <glyph glyph-name="six" unicode="6" horiz-adv-x="1101" 
d="M546 168q93 0 132 42t39 142t-34 142t-132 41t-134 -45t-36 -140t36 -139t129 -43zM973 344q0 -406 -438 -405q-170 0 -288 96t-118 260v518q0 187 115 291q116 104 278 104t255 -28t175 -101l-129 -157q-117 72 -220 72t-129 -17q-26 -15 -42 -25t-25 -30t-15 -32
q-10 -19 -11 -75v-76q62 23 139 23l27 2q426 0 426 -420z" />
    <glyph glyph-name="seven" unicode="7" horiz-adv-x="1064" 
d="M956 1190v-199l-577 -1034h-270l557 997h-555v236h845z" />
    <glyph glyph-name="eight" unicode="8" horiz-adv-x="1105" 
d="M721 319q0 170 -170 170t-170 -165q0 -154 160 -154q180 -1 180 149zM700 842q0 135 -150 135t-149 -133q0 -70 36 -100t114 -30t114 29q35 29 35 99zM977 315q0 -174 -122 -275t-306 -101t-302 101t-118 277t104 287q-88 96 -88 253t113 254t291 97t293 -96
q114 -96 114 -254t-86 -256q107 -113 107 -287z" />
    <glyph glyph-name="nine" unicode="9" horiz-adv-x="1101" 
d="M383 795q0 -99 34 -141t132 -42t134 44t36 140t-36 140q-36 43 -129 43t-132 -42t-39 -142zM129 803q0 407 436 407q170 0 289 -97t119 -261v-518q0 -188 -115 -292t-283 -103t-256 29t-169 100l129 159q104 -74 239 -73q57 0 126 23q22 7 37 30t22 33t12 42l5 40
q1 8 0 45t-1 41q-62 -23 -137 -23l-29 -2q-424 0 -424 420z" />
    <glyph glyph-name="colon" unicode=":" horiz-adv-x="454" 
d="M356 193v-236h-258v236h258zM356 729v-235h-258v235h258z" />
    <glyph glyph-name="semicolon" unicode=";" horiz-adv-x="528" 
d="M170 193h260q-117 -348 -201 -527h-178q43 324 119 527zM430 729v-235h-260v235h260z" />
    <glyph glyph-name="less" unicode="&#x3c;" horiz-adv-x="983" 
d="M854 303v-260l-715 297v225l715 299v-258l-401 -153z" />
    <glyph glyph-name="equal" unicode="=" horiz-adv-x="1202" 
d="M1001 365v-220h-800v220h800zM1001 645v-219h-800v219h800z" />
    <glyph glyph-name="greater" unicode="&#x3e;" horiz-adv-x="983" 
d="M844 565v-225l-715 -297v260l399 150l-399 153v258z" />
    <glyph glyph-name="question" unicode="?" horiz-adv-x="907" 
d="M584 168v-211h-238v211h238zM840 854q0 -158 -121 -281q-38 -42 -84 -81q-33 -37 -43 -68q-8 -49 -8 -74v-80h-238v133q0 145 121 261q27 20 47 47q72 76 72 133q0 113 -148 112q-66 0 -108 -26t-101 -101l-161 134q47 106 157 166q111 60 224 61q179 0 285 -89t106 -247
z" />
    <glyph glyph-name="at" unicode="@" horiz-adv-x="1712" 
d="M825 715q-92 -1 -129 -59t-37 -167q0 -227 166 -227q33 0 62 13t36 21t38 38v307q-74 74 -136 74zM1573 496q0 -306 -148 -392q-63 -37 -157 -36q-137 0 -205 69q-106 -80 -256 -80q-193 0 -280 121t-87 311q0 191 85 307t278 115q96 0 166 -43v27h209v-498
q0 -139 96 -139q46 0 72 33t24 103q-2 69 -2 73q0 301 -129 426t-374 125t-383 -144t-138 -380t126 -376t364 -141q121 0 266 56l84 -166q-176 -88 -371 -88q-322 1 -498 199t-176 529t194 522q195 191 529 191t522 -182q188 -184 189 -542z" />
    <glyph glyph-name="A" unicode="A" horiz-adv-x="1261" 
d="M522 524h219l-110 342zM786 1192l398 -1235h-266l-113 365h-346l-115 -365h-266l399 1235h309z" />
    <glyph glyph-name="B" unicode="B" horiz-adv-x="1249" 
d="M887 342q0 135 -199 135h-266v-287h260q106 0 156 32q49 32 49 120zM838 834q0 123 -193 122h-223v-251h221q195 0 195 129zM1141 328q0 -190 -127 -280t-328 -91h-522v1231h452q186 0 323 -77q71 -40 112 -113t41 -169q0 -139 -93 -221q68 -50 105 -124t37 -156z" />
    <glyph glyph-name="C" unicode="C" horiz-adv-x="1236" 
d="M684 -61q-320 0 -443 184q-112 168 -112 450q0 361 170 517q133 120 397 119t432 -187l-161 -154q-85 63 -143 85t-147 22t-151 -28q-106 -48 -128 -210q-9 -63 -9 -163t9 -164q9 -62 38 -122q56 -116 248 -116q82 0 138 23t145 86l161 -154q-170 -188 -444 -188z" />
    <glyph glyph-name="D" unicode="D" horiz-adv-x="1304" 
d="M915 506v102q0 154 -35 244q-45 108 -196 106h-262v-768h262q139 0 185 79t46 237zM1176 554q0 -110 -10 -190q-25 -193 -137 -300q-111 -107 -345 -107h-520v1235h520q131 0 224 -37q92 -37 144 -93t81 -148t36 -170q7 -80 7 -190z" />
    <glyph glyph-name="E" unicode="E" horiz-adv-x="1232" 
d="M1069 195v-238h-905v1235h905v-238h-647v-241h584v-238h-584v-280h647z" />
    <glyph glyph-name="F" unicode="F" horiz-adv-x="1208" 
d="M1069 1192v-238h-647v-241h506v-238h-506v-518h-258v1235h905z" />
    <glyph glyph-name="G" unicode="G" horiz-adv-x="1267" 
d="M677 975q-91 0 -153 -29q-107 -50 -127 -214q-8 -62 -8 -165q0 -201 57 -299t238 -98q106 0 162 33v215h-240v225h500v-530q-125 -174 -433 -174t-426 174t-118 454q0 469 279 592q111 49 260 49q148 0 256 -40t204 -146l-161 -154q-87 63 -143 85t-147 22z" />
    <glyph glyph-name="H" unicode="H" horiz-adv-x="1304" 
d="M1141 1192v-1235h-260v518h-459v-518h-258v1235h258v-487h459v487h260z" />
    <glyph glyph-name="I" unicode="I" horiz-adv-x="585" 
d="M422 1192v-1235h-258v1235h258z" />
    <glyph glyph-name="J" unicode="J" horiz-adv-x="1038" 
d="M874 1188v-842q0 -217 -93 -313t-318 -96q-106 1 -185 33t-174 116l154 158q106 -70 194 -70t122 36t38 109q2 16 2 97v772h260z" />
    <glyph glyph-name="K" unicode="K" horiz-adv-x="1241" 
d="M422 -43h-258v1235h258v-477l399 477h334l-483 -571l485 -664h-323l-338 471l-74 -86v-385z" />
    <glyph glyph-name="L" unicode="L" horiz-adv-x="999" 
d="M901 195v-238h-737v1235h258v-997h479z" />
    <glyph glyph-name="M" unicode="M" horiz-adv-x="1630" 
d="M1466 1192v-1235h-258v748l-272 -713h-244l-270 713v-748h-258v1235h325l324 -819l328 819h325z" />
    <glyph glyph-name="N" unicode="N" horiz-adv-x="1304" 
d="M1141 1192v-1235h-328l-391 745v-745h-258v1235h325l392 -748v748h260z" />
    <glyph glyph-name="O" unicode="O" horiz-adv-x="1349" 
d="M958 554q0 91 -3 142q-3 52 -19 110t-45 91q-67 76 -215 76q-149 0 -219 -75q-54 -59 -65 -201q-3 -50 -3 -141t7 -150q7 -58 35 -118q53 -114 243 -114q189 0 241 112q27 58 35 118t8 150zM1221 592q1 -100 -5 -167t-34 -157t-80 -153q-145 -176 -427 -176t-429 176
q-53 63 -81 154t-32 155t-4 168q0 614 546 614t546 -614z" />
    <glyph glyph-name="P" unicode="P" horiz-adv-x="1216" 
d="M834 797q0 90 -50 126t-155 35h-207v-307h213q199 1 199 146zM1087 813q0 -283 -239 -360q-140 -46 -426 -35v-461h-258v1235h469q199 0 327 -96t127 -283z" />
    <glyph glyph-name="Q" unicode="Q" horiz-adv-x="1343" 
d="M457 898q-54 -59 -65 -201q-3 -50 -3 -129q0 -243 63 -314q63 -72 195 -80l-94 150h299l43 -70q63 80 63 275t-19 265t-48 103q-67 76 -215 76q-149 0 -219 -75zM1221 592q1 -102 -5 -167t-34 -156t-70 -142q-43 -51 -86 -84l139 -223h-299l-80 127q-49 -8 -112 -8
q-281 0 -428 176q-53 63 -81 154t-32 155t-4 168q0 614 546 614t546 -614z" />
    <glyph glyph-name="R" unicode="R" horiz-adv-x="1259" 
d="M834 799q0 86 -52 122t-153 35h-207v-305h213q199 1 199 148zM422 420v-463h-258v1235h469q195 0 325 -94t129 -281q0 -252 -186 -344l264 -516h-270l-238 463h-235z" />
    <glyph glyph-name="S" unicode="S" horiz-adv-x="1208" 
d="M1090 295q0 -94 -40 -167q-70 -128 -257 -171q-80 -18 -172 -18q-303 0 -502 241l178 150q145 -154 313 -154t202 53q17 27 17 72q0 76 -88 117q-33 14 -104 33q-96 20 -175 37t-193 91q-113 74 -112 254q1 181 130 279t323 98q295 0 451 -188l-158 -162
q-150 117 -293 117q-96 0 -144 -33t-48 -108t88 -111q64 -24 136 -40q73 -15 120 -26q116 -27 212 -96q116 -85 116 -268z" />
    <glyph glyph-name="T" unicode="T" horiz-adv-x="1226" 
d="M1139 1192v-238h-398v-997h-258v997h-395v238h1051z" />
    <glyph glyph-name="U" unicode="U" horiz-adv-x="1413" 
d="M1249 1192v-698q0 -254 -138 -406t-404 -152t-405 151q-138 151 -138 407v698h258v-653q0 -185 57 -275t227 -90t228 90q57 90 57 275v653h258z" />
    <glyph glyph-name="V" unicode="V" horiz-adv-x="1271" 
d="M926 1192h268l-391 -1235h-336l-389 1235h266l293 -899z" />
    <glyph glyph-name="W" unicode="W" horiz-adv-x="1816" 
d="M1473 1192h266l-324 -1235h-336l-170 692l-172 -692h-336l-323 1235h266l225 -899l232 893h215l231 -893z" />
    <glyph glyph-name="X" unicode="X" horiz-adv-x="1337" 
d="M821 596l408 -639h-279l-278 436l-283 -436h-280l407 639l-379 596h287l248 -385l243 385h287z" />
    <glyph glyph-name="Y" unicode="Y" horiz-adv-x="1210" 
d="M733 -43h-258v588l-397 647h282l244 -404l250 404h279l-400 -647v-588z" />
    <glyph glyph-name="Z" unicode="Z" horiz-adv-x="1239" 
d="M1096 184v-227h-953v227l592 781h-583v227h929v-227l-592 -781h607z" />
    <glyph glyph-name="bracketleft" unicode="[" horiz-adv-x="862" 
d="M616 -39v-225h-446v1628h446v-223h-208v-1180h208z" />
    <glyph glyph-name="backslash" unicode="\" horiz-adv-x="1138" 
d="M365 1356l624 -1596h-256l-624 1596h256z" />
    <glyph glyph-name="bracketright" unicode="]" horiz-adv-x="862" 
d="M692 1364v-1628h-446v225h209v1180h-209v223h446z" />
    <glyph glyph-name="asciicircum" unicode="^" horiz-adv-x="1011" 
d="M602 1245l301 -532h-258l-139 266l-139 -266h-258l301 532h192z" />
    <glyph glyph-name="underscore" unicode="_" horiz-adv-x="1386" 
d="M1196 176v-219h-1006v219h1006z" />
    <glyph glyph-name="grave" unicode="`" horiz-adv-x="909" 
d="M586 997h-228q-55 57 -137 157t-112 146h303q103 -155 153 -264z" />
    <glyph glyph-name="a" unicode="a" 
d="M700 303h-184q-74 0 -94 -2t-42 -17t-22 -45q0 -60 63 -71q45 -8 105 -8q121 0 174 86v57zM961 473v-516h-261v49q-94 -68 -227 -67q-373 0 -373 297q0 219 236 272q58 15 360 10q-4 72 -59 98t-162 27q-107 0 -205 -70l-145 129q174 158 393 158t331 -91t112 -296z" />
    <glyph glyph-name="b" unicode="b" horiz-adv-x="1101" 
d="M553 158q111 0 145 60t35 185q0 124 -37 179q-38 55 -146 55t-163 -92v-293q55 -94 166 -94zM993 416q0 -477 -383 -477q-135 0 -223 71v-53h-258v1235h258v-404q84 72 223 72q197 0 290 -118t93 -326z" />
    <glyph glyph-name="c" unicode="c" horiz-adv-x="989" 
d="M109 398q0 210 100 336t323 126t349 -160l-136 -135q-95 76 -199 76t-140 -57q-36 -56 -37 -186q0 -130 37 -186t140 -56t199 82l136 -140q-117 -160 -345 -160t-327 126q-100 124 -100 334z" />
    <glyph glyph-name="d" unicode="d" horiz-adv-x="1101" 
d="M550 637q-108 0 -146 -55t-38 -179t35 -185q35 -60 146 -60t166 94v293q-55 92 -163 92zM492 -61q-383 -1 -383 455q0 228 93 346t290 118q135 0 221 -70v404h260v-1235h-260v53q-88 -72 -221 -71z" />
    <glyph glyph-name="e" unicode="e" 
d="M540 643q-78 -1 -116 -37q-37 -36 -53 -108h338q-15 74 -53 110t-116 35zM971 391v-86h-606q8 -72 59 -114t133 -41q135 0 238 86l139 -138q-125 -162 -368 -162q-242 0 -350 118t-108 338t104 344q103 124 327 124q432 0 432 -469z" />
    <glyph glyph-name="f" unicode="f" horiz-adv-x="882" 
d="M570 987q-50 -1 -66 -27t-17 -92v-30h267v-193h-267v-688h-258v688h-141v193h141v34q0 150 70 244t225 94q193 1 312 -163l-134 -134q-82 74 -132 74z" />
    <glyph glyph-name="g" unicode="g" horiz-adv-x="1099" 
d="M550 639q-108 0 -146 -58q-38 -57 -38 -181t38 -182t147 -58t162 92v295q-55 92 -163 92zM971 836v-768q0 -477 -463 -478q-244 0 -365 164l136 140q104 -88 227 -88t164 50q41 52 43 152q-86 -70 -201 -69q-221 1 -312 119t-91 331q0 350 197 433q83 36 173 36
q157 0 234 -72v50h258z" />
    <glyph glyph-name="h" unicode="h" horiz-adv-x="1118" 
d="M989 463v-506h-258v500q0 106 -33 143q-34 37 -144 37t-167 -68v-612h-258v1235h258v-401q90 70 227 69q375 0 375 -397z" />
    <glyph glyph-name="i" unicode="i" horiz-adv-x="516" 
d="M387 838v-881h-258v881h258zM387 1190v-238h-258v238h258z" />
    <glyph glyph-name="j" unicode="j" horiz-adv-x="567" 
d="M438 838v-865q0 -223 -77 -303t-220 -80t-247 107l112 153q124 -67 159 -10q15 27 15 82v916h258zM438 1188v-236h-258v236h258z" />
    <glyph glyph-name="k" unicode="k" horiz-adv-x="1042" 
d="M381 -43h-258v1233h258v-590l233 238h338l-336 -340l359 -541h-295l-244 367l-55 -56v-311z" />
    <glyph glyph-name="l" unicode="l" horiz-adv-x="516" 
d="M387 1192v-1235h-258v1235h258z" />
    <glyph glyph-name="m" unicode="m" horiz-adv-x="1724" 
d="M1595 463v-506h-260v532q0 148 -174 148q-113 0 -170 -68v-612h-260v504q0 98 -46 137q-45 39 -143 39t-155 -68v-612h-258v881h258v-47q90 70 227 69q201 0 297 -112q111 112 314 112t287 -100t83 -297z" />
    <glyph glyph-name="n" unicode="n" horiz-adv-x="1120" 
d="M991 463v-506h-260v500q0 98 -44 139q-43 41 -143 41t-157 -68v-612h-258v881h258v-47q90 70 227 69q207 0 292 -100t85 -297z" />
    <glyph glyph-name="o" unicode="o" 
d="M711 399q0 119 -35 181t-138 61q-104 0 -138 -60q-34 -61 -34 -181t34 -181t138 -61t138 61q35 61 35 180zM536 860q224 0 330 -124t105 -336t-105 -337t-327 -124q-430 0 -430 460q0 213 102 337q101 124 325 124z" />
    <glyph glyph-name="p" unicode="p" horiz-adv-x="1101" 
d="M733 395q0 125 -35 185q-34 60 -146 59q-112 0 -165 -94v-293q55 -92 163 -92t146 55q37 55 37 180zM993 383q0 -207 -93 -326t-290 -118q-137 0 -223 69v-418h-258v1248h258v-52q88 72 223 72q383 0 383 -475z" />
    <glyph glyph-name="q" unicode="q" horiz-adv-x="1101" 
d="M548 639q-112 0 -147 -59q-35 -58 -35 -184t38 -181q36 -55 145 -55t164 92v295q-53 92 -165 92zM492 -61q-383 -1 -383 459t383 460q133 0 221 -72v52h260v-1248h-260v418q-86 -70 -221 -69z" />
    <glyph glyph-name="r" unicode="r" horiz-adv-x="915" 
d="M551 645q-104 0 -164 -92v-596h-258v881h258v-41q80 63 174 63t147 -22t119 -74l-151 -162q-66 43 -125 43z" />
    <glyph glyph-name="s" unicode="s" horiz-adv-x="1011" 
d="M903 233q0 -147 -105 -221t-263 -73q-256 0 -426 184l139 133q135 -96 246 -96q78 0 114 13t37 51q0 38 -34 56q-11 5 -33 8q-142 18 -197 31q-240 49 -240 256q0 154 109 220t270 65q207 0 367 -139l-142 -137q-119 68 -219 68t-116 -27q-10 -14 -10 -42t28 -42
q29 -14 148 -28t182 -48q63 -33 87 -59q58 -64 58 -173z" />
    <glyph glyph-name="t" unicode="t" horiz-adv-x="862" 
d="M229 354v291h-141v193h141v206h258v-206h267v-193h-267v-379q-1 -55 15 -82q33 -58 160 11l112 -152q-102 -104 -247 -104t-206 66q-32 34 -52 69q-40 74 -40 280z" />
    <glyph glyph-name="u" unicode="u" horiz-adv-x="1120" 
d="M991 838v-881h-260v51q-90 -70 -227 -69q-375 0 -375 397v502h258v-496q0 -98 44 -139q43 -41 143 -41t157 67v609h260z" />
    <glyph glyph-name="v" unicode="v" horiz-adv-x="1034" 
d="M692 838h285l-330 -881h-262l-328 881h285l172 -519z" />
    <glyph glyph-name="w" unicode="w" horiz-adv-x="1538" 
d="M1200 838h281l-275 -881h-270l-166 498l-162 -498h-268l-283 881h283l139 -488l154 488h270l162 -488z" />
    <glyph glyph-name="x" unicode="x" horiz-adv-x="1071" 
d="M688 406l316 -449h-293l-181 254l-184 -254h-278l319 442l-309 439h299l170 -244l172 244h280z" />
    <glyph glyph-name="y" unicode="y" horiz-adv-x="1026" 
d="M696 836h283q-203 -537 -334 -867q-92 -246 -188 -321q-74 -58 -206 -58t-204 105l105 147q120 -78 180 25q23 41 43 119l-320 850h283l176 -506z" />
    <glyph glyph-name="z" unicode="z" horiz-adv-x="784" 
d="M768 174v-217h-752v178l404 479h-389v224h737v-181l-406 -483h406z" />
    <glyph glyph-name="braceleft" unicode="{" horiz-adv-x="716" 
d="M203 119v223q0 62 -22 76t-118 14v248q94 0 117 14t23 78v221q0 109 10 154q25 111 84 170t195 55l75 -2v-170q-73 -10 -97 -42t-21 -103l4 -256q4 -168 -60 -242q63 -78 60 -242l-4 -256q-2 -73 21 -105t97 -42v-170l-75 -2q-135 -2 -195 57q-59 59 -84 170
q-10 45 -10 152z" />
    <glyph glyph-name="bar" unicode="|" horiz-adv-x="495" 
d="M367 1356v-1596h-238v1596h238z" />
    <glyph glyph-name="braceright" unicode="}" horiz-adv-x="696" 
d="M653 680v-248q-95 0 -117 -13t-22 -77q2 0 1 -164t-11 -211q-25 -111 -84 -170t-195 -55l-75 2v168q74 10 98 43t20 104l-4 256q-4 164 60 242q-63 74 -60 242l4 256q2 71 -22 103t-96 42v170l75 2q135 4 195 -55t84 -170q10 -45 10 -154v-221q0 -64 22 -78t117 -14z" />
    <glyph glyph-name="asciitilde" unicode="~" horiz-adv-x="753" 
d="M514 903q-41 0 -122 28t-118 32q-43 0 -59 -41l-164 41q43 180 225 180q53 0 142 -33q88 -27 100 -27q40 0 60 43l163 -41q-47 -182 -227 -182z" />
    <glyph glyph-name="uni00A0" unicode="&#xa0;" horiz-adv-x="552" 
 />
    <glyph glyph-name="exclamdown" unicode="&#xa1;" horiz-adv-x="534" 
d="M416 -41v-369h-252v369q0 119 31 553h190q31 -381 31 -553zM408 823v-211h-236v211h236z" />
    <glyph glyph-name="dieresis" unicode="&#xa8;" horiz-adv-x="933" 
d="M377 1235v-236h-258v236h258zM786 1235v-236h-258v236h258z" />
    <glyph glyph-name="ordfeminine" unicode="&#xaa;" horiz-adv-x="849" 
d="M557 774h-160q-33 0 -48 -1t-33 -13t-19 -36q0 -24 10 -36q18 -22 114 -22q95 0 136 63v45zM752 901v-389h-195v37q-68 -51 -172 -51q-283 0 -283 225q0 168 179 205q38 13 272 8q-2 54 -43 72t-125 18t-154 -49l-110 98q131 115 298 115t250 -66t83 -223z" />
    <glyph glyph-name="logicalnot" unicode="&#xac;" horiz-adv-x="1216" 
d="M1047 571v-389h-220v172h-657v217h877z" />
    <glyph glyph-name="degree" unicode="&#xb0;" horiz-adv-x="851" 
d="M559 885q0 86 -27 124q-28 38 -106 38t-102 -38t-25 -123q0 -85 25 -123q24 -38 104 -38t106 37q25 37 25 123zM754 886q0 -327 -326 -327q-172 0 -249 84t-77 244q0 326 324 325q328 1 328 -326z" />
    <glyph glyph-name="acute" unicode="&#xb4;" horiz-adv-x="909" 
d="M446 1300h306q-143 -190 -250 -303h-230q65 135 174 303z" />
    <glyph glyph-name="periodcentered" unicode="&#xb7;" horiz-adv-x="485" 
d="M414 598v-236h-258v236h258z" />
    <glyph glyph-name="ordmasculine" unicode="&#xba;" horiz-adv-x="851" 
d="M428 664q78 0 104 46t27 135q0 89 -27 135q-26 46 -104 46t-104 -46t-25 -135q0 -89 26 -135q25 -46 103 -46zM754 846q0 -160 -78 -254t-248 -94q-326 0 -326 348q0 160 78 253t247 93t248 -93t79 -253z" />
    <glyph glyph-name="questiondown" unicode="&#xbf;" horiz-adv-x="825" 
d="M109 -73q0 159 120 280q14 16 43 44t61 60t34 121v78h235v-131q0 -152 -121 -262q-23 -20 -47 -47q-72 -76 -72 -133q0 -113 148 -113q66 0 108 26t101 101l162 -133q-47 -106 -158 -166t-223 -62q-180 0 -286 89q-105 89 -105 248zM602 823v-211h-235v211h235z" />
    <glyph glyph-name="Agrave" unicode="&#xc0;" horiz-adv-x="1263" 
d="M522 524h219l-110 342zM786 1190l400 -1233h-268l-113 365h-346l-115 -365h-266l399 1233h309zM745 1333h-227q-121 123 -250 303h303q106 -160 154 -264z" />
    <glyph glyph-name="Aacute" unicode="&#xc1;" horiz-adv-x="1263" 
d="M522 524h219l-110 342zM786 1190l400 -1233h-268l-113 365h-346l-115 -365h-266l399 1233h309zM692 1638h303q-29 -43 -111 -144t-136 -161h-230q65 137 174 305z" />
    <glyph glyph-name="Acircumflex" unicode="&#xc2;" horiz-adv-x="1261" 
d="M522 524h219l-110 342zM786 1192l398 -1235h-266l-113 365h-346l-115 -365h-266l399 1235h309zM754 1638l247 -307h-245l-123 158l-123 -158h-248l248 307h244z" />
    <glyph glyph-name="Adieresis" unicode="&#xc4;" horiz-adv-x="1263" 
d="M522 524h219l-110 342zM786 1190l400 -1233h-268l-113 365h-346l-115 -365h-266l399 1233h309zM555 1569v-238h-258v238h258zM965 1569v-238h-258v238h258z" />
    <glyph glyph-name="Ccedilla" unicode="&#xc7;" horiz-adv-x="1212" 
d="M565 -168h205q-29 -145 -90 -281h-258zM672 -61q-314 0 -429 173q-114 173 -114 456q0 282 122 447q121 165 405 165t448 -183l-158 -151q-84 61 -138 83q-54 21 -142 21t-148 -28q-103 -47 -126 -204q-9 -62 -9 -158t9 -160q9 -62 37 -120q55 -114 243 -114q80 0 135 22
t139 84l158 -149q-166 -184 -432 -184z" />
    <glyph glyph-name="Egrave" unicode="&#xc8;" horiz-adv-x="1232" 
d="M1069 195v-238h-905v1235h905v-238h-647v-241h584v-238h-584v-280h647zM713 1333h-228q-121 123 -249 303h303q103 -155 153 -264z" />
    <glyph glyph-name="Eacute" unicode="&#xc9;" horiz-adv-x="1232" 
d="M1069 195v-238h-905v1235h905v-238h-647v-241h584v-238h-584v-280h647zM662 1636h305q-125 -174 -250 -305h-230q66 135 175 305z" />
    <glyph glyph-name="Ecircumflex" unicode="&#xca;" horiz-adv-x="1232" 
d="M1069 195v-238h-905v1235h905v-238h-647v-241h584v-238h-584v-280h647zM731 1638l246 -305h-246l-123 156l-123 -156h-245l245 305h246z" />
    <glyph glyph-name="Edieresis" unicode="&#xcb;" horiz-adv-x="1232" 
d="M1069 195v-238h-905v1235h905v-238h-647v-241h584v-238h-584v-280h647zM541 1569v-236h-258v236h258zM950 1569v-236h-258v236h258z" />
    <glyph glyph-name="Igrave" unicode="&#xcc;" horiz-adv-x="608" 
d="M444 1192v-1235h-258v1235h258zM424 1335h-227q-121 123 -250 303h303q74 -112 156 -264z" />
    <glyph glyph-name="Iacute" unicode="&#xcd;" horiz-adv-x="608" 
d="M422 1192v-1235h-258v1235h258zM356 1638h306q-129 -180 -250 -303h-228q63 135 172 303z" />
    <glyph glyph-name="Icircumflex" unicode="&#xce;" horiz-adv-x="739" 
d="M498 1192v-1235h-258v1235h258zM492 1638l247 -305h-247l-123 156l-123 -156h-246l248 305h244z" />
    <glyph glyph-name="Idieresis" unicode="&#xcf;" horiz-adv-x="667" 
d="M463 1192v-1235h-258v1235h258zM258 1569v-238h-258v238h258zM668 1569v-238h-258v238h258z" />
    <glyph glyph-name="Ntilde" unicode="&#xd1;" horiz-adv-x="1304" 
d="M1141 1192v-1235h-328l-391 745v-745h-258v1235h325l392 -748v748h260zM770 1331q-41 0 -122 28t-118 32q-43 0 -59 -41l-164 41q39 180 225 180q53 0 142 -33q88 -27 100 -27q40 0 60 43l161 -41q-45 -182 -225 -182z" />
    <glyph glyph-name="Ograve" unicode="&#xd2;" horiz-adv-x="1349" 
d="M961 556q0 268 -70 343q-70 74 -216 74t-217 -76q-53 -58 -64 -201q-3 -51 -3 -169q0 -209 68 -280t190 -72q121 -1 181 26q106 47 124 205q7 60 7 150zM1221 592q1 -102 -5 -168t-32 -156t-80 -153q-150 -176 -430 -176t-426 176q-53 63 -81 153t-33 157t-5 167
q0 614 546 614t546 -614zM772 1333h-227q-123 129 -250 305h305q92 -140 154 -266z" />
    <glyph glyph-name="Oacute" unicode="&#xd3;" horiz-adv-x="1349" 
d="M958 554q0 91 -3 142q-3 52 -19 110t-45 91q-67 76 -215 76q-149 0 -219 -75q-54 -59 -65 -201q-3 -50 -3 -141t7 -150q7 -58 35 -118q53 -114 243 -114q189 0 241 112q27 58 35 118t8 150zM1221 592q1 -100 -5 -167t-34 -157t-80 -153q-145 -176 -427 -176t-429 176
q-53 63 -81 154t-32 155t-4 168q0 614 546 614t546 -614zM750 1638h303q-29 -43 -111 -144t-137 -161h-230q66 137 175 305z" />
    <glyph glyph-name="Ocircumflex" unicode="&#xd4;" horiz-adv-x="1349" 
d="M961 556q0 268 -70 343q-70 74 -216 74t-217 -76q-53 -58 -64 -201q-3 -51 -3 -169q0 -209 68 -280t190 -72q121 -1 181 26q102 47 123 205q8 60 8 150zM1221 592q1 -102 -5 -168t-32 -156t-80 -153q-150 -176 -430 -176t-426 176q-53 63 -81 153t-33 157t-5 167
q0 614 546 614t546 -614zM799 1638l245 -307h-245l-123 158l-123 -158h-246l246 307h246z" />
    <glyph glyph-name="Odieresis" unicode="&#xd6;" horiz-adv-x="1452" 
d="M1063 556q0 268 -70 343q-70 74 -216 74t-217 -76q-55 -60 -63 -201q-3 -51 -3 -132t4 -131q11 -132 71 -194q61 -63 182 -64t182 26q101 45 122 205q8 60 8 150zM1323 592q0 -102 -5 -168t-32 -156t-80 -153q-150 -176 -430 -176t-426 176q-53 63 -81 153t-32 157
q-5 67 -6 167q0 614 546 614t546 -614zM700 1569v-238h-258v238h258zM1110 1569v-238h-258v238h258z" />
    <glyph glyph-name="Ugrave" unicode="&#xd9;" horiz-adv-x="1413" 
d="M1249 1192v-698q0 -256 -139 -407t-404 -151t-404 152q-138 152 -138 406v698h258v-653q0 -185 57 -275t227 -90t228 90q57 90 57 275v653h258zM819 1333h-227q-123 129 -250 305h303q100 -151 156 -266z" />
    <glyph glyph-name="Uacute" unicode="&#xda;" horiz-adv-x="1413" 
d="M1249 1192v-698q0 -254 -138 -406t-404 -152t-405 151q-138 151 -138 407v698h258v-653q0 -185 57 -275t227 -90t228 90q57 90 57 275v653h258zM766 1638h305q-127 -176 -250 -305h-227q63 137 172 305z" />
    <glyph glyph-name="Ucircumflex" unicode="&#xdb;" horiz-adv-x="1413" 
d="M1249 1192v-698q0 -256 -139 -407t-404 -151t-404 152q-138 152 -138 406v698h258v-653q0 -185 57 -275t227 -90t228 90q57 90 57 275v653h258zM829 1638l248 -307h-248l-120 158l-125 -158h-246l248 307h243z" />
    <glyph glyph-name="Udieresis" unicode="&#xdc;" horiz-adv-x="1413" 
d="M1249 1192v-698q0 -256 -139 -407t-404 -151t-404 152q-138 152 -138 406v698h258v-653q0 -185 57 -275t227 -90t228 90q57 90 57 275v653h258zM631 1569v-238h-258v238h258zM1040 1569v-238h-258v238h258z" />
    <glyph glyph-name="agrave" unicode="&#xe0;" 
d="M700 303h-184q-74 0 -94 -2t-42 -17t-22 -45q0 -60 63 -71q45 -8 105 -8q121 0 174 86v57zM961 473v-516h-261v49q-94 -68 -227 -67q-373 0 -373 297q0 219 236 272q58 15 360 10q-4 72 -59 98t-162 27q-107 0 -205 -70l-145 132q174 155 393 155t331 -90t112 -297z
M643 1006h-229q-121 123 -250 303h305q94 -142 154 -265z" />
    <glyph glyph-name="aacute" unicode="&#xe1;" 
d="M700 303h-184q-74 0 -94 -2t-42 -17t-22 -45q0 -60 63 -71q45 -8 105 -8q121 0 174 86v57zM961 473v-516h-261v49q-94 -68 -227 -67q-373 0 -373 297q0 219 236 272q58 15 360 10q-4 72 -59 98t-162 27q-107 0 -205 -70l-145 129q174 158 393 158t331 -91t112 -296z
M608 1309h303q-129 -180 -249 -303h-228q63 135 174 303z" />
    <glyph glyph-name="acircumflex" unicode="&#xe2;" 
d="M700 303h-184q-74 0 -94 -2t-42 -17t-22 -45q0 -60 63 -71q45 -8 105 -8q121 0 174 86v57zM961 473v-516h-261v49q-94 -68 -227 -67q-373 0 -373 297q0 219 236 272q58 15 360 10q-4 72 -59 98t-162 27q-107 0 -205 -70l-145 132q174 155 393 155t331 -90t112 -297z
M664 1311l245 -307h-245l-123 157l-123 -157h-246l246 307h246z" />
    <glyph glyph-name="adieresis" unicode="&#xe4;" 
d="M700 303h-184q-74 0 -94 -2t-42 -17t-22 -45q0 -60 63 -71q45 -8 105 -8q121 0 174 86v57zM961 473v-516h-261v49q-94 -68 -227 -67q-373 0 -373 297q0 219 236 272q58 15 360 10q-4 72 -59 98t-162 27q-107 0 -205 -70l-145 129q174 158 393 158t331 -90t112 -297z
M477 1241v-237h-258v237h258zM887 1241v-237h-258v237h258z" />
    <glyph glyph-name="ccedilla" unicode="&#xe7;" horiz-adv-x="980" 
d="M389 -145h207q-27 -143 -90 -285h-260zM531 -66q-224 0 -323 125t-99 331t99 331t319 125t345 -158l-133 -133q-97 74 -199 74q-102 1 -138 -55t-36 -185t36 -184t140 -55t197 79l133 -135q-117 -160 -341 -160z" />
    <glyph glyph-name="egrave" unicode="&#xe8;" 
d="M540 643q-78 -1 -116 -37q-37 -36 -53 -108h338q-15 74 -53 110t-116 35zM971 391v-86h-606q8 -72 59 -114t133 -41q135 0 238 86l139 -138q-125 -162 -368 -162q-242 0 -350 118t-108 338t104 344q103 124 327 124q432 0 432 -469zM647 1006h-227q-121 123 -250 303h303
q94 -142 154 -265z" />
    <glyph glyph-name="eacute" unicode="&#xe9;" 
d="M540 643q-78 -1 -116 -37q-37 -36 -53 -108h338q-15 74 -53 110t-116 35zM971 391v-86h-606q8 -72 59 -114t133 -41q135 0 238 86l139 -138q-125 -162 -368 -162q-242 0 -350 118t-108 338t104 344q103 124 327 124q432 0 432 -469zM621 1309h303q-129 -180 -250 -303
h-228q64 135 175 303z" />
    <glyph glyph-name="ecircumflex" unicode="&#xea;" 
d="M540 643q-78 -1 -116 -37q-37 -36 -53 -108h338q-15 74 -53 110t-116 35zM971 391v-86h-606q8 -72 59 -114t133 -41q135 0 238 86l137 -138q-123 -162 -366 -162q-242 0 -350 118t-108 338t104 344q103 124 327 124q432 0 432 -469zM670 1311l248 -307h-246l-123 157
l-123 -157h-248l248 307h244z" />
    <glyph glyph-name="edieresis" unicode="&#xeb;" 
d="M540 643q-78 -1 -116 -37q-37 -36 -53 -108h338q-15 74 -53 110t-116 35zM971 391v-86h-606q8 -72 59 -114t133 -41q135 0 238 86l137 -138q-123 -162 -366 -162q-242 0 -350 118t-108 338t104 344q103 124 327 124q432 0 432 -469zM473 1241v-237h-258v237h258z
M883 1241v-237h-258v237h258z" />
    <glyph glyph-name="igrave" unicode="&#xec;" horiz-adv-x="591" 
d="M463 838v-881h-258v881h258zM442 1004h-227q-115 119 -250 305h303q98 -152 154 -267z" />
    <glyph glyph-name="iacute" unicode="&#xed;" horiz-adv-x="591" 
d="M387 838v-881h-258v881h258zM324 1309h303q-135 -186 -250 -305h-227q63 135 174 305z" />
    <glyph glyph-name="icircumflex" unicode="&#xee;" horiz-adv-x="698" 
d="M477 838v-881h-258v881h258zM471 1311l248 -307h-248l-123 157l-123 -157h-245l247 307h244z" />
    <glyph glyph-name="idieresis" unicode="&#xef;" horiz-adv-x="626" 
d="M442 838v-881h-258v881h258zM238 1241v-237h-258v237h258zM647 1241v-237h-258v237h258z" />
    <glyph glyph-name="ntilde" unicode="&#xf1;" horiz-adv-x="1120" 
d="M991 463v-506h-260v500q0 98 -44 139q-43 41 -143 41t-157 -68v-612h-258v881h258v-47q90 70 227 69q207 0 292 -100t85 -297zM711 946q-41 0 -122 28t-118 32q-43 0 -59 -41l-164 41q43 180 225 180q53 0 141 -33q88 -27 101 -27q39 0 59 43l164 -41q-47 -182 -227 -182
z" />
    <glyph glyph-name="ograve" unicode="&#xf2;" 
d="M711 399q0 119 -35 181t-138 61q-104 0 -138 -60q-34 -61 -34 -181t34 -181t138 -61t138 61q35 61 35 180zM536 860q224 0 330 -124t105 -336t-105 -337t-327 -124q-430 0 -430 460q0 213 102 337q101 124 325 124zM635 1006h-227q-121 123 -250 303h303
q101 -153 153 -265z" />
    <glyph glyph-name="oacute" unicode="&#xf3;" 
d="M711 399q0 119 -35 181t-138 61q-104 0 -138 -60q-34 -61 -34 -181t34 -181t138 -61t138 61q35 61 35 180zM536 860q224 0 330 -124t105 -336t-105 -337t-327 -124q-430 0 -430 460q0 213 102 337q101 124 325 124zM621 1309h303q-129 -180 -250 -303h-228
q64 135 175 303z" />
    <glyph glyph-name="ocircumflex" unicode="&#xf4;" 
d="M711 399q0 119 -35 181t-138 61q-104 0 -138 -60q-34 -61 -34 -181t34 -181t138 -61t138 61q35 61 35 180zM536 860q224 0 330 -124t105 -336t-105 -337t-327 -124q-430 0 -430 460q0 213 102 337q101 124 325 124zM662 1311l247 -307h-247l-123 157l-123 -157h-246
l248 307h244z" />
    <glyph glyph-name="odieresis" unicode="&#xf6;" 
d="M711 399q0 119 -35 181t-138 61q-104 0 -138 -60q-34 -61 -34 -181t34 -181t138 -61t138 61q35 61 35 180zM536 860q224 0 330 -124t105 -336t-105 -337t-327 -124q-430 0 -430 460q0 213 102 337q101 124 325 124zM469 1241v-237h-258v237h258zM879 1241v-237h-258v237
h258z" />
    <glyph glyph-name="oslash" unicode="&#xf8;" 
d="M725 1356h256l-213 -544q57 -29 97 -76q105 -124 105 -336t-104 -337t-327 -124q-59 0 -110 8l-73 -187h-256l115 294q-107 114 -107 336q1 466 423 470zM537 158q104 0 139 61t35 179t-34 180l-165 -419q12 -1 25 -1zM368 444l68 174q-60 -37 -68 -174z" />
    <glyph glyph-name="ugrave" unicode="&#xf9;" horiz-adv-x="1120" 
d="M991 838v-881h-260v51q-90 -70 -227 -69q-375 0 -375 397v502h258v-496q0 -98 44 -139q43 -41 143 -41t157 67v609h260zM668 1006h-228q-121 123 -250 303h306q101 -153 153 -265z" />
    <glyph glyph-name="uacute" unicode="&#xfa;" horiz-adv-x="1120" 
d="M991 838v-881h-260v51q-90 -70 -227 -69q-375 0 -375 397v502h258v-496q0 -98 44 -139q43 -41 143 -41t157 67v609h260zM623 1309h303q-129 -180 -250 -303h-227q63 135 174 303z" />
    <glyph glyph-name="ucircumflex" unicode="&#xfb;" horiz-adv-x="1118" 
d="M989 838v-881h-258v51q-90 -70 -227 -69q-375 0 -375 397v502h258v-496q0 -98 44 -139q43 -41 143 -41t157 67v609h258zM684 1313l248 -307h-248l-123 157l-123 -157h-245l247 307h244z" />
    <glyph glyph-name="udieresis" unicode="&#xfc;" horiz-adv-x="1120" 
d="M991 838v-881h-260v51q-90 -70 -227 -69q-375 0 -375 397v502h258v-496q0 -98 44 -139q43 -41 143 -41t157 67v609h260zM483 1243v-237h-258v237h258zM893 1243v-237h-258v237h258z" />
    <glyph glyph-name="endash" unicode="&#x2013;" horiz-adv-x="1212" 
d="M1008 565v-219h-803v219h803z" />
    <glyph glyph-name="emdash" unicode="&#x2014;" horiz-adv-x="1746" 
d="M1542 565v-219h-1337v219h1337z" />
    <glyph glyph-name="quoteleft" unicode="&#x2018;" horiz-adv-x="505" 
d="M305 1260l109 -113q-64 -80 -64 -168t39 -168h-276q-35 96 -17 190q31 193 209 259z" />
    <glyph glyph-name="quoteright" unicode="&#x2019;" horiz-adv-x="542" 
d="M451 1114q0 -211 -222 -305l-120 109q53 55 70 94t17 91t-49 152h277q27 -73 27 -141z" />
    <glyph glyph-name="quotedblleft" unicode="&#x201c;" horiz-adv-x="880" 
d="M352 979q0 -88 39 -168h-276q-35 96 -17 190q31 193 209 259l111 -113q-66 -80 -66 -168zM709 978q0 -91 36 -167h-276q-35 96 -16 190q31 193 209 259l110 -113q-63 -78 -63 -169z" />
    <glyph glyph-name="quotedblright" unicode="&#x201d;" horiz-adv-x="878" 
d="M172 1090q0 86 -39 165h279q30 -88 16 -190q-35 -190 -211 -256l-108 111q63 84 63 170zM526 1090q0 90 -37 165h277q34 -96 16 -190q-31 -190 -209 -256l-110 111q63 80 63 170z" />
    <glyph glyph-name="bullet" unicode="&#x2022;" horiz-adv-x="970" 
d="M150 566q0 132 93 226t225 95q132 -1 228 -95t95 -226t-95 -225t-227 -93t-226 93t-93 225z" />
    <glyph glyph-name="fraction" unicode="&#x2044;" horiz-adv-x="716" 
d="M606 1356h258l-647 -1596h-258z" />
    </font>
</defs>
</svg>
