<?xml version="1.0" standalone="no"?>
<!DOCTYPE svg PUBLIC "-//W3C//DTD SVG 1.1//EN" "http://www.w3.org/Graphics/SVG/1.1/DTD/svg11.dtd" >
<svg xmlns="http://www.w3.org/2000/svg">
<metadata>
Created by FontPrep 20130207 at Thu Jun 19 23:03:40 2014
 By Diego Escares
La tipografa "Hospital" es una tipografa diseada a partir del estudio de sealtica, orientado a los hospitales. Es de uso libre y puede modificarse.
</metadata>
<defs>
<font id="9f859332931faa5a0839fb3e49e833ac" horiz-adv-x='1024' >
  <font-face 
    font-family="Hospital-Medium"
    font-weight="500"
    font-stretch="normal"
    units-per-em="2048"
    panose-1="0 0 0 0 0 0 0 0 0 0"
    ascent="1530"
    descent="-518"
    x-height="815"
    cap-height="1190"
    bbox="-113 -410 1597 1638"
    underline-thickness="0"
    underline-position="-204"
    unicode-range="U+0020-2044"
  />
<missing-glyph horiz-adv-x="409" 
 />
    <glyph glyph-name=".notdef" horiz-adv-x="409" 
 />
    <glyph glyph-name=".null" horiz-adv-x="0" 
 />
    <glyph glyph-name="nonmarkingreturn" horiz-adv-x="681" 
 />
    <glyph glyph-name="space" unicode=" " horiz-adv-x="409" 
 />
    <glyph glyph-name="exclam" unicode="!" horiz-adv-x="475" 
d="M137 143h174v-186h-174v186zM133 1190h184v-346q0 -197 -28 -590h-127q-29 344 -29 590v346z" />
    <glyph glyph-name="quotedbl" unicode="&#x22;" horiz-adv-x="727" 
d="M199 1126q0 59 -33 129h186q20 -59 20 -143t-43 -168q-44 -84 -130 -129l-82 86q82 102 82 225zM659 1128q0 -221 -172 -313l-81 86q80 100 79 225q1 61 -30 129h186q18 -61 18 -127z" />
    <glyph glyph-name="numbersign" unicode="#" horiz-adv-x="1241" 
d="M780 657h-229l-41 -170h231zM1139 657h-178l-41 -170h139v-155h-174l-88 -375h-181l89 375h-230l-88 -375h-178l86 375h-143v155h180l39 170h-138v158h175l88 375h178l-86 -375h229l88 375h178l-86 -375h142v-158z" />
    <glyph glyph-name="dollar" unicode="$" horiz-adv-x="1097" 
d="M809 281q0 79 -41 117t-125 63v-355q166 16 166 175zM328 846q0 -70 34 -106q35 -35 107 -58v350q-141 -29 -141 -186zM643 -240h-174v179q-225 29 -356 211l120 104q109 -117 236 -141v393q-149 39 -233 118q-84 78 -84 224t85 241t232 117v148h174v-148
q207 -29 303 -155l-108 -117q-94 84 -195 100v-397q166 -41 254 -121t88 -236t-92 -244t-250 -102v-174z" />
    <glyph glyph-name="percent" unicode="%" horiz-adv-x="1208" 
d="M1026 223q0 137 -87 137t-87 -159v-56q0 -149 90 -149q53 0 69 33q15 33 15 92v102zM822 -118q-109 59 -109 292t106 298q47 28 119 28q147 0 192 -105q39 -86 39 -228t-47 -226t-180 -84q-72 0 -120 25zM1022 1356l-614 -1594h-175l617 1594h172zM231 995v-116
q-1 -57 17 -89t69 -32q84 0 84 127v106q0 131 -85 131t-85 -127zM126 1156q46 104 184 104t186 -86t49 -234q0 -238 -108 -296q-48 -26 -120 -26q-71 0 -119 26t-71 74q-39 81 -39 217q0 135 38 221z" />
    <glyph glyph-name="ampersand" unicode="&#x26;" horiz-adv-x="1105" 
d="M352 938q0 -46 41 -110t76 -91q156 86 156 191q0 55 -39 84q-38 28 -96 28t-98 -28t-40 -74zM262 289q0 -78 62 -129t141 -51q131 0 235 92l-266 319q-172 -106 -172 -231zM176 962q0 106 95 177q95 69 220 69t217 -76q91 -77 91 -204q0 -190 -215 -320l237 -282
q76 92 111 235l170 -41q-49 -195 -170 -330l194 -233h-225l-92 111q-154 -127 -344 -127q-153 0 -265 99t-112 249q0 207 236 362q-82 85 -115 145t-33 166z" />
    <glyph glyph-name="quotesingle" unicode="'" horiz-adv-x="405" 
d="M201 1133q0 55 -33 124h186q20 -68 21 -127q0 -223 -174 -315l-82 88q82 100 82 230z" />
    <glyph glyph-name="parenleft" unicode="(" horiz-adv-x="745" 
d="M164 546q0 612 252 779q72 49 129 49q12 0 37 -4v-123q-244 -92 -244 -690q0 -458 132 -617q48 -58 112 -63v-125q-18 -6 -39 -6q-63 0 -129 41q-250 147 -250 759z" />
    <glyph glyph-name="parenright" unicode=")" horiz-adv-x="745" 
d="M203 -254q-20 0 -39 6v125q144 11 207 283q37 162 37 397q0 598 -244 690v123q25 4 37 4q57 0 129 -49q252 -165 252 -777t-250 -761q-66 -41 -129 -41z" />
    <glyph glyph-name="asterisk" unicode="*" horiz-adv-x="884" 
d="M516 1251v-239q85 39 225 92l62 -129q-230 -94 -242 -98q32 -35 93 -113t79 -100l-121 -84q-20 26 -80 100t-92 115q-33 -51 -172 -215l-121 84q25 28 82 102t93 111l-240 98l59 129q164 -63 224 -90q-2 25 -3 73l3 164h151z" />
    <glyph glyph-name="plus" unicode="+" horiz-adv-x="1042" 
d="M905 535v-158h-305v-305h-158v305h-305v158h305v305h158v-305h305z" />
    <glyph glyph-name="comma" unicode="," horiz-adv-x="446" 
d="M178 -332h-127q49 279 103 461h190q-103 -311 -166 -461z" />
    <glyph glyph-name="hyphen" unicode="-" horiz-adv-x="1177" 
d="M973 356h-768v158h768v-158z" />
    <glyph glyph-name="period" unicode="." horiz-adv-x="378" 
d="M276 -43h-174v182h174v-182z" />
    <glyph glyph-name="slash" unicode="/" horiz-adv-x="1034" 
d="M932 1356l-615 -1594h-174l615 1594h174z" />
    <glyph glyph-name="zero" unicode="0" horiz-adv-x="1011" 
d="M650 987q-42 51 -131 51q-90 0 -147 -38q-27 -16 -59 -99q-14 -43 -14 -95v-374q0 -248 80 -299q43 -25 128 -25t126 25q78 51 78 297v281q1 172 -19 211t-42 65zM123 469v252q0 360 192 450q77 37 183 37q284 0 354 -231q37 -122 37 -309l-2 -207q0 -310 -95 -417
t-288 -107q-192 0 -284 104q-97 109 -97 428z" />
    <glyph glyph-name="one" unicode="1" horiz-adv-x="706" 
d="M573 -43h-174v948l-170 -223l-127 90l299 420h172v-1235z" />
    <glyph glyph-name="two" unicode="2" horiz-adv-x="1034" 
d="M911 -45h-766v168l316 346q10 12 55 59q151 157 187 247q17 42 18 77q0 184 -238 184q-57 0 -124 -24t-109 -64l-127 101q59 73 157 115t199 42q184 0 301 -90t117 -268q0 -70 -37 -147t-73 -123t-99 -115l-307 -338h530v-170z" />
    <glyph glyph-name="three" unicode="3" horiz-adv-x="1038" 
d="M502 -66q-236 0 -379 177l127 100q115 -104 250 -105q238 0 237 197q0 116 -60 165q-60 50 -274 50v168h71q136 0 171 28q12 9 31 24t30 53q11 39 11 67q-1 90 -57 134t-150 44q-143 0 -240 -88l-127 101q131 160 367 159q166 0 276 -92t109 -256q0 -164 -104 -256
q125 -102 125 -294t-114 -284q-112 -92 -300 -92z" />
    <glyph glyph-name="four" unicode="4" horiz-adv-x="1011" 
d="M621 461v432l-302 -432h302zM909 293h-114v-336h-174v336h-519v158l514 739h179v-729h114v-168z" />
    <glyph glyph-name="five" unicode="5" horiz-adv-x="1034" 
d="M526 -63q-133 1 -225 37t-178 130l121 103q84 -59 135 -79t150 -22q99 0 153 62t53 170q0 233 -219 233q-139 0 -227 -86l-125 80v625h680v-172h-504v-305q80 29 186 28q193 0 289 -105q96 -106 96 -296t-99 -297q-100 -106 -286 -106z" />
    <glyph glyph-name="six" unicode="6" horiz-adv-x="1013" 
d="M509 573q-120 0 -165 -60t-45 -177t47 -172t160 -55t161 53t48 175t-43 179t-163 57zM494 -63q-160 0 -266 92q-105 92 -105 250v567q0 176 120 269t293 93t320 -108l-98 -125q-113 63 -211 63q-248 0 -248 -200v-140q88 43 207 43q385 0 385 -411q0 -393 -397 -393z" />
    <glyph glyph-name="seven" unicode="7" horiz-adv-x="991" 
d="M123 1022v170h766v-162l-590 -1073h-197l584 1065h-563z" />
    <glyph glyph-name="eight" unicode="8" horiz-adv-x="1017" 
d="M508 522q-209 0 -209 -215q0 -96 51 -148t150 -53q219 0 219 195q0 106 -53 164q-54 57 -158 57zM516 1038q-197 0 -197 -178q-1 -178 189 -178t190 174q0 88 -47 135t-135 47zM508 -63q-172 0 -279 98q-106 99 -106 281t121 288q-102 90 -102 253t100 257t265 94
t267 -92t102 -255t-104 -259q123 -109 123 -289q1 -180 -107 -278t-280 -98z" />
    <glyph glyph-name="nine" unicode="9" horiz-adv-x="1013" 
d="M509 1038q-112 0 -161 -54t-49 -176t44 -178t164 -56t164 60t44 177t-47 172t-159 55zM891 299q-1 -188 -113 -275t-290 -87t-330 108l98 125q113 -63 215 -64q244 0 244 201v139q-88 -43 -205 -43q-387 0 -387 412q0 393 399 393q158 0 263 -92t106 -248v-569z" />
    <glyph glyph-name="colon" unicode=":" horiz-adv-x="378" 
d="M102 -43v182h174v-182h-174zM102 815h174v-182h-174v182z" />
    <glyph glyph-name="semicolon" unicode=";" horiz-adv-x="446" 
d="M162 815h174v-182h-174v182zM154 129h190q-102 -311 -166 -461h-127q50 279 103 461z" />
    <glyph glyph-name="less" unicode="&#x3c;" horiz-adv-x="937" 
d="M815 629l-498 -197l498 -196v-181l-692 289v176l692 289v-180z" />
    <glyph glyph-name="equal" unicode="=" horiz-adv-x="1116" 
d="M942 195h-768v157h768v-157zM942 434h-768v160h768v-160z" />
    <glyph glyph-name="greater" unicode="&#x3e;" horiz-adv-x="937" 
d="M621 432l-498 197v180l692 -289v-176l-692 -289v181z" />
    <glyph glyph-name="question" unicode="?" horiz-adv-x="860" 
d="M330 143h174v-186h-174v186zM403 1194q167 0 261 -86t94 -252q0 -82 -34 -148t-77 -105q-120 -106 -137 -181q-8 -31 -8 -166h-172v137q0 115 89 211q38 41 75 80q88 93 88 179q0 87 -41 123t-120 36t-129 -30t-112 -89l-119 105q49 86 145 136t197 50z" />
    <glyph glyph-name="at" unicode="@" horiz-adv-x="1624" 
d="M600 488q0 -123 38 -193t146 -70t187 88v359q-80 88 -190 88t-146 -74q-35 -75 -35 -198zM438 492q0 184 80 300t256 115q115 0 197 -63v45h164q-5 -332 -5 -495t98 -163t118 100q14 70 14 165q0 258 -143 406t-391 148t-406 -161q-158 -162 -158 -405q0 -244 154 -408
t399 -164q117 0 232 51l53 -110q-152 -76 -314 -76q-301 0 -492 208q-192 208 -192 509q0 302 206 508t520 206t504 -194q189 -194 190 -525q0 -414 -293 -413q-137 0 -213 106q-39 -47 -108 -76t-134 -28q-176 0 -256 115t-80 299z" />
    <glyph glyph-name="A" unicode="A" horiz-adv-x="1169" 
d="M731 498l-147 465l-146 -465h293zM1087 -43h-192l-117 383h-389l-117 -383h-190l381 1233h242z" />
    <glyph glyph-name="B" unicode="B" horiz-adv-x="1146" 
d="M633 514h-301v-389h295q119 0 179 45t60 158q0 186 -233 186zM590 1024h-258v-352h254q231 0 231 180q0 90 -66 131q-67 41 -161 41zM1034 313q0 -180 -110 -268t-293 -88h-473v1233h401q184 0 305 -83t121 -252t-121 -247q80 -39 125 -121t45 -174z" />
    <glyph glyph-name="C" unicode="C" horiz-adv-x="1136" 
d="M625 1208q258 0 387 -161l-115 -107q-66 55 -126 78q-60 22 -145 22q-165 -1 -246 -96t-81 -374t81 -371t247 -90q88 0 146 20t126 76l115 -107q-135 -160 -389 -159q-291 0 -405 186q-97 162 -97 446t98 451q110 186 404 186z" />
    <glyph glyph-name="D" unicode="D" horiz-adv-x="1189" 
d="M895 455q0 49 1 105t0 82l-3 78q-2 52 -10 80q-7 28 -19 70t-32 64q-58 65 -106 78q-48 12 -97 12h-297v-899h297q170 0 222 111q44 93 44 219zM1067 575q0 -113 -7 -191t-33 -166q-26 -87 -71 -139t-128 -87t-199 -35h-471v1233h471q221 0 326 -121q46 -53 72 -138
t33 -164t7 -192z" />
    <glyph glyph-name="E" unicode="E" 
d="M991 -43h-833v1233h833v-168h-659v-348h598v-168h-598v-381h659v-168z" />
    <glyph glyph-name="F" unicode="F" horiz-adv-x="1128" 
d="M991 1022h-659v-348h518v-168h-518v-549h-174v1233h833v-168z" />
    <glyph glyph-name="G" unicode="G" horiz-adv-x="1155" 
d="M380 946q-81 -93 -81 -375t81 -373t230 -90q150 1 215 50v291h-254v159h428v-514q-106 -156 -385 -156t-386 176q-107 175 -106 454t96 449q107 191 403 191q256 1 391 -161l-113 -107q-74 55 -131 78q-57 22 -143 22q-87 0 -149 -28t-96 -66z" />
    <glyph glyph-name="H" unicode="H" horiz-adv-x="1193" 
d="M1036 -43h-176v555h-526v-555h-176v1233h176v-518h526v518h176v-1233z" />
    <glyph glyph-name="I" unicode="I" horiz-adv-x="501" 
d="M338 -43h-174v1233h174v-1233z" />
    <glyph glyph-name="J" unicode="J" horiz-adv-x="925" 
d="M768 1190v-840q0 -412 -360 -411q-168 0 -302 114l109 117q96 -64 171 -64q119 -1 167 53q34 36 38 136q1 27 1 88v807h176z" />
    <glyph glyph-name="K" unicode="K" horiz-adv-x="1138" 
d="M334 -43h-174v1233h174v-563l467 563h227l-459 -549l492 -684h-227l-381 543l-119 -140v-403z" />
    <glyph glyph-name="L" unicode="L" horiz-adv-x="888" 
d="M801 -43h-643v1233h174v-1065h469v-168z" />
    <glyph glyph-name="M" unicode="M" horiz-adv-x="1511" 
d="M1354 -43h-174v917l-342 -872h-168l-338 872v-917h-174v1233h237l359 -924l358 924h242v-1233z" />
    <glyph glyph-name="N" unicode="N" horiz-adv-x="1191" 
d="M1034 -43h-241l-461 965v-965h-174v1233h237l465 -971v971h174v-1233z" />
    <glyph glyph-name="O" unicode="O" horiz-adv-x="1232" 
d="M374 944q-77 -94 -77 -378q0 -285 80 -372q80 -88 239 -88q242 0 292 196q26 102 26 264q0 287 -77 380q-77 92 -241 92t-242 -94zM615 -63q-257 0 -388 169q-49 62 -73 156t-28 156q-3 62 -3 174q-1 616 493 616t494 -616q0 -111 -3 -173q-3 -61 -29 -155t-74 -158
q-132 -169 -389 -169z" />
    <glyph glyph-name="P" unicode="P" horiz-adv-x="1093" 
d="M573 1024h-239v-408h246q104 0 170 48t65 147q0 213 -242 213zM334 449v-492h-176v1233h422q184 0 292 -92t109 -273q0 -220 -119 -299t-289 -78q-169 1 -239 1z" />
    <glyph glyph-name="Q" unicode="Q" horiz-adv-x="1232" 
d="M610 1038q-82 0 -143 -28t-94 -69q-57 -69 -72 -234q-4 -55 -4 -143q0 -287 80 -374q80 -88 239 -88q47 0 86 9l-118 190h204l66 -108q39 45 58 113t22 113q2 44 2 124q0 262 -43 342q-55 106 -145 135q-56 18 -138 18zM616 -66q-260 0 -389 168q-49 62 -73 156t-28 156
q-3 62 -3 176q-1 618 493 618t494 -618q0 -313 -71 -434q-36 -64 -93 -111l141 -225h-202l-88 141q-82 -27 -181 -27z" />
    <glyph glyph-name="R" unicode="R" horiz-adv-x="1138" 
d="M573 1024h-239v-403h246q104 0 170 49q66 48 66 156t-62 153t-181 45zM334 453v-496h-176v1233h422q184 0 292 -88t109 -268q0 -266 -193 -345l263 -532h-193l-246 496h-278z" />
    <glyph glyph-name="S" unicode="S" horiz-adv-x="1097" 
d="M809 276q0 98 -68 143q-67 46 -163 66q-96 21 -194 49t-165 104q-68 76 -67 206q0 176 111 270q112 94 292 94q115 0 223 -40t168 -119l-108 -117q-121 109 -283 108q-227 0 -227 -194q0 -70 49 -113t122 -59q174 -38 315 -96q73 -31 122 -106t49 -189q0 -178 -117 -261
q-118 -83 -278 -83q-320 0 -477 215l120 104q143 -150 326 -149q119 1 185 35t65 132z" />
    <glyph glyph-name="T" unicode="T" horiz-adv-x="1146" 
d="M1065 1028h-406v-1071h-174v1071h-403v162h983v-162z" />
    <glyph glyph-name="U" unicode="U" horiz-adv-x="1298" 
d="M1141 1190v-703q0 -251 -124 -401t-370 -150q-245 0 -367 150t-122 401v703h174v-655q0 -251 81 -341t233 -90t234 84q63 69 78 211q6 57 7 136v655h176z" />
    <glyph glyph-name="V" unicode="V" 
d="M1077 1190l-383 -1233h-241l-381 1233h192l309 -995l312 995h192z" />
    <glyph glyph-name="W" unicode="W" horiz-adv-x="1669" 
d="M1597 1190l-303 -1233h-241l-219 883l-218 -883h-241l-303 1233h180l244 -977l245 973h185l248 -973l245 977h178z" />
    <glyph glyph-name="X" unicode="X" horiz-adv-x="1146" 
d="M1075 -43h-201l-301 479l-303 -479h-198l401 639l-375 594h205l270 -432l269 432h205l-373 -594z" />
    <glyph glyph-name="Y" unicode="Y" horiz-adv-x="1091" 
d="M633 -43h-176v598l-385 635h204l269 -457l270 457h205l-387 -635v-598z" />
    <glyph glyph-name="Z" unicode="Z" 
d="M1012 -43h-875v158l660 919h-633v158h848v-156l-654 -921h654v-158z" />
    <glyph glyph-name="bracketleft" unicode="[" horiz-adv-x="829" 
d="M563 -256h-399v1626h399v-153h-225v-1315h225v-158z" />
    <glyph glyph-name="backslash" unicode="\" horiz-adv-x="1034" 
d="M891 -238h-174l-615 1594h172z" />
    <glyph glyph-name="bracketright" unicode="]" horiz-adv-x="829" 
d="M666 -256h-400v158h226v1315h-226v153h400v-1626z" />
    <glyph glyph-name="asciicircum" unicode="^" horiz-adv-x="905" 
d="M803 729h-189l-159 305l-164 -305h-189l256 477h193z" />
    <glyph glyph-name="underscore" unicode="_" horiz-adv-x="1357" 
d="M1174 -43h-990v158h990v-158z" />
    <glyph glyph-name="grave" unicode="`" horiz-adv-x="909" 
d="M557 1006h-166q-59 74 -237 297h229q121 -182 174 -297z" />
    <glyph glyph-name="a" unicode="a" horiz-adv-x="976" 
d="M690 328h-241q-49 0 -81 -5t-62 -31t-30 -73q0 -123 205 -123q63 0 121 28t88 77v127zM864 -43h-174v90q-90 -109 -242 -109t-248 72q-97 72 -98 207q0 167 122 220t256 50q133 -4 208 -4q0 121 -62 160t-186 39t-207 -59l-90 90q125 123 332 123q389 0 389 -367v-512z
" />
    <glyph glyph-name="b" unicode="b" horiz-adv-x="1001" 
d="M507 92q130 0 174 77t44 218t-44 218t-171 77t-203 -109v-372q70 -109 200 -109zM307 -43h-174v1235h174v-471q80 117 232 117q360 0 360 -450t-360 -449q-146 -1 -232 114v-96z" />
    <glyph glyph-name="c" unicode="c" horiz-adv-x="868" 
d="M102 387q0 203 88 326t283 123q88 0 170 -31t123 -94l-86 -93q-76 64 -194 64t-164 -75t-46 -220t46 -220t182 -75q100 0 176 64l86 -93q-41 -63 -123 -94t-170 -30q-195 1 -283 123t-88 325z" />
    <glyph glyph-name="d" unicode="d" horiz-adv-x="1001" 
d="M492 682q-127 0 -171 -77q-45 -77 -45 -218t44 -218t175 -77q130 0 199 109v372q-75 109 -202 109zM463 -61q-361 -1 -361 449t361 450q152 0 231 -117v471h174v-1235h-174v96q-81 -114 -231 -114z" />
    <glyph glyph-name="e" unicode="e" horiz-adv-x="968" 
d="M486 678q-180 0 -203 -197h403q-20 197 -200 197zM866 326h-587q6 -240 223 -240q152 0 231 68l86 -93q-86 -129 -305 -129t-315 114t-97 339q0 449 383 449q236 0 316 -153q39 -75 52 -157t13 -198z" />
    <glyph glyph-name="f" unicode="f" horiz-adv-x="778" 
d="M670 829v-155h-260v-717h-174v717h-140v155h140v78q-4 135 56 218t193 83q166 0 252 -127l-90 -90q-63 63 -143 64q-96 0 -96 -142l2 -84h260z" />
    <glyph glyph-name="g" unicode="g" horiz-adv-x="1001" 
d="M488 682q-128 0 -174 -90q-22 -44 -30 -91q-8 -49 -8 -153t44 -181t175 -77q130 0 199 109v374q-78 109 -206 109zM868 10q0 -420 -420 -420q-212 0 -298 129l86 93q86 -70 232 -70t189 89q37 74 37 222q-84 -117 -231 -116q-361 1 -361 451t361 450q150 0 231 -117v94
h174v-805z" />
    <glyph glyph-name="h" unicode="h" horiz-adv-x="1030" 
d="M897 -43h-174l2 485q0 130 -43 182t-170 52q-58 0 -116 -28t-89 -75v-616h-174v1233h174v-469q37 51 99 83t124 32q367 0 367 -387v-492z" />
    <glyph glyph-name="i" unicode="i" horiz-adv-x="440" 
d="M307 -43h-174v858h174v-858zM307 1004h-174v186h174v-186z" />
    <glyph glyph-name="j" unicode="j" horiz-adv-x="458" 
d="M326 1004h-174v186h174v-186zM326 815v-860q0 -212 -65 -288q-65 -77 -184 -77q-120 0 -190 72l72 102q85 -43 143 -14q20 10 32 25q18 21 18 123v917h174z" />
    <glyph glyph-name="k" unicode="k" horiz-adv-x="929" 
d="M307 -43h-174v1233h174v-703l326 342h223l-330 -344l342 -528h-196l-264 408l-101 -105v-303z" />
    <glyph glyph-name="l" unicode="l" horiz-adv-x="440" 
d="M307 -43h-174v1233h174v-1233z" />
    <glyph glyph-name="m" unicode="m" horiz-adv-x="1628" 
d="M1495 -43h-174v492q0 125 -44 176t-177 51t-193 -98v-621h-174v492q0 125 -44 176t-174 51t-208 -101v-618h-174v858h174v-94q88 115 242 115q88 0 171 -35t120 -103q51 58 133 98t155 40q367 0 367 -390v-489z" />
    <glyph glyph-name="n" unicode="n" horiz-adv-x="1030" 
d="M897 -43h-174l2 485q0 130 -43 182t-170 52q-58 0 -116 -28t-89 -75v-616h-174v858h174v-94q37 51 99 83t124 32q367 0 367 -387v-492z" />
    <glyph glyph-name="o" unicode="o" horiz-adv-x="970" 
d="M485 92q123 0 165 79t42 215t-42 216t-169 80t-166 -85t-39 -179t8 -142q19 -123 92 -160q44 -24 109 -24zM102 386q0 450 383 450t383 -450t-383 -449q-383 -1 -383 449z" />
    <glyph glyph-name="p" unicode="p" horiz-adv-x="1001" 
d="M511 92q126 0 170 77t44 219t-44 219t-172 77t-202 -109v-374q78 -109 204 -109zM539 838q360 0 360 -451t-360 -450q-150 0 -232 116v-463h-174v1225h174v-94q39 53 103 85t129 32z" />
    <glyph glyph-name="q" unicode="q" horiz-adv-x="1001" 
d="M490 92q126 0 204 109v374q-70 109 -203 109t-177 -89q-36 -73 -37 -211t43 -215t170 -77zM694 815h174v-1225h-174v463q-82 -117 -231 -116q-361 1 -361 451t361 450q147 0 231 -117v94z" />
    <glyph glyph-name="r" unicode="r" horiz-adv-x="839" 
d="M502 684q-121 0 -195 -104v-623h-174v858h174v-96q29 53 83 85t114 32q164 -1 254 -99l-115 -112q-74 59 -141 59z" />
    <glyph glyph-name="s" unicode="s" horiz-adv-x="890" 
d="M426 94q74 0 115 12q73 22 73 103q0 55 -51 80t-123 34t-144 24t-124 71q-51 56 -51 155q0 262 332 263q190 0 309 -125l-88 -90q-86 68 -207 67q-172 0 -172 -108q0 -43 37 -68t91 -31q143 -16 217 -44q150 -58 148 -224q0 -137 -89 -207t-232 -69q-230 -1 -365 157
l88 90q113 -90 236 -90z" />
    <glyph glyph-name="t" unicode="t" horiz-adv-x="741" 
d="M655 668h-260v-455q1 -63 21 -95t70 -32t106 23l67 -101q-63 -70 -184 -69q-70 -1 -120 23q-49 24 -75 56q-58 72 -59 306v344h-139v155h139v221h174v-221h260v-155z" />
    <glyph glyph-name="u" unicode="u" horiz-adv-x="1032" 
d="M899 -43h-168v96q-78 -115 -227 -114q-195 1 -283 123t-88 325v428h174v-428q0 -139 44 -217t179 -78t195 98v625h174v-858z" />
    <glyph glyph-name="v" unicode="v" horiz-adv-x="886" 
d="M836 815l-291 -858h-203l-291 858h193l196 -641l203 641h193z" />
    <glyph glyph-name="w" unicode="w" horiz-adv-x="1406" 
d="M1346 815l-248 -858h-205l-191 629l-190 -629h-203l-248 858h193l162 -625l184 625h203l186 -625l164 625h193z" />
    <glyph glyph-name="x" unicode="x" horiz-adv-x="923" 
d="M862 -43h-203l-200 291l-203 -291h-195l301 432l-292 426h202l193 -280l194 280h195l-293 -420z" />
    <glyph glyph-name="y" unicode="y" horiz-adv-x="876" 
d="M178 -410q-110 0 -158 70l72 102q35 -22 74 -22q80 1 117 73q25 50 39 98t16 54l-303 850h194l203 -616l211 616h193q-317 -885 -370 -1006q-54 -121 -116 -170t-172 -49z" />
    <glyph glyph-name="z" unicode="z" horiz-adv-x="897" 
d="M795 -43h-693v137l459 565h-444v156h678v-131q-24 -45 -78 -106t-192 -231q-138 -171 -191 -236h461v-154z" />
    <glyph glyph-name="braceleft" unicode="{" horiz-adv-x="671" 
d="M438 -256q-32 0 -70 17q-76 34 -105 108q-42 106 -42 255l2 163q0 162 -33 186q-20 16 -108 16v168h33q61 0 82 23q20 26 24 108t4 178t14 189q13 93 66 155t150 62q37 0 53 -4v-125q-44 -4 -64 -13q-48 -22 -49 -228l2 -156q0 -195 -65 -273q63 -80 63 -256l-6 -258
q0 -59 5 -91t33 -60t81 -33v-127q-38 -4 -70 -4z" />
    <glyph glyph-name="bar" unicode="|" horiz-adv-x="419" 
d="M297 -240h-174v1594h174v-1594z" />
    <glyph glyph-name="braceright" unicode="}" horiz-adv-x="671" 
d="M276 1028q0 182 -45 201q-20 10 -67 14v125q18 4 53 4q95 0 149 -61t67 -155t13 -190q0 -251 29 -286q18 -23 115 -23v-168h-19q-66 0 -84 -12q-33 -22 -34 -88q-2 -67 -2 -102l2 -125q0 -224 -57 -321q-58 -97 -177 -97q-18 0 -55 4v127q78 10 98 52t21 132l-7 258
q0 176 64 256q-31 39 -47 105q-17 66 -19 108t0 136q2 96 2 106z" />
    <glyph glyph-name="asciitilde" unicode="~" horiz-adv-x="753" 
d="M530 928q-60 0 -136 32t-116 33q-40 0 -59 -49l-110 25q10 71 59 117q48 46 106 46t135 -31q77 -32 119 -32t62 49l110 -24q-10 -72 -60 -119t-110 -47z" />
    <glyph glyph-name="uni00A0" unicode="&#xa0;" horiz-adv-x="552" 
 />
    <glyph glyph-name="exclamdown" unicode="&#xa1;" horiz-adv-x="454" 
d="M338 639h-174v186h174v-186zM342 -408h-184v347q0 197 28 589h127q29 -344 29 -589v-347z" />
    <glyph glyph-name="dieresis" unicode="&#xa8;" horiz-adv-x="950" 
d="M725 1192v-188h-174v188h174zM399 1192v-188h-174v188h174z" />
    <glyph glyph-name="ordfeminine" unicode="&#xaa;" horiz-adv-x="745" 
d="M545 799h-185q-133 0 -133 -84q0 -94 158 -94q111 -1 160 79v99zM680 907v-395h-135v72q-68 -86 -185 -86q-116 0 -192 55t-76 161t66 150q66 43 130 49q64 5 94 7t87 0t76 -2q-2 94 -49 124q-48 30 -144 29q-96 0 -157 -45l-70 70q94 94 256 94q299 0 299 -283z" />
    <glyph glyph-name="logicalnot" unicode="&#xac;" horiz-adv-x="1218" 
d="M1034 199h-162v196h-694v142h856v-338z" />
    <glyph glyph-name="degree" unicode="&#xb0;" horiz-adv-x="743" 
d="M547 887q0 100 -31 153q-31 54 -127 54t-128 -54t-32 -153q0 -101 32 -153t128 -52t127 52t31 153zM388 563q-158 0 -224 84q-68 84 -68 241q0 158 68 240t226 82t224 -82q68 -82 68 -240q0 -157 -68 -241t-226 -84z" />
    <glyph glyph-name="acute" unicode="&#xb4;" horiz-adv-x="909" 
d="M518 1006h-166q57 125 176 297h228q-78 -100 -238 -297z" />
    <glyph glyph-name="periodcentered" unicode="&#xb7;" horiz-adv-x="501" 
d="M338 397h-174v183h174v-183z" />
    <glyph glyph-name="ordmasculine" unicode="&#xba;" horiz-adv-x="743" 
d="M547 846q0 104 -32 166t-126 61q-94 0 -127 -61q-33 -62 -33 -166t32 -164t127 -61q95 1 127 61t32 164zM682 846q0 -344 -293 -344t-293 344t293 344t293 -344z" />
    <glyph glyph-name="questiondown" unicode="&#xbf;" horiz-adv-x="737" 
d="M530 639h-174v186h174v-186zM457 -410q-166 0 -260 86t-95 250q0 82 34 150t77 106q121 105 137 178q8 31 8 166h172v-137q0 -113 -88 -211q-36 -41 -74 -80q-90 -94 -90 -179q2 -85 42 -122t118 -37t128 30t114 89l119 -102q-47 -87 -143 -137t-199 -50z" />
    <glyph glyph-name="Agrave" unicode="&#xc0;" horiz-adv-x="1169" 
d="M664 1341h-166q-104 125 -238 297h227q128 -193 177 -297zM440 498h293l-147 465zM707 1190l380 -1233h-192l-115 383h-389l-119 -383h-190l383 1233h242z" />
    <glyph glyph-name="Aacute" unicode="&#xc1;" horiz-adv-x="1169" 
d="M895 1638q-133 -172 -238 -297h-165q57 117 176 297h227zM440 498h293l-147 465zM707 1190l380 -1233h-190l-117 383h-389l-119 -383h-190l383 1233h242z" />
    <glyph glyph-name="Acircumflex" unicode="&#xc2;" horiz-adv-x="1169" 
d="M438 498h293l-147 467zM705 1192l382 -1235h-192l-117 383h-389l-117 -383h-190l381 1235h242zM680 1638l231 -307h-178l-149 197l-148 -197h-180l233 307h191z" />
    <glyph glyph-name="Adieresis" unicode="&#xc4;" horiz-adv-x="1169" 
d="M440 498h293l-147 465zM707 1192l380 -1235h-192l-115 383h-389l-119 -383h-190l383 1235h242zM834 1530v-189h-175v189h175zM508 1530v-189h-174v189h174z" />
    <glyph glyph-name="Ccedilla" unicode="&#xc7;" horiz-adv-x="1136" 
d="M426 -410l121 240h155q-53 -160 -84 -240h-192zM625 -72q-296 0 -406 189q-98 170 -96 450q0 472 252 592q102 49 250 49q258 0 387 -164l-113 -106q-68 55 -127 78q-59 22 -146 22q-165 -1 -246 -95q-81 -95 -81 -376q0 -86 4 -144q3 -58 23 -125t54 -107
q79 -93 247 -93q88 0 147 22t125 77l115 -109q-135 -160 -389 -160z" />
    <glyph glyph-name="Egrave" unicode="&#xc8;" 
d="M641 1337h-166q-111 133 -237 297h227q127 -193 176 -297zM991 1022h-659v-348h598v-168h-598v-381h659v-168h-833v1233h833v-168z" />
    <glyph glyph-name="Eacute" unicode="&#xc9;" 
d="M887 1638q-133 -172 -238 -297h-166q49 104 176 297h228zM991 1022h-659v-342h598v-170h-598v-381h659v-168h-833v1229h833v-168z" />
    <glyph glyph-name="Ecircumflex" unicode="&#xca;" 
d="M991 125v-168h-833v1235h833v-168h-659v-350h598v-168h-598v-381h659zM653 1638l232 -305h-178l-150 195l-147 -195h-181l234 305h190z" />
    <glyph glyph-name="Edieresis" unicode="&#xcb;" 
d="M991 1022h-659v-348h598v-168h-598v-381h659v-168h-833v1233h833v-168zM838 1530v-189h-176v189h176zM512 1530v-189h-176v189h176z" />
    <glyph glyph-name="Igrave" unicode="&#xcc;" horiz-adv-x="520" 
d="M168 1638q127 -193 176 -297h-166q-104 125 -237 297h227zM182 1190h174v-1233h-174v1233z" />
    <glyph glyph-name="Iacute" unicode="&#xcd;" horiz-adv-x="518" 
d="M350 1638h228q-133 -172 -238 -297h-166q49 104 176 297zM164 -43v1233h174v-1233h-174z" />
    <glyph glyph-name="Icircumflex" unicode="&#xce;" horiz-adv-x="655" 
d="M416 1192v-1235h-174v1235h174zM422 1638l233 -307h-178l-149 195l-150 -195h-178l233 307h189z" />
    <glyph glyph-name="Idieresis" unicode="&#xcf;" horiz-adv-x="501" 
d="M326 1530h176v-189h-176v189zM164 -43v1233h174v-1233h-174zM176 1530v-189h-176v189h176z" />
    <glyph glyph-name="Ntilde" unicode="&#xd1;" horiz-adv-x="1191" 
d="M463 1399q-39 0 -60 -49l-110 24q10 70 59 117q50 47 108 47t136 -32t119 -32t61 50l111 -25q-11 -72 -61 -119t-110 -47t-137 33t-116 33zM860 1190h174v-1233h-241l-461 965v-965h-174v1233h237l465 -971v971z" />
    <glyph glyph-name="Ograve" unicode="&#xd2;" horiz-adv-x="1230" 
d="M700 1341h-165q-160 197 -238 297h227q127 -193 176 -297zM934 568q0 282 -77 377t-242 94q-164 -1 -241 -95t-77 -378q0 -285 80 -372q80 -88 239 -88q162 0 240 90t78 372zM615 1208q493 0 493 -616q0 -115 -3 -175q-3 -59 -28 -153t-73 -158q-130 -170 -388 -170
t-389 170q-49 60 -73 154t-28 158q-3 64 -3 174q-1 616 492 616z" />
    <glyph glyph-name="Oacute" unicode="&#xd3;" horiz-adv-x="1232" 
d="M948 1638q-133 -172 -237 -297h-166q57 117 176 297h227zM856 947q-78 93 -240 91q-242 0 -293 -203q-26 -106 -26 -230t4 -180q11 -160 73 -227q82 -92 242 -92q162 0 242 92q76 88 76 371q0 285 -78 378zM616 1208q494 0 494 -616q0 -111 -3 -173q-3 -61 -29 -155
t-74 -158q-130 -170 -388 -170t-389 170q-49 62 -73 156t-28 156q-3 62 -3 174q-1 616 493 616z" />
    <glyph glyph-name="Ocircumflex" unicode="&#xd4;" horiz-adv-x="1232" 
d="M856 947q-78 93 -240 91q-242 0 -293 -203q-26 -106 -26 -230t4 -180q11 -160 73 -227q82 -92 242 -92q162 0 242 92q76 88 76 371q0 285 -78 378zM616 1208q494 0 494 -616q0 -111 -3 -173q-3 -61 -29 -155t-74 -158q-130 -170 -388 -170t-389 170q-49 62 -73 156
t-28 156q-3 62 -3 174q-1 616 493 616zM944 1331h-180l-148 195l-149 -195h-178l231 307h191z" />
    <glyph glyph-name="Odieresis" unicode="&#xd6;" horiz-adv-x="1232" 
d="M856 947q-78 93 -241 92t-241 -95q-77 -94 -77 -378q0 -285 80 -372q80 -88 239 -88q162 0 242 92q76 88 76 371q0 285 -78 378zM616 1208q494 0 494 -616q0 -111 -3 -173q-3 -61 -29 -155t-74 -158q-130 -170 -388 -170t-389 170q-49 62 -73 156t-28 156q-3 62 -3 174
q-1 616 493 616zM866 1530v-189h-176v189h176zM541 1530v-189h-176v189h176z" />
    <glyph glyph-name="Ugrave" unicode="&#xd9;" horiz-adv-x="1296" 
d="M735 1341h-166q-160 197 -237 297h227q127 -193 176 -297zM965 1190h174v-703q0 -251 -123 -401t-369 -150q-245 0 -367 150t-122 401v703h174v-655q0 -251 81 -341t233 -90t234 84q63 69 78 211q6 57 7 136v655z" />
    <glyph glyph-name="Uacute" unicode="&#xda;" horiz-adv-x="1298" 
d="M963 1638q-133 -172 -238 -297h-166q49 104 176 297h228zM965 1190h176v-703q0 -251 -124 -401t-370 -150q-245 0 -367 150t-122 401v703h174v-655q0 -251 81 -341t233 -90t234 84q63 69 78 211q6 57 7 136v655z" />
    <glyph glyph-name="Ucircumflex" unicode="&#xdb;" horiz-adv-x="1298" 
d="M965 1190h176v-703q0 -251 -124 -401t-370 -150q-245 0 -367 150t-122 401v703h174v-655q0 -251 81 -341t233 -90t234 84q63 69 78 211q6 57 7 136v655zM979 1331h-178l-150 195l-147 -195h-180l233 307h191z" />
    <glyph glyph-name="Udieresis" unicode="&#xdc;" horiz-adv-x="1298" 
d="M965 1190h176v-703q0 -251 -124 -401t-370 -150q-245 0 -367 150t-122 401v703h174v-655q0 -251 81 -341t233 -90t234 84q63 69 78 211q6 57 7 136v655zM899 1530v-189h-176v189h176zM573 1530v-189h-176v189h176z" />
    <glyph glyph-name="agrave" unicode="&#xe0;" horiz-adv-x="976" 
d="M563 1004h-166q-49 59 -237 296h227q121 -177 176 -296zM690 328h-241q-49 0 -81 -5t-62 -31t-30 -73q0 -123 205 -123q63 0 121 28t88 77v127zM440 682q-124 0 -207 -59l-90 90q125 123 332 123q389 0 389 -367v-512h-174v90q-90 -109 -242 -109t-248 72q-97 72 -98 207
q0 172 135 226q110 44 271 44l180 -4q0 121 -62 160t-186 39z" />
    <glyph glyph-name="aacute" unicode="&#xe1;" horiz-adv-x="976" 
d="M831 1300q-188 -238 -237 -296h-166q55 119 176 296h227zM690 328h-241q-49 0 -81 -5t-62 -31t-30 -73q0 -123 205 -123q63 0 121 28t88 77v127zM440 682q-124 0 -207 -59l-90 90q125 123 332 123q389 0 389 -367v-512h-174v90q-90 -109 -242 -109t-248 72
q-97 72 -98 207q0 172 135 226q110 44 271 44l180 -4q0 121 -62 160t-186 39z" />
    <glyph glyph-name="acircumflex" unicode="&#xe2;" horiz-adv-x="976" 
d="M690 328h-241q-129 0 -158 -48q-14 -24 -15 -61q0 -123 205 -123q63 0 121 28t88 77v127zM864 469v-512h-174v92q-90 -111 -242 -111t-248 72q-97 72 -98 207q0 167 122 220t258 50q135 -4 206 -4q0 121 -60 160t-188 39t-207 -59l-90 90q125 123 332 123q389 0 389 -367
zM608 1311l232 -307h-178l-150 194l-147 -194h-181l234 307h190z" />
    <glyph glyph-name="adieresis" unicode="&#xe4;" horiz-adv-x="976" 
d="M764 1190v-186h-174v186h174zM438 1190v-186h-174v186h174zM690 328h-241q-49 0 -81 -5t-62 -31t-30 -73q0 -123 205 -123q63 0 121 28t88 77v127zM440 682q-124 0 -207 -59l-90 90q125 123 332 123q389 0 389 -367v-512h-174v90q-90 -109 -242 -109t-248 72
q-97 72 -98 207q0 172 135 226q110 44 271 44l180 -4q0 121 -62 160t-186 39z" />
    <glyph glyph-name="ccedilla" unicode="&#xe7;" horiz-adv-x="868" 
d="M463 -410h-193l121 240h154q-45 -146 -82 -240zM102 381q0 455 371 455q86 0 168 -32t125 -95l-88 -93q-70 64 -190 64t-166 -75t-46 -225t46 -224t182 -74q100 0 174 63l88 -92q-43 -63 -125 -96t-168 -33q-197 0 -284 126t-87 331z" />
    <glyph glyph-name="egrave" unicode="&#xe8;" horiz-adv-x="968" 
d="M565 1001h-166q-104 125 -237 297h227q127 -193 176 -297zM486 678q-180 0 -203 -197h403q-20 197 -200 197zM866 375v-49h-587q6 -240 223 -240q152 0 231 68l86 -93q-86 -129 -305 -129t-315 114t-97 339q0 449 382 449t382 -459z" />
    <glyph glyph-name="eacute" unicode="&#xe9;" horiz-adv-x="968" 
d="M817 1298q-133 -172 -237 -297h-166q49 104 176 297h227zM486 678q-180 0 -203 -197h403q-20 197 -200 197zM866 375v-49h-587q6 -240 223 -240q152 0 231 68l86 -93q-86 -129 -305 -129t-315 114t-97 339q0 449 382 449t382 -459z" />
    <glyph glyph-name="ecircumflex" unicode="&#xea;" horiz-adv-x="968" 
d="M484 680q-178 0 -201 -197h403q-24 197 -202 197zM866 328h-587q4 -120 56 -180q53 -60 187 -60t211 68l86 -93q-86 -127 -306 -127t-315 114q-95 112 -96 337q0 449 383 449q238 0 315 -154q66 -132 66 -354zM580 1311l233 -307h-180l-148 194l-149 -194h-178l231 307
h191z" />
    <glyph glyph-name="edieresis" unicode="&#xeb;" horiz-adv-x="968" 
d="M748 1186v-187h-175v187h175zM422 1186v-187h-174v187h174zM486 678q-180 0 -203 -197h403q-20 197 -200 197zM866 375v-49h-587q6 -240 223 -240q152 0 231 68l86 -93q-86 -129 -305 -129t-315 114t-97 339q0 449 382 449t382 -459z" />
    <glyph glyph-name="igrave" unicode="&#xec;" horiz-adv-x="516" 
d="M197 1300q121 -178 176 -296h-166q-96 119 -238 296h228zM209 815h174v-858h-174v858z" />
    <glyph glyph-name="iacute" unicode="&#xed;" horiz-adv-x="516" 
d="M133 -43v858h174v-858h-174zM319 1300h228q-188 -238 -238 -296h-166q55 118 176 296z" />
    <glyph glyph-name="icircumflex" unicode="&#xee;" horiz-adv-x="593" 
d="M385 815v-858h-174v858h174zM391 1311l234 -307h-179l-149 194l-150 -194h-178l234 307h188z" />
    <glyph glyph-name="idieresis" unicode="&#xef;" horiz-adv-x="438" 
d="M295 1190h174v-186h-174v186zM143 1190v-186h-174v186h174zM133 -43v858h174v-858h-174z" />
    <glyph glyph-name="ntilde" unicode="&#xf1;" horiz-adv-x="1030" 
d="M384 1012q-40 0 -58 -49l-111 24q10 72 59 118q50 46 108 46t135 -32t119 -32t60 50l111 -25q-10 -72 -59 -119q-48 -47 -110 -47t-138 33t-116 33zM530 836q367 0 367 -387v-492h-174v502q0 70 -5 85t-12 39q-8 23 -18 33t-27 26t-66 25t-95 9t-104 -28t-89 -75v-616
h-174v858h174v-94q37 51 99 83t124 32z" />
    <glyph glyph-name="ograve" unicode="&#xf2;" horiz-adv-x="970" 
d="M551 1004h-166q-39 49 -119 148t-119 148h228q113 -161 176 -296zM485 92q123 0 165 80t42 215t-42 215t-169 80t-165 -83t-39 -179t7 -144q19 -123 92 -160q43 -24 109 -24zM485 836q383 0 383 -450t-383 -449q-383 -1 -383 449t383 450z" />
    <glyph glyph-name="oacute" unicode="&#xf3;" horiz-adv-x="970" 
d="M811 1300q-188 -238 -238 -296h-165q55 119 176 296h227zM485 92q123 0 165 80t42 216t-42 215t-169 79t-165 -83t-39 -179t7 -144q19 -123 92 -160q43 -24 109 -24zM485 836q383 0 383 -450t-383 -449q-383 -1 -383 449t383 450z" />
    <glyph glyph-name="ocircumflex" unicode="&#xf4;" horiz-adv-x="970" 
d="M650 603q-42 79 -169 79t-165 -83t-39 -216t41 -212t171 -79t166 88t37 216t-42 207zM485 836q383 0 383 -450t-383 -449q-383 -1 -383 449t383 450zM580 1311l233 -307h-178l-150 194l-149 -194h-178l233 307h189z" />
    <glyph glyph-name="odieresis" unicode="&#xf6;" horiz-adv-x="970" 
d="M737 1190v-186h-176v186h176zM412 1190v-186h-176v186h176zM485 92q123 0 165 80t42 215t-42 215t-169 80t-165 -83t-39 -179t7 -144q19 -123 92 -160q43 -24 109 -24zM485 836q383 0 383 -450t-383 -449q-383 -1 -383 449t383 450z" />
    <glyph glyph-name="ugrave" unicode="&#xf9;" horiz-adv-x="1032" 
d="M590 1004h-166q-96 119 -238 296h228q121 -177 176 -296zM725 815h174v-858h-168v96q-78 -115 -227 -114q-195 1 -283 123t-88 325v428h174v-428q0 -139 44 -217t179 -78t195 98v625z" />
    <glyph glyph-name="uacute" unicode="&#xfa;" horiz-adv-x="1032" 
d="M817 1300q-181 -227 -237 -296h-168q63 131 176 296h229zM725 815h174v-858h-168v96q-78 -115 -227 -114q-195 1 -283 123t-88 325v428h174v-428q0 -139 44 -217t179 -78t195 98v625z" />
    <glyph glyph-name="ucircumflex" unicode="&#xfb;" horiz-adv-x="1032" 
d="M899 815v-858h-168v96q-82 -115 -227 -114q-195 1 -283 123t-88 325v428h174v-428q0 -134 29 -192q29 -59 74 -81t114 -22q141 0 201 98v625h174zM604 1311l234 -307h-179l-149 194l-150 -194h-178l234 307h188z" />
    <glyph glyph-name="udieresis" unicode="&#xfc;" horiz-adv-x="1032" 
d="M760 1190v-186h-174v186h174zM434 1190v-186h-174v186h174zM725 815h174v-858h-168v96q-78 -115 -227 -114q-195 1 -283 123t-88 325v428h174v-428q0 -139 44 -217t179 -78t195 98v625z" />
    <glyph glyph-name="endash" unicode="&#x2013;" horiz-adv-x="935" 
d="M877 356h-768v158h768v-158z" />
    <glyph glyph-name="emdash" unicode="&#x2014;" horiz-adv-x="1728" 
d="M1524 356h-1319v158h1319v-158z" />
    <glyph glyph-name="quoteleft" unicode="&#x2018;" horiz-adv-x="466" 
d="M262 940q0 -55 33 -125h-186q-20 59 -21 127q0 223 174 315l82 -88q-82 -100 -82 -229z" />
    <glyph glyph-name="quoteright" unicode="&#x2019;" horiz-adv-x="372" 
d="M170 1133q0 47 -33 124h187q20 -68 20 -127q0 -223 -174 -315l-82 88q82 100 82 230z" />
    <glyph glyph-name="quotedblleft" unicode="&#x201c;" horiz-adv-x="753" 
d="M375 942q0 223 174 313l82 -86q-82 -100 -82 -225q0 -55 33 -129h-187q-20 59 -20 127zM88 942q0 225 172 313l82 -86q-80 -98 -80 -225q0 -61 31 -129h-187q-18 53 -18 127z" />
    <glyph glyph-name="quotedblright" unicode="&#x201d;" horiz-adv-x="559" 
d="M272 1112q0 -84 -44 -168t-130 -129l-82 86q82 102 82 225q1 59 -32 129h186q20 -59 20 -143zM559 1128q0 -221 -172 -313l-82 86q80 100 80 225q0 61 -31 129h187q18 -53 18 -127z" />
    <glyph glyph-name="bullet" unicode="&#x2022;" horiz-adv-x="878" 
d="M715 551q0 -119 -84 -202t-202 -83t-202 83t-84 202t84 202t202 83t202 -83t84 -202z" />
    <glyph glyph-name="fraction" unicode="&#x2044;" horiz-adv-x="716" 
d="M788 1356l-614 -1594h-174l614 1594h174z" />
    </font>
</defs>
</svg>
