<?xml version="1.0" standalone="no"?>
<!DOCTYPE svg PUBLIC "-//W3C//DTD SVG 1.1//EN" "http://www.w3.org/Graphics/SVG/1.1/DTD/svg11.dtd" >
<svg xmlns="http://www.w3.org/2000/svg">
<metadata>
Created by FontPrep 20130207 at Thu Jun 19 23:03:53 2014
 By Diego Escares
Copyright (c) 2008 Macarena Budin. Editada por Javier Quintana para el cata'logo del proyecto acade'mico www.esostiposdelautem.cl
</metadata>
<defs>
<font id="5bc92cba2cfe813250541cf72a9cc939" horiz-adv-x='1024' >
  <font-face 
    font-family="dfdSelfishJean"
    font-weight="400"
    font-stretch="normal"
    units-per-em="2048"
    panose-1="2 0 0 0 0 0 0 0 0 0"
    ascent="1536"
    descent="-512"
    x-height="975"
    cap-height="1444"
    bbox="-113 -471 813 1731"
    underline-thickness="102"
    underline-position="-102"
    unicode-range="U+0020-20AC"
  />
<missing-glyph horiz-adv-x="368" 
 />
    <glyph glyph-name=".notdef" horiz-adv-x="368" 
 />
    <glyph glyph-name=".null" horiz-adv-x="0" 
 />
    <glyph glyph-name="nonmarkingreturn" horiz-adv-x="681" 
 />
    <glyph glyph-name="space" unicode=" " horiz-adv-x="368" 
 />
    <glyph glyph-name="exclam" unicode="!" horiz-adv-x="159" 
d="M61 14v164q1 25 19 25t18 -25v-164q0 -25 -18 -24q-19 -1 -19 24zM61 367v1118h37v-1118h-37z" />
    <glyph glyph-name="quotedbl" unicode="&#x22;" horiz-adv-x="299" 
d="M201 1169v301q0 25 18 25t19 -25v-301q0 -25 -19 -24q-18 -1 -18 24zM61 1169v301q1 25 19 25t18 -25v-301q0 -25 -18 -24q-19 -1 -19 24z" />
    <glyph glyph-name="numbersign" unicode="#" horiz-adv-x="593" 
d="M246 645l-35 -196h135l35 196h-135zM102 645v49h115l37 211h37l-37 -211h135l37 211h37l-37 -211h106v-49h-114l-35 -196h109v-50h-117l-35 -211h-37l35 211h-135l-35 -211h-37l35 211h-105v50h113l35 196h-107z" />
    <glyph glyph-name="dollar" unicode="$" horiz-adv-x="503" 
d="M233 821v527q-55 -4 -85 -40t-29 -94v-174q-1 -113 114 -219zM385 526q0 115 -115 217v-657q55 6 85 43t30 92v305zM233 -215v207q-75 4 -113 52t-38 126v319h37v-268q-1 -55 29 -92t85 -43v672q-152 135 -151 282v234q0 76 38 124t113 54v125h37v-125q74 -4 113 -53
t39 -125v-182h-37v122q0 58 -30 94t-85 40v-545q72 -66 112 -128t40 -149v-356q0 -76 -39 -124t-113 -54v-207h-37z" />
    <glyph glyph-name="percent" unicode="%" horiz-adv-x="884" 
d="M623 76q113 0 112 135v289q-1 135 -113 135t-112 -135v-289q0 -135 113 -135zM772 537v-367q0 -180 -150 -180t-149 180v367q-1 180 149 180t150 -180zM262 813q113 0 113 135v289q0 135 -113 135t-112 -135v-289q-1 -135 112 -135zM412 1274v-367q0 -180 -150 -180
t-149 180v367q-1 180 149 180t150 -180zM72 -51l700 1546h41l-700 -1546h-41z" />
    <glyph glyph-name="ampersand" unicode="&#x26;" horiz-adv-x="647" 
d="M217 748q-57 0 -88 -33t-31 -92v-402q0 -61 35 -98t98 -37t99 37q35 37 35 98v527h-148zM575 829v-81h-174v-527q0 -63 35 -104q36 -41 92 -41t78 22l10 6v-94q-31 -20 -88 -20q-104 0 -145 86q-41 -86 -152 -86q-84 0 -127 50t-43 130v469q0 133 129 149q-24 2 -48 10
t-52 42q-28 35 -29 90v344q0 80 43 130t127 50t127 -49t43 -131v-121h-36v61q0 60 -35 98q-34 38 -98 38t-99 -37t-35 -99v-260q0 -125 119 -125h148v146h36v-146h174z" />
    <glyph glyph-name="quotesingle" unicode="'" horiz-adv-x="159" 
d="M61 1169v301q1 25 19 25t18 -25v-301q0 -25 -18 -24q-19 -1 -19 24z" />
    <glyph glyph-name="parenleft" unicode="(" horiz-adv-x="325" 
d="M305 -385v-76q-123 0 -183 94t-61 252v1346q1 158 61 252t183 94v-82q-96 0 -151 -76t-56 -188v-1352q0 -113 56 -189t151 -75z" />
    <glyph glyph-name="parenright" unicode=")" horiz-adv-x="325" 
d="M20 -461v76q96 0 152 76q55 76 55 188v1352q0 113 -55 189t-152 75v82q124 0 184 -94t60 -252v-1346q0 -158 -60 -252t-184 -94z" />
    <glyph glyph-name="asterisk" unicode="*" 
d="M217 1485h37v-162l145 82l11 -31l-158 -88l158 -88l-11 -31l-145 82v-162h-37v162l-145 -82l-11 31l158 88l-158 88l11 31l145 -82v162z" />
    <glyph glyph-name="plus" unicode="+" horiz-adv-x="430" 
d="M61 522v49h134v211h41v-211h133v-49h-133v-211h-41v211h-134z" />
    <glyph glyph-name="comma" unicode="," horiz-adv-x="139" 
d="M61 106v72q1 25 19 25t18 -25v-72q0 -84 -13 -147t-28 -86l-12 -20l-25 28q41 53 41 225z" />
    <glyph glyph-name="hyphen" unicode="-" horiz-adv-x="368" 
d="M61 522v49h246v-49h-246z" />
    <glyph glyph-name="period" unicode="." horiz-adv-x="118" 
d="M41 14v164q0 25 18 25t19 -25v-164q0 -25 -19 -24q-18 -1 -18 24z" />
    <glyph glyph-name="slash" unicode="/" horiz-adv-x="344" 
d="M10 -461l287 1997h37l-287 -1997h-37z" />
    <glyph glyph-name="zero" unicode="0" horiz-adv-x="503" 
d="M252 76q63 0 98 37t35 98v1026q0 61 -35 98t-98 37t-98 -37t-35 -98v-1026q0 -61 35 -98t98 -37zM422 1274v-1104q0 -82 -43 -131t-127 -49t-127 50t-43 130v1104q0 80 43 130t127 50t127 -49t43 -131z" />
    <glyph glyph-name="one" unicode="1" horiz-adv-x="366" 
d="M285 1444v-1444h-37v1356l-228 -203v86l228 205h37z" />
    <glyph glyph-name="two" unicode="2" horiz-adv-x="503" 
d="M119 322v-238h303v-84h-340v322q0 86 47 189t104 184q152 216 152 345v197q0 61 -35 98t-98 37t-98 -37t-35 -98v-145h-37v182q0 82 43 131t127 49t127 -50t43 -130v-234q0 -88 -47 -189t-105 -178t-104 -174q-47 -97 -47 -177z" />
    <glyph glyph-name="three" unicode="3" horiz-adv-x="503" 
d="M180 748v81h86q119 0 119 125v283q0 61 -35 98t-98 37t-98 -37t-35 -98v-145h-37v182q0 82 43 131t127 49t127 -50t43 -130v-344q0 -55 -29 -89t-53 -42t-47 -11q23 -2 47 -10t54 -45q28 -37 28 -94v-469q0 -80 -43 -130t-127 -50t-127 49t-43 131v238h37v-197
q0 -61 35 -98t98 -37t98 37t35 98v412q0 59 -31 92t-88 33h-86z" />
    <glyph glyph-name="four" unicode="4" horiz-adv-x="524" 
d="M344 686v664l-246 -664h246zM61 604v82l283 758h37v-758h61v-82h-61v-604h-37v604h-283z" />
    <glyph glyph-name="five" unicode="5" horiz-adv-x="503" 
d="M82 664v780h340v-82h-303v-569q15 29 52 54q38 24 81 23q84 0 127 -49t43 -131v-520q0 -82 -43 -131t-127 -49t-127 50t-43 130v238h37v-197q0 -61 35 -98t98 -37t98 37t35 98v453q0 61 -35 98t-98 37t-98 -37t-35 -98h-37z" />
    <glyph glyph-name="six" unicode="6" horiz-adv-x="503" 
d="M253 799q-62 0 -98 -39t-36 -96v-453q0 -61 35 -98t98 -37t98 37t35 98v453q0 61 -35 98t-97 37zM422 1174h-37v63q0 61 -35 98t-98 37t-98 -37t-35 -98v-444q39 77 128 77t132 -49t43 -131v-520q0 -82 -43 -131t-127 -49t-127 50t-43 130v1104q0 82 43 131t127 49
t127 -50t43 -130v-100z" />
    <glyph glyph-name="seven" unicode="7" horiz-adv-x="401" 
d="M360 1444v-82l-221 -1362h-37l222 1362h-304v82h340z" />
    <glyph glyph-name="eight" unicode="8" horiz-adv-x="503" 
d="M252 827q63 0 98 37t35 99v274q0 61 -35 98t-98 37t-98 -37t-35 -98v-274q0 -61 35 -99t98 -37zM252 76q63 0 98 37t35 98v403q0 60 -35 98t-98 38t-98 -37t-35 -99v-403q0 -61 35 -98t98 -37zM422 1274v-342q0 -51 -23 -87t-43 -46l-22 -11q10 -4 24 -11t39 -44t25 -88
v-475q0 -82 -43 -131t-127 -49t-127 50t-43 130v475q0 69 31 100q26 31 57 43q-10 4 -24 12t-40 44q-25 37 -24 88v342q0 80 43 130t127 50t127 -49t43 -131z" />
    <glyph glyph-name="nine" unicode="9" horiz-adv-x="503" 
d="M252 696q63 0 98 37t35 98v406q0 61 -35 98t-98 37t-98 -37t-35 -98v-406q0 -61 35 -98t98 -37zM82 408h37v-197q0 -61 35 -98t98 -37t98 37t35 98v475q-13 -26 -52 -51q-38 -25 -81 -25q-84 0 -127 50t-43 131v483q0 80 43 130t127 50t127 -49t43 -131v-1104
q0 -80 -43 -130t-127 -50t-127 49t-43 131v238z" />
    <glyph glyph-name="colon" unicode=":" horiz-adv-x="118" 
d="M41 702v164q0 25 18 25t19 -25v-164q0 -25 -19 -24q-18 -1 -18 24zM41 14v164q0 25 18 25t19 -25v-164q0 -25 -19 -24q-18 -1 -18 24z" />
    <glyph glyph-name="semicolon" unicode=";" horiz-adv-x="139" 
d="M61 702v164q1 25 19 25t18 -25v-164q0 -25 -18 -24q-19 -1 -19 24zM61 106v72q1 25 19 25t18 -25v-72q0 -84 -13 -147t-28 -86l-12 -20l-25 28q41 53 41 225z" />
    <glyph glyph-name="less" unicode="&#x3c;" horiz-adv-x="466" 
d="M51 571l355 271v-47l-322 -242l322 -242v-47l-355 271v36z" />
    <glyph glyph-name="equal" unicode="=" horiz-adv-x="409" 
d="M61 645v49h287v-49h-287zM61 399v50h287v-50h-287z" />
    <glyph glyph-name="greater" unicode="&#x3e;" horiz-adv-x="466" 
d="M61 842l355 -271v-36l-355 -271v47l322 242l-322 242v47z" />
    <glyph glyph-name="question" unicode="?" horiz-adv-x="442" 
d="M123 14v164q0 25 18 25t19 -25v-164q0 -25 -19 -24q-18 -1 -18 24zM160 582v-215h-37v215q0 86 35 158t75 113q41 42 76 108t35 137v180q0 61 -35 98t-98 37t-98 -37t-35 -98v-64h-37v101q0 82 43 131t127 49t127 -50t43 -130v-217q0 -88 -35 -158t-76 -109
q-42 -39 -76 -104t-34 -145z" />
    <glyph glyph-name="at" unicode="@" horiz-adv-x="761" 
d="M381 76q53 0 92 36t39 105v533q0 68 -35 104t-96 37q-61 0 -96 -37t-35 -104v-533q0 -69 39 -105t92 -36zM381 985q80 0 122 -47t42 -133v-692q0 -86 57 -86q66 0 66 86v837q0 129 -68 214t-220 85t-218 -85q-68 -85 -68 -214v-887q0 -319 287 -319h164v-41h-164
q-170 0 -245 92t-75 273v878q-1 344 319 344t320 -344v-833q0 -123 -98 -123q-49 0 -70 25q-20 26 -20 53l-11 -22q-7 -13 -41 -35q-34 -21 -94 -21t-105 46q-44 46 -44 134v635q0 86 42 133t122 47z" />
    <glyph glyph-name="A" unicode="A" horiz-adv-x="483" 
d="M72 0v1274q0 80 43 130t127 50t127 -49t43 -131v-1274h-37v748h-266v-748h-37zM109 1214v-385h266v385q0 60 -35 98t-98 38t-99 -37q-34 -38 -34 -99z" />
    <glyph glyph-name="B" unicode="B" horiz-adv-x="483" 
d="M72 1444h164q176 0 176 -170v-344q0 -62 -34 -98t-69 -39l-35 -5q90 0 123 -76q14 -32 15 -73v-473q0 -80 -45 -123t-121 -43h-174v1444zM109 1350v-521h147q119 0 119 125v265q0 57 -33 94t-90 37h-143zM109 748v-662h143q55 0 89 35t34 96v406q0 59 -31 92t-88 33h-147
z" />
    <glyph glyph-name="C" unicode="C" horiz-adv-x="473" 
d="M375 489h37v-319q0 -82 -43 -131t-127 -49t-127 50t-43 130v1104q0 80 43 130t127 50t127 -49t43 -131v-182h-37v122q0 60 -35 98t-98 38q-62 0 -98 -37t-35 -99v-993q1 -61 35 -98t98 -37t98 37q35 37 35 98v268z" />
    <glyph glyph-name="D" unicode="D" horiz-adv-x="483" 
d="M72 1444h164q176 0 176 -170v-1108q0 -80 -45 -123t-121 -43h-174v1444zM109 1350v-1264h143q55 0 89 35t34 96v1002q0 57 -33 94t-90 37h-143z" />
    <glyph glyph-name="E" unicode="E" horiz-adv-x="432" 
d="M72 0v1444h340v-94h-303v-521h225v-81h-225v-662h303v-86h-340z" />
    <glyph glyph-name="F" unicode="F" horiz-adv-x="401" 
d="M61 0v1444h340v-94h-303v-521h226v-81h-226v-748h-37z" />
    <glyph glyph-name="G" unicode="G" horiz-adv-x="483" 
d="M252 829h160v-659q0 -82 -43 -131t-127 -49t-127 50t-43 130v1104q0 80 43 130t127 50t127 -49t43 -131v-182h-37v122q0 60 -35 98t-98 38q-62 0 -98 -37t-35 -99v-993q1 -61 35 -98t98 -37t98 37q35 37 35 98v527h-123v81z" />
    <glyph glyph-name="H" unicode="H" horiz-adv-x="483" 
d="M72 0v1444h37v-615h266v615h37v-1444h-37v748h-266v-748h-37z" />
    <glyph glyph-name="I" unicode="I" horiz-adv-x="190" 
d="M72 0v1444h37v-1444h-37z" />
    <glyph glyph-name="J" unicode="J" horiz-adv-x="442" 
d="M31 489h37v-268q0 -61 34 -98t98 -37t99 37t35 98v1223h37v-1274q0 -80 -43 -130t-127 -50t-127 49t-43 131v319z" />
    <glyph glyph-name="K" unicode="K" horiz-adv-x="483" 
d="M72 1444h37v-615h147q119 0 119 125v490h37v-514q0 -62 -34 -98t-69 -39l-35 -5q90 0 123 -76q14 -32 15 -73v-639h-37v623q0 59 -31 92t-88 33h-147v-748h-37v1444z" />
    <glyph glyph-name="L" unicode="L" horiz-adv-x="411" 
d="M61 0v1444h37v-1358h303v-86h-340z" />
    <glyph glyph-name="M" unicode="M" horiz-adv-x="786" 
d="M678 0v1214q0 60 -35 98t-98 38t-99 -37t-34 -99v-1214h-37v1214q0 60 -35 98t-98 38q-62 0 -98 -37t-35 -99v-1214h-37v1274q0 80 43 130t127 50q111 0 151 -88q41 88 152 88q84 0 127 -49t43 -131v-1274h-37z" />
    <glyph glyph-name="N" unicode="N" horiz-adv-x="483" 
d="M72 0v1444h37l266 -277v277h37v-1444h-37v1055l-266 276v-1331h-37z" />
    <glyph glyph-name="O" unicode="O" horiz-adv-x="483" 
d="M242 86q63 0 98 37t35 98v993q0 60 -35 98t-98 38q-62 0 -98 -37t-35 -99v-993q0 -61 35 -98t98 -37zM412 1274v-1104q0 -82 -43 -131t-127 -49t-127 50t-43 130v1104q0 80 43 130t127 50t127 -49t43 -131z" />
    <glyph glyph-name="P" unicode="P" horiz-adv-x="421" 
d="M72 1444h164q176 0 176 -170v-340q0 -186 -176 -186h-127v-748h-37v1444zM109 1350v-521h143q57 0 90 36t33 100v254q0 57 -33 94t-90 37h-143z" />
    <glyph glyph-name="Q" unicode="Q" horiz-adv-x="483" 
d="M260 221v-135q55 6 85 43t30 92v993q0 60 -35 98t-98 38q-62 0 -98 -37t-35 -99v-993q-1 -55 29 -92t85 -43v135h37zM412 1274v-1104q0 -78 -39 -127t-113 -53v-123h-37v123q-75 6 -113 54t-38 126v1104q0 80 43 130t127 50t127 -49t43 -131z" />
    <glyph glyph-name="R" unicode="R" horiz-adv-x="483" 
d="M412 0h-37v623q0 59 -31 92t-88 33h-147v-748h-37v1444h164q176 0 176 -170v-344q0 -62 -34 -98t-69 -39l-35 -5q90 0 123 -76q14 -32 15 -73v-639zM109 1350v-521h147q119 0 119 125v265q0 57 -33 94t-90 37h-143z" />
    <glyph glyph-name="S" unicode="S" horiz-adv-x="483" 
d="M72 1040v234q0 80 43 130t127 50t127 -49t43 -131v-182h-37v122q0 60 -35 98t-98 38q-62 0 -98 -37t-35 -99v-174q0 -109 106 -203q45 -40 90 -81q107 -97 107 -230v-356q0 -80 -43 -130t-127 -50t-127 49t-43 131v319h37v-268q1 -61 35 -98t98 -37t98 37q35 37 35 98
v305q0 112 -107 205q-45 39 -90 79q-106 94 -106 230z" />
    <glyph glyph-name="T" unicode="T" horiz-adv-x="360" 
d="M162 0v1350h-152v94h340v-94h-151v-1350h-37z" />
    <glyph glyph-name="U" unicode="U" horiz-adv-x="483" 
d="M375 1444h37v-1274q0 -82 -43 -131t-127 -49t-127 50t-43 130v1274h37v-1223q1 -61 35 -98t98 -37t98 37q35 37 35 98v1223z" />
    <glyph glyph-name="V" unicode="V" horiz-adv-x="483" 
d="M242 -10q-57 0 -84 39t-35 141l-92 1274h37l92 -1223q10 -135 82 -135t82 135l92 1223h37l-93 -1274q-8 -102 -34 -141t-84 -39z" />
    <glyph glyph-name="W" unicode="W" horiz-adv-x="786" 
d="M678 1444h37v-1274q0 -82 -43 -131t-127 -49q-113 0 -152 86q-39 -86 -151 -86q-84 0 -127 50t-43 130v1274h37v-1223q1 -61 35 -98t98 -37t98 37q35 37 35 98v1223h37v-1223q0 -61 34 -98t98 -37t99 37t35 98v1223z" />
    <glyph glyph-name="X" unicode="X" horiz-adv-x="483" 
d="M412 0h-37v612q0 60 -35 98t-98 38q-62 0 -98 -37t-35 -99v-612h-37v649q0 90 61 139q-61 45 -61 140v516h37v-479q0 -61 34 -99q35 -37 99 -37t98 37q35 37 35 99v479h37v-516q0 -94 -62 -140q61 -47 62 -139v-649z" />
    <glyph glyph-name="Y" unicode="Y" horiz-adv-x="391" 
d="M182 0v748q-76 6 -114 54t-37 126v516h37v-479q0 -61 34 -99q34 -37 98 -37t99 37t35 99v479h37v-516q0 -76 -39 -125t-113 -55v-748h-37z" />
    <glyph glyph-name="Z" unicode="Z" horiz-adv-x="401" 
d="M391 86v-86h-340v86l301 1264h-301v94h340v-94l-299 -1264h299z" />
    <glyph glyph-name="bracketleft" unicode="[" horiz-adv-x="339" 
d="M319 1577v-82h-225v-1874h225v-82h-258v2038h258z" />
    <glyph glyph-name="backslash" unicode="\" horiz-adv-x="344" 
d="M47 1536l287 -1997h-37l-287 1997h37z" />
    <glyph glyph-name="bracketright" unicode="]" horiz-adv-x="339" 
d="M20 1495v82h259v-2038h-259v82h226v1874h-226z" />
    <glyph glyph-name="asciicircum" unicode="^" horiz-adv-x="577" 
d="M307 1454l230 -301h-48l-200 268l-201 -268h-47l229 301h37z" />
    <glyph glyph-name="underscore" unicode="_" horiz-adv-x="532" 
d="M61 -49v49h410v-49h-410z" />
    <glyph glyph-name="grave" unicode="`" horiz-adv-x="380" 
d="M160 1391l98 -246h-37l-98 246h37z" />
    <glyph glyph-name="a" unicode="a" 
d="M236 76q53 0 92 36t39 105v533q0 68 -35 104t-96 37q-60 0 -96 -37t-36 -104v-533q0 -69 40 -105t92 -36zM367 0v70q-7 -26 -46 -54q-39 -26 -100 -26t-105 46t-44 134v635q0 86 42 133t106 47t98 -19q32 -19 40 -40l9 -21v70h32v-975h-32z" />
    <glyph glyph-name="b" unicode="b" 
d="M236 76q53 0 92 36t39 105v533q0 68 -35 104t-96 37q-60 0 -96 -37t-36 -104v-533q0 -69 40 -105t92 -36zM104 0h-32v1485h32v-580q0 22 35 51t106 29t113 -47t41 -133v-635q0 -88 -44 -134t-112 -46t-94 23q-27 23 -43 48l-2 9v-70z" />
    <glyph glyph-name="c" unicode="c" horiz-adv-x="460" 
d="M399 674h-32v76q0 66 -36 104t-96 37q-59 0 -95 -37t-36 -104v-533q0 -69 39 -105t93 -36t92 36q39 36 39 105v86h32v-133q0 -88 -44 -134q-43 -46 -119 -46t-120 46t-44 134v635q0 86 42 133t122 47t122 -47t41 -133v-131z" />
    <glyph glyph-name="d" unicode="d" 
d="M236 76q53 0 92 36t39 105v533q0 68 -35 104t-96 37q-60 0 -96 -37t-36 -104v-533q0 -69 40 -105t92 -36zM367 0v70q-7 -26 -46 -54q-39 -26 -100 -26t-105 46t-44 134v635q0 86 42 133t106 47t98 -19q32 -19 40 -40l9 -21v580h32v-1485h-32z" />
    <glyph glyph-name="e" unicode="e" 
d="M104 750v-179h263v179q0 66 -36 104t-96 37q-59 -1 -95 -37t-36 -104zM399 489h-295v-272q0 -69 39 -105t93 -36t92 36q39 36 39 105v86h32v-133q0 -88 -44 -134q-43 -46 -119 -46t-120 46t-44 134v635q0 86 42 133t122 47t122 -47t41 -133v-316z" />
    <glyph glyph-name="f" unicode="f" horiz-adv-x="299" 
d="M244 1495q72 0 96 -18v-103q-27 27 -86 27t-94 -37t-35 -104v-285h174v-94h-174v-881h-33v881h-61v94h61v346q0 78 40 126t112 48z" />
    <glyph glyph-name="g" unicode="g" horiz-adv-x="491" 
d="M225 362q53 0 92 36t39 106v246q0 68 -34 104t-96 37q-62 0 -97 -37t-35 -104v-246q0 -70 39 -106t92 -36zM225 -385q53 0 92 36t39 105v267q0 61 -37 101t-96 40t-94 -37t-35 -104v-267q0 -70 39 -106t92 -35zM61 805q0 180 170 180q86 0 129 -65q23 66 84 65l37 -8v-68
q-12 15 -37 15t-40 -18t-15 -48v-354q0 -88 -44 -134t-120 -46q-35 0 -71 12q26 -25 80 -69q54 -43 81 -69t51 -71t23 -98v-320q0 -88 -44 -134t-120 -46t-120 46t-44 134v314q0 86 42 133t122 47q27 0 64 -13q-95 72 -119 96t-65 70q-41 47 -44 131v318z" />
    <glyph glyph-name="h" unicode="h" 
d="M104 750v-750h-32v1485h32v-580q0 22 35 51t106 29t113 -47t41 -133v-805h-32v750q0 68 -35 104t-96 37q-60 -1 -96 -37t-36 -104z" />
    <glyph glyph-name="i" unicode="i" horiz-adv-x="176" 
d="M72 1169v156q0 25 16 25t16 -25v-156q0 -25 -16 -24q-16 -1 -16 24zM72 0v975h32v-975h-32z" />
    <glyph glyph-name="j" unicode="j" horiz-adv-x="206" 
d="M102 1169v156q0 25 16 25t17 -25v-156q0 -25 -16 -24q-17 -1 -17 24zM-29 -471q-39 0 -84 20v95q29 -29 86 -29t94 39q36 39 35 102v1219h33v-1272q0 -78 -42 -126t-122 -48z" />
    <glyph glyph-name="k" unicode="k" 
d="M104 571h152q59 0 85 31t26 96v52q0 68 -35 104t-96 37q-60 0 -96 -37t-36 -104v-179zM104 489v-489h-32v1485h32v-580q7 28 45 55q39 26 103 26t106 -48q42 -47 41 -133v-123q1 -57 -25 -95t-52 -46l-27 -11q11 -2 29 -9t47 -45t28 -95v-381h-32v369q0 121 -119 120
h-144z" />
    <glyph glyph-name="l" unicode="l" horiz-adv-x="176" 
d="M72 0v1485h32v-1485h-32z" />
    <glyph glyph-name="m" unicode="m" horiz-adv-x="765" 
d="M694 0h-32v750q0 68 -35 104t-97 37q-62 0 -96 -37q-35 -37 -35 -104v-750h-32v750q0 68 -35 104t-96 37q-60 0 -96 -37t-36 -104v-750h-32v975h32v-70q6 31 46 55q39 25 86 25q106 0 147 -98q37 98 147 98q80 0 122 -47t42 -133v-805z" />
    <glyph glyph-name="n" unicode="n" 
d="M104 750v-750h-32v975h32v-70q0 22 35 51t106 29t113 -47t41 -133v-805h-32v750q0 68 -35 104t-96 37q-60 -1 -96 -37t-36 -104z" />
    <glyph glyph-name="o" unicode="o" 
d="M236 76q53 0 92 36t39 105v533q0 68 -35 104t-96 37q-60 0 -96 -37t-36 -104v-533q0 -69 40 -105t92 -36zM399 805v-635q0 -88 -44 -134q-43 -46 -119 -46t-120 46t-44 134v635q0 86 42 133t122 47t122 -47t41 -133z" />
    <glyph glyph-name="p" unicode="p" 
d="M236 76q53 0 92 36t39 105v533q0 68 -35 104t-96 37q-60 0 -96 -37t-36 -104v-533q0 -69 40 -105t92 -36zM104 -461h-32v1436h32v-70q0 22 35 51t106 29t113 -47t41 -133v-635q0 -88 -44 -134t-112 -46t-94 23q-27 23 -43 48l-2 9v-531z" />
    <glyph glyph-name="q" unicode="q" 
d="M236 76q53 0 92 36t39 105v533q0 68 -35 104t-96 37q-60 0 -96 -37t-36 -104v-533q0 -69 40 -105t92 -36zM367 -461v531q-7 -26 -46 -54q-39 -26 -100 -26t-105 46t-44 134v635q0 86 42 133t106 47t98 -19q32 -19 40 -40l9 -21v70h32v-1436h-32z" />
    <glyph glyph-name="r" unicode="r" horiz-adv-x="313" 
d="M236 985q31 0 67 -12v-99q-23 16 -75 16t-88 -36q-36 -37 -36 -104v-750h-32v975h32v-70q0 22 24 42q24 21 51 29q26 8 57 9z" />
    <glyph glyph-name="s" unicode="s" horiz-adv-x="460" 
d="M356 674v76q0 66 -36 104t-96 37q-60 0 -95 -37t-35 -104v-33q0 -76 46 -129t102 -79t101 -76q46 -50 46 -120v-143q0 -88 -44 -134t-120 -46t-120 46t-44 134v133h33v-86q0 -69 39 -105t92 -36t92 36t39 105v86q0 94 -104 157q-43 26 -86 54q-105 70 -105 201v90
q0 86 42 133t122 47t122 -47t42 -133v-131h-33z" />
    <glyph glyph-name="t" unicode="t" horiz-adv-x="370" 
d="M41 881v94h61v375h33v-375h174v-94h-174v-664q0 -63 36 -102t90 -39t79 22l10 6v-94q-28 -20 -96 -20t-110 48t-42 126v717h-61z" />
    <glyph glyph-name="u" unicode="u" 
d="M367 217v758h32v-975h-32v70q-7 -26 -46 -54q-39 -26 -100 -26t-105 46t-44 134v805h32v-758q0 -69 39 -105t93 -36t92 36q39 36 39 105z" />
    <glyph glyph-name="v" unicode="v" horiz-adv-x="450" 
d="M225 -10q-53 0 -82 41t-37 139l-65 805h33l63 -758q12 -141 88 -141t88 141l64 758h33l-66 -805q-8 -98 -37 -139t-82 -41z" />
    <glyph glyph-name="w" unicode="w" horiz-adv-x="765" 
d="M662 975h32v-805q0 -88 -44 -134t-120 -46q-119 0 -147 98q-29 -98 -147 -98q-76 0 -120 46t-44 134v805h32v-758q0 -69 39 -105t93 -36t92 36q39 36 39 105v758h32v-758q0 -69 39 -105t92 -36t93 36q39 36 39 105v758z" />
    <glyph glyph-name="x" unicode="x" 
d="M104 0h-32v387q0 115 67 143q-68 29 -67 144v301h32v-262q0 -70 39 -106t93 -36t92 36q39 36 39 106v262h32v-301q0 -109 -67 -144q68 -29 67 -143v-387h-32v348q0 66 -36 104t-96 38t-96 -37q-35 -37 -35 -105v-348z" />
    <glyph glyph-name="y" unicode="y" 
d="M236 -471q-44 0 -84 20v95q29 -29 86 -29t93 39t36 102v312l-2 -7q-3 -4 -7 -9t-9 -12q-36 -50 -112 -50q-77 0 -121 46t-44 134v805h32v-758q0 -69 39 -105t93 -36t92 36q39 36 39 105v758h32v-1272q0 -78 -42 -126t-121 -48z" />
    <glyph glyph-name="z" unicode="z" horiz-adv-x="430" 
d="M61 881v94h328v-94l-295 -795h295v-86h-328v86l295 795h-295z" />
    <glyph glyph-name="braceleft" unicode="{" horiz-adv-x="417" 
d="M190 391v-512q0 -113 56 -189t151 -75v-76q-123 0 -183 94t-60 252v490q0 125 -109 125h-25v82h25q109 0 109 125v524q0 158 60 252t183 94v-82q-96 0 -151 -76t-56 -188v-549q0 -55 -26 -89t-50 -42t-48 -10q124 -18 124 -150z" />
    <glyph glyph-name="bar" unicode="|" horiz-adv-x="159" 
d="M61 -461v1997h37v-1997h-37z" />
    <glyph glyph-name="braceright" unicode="}" horiz-adv-x="417" 
d="M397 582v-82h-24q-109 0 -109 -125v-490q0 -158 -60 -252t-184 -94v76q96 0 152 76q55 76 55 188v512q0 90 54 123q36 22 71 27q-24 2 -48 10t-50 42t-27 89v549q0 113 -55 189t-152 75v82q124 0 184 -94t60 -252v-524q0 -125 109 -125h24z" />
    <glyph glyph-name="asciitilde" unicode="~" horiz-adv-x="417" 
d="M294 541q-36 -1 -84 -19t-80 -18t-69 24v50q29 -29 63 -29t84 18q48 19 81 19t67 -25v-49q-27 29 -62 29z" />
    <glyph glyph-name="exclamdown" unicode="&#xa1;" horiz-adv-x="159" 
d="M61 797v164q0 25 19 24q18 0 18 -24v-164q0 -25 -18 -25t-19 25zM61 -461v1079h37v-1079h-37z" />
    <glyph glyph-name="cent" unicode="&#xa2;" horiz-adv-x="440" 
d="M94 217q0 -63 33 -99t80 -42v813q-53 -4 -83 -41t-30 -98v-533zM207 -256v248q-68 4 -107 50t-39 128v635q0 168 146 180v246h37v-246q145 -12 145 -180v-141h-33v86q0 59 -30 96q-31 37 -82 43v-813q47 6 80 42t32 99v86h33v-133q0 -82 -39 -128t-106 -50v-248h-37z" />
    <glyph glyph-name="sterling" unicode="&#xa3;" horiz-adv-x="503" 
d="M61 748v81h41v445q0 80 43 130t127 50t127 -49t43 -131v-182h-36v122q0 60 -35 98t-99 38t-98 -37q-35 -37 -35 -99v-385h226v-81h-226v-662h303v-86h-381v86h41v662h-41z" />
    <glyph glyph-name="currency" unicode="&#xa4;" horiz-adv-x="606" 
d="M303 219q53 0 92 36t39 105v390q0 68 -35 104t-96 37q-61 0 -96 -37t-35 -104v-390q0 -70 39 -106t92 -35zM467 805v-492q0 -39 -10 -73l98 -117l-35 -35l-88 102q-43 -57 -130 -57t-130 57l-86 -102l-35 35l99 117q-10 27 -11 73v492q0 37 11 74l-99 116l35 35l86 -102
q41 57 131 57t131 -57l86 102l35 -35l-98 -116q10 -37 10 -74z" />
    <glyph glyph-name="yen" unicode="&#xa5;" horiz-adv-x="462" 
d="M61 604v82h152v62q-76 6 -114 54t-38 126v516h37v-479q0 -61 35 -99t98 -37q63 0 99 37q35 37 35 99v479h36v-516q0 -76 -39 -125t-112 -55v-62h151v-82h-151v-102h151v-82h-151v-420h-37v420h-152v82h152v102h-152z" />
    <glyph glyph-name="brokenbar" unicode="&#xa6;" horiz-adv-x="159" 
d="M61 -461v1997h37v-1997h-37z" />
    <glyph glyph-name="dieresis" unicode="&#xa8;" horiz-adv-x="413" 
d="M258 1169v115q0 25 16 25t17 -25v-115q0 -25 -17 -24q-16 -1 -16 24zM123 1169v115q0 25 16 25t17 -25v-115q0 -25 -17 -24q-16 -1 -16 24z" />
    <glyph glyph-name="copyright" unicode="&#xa9;" horiz-adv-x="782" 
d="M524 627h37v-129q0 -82 -43 -131t-127 -49t-127 50t-43 130v673q0 81 43 131t127 50t127 -49t43 -132v-135h-37v76q0 61 -35 98t-98 37t-98 -37t-35 -98v-563q0 -61 35 -98t98 -37t98 37t35 98v78zM104 1155v-641q0 -129 68 -214t220 -85t218 85q68 85 68 214v641
q0 129 -68 214t-220 85t-218 -85q-68 -85 -68 -214zM711 1151v-633q1 -344 -319 -344t-320 344v633q0 344 320 344t319 -344z" />
    <glyph glyph-name="guillemotleft" unicode="&#xab;" horiz-adv-x="475" 
d="M223 571l191 209v-49l-158 -178l158 -178v-49l-191 209v36zM51 571l191 209v-49l-158 -178l158 -178v-49l-191 209v36z" />
    <glyph glyph-name="registered" unicode="&#xae;" horiz-adv-x="782" 
d="M561 317h-37v377q0 59 -30 92q-31 33 -88 33h-148v-502h-37v1035h164q176 0 176 -170v-181q0 -63 -35 -98t-67 -39l-35 -4q87 0 123 -77q14 -32 14 -72v-394zM258 1257v-356h148q119 0 118 125v100q0 57 -32 95q-33 37 -91 36h-143zM104 1155v-641q0 -129 68 -214
t220 -85t218 85q68 85 68 214v641q0 129 -68 214t-220 85t-218 -85q-68 -85 -68 -214zM711 1151v-633q1 -344 -319 -344t-320 344v633q0 344 320 344t319 -344z" />
    <glyph glyph-name="degree" unicode="&#xb0;" horiz-adv-x="370" 
d="M78 1290q0 -49 30 -83q30 -33 78 -33t78 34q29 34 29 82q0 49 -29 82t-78 33q-48 0 -78 -33t-30 -82zM41 1290q0 70 39 112q38 42 106 42t106 -41t38 -113t-38 -114t-106 -41t-106 43t-39 112z" />
    <glyph glyph-name="plusminus" unicode="&#xb1;" horiz-adv-x="430" 
d="M61 522v49h134v211h41v-211h133v-49h-133v-211h-41v211h-134zM61 139v49h308v-49h-308z" />
    <glyph glyph-name="acute" unicode="&#xb4;" horiz-adv-x="380" 
d="M123 1145l98 246h37l-98 -246h-37z" />
    <glyph glyph-name="mu" unicode="&#xb5;" horiz-adv-x="450" 
d="M94 -205h-33v1180h33v-758q0 -69 39 -105t92 -36t92 36t39 105v758h33v-975h-33v68q-18 -31 -27 -39t-31 -23t-73 -16q-95 0 -131 80v-275z" />
    <glyph glyph-name="paragraph" unicode="&#xb6;" horiz-adv-x="544" 
d="M338 -205v953h-70q-88 0 -142 57t-54 149v299q0 83 54 137t142 54h246v-94h-41v-1555h-37v1555h-61v-1555h-37z" />
    <glyph glyph-name="periodcentered" unicode="&#xb7;" horiz-adv-x="159" 
d="M61 528v164q1 25 19 25t18 -25v-164q0 -25 -18 -24q-19 -1 -19 24z" />
    <glyph glyph-name="cedilla" unicode="&#xb8;" horiz-adv-x="387" 
d="M123 0h37v-72q104 0 104 -102t-104 -102h-37v36h37q68 0 67 66q0 66 -67 65h-37v109z" />
    <glyph glyph-name="guillemotright" unicode="&#xbb;" horiz-adv-x="475" 
d="M61 780l191 -209v-36l-191 -209v49l158 178l-158 178v49zM233 780l191 -209v-36l-191 -209v49l158 178l-158 178v49z" />
    <glyph glyph-name="questiondown" unicode="&#xbf;" horiz-adv-x="442" 
d="M283 797v164q0 25 18 24q18 0 18 -24v-164q0 -25 -18 -25t-18 25zM283 401v228h36v-228q-1 -87 -35 -161t-75 -120t-76 -115t-35 -140v-119q0 -61 35 -98t98 -37t99 37q35 37 35 98v64h36v-101q0 -82 -43 -131t-127 -49t-127 50t-43 130v156q0 88 35 161q35 74 76 116
t76 110t35 149z" />
    <glyph glyph-name="Agrave" unicode="&#xc0;" horiz-adv-x="483" 
d="M150 1731l98 -246h-37l-98 246h37zM72 0v1274q0 80 43 130t127 50t127 -49t43 -131v-1274h-37v748h-266v-748h-37zM109 1214v-385h266v385q0 60 -35 98t-98 38t-99 -37q-34 -38 -34 -99z" />
    <glyph glyph-name="Aacute" unicode="&#xc1;" horiz-adv-x="483" 
d="M236 1485l98 246h37l-99 -246h-36zM72 0v1274q0 80 43 130t127 50t127 -49t43 -131v-1274h-37v748h-266v-748h-37zM109 1214v-385h266v385q0 60 -35 98t-98 38t-99 -37q-34 -38 -34 -99z" />
    <glyph glyph-name="Acircumflex" unicode="&#xc2;" horiz-adv-x="483" 
d="M260 1669l127 -184h-43l-102 153l-103 -153h-43l127 184h37zM72 0v1274q0 80 43 130t127 50t127 -49t43 -131v-1274h-37v748h-266v-748h-37zM109 1214v-385h266v385q0 60 -35 98t-98 38t-99 -37q-34 -38 -34 -99z" />
    <glyph glyph-name="Atilde" unicode="&#xc3;" horiz-adv-x="483" 
d="M326 1522q-36 0 -83 -18q-49 -18 -83 -19q-34 0 -66 24v50q30 -29 64 -29t82 18t82 18q33 0 67 -24v-49q-27 29 -63 29zM72 0v1274q0 80 43 130t127 50t127 -49t43 -131v-1274h-37v748h-266v-748h-37zM109 1214v-385h266v385q0 60 -35 98t-98 38t-99 -37q-34 -38 -34 -99
z" />
    <glyph glyph-name="Adieresis" unicode="&#xc4;" horiz-adv-x="483" 
d="M293 1509v115q0 25 16 25t17 -25v-115q0 -25 -17 -24q-16 -1 -16 24zM158 1509v115q0 25 16 25t16 -25v-115q0 -25 -16 -24q-16 -1 -16 24zM72 0v1274q0 80 43 130t127 50t127 -49t43 -131v-1274h-37v748h-266v-748h-37zM109 1214v-385h266v385q0 60 -35 98t-98 38
t-99 -37q-34 -38 -34 -99z" />
    <glyph glyph-name="Aring" unicode="&#xc5;" horiz-adv-x="483" 
d="M186 1583q0 -59 56 -59q27 0 42 16t15 43t-15 44t-41 17q-25 0 -41 -16q-16 -18 -16 -45zM147 1583q0 43 26 70t69 27q44 0 68 -28q24 -26 24 -69t-25 -71t-67 -28t-69 28q-26 28 -26 71zM72 0v1274q0 80 43 130t127 50t127 -49t43 -131v-1274h-37v748h-266v-748h-37z
M109 1214v-385h266v385q0 60 -35 98t-98 38t-99 -37q-34 -38 -34 -99z" />
    <glyph glyph-name="AE" unicode="&#xc6;" horiz-adv-x="735" 
d="M109 1214v-385h266v385q0 60 -35 98t-98 38t-99 -37q-34 -38 -34 -99zM72 0v1274q0 80 43 130t128 50t132 -57v47h340v-94h-303v-521h225v-81h-225v-662h303v-86h-340v748h-266v-748h-37z" />
    <glyph glyph-name="Ccedilla" unicode="&#xc7;" horiz-adv-x="473" 
d="M375 489h37v-319q0 -82 -43 -131t-127 -49v-62q104 0 104 -102t-104 -102h-37v36h37q68 0 67 66q0 66 -67 65h-37v103q-63 8 -99 56q-35 48 -34 120v1104q0 80 43 130t127 50t127 -49t43 -131v-182h-37v122q0 60 -35 98t-98 38q-62 0 -98 -37t-35 -99v-993q1 -61 35 -98
t98 -37t98 37q35 37 35 98v268z" />
    <glyph glyph-name="Egrave" unicode="&#xc8;" horiz-adv-x="432" 
d="M150 1731l98 -246h-37l-98 246h37zM72 0v1444h340v-94h-303v-521h225v-81h-225v-662h303v-86h-340z" />
    <glyph glyph-name="Eacute" unicode="&#xc9;" horiz-adv-x="432" 
d="M236 1485l98 246h37l-99 -246h-36zM72 0v1444h340v-94h-303v-521h225v-81h-225v-662h303v-86h-340z" />
    <glyph glyph-name="Ecircumflex" unicode="&#xca;" horiz-adv-x="432" 
d="M250 1669l127 -184h-43l-103 153l-102 -153h-43l127 184h37zM72 0v1444h340v-94h-303v-521h225v-81h-225v-662h303v-86h-340z" />
    <glyph glyph-name="Edieresis" unicode="&#xcb;" horiz-adv-x="432" 
d="M283 1509v115q0 25 16 25t16 -25v-115q0 -25 -16 -24q-16 -1 -16 24zM147 1509v115q1 25 17 25t16 -25v-115q0 -25 -16 -24q-17 -1 -17 24zM72 0v1444h340v-94h-303v-521h225v-81h-225v-662h303v-86h-340z" />
    <glyph glyph-name="Igrave" unicode="&#xcc;" horiz-adv-x="190" 
d="M6 1731l98 -246h-36l-99 246h37zM72 0v1444h37v-1444h-37z" />
    <glyph glyph-name="Iacute" unicode="&#xcd;" horiz-adv-x="190" 
d="M72 1485l98 246h37l-98 -246h-37zM72 0v1444h37v-1444h-37z" />
    <glyph glyph-name="Icircumflex" unicode="&#xce;" horiz-adv-x="190" 
d="M109 1669l127 -184h-43l-103 153l-102 -153h-43l127 184h37zM72 0v1444h37v-1444h-37z" />
    <glyph glyph-name="Idieresis" unicode="&#xcf;" horiz-adv-x="190" 
d="M141 1509v115q1 25 17 25t16 -25v-115q0 -25 -16 -24q-17 -1 -17 24zM6 1509v115q0 25 16 25t17 -25v-115q0 -25 -16 -24q-17 -1 -17 24zM72 0v1444h37v-1444h-37z" />
    <glyph glyph-name="Eth" unicode="&#xd0;" horiz-adv-x="493" 
d="M129 1350v-521h184v-81h-184v-662h143q55 0 89 35t34 96v1002q0 57 -33 94t-90 37h-143zM31 748v81h61v615h164q176 0 176 -170v-1108q0 -80 -45 -123t-121 -43h-174v748h-61z" />
    <glyph glyph-name="Ntilde" unicode="&#xd1;" horiz-adv-x="462" 
d="M316 1522q-36 0 -84 -18t-82 -19q-34 0 -66 24v50q30 -29 64 -29t82 18t82 18t67 -24v-49q-27 29 -63 29zM61 0v1444h37l267 -277v277h36v-1444h-36v1055l-267 276v-1331h-37z" />
    <glyph glyph-name="Ograve" unicode="&#xd2;" horiz-adv-x="483" 
d="M150 1731l98 -246h-37l-98 246h37zM242 86q63 0 98 37t35 98v993q0 60 -35 98t-98 38q-62 0 -98 -37t-35 -99v-993q0 -61 35 -98t98 -37zM412 1274v-1104q0 -82 -43 -131t-127 -49t-127 50t-43 130v1104q0 80 43 130t127 50t127 -49t43 -131z" />
    <glyph glyph-name="Oacute" unicode="&#xd3;" horiz-adv-x="483" 
d="M236 1485l98 246h37l-99 -246h-36zM242 86q63 0 98 37t35 98v993q0 60 -35 98t-98 38q-62 0 -98 -37t-35 -99v-993q0 -61 35 -98t98 -37zM412 1274v-1104q0 -82 -43 -131t-127 -49t-127 50t-43 130v1104q0 80 43 130t127 50t127 -49t43 -131z" />
    <glyph glyph-name="Ocircumflex" unicode="&#xd4;" horiz-adv-x="483" 
d="M260 1669l127 -184h-43l-102 153l-103 -153h-43l127 184h37zM242 86q63 0 98 37t35 98v993q0 60 -35 98t-98 38q-62 0 -98 -37t-35 -99v-993q0 -61 35 -98t98 -37zM412 1274v-1104q0 -82 -43 -131t-127 -49t-127 50t-43 130v1104q0 80 43 130t127 50t127 -49t43 -131z
" />
    <glyph glyph-name="Otilde" unicode="&#xd5;" horiz-adv-x="483" 
d="M326 1522q-36 0 -83 -18q-49 -18 -83 -19q-34 0 -66 24v50q30 -29 64 -29t82 18t82 18q33 0 67 -24v-49q-27 29 -63 29zM242 86q63 0 98 37t35 98v993q0 60 -35 98t-98 38q-62 0 -98 -37t-35 -99v-993q0 -61 35 -98t98 -37zM412 1274v-1104q0 -82 -43 -131t-127 -49
t-127 50t-43 130v1104q0 80 43 130t127 50t127 -49t43 -131z" />
    <glyph glyph-name="Odieresis" unicode="&#xd6;" horiz-adv-x="483" 
d="M293 1509v115q0 25 16 25t17 -25v-115q0 -25 -17 -24q-16 -1 -16 24zM158 1509v115q0 25 16 25t16 -25v-115q0 -25 -16 -24q-16 -1 -16 24zM242 86q63 0 98 37t35 98v993q0 60 -35 98t-98 38q-62 0 -98 -37t-35 -99v-993q0 -61 35 -98t98 -37zM412 1274v-1104
q0 -82 -43 -131t-127 -49t-127 50t-43 130v1104q0 80 43 130t127 50t127 -49t43 -131z" />
    <glyph glyph-name="multiply" unicode="&#xd7;" horiz-adv-x="440" 
d="M61 725h50l110 -150l111 150h47l-133 -178l133 -178h-47l-111 149l-110 -149h-50l136 178z" />
    <glyph glyph-name="Oslash" unicode="&#xd8;" horiz-adv-x="483" 
d="M109 1214v-872l256 932q-6 24 -43 50q-36 26 -90 26t-89 -37q-34 -38 -34 -99zM244 86q61 0 96 37t35 98v957l-266 -969q4 -55 39 -89t96 -34zM254 1454q96 0 137 -84l35 125h37l-53 -192q2 -11 2 -29v-1104q0 -82 -43 -131t-126 -49t-120 41t-43 75l-43 -157h-37l72 260
v1065q0 80 43 130t139 50z" />
    <glyph glyph-name="Ugrave" unicode="&#xd9;" horiz-adv-x="483" 
d="M150 1731l98 -246h-37l-98 246h37zM375 1444h37v-1274q0 -82 -43 -131t-127 -49t-127 50t-43 130v1274h37v-1223q1 -61 35 -98t98 -37t98 37q35 37 35 98v1223z" />
    <glyph glyph-name="Uacute" unicode="&#xda;" horiz-adv-x="483" 
d="M236 1485l98 246h37l-99 -246h-36zM375 1444h37v-1274q0 -82 -43 -131t-127 -49t-127 50t-43 130v1274h37v-1223q1 -61 35 -98t98 -37t98 37q35 37 35 98v1223z" />
    <glyph glyph-name="Ucircumflex" unicode="&#xdb;" horiz-adv-x="483" 
d="M260 1669l127 -184h-43l-102 153l-103 -153h-43l127 184h37zM375 1444h37v-1274q0 -82 -43 -131t-127 -49t-127 50t-43 130v1274h37v-1223q1 -61 35 -98t98 -37t98 37q35 37 35 98v1223z" />
    <glyph glyph-name="Udieresis" unicode="&#xdc;" horiz-adv-x="483" 
d="M293 1509v115q0 25 16 25t17 -25v-115q0 -25 -17 -24q-16 -1 -16 24zM158 1509v115q0 25 16 25t16 -25v-115q0 -25 -16 -24q-16 -1 -16 24zM375 1444h37v-1274q0 -82 -43 -131t-127 -49t-127 50t-43 130v1274h37v-1223q1 -61 35 -98t98 -37t98 37q35 37 35 98v1223z" />
    <glyph glyph-name="Yacute" unicode="&#xdd;" horiz-adv-x="462" 
d="M225 1485l99 246h36l-98 -246h-37zM213 0v748q-76 6 -114 54t-38 126v516h37v-479q0 -61 35 -99t98 -37q63 0 99 37q35 37 35 99v479h36v-516q0 -76 -39 -125t-112 -55v-748h-37z" />
    <glyph glyph-name="Thorn" unicode="&#xde;" horiz-adv-x="462" 
d="M61 1444h37v-258h127q176 0 176 -170v-340q0 -186 -176 -187h-127v-489h-37v1444zM98 1092v-521h144q57 0 90 36t33 100v254q0 57 -33 94t-90 37h-144z" />
    <glyph glyph-name="germandbls" unicode="&#xdf;" horiz-adv-x="491" 
d="M420 166q0 -82 -43 -124t-119 -42h-74v76h80q55 0 89 35t34 96v416q0 59 -31 92t-88 33h-84v81h84q119 0 119 125v316q0 55 -36 93t-95 38t-95 -38t-36 -93v-1270h-33v748h-61v81h61v496q0 82 45 126t119 44t119 -44t45 -126v-395q0 -55 -28 -89t-52 -42t-45 -11
q122 -17 125 -149v-473z" />
    <glyph glyph-name="agrave" unicode="&#xe0;" 
d="M150 1391l98 -246h-37l-98 246h37zM236 76q53 0 92 36t39 105v533q0 68 -35 104t-96 37q-60 0 -96 -37t-36 -104v-533q0 -69 40 -105t92 -36zM367 0v70q-7 -26 -46 -54q-39 -26 -100 -26t-105 46t-44 134v635q0 86 42 133t106 47t98 -19q32 -19 40 -40l9 -21v70h32v-975
h-32z" />
    <glyph glyph-name="aacute" unicode="&#xe1;" 
d="M223 1145l99 246h36l-98 -246h-37zM236 76q53 0 92 36t39 105v533q0 68 -35 104t-96 37q-60 0 -96 -37t-36 -104v-533q0 -69 40 -105t92 -36zM367 0v70q-7 -26 -46 -54q-39 -26 -100 -26t-105 46t-44 134v635q0 86 42 133t106 47t98 -19q32 -19 40 -40l9 -21v70h32v-975
h-32z" />
    <glyph glyph-name="acircumflex" unicode="&#xe2;" 
d="M254 1329l127 -184h-43l-102 153l-103 -153h-43l127 184h37zM236 76q53 0 92 36t39 105v533q0 68 -35 104t-96 37q-60 0 -96 -37t-36 -104v-533q0 -69 40 -105t92 -36zM367 0v70q-7 -26 -46 -54q-39 -26 -100 -26t-105 46t-44 134v635q0 86 42 133t106 47t98 -19
q32 -19 40 -40l9 -21v70h32v-975h-32z" />
    <glyph glyph-name="atilde" unicode="&#xe3;" 
d="M152 1165q34 1 82 19t82 18t67 -24v-50q-27 29 -63 29t-83 -18q-48 -19 -82 -19t-67 25v49q30 -29 64 -29zM236 76q53 0 92 36t39 105v533q0 68 -35 104t-96 37q-60 0 -96 -37t-36 -104v-533q0 -69 40 -105t92 -36zM367 0v70q-7 -26 -46 -54q-39 -26 -100 -26t-105 46
t-44 134v635q0 86 42 133t106 47t98 -19q32 -19 40 -40l9 -21v70h32v-975h-32z" />
    <glyph glyph-name="adieresis" unicode="&#xe4;" 
d="M287 1169v115q0 25 16 25t16 -25v-115q0 -25 -16 -24q-16 -1 -16 24zM152 1169v115q0 25 16 25t16 -25v-115q0 -25 -16 -24q-16 -1 -16 24zM236 76q53 0 92 36t39 105v533q0 68 -35 104t-96 37q-60 0 -96 -37t-36 -104v-533q0 -69 40 -105t92 -36zM367 0v70
q-7 -26 -46 -54q-39 -26 -100 -26t-105 46t-44 134v635q0 86 42 133t106 47t98 -19q32 -19 40 -40l9 -21v70h32v-975h-32z" />
    <glyph glyph-name="aring" unicode="&#xe5;" 
d="M180 1243q0 -59 56 -59q27 0 42 16t15 43t-15 44t-41 17q-25 0 -41 -16q-16 -18 -16 -45zM141 1243q0 43 26 70t69 27q44 0 68 -28q24 -26 24 -69t-25 -71t-67 -28t-69 28q-26 28 -26 71zM236 76q53 0 92 36t39 105v533q0 68 -35 104t-96 37q-60 0 -96 -37t-36 -104v-533
q0 -69 40 -105t92 -36zM367 0v70q-7 -26 -46 -54q-39 -26 -100 -26t-105 46t-44 134v635q0 86 42 133t106 47t98 -19q32 -19 40 -40l9 -21v70h32v-975h-32z" />
    <glyph glyph-name="ae" unicode="&#xe6;" horiz-adv-x="765" 
d="M399 571h263v179q0 66 -36 104t-96 37q-60 0 -96 -37q-35 -37 -35 -104v-179zM236 76q53 0 92 36t39 105v533q0 68 -35 104t-96 37q-60 0 -96 -37t-36 -104v-533q0 -69 40 -105t92 -36zM694 489h-295v-272q0 -69 39 -105t92 -36t93 36q39 36 39 105v86h32v-133
q0 -88 -44 -134t-104 -46q-103 0 -136 59l-11 21v-70h-32v70q-3 -8 -11 -22t-42 -36q-34 -23 -78 -22q-76 0 -120 46t-44 134v635q0 86 42 133t126 47t125 -72l2 -8v70h32v-70q16 31 52 56q37 25 79 24q80 0 122 -47t42 -133v-316z" />
    <glyph glyph-name="ccedilla" unicode="&#xe7;" horiz-adv-x="460" 
d="M399 674h-32v76q0 66 -36 104t-96 37q-59 0 -95 -37t-36 -104v-533q0 -69 39 -105t93 -36t92 36q39 36 39 105v86h32v-133q0 -86 -44 -132t-117 -48v-62q104 0 104 -102t-104 -102h-37v36h37q68 0 67 66q0 66 -67 65h-37v103q-129 20 -129 176v635q0 86 42 133t122 47
t122 -47t41 -133v-131z" />
    <glyph glyph-name="egrave" unicode="&#xe8;" 
d="M150 1391l98 -246h-37l-98 246h37zM104 750v-179h263v179q0 66 -36 104t-96 37q-59 -1 -95 -37t-36 -104zM399 489h-295v-272q0 -69 39 -105t93 -36t92 36q39 36 39 105v86h32v-133q0 -88 -44 -134q-43 -46 -119 -46t-120 46t-44 134v635q0 86 42 133t122 47t122 -47
t41 -133v-316z" />
    <glyph glyph-name="eacute" unicode="&#xe9;" 
d="M223 1145l99 246h36l-98 -246h-37zM104 750v-179h263v179q0 66 -36 104t-96 37q-59 -1 -95 -37t-36 -104zM399 489h-295v-272q0 -69 39 -105t93 -36t92 36q39 36 39 105v86h32v-133q0 -88 -44 -134q-43 -46 -119 -46t-120 46t-44 134v635q0 86 42 133t122 47t122 -47
t41 -133v-316z" />
    <glyph glyph-name="ecircumflex" unicode="&#xea;" 
d="M254 1329l127 -184h-43l-102 153l-103 -153h-43l127 184h37zM104 750v-179h263v179q0 66 -36 104t-96 37q-59 -1 -95 -37t-36 -104zM399 489h-295v-272q0 -69 39 -105t93 -36t92 36q39 36 39 105v86h32v-133q0 -88 -44 -134q-43 -46 -119 -46t-120 46t-44 134v635
q0 86 42 133t122 47t122 -47t41 -133v-316z" />
    <glyph glyph-name="edieresis" unicode="&#xeb;" 
d="M287 1169v115q0 25 16 25t16 -25v-115q0 -25 -16 -24q-16 -1 -16 24zM152 1169v115q0 25 16 25t16 -25v-115q0 -25 -16 -24q-16 -1 -16 24zM104 750v-179h263v179q0 66 -36 104t-96 37q-59 -1 -95 -37t-36 -104zM399 489h-295v-272q0 -69 39 -105t93 -36t92 36
q39 36 39 105v86h32v-133q0 -88 -44 -134q-43 -46 -119 -46t-120 46t-44 134v635q0 86 42 133t122 47t122 -47t41 -133v-316z" />
    <glyph glyph-name="igrave" unicode="&#xec;" horiz-adv-x="155" 
d="M-4 1391l98 -246h-37l-98 246h37zM61 0v975h33v-975h-33z" />
    <glyph glyph-name="iacute" unicode="&#xed;" horiz-adv-x="155" 
d="M61 1145l99 246h37l-99 -246h-37zM61 0v975h33v-975h-33z" />
    <glyph glyph-name="icircumflex" unicode="&#xee;" horiz-adv-x="155" 
d="M96 1329l127 -184h-43l-102 153l-103 -153h-43l127 184h37zM61 0v975h33v-975h-33z" />
    <glyph glyph-name="idieresis" unicode="&#xef;" horiz-adv-x="167" 
d="M135 1169v115q1 25 17 25t16 -25v-115q0 -25 -16 -24q-17 -1 -17 24zM0 1169v115q0 25 16 25t17 -25v-115q0 -25 -17 -24q-16 -1 -16 24zM68 0v975h32v-975h-32z" />
    <glyph glyph-name="eth" unicode="&#xf0;" 
d="M236 76q53 0 92 36t39 105v533q0 68 -35 104t-96 37q-60 0 -96 -37t-36 -104v-533q0 -69 40 -105t92 -36zM399 0h-32v68l-2 -7q-3 -4 -7 -9t-9 -12q-36 -50 -112 -50q-77 0 -121 46t-44 134v635q0 86 42 133t106 47t100 -23q37 -23 47 -57v70q0 98 -23 188l-145 -55v37
l135 53q-50 164 -113 252l-22 35h37q84 -104 131 -275l94 37v-37l-86 -34q25 -104 24 -201v-975z" />
    <glyph glyph-name="ntilde" unicode="&#xf1;" 
d="M314 1157q-36 0 -84 -18q-48 -19 -81 -19t-67 25v49q30 -29 64 -29q34 1 82 19t82 18t67 -24v-50q-27 29 -63 29zM104 0h-32v975h32v-70l9 21q8 20 41 40q34 20 98 19q64 0 106 -47t41 -133v-805h-32v750q0 68 -35 104t-96 37q-60 0 -96 -37t-36 -104v-750z" />
    <glyph glyph-name="ograve" unicode="&#xf2;" 
d="M150 1391l98 -246h-37l-98 246h37zM236 76q53 0 92 36t39 105v533q0 68 -35 104t-96 37q-60 0 -96 -37t-36 -104v-533q0 -69 40 -105t92 -36zM399 805v-635q0 -88 -44 -134q-43 -46 -119 -46t-120 46t-44 134v635q0 86 42 133t122 47t122 -47t41 -133z" />
    <glyph glyph-name="oacute" unicode="&#xf3;" 
d="M223 1145l99 246h36l-98 -246h-37zM236 76q53 0 92 36t39 105v533q0 68 -35 104t-96 37q-60 0 -96 -37t-36 -104v-533q0 -69 40 -105t92 -36zM399 805v-635q0 -88 -44 -134q-43 -46 -119 -46t-120 46t-44 134v635q0 86 42 133t122 47t122 -47t41 -133z" />
    <glyph glyph-name="ocircumflex" unicode="&#xf4;" 
d="M254 1329l127 -184h-43l-102 153l-103 -153h-43l127 184h37zM236 76q53 0 92 36t39 105v533q0 68 -35 104t-96 37q-60 0 -96 -37t-36 -104v-533q0 -69 40 -105t92 -36zM399 805v-635q0 -88 -44 -134q-43 -46 -119 -46t-120 46t-44 134v635q0 86 42 133t122 47t122 -47
t41 -133z" />
    <glyph glyph-name="otilde" unicode="&#xf5;" 
d="M152 1165q34 1 82 19t82 18t67 -24v-50q-27 29 -63 29t-83 -18q-48 -19 -82 -19t-67 25v49q30 -29 64 -29zM236 76q53 0 92 36t39 105v533q0 68 -35 104t-96 37q-60 0 -96 -37t-36 -104v-533q0 -69 40 -105t92 -36zM399 805v-635q0 -88 -44 -134q-43 -46 -119 -46
t-120 46t-44 134v635q0 86 42 133t122 47t122 -47t41 -133z" />
    <glyph glyph-name="odieresis" unicode="&#xf6;" 
d="M287 1169v115q0 25 16 25t16 -25v-115q0 -25 -16 -24q-16 -1 -16 24zM152 1169v115q0 25 16 25t16 -25v-115q0 -25 -16 -24q-16 -1 -16 24zM236 76q53 0 92 36t39 105v533q0 68 -35 104t-96 37q-60 0 -96 -37t-36 -104v-533q0 -69 40 -105t92 -36zM399 805v-635
q0 -88 -44 -134q-43 -46 -119 -46t-120 46t-44 134v635q0 86 42 133t122 47t122 -47t41 -133z" />
    <glyph glyph-name="divide" unicode="&#xf7;" horiz-adv-x="430" 
d="M61 522v49h308v-49h-308zM197 252v164q0 25 18 24q18 0 18 -24v-164q0 -25 -18 -25t-18 25zM197 678v164q0 25 18 24q18 0 18 -24v-164q0 -25 -18 -25t-18 25z" />
    <glyph glyph-name="oslash" unicode="&#xf8;" 
d="M104 750v-531l238 621q-27 51 -97 51q-141 0 -141 -141zM242 76q47 0 86 36t39 105v533l-5 47l-247 -643q7 -29 44 -54q36 -24 83 -24zM399 805v-635q0 -88 -44 -134t-108 -46q-63 0 -101 22t-48 45l-10 25l-51 -133h-37l74 190q-2 8 -2 31v635q0 86 42 133t106 47
t98 -17t42 -34l11 -19l43 111h37l-60 -154q8 -28 8 -67z" />
    <glyph glyph-name="ugrave" unicode="&#xf9;" 
d="M150 1391l98 -246h-37l-98 246h37zM367 217v758h32v-975h-32v70q-7 -26 -46 -54q-39 -26 -100 -26t-105 46t-44 134v805h32v-758q0 -69 39 -105t93 -36t92 36q39 36 39 105z" />
    <glyph glyph-name="uacute" unicode="&#xfa;" 
d="M223 1145l99 246h36l-98 -246h-37zM367 217v758h32v-975h-32v70q-7 -26 -46 -54q-39 -26 -100 -26t-105 46t-44 134v805h32v-758q0 -69 39 -105t93 -36t92 36q39 36 39 105z" />
    <glyph glyph-name="ucircumflex" unicode="&#xfb;" 
d="M254 1329l127 -184h-43l-102 153l-103 -153h-43l127 184h37zM367 217v758h32v-975h-32v70q-7 -26 -46 -54q-39 -26 -100 -26t-105 46t-44 134v805h32v-758q0 -69 39 -105t93 -36t92 36q39 36 39 105z" />
    <glyph glyph-name="udieresis" unicode="&#xfc;" 
d="M287 1169v115q0 25 16 25t16 -25v-115q0 -25 -16 -24q-16 -1 -16 24zM152 1169v115q0 25 16 25t16 -25v-115q0 -25 -16 -24q-16 -1 -16 24zM367 217v758h32v-975h-32v70q-7 -26 -46 -54q-39 -26 -100 -26t-105 46t-44 134v805h32v-758q0 -69 39 -105t93 -36t92 36
q39 36 39 105z" />
    <glyph glyph-name="yacute" unicode="&#xfd;" 
d="M223 1145l99 246h36l-98 -246h-37zM236 -471q-44 0 -84 20v95q29 -29 86 -29t93 39t36 102v312l-2 -7q-3 -4 -7 -9t-9 -12q-36 -50 -112 -50q-77 0 -121 46t-44 134v805h32v-758q0 -69 39 -105t93 -36t92 36q39 36 39 105v758h32v-1272q0 -78 -42 -126t-121 -48z" />
    <glyph glyph-name="thorn" unicode="&#xfe;" horiz-adv-x="450" 
d="M225 76q53 0 92 36t39 105v533q0 68 -34 104t-96 37q-62 0 -97 -37t-35 -104v-533q0 -69 39 -105t92 -36zM389 170q0 -180 -174 -180q-86 0 -121 80v-531h-33v1946h33v-580q0 22 35 51t105 29q71 0 113 -47t42 -133v-635z" />
    <glyph glyph-name="ydieresis" unicode="&#xff;" 
d="M287 1169v115q0 25 16 25t16 -25v-115q0 -25 -16 -24q-16 -1 -16 24zM152 1169v115q0 25 16 25t16 -25v-115q0 -25 -16 -24q-16 -1 -16 24zM236 -471q-44 0 -84 20v95q29 -29 86 -29t93 39t36 102v312l-2 -7q-3 -4 -7 -9t-9 -12q-36 -50 -112 -50q-77 0 -121 46t-44 134
v805h32v-758q0 -69 39 -105t93 -36t92 36q39 36 39 105v758h32v-1272q0 -78 -42 -126t-121 -48z" />
    <glyph glyph-name="OE" unicode="&#x152;" horiz-adv-x="745" 
d="M231 86q63 0 99 37q35 37 35 98v993q0 60 -35 98q-34 38 -98 38t-99 -37t-35 -99v-993q0 -61 35 -98t98 -37zM365 0v45q-45 -55 -131 -55t-130 50q-43 50 -43 130v1104q0 80 43 130t128 50t133 -57v47h340v-94h-304v-521h226v-81h-226v-662h304v-86h-340z" />
    <glyph glyph-name="oe" unicode="&#x153;" horiz-adv-x="765" 
d="M399 750v-179h263v179q0 66 -36 104t-96 37t-96 -37q-35 -36 -35 -104zM236 76q53 0 92 36t39 105v533q0 68 -35 104t-96 37q-60 0 -96 -37t-36 -104v-533q0 -69 40 -105t92 -36zM694 489h-295v-272q0 -69 39 -105t92 -36t93 36q39 36 39 105v86h32v-133q0 -88 -44 -134
t-120 -46q-111 0 -147 88q-41 -88 -147 -88q-76 0 -120 46t-44 134v635q0 86 42 133t122 47q109 0 147 -88q37 88 147 88q80 0 122 -47t42 -133v-316z" />
    <glyph glyph-name="Scaron" unicode="&#x160;" horiz-adv-x="483" 
d="M387 1669l-127 -184h-37l-127 184h43l103 -153l102 153h43zM72 1040v234q0 80 43 130t127 50t127 -49t43 -131v-182h-37v122q0 60 -35 98t-98 38q-62 0 -98 -37t-35 -99v-174q0 -109 106 -203q45 -40 90 -81q107 -97 107 -230v-356q0 -80 -43 -130t-127 -50t-127 49
t-43 131v319h37v-268q1 -61 35 -98t98 -37t98 37q35 37 35 98v305q0 112 -107 205q-45 39 -90 79q-106 94 -106 230z" />
    <glyph glyph-name="scaron" unicode="&#x161;" 
d="M381 1329l-127 -184h-37l-127 184h43l103 -153l102 153h43zM367 674v76q0 66 -36 104t-96 37q-59 0 -95 -37t-36 -104v-33q0 -76 46 -129t102 -79q55 -26 101 -76t46 -120v-143q0 -88 -44 -134q-43 -46 -119 -46t-120 46t-44 134v133h32v-86q0 -69 39 -105t93 -36t92 36
q39 36 39 105v86q0 94 -105 157q-43 26 -86 54q-106 70 -104 201v90q0 86 42 133t122 47t122 -47t41 -133v-131h-32z" />
    <glyph glyph-name="Ydieresis" unicode="&#x178;" horiz-adv-x="462" 
d="M283 1509v115q0 25 16 25t16 -25v-115q0 -25 -16 -24q-16 -1 -16 24zM147 1509v115q1 25 17 25t16 -25v-115q0 -25 -16 -24q-17 -1 -17 24zM213 0v748q-76 6 -114 54t-38 126v516h37v-479q0 -61 35 -99t98 -37q63 0 99 37q35 37 35 99v479h36v-516q0 -76 -39 -125
t-112 -55v-748h-37z" />
    <glyph glyph-name="Zcaron" unicode="&#x17d;" horiz-adv-x="421" 
d="M367 1669l-127 -184h-37l-127 184h43l102 -153l103 153h43zM391 86v-86h-340v86l301 1264h-301v94h340v-94l-299 -1264h299z" />
    <glyph glyph-name="zcaron" unicode="&#x17e;" horiz-adv-x="450" 
d="M371 1329l-127 -184h-37l-127 184h43l102 -153l103 153h43zM61 881v94h328v-94l-295 -795h295v-86h-328v86l295 795h-295z" />
    <glyph glyph-name="circumflex" unicode="&#x2c6;" horiz-adv-x="536" 
d="M287 1329l127 -184h-43l-103 153l-102 -153h-43l127 184h37z" />
    <glyph glyph-name="caron" unicode="&#x2c7;" horiz-adv-x="536" 
d="M414 1329l-127 -184h-37l-127 184h43l102 -153l103 153h43z" />
    <glyph glyph-name="ring" unicode="&#x2da;" horiz-adv-x="432" 
d="M162 1243q0 -59 55 -59q27 0 42 16t15 43t-15 44t-41 17t-41 -16q-15 -18 -15 -45zM123 1243q0 43 25 70q26 27 69 27t68 -28q25 -26 25 -69t-26 -71q-24 -28 -67 -28t-69 28q-25 28 -25 71z" />
    <glyph glyph-name="tilde" unicode="&#x2dc;" horiz-adv-x="540" 
d="M356 1157q-36 0 -84 -18q-48 -19 -82 -19q-33 0 -67 25v49q29 -29 63 -29q34 1 83 19t83 18t66 -24v-50q-26 29 -62 29z" />
    <glyph glyph-name="endash" unicode="&#x2013;" horiz-adv-x="450" 
d="M61 522v49h328v-49h-328z" />
    <glyph glyph-name="emdash" unicode="&#x2014;" horiz-adv-x="745" 
d="M61 522v49h623v-49h-623z" />
    <glyph glyph-name="quoteleft" unicode="&#x2018;" horiz-adv-x="139" 
d="M78 1282v-72q0 -25 -19 -24q-18 0 -18 24v72q0 84 13 148t28 86l12 20l25 -29q-41 -53 -41 -225z" />
    <glyph glyph-name="quoteright" unicode="&#x2019;" horiz-adv-x="139" 
d="M61 1399v71q1 25 19 25t18 -25v-71q0 -83 -13 -147t-28 -85l-12 -22l-25 29q41 53 41 225z" />
    <glyph glyph-name="quotesinglbase" unicode="&#x201a;" horiz-adv-x="139" 
d="M61 106v72q1 25 19 25t18 -25v-72q0 -84 -13 -147t-28 -86l-12 -20l-25 28q41 53 41 225z" />
    <glyph glyph-name="quotedblleft" unicode="&#x201c;" horiz-adv-x="278" 
d="M217 1241v-72q0 -25 -18 -24q-18 0 -19 24v72q0 83 14 147t27 87l12 20l25 -29q-41 -53 -41 -225zM78 1241v-72q0 -25 -19 -24q-18 0 -18 24v72q0 83 13 147t28 87l12 20l25 -29q-41 -53 -41 -225z" />
    <glyph glyph-name="quotedblright" unicode="&#x201d;" horiz-adv-x="278" 
d="M201 1399v71q0 25 18 25t19 -25v-71q0 -83 -14 -147t-27 -85l-13 -22l-24 29q41 53 41 225zM61 1399v71q1 25 19 25t18 -25v-71q0 -83 -13 -147t-28 -85l-12 -22l-25 29q41 53 41 225z" />
    <glyph glyph-name="quotedblbase" unicode="&#x201e;" horiz-adv-x="278" 
d="M201 106v72q0 25 18 25t19 -25v-72q0 -84 -14 -147t-27 -86l-13 -20l-24 28q41 53 41 225zM61 106v72q1 25 19 25t18 -25v-72q0 -84 -13 -147t-28 -86l-12 -20l-25 28q41 53 41 225z" />
    <glyph glyph-name="bullet" unicode="&#x2022;" horiz-adv-x="221" 
d="M61 561v98q0 57 50 58q49 0 49 -58v-98q0 -57 -50 -57t-49 57z" />
    <glyph glyph-name="ellipsis" unicode="&#x2026;" horiz-adv-x="356" 
d="M279 14v164q0 25 18 25t18 -25v-164q0 -25 -18 -24q-18 -1 -18 24zM160 14v164q0 25 18 25t19 -25v-164q0 -25 -19 -24q-18 -1 -18 24zM41 14v164q0 25 18 25t19 -25v-164q0 -25 -19 -24q-18 -1 -18 24z" />
    <glyph glyph-name="guilsinglleft" unicode="&#x2039;" horiz-adv-x="303" 
d="M51 571l191 209v-49l-158 -178l158 -178v-49l-191 209v36z" />
    <glyph glyph-name="guilsinglright" unicode="&#x203a;" horiz-adv-x="303" 
d="M61 780l191 -209v-36l-191 -209v49l158 178l-158 178v49z" />
    <glyph glyph-name="Euro" unicode="&#x20ac;" horiz-adv-x="483" 
d="M41 809v82h41v383q0 80 43 130t127 50t127 -49t43 -131v-182h-37v122q0 60 -35 98t-98 38t-98 -37t-35 -99v-323h225v-82h-225v-102h225v-82h-225v-404q0 -61 35 -98t98 -37t98 37t35 98v268h37v-319q0 -82 -43 -131t-127 -49t-127 50t-43 130v455h-41v82h41v102h-41z
" />
    </font>
</defs>
</svg>
