<?xml version="1.0" standalone="no"?>
<!DOCTYPE svg PUBLIC "-//W3C//DTD SVG 1.1//EN" "http://www.w3.org/Graphics/SVG/1.1/DTD/svg11.dtd" >
<svg xmlns="http://www.w3.org/2000/svg">
<metadata>
Created by FontPrep 20130207 at Thu Jun 19 23:08:33 2014
 By Diego Escares
Copyright (c) 2007 Mariana Sa'nchez. Editada por Javier Quintana para el cata'logo del proyecto acade'mico www.esostiposdelautem.cl
</metadata>
<defs>
<font id="4c32e9b9ee9ce5955fd81a1b895c028f" horiz-adv-x='1024' >
  <font-face 
    font-family="dfdAnimita"
    font-weight="400"
    font-stretch="normal"
    units-per-em="2048"
    panose-1="2 0 0 0 0 0 0 0 0 0"
    ascent="1536"
    descent="-512"
    x-height="993"
    cap-height="1430"
    bbox="-123 -621 1511 1766"
    underline-thickness="102"
    underline-position="-102"
    unicode-range="U+0020-20AC"
  />
<missing-glyph horiz-adv-x="389" 
 />
    <glyph glyph-name=".notdef" horiz-adv-x="389" 
 />
    <glyph glyph-name=".null" horiz-adv-x="0" 
 />
    <glyph glyph-name="nonmarkingreturn" horiz-adv-x="681" 
 />
    <glyph glyph-name="space" unicode=" " horiz-adv-x="368" 
 />
    <glyph glyph-name="exclam" unicode="!" horiz-adv-x="303" 
d="M82 53q0 25 21 41q47 35 80 2q15 -14 16 -30q0 -61 -58 -66q-59 14 -59 53zM221 1483q0 -5 -5 -17q-40 -92 -40 -428l-16 -716q-2 -6 -13 -6t-12 10l10 819q-1 232 11 277t25 53t40 8z" />
    <glyph glyph-name="quotedbl" unicode="&#x22;" horiz-adv-x="376" 
d="M219 1412q0 24 15 40t40 16q61 0 62 -104q0 -135 -92 -242q-8 2 -8 10t19 32q58 72 58 165l-8 57q-6 -33 -39 -32q-18 0 -33 17q-14 17 -14 41zM41 1412q0 24 15 40t40 16q61 0 62 -104q0 -135 -92 -242q-21 5 5 36q64 77 64 171l-8 57q-6 -33 -39 -32q-18 0 -33 17
q-14 17 -14 41z" />
    <glyph glyph-name="numbersign" unicode="#" horiz-adv-x="913" 
d="M342 568q0 -22 -12 -142l63 -4l166 4q12 117 10 125l9 90q-109 4 -129 0q-53 0 -103 -2q-4 -49 -4 -71zM311 514q0 22 13 125q-86 -2 -207 -2q-6 4 -6 17t12 18h203l22 258q25 0 31 -8q0 -4 -29 -250l232 2q25 221 24 250q4 6 18 6t15 -9q2 -9 -27 -249q164 -4 211 -4
q8 -6 8 -31q-2 0 -221 4q-12 -91 -12 -135t-6 -80h199q12 -4 12 -18l-6 -17q-125 0 -211 2q-31 -229 -31 -258q-6 -8 -31 -8q-2 23 29 266q-86 4 -93 5t-132 -3q-27 -231 -27 -256q-4 -12 -18 -12l-17 6q0 27 31 262q-213 -4 -215 -4q0 25 8 31l211 2q10 68 10 90z" />
    <glyph glyph-name="dollar" unicode="$" horiz-adv-x="583" 
d="M88 881q0 -84 44 -156t124 -158l6 506q-88 0 -131 -54t-43 -138zM469 187q0 123 -84 220q-27 31 -65 67t-44 42l5 -508q102 2 145 51t43 128zM51 886q-1 82 59 153t152 83q2 119 2 228q8 16 19 16l26 -8q0 -33 -8 -234q74 -2 134 -65t61 -117q0 -12 -12 -22t-25 -11
q-15 31 -20 43q-29 71 -61 89q-9 5 -26 15t-53 15l-18 -516q12 -14 52 -53q40 -40 54 -56t48 -56t51 -88q16 -48 16 -77q0 -117 -56 -185t-165 -69v-270q-20 0 -33 16l8 138v116q-84 5 -136 65t-66 116t-13 108q0 51 35 51q10 -8 10 -41q0 -254 170 -262l-4 518
q-68 68 -100 105q-33 37 -67 105t-34 150z" />
    <glyph glyph-name="percent" unicode="%" horiz-adv-x="1150" 
d="M387 1380q-211 0 -211 -299q0 -123 47 -209t129 -86q121 0 172 68t51 232t-50 228q-50 66 -138 66zM154 1063q0 360 227 360q117 0 171 -92t54 -289q0 -125 -70 -213t-168 -88t-156 81t-58 241zM850 616q-211 0 -211 -299q0 -123 47 -209t129 -85q121 -1 172 67t51 232
t-50 228q-50 66 -138 66zM616 299q0 360 228 360q117 0 171 -92t54 -288q0 -125 -70 -213t-168 -88q-99 0 -157 80q-58 81 -58 241zM1044 1448q0 -20 -54 -114t-187 -318q-133 -223 -246 -424t-253 -434t-159 -246q-2 2 -7 4q-15 6 -15 23q246 368 388 621t216 382t182 321
t125 205q10 0 10 -20z" />
    <glyph glyph-name="ampersand" unicode="&#x26;" horiz-adv-x="960" 
d="M414 1401q-64 0 -125 -68q-61 -67 -61 -179t40 -200q41 -88 92 -137q264 152 265 371q0 43 -22 99t-52 61q-12 2 -42 28q-31 26 -95 25zM197 84q33 0 86 -27t90 -26q75 0 141 81t96 162l29 82q-16 33 -76 103q-59 70 -92 137l-121 154q-61 -33 -97 -58
q-118 -82 -156 -194q-23 -72 -23 -163t42 -171t81 -80zM323 -12q-131 0 -207 96t-75 242q0 328 283 471q-133 143 -134 348q0 287 277 287q84 0 135 -66t51 -196t-90 -242q-90 -113 -172 -156q8 -10 63 -77t99 -146l102 -156l66 213q80 249 124 296t87 34t52 -38l11 -32
q0 -25 -18 -39q-13 -1 -31 13t-18 30q0 33 -39 33q-74 0 -156 -356q-10 -44 -55 -185q43 -82 129 -176q57 -78 133 -146t82 -77q-98 0 -238 191q-6 8 -61 81t-57 89q-70 -180 -141 -258t-202 -78z" />
    <glyph glyph-name="quotesingle" unicode="'" horiz-adv-x="198" 
d="M41 1412q0 24 15 40t40 16q61 0 62 -104q0 -135 -92 -242q-21 5 5 36q64 77 64 171l-8 57q-6 -33 -39 -32q-18 0 -33 17q-14 17 -14 41z" />
    <glyph glyph-name="parenleft" unicode="(" horiz-adv-x="432" 
d="M365 -471q-43 0 -119 121q-76 122 -140 368t-65 423q0 416 95 653q49 122 95 200t56 99q39 76 86 75q18 0 18 -20q0 -14 -20 -18q-47 -10 -117 -136t-129 -344q-59 -219 -59 -434q0 -596 270 -915q27 -27 41 -36t14 -16q0 -20 -26 -20z" />
    <glyph glyph-name="parenright" unicode=")" horiz-adv-x="432" 
d="M391 441q-1 -177 -65 -424t-140 -367t-118 -121q-27 0 -27 20q-1 5 21 21t34 31q270 319 271 915q0 215 -60 434q-59 219 -129 344t-117 136q-20 4 -20 18q0 20 18 20q47 0 86 -75q10 -20 56 -99t99 -211t72 -299q19 -166 19 -343z" />
    <glyph glyph-name="asterisk" unicode="*" horiz-adv-x="579" 
d="M303 1436q0 -43 -1 -87t-1 -81q12 10 58 61t94 82q6 -3 -16 -27q-23 -24 -31 -33t-42 -40t-53 -49h127q8 -2 33 -1t27 -4q-14 -14 -61 -14t-130 4q137 -126 142 -147q-11 0 -55 42t-62 64q-18 23 -31 35l-2 -180q-2 -12 0 -44t-4 -44q-10 11 -10 119t2 147
q-37 -37 -57 -61t-36 -40q-16 -14 -31 -29t-24 -15q0 36 140 153q-31 0 -99 -2t-98 10q0 11 42 11t80 -2t72 -2q-135 116 -145 153q3 7 27 -16q24 -21 28 -25t37 -41t62 -65q0 29 -2 104t10 107q10 0 10 -43z" />
    <glyph glyph-name="plus" unicode="+" horiz-adv-x="618" 
d="M547 596q-2 0 -219 6v-256q-4 -12 -19 -12l-16 6q0 131 6 260l-221 -4q-6 4 -6 17t12 18h215l-6 239q25 0 31 -8l4 -231h30l181 -4q8 -6 8 -31z" />
    <glyph glyph-name="comma" unicode="," horiz-adv-x="198" 
d="M41 56q0 24 15 40t40 17q61 0 62 -105q0 -135 -92 -241q-20 5 5 35q64 78 64 171l-8 58q-6 -33 -39 -33q-18 0 -33 17q-14 17 -14 41z" />
    <glyph glyph-name="hyphen" unicode="-" horiz-adv-x="536" 
d="M246 600l-178 -4q-6 4 -6 17t12 18h243l150 -4q8 -6 8 -31q-17 -2 -113 3t-116 1z" />
    <glyph glyph-name="period" unicode="." horiz-adv-x="198" 
d="M41 53q0 25 21 41q47 35 80 2q15 -14 16 -30q0 -61 -58 -66q-59 14 -59 53z" />
    <glyph glyph-name="slash" unicode="/" horiz-adv-x="536" 
d="M422 889q-196 -528 -333 -945t-155 -429q-16 10 -16 18q10 25 115 342t207 604q333 960 368 989q10 0 10 -25q0 -26 -196 -554z" />
    <glyph glyph-name="zero" unicode="0" horiz-adv-x="659" 
d="M98 510q0 -469 181 -469q266 0 266 489q-1 240 -17 300t-33 104q-33 88 -118 88q-143 0 -211 -139t-68 -373zM82 492q0 311 78 454t211 144q74 0 118 -64t57 -130q13 -67 19 -115t7 -95t3 -89q2 -41 1 -69t-1 -109t-39 -233q-24 -90 -82 -145t-145 -55q-227 0 -227 506z
" />
    <glyph glyph-name="one" unicode="1" horiz-adv-x="448" 
d="M172 -74q0 26 42 232q42 207 80 474t38 307t-25 40q-37 0 -147 -113t-131 -112q-9 0 -9 10t160 172t187 162q10 0 10 -35q-1 -35 -21 -172t-42 -263t-24 -152t-22 -181q-22 -154 -32 -276t-21 -136q-43 0 -43 43z" />
    <glyph glyph-name="two" unicode="2" horiz-adv-x="645" 
d="M61 0q0 121 82 261t220 311t139 331q0 61 -50 107t-122 47q-72 0 -120 -32t-48 -83q0 -25 16 -68q33 -88 -4 -90q-13 0 -21 46q-9 46 -9 98q0 50 52 104q54 54 138 53q84 0 137 -50t53 -125t-40 -180t-109 -183q-250 -283 -250 -441q0 -88 206 -88t232 21q10 8 10 22
t11 15q10 0 10 -25t-22 -47t-56 -22l-172 16l-242 -10q-41 0 -41 12z" />
    <glyph glyph-name="three" unicode="3" horiz-adv-x="636" 
d="M229 -254q289 0 289 406q0 68 -28 132t-84 129q-56 64 -104 102t-48 44q0 5 38 23t84 43t84 83t38 144t-37 158t-121 72t-132 -26q-48 -24 -64 -55l-27 -55q-13 -24 -27 -24t-14 8q0 53 69 110q71 58 171 58t164 -60t63 -150q0 -90 -34 -150t-74 -90l-74 -56
q-33 -26 -33 -34q0 -9 36 -37q36 -27 78 -67t77 -123q36 -83 36 -186q0 -190 -65 -305t-197 -114q-281 0 -270 184q0 51 28 51q8 0 8 -10l-14 -66q0 -75 54 -107t130 -32z" />
    <glyph glyph-name="four" unicode="4" horiz-adv-x="716" 
d="M510 992q0 42 -12 57q-32 0 -96 -84q-64 -83 -156 -229t-144 -214q47 -43 351 -37q13 77 35 271t22 236zM338 -311q0 100 33 239q39 137 75 529q-156 -17 -284 -17t-142 23q6 35 145 209q138 174 146 190q33 76 121 173t113 98q4 -9 3 -95t-79 -553q231 10 248 11l-4 -17
q-14 -18 -72 -18l-176 -4q-9 -68 -19 -238t-38 -307t-27 -225l-6 -23q-37 0 -37 25z" />
    <glyph glyph-name="five" unicode="5" horiz-adv-x="665" 
d="M604 1048q0 -15 -33 -16l-151 4q-174 0 -209 -8q-33 -86 -33 -338q0 -45 45 -45t76 -2t84 -21q53 -20 86 -54t59 -106t25 -162q0 -474 -166 -610q-55 -46 -127 -46q-125 0 -182 51t-58 168q0 29 16 53t24 23q21 1 5 -25t-16 -41q0 -207 193 -207q80 0 137 66
q96 111 130 379q13 102 13 200q0 196 -84 247q-45 28 -93 36t-121 8t-87 27q0 84 13 209q12 125 12 184t22 59l187 -14q14 0 110 5t115 -1q8 -8 8 -23z" />
    <glyph glyph-name="six" unicode="6" horiz-adv-x="679" 
d="M375 565q-133 -1 -204 -71t-71 -168q0 -344 224 -344q102 0 160 101t58 224t-48 191q-49 68 -119 67zM616 1462q14 0 18 -3t5 -20q0 -17 -23 -26q-215 -79 -348 -357t-157 -589q29 59 99 97t152 38q80 0 146 -76t66 -230t-70 -243q-70 -90 -180 -90q-141 0 -202 98
q-60 98 -61 236q0 238 85 512q85 273 217 463t253 190z" />
    <glyph glyph-name="seven" unicode="7" horiz-adv-x="608" 
d="M588 1059q0 -37 -94 -213t-209 -391t-145 -305t-47 -316q-17 -227 -19 -233q-14 0 -24 17q-9 17 -9 32q25 98 37 266t37 236q41 122 222 452t181 420q0 31 -100 31q-229 0 -307 -21q-34 -79 -2 -217q-29 0 -41 10q-2 4 -8 15t-7 30l10 185q1 28 95 28l387 -10
q43 0 43 -16z" />
    <glyph glyph-name="eight" unicode="8" horiz-adv-x="694" 
d="M453 1442q-119 0 -191 -53t-72 -205q0 -246 181 -246q87 0 161 93t74 187t-40 158q-40 66 -113 66zM264 47q174 0 251 111t77 305t-45 294q-46 99 -152 136q-149 0 -229 -144t-80 -377t83 -296q38 -29 95 -29zM166 1202q0 139 74 212t209 73q82 0 133 -65t51 -175
q1 -110 -57 -195t-125 -122q111 -74 145 -171t33 -321q0 -224 -147 -361q-83 -77 -199 -77q-143 0 -187 138q-33 111 -34 279t74 323t177 175q-71 25 -109 87t-38 200z" />
    <glyph glyph-name="nine" unicode="9" horiz-adv-x="690" 
d="M297 498q123 0 193 88t69 196q0 311 -217 312q-112 0 -182 -96t-70 -214t68 -202t139 -84zM152 -385q-25 0 -25 29q102 18 189 111q155 165 226 479q30 132 29 241l-8 139q-4 -6 -10 -17q-49 -90 -145 -129q-43 -17 -91 -17q-115 0 -185 92q-70 93 -71 249q0 156 80 242
t204 86t181 -82q58 -82 70 -186q12 -103 12 -241t-28 -307q-68 -406 -228 -586q-89 -103 -200 -103z" />
    <glyph glyph-name="colon" unicode=":" horiz-adv-x="198" 
d="M41 709q-1 25 21 41t44 16t36 -14q15 -14 16 -31q0 -61 -58 -66q-59 15 -59 54zM41 53q0 25 21 41q47 35 80 2q15 -14 16 -30q0 -61 -58 -66q-59 14 -59 53z" />
    <glyph glyph-name="semicolon" unicode=";" horiz-adv-x="198" 
d="M41 56q0 24 15 40t40 17q61 0 62 -105q0 -135 -92 -241q-20 5 5 35q64 78 64 171l-8 58q-6 -33 -39 -33q-18 0 -33 17q-14 17 -14 41zM41 709q-1 25 21 41t44 16t36 -14q15 -14 16 -31q0 -61 -58 -66q-59 15 -59 54z" />
    <glyph glyph-name="less" unicode="&#x3c;" horiz-adv-x="499" 
d="M377 244q0 -4 -12 -17q-310 310 -324 365q6 20 80 100t84 94t82 82t80 68q6 -4 6 -16q-19 -30 -161 -174q-141 -144 -140 -151t55 -66q55 -60 78 -88q23 -29 45 -53t36 -41q15 -17 28 -33q12 -16 22 -24t17 -16t11 -12t8 -7q3 -3 4 -5t1 -6z" />
    <glyph glyph-name="equal" unicode="=" horiz-adv-x="618" 
d="M287 723l-219 -4q-6 4 -6 17t12 18h284l191 -4q8 -6 8 -31q-16 -2 -133 3t-137 1zM70 504l190 4h285q12 -4 12 -19l-6 -16l-219 4q-20 4 -137 -1t-134 -3q0 25 9 31z" />
    <glyph glyph-name="greater" unicode="&#x3e;" horiz-adv-x="499" 
d="M82 244q0 6 28 34t146 164q30 40 81 94t50 56q-1 13 -143 158t-158 170l6 16q8 0 80 -68t82 -82t84 -94t80 -100q-14 -55 -324 -365q-12 11 -12 17z" />
    <glyph glyph-name="question" unicode="?" horiz-adv-x="509" 
d="M98 53q0 25 22 41q46 34 80 2q15 -14 15 -30q0 -61 -57 -66q-60 14 -60 53zM61 1244q0 -72 17 -89q-12 -18 -25 14q-12 32 -12 48q0 94 49 155q49 62 143 62t165 -68t71 -222t-97 -276q-40 -49 -82 -96q-100 -112 -104 -266l-12 -180q0 -10 -14 -11l-10 7l2 22
q6 60 6 144t44 180t96 162q140 176 140 282q0 289 -207 289q-84 0 -127 -43q-43 -42 -43 -114z" />
    <glyph glyph-name="at" unicode="@" horiz-adv-x="1130" 
d="M575 975q-129 0 -195 -141t-67 -367q0 -455 236 -455q96 0 154 60t59 145l10 528q0 88 -57 159t-140 71zM1038 618q0 246 -89 447q-46 104 -132 169q-86 64 -198 64q-223 -1 -343 -161q-118 -163 -152 -356t-34 -335q0 -379 132 -566t378 -187q48 0 150 10t110 10
q0 -39 -53 -53t-176 -14q-241 0 -399 158q-171 175 -171 581q0 405 123 659q63 131 175 206t262 75q215 0 331 -187t117 -520q0 -496 -85 -594q-38 -44 -103 -44q-33 0 -74 24t-46 25q-5 0 -71 -24t-145 -23q-266 0 -266 489q0 242 77 388q78 147 216 147t186 -70t49 -199
l-12 -532q1 -78 31 -133q46 -83 108 -45q104 58 104 591z" />
    <glyph glyph-name="A" unicode="A" horiz-adv-x="772" 
d="M213 856q0 -80 51 -119t178 -39q63 0 102 39q38 39 38 118t-28 211t-30 138q-14 80 -66 128q-53 48 -110 48q-59 -14 -97 -143t-38 -381zM41 5q0 42 30 196q93 478 142 999q12 125 60 186t104 62q131 -23 162 -178q47 -248 94 -578q0 -2 59 -313q60 -311 60 -353t-19 -53
q-18 25 -52 265t-46 276q-29 90 -100 131q-72 41 -218 41q-71 0 -107 -34q-63 -60 -107 -388q-17 -135 -22 -207t-18 -94q-22 0 -22 42z" />
    <glyph glyph-name="B" unicode="B" horiz-adv-x="706" 
d="M199 780q125 0 238 65q58 35 95 103t37 160q0 141 -77 214q-78 73 -254 73q-62 0 -108 -32t-54 -69q-2 -66 5 -209t7 -197t25 -80q25 -28 86 -28zM389 39q113 0 181 94t67 260q0 166 -96 247t-265 81q-94 0 -142 -43t-48 -105l18 -362q0 -104 68 -138t217 -34zM514 1352
q86 -72 86 -257t-107 -255q-53 -35 -95 -50t-111 -32q171 -14 275 -103t104 -239q0 -244 -76 -334t-293 -90l-186 -8q-57 0 -58 36v92l2 496q0 362 -7 557t-7 248q0 18 22 19l183 -9q182 1 268 -71z" />
    <glyph glyph-name="C" unicode="C" horiz-adv-x="694" 
d="M41 716q0 334 84 522q35 79 102 136q68 57 160 58q215 0 215 -172q-6 -10 -16 -11q-25 0 -25 40t-36 68t-105 27q-162 0 -255 -168t-93 -519q0 -353 97 -519t294 -166q45 0 82 26t54 56t30 57q12 28 14 29q31 0 31 -18q0 -96 -79 -150t-177 -53q-98 0 -162 41
q-63 41 -101 115q-81 158 -97 315q-17 156 -17 286z" />
    <glyph glyph-name="D" unicode="D" horiz-adv-x="727" 
d="M328 20q160 0 242 140t81 383q0 453 -74 644q-75 191 -272 191q-111 0 -147 -64t-35 -255l4 -953q6 -26 63 -56t138 -30zM41 1402q0 18 12 17l4 -2q12 -12 37 -12l232 -4q360 0 360 -645q0 -394 -56 -541t-154 -190q-54 -25 -128 -25l-192 6l-84 -6q-25 0 -27 8
q10 20 39 109l4 663q0 53 3 292t-7 255q-2 8 -23 32q-20 25 -20 43z" />
    <glyph glyph-name="E" unicode="E" horiz-adv-x="653" 
d="M621 1384q0 -34 -11 -53l-4 -4q-82 47 -166 47q-315 0 -354 -84l-12 -387q0 -94 36 -116q36 -21 135 -21t146 3t75 6t30 3q18 0 18 -16t-18 -35q-47 12 -116 12t-131 -19t-89 -20q-86 0 -86 -294q0 -158 43 -287q10 -41 70 -61t223 -19q163 0 206 22l17 -10
q-16 -68 -41 -71q-18 0 -124 15t-160 15q-52 0 -115 -11t-89 -11t-37 11t-12 19l-6 244l6 475l-14 641q5 25 25 31l6 4q186 -12 254 -12l262 8q33 0 33 -25z" />
    <glyph glyph-name="F" unicode="F" horiz-adv-x="514" 
d="M616 1354q0 -16 -14 -15q-8 1 -36 19t-62 18l-307 -8q-123 0 -123 -181t30 -297t72 -116q44 0 102 -9t80 -9l117 6q4 -6 4 -18t-5 -16t-25 -5l-248 4q-70 0 -99 -68t-28 -239l20 -455q0 -61 -16 -61q-27 0 -27 252l12 581q-23 213 -22 488q0 100 20 138t64 38l201 -6
l194 12q66 0 88 -12q8 -25 8 -41z" />
    <glyph glyph-name="G" unicode="G" horiz-adv-x="776" 
d="M715 383q0 -231 -72 -317t-252 -86q-92 0 -159 44q-66 44 -102 110q-88 163 -89 550q0 387 116 570t279 184q117 0 196 -72t79 -156q-1 -25 -19 -43t-32 -18t-27 7q-15 8 -15 14t15 24q14 18 14 39q0 78 -46 113q-46 34 -179 34t-242 -152t-108 -491q0 -727 362 -727
q152 0 202 78t50 299q0 55 -15 125t-15 86t-32 36q-32 19 -94 19t-116 -12t-70 -12q-39 0 -65 51q29 29 129 29l254 -9q59 0 73 -14l-12 -88q0 -4 -4 -58t-4 -157z" />
    <glyph glyph-name="H" unicode="H" horiz-adv-x="737" 
d="M111 1368q1 -31 -9 -221t-10 -354q0 -41 41 -75t127 -34q365 0 365 104l2 346v68l-19 184q0 27 16 58t33 31q18 0 19 -111l-19 -485l-6 -902q0 -25 -20 -34q-23 10 -23 47q0 36 8 164t9 413q0 102 -138 103l-292 -11q-53 1 -78 -37t-25 -81l19 -527q0 -53 -23 -75
q-27 0 -27 663l7 780q0 16 20 17q23 0 23 -31z" />
    <glyph glyph-name="I" unicode="I" horiz-adv-x="202" 
d="M109 1430q23 0 22 -80q0 -4 -4 -115t-4 -353t4 -411q4 -170 7 -287t3 -137q0 -61 -33 -61q-10 0 -19 15t-9 31t7 133t7 481t-29 712q1 72 48 72z" />
    <glyph glyph-name="J" unicode="J" horiz-adv-x="378" 
d="M279 949l16 -621l-8 -346q0 -109 -50 -168t-163 -84q-74 0 -135 39t-62 122q0 23 21 23q16 -72 44 -96t128 -47q90 1 142 69t52 203q0 538 -14 858t-14 354l-19 144q0 59 40 59t40 -43q0 -33 -9 -202t-9 -264z" />
    <glyph glyph-name="K" unicode="K" horiz-adv-x="671" 
d="M106 1442q25 0 25 -80q1 -12 -13 -196t-14 -402q129 -10 189 -10q201 391 340 735q0 47 45 47q14 0 14 -49q-10 -23 -140 -266t-230 -488q4 -45 125 -306t166 -317q45 -57 62 -73t17 -25q0 -43 -41 -43q-35 0 -59 74q-2 8 -129 287q-128 279 -137 303q-33 74 -138 74
q-50 0 -84 -15l19 -590q0 -129 -29 -129q-23 0 -22 109l12 436q0 201 -11 492q-11 292 -11 362t44 70z" />
    <glyph glyph-name="L" unicode="L" horiz-adv-x="374" 
d="M539 -98q1 -44 -55 -41q-32 2 -99 -2q-66 -4 -281 -4q-43 0 -43 22q0 6 8 35q7 29 7 49l-2 1188q0 260 10 299q4 0 9 7t11 7q12 0 13 -47l-4 -420l-2 -794q-1 -195 37 -254t136 -59t123 6q25 8 32 10t33 11t38 13q29 0 29 -26z" />
    <glyph glyph-name="M" unicode="M" horiz-adv-x="880" 
d="M68 80v369l-7 542q0 453 23 522q10 31 31 31q98 0 241 -577q66 -262 84 -289q34 17 166 514q55 207 84 291q23 61 64 61t53 -24t12 -84l-4 -994q0 -444 -16 -512q-23 0 -11 663q4 228 5 243q-4 522 -62 555q-36 -12 -90 -191q-10 -33 -14 -44t-46 -180
q-117 -472 -139 -470q-33 0 -83 215t-106 434t-101 227q-60 -37 -60 -429t19 -865l4 -174q-47 0 -47 166z" />
    <glyph glyph-name="N" unicode="N" horiz-adv-x="747" 
d="M79 -78q-17 0 -18 262v865l2 340q-1 27 13 46t33 19q45 0 67 -59q49 -117 226 -652t231 -632q18 207 18 1007q-1 293 17 293t18 -262l-4 -848l-2 -250v-45q0 -63 -39 -63q-27 0 -39 65q-4 23 -84 278t-93 287q-13 33 -125 357t-125 348t-33 22q-20 0 -33 -17
q-14 -17 -15 -40l-8 -457l10 -596q0 -268 -17 -268z" />
    <glyph glyph-name="O" unicode="O" horiz-adv-x="954" 
d="M504 1389q-416 0 -416 -738q0 -160 50 -300t154 -233t246 -93q141 0 208 123t81 262q15 140 15 249q0 334 -47 473q-61 172 -154 224q-59 33 -137 33zM41 702q0 203 35 355q35 153 94 237q115 164 281 164q442 0 442 -784q0 -702 -424 -703q-193 -1 -311 203t-117 528z
" />
    <glyph glyph-name="P" unicode="P" horiz-adv-x="604" 
d="M90 879q0 -143 201 -144q113 0 213 85t100 241q0 195 -88 283t-303 88q-100 0 -104 -72q-19 -221 -19 -481zM78 1468q6 0 40 -4t153 -4q228 0 295 -108q57 -89 59 -248q0 -399 -344 -399q-125 -1 -158 -15t-33 -57q0 -443 8 -531t8 -112q0 -46 -49 -45q-8 11 -8 33t6 56
q17 96 17 626t-31 770q0 38 37 38z" />
    <glyph glyph-name="Q" unicode="Q" horiz-adv-x="985" 
d="M424 1407q-340 0 -340 -739q0 -190 73 -385q37 -104 115 -171t183 -67q213 0 302 142t89 464q0 213 -39 377t-136 272t-247 107zM893 702q0 -294 -91 -494t-251 -239q16 -18 47 -85q30 -67 62 -126t105 -112t171 -60q31 0 58 22q28 22 32 25q23 -4 31 -36q0 -31 -33 -49
q-32 -18 -84 -17q-52 0 -110 25q-98 42 -168 143q-35 49 -53 87q-17 38 -35 81q-17 43 -28 63q-10 20 -28 31q-18 10 -61 10q-205 0 -311 176q-105 176 -105 506q0 809 438 809q145 0 271 -166q63 -84 103 -238t40 -356z" />
    <glyph glyph-name="R" unicode="R" horiz-adv-x="659" 
d="M84 1053q0 -154 55 -216q55 -63 173 -63t188 83t70 262t-69 247t-268 68q-93 0 -121 -74t-28 -307zM82 8q-8 0 -15 16t-7 40t7 176t7 320t-17 508q-16 339 -16 353q0 15 7 27q18 32 56 31h64q232 0 336 -71t104 -290q0 -170 -88 -266t-227 -125q35 -109 195 -426
t233 -399q0 -39 -19 -52q-35 0 -47 78q-76 158 -227 451t-166 346q-81 0 -114 -12q-34 -12 -43 -38t-9 -69l19 -526q0 -72 -33 -72z" />
    <glyph glyph-name="S" unicode="S" horiz-adv-x="690" 
d="M362 1391q-118 0 -192 -69q-74 -70 -74 -184t58 -192t138 -133q81 -55 162 -115t138 -158q57 -97 57 -250t-79 -242t-228 -89q-281 0 -281 375q0 41 23 41q49 -18 49 -70q0 -307 174 -307q311 0 311 240q0 216 -107 336q-67 75 -173 151t-155 124q-109 109 -107 294
q0 129 74 210t235 81q105 0 163 -69t58 -169q-2 -6 -28 -29q-12 0 -17 23q-37 201 -199 201z" />
    <glyph glyph-name="T" unicode="T" horiz-adv-x="391" 
d="M254 1399q0 -12 -14 -263t-15 -566q-1 -316 11 -426t12 -111l-8 -88q-49 18 -50 80q0 6 10 396t11 974q0 90 -141 90l-160 6q-8 -1 -16 9t-7 20q18 12 78 12l549 -4q31 0 41 -15q-14 -23 -96 -22q-205 0 -205 -92z" />
    <glyph glyph-name="U" unicode="U" horiz-adv-x="763" 
d="M418 18q144 0 213 107q52 80 63 287q4 74 4 198t-17 354q-17 232 -17 340t34 138q25 -45 25 -105v-260l-6 -575q0 -331 -85 -445t-251 -113t-245 122t-79 325l-4 727l-12 185q0 71 33 104q29 -23 28 -258l-22 -617q0 -514 338 -514z" />
    <glyph glyph-name="V" unicode="V" horiz-adv-x="759" 
d="M711 1419q29 0 29 -47t-165 -678q-20 -84 -68 -320t-51 -273q-3 -42 -22 -75t-30 -44l-25 -25q-29 12 -59 179t-115 546t-107 462t-38 118q-56 130 -32 157q23 27 42 -10q10 -20 46 -205q35 -185 61 -282q26 -98 74 -314q103 -463 144 -463q61 63 260 1008q10 51 19 125
q8 74 14 108t23 33z" />
    <glyph glyph-name="W" unicode="W" horiz-adv-x="1081" 
d="M1014 1427q14 0 30 -17t17 -40t-22 -56q-23 -32 -23 -36t-48 -276t-60 -325q-12 -52 -48 -261q-38 -209 -66 -326t-55 -133q-89 43 -147 591q-33 314 -49 363q-27 -27 -69 -349t-42 -400q0 -80 -20 -120t-34 -50t-44 -31q-76 19 -127 349q-18 116 -70 488t-65 414
q-52 154 -52 182t17 27q23 1 33 -33t30 -164t40 -237q20 -106 37 -221q97 -656 161 -688q20 14 47 111t44 245t56 350t60 244q37 -72 94 -594q16 -138 58 -241q43 -103 53 -107q15 6 50 179q34 173 36 178t15 110q69 547 125 775q24 100 38 99z" />
    <glyph glyph-name="X" unicode="X" horiz-adv-x="751" 
d="M0 12q0 16 16 33q61 59 119 187q57 128 111 274t86 205q-23 102 -145 345t-142 333q0 49 32 49t32 -25q16 -76 78 -244t102 -247l10 -25q33 -75 50 -91q17 -15 28 -15q39 18 134 294t116 306q21 39 41 39t31 -10t11 -17q0 -8 -32 -52q-33 -44 -41 -73q-9 -29 -107 -251
t-102 -298l256 -625q4 -8 21 -34q59 -106 24 -113q-23 0 -46 53q-24 53 -66 166t-63 158t-38 83q-83 198 -143 218q-89 -72 -200 -357q-51 -134 -69 -170t-28 -72q-10 -34 -18 -49t-23 -16q-35 0 -35 41z" />
    <glyph glyph-name="Y" unicode="Y" horiz-adv-x="577" 
d="M655 1425q15 0 15 -34q0 -33 -30 -71t-54 -105t-140 -334t-120 -295q0 -91 -7 -217l21 -373q0 -55 -31 -107q-16 10 -16 82l-6 627q-20 57 -133 306t-136 341q-55 129 -57 145t6 31q8 16 17 17q28 -27 64 -155q109 -382 259 -531q51 8 171 260t138 370q10 43 39 43z" />
    <glyph glyph-name="Z" unicode="Z" horiz-adv-x="710" 
d="M412 1380q-130 0 -214 -10t-137 -10q-41 25 -41 33q33 37 76 37q2 0 69 -8t192 -7q126 0 278 19q62 0 76 -35q-107 -258 -247 -546t-230 -472t-113 -264q0 -37 34 -55q33 -18 191 -19q158 0 224 13t81 14q7 0 13 -18t8 -21q0 -37 -62 -37l-213 14l-274 -12q-98 0 -103 47
q25 140 255 513q89 142 195 364t171 442q-99 18 -229 18z" />
    <glyph glyph-name="bracketleft" unicode="[" horiz-adv-x="327" 
d="M115 204q0 -566 -2 -634q78 4 161 4q6 -4 6 -18t-12 -17q-92 -2 -153 -2q-18 0 -33 19l8 299l8 1618q8 16 19 16l69 -4h37q23 0 56 2q8 -6 8 -31q-8 -2 -148 4q-18 -630 -18 -661q-6 -29 -6 -595z" />
    <glyph glyph-name="backslash" unicode="\" horiz-adv-x="536" 
d="M-82 1444q0 24 10 24q35 -29 369 -989q101 -288 206 -604q105 -317 115 -342q0 -8 -16 -18q-16 13 -164 460q-149 447 -335 946q-185 499 -185 523z" />
    <glyph glyph-name="bracketright" unicode="]" horiz-adv-x="327" 
d="M254 203q0 565 -6 596q0 16 -8 304t-11 357q-139 -6 -147 -4q0 25 8 31q35 -2 55 -2h37l70 4q10 0 18 -16q0 -31 4 -789t5 -829l8 -299q-14 -18 -33 -19l-154 2q-12 4 -12 19l6 16q84 0 162 -4q-2 68 -2 633z" />
    <glyph glyph-name="asciicircum" unicode="^" horiz-adv-x="612" 
d="M68 1124q-15 0 -15 15l-2 4q1 8 51 76q50 67 66 92q98 147 131 157q35 -9 193 -230q57 -81 69 -93q-18 -19 -22 -19t-117 146q-117 129 -123 129q-39 -12 -123 -136t-108 -141z" />
    <glyph glyph-name="underscore" unicode="_" horiz-adv-x="667" 
d="M618 -31l-184 -4l-381 4q-12 4 -12 15l6 16l131 -4q20 -4 225 -2t224 0q0 -18 -9 -25z" />
    <glyph glyph-name="grave" unicode="`" horiz-adv-x="456" 
d="M102 1327q0 31 8 31t70 -64q61 -64 70 -71q104 -76 104 -99q0 -22 -11 -22t-75 60q-62 60 -80 73q-18 14 -52 51t-34 41z" />
    <glyph glyph-name="a" unicode="a" 
d="M487 195v245q0 47 -24 70q-25 23 -88 31q-115 0 -206 -67t-101 -216q0 -92 49 -163t104 -70q111 0 189 48q77 48 77 122zM600 4q0 -6 -13 -6t-50 34t-55 34t-98 -36t-138 -36q-59 0 -102 31q-71 52 -94 170q-9 45 -9 86q8 139 117 214t225 76q45 0 76 29t30 94
q0 158 -34 228q-35 70 -129 69q-40 0 -100 -39t-60 -82q0 -10 14 -44t15 -52q0 -31 -30 -31t-30 85t52 137q53 51 131 51t141 -51t63 -123l-4 -553q0 -188 53 -250l21 -21t8 -14z" />
    <glyph glyph-name="b" unicode="b" horiz-adv-x="669" 
d="M391 874q-246 0 -246 -448q0 -4 -2 -87t20 -156q22 -72 45 -94q55 -50 122 -50q122 0 192 106t70 263q0 226 -44 346t-157 120zM391 0q-3 0 -73 8t-106 8t-60 -7q-23 -7 -38 -13t-18 -4q0 2 9 28t10 48l-13 1275q-6 15 -44 29t-38 21q0 14 26 14t46 8t32 8q24 0 26 -57
q0 -12 -6 -104t-5 -410q0 -55 29 -55q10 1 42 29q98 87 181 85q109 0 173 -130q64 -131 65 -329q0 -198 -72 -325t-166 -127z" />
    <glyph glyph-name="c" unicode="c" horiz-adv-x="571" 
d="M330 -20q-117 0 -203 135t-86 354q0 341 177 460q65 42 148 42q84 0 124 -75t40 -198q0 -10 -7 -19t-17 -9q-20 0 -21 22q-1 6 9 18t10 19q0 130 -68 159q-54 23 -131 23q-229 0 -229 -465q0 -180 78 -301t184 -121t125 84q6 30 6 38v36q0 23 24 23t23 -27
q0 -82 -52 -140t-134 -58z" />
    <glyph glyph-name="d" unicode="d" horiz-adv-x="595" 
d="M502 348q0 266 -56 391t-186 125q-66 -4 -110 -54q-67 -75 -92 -270q-7 -64 -7 -146q1 -82 19 -164t72 -144q54 -61 148 -61q94 -1 152 83q60 84 60 240zM279 0q-80 0 -135 45q-84 70 -113 268q-44 305 87 511q58 93 142 94q109 0 244 -199q6 190 3 407t-9 240
q-6 10 -43 20t-37 17q0 12 37 12l71 21q18 0 19 -19l-27 -1343q4 -26 26 -50t21 -28l-6 -10q-14 2 -53 22t-67 20t-79 -14t-81 -14z" />
    <glyph glyph-name="e" unicode="e" horiz-adv-x="622" 
d="M78 579q0 -36 23 -54q23 -17 97 -17q145 0 228 21q96 24 95 119q-1 96 -51 190t-153 94q-68 0 -118 -45q-79 -69 -111 -223q-10 -48 -10 -85zM326 0q-285 0 -285 485q0 87 27 193t89 195q61 89 133 89t120 -30q130 -83 131 -320q0 -52 -23 -80t-59 -31q-37 -3 -76 -3h-49
q-138 -4 -194 -54t-56 -162t77 -188t165 -76q40 0 74 26t52 58q65 110 101 144q6 0 17 -7t12 -12q-29 -27 -71 -91t-84 -100t-101 -36z" />
    <glyph glyph-name="f" unicode="f" horiz-adv-x="360" 
d="M45 960q0 16 13 24t51 13q-10 43 -13 146q-6 266 45 266q7 0 51 26q44 25 112 25t114 -42q45 -42 45 -78t-23 -35q-12 10 -12 28q0 49 -40 74t-101 25q-96 0 -125 -62t-29 -186l-2 -185q4 0 84 -12t109 -12l61 2l37 -4q0 -18 -6 -25l-29 -4l-106 2l-152 -33l4 -215
l-14 -292l18 -441q0 -21 -40 -79t-48 -58t-8 8q33 53 47 166t12 406l9 505q-31 3 -47 17t-17 30z" />
    <glyph glyph-name="g" unicode="g" horiz-adv-x="632" 
d="M539 516q0 257 -31 344q-31 86 -85 110q-34 15 -79 15q-86 0 -153 -72q-67 -71 -97 -163t-28 -177q0 -479 225 -479q88 0 168 114t80 308zM545 1028q26 0 26 -33l-16 -219l6 -504l-6 -479q0 -113 -59 -181t-170 -67q-262 0 -263 256q0 51 13 90q12 39 25 39t14 -10
q-33 -82 -33 -125q0 -84 60 -147t218 -64q178 0 179 301q0 115 -25 159t-96 44q-25 0 -66 -12t-65 -13q-115 -1 -181 141t-66 366t136 363q74 75 176 75l109 -21q16 1 48 21t36 20z" />
    <glyph glyph-name="h" unicode="h" horiz-adv-x="716" 
d="M668 -350q-47 0 -47 532q0 318 -27 453t-73 178t-135 43t-150 -92t-58 -195l6 -626q-45 -135 -71 -138q-9 1 -9 9q57 57 58 127l-2 362l-37 891q0 53 -26 90t-51 53q-26 16 -26 21q0 10 37 23t64 14q16 1 22 -47q5 -48 9 -82t6 -85q2 -52 3 -90q1 -37 3 -99t2 -93
q13 -25 31 -45t32 -20q13 0 77 36t87 35q141 0 197 -153q55 -154 55 -492v-250q0 -179 31 -346q-2 -14 -8 -14z" />
    <glyph glyph-name="i" unicode="i" horiz-adv-x="231" 
d="M139 1243q31 0 31 -31q0 -18 -8 -28q0 -8 -11 -14t-24 -7q-47 12 -47 43q0 17 4 21q33 16 55 16zM61 -61q1 5 19 39q56 104 55 169l6 207l-12 308q0 179 -12 233t-13 68q0 14 10 24t25 10q29 -18 29 -63l-8 -723l2 -53q-4 -29 -20 -70t-37 -95q-20 -54 -44 -54z" />
    <glyph glyph-name="j" unicode="j" horiz-adv-x="288" 
d="M78 1244q0 24 24 37q25 13 52 13q37 0 43 -45q-14 -61 -52 -61q-25 0 -46 16t-21 40zM86 -457q-76 -1 -76 49q0 26 23 39q32 -71 65 -71q25 0 39 42q29 87 29 519q0 834 -60 833q-27 0 -43 33q27 39 79 39t53 -27q-21 -66 -21 -151q0 -86 16 -374t17 -505
q0 -426 -121 -426z" />
    <glyph glyph-name="k" unicode="k" horiz-adv-x="577" 
d="M278 428q-52 0 -90 -33q12 -250 13 -452q0 -31 -28 -95t-48 -63q-8 0 -8 5q1 5 29 54t28 88l2 125q0 199 -20 609t-21 610q1 47 -23 73q-24 25 -48 33t-23 13q0 10 38 25t60 16q43 0 43 -642q0 -241 4 -280q10 -23 60 -22q90 0 179 140t89 232q0 40 -10 62t-10 24
q0 29 14 29q27 0 27 -125q-21 -144 -141 -293q-46 -57 -52 -69q0 -4 97 -194t98 -265q1 -129 -13 -129t-14 35q0 169 -47 263q-17 38 -75 132t-110 94z" />
    <glyph glyph-name="l" unicode="l" horiz-adv-x="231" 
d="M31 1446q-1 6 27 20t52 14t32 -12t10 -57l-17 -346v-304l2 -94v-14l-12 -620q0 -215 76 -264q1 -11 -9 -11t-30 27q-58 78 -60 145v38l-8 1347q0 55 -16 83t-32 35t-15 13z" />
    <glyph glyph-name="m" unicode="m" horiz-adv-x="1181" 
d="M100 1020q24 0 54 -35t51 -35q4 0 57 34q54 34 110 34t102 -23t118 -88q10 0 99 65q89 64 157 64t119 -38t83 -135t31 -304l-4 -698q0 -83 32 -118q11 -13 11 -17t-10 -4q-28 -1 -42 69q-15 70 -15 152l6 405q0 352 -52 500t-176 147q-104 -1 -161 -117t-58 -333l13 -348
l-2 -273v-61q0 -49 15 -96q15 -48 15 -56t-5 -8t-30 25q-6 22 -28 442t-23 518q0 98 -46 194q-46 95 -146 95q-101 0 -163 -139t-62 -344l12 -557q0 -72 -65 -159q-23 -28 -29 -28q-16 0 -5 12q59 68 72 197l-22 592l14 270q0 111 -37 159q-12 17 -12 24q-2 16 22 16z" />
    <glyph glyph-name="n" unicode="n" horiz-adv-x="690" 
d="M352 1049q140 0 196 -129t56 -406v-559q0 -126 10 -157t15 -52q0 -12 -13 -12q-27 0 -41 304t-14 536t-45 332q-45 101 -170 102q-92 0 -156 -150t-63 -352l16 -539q1 -39 -23 -87t-52 -83t-27 -16q65 81 68 256l-15 545l15 264q0 61 -14 98q-13 37 -50 86q0 16 25 17
l102 -70q4 0 64 36t116 36z" />
    <glyph glyph-name="o" unicode="o" horiz-adv-x="663" 
d="M325 975q-75 0 -133 -67q-85 -97 -117 -323q-9 -65 -9 -102q0 -453 264 -452q139 0 200 97q62 97 62 303t-57 364q-29 80 -82 130t-128 50zM41 453q0 281 89 427t220 146q70 0 125 -62q95 -107 128 -323t4 -352q-40 -202 -141 -285q-62 -51 -144 -51q-137 1 -209 151
t-72 349z" />
    <glyph glyph-name="p" unicode="p" horiz-adv-x="768" 
d="M442 993q-64 0 -124 -85t-91 -178t-31 -142t-4 -157q-6 -108 -4 -181q6 -34 75 -100t126 -66l47 10q128 0 183 100t56 286q1 185 -46 335q-25 80 -74 129t-113 49zM209 -352q0 -94 -22 -154t-50 -59q-12 0 -12 12q42 50 53 115q8 219 -7 596q-15 378 -15 574t-95 196
q-20 0 -20 18q1 3 19 7q18 3 31 11t44 9q13 0 25 -29q12 -30 12 -58t4 -59t6 -84q19 58 52 119q67 125 119 153q52 29 112 29q61 0 111 -51t77 -136q52 -164 53 -383q1 -220 -122 -364q-70 -81 -175 -81q-105 -1 -155 33q-49 34 -55 34q10 -213 10 -448z" />
    <glyph glyph-name="q" unicode="q" horiz-adv-x="770" 
d="M301 967q-45 0 -91 -42q-75 -68 -106 -240q-12 -67 -12 -167t23 -192q40 -161 154 -218q46 -24 110 -36q55 0 98 51q71 84 97 280q11 76 10 140q-4 25 -14 75t-20 109q-11 60 -19 78q-9 18 -20 48t-24 42q-12 12 -29 30q-42 42 -157 42zM496 -152q-42 0 -41 23
q0 16 26 16l84 -8q0 76 2 153t2 113q-98 -119 -223 -118q-94 0 -163 89q-122 157 -122 396q0 157 50 316q27 87 80 144q54 56 143 56t135 -45t62 -79t22 -48t14 -49q7 -35 11 -47t10 -48t8 -42q4 24 3 118q-2 230 42 230q46 0 64 -23l8 -6q-17 -33 -41 -38t-40 -82t-16 -185
l-24 -805q113 0 137 -10q0 -20 -57 -21l-80 2l4 -323q2 -98 51 -139q-2 -8 -12 -9q-18 0 -45 67t-27 103l2 301q-27 -2 -69 -2z" />
    <glyph glyph-name="r" unicode="r" horiz-adv-x="288" 
d="M113 461l12 -485q-1 -22 -19 -71q-18 -50 -38 -83t-28 -33t-9 6q0 6 13 32q50 105 50 439l4 645q0 51 -26 88q-27 37 -27 45q-1 25 57 -8q58 -34 64 -32t49 34t93 31q50 0 63 -18l-11 -35q0 -23 -36 -23l-9 19q-10 20 -24 20q-88 0 -133 -131t-45 -440z" />
    <glyph glyph-name="s" unicode="s" horiz-adv-x="542" 
d="M88 270q0 -262 191 -262q90 0 140 60t50 158q0 99 -49 166t-154 130q-39 25 -77 55q-38 31 -83 101t-45 161t57 157t147 67q90 0 150 -65t60 -117q0 -17 -17 -25t-20 -8q-6 14 -25 64t-52 70q-34 20 -97 22q-166 0 -166 -177q0 -92 58 -167q58 -74 145 -122
q86 -48 143 -131q58 -83 58 -187t-60 -176t-146 -73q-152 0 -210 116q-45 90 -45 177q0 27 6 37q10 10 35 10q6 -18 6 -41z" />
    <glyph glyph-name="t" unicode="t" horiz-adv-x="364" 
d="M406 954q0 -20 -50 -20t-172 -31q-2 -115 12 -511t13 -443q0 -156 82 -238q-20 -12 -27 -12q-31 0 -65 68q-35 68 -35 174t4 349t-8 611q-29 0 -129 25q0 49 24 49q6 0 40 -9t59 -8q0 62 -10 154t-9 113q-1 21 15 33t30 12l17 -2l-6 -36q-13 -102 -9 -274l172 7z" />
    <glyph glyph-name="u" unicode="u" horiz-adv-x="645" 
d="M573 -39q0 -23 -20 -22q-23 1 -53 33t-46 32t-82 -30t-120 -29q-74 0 -122 91q-81 153 -82 489q-1 335 -9 391t-8 59q1 18 27 18t26 -30q0 -8 -5 -75t-11 -232t6 -279q12 -115 30 -197t58 -131t106 -49q68 0 130 36t80 83t34 317q14 270 14 447q0 12 18 28q18 17 28 17
q24 1 5 -22q-18 -23 -20 -56q-8 -143 -11 -338t-10 -332q-8 -148 32 -210q5 -8 5 -9z" />
    <glyph glyph-name="v" unicode="v" horiz-adv-x="630" 
d="M555 1014q0 12 11 28t28 19q16 -27 16 -44t-42 -214t-94 -416q-54 -219 -66 -274q-20 -96 -97 -154q-29 21 -47 62t-30 67t-21 67q-10 41 -18 69t-18 73q-9 45 -20 99t-18 93q-119 475 -119 523q0 8 12 16t24 8q11 0 26 -14q-23 -34 -23 -80q188 -858 238 -881
q20 3 53 49t43 78l137 574q25 115 25 252z" />
    <glyph glyph-name="w" unicode="w" horiz-adv-x="892" 
d="M41 1044q20 0 20 -64q-1 -64 17 -224t49 -279q86 -342 166 -397q20 14 68 332t73 333q18 -20 97 -329t102 -336q29 10 89 284t69 379q23 283 23 294t15 23q14 12 27 13q16 -33 16 -46t-49 -234q-4 -19 -18 -125q-90 -679 -180 -727q-37 49 -113 390t-82 353
q-16 -58 -36 -246t-48 -330q-27 -142 -67 -159q-45 33 -151 449t-108 556q0 74 21 90z" />
    <glyph glyph-name="x" unicode="x" horiz-adv-x="606" 
d="M16 993q0 11 6 25t12 14q7 0 97 -223q33 -84 86 -158t86 -73q61 0 176 235q16 33 46 111t44 90q14 -2 19 -31q0 -4 -107 -202t-125 -271q7 -67 106 -243q100 -175 122 -217t22 -63t-12 -22q-9 -1 -57 105q-49 106 -77 166t-77 124q-49 66 -67 66q-29 0 -93 -116
q-31 -54 -43 -72t-50 -105q-38 -86 -68 -155q-30 -68 -36 -68t-16 14t-10 24t48 78q48 69 60 112q12 42 80 160q66 118 66 210q-54 132 -146 292t-92 193z" />
    <glyph glyph-name="y" unicode="y" horiz-adv-x="518" 
d="M272 -418q-84 0 -156 74t-73 149l20 181q2 5 12 9q9 5 13 9q10 0 10 -16t-17 -64t-18 -76q0 -94 66 -164t160 -69q180 0 180 295l-4 225q0 53 -50 53q-51 0 -97 -43t-76 -43q-113 0 -163 155t-50 374l12 309q0 42 -10 56t-11 16q14 20 22 20t17 -8q10 -8 11 -18l-13 -334
q0 -215 46 -371t133 -156q100 1 163 133t64 267l4 358q0 4 1 33t-13 56q-14 28 -4 48q11 20 29 20t18 -30l-11 -182l11 -807q0 -239 -50 -349t-176 -110z" />
    <glyph glyph-name="z" unicode="z" 
d="M63 944q-22 0 -22 43t8 54t39 12l211 -13l221 11q25 -1 45 -9t25 -18q-49 -143 -162 -350t-195 -365t-81 -237q14 -41 78 -41t186 12q121 12 131 12q23 -23 22 -65q-10 -2 -24 2t-107 4l-299 -10q-25 0 -55 4t-41 4q8 76 99 230t210 365q119 212 176 396l-315 14
q-127 0 -150 -55z" />
    <glyph glyph-name="braceleft" unicode="{" horiz-adv-x="378" 
d="M143 715q0 26 -16 112q-47 253 -47 443q0 102 55 150t170 48q33 0 33 -19t-35 -19q-193 0 -192 -158q0 -228 43 -463q14 -82 14 -98q0 -47 -40 -87l-20 -20l-34 -26q0 -2 42 -56t45 -90q3 -34 -25 -246t-28 -300t12 -155q19 -115 90 -141q28 -10 78 -12t50 -29
q0 -20 -27 -20q-133 0 -180 80t-47 305q0 55 29 266t25 245q-4 33 -50 95q-45 62 -47 70q8 10 37 30q65 43 65 95z" />
    <glyph glyph-name="bar" unicode="|" horiz-adv-x="262" 
d="M160 1522l-19 -723q-4 -27 -5 -647t-3 -635q-18 0 -31 16l9 322l8 1658q8 16 18 17z" />
    <glyph glyph-name="braceright" unicode="}" horiz-adv-x="378" 
d="M211 713q0 14 14 96q43 252 43 463q0 158 -192 158q-35 0 -35 19t33 19q115 0 170 -48t55 -152q0 -183 -48 -441q-15 -87 -15 -113q0 -52 65 -94q29 -20 37 -30q-2 -8 -47 -70t-49 -95q-4 -34 24 -245t29 -266q0 -225 -47 -305t-180 -80q-27 0 -27 20q0 27 50 29t78 12
q27 10 53 42q48 60 48 272q0 70 -28 282t-24 246q3 35 45 89t42 57q-94 67 -94 135z" />
    <glyph glyph-name="asciitilde" unicode="~" horiz-adv-x="579" 
d="M178 633q34 0 109 33q77 32 107 32t77 -30t47 -52l-10 -26q-6 2 -26 22q-53 52 -95 54q-18 0 -99 -37t-115 -37t-73 28t-39 41t9 31l4 2q70 -61 104 -61z" />
    <glyph glyph-name="exclamdown" unicode="&#xa1;" horiz-adv-x="303" 
d="M221 940q1 -25 -21 -41t-43 -16t-37 14q-15 14 -16 31q0 61 58 65q59 -14 59 -53zM156 678q12 0 12 -10l-10 -758q0 -232 -12 -277t-24 -53q-13 -8 -40 -8q0 6 5 17q40 88 40 427l16 656q1 6 13 6z" />
    <glyph glyph-name="cent" unicode="&#xa2;" horiz-adv-x="571" 
d="M78 522q0 -194 61 -316t152 -134l6 946q-167 -5 -212 -378q-7 -67 -7 -118zM112 186q-70 139 -71 353q0 328 138 452q50 45 118 53q2 127 2 244q8 16 18 17l23 -9q0 -45 -8 -249q199 -16 198 -252q0 -9 -7 -19t-17 -10q-20 0 -21 22q-1 6 9 18t10 19q0 109 -48 149
t-126 44l-15 -946q154 2 154 166q0 23 25 22q23 0 22 -27q0 -78 -60 -137t-141 -61v-138l-2 -155q-18 0 -30 16l8 277q-109 12 -179 151z" />
    <glyph glyph-name="sterling" unicode="&#xa3;" horiz-adv-x="673" 
d="M82 595q0 13 12 17h78l6 371q0 147 72 174q8 3 28 17q49 34 127 34q79 0 133 -47t54 -102t-18 -55t-17 53q0 53 -45 88t-117 35q-193 0 -192 -248v-320l284 -4q9 -5 9 -30l-293 2l-8 -517q0 -98 106 -98q244 0 268 37q23 0 23 -35t-31 -35q-6 0 -101 6t-267 7
q-25 0 -51 -31t-34 -31t-8 8q41 72 56 211l14 476h-82q-6 4 -6 17z" />
    <glyph glyph-name="currency" unicode="&#xa4;" horiz-adv-x="845" 
d="M457 915q-152 0 -234 -96t-82 -289t104 -311q60 -68 150 -67q141 0 226 88q84 88 84 311q-1 150 -65 257t-183 107zM115 528q0 215 90 328l-47 66q-47 66 -74 92q-2 6 4 13t16 7t21 -12l104 -139q86 84 206 84t190 -76l112 143q12 0 27 -18q0 -18 -119 -148
q90 -119 90 -336t-94 -329q6 -9 51 -69t70 -85q2 -6 -4 -13t-18 -7t-19 12l-105 135q-74 -68 -190 -68t-195 76q-72 -98 -122 -155q-23 0 -25 17t127 159q-96 108 -96 323z" />
    <glyph glyph-name="yen" unicode="&#xa5;" horiz-adv-x="720" 
d="M98 523q0 13 13 18h225q-16 33 -74 141t-67 154q-6 16 -58 118q-51 102 -53 116t6 32q8 16 16 16q27 -55 76 -179q112 -283 187 -374q82 147 217 520q8 29 35 29q18 0 18 -31t-36 -85t-46 -74q-121 -236 -158 -383l207 -4q8 -6 8 -31l-221 6q0 -10 -4 -96l207 -2
q12 -4 12 -19l-6 -16q-131 0 -217 4q-4 -102 -4 -121v-270q0 -23 -27 -39q-10 31 -10 96l6 336l-258 -6q0 25 8 31q29 0 250 6l-2 94l-244 -4q-6 4 -6 17z" />
    <glyph glyph-name="brokenbar" unicode="&#xa6;" horiz-adv-x="262" 
d="M160 1522l-19 -723q-4 -27 -5 -647t-3 -635q-18 0 -31 16l9 322l8 1658q8 16 18 17z" />
    <glyph glyph-name="dieresis" unicode="&#xa8;" horiz-adv-x="567" 
d="M362 1163q0 31 54 47q49 -12 49 -55t-39 -43q-24 0 -44 16t-20 35zM102 1155q0 23 22 39t50 16q41 0 41 -48t-55 -60q-58 16 -58 53z" />
    <glyph glyph-name="copyright" unicode="&#xa9;" horiz-adv-x="1138" 
d="M559 1307q-74 0 -123 -46t-69 -117q-37 -131 -37 -229q0 -188 74 -278t178 -90q160 0 159 166q0 23 25 22q23 0 22 -26q0 -79 -61 -139t-145 -60q-121 0 -205 111t-84 288q0 428 323 428q76 0 132 -69q55 -70 55 -183q0 -10 -8 -19t-17 -9q-20 0 -20 22l18 37
q0 132 -79 164q-64 27 -138 27zM621 1438q-250 0 -365 -128t-115 -429q0 -246 113 -375t330 -129t316 131t99 389q1 541 -378 541zM1036 883q0 -539 -452 -539q-224 0 -353 142t-129 432q0 288 134 418t372 130q236 0 332 -152t96 -431z" />
    <glyph glyph-name="guillemotleft" unicode="&#xab;" horiz-adv-x="530" 
d="M41 592q10 18 62 76t59 67q70 94 86 101q4 -2 10 -12t4 -15q-164 -168 -188 -217q0 -5 40 -48t51 -57t46 -54t51 -73l-10 -14q-37 38 -119 132t-92 114zM225 592q11 18 63 76t90 110q38 51 54 58q4 -2 10 -12t4 -15q-164 -168 -188 -217q0 -5 40 -48t51 -57t46 -54
t51 -73l-10 -14q-37 38 -119 132t-92 114z" />
    <glyph glyph-name="registered" unicode="&#xae;" horiz-adv-x="1138" 
d="M514 1311q-66 1 -82 -29t-16 -140t36 -148t116 -38t131 38t51 136t-50 140q-50 41 -186 41zM394 1103q-11 189 -11 208q0 32 68 32l20 -2q166 0 235 -41q68 -41 68 -146q0 -104 -44 -158t-114 -64q27 -82 87 -210t110 -183q0 -31 -12 -33q-16 0 -31 15q-14 15 -16 36
q-71 164 -118 255t-52 120q-70 0 -96 -3q-60 -7 -60 -83l14 -307q0 -33 -7 -42t-21 -10q-16 0 -17 33l9 236q0 158 -12 347zM621 1438q-250 0 -365 -128t-115 -429q0 -246 113 -375t330 -129t316 131t99 389q1 541 -378 541zM1036 883q0 -539 -452 -539q-224 0 -353 142
t-129 432q0 288 134 418t372 130q236 0 332 -152t96 -431z" />
    <glyph glyph-name="degree" unicode="&#xb0;" horiz-adv-x="452" 
d="M228 1395q-60 0 -99 -40t-39 -103q0 -62 35 -102t98 -40q137 0 137 143q0 55 -35 99q-37 43 -97 43zM226 1081q-76 0 -120 50t-45 124q1 74 51 126q50 53 125 53t115 -56t39 -130q0 -73 -45 -120q-44 -47 -120 -47z" />
    <glyph glyph-name="plusminus" unicode="&#xb1;" horiz-adv-x="618" 
d="M547 596q-2 0 -219 6v-256q-4 -12 -19 -12l-16 6q0 131 6 260l-221 -4q-6 4 -6 17t12 18h215l-6 239q25 0 31 -8l4 -231h30l181 -4q8 -6 8 -31zM236 186l-179 -4l-6 21q0 16 12 20h326l170 -4q8 -6 8 -35q-15 -2 -163 2t-168 0z" />
    <glyph glyph-name="acute" unicode="&#xb4;" horiz-adv-x="456" 
d="M354 1327q0 -4 -34 -41t-50 -51q-18 -14 -84 -75t-70 -59q-11 5 -14 23q0 23 105 99q8 7 69 71t69 64q9 0 9 -31z" />
    <glyph glyph-name="mu" unicode="&#xb5;" horiz-adv-x="655" 
d="M41 975q0 18 27 18t26 -30q0 -8 -5 -75t-11 -232t6 -279q12 -115 30 -197t58 -131q38 -49 106 -49t130 36t81 83q18 47 33 317q14 270 15 447q0 12 17 28q16 17 28 17t12 -7t-12 -23t-15 -48q-8 -143 -11 -338t-8 -287q-11 -199 31 -255q5 -7 5 -9q0 -23 -21 -22
q-23 1 -53 33t-45 32q-16 0 -83 -30t-120 -29q-117 0 -168 213l-4 -545q-4 -12 -14 -12l-17 6l4 131q2 113 2 251l-8 556q0 315 -8 371t-8 59z" />
    <glyph glyph-name="paragraph" unicode="&#xb6;" horiz-adv-x="634" 
d="M594 1418q0 -14 -40 -15q-81 0 -81 -94q0 -227 -2 -377t-1 -364t1 -302t4 -209t8 -178t4 -61q0 -68 -51 -134t-94 -94q-4 4 -4 17q4 6 39 48t51 93t16 137l-8 901q0 35 -18 35q-6 0 -41 -7t-68 -7q-91 0 -159 85t-68 245q0 161 78 231t213 70l136 -8q40 0 79 8
q6 -6 6 -20z" />
    <glyph glyph-name="periodcentered" unicode="&#xb7;" horiz-adv-x="198" 
d="M41 606q0 25 21 41q47 35 80 2q15 -14 16 -31q0 -61 -58 -65q-59 14 -59 53z" />
    <glyph glyph-name="cedilla" unicode="&#xb8;" horiz-adv-x="344" 
d="M141 -50q0 -22 36 -22t61 -22t24 -60q0 -84 -94 -84q-34 0 -60 14t-26 28t16 22q29 -39 72 -39q68 0 68 59q0 23 -18 41t-54 19q-68 0 -68 59q0 37 13 60l2 6l65 -25q-37 -34 -37 -56z" />
    <glyph glyph-name="guillemotright" unicode="&#xbb;" horiz-adv-x="530" 
d="M489 592q-10 -20 -92 -114t-118 -132l-11 14q18 34 52 74t45 54t50 56t42 48q-17 38 -146 174l-43 43q-2 4 4 14t11 13q16 -6 54 -58t90 -110t62 -76zM305 592q-10 -20 -92 -114t-119 -132l-10 14q18 34 52 74t45 54t51 56t40 48q-18 40 -145 174l-43 43q-2 4 4 14t10 13
q16 -6 54 -58t90 -110t63 -76z" />
    <glyph glyph-name="questiondown" unicode="&#xbf;" horiz-adv-x="509" 
d="M412 940q0 -25 -22 -41t-43 -16t-37 14q-15 14 -15 31q0 61 57 65q60 -14 60 -53zM469 -223q0 -93 -49 -155t-143 -62t-165 68t-71 221q0 154 97 276q40 49 82 96q100 112 104 266l12 181q0 10 11 10t13 -6l-2 -21q-6 -69 -6 -150t-44 -176t-96 -161q-140 -178 -140 -283
q0 -289 207 -289q84 0 127 43t43 119q-1 76 -17 84l8 6q10 -2 20 -26t9 -41z" />
    <glyph glyph-name="Agrave" unicode="&#xc0;" horiz-adv-x="772" 
d="M184 1694q0 30 9 30t70 -64t69 -71q104 -77 104 -99t-14 -22q-6 0 -70 60q-65 60 -83 73q-17 13 -51 51t-34 42zM213 856q0 -80 51 -119t178 -39q63 0 102 39q38 39 38 118t-28 211t-30 138q-14 80 -66 128q-53 48 -110 48q-59 -14 -97 -143t-38 -381zM41 5q0 42 30 196
q93 478 142 999q12 125 60 186t104 62q131 -23 162 -178q47 -248 94 -578q0 -2 59 -313q60 -311 60 -353t-19 -53q-18 25 -52 265t-46 276q-29 90 -100 131q-72 41 -218 41q-71 0 -107 -34q-63 -60 -107 -388q-17 -135 -22 -207t-18 -94q-22 0 -22 42z" />
    <glyph glyph-name="Aacute" unicode="&#xc1;" horiz-adv-x="772" 
d="M604 1694q0 -4 -34 -41t-51 -51t-82 -74t-69 -60t-10 8t-6 15q0 23 105 98q10 8 71 72q60 64 68 64t8 -31zM213 856q0 -80 51 -119t178 -39q63 0 102 39q38 39 38 118t-28 211t-30 138q-14 80 -66 128q-53 48 -110 48q-59 -14 -97 -143t-38 -381zM41 5q0 42 30 196
q93 478 142 999q12 125 60 186t104 62q131 -23 162 -178q47 -248 94 -578q0 -2 59 -313q60 -311 60 -353t-19 -53q-18 25 -52 265t-46 276q-29 90 -100 131q-72 41 -218 41q-71 0 -107 -34q-63 -60 -107 -388q-17 -135 -22 -207t-18 -94q-22 0 -22 42z" />
    <glyph glyph-name="Acircumflex" unicode="&#xc2;" horiz-adv-x="772" 
d="M565 1497q0 -29 -7 -29t-95 88l-53 62q-20 -10 -80 -80t-66 -70t-12 8t-6 14q0 5 24 29t72 75t66 63q8 -7 37 -41t74 -72q46 -38 46 -47zM213 856q0 -80 51 -119t178 -39q63 0 102 39q38 39 38 118t-28 211t-30 138q-14 80 -66 128q-53 48 -110 48q-59 -14 -97 -143
t-38 -381zM41 5q0 42 30 196q93 478 142 999q12 125 60 186t104 62q131 -23 162 -178q47 -248 94 -578q0 -2 59 -313q60 -311 60 -353t-19 -53q-18 25 -52 265t-46 276q-29 90 -100 131q-72 41 -218 41q-71 0 -107 -34q-63 -60 -107 -388q-17 -135 -22 -207t-18 -94
q-22 0 -22 42z" />
    <glyph glyph-name="Atilde" unicode="&#xc3;" horiz-adv-x="772" 
d="M504 1575q31 0 78 -31t47 -51l-11 -27q-6 2 -26 22q-52 53 -94 54q-18 0 -100 -37t-114 -37q-34 0 -73 28t-39 42t8 31l4 2q70 -61 104 -61t110 32q76 33 106 33zM213 856q0 -80 51 -119t178 -39q63 0 102 39q38 39 38 118t-28 211t-30 138q-14 80 -66 128
q-53 48 -110 48q-59 -14 -97 -143t-38 -381zM41 5q0 42 30 196q93 478 142 999q12 125 60 186t104 62q131 -23 162 -178q47 -248 94 -578q0 -2 59 -313q60 -311 60 -353t-19 -53q-18 25 -52 265t-46 276q-29 90 -100 131q-72 41 -218 41q-71 0 -107 -34q-63 -60 -107 -388
q-17 -135 -22 -207t-18 -94q-22 0 -22 42z" />
    <glyph glyph-name="Adieresis" unicode="&#xc4;" horiz-adv-x="772" 
d="M485 1530q0 31 54 47q49 -12 49 -55t-39 -43q-25 -1 -45 15t-19 36zM225 1522q0 23 22 39t50 16q41 0 41 -48t-55 -61q-58 17 -58 54zM213 856q0 -80 51 -119t178 -39q63 0 102 39q38 39 38 118t-28 211t-30 138q-14 80 -66 128q-53 48 -110 48q-59 -14 -97 -143
t-38 -381zM41 5q0 42 30 196q93 478 142 999q12 125 60 186t104 62q131 -23 162 -178q47 -248 94 -578q0 -2 59 -313q60 -311 60 -353t-19 -53q-18 25 -52 265t-46 276q-29 90 -100 131q-72 41 -218 41q-71 0 -107 -34q-63 -60 -107 -388q-17 -135 -22 -207t-18 -94
q-22 0 -22 42z" />
    <glyph glyph-name="Aring" unicode="&#xc5;" horiz-adv-x="772" 
d="M399 1645q-37 0 -59 -22t-23 -54q0 -74 78 -74q43 0 66 23q23 22 23 54t-24 52t-61 21zM297 1550q0 119 113 119q44 0 70 -37t26 -73q0 -35 -35 -63t-75 -28t-70 24t-29 58zM213 856q0 -80 51 -119t178 -39q63 0 102 39q38 39 38 118t-28 211t-30 138q-14 80 -66 128
q-53 48 -110 48q-59 -14 -97 -143t-38 -381zM41 5q0 42 30 196q93 478 142 999q12 125 60 186t104 62q131 -23 162 -178q47 -248 94 -578q0 -2 59 -313q60 -311 60 -353t-19 -53q-18 25 -52 265t-46 276q-29 90 -100 131q-72 41 -218 41q-71 0 -107 -34q-63 -60 -107 -388
q-17 -135 -22 -207t-18 -94q-22 0 -22 42z" />
    <glyph glyph-name="AE" unicode="&#xc6;" horiz-adv-x="1220" 
d="M209 775q0 -36 35 -50q34 -14 150 -14t147 16t31 84t-23 241t-35 228q-25 94 -133 113q-59 -17 -84 -119q-8 -29 -48 -246t-40 -253zM62 -37q-22 0 -21 46q0 47 35 233t96 511t102 568q6 41 44 75t98 38q66 -16 90 -58q12 25 78 25l268 -6l242 8q49 0 49 -33
q0 -27 -21 -27l-35 17q-35 16 -104 16q-255 0 -323 -12q-125 -22 -123 -74q24 -112 71 -489l23 -56q18 -20 144 -20t169 1q81 2 103 5l21 3q7 1 9 1q17 -1 17 -25t-15 -24q-2 0 -23 10t-199 10q-177 1 -214 -28q-18 -14 -18 -36q1 -22 25 -138t57 -260q33 -145 41 -187
q98 -18 246 -18t192 22q14 -1 14 -27t-45 -34l-220 14q-46 0 -200 -16h-2q-26 0 -87 380q-24 144 -44 206t-49 84q-31 20 -156 20t-164 -17t-57 -83q-60 -226 -95 -543q-9 -82 -19 -82z" />
    <glyph glyph-name="Ccedilla" unicode="&#xc7;" horiz-adv-x="694" 
d="M86 283q-45 145 -45 456q0 476 186 635q68 57 160 58q215 0 215 -172q-6 -10 -16 -11q-25 0 -25 40t-36 68t-105 27q-162 0 -255 -168t-93 -519q0 -353 97 -519t294 -166q45 0 82 26t54 56t30 57q12 28 14 29q31 0 31 -18q0 -88 -67 -139t-171 -62q-35 -27 -35 -53
t36 -25t61 -21t24 -61q0 -84 -94 -84q-34 -1 -60 13t-26 28t16 23q29 -39 72 -39q68 0 68 59q0 23 -18 41t-54 19q-68 0 -68 59l4 43q-152 21 -221 173q-33 73 -55 147z" />
    <glyph glyph-name="Egrave" unicode="&#xc8;" horiz-adv-x="677" 
d="M164 1694q0 31 10 30q10 0 70 -64q59 -64 67 -71q104 -76 105 -98q0 -23 -15 -23q-3 0 -69 60t-84 73t-50 51q-34 38 -34 42zM436 1374q-315 0 -354 -84l-12 -387q0 -94 36 -116q36 -21 134 -21q100 0 147 3t75 6t30 3q18 0 18 -16t-18 -35q-47 12 -116 12t-131 -19
t-89 -20q-86 0 -86 -294q0 -158 43 -287q10 -41 70 -61t223 -19q163 0 206 22l17 -10q-16 -68 -41 -71q-18 0 -124 15t-160 15q-52 0 -116 -11t-88 -11q-26 0 -38 11q-11 11 -11 19l-6 244l6 475l-14 641q4 20 31 35q186 -12 254 -12l262 8q33 0 32 -25q0 -36 -10 -53l-4 -4
q-82 47 -166 47z" />
    <glyph glyph-name="Eacute" unicode="&#xc9;" horiz-adv-x="677" 
d="M522 1694q0 -4 -34 -41t-51 -51t-82 -74t-69 -60t-10 8t-6 15q0 23 105 98q10 8 71 72q60 64 68 64t8 -31zM436 1374q-315 0 -354 -84l-12 -387q0 -94 36 -116q36 -21 134 -21q100 0 147 3t75 6t30 3q18 0 18 -16t-18 -35q-47 12 -116 12t-131 -19t-89 -20
q-86 0 -86 -294q0 -158 43 -287q10 -41 70 -61t223 -19q163 0 206 22l17 -10q-16 -68 -41 -71q-18 0 -124 15t-160 15q-52 0 -116 -11t-88 -11q-26 0 -38 11q-11 11 -11 19l-6 244l6 475l-14 641q4 20 31 35q186 -12 254 -12l262 8q33 0 32 -25q0 -36 -10 -53l-4 -4
q-82 47 -166 47z" />
    <glyph glyph-name="Ecircumflex" unicode="&#xca;" horiz-adv-x="677" 
d="M512 1497q0 -29 -7 -29t-95 88l-54 62q-19 -9 -79 -80q-60 -70 -66 -70t-12 8t-6 14q0 5 15 20l36 36q20 20 56 60t54 51q8 -6 40 -43t75 -73q43 -34 43 -44zM436 1374q-315 0 -354 -84l-12 -387q0 -94 36 -116q36 -21 134 -21q100 0 147 3t75 6t30 3q18 0 18 -16
t-18 -35q-47 12 -116 12t-131 -19t-89 -20q-86 0 -86 -294q0 -158 43 -287q10 -41 70 -61t223 -19q163 0 206 22l17 -10q-16 -68 -41 -71q-18 0 -124 15t-160 15q-52 0 -116 -11t-88 -11q-26 0 -38 11q-11 11 -11 19l-6 244l6 475l-14 641q4 20 31 35q186 -12 254 -12l262 8
q33 0 32 -25q0 -36 -10 -53l-4 -4q-82 47 -166 47z" />
    <glyph glyph-name="Edieresis" unicode="&#xcb;" horiz-adv-x="677" 
d="M430 1530q0 31 53 47q49 -12 49 -55t-38 -43q-24 -1 -44 15t-20 36zM170 1522q0 23 21 39q22 16 51 16q41 0 41 -48t-56 -61q-57 17 -57 54zM436 1374q-315 0 -354 -84l-12 -387q0 -94 36 -116q36 -21 134 -21q100 0 147 3t75 6t30 3q18 0 18 -16t-18 -35q-47 12 -116 12
t-131 -19t-89 -20q-86 0 -86 -294q0 -158 43 -287q10 -41 70 -61t223 -19q163 0 206 22l17 -10q-16 -68 -41 -71q-18 0 -124 15t-160 15q-52 0 -116 -11t-88 -11q-26 0 -38 11q-11 11 -11 19l-6 244l6 475l-14 641q4 20 31 35q186 -12 254 -12l262 8q33 0 32 -25
q0 -36 -10 -53l-4 -4q-82 47 -166 47z" />
    <glyph glyph-name="Igrave" unicode="&#xcc;" horiz-adv-x="202" 
d="M-102 1694q0 31 10 30q10 0 70 -64q59 -64 67 -71q104 -76 105 -98q0 -23 -15 -23q-6 0 -70 60q-65 60 -83 73t-50 51q-34 38 -34 42zM109 1430q23 0 22 -80q0 -4 -4 -115t-4 -353t4 -411q4 -170 7 -287t3 -137q0 -61 -33 -61q-10 0 -19 15t-9 31t7 133t7 481t-29 712
q1 72 48 72z" />
    <glyph glyph-name="Iacute" unicode="&#xcd;" horiz-adv-x="202" 
d="M297 1694q0 -4 -34 -41t-51 -51t-82 -74t-70 -60t-10 8t-5 15q0 23 105 98q8 6 69 71t69 65q9 0 9 -31zM109 1430q23 0 22 -80q0 -4 -4 -115t-4 -353t4 -411q4 -170 7 -287t3 -137q0 -61 -33 -61q-10 0 -19 15t-9 31t7 133t7 481t-29 712q1 72 48 72z" />
    <glyph glyph-name="Icircumflex" unicode="&#xce;" horiz-adv-x="202" 
d="M262 1497q0 -29 -7 -29t-95 88l-54 62q-19 -9 -79 -80q-60 -70 -66 -70t-12 8t-6 14q0 5 24 29l56 56q63 70 81 82q8 -6 40 -43t75 -73q43 -34 43 -44zM109 1430q23 0 22 -80q0 -4 -4 -115t-4 -353t4 -411q4 -170 7 -287t3 -137q0 -61 -33 -61q-10 0 -19 15t-9 31t7 133
t7 481t-29 712q1 72 48 72z" />
    <glyph glyph-name="Idieresis" unicode="&#xcf;" horiz-adv-x="202" 
d="M186 1530q0 31 54 47q49 -12 49 -55t-39 -43q-24 -1 -44 15t-20 36zM-74 1522q0 23 22 39t50 16q41 0 41 -48t-55 -61q-58 17 -58 54zM109 1430q23 0 22 -80q0 -4 -4 -115t-4 -353t4 -411q4 -170 7 -287t3 -137q0 -61 -33 -61q-10 0 -19 15t-9 31t7 133t7 481t-29 712
q1 72 48 72z" />
    <glyph glyph-name="Eth" unicode="&#xd0;" horiz-adv-x="727" 
d="M328 20q160 0 242 140t81 356q0 215 -7 340q-16 289 -95 406q-79 118 -244 116q-111 0 -151 -66t-39 -256q0 -192 2 -286q53 -2 149 -2t144 4l51 4q18 0 18 -21t-20 -22q-4 0 -109 8t-233 -2q10 -547 10 -633q6 -26 63 -56t138 -30zM41 1382q0 18 12 19q13 -13 41 -15
l232 15q360 0 360 -645q0 -394 -56 -541t-154 -190q-54 -25 -128 -25l-192 6l-90 -6q-18 0 -19 23q0 12 19 44q18 33 24 53t6 617q-29 -2 -90 -2q-12 -1 -12 19t12 20l90 -2q0 512 -12 537q-2 7 -22 31t-21 42z" />
    <glyph glyph-name="Ntilde" unicode="&#xd1;" horiz-adv-x="747" 
d="M545 1577q31 0 78 -31t47 -51l-11 -27q-6 2 -26 22q-52 54 -94 54q-17 0 -99 -37t-116 -37t-72 28q-39 28 -39 46t12 29q70 -61 104 -61q33 0 109 32q76 33 107 33zM79 -78q-17 0 -18 262v865l2 340q-1 27 13 46t33 19q45 0 67 -59q49 -117 226 -652t231 -632
q18 207 18 1007q-1 293 17 293t18 -262l-4 -848l-2 -250v-45q0 -63 -39 -63q-27 0 -39 65q-4 23 -84 278t-93 287q-13 33 -125 357t-125 348t-33 22q-20 0 -33 -17q-14 -17 -15 -40l-8 -457l10 -596q0 -268 -17 -268z" />
    <glyph glyph-name="Ograve" unicode="&#xd2;" horiz-adv-x="974" 
d="M254 1735q0 31 10 30t70 -65q59 -64 67 -70q104 -76 105 -98q0 -23 -14 -23q-4 -1 -70 59t-84 74t-50 52q-34 38 -34 41zM524 1389q-416 0 -415 -738q0 -160 50 -300t154 -233t246 -93t207 121t81 256q15 136 15 251q0 346 -47 479q-23 65 -58 128q-74 129 -233 129z
M61 702q0 203 35 355q62 271 225 361q71 40 150 40q442 0 442 -784q0 -702 -424 -703q-193 -1 -311 203t-117 528z" />
    <glyph glyph-name="Oacute" unicode="&#xd3;" horiz-adv-x="974" 
d="M733 1735q0 -4 -34 -41q-34 -38 -51 -52t-82 -74t-69 -59q-5 1 -11 9t-5 14q0 23 105 98q10 8 71 72q60 64 68 64t8 -31zM524 1389q-416 0 -415 -738q0 -160 50 -300t154 -233t246 -93t207 121t81 256q15 136 15 251q0 346 -47 479q-23 65 -58 128q-74 129 -233 129z
M61 702q0 203 35 355q62 271 225 361q71 40 150 40q442 0 442 -784q0 -702 -424 -703q-193 -1 -311 203t-117 528z" />
    <glyph glyph-name="Ocircumflex" unicode="&#xd4;" horiz-adv-x="974" 
d="M657 1538q0 -29 -7 -29t-95 88l-53 62q-16 -8 -78 -79t-68 -71q-6 1 -12 9t-6 13t24 29t72 75t66 63q8 -6 39 -42t74 -73q44 -36 44 -45zM524 1389q-416 0 -415 -738q0 -160 50 -300t154 -233t246 -93t207 121t81 256q15 136 15 251q0 346 -47 479q-23 65 -58 128
q-74 129 -233 129zM61 702q0 203 35 355q62 271 225 361q71 40 150 40q442 0 442 -784q0 -702 -424 -703q-193 -1 -311 203t-117 528z" />
    <glyph glyph-name="Otilde" unicode="&#xd5;" horiz-adv-x="974" 
d="M596 1618q31 0 78 -31t47 -51l-10 -27q-7 3 -27 23q-54 54 -94 53q-18 0 -100 -37t-114 -37q-34 0 -73 28t-39 47t10 24l2 4q70 -62 104 -62t110 33t106 33zM524 1389q-416 0 -415 -738q0 -160 50 -300t154 -233t246 -93t207 121t81 256q15 136 15 251q0 346 -47 479
q-23 65 -58 128q-74 129 -233 129zM61 702q0 203 35 355q62 271 225 361q71 40 150 40q442 0 442 -784q0 -702 -424 -703q-193 -1 -311 203t-117 528z" />
    <glyph glyph-name="Odieresis" unicode="&#xd6;" horiz-adv-x="974" 
d="M565 1571q0 31 53 47q50 -12 50 -55t-39 -43q-25 0 -45 16t-19 35zM305 1563q0 23 22 39t50 16q41 0 41 -48t-56 -61q-57 17 -57 54zM524 1389q-416 0 -415 -738q0 -160 50 -300t154 -233t246 -93t207 121t81 256q15 136 15 251q0 346 -47 479q-23 65 -58 128
q-74 129 -233 129zM61 702q0 203 35 355q62 271 225 361q71 40 150 40q442 0 442 -784q0 -702 -424 -703q-193 -1 -311 203t-117 528z" />
    <glyph glyph-name="multiply" unicode="&#xd7;" horiz-adv-x="544" 
d="M276 627q159 182 170 190q14 -6 15 -29l-164 -182l164 -192q4 -12 -17 -29l-168 201l-165 -189q-1 -4 -9 -3t-12 7l-8 17q32 30 96 102t76 84l-164 191q0 25 21 24q12 0 34 -28z" />
    <glyph glyph-name="Oslash" unicode="&#xd8;" horiz-adv-x="974" 
d="M500 4q104 0 182 74t116 186q72 211 72 404q0 339 -90 542l-534 -1067q98 -139 254 -139zM500 1427q-111 -1 -192 -77t-122 -200q-77 -233 -77 -506q0 -274 112 -462q157 291 313 615q156 323 224 458q-94 172 -258 172zM61 702q0 201 40 356q39 154 103 238
q126 166 271 166q193 0 303 -164q104 205 121 220q10 0 10 -23t-106 -235q111 -205 111 -571q-1 -718 -425 -718q-156 0 -264 135q-147 -268 -159 -276q-16 10 -17 18q8 23 150 293q-138 205 -138 561z" />
    <glyph glyph-name="Ugrave" unicode="&#xd9;" horiz-adv-x="763" 
d="M168 1694q0 31 10 30q10 0 70 -64q59 -64 67 -71q104 -76 105 -98q0 -23 -14 -23q-4 0 -70 60t-84 73t-50 51q-34 38 -34 42zM418 18q144 0 213 107q52 80 63 287q4 74 4 198t-17 354q-17 232 -17 340t34 138q25 -45 25 -105v-260l-6 -575q0 -331 -85 -445t-251 -113
t-245 122t-79 325l-4 727l-12 185q0 71 33 104q29 -23 28 -258l-22 -617q0 -514 338 -514z" />
    <glyph glyph-name="Uacute" unicode="&#xda;" horiz-adv-x="763" 
d="M627 1694q0 -4 -34 -41t-51 -51t-82 -74t-70 -60t-10 8t-5 15q0 23 104 98q8 6 69 71t70 65t9 -31zM418 18q144 0 213 107q52 80 63 287q4 74 4 198t-17 354q-17 232 -17 340t34 138q25 -45 25 -105v-260l-6 -575q0 -331 -85 -445t-251 -113t-245 122t-79 325l-4 727
l-12 185q0 71 33 104q29 -23 28 -258l-22 -617q0 -514 338 -514z" />
    <glyph glyph-name="Ucircumflex" unicode="&#xdb;" horiz-adv-x="763" 
d="M555 1497q0 -29 -7 -29t-95 88l-54 62q-19 -9 -79 -80q-60 -70 -66 -70t-12 8t-6 14q0 5 15 20l36 36q20 20 56 60t54 51q8 -6 40 -43t75 -73q43 -34 43 -44zM418 18q144 0 213 107q52 80 63 287q4 74 4 198t-17 354q-17 232 -17 340t34 138q25 -45 25 -105v-260l-6 -575
q0 -331 -85 -445t-251 -113t-245 122t-79 325l-4 727l-12 185q0 71 33 104q29 -23 28 -258l-22 -617q0 -514 338 -514z" />
    <glyph glyph-name="Udieresis" unicode="&#xdc;" horiz-adv-x="763" 
d="M467 1530q0 31 53 47q49 -12 49 -55t-39 -43q-25 -1 -44 15t-19 36zM207 1522q0 23 21 39q22 16 51 16q41 0 41 -48t-56 -61q-57 17 -57 54zM418 18q144 0 213 107q52 80 63 287q4 74 4 198t-17 354q-17 232 -17 340t34 138q25 -45 25 -105v-260l-6 -575q0 -331 -85 -445
t-251 -113t-245 122t-79 325l-4 727l-12 185q0 71 33 104q29 -23 28 -258l-22 -617q0 -514 338 -514z" />
    <glyph glyph-name="Yacute" unicode="&#xdd;" horiz-adv-x="577" 
d="M532 1694q0 -4 -34 -41t-50 -51q-18 -14 -83 -74t-69 -60q-5 0 -10 8t-5 15q0 23 104 98q10 8 71 72q60 64 68 64t8 -31zM655 1425q15 0 15 -34q0 -33 -30 -71t-54 -105t-140 -334t-120 -295q0 -91 -7 -217l21 -373q0 -55 -31 -107q-16 10 -16 82l-6 627q-20 57 -133 306
t-136 341q-55 129 -57 145t6 31q8 16 17 17q28 -27 64 -155q109 -382 259 -531q51 8 171 260t138 370q10 43 39 43z" />
    <glyph glyph-name="Thorn" unicode="&#xde;" horiz-adv-x="686" 
d="M90 612q0 -55 43 -89q68 -54 189 -54q120 0 212 63q50 35 80 108q31 73 31 175q0 193 -89 271t-323 79q-55 1 -89 -21t-35 -50q-19 -222 -19 -482zM78 1516q4 0 12 -157t21 -177q86 12 192 12q211 0 287 -81t76 -279t-80 -297q-80 -98 -264 -99q-132 0 -182 -15t-50 -56
q0 -209 8 -281t8 -76q0 -63 -28 -63t-29 49q-1 4 11 88t12 619q0 534 -31 774q0 39 37 39z" />
    <glyph glyph-name="germandbls" unicode="&#xdf;" horiz-adv-x="671" 
d="M106 715q0 27 -15 37t-58 10q-12 0 -13 20q33 0 60 10t26 29l5 299q0 123 65 218q66 96 184 96t170 -80t52 -186t-20 -183q-20 -76 -58 -134q-37 -58 -66 -87q85 -44 139 -145t54 -179q0 -254 -69 -355q-30 -44 -88 -78t-120 -34q-62 1 -98 17q-35 16 -45 18q0 31 33 31
q2 0 47 -16t100 -17q94 0 153 127q58 127 58 271t-91 242q-91 97 -204 97l-94 -4q-6 0 -6 21q0 16 61 20q119 0 202 92t83 261q0 117 -46 189q-47 72 -147 73q-100 0 -161 -75t-62 -200l10 -254q2 -49 -4 -163t-6 -134l-10 -311l10 -293q-14 2 -28 17l-3 88v645z" />
    <glyph glyph-name="agrave" unicode="&#xe0;" 
d="M154 1327q0 31 9 31t69 -64q61 -64 69 -71q104 -76 105 -99q0 -23 -15 -22q-8 0 -72 60q-63 60 -81 73q-18 14 -51 51t-33 41zM487 195v245q0 47 -24 70q-25 23 -88 31q-115 0 -206 -67t-101 -216q0 -92 49 -163t104 -70q111 0 189 48q77 48 77 122zM600 4q0 -6 -13 -6
t-50 34t-55 34t-98 -36t-138 -36q-59 0 -102 31q-71 52 -94 170q-9 45 -9 86q8 139 117 214t225 76q45 0 76 29t30 94q0 158 -34 228q-35 70 -129 69q-40 0 -100 -39t-60 -82q0 -10 14 -44t15 -52q0 -31 -30 -31t-30 85t52 137q53 51 131 51t141 -51t63 -123l-4 -553
q0 -188 53 -250l21 -21t8 -14z" />
    <glyph glyph-name="aacute" unicode="&#xe1;" 
d="M500 1327q0 -4 -34 -41t-51 -51t-83 -74t-70 -60q-4 1 -9 9t-5 14q0 23 104 99q8 7 69 71t70 64t9 -31zM487 195v245q0 47 -24 70q-25 23 -88 31q-115 0 -206 -67t-101 -216q0 -92 49 -163t104 -70q111 0 189 48q77 48 77 122zM600 4q0 -6 -13 -6t-50 34t-55 34t-98 -36
t-138 -36q-59 0 -102 31q-71 52 -94 170q-9 45 -9 86q8 139 117 214t225 76q45 0 76 29t30 94q0 158 -34 228q-35 70 -129 69q-40 0 -100 -39t-60 -82q0 -10 14 -44t15 -52q0 -31 -30 -31t-30 85t52 137q53 51 131 51t141 -51t63 -123l-4 -553q0 -188 53 -250l21 -21t8 -14z
" />
    <glyph glyph-name="acircumflex" unicode="&#xe2;" 
d="M489 1118q0 -16 -7 -16t-95 88l-53 61q-16 -9 -77 -79t-68 -70t-13 8t-6 14t36 40q36 36 72 75t54 51q8 -6 36 -39t41 -45t35 -29t33 -29q12 -12 12 -30zM487 195v245q0 47 -24 70q-25 23 -88 31q-115 0 -206 -67t-101 -216q0 -92 49 -163t104 -70q111 0 189 48
q77 48 77 122zM600 4q0 -6 -13 -6t-50 34t-55 34t-98 -36t-138 -36q-59 0 -102 31q-71 52 -94 170q-9 45 -9 86q8 139 117 214t225 76q45 0 76 29t30 94q0 158 -34 228q-35 70 -129 69q-40 0 -100 -39t-60 -82q0 -10 14 -44t15 -52q0 -31 -30 -31t-30 85t52 137
q53 51 131 51t141 -51t63 -123l-4 -553q0 -188 53 -250l21 -21t8 -14z" />
    <glyph glyph-name="atilde" unicode="&#xe3;" 
d="M442 1235q30 0 78 -31q47 -31 47 -51l-10 -27q-7 2 -27 22q-54 54 -94 54q-18 0 -99 -37t-115 -37t-72 28t-39 42q0 14 8 31l4 2q69 -61 103 -61t110 32q76 33 106 33zM487 195v245q0 47 -24 70q-25 23 -88 31q-115 0 -206 -67t-101 -216q0 -92 49 -163t104 -70
q111 0 189 48q77 48 77 122zM600 4q0 -6 -13 -6t-50 34t-55 34t-98 -36t-138 -36q-59 0 -102 31q-71 52 -94 170q-9 45 -9 86q8 139 117 214t225 76q45 0 76 29t30 94q0 158 -34 228q-35 70 -129 69q-40 0 -100 -39t-60 -82q0 -10 14 -44t15 -52q0 -31 -30 -31t-30 85
t52 137q53 51 131 51t141 -51t63 -123l-4 -553q0 -188 53 -250l21 -21t8 -14z" />
    <glyph glyph-name="adieresis" unicode="&#xe4;" 
d="M399 1163q0 31 54 47q49 -12 49 -55t-39 -43q-25 0 -45 16t-19 35zM139 1155q0 23 22 39t50 16q41 0 41 -48t-55 -60q-58 16 -58 53zM487 195v245q0 47 -24 70q-25 23 -88 31q-115 0 -206 -67t-101 -216q0 -92 49 -163t104 -70q111 0 189 48q77 48 77 122zM600 4
q0 -6 -13 -6t-50 34t-55 34t-98 -36t-138 -36q-59 0 -102 31q-71 52 -94 170q-9 45 -9 86q8 139 117 214t225 76q45 0 76 29t30 94q0 158 -34 228q-35 70 -129 69q-40 0 -100 -39t-60 -82q0 -10 14 -44t15 -52q0 -31 -30 -31t-30 85t52 137q53 51 131 51t141 -51t63 -123
l-4 -553q0 -188 53 -250l21 -21t8 -14z" />
    <glyph glyph-name="aring" unicode="&#xe5;" 
d="M328 1278q-37 0 -60 -22t-22 -54q0 -74 78 -74q44 0 66 23t22 55t-24 52t-60 20zM225 1184q0 119 113 119q45 0 71 -37q25 -37 25 -73t-35 -64q-35 -27 -75 -27t-70 24t-29 58zM487 195v245q0 47 -24 70q-25 23 -88 31q-115 0 -206 -67t-101 -216q0 -92 49 -163t104 -70
q111 0 189 48q77 48 77 122zM600 4q0 -6 -13 -6t-50 34t-55 34t-98 -36t-138 -36q-59 0 -102 31q-71 52 -94 170q-9 45 -9 86q8 139 117 214t225 76q45 0 76 29t30 94q0 158 -34 228q-35 70 -129 69q-40 0 -100 -39t-60 -82q0 -10 14 -44t15 -52q0 -31 -30 -31t-30 85
t52 137q53 51 131 51t141 -51t63 -123l-4 -553q0 -188 53 -250l21 -21t8 -14z" />
    <glyph glyph-name="ae" unicode="&#xe6;" horiz-adv-x="1009" 
d="M907 730q0 68 -49 134q-50 68 -160 68t-176 -131l2 -170q0 -61 49 -62q173 -1 233 17t81 47q20 29 20 97zM487 195l-2 241q0 39 -32 70q-33 31 -78 35q-115 0 -206 -67t-101 -216q0 -92 49 -163t104 -70q111 0 189 48q77 48 77 122zM718 0q-100 0 -143 43t-61 43
t-112 -46t-155 -46q-60 0 -103 31q-71 52 -94 170q-9 45 -9 86q8 139 117 214t225 76q45 0 76 29t30 94q0 158 -34 228q-35 70 -129 69q-40 0 -100 -39t-60 -82q0 -10 14 -44t15 -52q0 -31 -30 -31t-30 85q0 84 52 136q53 52 131 52t141 -51t63 -123q72 121 164 121
q64 0 112 -24q130 -65 130 -265q0 -59 -30 -89q-16 -20 -53 -23q-36 -3 -75 -3h-49q-145 -2 -199 -67v-123q0 -195 45 -273t146 -78q41 0 75 26t52 58q65 110 100 144q6 0 17 -7t12 -12q-29 -27 -71 -91t-84 -100t-96 -36z" />
    <glyph glyph-name="ccedilla" unicode="&#xe7;" horiz-adv-x="571" 
d="M293 -74q0 -24 36 -24q37 0 61 -22t24 -60q0 -84 -95 -84q-35 0 -61 13t-25 27q0 14 17 23q29 -39 72 -39q68 0 67 60q0 23 -18 41t-54 18q-68 0 -67 60l8 55q-94 37 -156 162q-61 125 -61 284q0 247 80 388q33 58 97 101q65 42 148 42q84 0 124 -75t40 -198
q0 -10 -7 -19t-17 -9q-20 0 -21 22q-1 6 9 18t10 19q0 130 -68 159q-54 23 -131 23q-229 0 -229 -465q0 -180 78 -301t184 -121t125 84q6 30 6 38v36q0 23 24 23t23 -27q0 -82 -52 -140t-134 -58q-37 -14 -37 -54z" />
    <glyph glyph-name="egrave" unicode="&#xe8;" horiz-adv-x="622" 
d="M109 1327q0 31 9 31t69 -64q61 -64 69 -71q104 -76 104 -99q0 -22 -11 -22t-75 60q-62 60 -80 73q-18 14 -52 51q-33 37 -33 41zM78 579q0 -36 23 -54q23 -17 97 -17q145 0 228 21q96 24 95 119q-1 96 -51 190t-153 94q-68 0 -118 -45q-79 -69 -111 -223q-10 -48 -10 -85
zM326 0q-285 0 -285 485q0 87 27 193t89 195q61 89 133 89t120 -30q130 -83 131 -320q0 -52 -23 -80t-59 -31q-37 -3 -76 -3h-49q-138 -4 -194 -54t-56 -162t77 -188t165 -76q40 0 74 26t52 58q65 110 101 144q6 0 17 -7t12 -12q-29 -27 -71 -91t-84 -100t-101 -36z" />
    <glyph glyph-name="eacute" unicode="&#xe9;" horiz-adv-x="622" 
d="M498 1327q0 -4 -34 -41t-51 -51t-83 -74t-70 -60q-4 1 -9 9t-5 14q0 23 104 99q8 7 69 71t70 64t9 -31zM78 579q0 -36 23 -54q23 -17 97 -17q145 0 228 21q96 24 95 119q-1 96 -51 190t-153 94q-68 0 -118 -45q-79 -69 -111 -223q-10 -48 -10 -85zM326 0q-285 0 -285 485
q0 87 27 193t89 195q61 89 133 89t120 -30q130 -83 131 -320q0 -52 -23 -80t-59 -31q-37 -3 -76 -3h-49q-138 -4 -194 -54t-56 -162t77 -188t165 -76q40 0 74 26t52 58q65 110 101 144q6 0 17 -7t12 -12q-29 -27 -71 -91t-84 -100t-101 -36z" />
    <glyph glyph-name="ecircumflex" unicode="&#xea;" horiz-adv-x="622" 
d="M149 1102q-6 0 -12 8t-6 14q-1 6 35 40q36 36 72 75t55 51q8 -6 40 -44t74 -71t44 -45q1 -28 -7 -28t-96 88l-53 61q-16 -8 -49 -46q-33 -39 -62 -71t-35 -32zM78 579q0 -36 23 -54q23 -17 97 -17q145 0 228 21q96 24 95 119q-1 96 -51 190t-153 94q-68 0 -118 -45
q-79 -69 -111 -223q-10 -48 -10 -85zM326 0q-285 0 -285 485q0 87 27 193t89 195q61 89 133 89t120 -30q130 -83 131 -320q0 -52 -23 -80t-59 -31q-37 -3 -76 -3h-49q-138 -4 -194 -54t-56 -162t77 -188t165 -76q40 0 74 26t52 58q65 110 101 144q6 0 17 -7t12 -12
q-29 -27 -71 -91t-84 -100t-101 -36z" />
    <glyph glyph-name="edieresis" unicode="&#xeb;" horiz-adv-x="622" 
d="M389 1163q0 31 53 47q50 -12 50 -55t-39 -43q-25 0 -45 16t-19 35zM129 1155q0 23 22 39t50 16q41 0 41 -48t-56 -60q-57 16 -57 53zM78 579q0 -36 23 -54q23 -17 97 -17q145 0 228 21q96 24 95 119q-1 96 -51 190t-153 94q-68 0 -118 -45q-79 -69 -111 -223
q-10 -48 -10 -85zM326 0q-285 0 -285 485q0 87 27 193t89 195q61 89 133 89t120 -30q130 -83 131 -320q0 -52 -23 -80t-59 -31q-37 -3 -76 -3h-49q-138 -4 -194 -54t-56 -162t77 -188t165 -76q40 0 74 26t52 58q65 110 101 144q6 0 17 -7t12 -12q-29 -27 -71 -91t-84 -100
t-101 -36z" />
    <glyph glyph-name="igrave" unicode="&#xec;" horiz-adv-x="210" 
d="M84 963q0 14 10 24q11 10 25 10q29 -18 28 -63l-8 -723l2 -53q-4 -32 -34 -107q-29 -74 -40 -93t-26 -19q0 3 18 37q54 101 56 171l6 207l-12 308q-1 174 -13 231q-12 56 -12 70zM-100 1327q0 31 9 31t69 -64q61 -64 69 -71q104 -76 105 -99q0 -23 -15 -22q-8 0 -72 60
q-63 60 -81 73q-18 14 -51 51t-33 41z" />
    <glyph glyph-name="iacute" unicode="&#xed;" horiz-adv-x="210" 
d="M317 1327q1 -4 -33 -41t-52 -51t-83 -74q-66 -60 -69 -60q-4 1 -9 9t-5 14q0 23 104 99q8 7 69 71t69 64q9 0 9 -31zM84 963q0 14 10 24q11 10 25 10q29 -18 28 -63l-8 -723l2 -53q-4 -32 -34 -107q-29 -74 -40 -93t-26 -19q0 5 18 39q54 104 56 169l6 207l-12 308
q-1 174 -13 231q-12 56 -12 70z" />
    <glyph glyph-name="icircumflex" unicode="&#xee;" horiz-adv-x="210" 
d="M-18 1102q-6 0 -13 8q-6 8 -6 14q-1 6 35 40q36 36 72 75t55 51q8 -6 36 -39q38 -44 78 -76q41 -32 44 -45q1 -28 -7 -28t-96 88l-53 61q-16 -8 -49 -46q-33 -39 -62 -71q-28 -32 -34 -32zM84 963q0 14 10 24q11 10 25 10q29 -18 28 -63l-8 -723l2 -53q-4 -32 -34 -107
q-29 -74 -40 -93t-26 -19q0 5 18 39q54 104 56 169l6 207l-12 308q-1 174 -13 231q-12 56 -12 70z" />
    <glyph glyph-name="idieresis" unicode="&#xef;" horiz-adv-x="210" 
d="M195 1163q0 31 53 47q49 -12 49 -55t-39 -43q-25 0 -44 16t-19 35zM-66 1155q0 23 22 39t50 16q41 0 41 -48t-55 -60q-58 16 -58 53zM84 963q0 14 10 24q11 10 25 10q29 -18 28 -63l-8 -723l2 -53q-4 -32 -34 -107q-29 -74 -40 -93t-26 -19q0 5 18 39q54 104 56 169
l6 207l-12 308q-1 174 -13 231q-12 56 -12 70z" />
    <glyph glyph-name="eth" unicode="&#xf0;" horiz-adv-x="595" 
d="M279 0q-80 0 -135 45q-84 70 -113 268q-44 305 87 511q58 94 136 94t146 -58t100 -147q-2 213 -146 467q-10 -6 -64 -41t-106 -62q-6 7 -6 17t12 22q25 12 69 38t83 46q-72 123 -125 164q-10 10 -41 38t-35 46q12 18 34 17t36 -24q13 -23 69 -93t93 -129q111 67 135 79
q12 -2 20 -24q-5 -3 -143 -76q168 -295 168 -807q-4 -171 -71 -281t-203 -110zM504 348q0 266 -58 391t-186 125q-66 -4 -110 -54q-67 -75 -92 -270q-7 -64 -7 -146q1 -82 19 -164t72 -144q54 -61 146 -61t154 94t62 229z" />
    <glyph glyph-name="ntilde" unicode="&#xf1;" horiz-adv-x="710" 
d="M434 1235q30 0 78 -31q47 -31 47 -51l-10 -27q-7 2 -27 22q-54 54 -94 54q-18 0 -99 -37t-115 -37t-73 28t-39 44t9 29l4 2q69 -61 103 -61t110 32q76 33 106 33zM373 1049q141 0 196 -129t56 -406v-559q0 -117 8 -147t16 -62q0 -12 -12 -12q-27 0 -41 304t-14 536
t-45 332q-45 101 -170 102q-91 0 -155 -150t-65 -352l17 -539q0 -39 -24 -87t-50 -82t-29 -17q41 45 54 125q14 80 14 131l-14 545l14 264q0 61 -13 98t-50 86q0 16 24 17l103 -70q4 0 64 36t116 36z" />
    <glyph glyph-name="ograve" unicode="&#xf2;" horiz-adv-x="663" 
d="M143 1327q1 31 9 31t69 -64t70 -71q104 -76 104 -99q0 -22 -11 -22t-75 60q-63 60 -81 73q-18 14 -51 51q-34 37 -34 41zM325 975q-75 0 -133 -67q-85 -97 -117 -323q-9 -65 -9 -102q0 -453 264 -452q139 0 200 97q62 97 62 303t-57 364q-29 80 -82 130t-128 50zM41 453
q0 281 89 427t220 146q70 0 125 -62q95 -107 128 -323t4 -352q-40 -202 -141 -285q-62 -51 -144 -51q-137 1 -209 151t-72 349z" />
    <glyph glyph-name="oacute" unicode="&#xf3;" horiz-adv-x="663" 
d="M514 1327q0 -4 -34 -41t-51 -51t-83 -75t-70 -59q-4 1 -9 9t-5 14q0 23 105 99q8 7 69 71t69 64q9 0 9 -31zM325 975q-75 0 -133 -67q-85 -97 -117 -323q-9 -65 -9 -102q0 -453 264 -452q139 0 200 97q62 97 62 303t-57 364q-29 80 -82 130t-128 50zM41 453q0 281 89 427
t220 146q70 0 125 -62q95 -107 128 -323t4 -352q-40 -202 -141 -285q-62 -51 -144 -51q-137 1 -209 151t-72 349z" />
    <glyph glyph-name="ocircumflex" unicode="&#xf4;" horiz-adv-x="663" 
d="M471 1118q0 -16 -7 -16t-95 88l-54 61q-16 -9 -77 -79t-68 -70q-6 0 -12 8t-6 14t36 40l43 44q64 70 82 82q8 -6 36 -39t41 -45t35 -29t34 -29t12 -30zM325 975q-75 0 -133 -67q-85 -97 -117 -323q-9 -65 -9 -102q0 -453 264 -452q139 0 200 97q62 97 62 303t-57 364
q-29 80 -82 130t-128 50zM41 453q0 281 89 427t220 146q70 0 125 -62q95 -107 128 -323t4 -352q-40 -202 -141 -285q-62 -51 -144 -51q-137 1 -209 151t-72 349z" />
    <glyph glyph-name="otilde" unicode="&#xf5;" horiz-adv-x="663" 
d="M444 1235q30 0 78 -31q47 -31 47 -51l-10 -27q-7 2 -27 22q-54 54 -94 54q-18 0 -99 -37t-115 -37t-72 28t-39 46q0 18 12 29q69 -61 103 -61t110 32q76 33 106 33zM325 975q-75 0 -133 -67q-85 -97 -117 -323q-9 -65 -9 -102q0 -453 264 -452q139 0 200 97q62 97 62 303
t-57 364q-29 80 -82 130t-128 50zM41 453q0 281 89 427t220 146q70 0 125 -62q95 -107 128 -323t4 -352q-40 -202 -141 -285q-62 -51 -144 -51q-137 1 -209 151t-72 349z" />
    <glyph glyph-name="odieresis" unicode="&#xf6;" horiz-adv-x="663" 
d="M410 1163q0 31 53 47q49 -12 49 -55t-39 -43q-25 0 -44 16t-19 35zM150 1155q0 23 21 39q22 16 50 16q41 0 41 -48t-55 -60q-57 16 -57 53zM325 975q-75 0 -133 -67q-85 -97 -117 -323q-9 -65 -9 -102q0 -453 264 -452q139 0 200 97q62 97 62 303t-57 364q-29 80 -82 130
t-128 50zM41 453q0 281 89 427t220 146q70 0 125 -62q95 -107 128 -323t4 -352q-40 -202 -141 -285q-62 -51 -144 -51q-137 1 -209 151t-72 349z" />
    <glyph glyph-name="divide" unicode="&#xf7;" horiz-adv-x="700" 
d="M281 887q0 25 21 41q22 16 43 16t37 -14t15 -31q0 -61 -57 -65q-59 14 -59 53zM281 332q0 25 21 41q22 16 43 16t37 -14t15 -31q0 -61 -57 -65q-59 14 -59 53zM84 629l367 -4l170 6q8 -6 8 -41q-17 -2 -175 2t-178 0l-198 -4l-6 20q0 16 12 21z" />
    <glyph glyph-name="oslash" unicode="&#xf8;" horiz-adv-x="663" 
d="M333 993q-83 0 -142 -69q-85 -103 -116 -336q-9 -68 -9 -105q0 -266 88 -393q57 129 172 430t153 389q-63 84 -146 84zM330 0q135 0 198 111q64 111 64 361t-94 407l-320 -818q57 -61 152 -61zM41 468q0 266 89 412t220 146q78 0 144 -86q92 215 116 238q31 0 -22 -107
q-52 -107 -76 -162q53 -90 82 -226q29 -135 29 -227q1 -92 -15 -168t-48 -154q-32 -79 -94 -130t-149 -51t-155 74q-76 -174 -105 -220q-16 11 -14 21t15 43t38 87t43 99q-98 145 -98 411z" />
    <glyph glyph-name="ugrave" unicode="&#xf9;" horiz-adv-x="655" 
d="M139 1327q1 31 9 31t69 -64t70 -71q104 -76 104 -99q0 -22 -11 -22t-75 60q-63 60 -81 73q-18 14 -52 51t-33 41zM584 -39q0 -23 -21 -22q-23 1 -53 33t-45 32q-16 0 -83 -30t-120 -29q-74 0 -122 91q-81 153 -82 489q-1 335 -9 391t-8 59q0 18 27 18t26 -30q0 -8 -5 -75
t-11 -232t6 -279q12 -115 30 -197t58 -131q38 -49 106 -49t130 36t81 83q18 47 33 317q14 270 15 447q0 12 17 28q16 17 28 17t12 -7t-12 -23t-15 -48q-8 -143 -11 -338t-8 -287q-11 -199 31 -255q5 -7 5 -9z" />
    <glyph glyph-name="uacute" unicode="&#xfa;" horiz-adv-x="655" 
d="M530 1327q0 -4 -34 -41t-50 -51q-18 -14 -84 -74t-69 -60q-4 1 -9 9t-5 14q0 23 104 99q8 7 69 71t69 64q9 0 9 -31zM584 -39q0 -23 -21 -22q-23 1 -53 33t-45 32q-16 0 -83 -30t-120 -29q-74 0 -122 91q-81 153 -82 489q-1 335 -9 391t-8 59q0 18 27 18t26 -30
q0 -8 -5 -75t-11 -232t6 -279q12 -115 30 -197t58 -131q38 -49 106 -49t130 36t81 83q18 47 33 317q14 270 15 447q0 12 17 28q16 17 28 17t12 -7t-12 -23t-15 -48q-8 -143 -11 -338t-8 -287q-11 -199 31 -255q5 -7 5 -9z" />
    <glyph glyph-name="ucircumflex" unicode="&#xfb;" horiz-adv-x="655" 
d="M487 1118q0 -16 -7 -16t-95 88l-53 61q-16 -9 -77 -79t-68 -70t-13 8t-6 14t36 40q36 36 72 75t54 51q8 -6 36 -39t41 -45t35 -29t33 -29q12 -12 12 -30zM584 -39q0 -23 -21 -22q-23 1 -53 33t-45 32q-16 0 -83 -30t-120 -29q-74 0 -122 91q-81 153 -82 489
q-1 335 -9 391t-8 59q0 18 27 18t26 -30q0 -8 -5 -75t-11 -232t6 -279q12 -115 30 -197t58 -131q38 -49 106 -49t130 36t81 83q18 47 33 317q14 270 15 447q0 12 17 28q16 17 28 17t12 -7t-12 -23t-15 -48q-8 -143 -11 -338t-8 -287q-11 -199 31 -255q5 -7 5 -9z" />
    <glyph glyph-name="udieresis" unicode="&#xfc;" horiz-adv-x="655" 
d="M403 1163q0 31 54 47q49 -12 49 -55t-39 -43q-25 0 -45 16t-19 35zM143 1155q0 23 22 39t50 16q41 0 41 -48t-55 -60q-58 16 -58 53zM584 -39q0 -23 -21 -22q-23 1 -53 33t-45 32q-16 0 -83 -30t-120 -29q-74 0 -122 91q-81 153 -82 489q-1 335 -9 391t-8 59q0 18 27 18
t26 -30q0 -8 -5 -75t-11 -232t6 -279q12 -115 30 -197t58 -131q38 -49 106 -49t130 36t81 83q18 47 33 317q14 270 15 447q0 12 17 28q16 17 28 17t12 -7t-12 -23t-15 -48q-8 -143 -11 -338t-8 -287q-11 -199 31 -255q5 -7 5 -9z" />
    <glyph glyph-name="yacute" unicode="&#xfd;" horiz-adv-x="518" 
d="M444 1327q0 -4 -34 -41t-50 -51q-18 -14 -84 -74t-69 -60q-4 1 -9 9t-5 14q0 23 104 99q8 7 69 71t69 64q9 0 9 -31zM272 -418q-84 0 -156 74t-73 149l20 181q2 5 12 9q9 5 13 9q10 0 10 -16t-17 -64t-18 -76q0 -94 66 -164t160 -69q180 0 180 295l-4 225q0 53 -50 53
q-51 0 -97 -43t-76 -43q-113 0 -163 155t-50 374l12 309q0 42 -10 56t-11 16q14 20 22 20t17 -8q10 -8 11 -18l-13 -334q0 -215 46 -371t133 -156q100 1 163 133t64 267l4 358q0 4 1 33t-13 56q-14 28 -4 48q11 20 29 20t18 -30l-11 -182l11 -807q0 -239 -50 -349t-176 -110
z" />
    <glyph glyph-name="thorn" unicode="&#xfe;" horiz-adv-x="669" 
d="M391 874q-246 0 -246 -448q0 -4 -2 -87t20 -156q22 -72 45 -94q55 -50 122 -50q122 0 192 106t70 263q0 226 -44 346t-157 120zM84 -565q-12 0 -12 12q39 47 53 115q6 196 -1 366t-22 1415q-6 15 -44 29t-38 21q0 14 26 14t46 8t32 8q24 0 26 -57q0 -12 -6 -104t-5 -410
q0 -55 29 -55q10 1 42 29q98 87 181 85q109 0 173 -130q64 -131 65 -329q0 -198 -72 -325t-158 -127t-155 32t-94 66l6 -450q0 -94 -22 -154t-50 -59z" />
    <glyph glyph-name="ydieresis" unicode="&#xff;" horiz-adv-x="518" 
d="M342 1163q0 31 53 47q49 -12 49 -55t-38 -43q-25 0 -45 15q-19 16 -19 36zM82 1155q0 23 21 39q22 16 51 16q41 0 41 -48t-56 -60q-57 16 -57 53zM272 -418q-84 0 -156 74t-73 149l20 181q2 5 12 9q9 5 13 9q10 0 10 -16t-17 -64t-18 -76q0 -94 66 -164t160 -69
q180 0 180 295l-4 225q0 53 -50 53q-51 0 -97 -43t-76 -43q-113 0 -163 155t-50 374l12 309q0 42 -10 56t-11 16q14 20 22 20t17 -8q10 -8 11 -18l-13 -334q0 -215 46 -371t133 -156q100 1 163 133t64 267l4 358q0 4 1 33t-13 56q-14 28 -4 48q11 20 29 20t18 -30l-11 -182
l11 -807q0 -239 -50 -349t-176 -110z" />
    <glyph glyph-name="dotlessi" unicode="&#x131;" horiz-adv-x="210" 
d="M84 983q0 14 10 25q11 10 25 10q29 -18 28 -64l-8 -723l2 -53q-4 -31 -34 -105q-29 -75 -40 -95t-26 -19q0 2 18 37q54 105 56 172l6 207l-12 307q-1 178 -13 232q-12 55 -12 69z" />
    <glyph glyph-name="OE" unicode="&#x152;" horiz-adv-x="1531" 
d="M470 1427q-102 -1 -182 -77q-132 -125 -182 -448q-18 -124 -18 -242q0 -232 87 -432q44 -99 123 -161q79 -63 182 -63t182 74q78 74 116 186q72 216 72 407q0 192 -31 335t-68 225q-38 82 -109 139q-70 57 -172 57zM41 702q0 201 40 356q40 154 103 238q125 166 271 166
q307 0 399 -399v139q0 141 8 170t53 29l275 -6l262 8q49 0 49 -33q0 -27 -20 -27q-2 1 -47 17t-113 16q-309 0 -363 -17t-63 -69l-12 -387q0 -104 24 -117q18 -20 198 -20q181 0 223 5t46 5q18 0 18 -24t-16 -25q-2 0 -33 10t-213 10q-182 1 -214 -32t-33 -279
q0 -246 18 -301q39 -96 408 -96q145 0 188 22q14 -1 14 -27t-45 -34q-16 0 -104 7t-150 7l-245 -18q-61 0 -90 22q-18 18 -19 310q-92 -356 -389 -357q-193 -1 -311 203t-117 528z" />
    <glyph glyph-name="oe" unicode="&#x153;" horiz-adv-x="1150" 
d="M606 579q0 -71 98 -71q168 0 256 23q89 23 89 117q-1 96 -51 190t-152 94q-68 0 -119 -45t-76 -110q-45 -117 -45 -198zM325 993q-75 0 -134 -69q-85 -103 -116 -336q-9 -68 -9 -152t22 -185t82 -176q61 -75 160 -75q135 0 198 111q64 111 64 320t-57 373q-29 83 -82 136
t-128 53zM854 0q-201 0 -260 231q-30 -121 -98 -199t-174 -79q-137 1 -209 151t-72 349q0 281 89 427t220 146q90 0 152 -100t94 -250q33 121 92 204q58 83 130 83t120 -31t73 -71q24 -40 41 -107t17 -132q0 -66 -30 -99q-19 -25 -127 -25h-50q-139 -4 -194 -54
q-56 -50 -56 -162t77 -188t165 -76q41 0 75 26t52 58q61 107 100 144q5 0 17 -7t12 -12q-29 -27 -71 -91t-84 -100t-101 -36z" />
    <glyph glyph-name="Scaron" unicode="&#x160;" horiz-adv-x="722" 
d="M201 1638q0 8 12 8t41 -32q30 -33 62 -71t49 -46q9 18 75 84t73 66t7 -14t-43 -48q-43 -35 -75 -73t-40 -44q-18 12 -81 82l-56 56q-24 24 -24 32zM383 1391q-117 0 -192 -69q-75 -70 -75 -184t58 -192q57 -78 138 -133t162 -115t138 -158q58 -97 58 -250t-79 -242
t-229 -89q-281 0 -280 375q0 41 22 41q49 -18 50 -70q0 -307 174 -307q311 0 311 240q0 214 -108 336q-67 75 -173 151t-154 124q-108 108 -108 294q0 129 74 210t236 81q106 0 164 -69t57 -169q-2 -6 -29 -29q-12 0 -16 23q-37 201 -199 201z" />
    <glyph glyph-name="scaron" unicode="&#x161;" horiz-adv-x="542" 
d="M131 1312q0 8 12 9q12 0 74 -70t78 -80q9 18 75 84t73 66t8 -13t-34 -41t-47 -40t-41 -45q-28 -33 -36 -39q-18 12 -54 51q-37 39 -57 59q-20 19 -36 35t-15 24zM88 270q0 -262 191 -262q90 0 140 60t50 158q0 99 -49 166t-154 130q-39 25 -77 55q-38 31 -83 101t-45 161
t57 157t147 67q90 0 150 -65t60 -117q0 -17 -17 -25t-20 -8q-6 14 -25 64t-52 70q-34 20 -97 22q-166 0 -166 -177q0 -92 58 -167q58 -74 145 -122q86 -48 143 -131q58 -83 58 -187t-60 -176t-146 -73q-152 0 -210 116q-45 90 -45 177q0 27 6 37q10 10 35 10q6 -18 6 -41z
" />
    <glyph glyph-name="Ydieresis" unicode="&#x178;" horiz-adv-x="577" 
d="M399 1530q0 31 54 47q49 -12 49 -55t-39 -43q-25 -1 -45 15t-19 36zM139 1522q0 23 22 39t50 16q41 0 41 -48t-55 -61q-58 17 -58 54zM655 1425q15 0 15 -34q0 -33 -30 -71t-54 -105t-140 -334t-120 -295q0 -91 -7 -217l21 -373q0 -55 -31 -107q-16 10 -16 82l-6 627
q-20 57 -133 306t-136 341q-55 129 -57 145t6 31q8 16 17 17q28 -27 64 -155q109 -382 259 -531q51 8 171 260t138 370q10 43 39 43z" />
    <glyph glyph-name="Zcaron" unicode="&#x17d;" horiz-adv-x="710" 
d="M215 1638q0 8 12 8t41 -32q29 -33 62 -71t49 -46q9 18 75 84t73 66t8 -13t-42 -47q-42 -34 -75 -74q-33 -39 -41 -45q-18 12 -66 63t-72 75t-24 32zM412 1380q-130 0 -214 -10t-137 -10q-41 25 -41 33q33 37 76 37q2 0 69 -8t192 -7q126 0 278 19q62 0 76 -35
q-107 -258 -247 -546t-230 -472t-113 -264q0 -37 34 -55q33 -18 191 -19q158 0 224 13t81 14q7 0 13 -18t8 -21q0 -37 -62 -37l-213 14l-274 -12q-98 0 -103 47q25 140 255 513q89 142 195 364t171 442q-99 18 -229 18z" />
    <glyph glyph-name="zcaron" unicode="&#x17e;" 
d="M158 1312q0 8 12 9q12 0 41 -33q29 -32 61 -70t50 -47q10 18 76 84t72 66q7 0 7 -14t-34 -41t-47 -39t-41 -45t-36 -39q-17 12 -53 51t-56 59q-20 19 -36 35t-16 24zM63 944q-22 0 -22 43t8 54t39 12l211 -13l221 11q25 -1 45 -9t25 -18q-49 -143 -162 -350t-195 -365
t-81 -237q14 -41 78 -41t186 12q121 12 131 12q23 -23 22 -65q-10 -2 -24 2t-107 4l-299 -10q-25 0 -55 4t-41 4q8 76 99 230t210 365q119 212 176 396l-315 14q-127 0 -150 -55z" />
    <glyph glyph-name="circumflex" unicode="&#x2c6;" horiz-adv-x="524" 
d="M422 1118q0 -16 -7 -16t-96 88l-53 61q-16 -9 -77 -79t-68 -70q-6 0 -12 8q-7 8 -7 13t24 29t72 75t66 63q8 -6 36 -39t41 -45t35 -29t34 -29t12 -30z" />
    <glyph glyph-name="caron" unicode="&#x2c7;" horiz-adv-x="524" 
d="M114 1321q12 0 42 -33q30 -32 62 -70t48 -47q10 18 76 84t72 66q8 0 8 -14t-34 -41t-47 -39t-41 -45t-36 -39q-18 12 -54 51t-56 59l-36 36q-15 15 -16 22q0 10 12 10z" />
    <glyph glyph-name="dotaccent" unicode="&#x2d9;" horiz-adv-x="210" 
d="M119 1243q31 0 31 -31q0 -18 -9 -28q0 -8 -12 -14t-23 -7q-47 12 -47 43q0 17 4 21q33 16 56 16z" />
    <glyph glyph-name="ring" unicode="&#x2da;" horiz-adv-x="413" 
d="M205 1278q-37 0 -60 -22t-22 -54q0 -74 78 -74q43 0 65 23t23 55t-23 52t-61 20zM102 1184q0 119 113 119q45 0 71 -37t26 -73t-36 -64q-34 -27 -74 -27t-70 24t-30 58z" />
    <glyph glyph-name="tilde" unicode="&#x2dc;" horiz-adv-x="661" 
d="M434 1235q30 0 78 -31q47 -31 47 -51l-10 -27q-7 2 -27 22q-54 54 -94 54q-18 0 -99 -37t-115 -37t-73 28t-39 44t9 29l4 2q69 -61 103 -61t110 32q76 33 106 33z" />
    <glyph glyph-name="endash" unicode="&#x2013;" horiz-adv-x="720" 
d="M246 600l-178 -4q-6 4 -6 17t12 18h428l149 -4q8 -6 8 -29q-17 -2 -205 2t-208 0z" />
    <glyph glyph-name="emdash" unicode="&#x2014;" horiz-adv-x="1212" 
d="M74 631l837 4l232 -4q8 -6 8 -37q-16 -2 -348 4t-352 2l-383 -4q-6 4 -6 17t12 18z" />
    <glyph glyph-name="quoteleft" unicode="&#x2018;" horiz-adv-x="198" 
d="M111 1237q19 1 33 -17t14 -42t-16 -39q-16 -16 -40 -17q-61 0 -61 120t92 226q8 -2 8 -10t-19 -32q-57 -72 -59 -164l9 -58q6 33 39 33z" />
    <glyph glyph-name="quoteright" unicode="&#x2019;" horiz-adv-x="198" 
d="M41 1412q0 24 15 40t40 16q61 0 62 -104q0 -135 -92 -242q-21 5 5 36q64 77 64 171l-8 57q-6 -33 -39 -32q-18 0 -33 17q-14 17 -14 41z" />
    <glyph glyph-name="quotesinglbase" unicode="&#x201a;" horiz-adv-x="198" 
d="M41 56q0 24 15 40t40 17q61 0 62 -105q0 -135 -92 -241q-20 5 5 35q64 78 64 171l-8 58q-6 -33 -39 -33q-18 0 -33 17q-14 17 -14 41z" />
    <glyph glyph-name="quotedblleft" unicode="&#x201c;" horiz-adv-x="376" 
d="M336 1178q0 -24 -15 -39q-15 -16 -40 -17q-61 0 -62 105q0 135 92 241q8 -2 8 -10t-19 -32q-58 -73 -58 -164l8 -58q6 33 39 33q18 0 33 -17q14 -18 14 -42zM111 1237q19 1 33 -17t14 -42t-16 -39q-16 -16 -40 -17q-61 0 -61 120t92 226q8 -2 8 -10t-19 -32
q-57 -72 -59 -164l9 -58q6 33 39 33z" />
    <glyph glyph-name="quotedblright" unicode="&#x201d;" horiz-adv-x="376" 
d="M219 1412q0 24 15 40t40 16q61 0 62 -104q0 -135 -92 -242q-8 2 -8 10t19 32q58 72 58 165l-8 57q-6 -33 -39 -32q-18 0 -33 17q-14 17 -14 41zM41 1412q0 24 15 40t40 16q61 0 62 -104q0 -135 -92 -242q-21 5 5 36q64 77 64 171l-8 57q-6 -33 -39 -32q-18 0 -33 17
q-14 17 -14 41z" />
    <glyph glyph-name="quotedblbase" unicode="&#x201e;" horiz-adv-x="376" 
d="M219 56q0 24 15 40t40 17q61 0 62 -105q0 -135 -92 -241q-8 2 -8 10t19 32q58 73 58 164l-8 58q-6 -33 -39 -33q-18 0 -33 17q-14 17 -14 41zM41 56q0 24 15 40t40 17q61 0 62 -105q0 -135 -92 -241q-20 5 5 35q64 78 64 171l-8 58q-6 -33 -39 -33q-18 0 -33 17
q-14 17 -14 41z" />
    <glyph glyph-name="bullet" unicode="&#x2022;" horiz-adv-x="292" 
d="M84 537q-24 31 -23 51q0 20 23 51q4 2 24 20q20 19 47 19q29 0 53 -24t24 -58t-15 -49q0 -16 -23 -30q-24 -13 -55 -12t-55 32z" />
    <glyph glyph-name="ellipsis" unicode="&#x2026;" horiz-adv-x="677" 
d="M520 53q0 25 22 41q46 34 80 2q15 -14 15 -30q0 -61 -57 -66q-60 14 -60 53zM281 53q0 25 21 41q46 34 80 2q15 -14 15 -30q0 -61 -57 -66q-59 14 -59 53zM41 53q0 25 21 41q47 35 80 2q15 -14 16 -30q0 -61 -58 -66q-59 14 -59 53z" />
    <glyph glyph-name="guilsinglleft" unicode="&#x2039;" horiz-adv-x="346" 
d="M41 592q10 18 62 76t59 67q70 94 86 101q4 -2 10 -12t4 -15q-164 -168 -188 -217q0 -5 40 -48t51 -57t46 -54t51 -73l-10 -14q-37 38 -119 132t-92 114z" />
    <glyph glyph-name="guilsinglright" unicode="&#x203a;" horiz-adv-x="346" 
d="M305 592q-10 -20 -92 -114t-119 -132l-10 14q18 34 52 74t45 54t51 56t40 48q-18 40 -145 174l-43 43q-2 4 4 14t10 13q16 -6 54 -58t90 -110t63 -76z" />
    <glyph glyph-name="Euro" unicode="&#x20ac;" horiz-adv-x="735" 
d="M414 31q141 0 174 77q16 36 16 89l-2 41q0 18 18 18q32 0 33 -29q0 -111 -57 -179t-142 -68t-152 49q-142 104 -163 444q-20 -2 -55 -2t-43 2q0 25 8 31l86 2l4 110h-92q0 23 8 35h88q19 183 101 313t179 130t162 -58t64 -141q1 -27 -23 -27t-24 23q0 55 -40 110t-129 55
t-161 -117q-72 -118 -92 -288h199l192 4q10 -4 11 -18l-7 -16q-16 -2 -134 1t-134 -1l-131 -5l-2 -110q68 4 109 4l282 -2q12 -4 13 -19l-7 -16l-219 4q-27 4 -176 -4q14 -166 76 -304t162 -138z" />
    </font>
</defs>
</svg>
