<?xml version="1.0" standalone="no"?>
<!DOCTYPE svg PUBLIC "-//W3C//DTD SVG 1.1//EN" "http://www.w3.org/Graphics/SVG/1.1/DTD/svg11.dtd" >
<svg xmlns="http://www.w3.org/2000/svg">
<metadata>
Created by FontPrep 20130207 at Thu Jun 19 23:03:43 2014
 By Diego Escares
Copyright (c) 2008 Fabian Flores. Editada por Javier Quintana para el catalogo del proyecto academico www.esostiposdelautem.cl
</metadata>
<defs>
<font id="2cd595035c50289dfedc9884ecc567d9" horiz-adv-x='1024' >
  <font-face 
    font-family="dfdMiliciana"
    font-weight="400"
    font-stretch="normal"
    units-per-em="2048"
    panose-1="0 0 0 0 0 0 0 0 0 0"
    ascent="1536"
    descent="-512"
    x-height="1434"
    cap-height="1434"
    bbox="-51 -328 1798 1814"
    underline-thickness="102"
    underline-position="-102"
    unicode-range="U+0020-20AC"
  />
<missing-glyph horiz-adv-x="450" 
 />
    <glyph glyph-name=".notdef" horiz-adv-x="450" 
 />
    <glyph glyph-name=".null" horiz-adv-x="0" 
 />
    <glyph glyph-name="nonmarkingreturn" horiz-adv-x="681" 
 />
    <glyph glyph-name="space" unicode=" " horiz-adv-x="450" 
 />
    <glyph glyph-name="exclam" unicode="!" horiz-adv-x="491" 
d="M307 266q103 0 103 -133t-103 -133h-123q-102 0 -102 133t102 133h123zM82 1434h328l-21 -1024h-287z" />
    <glyph glyph-name="quotedbl" unicode="&#x22;" horiz-adv-x="696" 
d="M307 1366v-260q-59 -41 -225 -41v301q0 68 72 68h82q71 0 71 -68zM614 1366v-260q-59 -41 -225 -41v301q0 68 72 68h82q71 0 71 -68z" />
    <glyph glyph-name="numbersign" unicode="#" horiz-adv-x="1150" 
d="M535 821l-64 -207h143l64 207h-143zM1014 1247l-68 -221h164l-63 -205h-164l-64 -207h166l-63 -204h-166l-70 -228h-205l70 228h-141l-70 -226h-205l70 226h-164l63 204h162l64 207h-164l63 205h164l70 223h205l-70 -223h143l68 221h205z" />
    <glyph glyph-name="dollar" unicode="$" horiz-adv-x="970" 
d="M567 1167q-137 1 -137 -113q0 -103 155 -237q65 -55 129 -117t110 -151q44 -90 44 -195q0 -260 -250 -317v-180h-266v163h-188v246h201q176 0 176 115q0 84 -155 220q-66 56 -130 121t-109 158t-45 199q0 256 250 316v182h266v-164h179v-246h-230z" />
    <glyph glyph-name="percent" unicode="%" horiz-adv-x="1687" 
d="M1360 528q0 72 -64 72h-30q-63 0 -64 -72v-270q0 -74 64 -74h30q63 0 64 74v270zM977 565q0 111 59 175t176 65h138q117 0 176 -65t59 -175v-346q0 -109 -59 -175t-176 -64h-138q-117 0 -176 66t-59 173v346zM485 1178q0 72 -63 71h-31q-63 0 -63 -71v-271q0 -74 63 -73
h31q63 0 63 73v271zM102 1214q0 111 60 176t176 64h137q117 0 176 -64t60 -176v-346q1 -108 -59 -174t-177 -65h-137q-117 -1 -176 65t-60 174v346zM281 -20l901 1474h225l-901 -1474h-225z" />
    <glyph glyph-name="ampersand" unicode="&#x26;" horiz-adv-x="1110" 
d="M629 584h-117q-113 0 -113 -103v-82q0 -73 29 -103t86 -30t86 30t29 103v185zM946 983v-133h123v-266h-123v-285q0 -151 -93 -225t-265 -74h-150q-192 0 -274 72t-82 225v184q0 123 54 177t140 55v8q-86 0 -140 55t-54 176v185q0 153 83 225t273 72h385v-267h-278
q-78 -1 -112 -33t-34 -110v-72q0 -102 113 -102h117v133h317z" />
    <glyph glyph-name="quotesingle" unicode="'" horiz-adv-x="389" 
d="M307 1366v-260q-59 -41 -225 -41v301q0 68 72 68h82q71 0 71 -68z" />
    <glyph glyph-name="parenleft" unicode="(" horiz-adv-x="661" 
d="M389 1169v-964q0 -266 211 -266v-256q-262 0 -390 133t-128 409v903q0 274 128 408t390 133v-256q-94 0 -153 -68q-58 -70 -58 -176z" />
    <glyph glyph-name="parenright" unicode=")" horiz-adv-x="661" 
d="M272 205v964q0 105 -58 175t-153 69v256q263 0 391 -133t128 -408v-903q0 -276 -128 -409t-391 -133v256q211 0 211 266z" />
    <glyph glyph-name="asterisk" unicode="*" horiz-adv-x="819" 
d="M522 819h-225v123l-154 -61l-41 184l185 61l-185 62l41 184l154 -61v123h225v-123l154 61l41 -184l-185 -62l185 -61l-41 -184l-154 61v-123z" />
    <glyph glyph-name="plus" unicode="+" horiz-adv-x="901" 
d="M328 358v236h-226v246h226v235h245v-235h226v-246h-226v-236h-245z" />
    <glyph glyph-name="comma" unicode="," horiz-adv-x="450" 
d="M164 266h123q43 0 62 -26t20 -107v-276h-133v143h-72q-43 0 -63 27q-19 27 -19 107t19 106q20 26 63 26z" />
    <glyph glyph-name="hyphen" unicode="-" horiz-adv-x="819" 
d="M102 840h615v-246h-615v246z" />
    <glyph glyph-name="period" unicode="." horiz-adv-x="450" 
d="M164 266h123q43 0 62 -26t19 -107t-18 -107q-20 -26 -63 -26h-123q-43 0 -63 27q-19 27 -19 107t19 106q20 26 63 26z" />
    <glyph glyph-name="slash" unicode="/" horiz-adv-x="716" 
d="M-41 -205l492 1802h307l-492 -1802h-307z" />
    <glyph glyph-name="zero" unicode="0" horiz-adv-x="1085" 
d="M686 369v696q0 51 -26 77t-66 25h-102q-41 1 -67 -25t-26 -77v-696q0 -51 26 -77t67 -26h102q40 0 66 26t26 77zM82 324v786q0 324 317 324h287q317 0 318 -324v-786q0 -324 -318 -324h-287q-317 0 -317 324z" />
    <glyph glyph-name="one" unicode="1" horiz-adv-x="675" 
d="M82 0v266h113v901h-113v267h430v-1168h92v-266h-522z" />
    <glyph glyph-name="two" unicode="2" horiz-adv-x="899" 
d="M379 266h448v-266h-632q-63 0 -104 34q-40 34 -40 99v113q0 70 74 180t161 207q87 96 160 205q74 109 74 176q0 154 -203 153h-245v267h360q416 0 416 -367q0 -111 -74 -250t-161 -243t-161 -195q-74 -90 -73 -113z" />
    <glyph glyph-name="three" unicode="3" horiz-adv-x="884" 
d="M154 584v266h198q113 0 113 102v72q0 78 -34 111t-112 32h-268v267h375q190 0 273 -72t83 -225v-205q0 -211 -174 -211v-8q174 0 174 -211v-205q0 -153 -82 -225t-274 -72h-375v266h268q80 0 113 33t33 111v71q0 102 -113 103h-198z" />
    <glyph glyph-name="four" unicode="4" horiz-adv-x="1036" 
d="M586 0v420h-125q-420 0 -420 360v654h297v-545q0 -119 45 -161t162 -42h41v748h317v-748h82v-266h-82v-420h-317z" />
    <glyph glyph-name="five" unicode="5" horiz-adv-x="942" 
d="M850 1434v-267h-430v-317h164q131 0 209 -76t77 -190v-252q0 -164 -104 -248t-289 -84h-375v266h349q102 0 102 117v102q0 98 -102 99h-246q-45 0 -74 28t-29 74v748h748z" />
    <glyph glyph-name="six" unicode="6" horiz-adv-x="983" 
d="M410 594v-225q0 -65 28 -89t84 -24q57 0 85 24t28 89v112q0 65 -28 89t-85 24h-112zM410 850h266q246 0 246 -246v-276q0 -182 -98 -266t-302 -82q-430 0 -430 348v784q0 152 102 237t295 85h392v-267h-265q-110 0 -158 -44t-48 -140v-133z" />
    <glyph glyph-name="seven" unicode="7" horiz-adv-x="778" 
d="M113 584v266h215v317h-328v267h645v-584h92v-266h-92v-584h-317v584h-215z" />
    <glyph glyph-name="eight" unicode="8" horiz-adv-x="1044" 
d="M635 348v144q0 46 -31 74t-82 28q-113 0 -112 -113v-133q0 -102 112 -102t113 102zM522 840q53 0 83 28t30 74v133q0 113 -113 113t-112 -113v-123q-1 -112 112 -112zM573 1434q175 0 277 -102t102 -270q0 -169 -50 -243t-87 -90l-16 -8v-8q61 -20 116 -88
q56 -68 58 -197v-84q1 -162 -99 -253t-280 -91h-143q-180 0 -280 91q-99 91 -99 253v84q0 130 56 195t99 82l19 8v8q-22 7 -51 35t-49 60q-52 82 -53 248t101 268t277 102h102z" />
    <glyph glyph-name="nine" unicode="9" horiz-adv-x="962" 
d="M553 788v287q0 65 -28 89t-85 24t-85 -24t-27 -89v-174q0 -113 112 -113h113zM553 522h-205q-145 0 -226 77t-81 230v297q0 307 287 308h223q170 0 245 -73t74 -235v-1126h-317v522z" />
    <glyph glyph-name="colon" unicode=":" horiz-adv-x="450" 
d="M164 1024h123q43 0 62 -27t19 -107t-18 -106q-20 -27 -63 -26h-123q-43 0 -63 26q-19 27 -19 107q0 81 20 107t62 26zM164 266h123q43 0 62 -26t19 -107t-18 -107q-20 -26 -63 -26h-123q-43 0 -63 27q-19 27 -19 107t19 106q20 26 63 26z" />
    <glyph glyph-name="semicolon" unicode=";" horiz-adv-x="450" 
d="M164 266h123q43 0 62 -26t20 -107v-276h-133v143h-72q-43 0 -63 27q-19 27 -19 107t19 106q20 26 63 26zM164 1022h123q43 0 62 -27t19 -107t-18 -106q-20 -27 -63 -26h-123q-43 0 -63 26q-19 27 -19 107q0 81 20 107t62 26z" />
    <glyph glyph-name="less" unicode="&#x3c;" horiz-adv-x="737" 
d="M635 457l-64 -242l-469 322v258l469 321l64 -242l-338 -208z" />
    <glyph glyph-name="equal" unicode="=" horiz-adv-x="860" 
d="M102 1026h656v-225h-656v225zM102 635h656v-225h-656v225z" />
    <glyph glyph-name="greater" unicode="&#x3e;" horiz-adv-x="737" 
d="M166 215l-64 242l338 209l-338 208l64 242l469 -321v-258z" />
    <glyph glyph-name="question" unicode="?" horiz-adv-x="860" 
d="M399 266q103 0 103 -133t-103 -133h-123q-102 0 -102 133t102 133h123zM102 1434h289q193 0 301 -98t106 -266q-1 -168 -117 -313q-48 -61 -95 -115q-115 -133 -115 -232h-266q0 90 41 177t91 144t91 133t41 144q0 160 -176 159h-191v267z" />
    <glyph glyph-name="at" unicode="@" horiz-adv-x="1550" 
d="M532 1004v184h179q369 0 368 -359v-399q80 0 122 51t42 144v327q0 317 -295 318h-352q-289 0 -289 -293v-541q0 -128 94 -200t250 -72h428v-184h-428q-268 0 -408 114t-141 385v488q0 247 115 367t356 120h375q268 0 384 -111t116 -354v-364q0 -160 -93 -270t-276 -109
h-225q-201 0 -307 79t-107 224q0 281 414 280q0 174 -176 175h-146zM854 645q-188 0 -188 -106q0 -111 188 -109v215z" />
    <glyph glyph-name="A" unicode="A" 
d="M440 1167l-16 -317h180l-18 211q-11 106 -146 106zM72 1167v267h387q395 0 436 -355l129 -1079h-338l-55 584h-221l-31 -584h-328l92 1167h-71z" />
    <glyph glyph-name="B" unicode="B" horiz-adv-x="1146" 
d="M440 1188v-338q141 0 198 41q56 41 56 129t-55 128q-56 40 -199 40zM440 604v-338q162 0 235 36t73 132t-73 133t-235 37zM123 266v1168h317q571 0 572 -402q0 -98 -48 -169t-96 -93l-49 -20q36 -7 87 -35q52 -27 87 -61t64 -100t28 -144q0 -209 -152 -310
q-153 -100 -423 -100h-469v266h82z" />
    <glyph glyph-name="C" unicode="C" horiz-adv-x="911" 
d="M870 1434v-267h-243q-111 0 -159 -44t-48 -140v-532q0 -97 48 -141t159 -44h243v-266h-370q-193 0 -295 85t-103 237v790q0 152 102 237t296 85h370z" />
    <glyph glyph-name="D" unicode="D" horiz-adv-x="1136" 
d="M41 266h82v1168h276q313 0 495 -186t181 -531q0 -345 -181 -531t-495 -186h-358v266zM440 1167v-901q127 0 217 114t91 337q0 223 -90 337t-218 113z" />
    <glyph glyph-name="E" unicode="E" horiz-adv-x="921" 
d="M881 266v-266h-381q-193 0 -295 85t-103 237v262h-82v266h82v584h779v-267h-461v-317h373v-266h-373v-133q0 -97 48 -141t159 -44h254z" />
    <glyph glyph-name="F" unicode="F" horiz-adv-x="890" 
d="M420 0h-318v584h-82v266h82v584h779v-267h-461v-317h373v-266h-373v-584z" />
    <glyph glyph-name="G" unicode="G" 
d="M584 502v266h368v-440q0 -180 -101 -264t-308 -84q-440 0 -441 348v784q0 152 102 237t296 85h411v-267h-284q-111 0 -159 -44t-48 -140v-594q0 -143 123 -143t123 143v113h-82z" />
    <glyph glyph-name="H" unicode="H" horiz-adv-x="1105" 
d="M1024 1434v-1434h-317v584h-287v-584h-318v584h-82v266h82v584h318v-584h287v584h317z" />
    <glyph glyph-name="I" unicode="I" horiz-adv-x="501" 
d="M102 1167h-82v267h400v-1434h-318v1167z" />
    <glyph glyph-name="J" unicode="J" horiz-adv-x="808" 
d="M205 1167v267h522v-1112q0 -152 -102 -237t-295 -85h-289v266h162q111 0 159 44t48 141v716h-205z" />
    <glyph glyph-name="K" unicode="K" horiz-adv-x="1093" 
d="M745 1434h308q0 -248 -35 -414t-78 -234t-109 -112l183 -674h-338l-125 590q-49 -6 -131 -6v-584h-318v584h-82v266h82v584h318v-584q122 0 188 46q138 95 137 538z" />
    <glyph glyph-name="L" unicode="L" horiz-adv-x="829" 
d="M829 266v-266h-329q-193 0 -295 85t-103 237v1112h318v-983q0 -97 48 -141t159 -44h202z" />
    <glyph glyph-name="M" unicode="M" horiz-adv-x="1669" 
d="M20 1167v267h1162q219 0 312 -92t93 -238v-1104h-317v979q0 98 -47 143t-160 45h-59v-1167h-318v979q0 96 -46 142t-165 46h-55v-1167h-318v1167h-82z" />
    <glyph glyph-name="N" unicode="N" horiz-adv-x="1105" 
d="M102 1167h-82v267h607q193 0 295 -85t102 -237v-1112h-317v983q-1 96 -49 140t-158 44h-80v-1167h-318v1167z" />
    <glyph glyph-name="O" unicode="O" horiz-adv-x="1126" 
d="M707 399v635q1 154 -143 154t-144 -154v-635q0 -154 143 -153q144 -1 144 153zM1024 1096v-758q0 -178 -121 -268t-340 -90t-340 90t-121 268v758q0 178 121 268t340 90t340 -90t121 -268z" />
    <glyph glyph-name="P" unicode="P" horiz-adv-x="1021" 
d="M102 768v666h318q272 0 427 -114t155 -342t-158 -352q-156 -124 -424 -124v-502h-318v502h-82v266h82zM420 1188v-420q132 0 198 50t66 161t-66 160t-198 49z" />
    <glyph glyph-name="Q" unicode="Q" horiz-adv-x="1105" 
d="M420 1034v-635q0 -154 143 -153q143 0 144 153v635q1 154 -143 154t-144 -154zM102 328v768q0 178 121 268t340 90t340 -90t121 -268v-768q0 -160 -91 -242t-216 -98q0 -70 114 -70h254v-246h-274q-207 0 -304 84t-97 232q-124 16 -216 98t-92 242z" />
    <glyph glyph-name="R" unicode="R" horiz-adv-x="1093" 
d="M420 1188v-379q150 0 222 42t73 148q-1 105 -73 147t-222 42zM102 809v625h318q623 0 622 -435q0 -197 -136 -316q-32 -28 -54 -40l-21 -10l183 -633h-338l-125 549q-49 -6 -131 -6v-543h-318v543h-82v266h82z" />
    <glyph glyph-name="S" unicode="S" horiz-adv-x="909" 
d="M817 1434v-267h-311q-63 1 -100 -27t-37 -79t37 -101t92 -93q54 -42 120 -95t121 -107q55 -55 92 -135t37 -168q0 -362 -432 -362h-344v266h273q176 0 176 115q1 49 -51 102t-126 109t-147 120q-74 64 -125 158t-51 201q0 168 106 265t299 98h371z" />
    <glyph glyph-name="T" unicode="T" horiz-adv-x="860" 
d="M266 1167h-266v267h850v-267h-266v-1167h-318v1167z" />
    <glyph glyph-name="U" unicode="U" horiz-adv-x="1146" 
d="M1024 266h82v-266h-606q-193 0 -295 85t-103 237v1112h318v-983q0 -97 48 -141t159 -44h80v1168h317v-1168z" />
    <glyph glyph-name="V" unicode="V" horiz-adv-x="1075" 
d="M606 0q-387 0 -436 354l-150 1080h338l121 -1061q6 -55 40 -81t106 -26l82 1168h327l-133 -1434h-295z" />
    <glyph glyph-name="W" unicode="W" horiz-adv-x="1648" 
d="M1567 1434v-1434h-1080q-219 0 -312 92t-93 238v1104h317v-979q0 -97 47 -143t160 -46h60v1168h317v-979q0 -97 46 -143t165 -46h55v1168h318z" />
    <glyph glyph-name="X" unicode="X" horiz-adv-x="1044" 
d="M287 717q-31 31 -70 100q-78 138 -114 306q-36 169 -42 311h318q8 -182 44 -328t69 -201l30 -55q14 20 35 60q20 40 60 191t49 333h317q-12 -278 -84 -458t-121 -235l-20 -24q24 -24 66 -98q143 -252 159 -619h-317q-15 290 -100 493q-19 48 -31 68l-13 23
q-14 -20 -34 -62t-61 -192q-40 -152 -48 -330h-318q12 277 84 454t121 238z" />
    <glyph glyph-name="Y" unicode="Y" horiz-adv-x="983" 
d="M332 0v573q-70 -1 -131 55t-78 160l-103 646h328l62 -510q10 -84 82 -84t81 84l62 510h328l-103 -646q-16 -104 -78 -159t-131 -56v-573h-319z" />
    <glyph glyph-name="Z" unicode="Z" horiz-adv-x="870" 
d="M51 1434h645q70 0 97 -27t26 -96v-144l-430 -901h430v-266h-645q-70 0 -96 27t-27 96v143l430 901h-430v267z" />
    <glyph glyph-name="bracketleft" unicode="[" horiz-adv-x="661" 
d="M389 1434v-1516h211v-235h-518v1986h518v-235h-211z" />
    <glyph glyph-name="backslash" unicode="\" horiz-adv-x="716" 
d="M266 1597l492 -1802h-307l-492 1802h307z" />
    <glyph glyph-name="bracketright" unicode="]" horiz-adv-x="661" 
d="M272 -82v1516h-211v235h519v-1986h-519v235h211z" />
    <glyph glyph-name="asciicircum" unicode="^" horiz-adv-x="962" 
d="M338 1044l-236 21l236 389h287l235 -389l-235 -21l-144 246z" />
    <glyph glyph-name="underscore" unicode="_" horiz-adv-x="1003" 
d="M102 0h799v-246h-799v246z" />
    <glyph glyph-name="grave" unicode="`" horiz-adv-x="819" 
d="M614 1669l-30 -194l-379 71l31 215z" />
    <glyph glyph-name="a" unicode="a" 
d="M440 1167l-16 -317h180l-18 211q-11 106 -146 106zM72 1167v267h387q395 0 436 -355l129 -1079h-338l-55 584h-221l-31 -584h-328l92 1167h-71z" />
    <glyph glyph-name="b" unicode="b" horiz-adv-x="1146" 
d="M440 1188v-338q141 0 198 41q56 41 56 129t-55 128q-56 40 -199 40zM440 604v-338q162 0 235 36t73 132t-73 133t-235 37zM123 266v1168h317q571 0 572 -402q0 -98 -48 -169t-96 -93l-49 -20q36 -7 87 -35q52 -27 87 -61t64 -100t28 -144q0 -209 -152 -310
q-153 -100 -423 -100h-469v266h82z" />
    <glyph glyph-name="c" unicode="c" horiz-adv-x="911" 
d="M870 1434v-267h-243q-111 0 -159 -44t-48 -140v-532q0 -97 48 -141t159 -44h243v-266h-370q-193 0 -295 85t-103 237v790q0 152 102 237t296 85h370z" />
    <glyph glyph-name="d" unicode="d" horiz-adv-x="1136" 
d="M41 266h82v1168h276q313 0 495 -186t181 -531q0 -345 -181 -531t-495 -186h-358v266zM440 1167v-901q127 0 217 114t91 337q0 223 -90 337t-218 113z" />
    <glyph glyph-name="e" unicode="e" horiz-adv-x="921" 
d="M881 266v-266h-381q-193 0 -295 85t-103 237v262h-82v266h82v584h779v-267h-461v-317h373v-266h-373v-133q0 -97 48 -141t159 -44h254z" />
    <glyph glyph-name="f" unicode="f" horiz-adv-x="890" 
d="M420 0h-318v584h-82v266h82v584h779v-267h-461v-317h373v-266h-373v-584z" />
    <glyph glyph-name="g" unicode="g" 
d="M584 502v266h368v-440q0 -180 -101 -264t-308 -84q-440 0 -441 348v784q0 152 102 237t296 85h411v-267h-284q-111 0 -159 -44t-48 -140v-594q0 -143 123 -143t123 143v113h-82z" />
    <glyph glyph-name="h" unicode="h" horiz-adv-x="1105" 
d="M1024 1434v-1434h-317v584h-287v-584h-318v584h-82v266h82v584h318v-584h287v584h317z" />
    <glyph glyph-name="i" unicode="i" horiz-adv-x="501" 
d="M102 1167h-82v267h400v-1434h-318v1167z" />
    <glyph glyph-name="j" unicode="j" horiz-adv-x="808" 
d="M205 1167v267h522v-1112q0 -152 -102 -237t-295 -85h-289v266h162q111 0 159 44t48 141v716h-205z" />
    <glyph glyph-name="k" unicode="k" horiz-adv-x="1093" 
d="M745 1434h308q0 -248 -35 -414t-78 -234t-109 -112l183 -674h-338l-125 590q-49 -6 -131 -6v-584h-318v584h-82v266h82v584h318v-584q122 0 188 46q138 95 137 538z" />
    <glyph glyph-name="l" unicode="l" horiz-adv-x="829" 
d="M829 266v-266h-329q-193 0 -295 85t-103 237v1112h318v-983q0 -97 48 -141t159 -44h202z" />
    <glyph glyph-name="m" unicode="m" horiz-adv-x="1669" 
d="M20 1167v267h1162q219 0 312 -92t93 -238v-1104h-317v979q0 98 -47 143t-160 45h-59v-1167h-318v979q0 96 -46 142t-165 46h-55v-1167h-318v1167h-82z" />
    <glyph glyph-name="n" unicode="n" horiz-adv-x="1105" 
d="M102 1167h-82v267h607q193 0 295 -85t102 -237v-1112h-317v983q-1 96 -49 140t-158 44h-80v-1167h-318v1167z" />
    <glyph glyph-name="o" unicode="o" horiz-adv-x="1126" 
d="M707 399v635q1 154 -143 154t-144 -154v-635q0 -154 143 -153q144 -1 144 153zM1024 1096v-758q0 -178 -121 -268t-340 -90t-340 90t-121 268v758q0 178 121 268t340 90t340 -90t121 -268z" />
    <glyph glyph-name="p" unicode="p" horiz-adv-x="1021" 
d="M102 768v666h318q272 0 427 -114t155 -342t-158 -352q-156 -124 -424 -124v-502h-318v502h-82v266h82zM420 1188v-420q132 0 198 50t66 161t-66 160t-198 49z" />
    <glyph glyph-name="q" unicode="q" horiz-adv-x="1105" 
d="M420 1034v-635q0 -154 143 -153q143 0 144 153v635q1 154 -143 154t-144 -154zM102 328v768q0 178 121 268t340 90t340 -90t121 -268v-768q0 -160 -91 -242t-216 -98q0 -70 114 -70h254v-246h-274q-207 0 -304 84t-97 232q-124 16 -216 98t-92 242z" />
    <glyph glyph-name="r" unicode="r" horiz-adv-x="1093" 
d="M420 1188v-379q150 0 222 42t73 148q-1 105 -73 147t-222 42zM102 809v625h318q623 0 622 -435q0 -197 -136 -316q-32 -28 -54 -40l-21 -10l183 -633h-338l-125 549q-49 -6 -131 -6v-543h-318v543h-82v266h82z" />
    <glyph glyph-name="s" unicode="s" horiz-adv-x="909" 
d="M817 1434v-267h-311q-63 1 -100 -27t-37 -79t37 -101t92 -93q54 -42 120 -95t121 -107q55 -55 92 -135t37 -168q0 -362 -432 -362h-344v266h273q176 0 176 115q1 49 -51 102t-126 109t-147 120q-74 64 -125 158t-51 201q0 168 106 265t299 98h371z" />
    <glyph glyph-name="t" unicode="t" horiz-adv-x="849" 
d="M266 1167h-266v267h850v-267h-266v-1167h-318v1167z" />
    <glyph glyph-name="u" unicode="u" horiz-adv-x="1146" 
d="M1024 266h82v-266h-606q-193 0 -295 85t-103 237v1112h318v-983q0 -97 48 -141t159 -44h80v1168h317v-1168z" />
    <glyph glyph-name="v" unicode="v" horiz-adv-x="1095" 
d="M606 0q-387 0 -436 354l-150 1080h338l121 -1061q6 -55 40 -81t106 -26l82 1168h327l-133 -1434h-295z" />
    <glyph glyph-name="w" unicode="w" horiz-adv-x="1648" 
d="M1567 1434v-1434h-1080q-219 0 -312 92t-93 238v1104h317v-979q0 -97 47 -143t160 -46h60v1168h317v-979q0 -97 46 -143t165 -46h55v1168h318z" />
    <glyph glyph-name="x" unicode="x" horiz-adv-x="1044" 
d="M287 717q-31 31 -70 100q-78 138 -114 306q-36 169 -42 311h318q8 -182 44 -328t69 -201l30 -55q14 20 35 60q20 40 60 191t49 333h317q-12 -278 -84 -458t-121 -235l-20 -24q24 -24 66 -98q143 -252 159 -619h-317q-15 290 -100 493q-19 48 -31 68l-13 23
q-14 -20 -34 -62t-61 -192q-40 -152 -48 -330h-318q12 277 84 454t121 238z" />
    <glyph glyph-name="y" unicode="y" horiz-adv-x="983" 
d="M332 0v573q-70 -1 -131 55t-78 160l-103 646h328l62 -510q10 -84 82 -84t81 84l62 510h328l-103 -646q-16 -104 -78 -159t-131 -56v-573h-319z" />
    <glyph glyph-name="z" unicode="z" horiz-adv-x="870" 
d="M51 1434h645q70 0 97 -27t26 -96v-144l-430 -901h430v-266h-645q-70 0 -96 27t-27 96v143l430 901h-430v267z" />
    <glyph glyph-name="braceleft" unicode="{" horiz-adv-x="743" 
d="M471 543v-400q0 -205 211 -204v-256q-262 -1 -390 117t-128 364v338q0 82 -72 82h-51v266h51q72 0 72 82v258q0 244 128 362t390 117v-256q-94 0 -152 -52t-59 -130v-340q0 -80 -44 -123t-110 -43v-16q66 0 110 -43t44 -123z" />
    <glyph glyph-name="bar" unicode="|" horiz-adv-x="552" 
d="M123 -205v1802h307v-1802h-307z" />
    <glyph glyph-name="braceright" unicode="}" horiz-adv-x="743" 
d="M272 143v400q0 80 44 123t110 43v16q-66 0 -110 43t-44 123v340q0 78 -58 130t-153 52v256q263 0 391 -118t128 -361v-258q0 -82 71 -82h51v-266h-51q-72 0 -71 -82v-338q0 -246 -128 -364t-391 -117v256q211 -1 211 204z" />
    <glyph glyph-name="asciitilde" unicode="~" horiz-adv-x="860" 
d="M594 598q-76 0 -173 15t-161 16t-143 -39l-25 -12l-10 204q61 61 184 62q64 0 160 -16t179 -15q83 0 140 31l23 10l10 -205q-45 -51 -184 -51z" />
    <glyph glyph-name="exclamdown" unicode="&#xa1;" horiz-adv-x="491" 
d="M307 1167h-123q-102 0 -102 133t102 134h123q102 0 102 -134t-102 -133zM410 0h-328l20 1024h287z" />
    <glyph glyph-name="cent" unicode="&#xa2;" horiz-adv-x="899" 
d="M797 1393v-246h-183q-110 0 -158 -44t-48 -140v-492q0 -96 48 -140t158 -44h183v-246h-179v-184h-266v198q-250 59 -250 307v709q0 246 250 305v201h266v-184h179z" />
    <glyph glyph-name="sterling" unicode="&#xa3;" horiz-adv-x="1013" 
d="M102 850h82v262q0 152 102 237t296 85h288v-267h-172q-110 0 -158 -44t-48 -140v-133h215v-266h-215v-318h378v-266h-768v266h82v318h-82v266z" />
    <glyph glyph-name="currency" unicode="&#xa4;" horiz-adv-x="1269" 
d="M768 594v246q0 50 -26 76t-66 26h-82q-41 0 -67 -26t-25 -76v-246q0 -51 26 -77t66 -25h82q40 0 66 26t26 76zM205 569v295q0 104 35 174l-158 191l266 184l139 -227q10 2 35 2h226q23 0 34 -2l140 227l266 -184l-158 -191q35 -76 35 -174v-295q0 -100 -35 -176l158 -188
l-266 -185l-140 226h-295l-139 -226l-266 185l158 188q-35 70 -35 176z" />
    <glyph glyph-name="yen" unicode="&#xa5;" horiz-adv-x="1105" 
d="M102 788h119l-119 646h328l51 -510q11 -84 71 -84t73 84l51 510h328l-119 -646h119v-225h-291v-135h229v-225h-229v-203h-320v203h-229v225h229v135h-291v225z" />
    <glyph glyph-name="brokenbar" unicode="&#xa6;" horiz-adv-x="552" 
d="M123 -205v1802h307v-1802h-307z" />
    <glyph glyph-name="dieresis" unicode="&#xa8;" horiz-adv-x="970" 
d="M639 1720h20q107 0 107 -110t-107 -111h-20q-43 0 -74 26t-30 85q0 59 30 85q31 25 74 25zM311 1720h21q43 0 74 -26q30 -26 30 -84q0 -59 -30 -85t-74 -26h-21q-106 1 -106 111t106 110z" />
    <glyph glyph-name="copyright" unicode="&#xa9;" horiz-adv-x="1091" 
d="M479 537h129q125 1 190 67t64 191v254q0 131 -66 203t-190 71h-127q-129 0 -191 -72t-59 -202v-254q1 -115 63 -187t187 -71zM588 406h-88q-194 0 -306 110t-112 330v178q0 218 112 324t306 106h88q198 0 310 -108t112 -322v-178q0 -224 -112 -332t-310 -108zM723 1245
v-151h-111q-72 0 -98 -28t-27 -89v-92q0 -63 27 -91t98 -28h111v-150h-174q-123 0 -190 54t-66 151v217q0 98 66 153q67 54 190 54h174z" />
    <glyph glyph-name="guillemotleft" unicode="&#xab;" horiz-adv-x="921" 
d="M819 508l-74 -232l-274 261v258l274 260l74 -232l-174 -157zM451 508l-74 -232l-275 261v258l275 260l74 -232l-175 -157z" />
    <glyph glyph-name="registered" unicode="&#xae;" horiz-adv-x="1132" 
d="M549 1116v-125q37 1 63 17t27 47q0 61 -90 61zM354 991v254h195q287 0 287 -215q0 -51 -24 -90t-46 -51l-25 -15l82 -258h-182l-55 222q0 -4 -37 -4v-218h-195v218h-125v-39q1 -115 63 -187t187 -71h170q125 1 190 67t64 191v254q1 131 -65 203t-191 71h-168
q-250 0 -250 -274v-58h125zM629 406h-129q-194 0 -306 110t-112 330v178q0 218 112 324t306 106h129q197 0 309 -108t113 -322v-178q1 -224 -111 -332t-311 -108z" />
    <glyph glyph-name="degree" unicode="&#xb0;" horiz-adv-x="753" 
d="M467 1192q0 98 -91 98t-91 -98t91 -98t91 98zM672 1192q0 -133 -76 -208t-219 -75t-219 75t-76 208t76 208t219 75t219 -75t76 -208z" />
    <glyph glyph-name="plusminus" unicode="&#xb1;" horiz-adv-x="901" 
d="M143 246h615v-246h-615v246zM328 358v236h-226v246h226v235h245v-235h226v-246h-226v-236h-245z" />
    <glyph glyph-name="acute" unicode="&#xb4;" horiz-adv-x="819" 
d="M236 1475l-31 194l379 92l30 -215z" />
    <glyph glyph-name="paragraph" unicode="&#xb6;" horiz-adv-x="1083" 
d="M664 -205v1639h378v-267h-81v-1372h-297zM541 1434v-932q-193 0 -336 127t-144 350q0 150 72 256q135 199 408 199z" />
    <glyph glyph-name="periodcentered" unicode="&#xb7;" horiz-adv-x="450" 
d="M164 850h123q43 0 62 -27t19 -107t-18 -106q-20 -27 -63 -26h-123q-43 0 -63 26q-19 27 -19 107q0 81 20 107t62 26z" />
    <glyph glyph-name="cedilla" unicode="&#xb8;" horiz-adv-x="798" 
d="M432 -61q162 0 162 -160v-86h-195v12q0 100 -112 100h-82q0 79 11 137t22 78l12 21h215q-33 -49 -33 -102z" />
    <glyph glyph-name="guillemotright" unicode="&#xbb;" horiz-adv-x="921" 
d="M176 276l-74 232l174 158l-174 157l74 232l275 -260v-258zM545 276l-74 232l174 158l-174 157l74 232l274 -260v-258z" />
    <glyph glyph-name="questiondown" unicode="&#xbf;" horiz-adv-x="839" 
d="M584 1167h-123q-102 0 -103 133q0 133 103 134h123q102 0 102 -134t-102 -133zM758 0h-289q-193 0 -301 97t-106 266q1 169 117 314q48 61 95 115q115 133 115 232h266q0 -90 -41 -177t-91 -145t-91 -133q-41 -76 -41 -143q0 -160 176 -160h191v-266z" />
    <glyph glyph-name="Agrave" unicode="&#xc0;" 
d="M600 1669l-31 -194l-379 71l31 215zM440 1167l-16 -317h180l-18 211q-11 106 -146 106zM72 1167v267h387q395 0 436 -355l129 -1079h-338l-55 584h-221l-31 -584h-328l92 1167h-71z" />
    <glyph glyph-name="Aacute" unicode="&#xc1;" 
d="M424 1475l-31 194l379 92l31 -215zM440 1167l-16 -317h180l-18 211q-11 106 -146 106zM72 1167v267h387q395 0 436 -355l129 -1079h-338l-55 584h-221l-31 -584h-328l92 1167h-71z" />
    <glyph glyph-name="Acircumflex" unicode="&#xc2;" 
d="M414 1505l-215 21l174 225h245l175 -225l-215 -21l-82 113zM440 1167l-16 -317h180l-18 211q-11 106 -146 106zM72 1167v267h387q395 0 436 -355l129 -1079h-338l-55 584h-221l-31 -584h-328l92 1167h-71z" />
    <glyph glyph-name="Atilde" unicode="&#xc3;" 
d="M483 1726q96 -16 178 -16t142 31l22 10l11 -205q-45 -51 -185 -51q-76 0 -173 15t-160 16t-146 -39l-22 -12l-11 204q61 61 185 62q63 1 159 -15zM440 1167l-16 -317h180l-18 211q-11 106 -146 106zM72 1167v267h387q395 0 436 -355l129 -1079h-338l-55 584h-221
l-31 -584h-328l92 1167h-71z" />
    <glyph glyph-name="Adieresis" unicode="&#xc4;" 
d="M659 1720h21q106 0 106 -110t-106 -111h-21q-43 0 -73 26t-31 85q1 58 31 84t73 26zM332 1720h20q43 0 74 -26t31 -84q0 -59 -31 -85t-74 -26h-20q-106 1 -106 111t106 110zM440 1167l-16 -317h180l-18 211q-11 106 -146 106zM72 1167v267h387q395 0 436 -355l129 -1079
h-338l-55 584h-221l-31 -584h-328l92 1167h-71z" />
    <glyph glyph-name="Aring" unicode="&#xc5;" 
d="M543 1645q1 59 -61 59t-62 -59t62 -59t61 59zM676 1645q0 -82 -52 -126t-142 -44t-143 44q-52 44 -52 126q0 81 52 125t142 44q91 0 143 -43q52 -44 52 -126zM440 1167l-16 -317h180l-18 211q-11 106 -146 106zM72 1167v267h387q395 0 436 -355l129 -1079h-338l-55 584
h-221l-31 -584h-328l92 1167h-71z" />
    <glyph glyph-name="AE" unicode="&#xc6;" horiz-adv-x="1480" 
d="M662 850v235q0 82 -82 82h-88l-27 -317h197zM1440 266v-266h-381q-193 0 -295 85t-102 237v262h-222l-51 -584h-328l123 1167h-71v267h1327v-267h-461v-317h373v-266h-373v-133q0 -97 48 -141t159 -44h254z" />
    <glyph glyph-name="Ccedilla" unicode="&#xc7;" horiz-adv-x="911" 
d="M375 -195q0 133 28 201q-123 17 -198 79q-102 85 -103 237v790q0 152 102 237t296 85h370v-267h-243q-111 0 -159 -44t-48 -140v-532q0 -97 48 -141t159 -44h243v-266h-256q-11 -30 -12 -61q162 0 162 -160v-86h-195v12q0 100 -112 100h-82z" />
    <glyph glyph-name="Egrave" unicode="&#xc8;" horiz-adv-x="921" 
d="M625 1669l-31 -194l-379 71l31 215zM881 266v-266h-381q-193 0 -295 85t-103 237v262h-82v266h82v584h779v-267h-461v-317h373v-266h-373v-133q0 -97 48 -141t159 -44h254z" />
    <glyph glyph-name="Eacute" unicode="&#xc9;" horiz-adv-x="921" 
d="M379 1475l-31 194l379 92l31 -215zM881 266v-266h-381q-193 0 -295 85t-103 237v262h-82v266h82v584h779v-267h-461v-317h373v-266h-373v-133q0 -97 48 -141t159 -44h254z" />
    <glyph glyph-name="Ecircumflex" unicode="&#xca;" horiz-adv-x="921" 
d="M416 1505l-215 21l174 225h246l174 -225l-215 -21l-82 113zM881 266v-266h-381q-193 0 -295 85t-103 237v262h-82v266h82v584h779v-267h-461v-317h373v-266h-373v-133q0 -97 48 -141t159 -44h254z" />
    <glyph glyph-name="Edieresis" unicode="&#xcb;" horiz-adv-x="921" 
d="M635 1720h20q107 0 107 -110t-107 -111h-20q-43 0 -74 26t-31 85q0 58 31 84t74 26zM307 1720h21q44 0 74 -26t30 -84q0 -59 -31 -85t-73 -26h-21q-106 1 -106 111t106 110zM881 266v-266h-381q-193 0 -295 85t-103 237v262h-82v266h82v584h779v-267h-461v-317h373v-266
h-373v-133q0 -97 48 -141t159 -44h254z" />
    <glyph glyph-name="Igrave" unicode="&#xcc;" horiz-adv-x="501" 
d="M451 1669l-31 -194l-379 71l31 215zM102 1167h-82v267h400v-1434h-318v1167z" />
    <glyph glyph-name="Iacute" unicode="&#xcd;" horiz-adv-x="501" 
d="M102 1475l-30 194l379 92l30 -215zM102 1167h-82v267h400v-1434h-318v1167z" />
    <glyph glyph-name="Icircumflex" unicode="&#xce;" horiz-adv-x="501" 
d="M164 1505l-215 21l174 225h246l174 -225l-215 -21l-82 113zM102 1167h-82v267h400v-1434h-318v1167z" />
    <glyph glyph-name="Idieresis" unicode="&#xcf;" horiz-adv-x="501" 
d="M395 1720h21q106 0 106 -110t-106 -111h-21q-43 0 -73 26t-31 85q1 58 31 84t73 26zM68 1720h20q43 0 74 -26t31 -84q0 -59 -31 -85t-74 -26h-20q-106 1 -106 111t106 110zM102 1167h-82v267h400v-1434h-318v1167z" />
    <glyph glyph-name="Eth" unicode="&#xd0;" horiz-adv-x="1136" 
d="M440 1167v-317h164v-266h-164v-318q127 0 217 114t91 337q0 223 -90 337t-218 113zM41 850h82v584h276q313 0 495 -186t181 -531q0 -345 -181 -531t-495 -186h-358v266h82v318h-82v266z" />
    <glyph glyph-name="Ntilde" unicode="&#xd1;" horiz-adv-x="1105" 
d="M709 1495q-76 0 -173 15t-161 16t-146 -39l-22 -12l-10 204q61 61 184 62q63 1 159 -15t180 -16q83 0 140 31l23 10l10 -205q-45 -51 -184 -51zM102 1167h-82v267h607q193 0 295 -85t102 -237v-1112h-317v983q-1 96 -49 140t-158 44h-80v-1167h-318v1167z" />
    <glyph glyph-name="Ograve" unicode="&#xd2;" horiz-adv-x="1126" 
d="M737 1669l-30 -194l-379 71l30 215zM707 399v635q1 154 -143 154t-144 -154v-635q0 -154 143 -153q144 -1 144 153zM1024 1096v-758q0 -178 -121 -268t-340 -90t-340 90t-121 268v758q0 178 121 268t340 90t340 -90t121 -268z" />
    <glyph glyph-name="Oacute" unicode="&#xd3;" horiz-adv-x="1126" 
d="M420 1475l-31 194l379 92l31 -215zM707 399v635q1 154 -143 154t-144 -154v-635q0 -154 143 -153q144 -1 144 153zM1024 1096v-758q0 -178 -121 -268t-340 -90t-340 90t-121 268v758q0 178 121 268t340 90t340 -90t121 -268z" />
    <glyph glyph-name="Ocircumflex" unicode="&#xd4;" horiz-adv-x="1126" 
d="M481 1505l-215 21l174 225h246l174 -225l-215 -21l-82 113zM707 399v635q1 154 -143 154t-144 -154v-635q0 -154 143 -153q144 -1 144 153zM1024 1096v-758q0 -178 -121 -268t-340 -90t-340 90t-121 268v758q0 178 121 268t340 90t340 -90t121 -268z" />
    <glyph glyph-name="Otilde" unicode="&#xd5;" horiz-adv-x="1126" 
d="M558 1726q96 -16 178 -16q81 0 145 31l20 10l10 -205q-45 -51 -184 -51q-76 0 -173 15q-97 16 -140 16t-92 -14t-72 -25l-25 -12l-10 204q61 61 184 62q63 1 159 -15zM707 399v635q1 154 -143 154t-144 -154v-635q0 -154 143 -153q144 -1 144 153zM1024 1096v-758
q0 -178 -121 -268t-340 -90t-340 90t-121 268v758q0 178 121 268t340 90t340 -90t121 -268z" />
    <glyph glyph-name="Odieresis" unicode="&#xd6;" horiz-adv-x="1126" 
d="M717 1720h20q107 0 107 -110t-107 -111h-20q-43 0 -74 26t-31 85q0 58 31 84t74 26zM389 1720h21q44 0 74 -26t30 -84q0 -59 -31 -85t-73 -26h-21q-106 1 -106 111t106 110zM707 399v635q1 154 -143 154t-144 -154v-635q0 -154 143 -153q144 -1 144 153zM1024 1096v-758
q0 -178 -121 -268t-340 -90t-340 90t-121 268v758q0 178 121 268t340 90t340 -90t121 -268z" />
    <glyph glyph-name="multiply" unicode="&#xd7;" horiz-adv-x="913" 
d="M102 516l201 201l-201 201l174 174l181 -201l180 201l174 -174l-201 -201l201 -201l-174 -174l-180 201l-181 -201z" />
    <glyph glyph-name="Oslash" unicode="&#xd8;" horiz-adv-x="1126" 
d="M563 246q143 0 144 153v375l-226 -512q27 -16 82 -16zM420 1034v-377l225 514q-31 16 -82 17q-143 0 -143 -154zM1024 1096v-758q0 -178 -121 -268t-340 -90q-109 0 -178 18l-23 6l-75 -168l-205 103l86 186q-66 72 -66 213v758q0 178 121 268t340 90q118 0 178 -18
l23 -6l76 167l204 -102l-88 -186q68 -70 68 -213z" />
    <glyph glyph-name="Ugrave" unicode="&#xd9;" horiz-adv-x="1146" 
d="M737 1669l-30 -194l-379 71l30 215zM1024 266h82v-266h-606q-193 0 -295 85t-103 237v1112h318v-983q0 -97 48 -141t159 -44h80v1168h317v-1168z" />
    <glyph glyph-name="Uacute" unicode="&#xda;" horiz-adv-x="1146" 
d="M420 1475l-31 194l379 92l31 -215zM1024 266h82v-266h-606q-193 0 -295 85t-103 237v1112h318v-983q0 -97 48 -141t159 -44h80v1168h317v-1168z" />
    <glyph glyph-name="Ucircumflex" unicode="&#xdb;" horiz-adv-x="1146" 
d="M485 1505l-215 21l174 225h246l174 -225l-215 -21l-82 113zM1024 266h82v-266h-606q-193 0 -295 85t-103 237v1112h318v-983q0 -97 48 -141t159 -44h80v1168h317v-1168z" />
    <glyph glyph-name="Udieresis" unicode="&#xdc;" horiz-adv-x="1146" 
d="M727 1720h21q106 0 106 -110t-106 -111h-21q-43 0 -74 26t-30 85q0 59 30 85q31 25 74 25zM399 1720h21q43 0 74 -26q30 -26 30 -84q0 -59 -30 -85t-74 -26h-21q-106 1 -106 111t106 110zM1024 266h82v-266h-606q-193 0 -295 85t-103 237v1112h318v-983q0 -97 48 -141
t159 -44h80v1168h317v-1168z" />
    <glyph glyph-name="Yacute" unicode="&#xdd;" horiz-adv-x="983" 
d="M344 1475l-31 194l379 92l31 -215zM332 0v573q-70 -1 -131 55t-78 160l-103 646h328l62 -510q10 -84 82 -84t81 84l62 510h328l-103 -646q-16 -104 -78 -159t-131 -56v-573h-319z" />
    <glyph glyph-name="Thorn" unicode="&#xde;" horiz-adv-x="1062" 
d="M123 563v871h317v-205q272 0 427 -114t155 -342t-157 -352t-425 -124v-297h-317v297h-82v266h82zM440 983v-420q133 0 199 50t66 161t-66 160t-199 49z" />
    <glyph glyph-name="germandbls" unicode="&#xdf;" horiz-adv-x="1839" 
d="M1747 1434v-267h-311q-63 0 -101 -27q-37 -28 -37 -79t37 -101t92 -93q55 -42 121 -95t121 -107q55 -55 92 -135t37 -168q0 -362 -432 -362h-344v266h272q176 0 176 115q0 49 -51 102t-125 109t-148 120t-124 158q-51 94 -51 201q0 168 106 265t299 98h371zM817 1434
v-267h-311q-63 1 -100 -27t-37 -79t37 -101t92 -93q54 -42 120 -95t121 -107q55 -55 92 -135t37 -168q0 -362 -432 -362h-344v266h273q176 0 176 115q1 49 -51 102t-126 109t-147 120q-74 64 -125 158t-51 201q0 168 106 265t299 98h371z" />
    <glyph glyph-name="agrave" unicode="&#xe0;" 
d="M600 1669l-31 -194l-379 71l31 215zM440 1167l-16 -317h180l-18 211q-11 106 -146 106zM72 1167v267h387q395 0 436 -355l129 -1079h-338l-55 584h-221l-31 -584h-328l92 1167h-71z" />
    <glyph glyph-name="aacute" unicode="&#xe1;" 
d="M424 1475l-31 194l379 92l31 -215zM440 1167l-16 -317h180l-18 211q-11 106 -146 106zM72 1167v267h387q395 0 436 -355l129 -1079h-338l-55 584h-221l-31 -584h-328l92 1167h-71z" />
    <glyph glyph-name="acircumflex" unicode="&#xe2;" 
d="M414 1505l-215 21l174 225h245l175 -225l-215 -21l-82 113zM440 1167l-16 -317h180l-18 211q-11 106 -146 106zM72 1167v267h387q395 0 436 -355l129 -1079h-338l-55 584h-221l-31 -584h-328l92 1167h-71z" />
    <glyph glyph-name="atilde" unicode="&#xe3;" 
d="M483 1726q96 -16 178 -16t142 31l22 10l11 -205q-45 -51 -185 -51q-76 0 -173 15t-160 16t-146 -39l-22 -12l-11 204q61 61 185 62q63 1 159 -15zM440 1167l-16 -317h180l-18 211q-11 106 -146 106zM72 1167v267h387q395 0 436 -355l129 -1079h-338l-55 584h-221
l-31 -584h-328l92 1167h-71z" />
    <glyph glyph-name="adieresis" unicode="&#xe4;" 
d="M659 1720h21q106 0 106 -110t-106 -111h-21q-43 0 -73 26t-31 85q1 58 31 84t73 26zM332 1720h20q43 0 74 -26t31 -84q0 -59 -31 -85t-74 -26h-20q-106 1 -106 111t106 110zM440 1167l-16 -317h180l-18 211q-11 106 -146 106zM72 1167v267h387q395 0 436 -355l129 -1079
h-338l-55 584h-221l-31 -584h-328l92 1167h-71z" />
    <glyph glyph-name="aring" unicode="&#xe5;" 
d="M543 1645q1 59 -61 59t-62 -59t62 -59t61 59zM676 1645q0 -82 -52 -126t-142 -44t-143 44q-52 44 -52 126q0 81 52 125t142 44q91 0 143 -43q52 -44 52 -126zM440 1167l-16 -317h180l-18 211q-11 106 -146 106zM72 1167v267h387q395 0 436 -355l129 -1079h-338l-55 584
h-221l-31 -584h-328l92 1167h-71z" />
    <glyph glyph-name="ae" unicode="&#xe6;" horiz-adv-x="1480" 
d="M662 850v235q0 82 -82 82h-88l-27 -317h197zM1440 266v-266h-381q-193 0 -295 85t-102 237v262h-222l-51 -584h-328l123 1167h-71v267h1327v-267h-461v-317h373v-266h-373v-133q0 -97 48 -141t159 -44h254z" />
    <glyph glyph-name="ccedilla" unicode="&#xe7;" horiz-adv-x="911" 
d="M375 -195q0 133 28 201q-123 17 -198 79q-102 85 -103 237v790q0 152 102 237t296 85h370v-267h-243q-111 0 -159 -44t-48 -140v-532q0 -97 48 -141t159 -44h243v-266h-256q-11 -30 -12 -61q162 0 162 -160v-86h-195v12q0 100 -112 100h-82z" />
    <glyph glyph-name="egrave" unicode="&#xe8;" horiz-adv-x="921" 
d="M625 1669l-31 -194l-379 71l31 215zM881 266v-266h-381q-193 0 -295 85t-103 237v262h-82v266h82v584h779v-267h-461v-317h373v-266h-373v-133q0 -97 48 -141t159 -44h254z" />
    <glyph glyph-name="eacute" unicode="&#xe9;" horiz-adv-x="921" 
d="M379 1475l-31 194l379 92l31 -215zM881 266v-266h-381q-193 0 -295 85t-103 237v262h-82v266h82v584h779v-267h-461v-317h373v-266h-373v-133q0 -97 48 -141t159 -44h254z" />
    <glyph glyph-name="ecircumflex" unicode="&#xea;" horiz-adv-x="921" 
d="M416 1505l-215 21l174 225h246l174 -225l-215 -21l-82 113zM881 266v-266h-381q-193 0 -295 85t-103 237v262h-82v266h82v584h779v-267h-461v-317h373v-266h-373v-133q0 -97 48 -141t159 -44h254z" />
    <glyph glyph-name="edieresis" unicode="&#xeb;" horiz-adv-x="921" 
d="M635 1720h20q107 0 107 -110t-107 -111h-20q-43 0 -74 26t-31 85q0 58 31 84t74 26zM307 1720h21q44 0 74 -26t30 -84q0 -59 -31 -85t-73 -26h-21q-106 1 -106 111t106 110zM881 266v-266h-381q-193 0 -295 85t-103 237v262h-82v266h82v584h779v-267h-461v-317h373v-266
h-373v-133q0 -97 48 -141t159 -44h254z" />
    <glyph glyph-name="igrave" unicode="&#xec;" horiz-adv-x="501" 
d="M451 1669l-31 -194l-379 71l31 215zM102 1167h-82v267h400v-1434h-318v1167z" />
    <glyph glyph-name="iacute" unicode="&#xed;" horiz-adv-x="501" 
d="M102 1475l-30 194l379 92l30 -215zM102 1167h-82v267h400v-1434h-318v1167z" />
    <glyph glyph-name="icircumflex" unicode="&#xee;" horiz-adv-x="501" 
d="M164 1505l-215 21l174 225h246l174 -225l-215 -21l-82 113zM102 1167h-82v267h400v-1434h-318v1167z" />
    <glyph glyph-name="idieresis" unicode="&#xef;" horiz-adv-x="501" 
d="M395 1720h21q106 0 106 -110t-106 -111h-21q-43 0 -73 26t-31 85q1 58 31 84t73 26zM68 1720h20q43 0 74 -26t31 -84q0 -59 -31 -85t-74 -26h-20q-106 1 -106 111t106 110zM102 1167h-82v267h400v-1434h-318v1167z" />
    <glyph glyph-name="eth" unicode="&#xf0;" horiz-adv-x="1136" 
d="M440 1167v-317h164v-266h-164v-318q127 0 217 114t91 337q0 223 -90 337t-218 113zM41 850h82v584h276q313 0 495 -186t181 -531q0 -345 -181 -531t-495 -186h-358v266h82v318h-82v266z" />
    <glyph glyph-name="ntilde" unicode="&#xf1;" horiz-adv-x="1105" 
d="M709 1495q-76 0 -173 15t-161 16t-146 -39l-22 -12l-10 204q61 61 184 62q63 1 159 -15t180 -16q83 0 140 31l23 10l10 -205q-45 -51 -184 -51zM102 1167h-82v267h607q193 0 295 -85t102 -237v-1112h-317v983q-1 96 -49 140t-158 44h-80v-1167h-318v1167z" />
    <glyph glyph-name="ograve" unicode="&#xf2;" horiz-adv-x="1126" 
d="M737 1669l-30 -194l-379 71l30 215zM707 399v635q1 154 -143 154t-144 -154v-635q0 -154 143 -153q144 -1 144 153zM1024 1096v-758q0 -178 -121 -268t-340 -90t-340 90t-121 268v758q0 178 121 268t340 90t340 -90t121 -268z" />
    <glyph glyph-name="oacute" unicode="&#xf3;" horiz-adv-x="1126" 
d="M420 1475l-31 194l379 92l31 -215zM707 399v635q1 154 -143 154t-144 -154v-635q0 -154 143 -153q144 -1 144 153zM1024 1096v-758q0 -178 -121 -268t-340 -90t-340 90t-121 268v758q0 178 121 268t340 90t340 -90t121 -268z" />
    <glyph glyph-name="ocircumflex" unicode="&#xf4;" horiz-adv-x="1126" 
d="M481 1505l-215 21l174 225h246l174 -225l-215 -21l-82 113zM707 399v635q1 154 -143 154t-144 -154v-635q0 -154 143 -153q144 -1 144 153zM1024 1096v-758q0 -178 -121 -268t-340 -90t-340 90t-121 268v758q0 178 121 268t340 90t340 -90t121 -268z" />
    <glyph glyph-name="otilde" unicode="&#xf5;" horiz-adv-x="1126" 
d="M558 1726q96 -16 178 -16q81 0 145 31l20 10l10 -205q-45 -51 -184 -51q-76 0 -173 15q-97 16 -140 16t-92 -14t-72 -25l-25 -12l-10 204q61 61 184 62q63 1 159 -15zM707 399v635q1 154 -143 154t-144 -154v-635q0 -154 143 -153q144 -1 144 153zM1024 1096v-758
q0 -178 -121 -268t-340 -90t-340 90t-121 268v758q0 178 121 268t340 90t340 -90t121 -268z" />
    <glyph glyph-name="odieresis" unicode="&#xf6;" horiz-adv-x="1126" 
d="M717 1720h20q107 0 107 -110t-107 -111h-20q-43 0 -74 26t-31 85q0 58 31 84t74 26zM389 1720h21q44 0 74 -26t30 -84q0 -59 -31 -85t-73 -26h-21q-106 1 -106 111t106 110zM707 399v635q1 154 -143 154t-144 -154v-635q0 -154 143 -153q144 -1 144 153zM1024 1096v-758
q0 -178 -121 -268t-340 -90t-340 90t-121 268v758q0 178 121 268t340 90t340 -90t121 -268z" />
    <glyph glyph-name="divide" unicode="&#xf7;" horiz-adv-x="901" 
d="M410 512h82q92 0 92 -123t-92 -123h-82q-92 0 -93 123q1 123 93 123zM102 840h697v-246h-697v246zM410 1167h82q92 0 92 -123t-92 -122h-82q-92 0 -92 122t92 123z" />
    <glyph glyph-name="oslash" unicode="&#xf8;" horiz-adv-x="1126" 
d="M563 246q143 0 144 153v375l-226 -512q27 -16 82 -16zM420 1034v-377l225 514q-31 16 -82 17q-143 0 -143 -154zM1024 1096v-758q0 -178 -121 -268t-340 -90q-109 0 -178 18l-23 6l-75 -168l-205 103l86 186q-66 72 -66 213v758q0 178 121 268t340 90q118 0 178 -18
l23 -6l76 167l204 -102l-88 -186q68 -70 68 -213z" />
    <glyph glyph-name="ugrave" unicode="&#xf9;" horiz-adv-x="1146" 
d="M737 1669l-30 -194l-379 71l30 215zM1024 266h82v-266h-606q-193 0 -295 85t-103 237v1112h318v-983q0 -97 48 -141t159 -44h80v1168h317v-1168z" />
    <glyph glyph-name="uacute" unicode="&#xfa;" horiz-adv-x="1146" 
d="M420 1475l-31 194l379 92l31 -215zM1024 266h82v-266h-606q-193 0 -295 85t-103 237v1112h318v-983q0 -97 48 -141t159 -44h80v1168h317v-1168z" />
    <glyph glyph-name="ucircumflex" unicode="&#xfb;" horiz-adv-x="1146" 
d="M485 1505l-215 21l174 225h246l174 -225l-215 -21l-82 113zM1024 266h82v-266h-606q-193 0 -295 85t-103 237v1112h318v-983q0 -97 48 -141t159 -44h80v1168h317v-1168z" />
    <glyph glyph-name="udieresis" unicode="&#xfc;" horiz-adv-x="1146" 
d="M727 1720h21q106 0 106 -110t-106 -111h-21q-43 0 -74 26t-30 85q0 59 30 85q31 25 74 25zM399 1720h21q43 0 74 -26q30 -26 30 -84q0 -59 -30 -85t-74 -26h-21q-106 1 -106 111t106 110zM1024 266h82v-266h-606q-193 0 -295 85t-103 237v1112h318v-983q0 -97 48 -141
t159 -44h80v1168h317v-1168z" />
    <glyph glyph-name="yacute" unicode="&#xfd;" horiz-adv-x="983" 
d="M344 1475l-31 194l379 92l31 -215zM332 0v573q-70 -1 -131 55t-78 160l-103 646h328l62 -510q10 -84 82 -84t81 84l62 510h328l-103 -646q-16 -104 -78 -159t-131 -56v-573h-319z" />
    <glyph glyph-name="thorn" unicode="&#xfe;" horiz-adv-x="1062" 
d="M123 563v871h317v-205q272 0 427 -114t155 -342t-157 -352t-425 -124v-297h-317v297h-82v266h82zM440 983v-420q133 0 199 50t66 161t-66 160t-199 49z" />
    <glyph glyph-name="ydieresis" unicode="&#xff;" horiz-adv-x="983" 
d="M645 1720h21q106 0 106 -110t-106 -111h-21q-43 0 -74 26t-30 85q0 59 30 85q31 25 74 25zM317 1720h21q43 0 74 -26q30 -26 30 -84q0 -59 -30 -85t-74 -26h-21q-106 1 -106 111t106 110zM332 0v573q-70 -1 -131 55t-78 160l-103 646h328l62 -510q10 -84 82 -84t81 84
l62 510h328l-103 -646q-16 -104 -78 -159t-131 -56v-573h-319z" />
    <glyph glyph-name="OE" unicode="&#x152;" horiz-adv-x="1525" 
d="M707 399v635q1 154 -143 154t-144 -154v-635q0 -154 143 -153q144 -1 144 153zM1485 266v-266h-381q-145 0 -236 47q-116 -67 -320 -67t-325 90t-121 268v758q0 178 121 268t340 90q105 0 166 -16l23 -4h733v-267h-461v-317h373v-266h-373v-140q0 -88 47 -133t158 -45
h256z" />
    <glyph glyph-name="oe" unicode="&#x153;" horiz-adv-x="1525" 
d="M707 399v635q1 154 -143 154t-144 -154v-635q0 -154 143 -153q144 -1 144 153zM1485 266v-266h-381q-145 0 -236 47q-116 -67 -320 -67t-325 90t-121 268v758q0 178 121 268t340 90q105 0 166 -16l23 -4h733v-267h-461v-317h373v-266h-373v-140q0 -88 47 -133t158 -45
h256z" />
    <glyph glyph-name="Scaron" unicode="&#x160;" horiz-adv-x="909" 
d="M170 1731l215 20l82 -113l82 113l215 -20l-174 -226h-246zM817 1434v-267h-311q-63 1 -100 -27t-37 -79t37 -101t92 -93q54 -42 120 -95t121 -107q55 -55 92 -135t37 -168q0 -362 -432 -362h-344v266h273q176 0 176 115q1 49 -51 102t-126 109t-147 120q-74 64 -125 158
t-51 201q0 168 106 265t299 98h371z" />
    <glyph glyph-name="scaron" unicode="&#x161;" horiz-adv-x="909" 
d="M170 1731l215 20l82 -113l82 113l215 -20l-174 -226h-246zM817 1434v-267h-311q-63 1 -100 -27t-37 -79t37 -101t92 -93q54 -42 120 -95t121 -107q55 -55 92 -135t37 -168q0 -362 -432 -362h-344v266h273q176 0 176 115q1 49 -51 102t-126 109t-147 120q-74 64 -125 158
t-51 201q0 168 106 265t299 98h371z" />
    <glyph glyph-name="Ydieresis" unicode="&#x178;" horiz-adv-x="983" 
d="M645 1720h21q106 0 106 -110t-106 -111h-21q-43 0 -74 26t-30 85q0 59 30 85q31 25 74 25zM317 1720h21q43 0 74 -26q30 -26 30 -84q0 -59 -30 -85t-74 -26h-21q-106 1 -106 111t106 110zM332 0v573q-70 -1 -131 55t-78 160l-103 646h328l62 -510q10 -84 82 -84t81 84
l62 510h328l-103 -646q-16 -104 -78 -159t-131 -56v-573h-319z" />
    <glyph glyph-name="Zcaron" unicode="&#x17d;" horiz-adv-x="870" 
d="M156 1731l215 20l82 -113l82 113l215 -20l-175 -226h-245zM51 1434h645q70 0 97 -27t26 -96v-144l-430 -901h430v-266h-645q-70 0 -96 27t-27 96v143l430 901h-430v267z" />
    <glyph glyph-name="zcaron" unicode="&#x17e;" horiz-adv-x="870" 
d="M156 1731l215 20l82 -113l82 113l215 -20l-175 -226h-245zM51 1434h645q70 0 97 -27t26 -96v-144l-430 -901h430v-266h-645q-70 0 -96 27t-27 96v143l430 901h-430v267z" />
    <glyph glyph-name="circumflex" unicode="&#x2c6;" horiz-adv-x="1003" 
d="M420 1505l-215 21l174 225h246l174 -225l-215 -21l-82 113z" />
    <glyph glyph-name="caron" unicode="&#x2c7;" horiz-adv-x="1003" 
d="M205 1731l215 20l82 -113l82 113l215 -20l-174 -226h-246z" />
    <glyph glyph-name="ring" unicode="&#x2da;" horiz-adv-x="798" 
d="M461 1645q1 59 -61 59t-62 -59t62 -59t61 59zM594 1645q0 -82 -52 -126t-142 -44t-143 44q-52 44 -52 126q0 81 52 125t142 44q91 0 143 -43q52 -44 52 -126z" />
    <glyph glyph-name="tilde" unicode="&#x2dc;" horiz-adv-x="1105" 
d="M717 1495q-76 0 -173 15q-97 16 -140 16q-42 0 -92 -14t-74 -25l-23 -12l-10 204q61 61 184 62q63 1 159 -15t180 -16q83 0 140 31l23 10l10 -205q-45 -51 -184 -51z" />
    <glyph glyph-name="endash" unicode="&#x2013;" horiz-adv-x="1126" 
d="M102 840h922v-246h-922v246z" />
    <glyph glyph-name="emdash" unicode="&#x2014;" horiz-adv-x="1689" 
d="M102 840h1485v-246h-1485v246z" />
    <glyph glyph-name="quoteleft" unicode="&#x2018;" horiz-adv-x="450" 
d="M287 1167h-123q-43 0 -63 27q-19 27 -19 106v277h133v-143h72q43 0 62 -27t19 -107t-18 -106q-20 -26 -63 -27z" />
    <glyph glyph-name="quoteright" unicode="&#x2019;" horiz-adv-x="450" 
d="M164 1434h123q43 0 62 -27t20 -107v-276h-133v143h-72q-43 0 -63 27q-19 26 -19 106t19 107q20 27 63 27z" />
    <glyph glyph-name="quotesinglbase" unicode="&#x201a;" horiz-adv-x="450" 
d="M164 266h123q43 0 62 -26t20 -107v-276h-133v143h-72q-43 0 -63 27q-19 27 -19 107t19 106q20 26 63 26z" />
    <glyph glyph-name="quotedblleft" unicode="&#x201c;" horiz-adv-x="819" 
d="M655 1167h-123q-43 0 -62 27t-19 106v277h133v-143h71q43 0 63 -27t19 -107q1 -80 -19 -106t-63 -27zM287 1167h-123q-43 0 -63 27q-19 27 -19 106v277h133v-143h72q43 0 62 -27t19 -107t-18 -106q-20 -26 -63 -27z" />
    <glyph glyph-name="quotedblright" unicode="&#x201d;" horiz-adv-x="819" 
d="M532 1434h123q43 0 63 -27t19 -107v-276h-133v143h-72q-43 0 -62 27q-19 26 -19 106t19 107t62 27zM164 1434h123q43 0 62 -27t20 -107v-276h-133v143h-72q-43 0 -63 27q-19 26 -19 106t19 107q20 27 63 27z" />
    <glyph glyph-name="quotedblbase" unicode="&#x201e;" horiz-adv-x="819" 
d="M532 266h123q43 0 63 -26q19 -27 19 -107v-276h-133v143h-72q-43 0 -62 27t-19 107t19 106t62 26zM164 266h123q43 0 62 -26t20 -107v-276h-133v143h-72q-43 0 -63 27q-19 27 -19 107t19 106q20 26 63 26z" />
    <glyph glyph-name="bullet" unicode="&#x2022;" horiz-adv-x="573" 
d="M225 891h123q47 0 85 -42t38 -132t-38 -132t-85 -42h-123q-47 0 -85 42t-38 132t38 132t85 42z" />
    <glyph glyph-name="ellipsis" unicode="&#x2026;" horiz-adv-x="1269" 
d="M983 266h123q43 0 62 -26q20 -26 20 -107t-20 -107t-62 -26h-123q-43 0 -62 27t-19 107t18 106q20 26 63 26zM573 266h123q43 0 63 -26q19 -27 19 -107q0 -81 -19 -107t-63 -26h-123q-43 0 -62 27t-19 107t19 106t62 26zM164 266h123q43 0 62 -26t19 -107t-18 -107
q-20 -26 -63 -26h-123q-43 0 -63 27q-19 27 -19 107t19 106q20 26 63 26z" />
    <glyph glyph-name="guilsinglleft" unicode="&#x2039;" horiz-adv-x="552" 
d="M451 508l-74 -232l-275 261v258l275 260l74 -232l-175 -157z" />
    <glyph glyph-name="guilsinglright" unicode="&#x203a;" horiz-adv-x="552" 
d="M176 276l-74 232l174 158l-174 157l74 232l275 -260v-258z" />
    <glyph glyph-name="Euro" unicode="&#x20ac;" horiz-adv-x="1003" 
d="M901 1434v-267h-223q-113 0 -160 -46t-47 -156h348v-205h-348v-84h348v-205h-348q0 -111 47 -158t160 -47h223v-266h-319q-188 0 -303 103t-115 259v109h-82v205h82v84h-82v205h82v106q0 156 115 259t303 104h319z" />
    </font>
</defs>
</svg>
