<?xml version="1.0" standalone="no"?>
<!DOCTYPE svg PUBLIC "-//W3C//DTD SVG 1.1//EN" "http://www.w3.org/Graphics/SVG/1.1/DTD/svg11.dtd" >
<svg xmlns="http://www.w3.org/2000/svg">
<metadata>
Created by FontPrep 20130207 at Thu Jun 19 23:03:15 2014
 By Diego Escares
Copyright (c) 2011 by Flora Argemi. All rights reserved.
</metadata>
<defs>
<font id="20fe255da044904d60c8c72b43821120" horiz-adv-x='1024' >
  <font-face 
    font-family="Perejil"
    font-weight="400"
    font-stretch="normal"
    units-per-em="2048"
    panose-1="2 0 0 0 0 0 0 0 0 0"
    ascent="1536"
    descent="-512"
    x-height="1331"
    cap-height="1331"
    bbox="0 -455 2316 1892"
    underline-thickness="102"
    underline-position="-102"
    unicode-range="U+0020-FB02"
  />
<missing-glyph horiz-adv-x="696" 
 />
    <glyph glyph-name=".notdef" horiz-adv-x="696" 
 />
    <glyph glyph-name=".null" horiz-adv-x="0" 
 />
    <glyph glyph-name="nonmarkingreturn" horiz-adv-x="681" 
 />
    <glyph glyph-name="space" unicode=" " horiz-adv-x="696" 
 />
    <glyph glyph-name="exclam" unicode="!" horiz-adv-x="483" 
d="M156 528q0 92 -18 304t-38 362l-18 149h319q-74 -565 -73 -851l6 -99h-184q6 43 6 135zM102 128q0 58 41 99t99 41t99 -42q42 -42 42 -99t-41 -98t-99 -41t-100 41q-41 41 -41 99z" />
    <glyph glyph-name="quotedbl" unicode="&#x22;" horiz-adv-x="778" 
d="M676 973v-88l-215 -17v97q0 170 -15 323l-6 51q70 -8 129 -8l127 8q-20 -156 -20 -366zM102 965q0 187 -16 323l-4 51q70 -8 129 -8l127 8q-20 -156 -21 -366v-88l-215 -17v97z" />
    <glyph glyph-name="numbersign" unicode="#" horiz-adv-x="1366" 
d="M689 690q-26 0 -148 -4l-17 -90q-2 -14 -20 -129h121q96 0 163 2l31 158l10 59q-114 4 -140 4zM692 874q98 0 168 3l53 358q29 -14 105 -27l108 -12l-69 -315l229 6q-8 -31 -8 -109l8 -108q-129 6 -270 10q-7 -26 -11 -52q-3 -26 -9 -48t-15 -107l238 6q-8 -31 -9 -108
l9 -109q-127 6 -267 10l-39 -286q-29 14 -104 26l-109 13q23 119 52 256l-127 2q-25 0 -148 -4l-39 -293q-29 14 -104 26l-109 13q23 115 49 247l-243 -10q8 31 8 109l-8 108q137 -4 282 -8l31 156q0 1 8 53l-254 -10q8 31 8 108l-8 109q139 -4 287 -8l53 356
q29 -14 105 -27l108 -12q-37 -162 -69 -322h110z" />
    <glyph glyph-name="dollar" unicode="$" horiz-adv-x="1142" 
d="M657 461l7 -275q199 16 198 121q0 55 -51 90q-52 35 -154 64zM236 896q0 -71 55 -119t194 -87l-8 369q-133 -8 -187 -50t-54 -113zM51 913q0 362 420 406l-4 162q27 -8 104 -8l105 8l-4 -158q375 -12 401 -12q-43 -211 -43 -457l-205 -20l-12 198q-33 16 -149 25
q-8 -322 -9 -406q221 -53 319 -135t99 -212q0 -130 -101 -207t-302 -93l6 -166q-27 8 -105 8l-104 -8l4 166q-107 8 -205 40t-143 58l-45 29q14 127 14 293l205 -21l8 -159q80 -41 172 -54l8 314q-234 54 -334 157q-100 104 -100 252z" />
    <glyph glyph-name="percent" unicode="%" horiz-adv-x="1413" 
d="M1058 477q-66 0 -100 -46q-36 -46 -36 -124t38 -124t98 -46q62 0 102 47t40 126t-38 123t-104 44zM782 309q0 352 277 353q272 0 272 -353q0 -164 -73 -247q-74 -82 -200 -82t-201 82t-75 247zM358 1171q-66 1 -102 -45t-35 -124q0 -78 38 -124t99 -46q62 0 102 46
q40 48 40 127t-38 123t-104 43zM82 1004q0 352 274 352t275 -352q0 -164 -73 -247t-200 -83q-128 0 -202 83t-74 247zM96 -18q558 686 961 1296l69 102l154 -94q-334 -406 -539 -694l-483 -703z" />
    <glyph glyph-name="ampersand" unicode="&#x26;" horiz-adv-x="1413" 
d="M258 319q0 -81 72 -123t208 -42t234 53q-205 137 -377 303q-137 -84 -137 -191zM684 960q0 56 -45 100t-129 44t-135 -44t-51 -129t118 -222q109 53 156 88q46 35 66 71t20 92zM51 309q0 188 236 318q-160 188 -160 329q0 178 100 276q99 98 277 99q178 0 277 -94
t99 -249t-112 -254q-57 -50 -98 -76t-115 -64q141 -131 350 -272q59 80 76 190l-131 -16q8 31 8 108l-8 109q232 -26 461 -4l30 4q-8 -31 -8 -109l8 -108q-68 12 -165 18q-20 -164 -111 -293q132 -74 233 -115l35 -14l-86 -207q-154 109 -307 211q-164 -116 -411 -116
t-363 89t-115 240z" />
    <glyph glyph-name="quotesingle" unicode="'" horiz-adv-x="419" 
d="M102 965q0 187 -16 323l-4 51q70 -8 129 -8l127 8q-20 -156 -21 -366v-88l-215 -17v97z" />
    <glyph glyph-name="parenleft" unicode="(" horiz-adv-x="706" 
d="M82 639q0 310 93 505t194 280t159 114l27 12l111 -161q-14 -7 -40 -23t-89 -78t-111 -138q-48 -75 -89 -205q-40 -129 -40 -279t38 -282t92 -214q108 -164 200 -231l39 -25l-134 -168q-18 8 -49 28t-107 96q-76 77 -136 171q-58 94 -108 262t-50 336z" />
    <glyph glyph-name="parenright" unicode=")" horiz-adv-x="706" 
d="M410 666q0 150 -38 278t-92 207q-112 162 -202 215l-37 23l111 161q18 -8 51 -24t113 -87t144 -161q62 -90 113 -254t51 -358t-45 -362q-46 -167 -113 -265q-68 -98 -134 -168t-111 -96l-47 -29l-133 168q51 29 122 104q71 76 119 154t88 211t40 283z" />
    <glyph glyph-name="asterisk" unicode="*" horiz-adv-x="716" 
d="M207 805q-18 26 -51 59t-45 39q68 33 135 96l-164 -14q6 33 6 68l-6 63q90 -18 164 -18l-152 106q22 16 56 50t40 46q2 -2 29 -38t78 -86l-10 163q18 -6 65 -6l68 6q-8 -88 -10 -165l102 129q27 -31 45 -52l41 -47q-2 -2 -46 -33t-91 -73q67 0 145 12l29 4q-4 -27 -4 -61
l4 -68q-96 10 -172 14q53 -51 139 -94q-12 -12 -46 -44t-46 -54q-25 49 -100 131l10 -176q-29 6 -66 6l-67 -6q8 102 10 176q-51 -64 -78 -111z" />
    <glyph glyph-name="plus" unicode="+" horiz-adv-x="983" 
d="M82 723q162 -8 307 -12l-14 329q31 -8 108 -8l109 8q-10 -182 -14 -329l323 12q-8 -31 -8 -109l8 -108q-176 12 -323 18l16 -323q-31 8 -109 8l-108 -8q10 176 12 323l-307 -18q8 31 8 108z" />
    <glyph glyph-name="comma" unicode="," horiz-adv-x="382" 
d="M190 -12q-61 0 -100 35t-39 99t37 105q38 41 102 41t103 -43t39 -121q0 -205 -199 -280l-33 59q88 37 111 107q-10 -2 -21 -2z" />
    <glyph glyph-name="hyphen" unicode="-" horiz-adv-x="983" 
d="M901 506q-270 20 -383 20t-364 -14l-72 -6q8 31 8 108l-8 109q270 -12 410 -12l409 12q-8 -31 -8 -109z" />
    <glyph glyph-name="period" unicode="." horiz-adv-x="382" 
d="M51 128q0 58 41 99t99 41q57 0 99 -42t42 -99t-41 -98t-101 -41t-99 41q-40 41 -40 99z" />
    <glyph glyph-name="slash" unicode="/" horiz-adv-x="942" 
d="M82 -133q272 688 321 819l281 836q31 -20 104 -47l109 -31q-272 -688 -322 -819l-280 -836q-31 20 -105 47z" />
    <glyph glyph-name="zero" unicode="0" horiz-adv-x="1245" 
d="M238 620q0 -204 108 -312t277 -108t277 108t108 312t-94 325q-94 120 -292 120t-291 -120q-93 -121 -93 -325zM61 644q-1 318 143 510t418 192t418 -192t144 -510t-150 -491t-412 -173t-411 173q-150 173 -150 491z" />
    <glyph glyph-name="one" unicode="1" horiz-adv-x="876" 
d="M584 633q0 -227 22 -350l6 -45l244 20q-20 -131 -20 -258q-199 8 -338 8l-348 -8q0 94 -15 221l-6 37q131 -14 254 -20q29 139 29 335l-19 439q-10 -20 -29 -54q-18 -34 -90 -106q-72 -74 -153 -117l-105 264q20 9 56 27t128 103q91 85 158 202h279q-53 -471 -53 -698z
" />
    <glyph glyph-name="two" unicode="2" horiz-adv-x="1159" 
d="M287 190h557q5 18 9 78q5 60 -1 115l205 20q-5 -174 16 -337l6 -66h-1003v176q0 182 108 298q110 116 342 167t300 111t67 144q0 85 -70 141q-71 57 -193 57q-218 1 -282 -21l-20 -8q-12 -115 -13 -272l-196 20q0 176 -43 434l-15 84l504 15q532 0 533 -420
q0 -230 -144 -337q-122 -90 -309 -134q-358 -82 -358 -265z" />
    <glyph glyph-name="three" unicode="3" horiz-adv-x="1132" 
d="M1071 922q0 -180 -126 -280q-46 -38 -79 -48q205 -82 205 -262q0 -158 -132 -255t-374 -97t-405 88q-39 20 -56 34l-16 15q27 37 43 69l35 86q51 -32 163 -60q113 -28 238 -28t206 44t81 118q0 135 -326 135h-202q-8 49 -9 84l9 82h202q135 0 217 54q82 53 82 159
t-83 166t-238 59q-85 0 -154 -18l-24 -6q-13 -110 -13 -268l-196 20q0 176 -43 434l-15 84l445 15q565 0 565 -424z" />
    <glyph glyph-name="four" unicode="4" horiz-adv-x="1157" 
d="M684 590l-22 487q-352 -336 -435 -487h457zM856 590h231q8 -39 9 -80l-9 -82h-227l25 -190l192 20q-20 -131 -20 -258q-147 8 -287 8l-287 -8q0 130 -16 221l-4 37q90 -14 192 -20q16 104 23 188l-590 -27l-88 285q135 127 321 328q185 201 310 364l278 -67
q-53 -420 -53 -719z" />
    <glyph glyph-name="five" unicode="5" horiz-adv-x="1155" 
d="M582 571q-102 0 -178 -15t-97 -32l-24 -16l-205 24v799q307 -12 518 -12l498 12q-57 -270 -58 -477l-205 -20q0 107 -8 223l-4 26h-536v-376q91 43 323 43t352 -114t121 -281q0 -167 -120 -277t-381 -109q-158 0 -287 33t-180 66l-50 32q16 96 17 262l205 -20
q0 -115 8 -139q109 -63 267 -63t235 58q76 60 75 154q0 94 -65 157q-66 62 -221 62z" />
    <glyph glyph-name="six" unicode="6" horiz-adv-x="1187" 
d="M948 361q0 77 -72 125t-170 48q-169 1 -258 -61t-112 -104l-12 -21q4 -6 11 -17t37 -38q112 -101 310 -103q88 0 178 48q88 48 88 123zM999 84q-123 -104 -348 -104t-397 137q-90 72 -141 207t-52 319q-1 326 175 514t473 189q91 0 217 -8t200 -7q-57 -287 -57 -493
l-205 -21q0 127 -8 211l-4 21q-35 31 -170 30q-217 0 -329 -123t-111 -313q0 -95 18 -137q49 66 157 128q107 62 292 62q184 0 299 -89q114 -89 114 -253q0 -166 -123 -270z" />
    <glyph glyph-name="seven" unicode="7" horiz-adv-x="1136" 
d="M584 -10h-250q0 174 59 350t145 303q169 252 314 385l59 51h-616q-12 -88 -12 -245l-205 20q0 179 -43 403l-15 74q231 -8 549 -8l547 8v-368q-10 -8 -53 -40t-125 -121q-354 -384 -354 -812z" />
    <glyph glyph-name="eight" unicode="8" horiz-adv-x="1146" 
d="M897 326q0 70 -87 116t-244 47q-156 0 -236 -46t-80 -117q0 -160 324 -160t323 160zM574 664q126 0 197 59t71 148t-62 151t-206 63q-146 0 -207 -62q-61 -63 -61 -151t70 -148q72 -60 198 -60zM573 1356q256 0 384 -110t128 -312q1 -72 -21 -132t-71 -114t-96 -72
l-20 -8q20 -5 64 -36q44 -30 72 -60q29 -30 51 -83q22 -54 21 -116q0 -336 -512 -336t-512 336q0 156 133 254q30 23 52 31l20 10q-26 6 -66 36t-67 64t-49 94q-23 60 -23 132q0 202 128 312t384 110z" />
    <glyph glyph-name="nine" unicode="9" horiz-adv-x="1200" 
d="M264 878q0 -90 86 -144t227 -54t222 58t106 110q-7 33 -34 79q-28 46 -62 78q-35 31 -103 57t-151 25q-141 0 -216 -59t-75 -150zM553 182q207 0 299 132t92 348q-12 -19 -54 -49q-140 -101 -362 -101q-221 0 -344 108t-123 308q1 200 133 318q132 120 398 120t406 -173
t140 -520t-168 -532q-62 -67 -168 -109t-216 -42q-200 0 -297 38t-129 70l-15 13q15 149 15 292l205 -20l6 -160q59 -41 182 -41z" />
    <glyph glyph-name="colon" unicode=":" horiz-adv-x="382" 
d="M51 965q0 59 41 100t99 41q57 0 99 -41t42 -99t-41 -100t-101 -41t-99 41q-40 40 -40 99zM51 128q0 58 41 99t99 41q57 0 99 -42t42 -99t-41 -98t-101 -41t-99 41q-40 41 -40 99z" />
    <glyph glyph-name="semicolon" unicode=";" horiz-adv-x="382" 
d="M51 965q0 59 41 100t99 41q57 0 99 -41t42 -99t-41 -100t-101 -41t-99 41q-40 40 -40 99zM190 -12q-61 0 -100 35t-39 99t37 105q38 41 102 41t103 -43t39 -121q0 -205 -199 -280l-33 59q88 37 111 107q-10 -2 -21 -2z" />
    <glyph glyph-name="less" unicode="&#x3c;" horiz-adv-x="788" 
d="M643 143l-618 463l618 463q37 -96 121 -160l-447 -303l449 -303l-20 -16q-69 -59 -103 -144z" />
    <glyph glyph-name="equal" unicode="=" horiz-adv-x="942" 
d="M82 907q250 -12 389 -12l389 12q-8 -31 -8 -108l8 -109q-250 20 -378 21t-335 -15l-65 -6q8 31 8 109zM860 322q-250 20 -363 20t-350 -14l-65 -6q8 31 8 108l-8 109q250 -12 389 -13l389 13q-8 -31 -8 -109z" />
    <glyph glyph-name="greater" unicode="&#x3e;" horiz-adv-x="788" 
d="M768 606l-618 -463q-32 80 -88 127q-34 31 -37 33l450 303l-450 303q27 11 67 64q39 53 58 96z" />
    <glyph glyph-name="question" unicode="?" horiz-adv-x="1007" 
d="M186 128q0 58 41 99t99 41t100 -42q41 -42 41 -99t-41 -98t-100 -41t-100 41q-40 41 -40 99zM926 922q0 -200 -133 -315q-133 -114 -379 -113l-15 -119h-157l-39 299h207q174 0 258 66t84 173t-74 163t-211 57q-69 0 -150 -17q-14 -51 -14 -194h-182q0 187 -29 364
l-10 66l338 12q254 0 380 -121t126 -321z" />
    <glyph glyph-name="at" unicode="@" horiz-adv-x="1769" 
d="M885 440q-225 0 -226 -135q0 -113 140 -112q98 0 180 77q83 77 115 127l14 25q-68 18 -223 18zM1376 215q125 0 125 410q0 190 -73 321q-138 256 -533 256q-627 0 -627 -645q0 -362 176 -520t492 -158l-43 -164q-414 0 -639 277q-78 96 -125 248t-47 344q0 385 215 600
t612 215q179 0 319 -50t225 -128q85 -79 139 -183q94 -182 96 -397q0 -285 -90 -445t-255 -159q-102 0 -165 54t-64 165q-8 -12 -17 -28t-44 -52q-130 -137 -299 -136q-121 1 -191 69q-69 67 -69 193t96 200t291 73l233 -10v84q0 113 -54 151t-152 38t-175 -23l-24 -8
q-12 -76 -13 -129l-155 -14q0 165 -21 284l-6 51q62 -1 198 13t197 14q213 0 298 -92t85 -258l-6 -293q0 -168 90 -168z" />
    <glyph glyph-name="A" unicode="A" horiz-adv-x="1392" 
d="M514 573q100 -10 182 -10l183 10q-60 183 -152 390l-31 71q-119 -262 -182 -461zM840 1331q202 -787 360 -1089l172 16q-20 -131 -20 -258q-147 8 -287 8l-287 -8q0 130 -16 221l-4 37q98 -12 207 -18l-39 163q-156 20 -280 13q-123 -6 -150 -10l-29 -3l-41 -163l209 18
q-20 -131 -21 -258q-147 8 -286 8l-287 -8q0 130 -16 221l-5 37q78 -10 173 -16q129 248 234 595q34 112 44 162l12 54q-85 0 -180 -17l-37 -4q8 72 8 150l-8 149q143 -12 287 -12z" />
    <glyph glyph-name="B" unicode="B" horiz-adv-x="1298" 
d="M1069 343q0 163 -342 163q-109 0 -281 -14q10 -148 37 -291q133 -10 248 -11q338 0 338 153zM1049 864q0 238 -297 240q-117 0 -275 -17q-37 -212 -37 -419q178 -14 316 -14t215 44q78 45 78 166zM1227 893q0 -80 -27 -143q-42 -97 -131 -150q-27 -16 -43 -20
q140 -34 193 -138q29 -57 28 -133q1 -153 -115 -233t-380 -80q-139 0 -290 6t-165 6l-225 -8q0 119 -15 221l-6 37l191 -31q60 332 -6 832l-185 -27q8 72 8 150l-8 149q176 -8 246 -8l455 8q244 -1 360 -109t115 -329z" />
    <glyph glyph-name="C" unicode="C" horiz-adv-x="1167" 
d="M672 1065q-221 0 -331 -121t-110 -301q0 -227 127 -340t314 -113q104 0 189 20t118 42l33 20l78 -155q-86 -86 -268 -123q-73 -14 -150 -14q-281 0 -451 174t-170 489t164 509t457 194q59 0 209 -8t235 -7q-57 -311 -57 -518l-205 -20q0 154 -10 221l-2 26
q-74 25 -170 25z" />
    <glyph glyph-name="D" unicode="D" horiz-adv-x="1308" 
d="M444 571q0 -195 35 -360q120 -10 183 -10q180 -1 300 107t119 335q0 172 -114 297q-115 125 -305 125l-183 -6q-35 -293 -35 -488zM662 0l-355 8l-235 -8q0 119 -15 221l-6 37q84 -12 191 -25q60 335 -4 811l-187 -12q8 72 8 150l-8 149q186 -8 256 -8l273 8
q678 0 677 -688q-1 -317 -155 -480t-440 -163z" />
    <glyph glyph-name="E" unicode="E" horiz-adv-x="1228" 
d="M936 647h164q8 -33 8 -74l-8 -73h-164q-297 0 -487 -51q8 -121 28 -236q260 -25 430 -25q23 39 23 177l205 -21q0 -164 24 -299l10 -45q-258 20 -550 20t-478 -16l-69 -4q0 119 -15 221l-6 37q78 -10 191 -22q30 172 30 350t-34 467l-187 -21q8 72 8 150l-8 149
q266 -12 563 -12l564 12q-43 -229 -43 -436l-205 -21q0 129 -17 207l-6 23q-141 0 -426 -27q-27 -207 -35 -379q188 -51 490 -51z" />
    <glyph glyph-name="F" unicode="F" horiz-adv-x="1208" 
d="M936 647h164q8 -33 8 -74l-8 -73h-164q-297 0 -487 -51q4 -104 24 -209l234 18q-20 -131 -21 -258q-188 8 -328 8l-286 -8q0 119 -15 221l-6 37q90 -12 193 -18q28 160 28 342t-34 471l-187 -21q8 72 8 150l-8 149q266 -12 563 -12l564 12q-43 -229 -43 -436l-205 -21
q0 129 -17 207l-6 23q-141 0 -426 -27q-27 -207 -35 -379q188 -51 490 -51z" />
    <glyph glyph-name="G" unicode="G" horiz-adv-x="1294" 
d="M672 1065q-221 0 -331 -121t-110 -301q0 -227 122 -340t306 -113q102 0 130 8t52 14q24 7 33 9q10 131 13 209l-238 -8q0 78 -14 186l-6 31q330 -39 571 -4l43 4q-20 -111 -20 -217q-74 2 -146 4q5 -203 21 -295l4 -37q-12 -12 -39 -32t-137 -51q-110 -32 -252 -31
q-297 0 -460 172t-163 489t164 511t457 194q59 0 209 -8t235 -7q-57 -311 -57 -518l-205 -20q0 154 -10 221l-2 26q-74 25 -170 25z" />
    <glyph glyph-name="H" unicode="H" horiz-adv-x="1482" 
d="M738 494q-126 0 -292 -23q4 -104 27 -231l193 18q-20 -131 -21 -258q-147 8 -287 8l-286 -8q0 119 -15 221l-6 37q90 -12 193 -18q58 322 -6 809l-187 -17q8 72 8 150l-8 149q168 -12 307 -12l308 12q-8 -72 -9 -149l9 -150q-88 10 -187 17q-29 -221 -33 -373
q119 -23 287 -23t303 23q-8 178 -32 373l-187 -17q8 72 8 150l-8 149q168 -12 307 -12l308 12q-8 -72 -9 -149l9 -150q-88 10 -187 17q-35 -256 -35 -453t29 -356l193 18q-20 -131 -21 -258q-147 8 -287 8l-286 -8q0 119 -15 221l-6 37q90 -12 193 -18q18 109 26 231
q-172 23 -298 23z" />
    <glyph glyph-name="I" unicode="I" horiz-adv-x="716" 
d="M444 596q0 -197 29 -356l193 18q-20 -131 -21 -258q-147 8 -287 8l-286 -8q0 119 -15 221l-6 37q90 -12 193 -18q58 322 -6 809l-187 -17q8 72 8 150l-8 149q168 -12 307 -12l308 12q-8 -72 -9 -149l9 -150q-88 10 -187 17q-35 -256 -35 -453z" />
    <glyph glyph-name="J" unicode="J" horiz-adv-x="1335" 
d="M635 -20q-215 0 -326 82t-110 237q0 66 10 113l-168 -6q0 103 -16 186l-5 31q315 -38 570 -5l45 5q-20 -111 -21 -217q-96 6 -204 8q-6 -36 -6 -90t50 -88q52 -34 192 -35q140 0 192 79q53 80 53 296t-35 473l-186 -17q8 72 8 150l-8 149q168 -12 307 -12l307 12
q-8 -72 -8 -149l8 -150q-88 10 -186 17q-35 -256 -35 -476l8 -286q0 -307 -436 -307z" />
    <glyph glyph-name="K" unicode="K" horiz-adv-x="1443" 
d="M51 1331q168 -12 307 -12l308 12q-8 -72 -9 -149l9 -150q-88 10 -187 17q-29 -217 -35 -424q128 75 263 197q49 44 129 118t118 109l-176 -17q8 72 8 150l-8 149q168 -12 307 -12l308 12q-8 -72 -9 -149l9 -150q-70 8 -154 15q-236 -164 -428 -353q57 -80 201 -234
t229 -216l152 14q-20 -131 -21 -258q-147 8 -287 8l-286 -8q0 138 -17 221l-4 37q96 -12 199 -18q-45 63 -142 164t-157 155l-223 -182q0 -65 9 -99t9 -38l193 18q-20 -131 -21 -258q-147 8 -287 8l-286 -8q0 119 -15 221l-6 37q90 -12 193 -18q58 322 -6 809l-187 -17
q8 72 8 150z" />
    <glyph glyph-name="L" unicode="L" horiz-adv-x="1138" 
d="M444 592q0 -201 33 -379q221 -20 379 -20q12 117 12 253l205 -20q0 -177 25 -360l10 -66q-279 20 -568 20t-419 -16l-49 -4q0 119 -15 221l-6 37q78 -10 191 -22q60 331 -4 813l-187 -17q8 72 8 150l-8 149q168 -12 307 -12l308 12q-8 -72 -9 -149l9 -150q-88 10 -187 17
q-35 -256 -35 -457z" />
    <glyph glyph-name="M" unicode="M" horiz-adv-x="1757" 
d="M1485 596q0 -197 28 -356l193 18q-20 -131 -20 -258q-147 8 -287 8l-287 -8q0 102 -14 221l-6 37q90 -12 192 -18q29 160 29 355t-31 454h-4l-297 -730h-205q-129 332 -297 730h-6q-29 -283 -29 -467t29 -342l193 18q-20 -131 -21 -258q-147 8 -287 8l-286 -8
q0 119 -15 221l-6 37q90 -12 193 -18q58 322 -6 809l-187 -17q8 72 8 150l-8 149q168 -12 307 -12l267 12q59 -334 254 -782q190 440 254 782q127 -12 266 -12l307 12q-8 -72 -8 -149l8 -150q-88 10 -186 17q-35 -256 -35 -453z" />
    <glyph glyph-name="N" unicode="N" horiz-adv-x="1556" 
d="M1319 1049q-35 -256 -35 -495t16 -468l7 -86q-82 8 -127 8l-127 -8q-167 362 -277 567t-295 482h-2q-35 -256 -35 -453t29 -356l193 18q-20 -131 -21 -258q-147 8 -287 8l-286 -8q0 119 -15 221l-6 37q90 -12 193 -18q58 322 -6 809l-187 -17q8 72 8 150l-8 149
q167 -12 291 -12t252 8l31 4q156 -406 288 -657q49 -96 189 -334q10 116 10 284t-35 425l-186 -17q8 72 8 150l-8 149q168 -12 307 -12l307 12q-8 -72 -8 -149l8 -150q-88 10 -186 17z" />
    <glyph glyph-name="O" unicode="O" 
d="M227 643q0 -225 129 -334q130 -109 318 -109t317 110q129 108 129 333q0 176 -115 299q-116 123 -331 123t-331 -123t-116 -299zM51 643q0 315 165 509t458 194t458 -194q164 -194 164 -509t-171 -489t-451 -174t-452 174q-171 174 -171 489z" />
    <glyph glyph-name="P" unicode="P" horiz-adv-x="1277" 
d="M754 526q144 0 220 96q75 96 75 246q0 236 -297 236q-115 0 -269 -14q-39 -312 -39 -521q166 -43 310 -43zM1227 864q0 -242 -124 -374t-351 -132q-172 0 -301 43q8 -82 22 -161l213 18q-20 -131 -20 -258q-168 8 -308 8l-286 -8q0 119 -15 221l-6 37q90 -12 193 -18
q59 325 -8 821l-185 -29q8 72 8 150l-8 149q176 -8 246 -8l455 8q246 -1 360 -113t115 -354z" />
    <glyph glyph-name="Q" unicode="Q" 
d="M227 643q0 -225 129 -334t318 -108q27 0 76 4q-104 113 -156 147l-16 13l184 153q33 -80 172 -252q186 113 186 377q0 176 -115 299q-116 123 -331 123t-331 -123t-116 -299zM51 643q0 315 165 509t458 194t458 -194t164 -509q0 -362 -225 -539q53 -60 96 -99
q44 -39 66 -60t35 -31l-183 -154q-51 102 -174 256q-106 -37 -237 -36q-281 0 -452 174t-171 489z" />
    <glyph glyph-name="R" unicode="R" horiz-adv-x="1296" 
d="M746 573q136 0 219 85q84 85 84 210q0 236 -297 236q-115 0 -269 -14q-37 -273 -39 -474q166 -43 302 -43zM752 1331q475 -1 475 -441q1 -216 -105 -328q-106 -114 -262 -146q86 -103 164 -154l27 -20l194 16q-20 -137 -20 -272q-199 14 -312 14q-80 172 -190 309
l-84 101q-102 12 -190 39q4 -104 24 -209l193 18q-20 -131 -21 -258q-147 8 -287 8l-286 -8q0 119 -15 221l-6 37q90 -12 193 -18q59 325 -8 821l-185 -29q8 72 8 150l-8 149q176 -8 246 -8z" />
    <glyph glyph-name="S" unicode="S" horiz-adv-x="1138" 
d="M862 287q0 62 -69 90q-44 18 -199 55q-156 38 -239 73q-83 34 -155 85q-148 104 -149 319t141 326t392 111q68 0 242 -8t261 -7q-57 -311 -57 -518l-205 -20q0 156 -10 231l-2 29q-45 29 -233 29t-267 -52q-77 -51 -77 -133t74 -137q74 -54 314 -112q238 -58 344 -137
t105 -221q0 -142 -121 -232t-371 -89q-250 0 -424 91q-42 22 -61 36l-18 15q14 127 14 292l205 -20l8 -160q43 -20 130 -42t167 -21q260 0 260 127z" />
    <glyph glyph-name="T" unicode="T" horiz-adv-x="1380" 
d="M604 602q0 202 -41 490l-248 -13q-16 -66 -16 -205l-205 21q0 213 -33 373l-10 63q260 -16 615 -16t585 12l78 4q-43 -229 -43 -436l-205 -21q0 117 -16 205q-131 8 -250 13q-39 -311 -39 -502t29 -350l213 18q-20 -131 -21 -258q-168 8 -307 8l-307 -8q0 102 -14 221
l-7 37q104 -12 213 -18q29 160 29 362z" />
    <glyph glyph-name="U" unicode="U" horiz-adv-x="1515" 
d="M231 643q0 242 -22 404l-168 -15q8 72 8 150l-8 149q168 -12 307 -12l307 12q-8 -72 -8 -149l8 -150q-100 10 -206 17q-37 -229 -37 -406q0 -240 81 -341t265 -101t268 101t84 341q0 150 -41 406l-209 -17q8 72 8 150l-8 149q168 -12 307 -12l308 12q-8 -72 -9 -149
l9 -150q-78 8 -168 15q-23 -139 -21 -404q2 -358 -116 -511q-118 -152 -412 -152t-411 152q-116 152 -116 511z" />
    <glyph glyph-name="V" unicode="V" horiz-adv-x="1482" 
d="M31 1331q168 -12 307 -12l307 12q-8 -72 -8 -149l8 -150q-78 8 -166 15q158 -549 262 -789q90 205 263 789l-166 -15q8 72 8 150l-8 149q168 -12 307 -12l307 12q-8 -72 -8 -149l8 -150q-78 8 -168 15q-154 -273 -211 -433q-110 -307 -160 -530l-20 -84q-72 8 -152 8
l-151 -8q-68 305 -148 526t-243 521l-168 -15q8 72 8 150z" />
    <glyph glyph-name="W" unicode="W" horiz-adv-x="2084" 
d="M31 1331q168 -12 307 -12l307 12q-8 -72 -8 -149l8 -150q-82 10 -174 17q111 -565 209 -791q100 229 270 793l-194 -19q8 72 8 150l-8 149q147 -12 286 -12l287 12q-8 -72 -8 -149l8 -150q-90 12 -194 19q170 -563 270 -793q98 221 223 791l-188 -17q8 72 8 150l-8 149
q168 -12 307 -12l307 12q-8 -72 -8 -149l8 -150q-72 8 -158 15q-137 -311 -208 -512t-140 -451l-22 -84q-41 8 -121 8l-121 -8q-57 305 -156 573q-47 127 -86 248q-24 -81 -101 -291t-122 -446l-18 -84q-41 8 -121 8l-121 -8q-78 304 -169 550t-187 499l-172 -17q8 72 8 150
z" />
    <glyph glyph-name="X" unicode="X" horiz-adv-x="1462" 
d="M82 0q0 130 -16 221l-5 37q98 -12 207 -18q180 197 326 372l-377 437l-176 -17q8 72 8 150l-8 149q168 -12 307 -12l307 12q-8 -72 -8 -149l8 -150q-82 10 -176 17q125 -176 248 -312q113 119 258 312l-178 -17q8 72 8 150l-8 149q168 -12 307 -12l307 12q-8 -72 -8 -149
l8 -150q-82 10 -174 17q-236 -274 -379 -435q154 -184 330 -374l203 18q-20 -131 -21 -258q-147 8 -286 8l-287 -8q0 130 -16 221l-5 37q68 -8 150 -14q-141 174 -211 245q-96 -88 -215 -247l166 16q-20 -131 -21 -258q-147 8 -286 8z" />
    <glyph glyph-name="Y" unicode="Y" horiz-adv-x="1441" 
d="M840 442q0 -111 14 -200l207 16q-20 -131 -21 -258q-180 8 -319 8l-320 -8q0 130 -16 221l-4 37q100 -10 205 -16q16 82 16 200q0 51 -383 607l-199 -17q8 72 9 150l-9 149q168 -12 308 -12l307 12q-8 -72 -8 -149l8 -150q-72 8 -156 15q139 -276 242 -420
q98 154 237 420l-151 -15q8 72 8 150l-8 149q168 -12 307 -12l307 12q-8 -72 -8 -149l8 -150q-96 10 -200 17q-381 -561 -381 -607z" />
    <glyph glyph-name="Z" unicode="Z" horiz-adv-x="1245" 
d="M868 1090q-121 12 -255 12t-248 -12l-41 -7q-18 -145 -19 -229l-205 20q0 170 -37 383l-12 74q336 -10 572 -10l551 8l20 -278q-384 -309 -488 -414q-182 -185 -313 -354l-49 -62q158 -14 288 -14t253 14l35 4q18 121 18 230l205 -21q0 -220 37 -377l14 -57
q-291 8 -567 8l-535 -8l-20 258q388 364 576 577q95 108 159 181z" />
    <glyph glyph-name="bracketleft" unicode="[" horiz-adv-x="614" 
d="M82 -215q31 442 31 883t-23 757l-8 113l491 21q-8 -35 -8 -97l8 -96l-235 -20q-20 -195 -21 -603t15 -690l6 -76l235 -20q-6 -41 -6 -96l6 -97z" />
    <glyph glyph-name="backslash" unicode="\" horiz-adv-x="856" 
d="M836 -133q-37 -4 -109 -31l-104 -47q-233 705 -281 836l-322 819q33 4 109 31l104 47q233 -705 281 -836z" />
    <glyph glyph-name="bracketright" unicode="]" horiz-adv-x="614" 
d="M532 -215l-491 -21q6 41 6 97l-6 96l235 20q20 248 21 669t-14 638l-7 62l-235 20q8 33 8 96l-8 97l491 -21q-45 -576 -23 -1282q7 -225 15 -348z" />
    <glyph glyph-name="asciicircum" unicode="^" horiz-adv-x="753" 
d="M31 1456q225 170 342 287q105 -105 282 -240l60 -47q-25 -25 -37 -45l-27 -51l-278 170l-279 -170q-12 29 -26 51z" />
    <glyph glyph-name="underscore" unicode="_" horiz-adv-x="1167" 
d="M51 258q268 -20 531 -20t458 16l76 4q-8 -51 -8 -129l8 -129q-270 29 -518 29t-471 -21l-76 -8q8 51 8 129z" />
    <glyph glyph-name="grave" unicode="`" horiz-adv-x="851" 
d="M721 1499q-25 -31 -39 -53l-39 -74q-142 89 -342 172q-57 25 -84 33l-24 10q41 47 69 101l47 94q68 -59 199 -150z" />
    <glyph glyph-name="a" unicode="a" horiz-adv-x="1339" 
d="M582 541q-326 0 -326 -201q0 -141 195 -141q73 -1 143 31t148 102t124 147l21 31q-92 31 -305 31zM403 -8q-164 0 -258 88t-94 259t130 275t394 105q148 0 277 -21l41 -6v127q0 156 -76 219q-77 64 -221 64t-254 -41q-16 -121 -16 -203l-205 -20q0 139 -27 379l-10 77
q82 0 265 18t300 19q117 0 217 -35t152 -102q52 -68 72 -148t20 -190l-10 -416l10 -182q33 -8 84 -8l94 8l-20 -258q-80 8 -187 8l-188 -8v311q-24 -47 -79 -110q-54 -63 -104 -103t-134 -72q-84 -34 -173 -34z" />
    <glyph glyph-name="b" unicode="b" horiz-adv-x="1298" 
d="M1069 343q0 163 -342 163q-109 0 -281 -14q10 -148 37 -291q133 -10 248 -11q338 0 338 153zM1049 864q0 238 -297 240q-117 0 -275 -17q-37 -212 -37 -419q178 -14 316 -14t215 44q78 45 78 166zM1227 893q0 -80 -27 -143q-42 -97 -131 -150q-27 -16 -43 -20
q140 -34 193 -138q29 -57 28 -133q1 -153 -115 -233t-380 -80q-139 0 -290 6t-165 6l-225 -8q0 119 -15 221l-6 37l191 -31q60 332 -6 832l-185 -27q8 72 8 150l-8 149q176 -8 246 -8l455 8q244 -1 360 -109t115 -329z" />
    <glyph glyph-name="c" unicode="c" horiz-adv-x="1167" 
d="M672 1065q-221 0 -331 -121t-110 -301q0 -227 127 -340t314 -113q104 0 189 20t118 42l33 20l78 -155q-86 -86 -268 -123q-73 -14 -150 -14q-281 0 -451 174t-170 489t164 509t457 194q59 0 209 -8t235 -7q-57 -311 -57 -518l-205 -20q0 154 -10 221l-2 26
q-74 25 -170 25z" />
    <glyph glyph-name="d" unicode="d" horiz-adv-x="1308" 
d="M444 571q0 -195 35 -360q120 -10 183 -10q180 -1 300 107t119 335q0 172 -114 297q-115 125 -305 125l-183 -6q-35 -293 -35 -488zM662 0l-355 8l-235 -8q0 119 -15 221l-6 37q84 -12 191 -25q60 335 -4 811l-187 -12q8 72 8 150l-8 149q186 -8 256 -8l273 8
q678 0 677 -688q-1 -317 -155 -480t-440 -163z" />
    <glyph glyph-name="e" unicode="e" horiz-adv-x="1206" 
d="M632 1067q-152 0 -255 -97q-102 -97 -121 -227l680 19q0 127 -76 216t-228 89zM51 658q0 322 164 504q164 184 420 184t385 -142t129 -389q0 -114 -10 -192l-4 -29l-883 -10q0 -172 117 -278t277 -105q160 0 254 52t116 87l12 16l127 -73q-16 -47 -57 -103
q-41 -55 -92 -95q-50 -40 -148 -73t-215 -32q-274 0 -433 178t-159 500z" />
    <glyph glyph-name="f" unicode="f" horiz-adv-x="1208" 
d="M936 647h164q8 -33 8 -74l-8 -73h-164q-297 0 -487 -51q4 -104 24 -209l234 18q-20 -131 -21 -258q-188 8 -328 8l-286 -8q0 119 -15 221l-6 37q90 -12 193 -18q28 160 28 342t-34 471l-187 -21q8 72 8 150l-8 149q266 -12 563 -12l564 12q-43 -229 -43 -436l-205 -21
q0 129 -17 207l-6 23q-141 0 -426 -27q-27 -207 -35 -379q188 -51 490 -51z" />
    <glyph glyph-name="g" unicode="g" horiz-adv-x="1294" 
d="M672 1065q-221 0 -331 -121t-110 -301q0 -227 122 -340t306 -113q102 0 130 8t52 14q24 7 33 9q10 131 13 209l-238 -8q0 78 -14 186l-6 31q330 -39 571 -4l43 4q-20 -111 -20 -217q-74 2 -146 4q5 -203 21 -295l4 -37q-12 -12 -39 -32t-137 -51q-110 -32 -252 -31
q-297 0 -460 172t-163 489t164 511t457 194q59 0 209 -8t235 -7q-57 -311 -57 -518l-205 -20q0 154 -10 221l-2 26q-74 25 -170 25z" />
    <glyph glyph-name="h" unicode="h" horiz-adv-x="1482" 
d="M738 494q-126 0 -292 -23q4 -104 27 -231l193 18q-20 -131 -21 -258q-147 8 -287 8l-286 -8q0 119 -15 221l-6 37q90 -12 193 -18q58 322 -6 809l-187 -17q8 72 8 150l-8 149q168 -12 307 -12l308 12q-8 -72 -9 -149l9 -150q-88 10 -187 17q-29 -221 -33 -373
q119 -23 287 -23t303 23q-8 178 -32 373l-187 -17q8 72 8 150l-8 149q168 -12 307 -12l308 12q-8 -72 -9 -149l9 -150q-88 10 -187 17q-35 -256 -35 -453t29 -356l193 18q-20 -131 -21 -258q-147 8 -287 8l-286 -8q0 119 -15 221l-6 37q90 -12 193 -18q18 109 26 231
q-172 23 -298 23z" />
    <glyph glyph-name="i" unicode="i" horiz-adv-x="716" 
d="M444 596q0 -197 29 -356l193 18q-20 -131 -21 -258q-147 8 -287 8l-286 -8q0 119 -15 221l-6 37q90 -12 193 -18q58 322 -6 809l-187 -17q8 72 8 150l-8 149q168 -12 307 -12l308 12q-8 -72 -9 -149l9 -150q-88 10 -187 17q-35 -256 -35 -453z" />
    <glyph glyph-name="j" unicode="j" horiz-adv-x="1335" 
d="M635 -20q-215 0 -326 82t-110 237q0 66 10 113l-168 -6q0 103 -16 186l-5 31q315 -38 570 -5l45 5q-20 -111 -21 -217q-96 6 -204 8q-6 -36 -6 -90t50 -88q52 -34 192 -35q140 0 192 79q53 80 53 296t-35 473l-186 -17q8 72 8 150l-8 149q168 -12 307 -12l307 12
q-8 -72 -8 -149l8 -150q-88 10 -186 17q-35 -256 -35 -476l8 -286q0 -307 -436 -307z" />
    <glyph glyph-name="k" unicode="k" horiz-adv-x="1443" 
d="M51 1331q168 -12 307 -12l308 12q-8 -72 -9 -149l9 -150q-88 10 -187 17q-29 -217 -35 -424q128 75 263 197q49 44 129 118t118 109l-176 -17q8 72 8 150l-8 149q168 -12 307 -12l308 12q-8 -72 -9 -149l9 -150q-70 8 -154 15q-236 -164 -428 -353q57 -80 201 -234
t229 -216l152 14q-20 -131 -21 -258q-147 8 -287 8l-286 -8q0 138 -17 221l-4 37q96 -12 199 -18q-45 63 -142 164t-157 155l-223 -182q0 -65 9 -99t9 -38l193 18q-20 -131 -21 -258q-147 8 -287 8l-286 -8q0 119 -15 221l-6 37q90 -12 193 -18q58 322 -6 809l-187 -17
q8 72 8 150z" />
    <glyph glyph-name="l" unicode="l" horiz-adv-x="1138" 
d="M444 592q0 -201 33 -379q221 -20 379 -20q12 117 12 253l205 -20q0 -177 25 -360l10 -66q-279 20 -568 20t-419 -16l-49 -4q0 119 -15 221l-6 37q78 -10 191 -22q60 331 -4 813l-187 -17q8 72 8 150l-8 149q168 -12 307 -12l308 12q-8 -72 -9 -149l9 -150q-88 10 -187 17
q-35 -256 -35 -457z" />
    <glyph glyph-name="m" unicode="m" horiz-adv-x="2205" 
d="M1734 945q-48 91 -172 91t-204 -62t-113 -110l-14 -18q-32 -128 -16 -421q5 -91 12 -138l6 -47l201 18q-20 -131 -21 -258q-150 8 -289 8l-295 -8q0 102 -14 221l-6 37q96 -12 215 -18q14 190 14 365t-26 271t-73 128q-45 32 -115 32t-138 -24t-144 -99q-30 -29 -42 -49
l-15 -18q-20 -90 -20 -238t16 -309l6 -59l201 18q-20 -131 -20 -258q-150 8 -289 8l-295 -8q0 102 -14 221l-7 37q109 -12 216 -18q14 223 14 436t-27 373l-215 -17q8 72 8 150l-8 149q131 -12 219 -12l211 12q-16 -98 -18 -268q22 37 72 88q49 51 96 87t121 65t150 29
t137 -28q60 -28 89 -67q64 -86 68 -143l4 -29q20 33 69 86q50 53 97 88t123 64t153 28q172 0 247 -95t75 -286l-10 -348q0 -166 18 -313l6 -49l207 18q-20 -131 -20 -258q-156 8 -295 8l-299 -8q0 119 -15 221l-6 37q106 -12 211 -18q21 180 21 397t-48 308z" />
    <glyph glyph-name="n" unicode="n" horiz-adv-x="1492" 
d="M1006 930q-53 106 -199 106t-264 -123q-29 -29 -43 -49l-15 -18q-20 -68 -20 -230t16 -317l6 -59l201 18q-20 -131 -20 -258q-158 8 -297 8l-287 -8q0 102 -14 221l-7 37q104 -14 216 -18q14 222 14 396t-21 351l-6 62l-215 -17q8 72 8 150l-8 149q145 -12 217 -12
l213 12q-18 -111 -18 -268q56 93 165 175q48 36 126 65t161 28q176 0 251 -105t75 -259l-10 -396q0 -103 18 -274l6 -57l207 18q-20 -131 -20 -258q-158 8 -297 8l-297 -8q0 138 -17 221l-4 37q102 -12 211 -18q20 205 21 321q0 263 -53 369z" />
    <glyph glyph-name="o" unicode="o" 
d="M227 643q0 -225 129 -334q130 -109 318 -109t317 110q129 108 129 333q0 176 -115 299q-116 123 -331 123t-331 -123t-116 -299zM51 643q0 315 165 509t458 194t458 -194q164 -194 164 -509t-171 -489t-451 -174t-452 174q-171 174 -171 489z" />
    <glyph glyph-name="p" unicode="p" horiz-adv-x="1277" 
d="M754 526q144 0 220 96q75 96 75 246q0 236 -297 236q-115 0 -269 -14q-39 -312 -39 -521q166 -43 310 -43zM1227 864q0 -242 -124 -374t-351 -132q-172 0 -301 43q8 -82 22 -161l213 18q-20 -131 -20 -258q-168 8 -308 8l-286 -8q0 119 -15 221l-6 37q90 -12 193 -18
q59 325 -8 821l-185 -29q8 72 8 150l-8 149q176 -8 246 -8l455 8q246 -1 360 -113t115 -354z" />
    <glyph glyph-name="q" unicode="q" 
d="M227 643q0 -225 129 -334t318 -108q27 0 76 4q-104 113 -156 147l-16 13l184 153q33 -80 172 -252q186 113 186 377q0 176 -115 299q-116 123 -331 123t-331 -123t-116 -299zM51 643q0 315 165 509t458 194t458 -194t164 -509q0 -362 -225 -539q53 -60 96 -99
q44 -39 66 -60t35 -31l-183 -154q-51 102 -174 256q-106 -37 -237 -36q-281 0 -452 174t-171 489z" />
    <glyph glyph-name="r" unicode="r" horiz-adv-x="1173" 
d="M794 1034q-144 0 -257 -122q-27 -28 -39 -48l-13 -18q-20 -82 -20 -232t16 -315l6 -59l201 18q-20 -131 -20 -258q-150 8 -289 8l-295 -8q0 102 -14 221l-7 37q102 -14 216 -18q14 240 14 391t-21 352l-6 66l-215 -17q8 72 8 150l-8 149q131 -12 219 -12l211 12
q-18 -123 -18 -268q102 170 274 233q76 29 158 29l248 6q-27 -311 -27 -518l-225 -20l-17 235q-24 6 -80 6z" />
    <glyph glyph-name="s" unicode="s" horiz-adv-x="1138" 
d="M862 287q0 62 -69 90q-44 18 -199 55q-156 38 -239 73q-83 34 -155 85q-148 104 -149 319t141 326t392 111q68 0 242 -8t261 -7q-57 -311 -57 -518l-205 -20q0 156 -10 231l-2 29q-45 29 -233 29t-267 -52q-77 -51 -77 -133t74 -137q74 -54 314 -112q238 -58 344 -137
t105 -221q0 -142 -121 -232t-371 -89q-250 0 -424 91q-42 22 -61 36l-18 15q14 127 14 292l205 -20l8 -160q43 -20 130 -42t167 -21q260 0 260 127z" />
    <glyph glyph-name="t" unicode="t" horiz-adv-x="1380" 
d="M604 602q0 202 -41 490l-248 -13q-16 -66 -16 -205l-205 21q0 213 -33 373l-10 63q260 -16 615 -16t585 12l78 4q-43 -229 -43 -436l-205 -21q0 117 -16 205q-131 8 -250 13q-39 -311 -39 -502t29 -350l213 18q-20 -131 -21 -258q-168 8 -307 8l-307 -8q0 102 -14 221
l-7 37q104 -12 213 -18q29 160 29 362z" />
    <glyph glyph-name="u" unicode="u" horiz-adv-x="1486" 
d="M436 557q0 -186 67 -261t183 -75q156 0 268 141t113 357q0 150 -18 330l-215 -17q8 72 8 150l-8 149q133 -12 227 -12l231 12q-41 -287 -41 -537t21 -462l6 -74q43 -8 88 -8l90 8l-20 -258q-86 8 -193 8l-182 -8v270q-22 -43 -72 -101q-49 -58 -94 -93t-122 -66t-159 -30
q-369 0 -368 385l18 366q0 137 -18 318l-215 -17q8 72 8 150l-8 149q117 -12 223 -12l235 12q-53 -489 -53 -774z" />
    <glyph glyph-name="v" unicode="v" horiz-adv-x="1482" 
d="M31 1331q168 -12 307 -12l307 12q-8 -72 -8 -149l8 -150q-78 8 -166 15q158 -549 262 -789q90 205 263 789l-166 -15q8 72 8 150l-8 149q168 -12 307 -12l307 12q-8 -72 -8 -149l8 -150q-78 8 -168 15q-154 -273 -211 -433q-110 -307 -160 -530l-20 -84q-72 8 -152 8
l-151 -8q-68 305 -148 526t-243 521l-168 -15q8 72 8 150z" />
    <glyph glyph-name="w" unicode="w" horiz-adv-x="2084" 
d="M31 1331q168 -12 307 -12l307 12q-8 -72 -8 -149l8 -150q-82 10 -174 17q111 -565 209 -791q100 229 270 793l-194 -19q8 72 8 150l-8 149q147 -12 286 -12l287 12q-8 -72 -8 -149l8 -150q-90 12 -194 19q170 -563 270 -793q98 221 223 791l-188 -17q8 72 8 150l-8 149
q168 -12 307 -12l307 12q-8 -72 -8 -149l8 -150q-72 8 -158 15q-137 -311 -208 -512t-140 -451l-22 -84q-41 8 -121 8l-121 -8q-57 305 -156 573q-47 127 -86 248q-24 -81 -101 -291t-122 -446l-18 -84q-41 8 -121 8l-121 -8q-78 304 -169 550t-187 499l-172 -17q8 72 8 150
z" />
    <glyph glyph-name="x" unicode="x" horiz-adv-x="1462" 
d="M82 0q0 130 -16 221l-5 37q98 -12 207 -18q180 197 326 372l-377 437l-176 -17q8 72 8 150l-8 149q168 -12 307 -12l307 12q-8 -72 -8 -149l8 -150q-82 10 -176 17q125 -176 248 -312q113 119 258 312l-178 -17q8 72 8 150l-8 149q168 -12 307 -12l307 12q-8 -72 -8 -149
l8 -150q-82 10 -174 17q-236 -274 -379 -435q154 -184 330 -374l203 18q-20 -131 -21 -258q-147 8 -286 8l-287 -8q0 130 -16 221l-5 37q68 -8 150 -14q-141 174 -211 245q-96 -88 -215 -247l166 16q-20 -131 -21 -258q-147 8 -286 8z" />
    <glyph glyph-name="y" unicode="y" horiz-adv-x="1441" 
d="M840 442q0 -111 14 -200l207 16q-20 -131 -21 -258q-180 8 -319 8l-320 -8q0 130 -16 221l-4 37q100 -10 205 -16q16 82 16 200q0 51 -383 607l-199 -17q8 72 9 150l-9 149q168 -12 308 -12l307 12q-8 -72 -8 -149l8 -150q-72 8 -156 15q139 -276 242 -420
q98 154 237 420l-151 -15q8 72 8 150l-8 149q168 -12 307 -12l307 12q-8 -72 -8 -149l8 -150q-96 10 -200 17q-381 -561 -381 -607z" />
    <glyph glyph-name="z" unicode="z" horiz-adv-x="1245" 
d="M868 1090q-121 12 -255 12t-248 -12l-41 -7q-18 -145 -19 -229l-205 20q0 170 -37 383l-12 74q336 -10 572 -10l551 8l20 -278q-384 -309 -488 -414q-182 -185 -313 -354l-49 -62q158 -14 288 -14t253 14l35 4q18 121 18 230l205 -21q0 -220 37 -377l14 -57
q-291 8 -567 8l-535 -8l-20 258q388 364 576 577q95 108 159 181z" />
    <glyph glyph-name="braceleft" unicode="{" horiz-adv-x="735" 
d="M281 414q-1 57 -49 93t-123 36h-60q-8 63 -8 114l8 115h78q80 0 116 42t36 82t-24 164t-24 208q1 139 99 218t364 85q-8 -47 -8 -98l8 -103q-121 0 -177 -44t-56 -114q1 -70 23 -190t22 -165q0 -44 -18 -84t-48 -68q-31 -28 -69 -39q-37 -11 -49 -11q48 -8 93 -37
q91 -57 91 -180q0 -60 -23 -166t-22 -176q0 -158 233 -157q-8 -53 -8 -107l6 -96q-260 8 -360 85t-101 224q0 72 25 192t25 177z" />
    <glyph glyph-name="bar" unicode="|" horiz-adv-x="450" 
d="M111 -225q20 741 20 880l-20 881q35 -8 112 -8l113 8q-20 -741 -21 -881l21 -880q-35 8 -113 8z" />
    <glyph glyph-name="braceright" unicode="}" horiz-adv-x="735" 
d="M274 96q0 70 -22 176q-23 106 -23 166t23 106t70 74t88 37q-36 4 -86 31q-50 28 -72 72t-23 94q0 49 23 170q22 120 22 190t-56 114t-177 44q8 49 8 103l-8 98q267 -6 365 -85t98 -218q0 -84 -24 -208t-24 -164t37 -82q36 -42 115 -42h78q8 -63 8 -115l-8 -114h-59
q-76 0 -124 -36t-48 -93q1 -57 25 -177t24 -192q0 -147 -100 -224t-361 -85q6 45 6 96l-8 107q233 0 233 157z" />
    <glyph glyph-name="asciitilde" unicode="~" horiz-adv-x="1081" 
d="M778 494q-98 0 -178 36t-150 71q-70 36 -143 36q-74 0 -106 -131q-37 14 -74 24l-66 15q16 139 86 214t163 75t173 -36t150 -72t127 -36t82 22t41 89q23 -4 71 -4l72 4q-16 -145 -83 -226t-165 -81z" />
    <glyph glyph-name="exclamdown" unicode="&#xa1;" horiz-adv-x="483" 
d="M328 804q0 -91 18 -304t37 -363l18 -149h-319q74 565 74 852l-6 98h184q-6 -43 -6 -134zM102 1203q0 57 41 99t99 42t100 -42q41 -40 41 -98t-42 -99q-42 -42 -99 -42t-99 41q-41 41 -41 99z" />
    <glyph glyph-name="cent" unicode="&#xa2;" horiz-adv-x="1269" 
d="M283 643q0 -321 272 -393q8 262 8 364l-8 381q-272 -59 -272 -352zM102 645q0 262 114 424t333 205l-6 201q53 -8 102 -9l103 9q-2 -76 -7 -185q47 0 195 -7t231 -7q-57 -311 -57 -518l-205 -21q0 113 -8 221l-4 27q-72 20 -158 25q-8 -287 -8 -396l8 -383q101 1 183 21
t114 41l31 20l78 -155q-16 -16 -76 -54t-155 -60q-95 -21 -169 -24l7 -184q-51 8 -103 8l-102 -8q2 86 6 201q-211 43 -329 195t-118 413z" />
    <glyph glyph-name="sterling" unicode="&#xa3;" horiz-adv-x="1290" 
d="M305 999q0 162 108 258q108 97 311 97t303 -48t144 -89l13 -17q-76 -98 -131 -201q-150 101 -295 101q-146 0 -198 -94t-56 -306l336 13q-8 -31 -9 -109l9 -108q-190 14 -334 18q4 -176 31 -301q221 -20 399 -20q12 96 12 233l205 -20q0 -165 27 -345l8 -61
q-299 20 -588 20t-420 -16l-49 -4q0 130 -16 221l-4 37q78 -10 190 -22q23 129 29 276l-228 -16q8 31 9 108l-9 109q111 -8 226 -13q-2 35 -13 145q-10 110 -10 154z" />
    <glyph glyph-name="currency" unicode="&#xa4;" 
d="M379 634q0 -134 85 -206q85 -74 210 -74t211 74t86 207t-77 214t-219 81t-219 -81t-77 -215zM672 156q-80 0 -158 22l-162 -299q-25 25 -88 60l-94 47q86 135 178 288q-139 134 -139 372t119 380l-158 258q60 18 144 78q18 11 38 29l135 -248q87 35 185 35t176 -31
l133 244q27 -25 90 -60l94 -47q-70 -115 -151 -248q127 -146 127 -372t-170 -379l194 -299q-76 -26 -184 -107q-76 139 -160 295q-69 -18 -149 -18z" />
    <glyph glyph-name="yen" unicode="&#xa5;" horiz-adv-x="1441" 
d="M184 807q113 -6 219 -8q-133 205 -184 278l-199 -16q8 57 9 135l-9 135q168 -12 308 -12l307 12q-8 -57 -8 -135l8 -135q-72 8 -156 14q156 -305 242 -428q74 115 237 428l-151 -14q8 57 8 135l-8 135q168 -12 307 -12l307 12q-8 -57 -8 -135l8 -135q-96 10 -200 16
q-59 -88 -183 -278l211 8q-8 -41 -8 -98l8 -99q-176 6 -323 13l-62 -105l328 10q-8 -43 -8 -98l8 -98q-203 10 -350 16q8 -111 12 -127l207 17q-20 -111 -21 -238q-180 8 -319 8l-320 -8q0 124 -16 207l-4 31q100 -10 205 -17q8 41 12 127l-348 -16q8 45 8 98l-8 98
q184 -8 328 -10q-33 55 -64 105l-330 -13q8 39 9 99z" />
    <glyph glyph-name="brokenbar" unicode="&#xa6;" horiz-adv-x="450" 
d="M220 543q75 0 91 8v-369q0 -163 17 -338l4 -71q-31 8 -109 8l-108 -8q12 270 12 409l8 369q10 -8 85 -8zM226 764q-75 0 -91 -8q-8 229 -8 368l-12 410q31 -8 108 -8l109 8q-20 -270 -21 -410v-368q-10 8 -85 8z" />
    <glyph glyph-name="section" unicode="&#xa7;" horiz-adv-x="1081" 
d="M279 604q1 -80 65 -119t215 -71q77 0 143 30t66 90t-57 90t-213 60l-121 29q-98 -29 -98 -109zM555 -20q213 0 213 98q0 63 -57 92t-213 59q-395 74 -396 379q0 137 76 230q-76 86 -76 225q0 180 134 272t380 92q56 0 174 -6t189 -6q-49 -262 -49 -438l-172 -16l-10 198
q-76 25 -202 25t-193 -38t-67 -104t60 -113q59 -48 256 -91t281 -112t84 -200q0 -63 -40 -125t-93 -82l19 -10q114 -65 114 -204q-1 -138 -101 -218t-313 -80q-131 0 -239 28t-148 54l-41 29q12 117 12 258l174 -18l6 -125q86 -53 238 -53z" />
    <glyph glyph-name="dieresis" unicode="&#xa8;" horiz-adv-x="1228" 
d="M690 1584q0 54 38 93t92 39t92 -40t38 -93t-38 -91t-92 -38t-92 38t-38 92zM295 1584q0 54 37 93t91 39t93 -40t39 -93t-39 -91t-93 -38t-91 38t-37 92z" />
    <glyph glyph-name="copyright" unicode="&#xa9;" horiz-adv-x="940" 
d="M139 814q0 -154 94 -236q93 -84 233 -84t234 84t94 237t-83 267q-84 114 -244 114t-244 -114t-84 -268zM25 835q0 224 115 360q116 136 326 136t327 -136t117 -360q0 -225 -124 -351q-122 -126 -320 -126t-320 126q-121 127 -121 351zM317 826q1 -68 47 -108t117 -40
t125 39l37 -88q-63 -61 -173 -61t-176 68t-67 192q0 124 66 200t178 76q46 0 172 -12q-27 -136 -27 -220l-84 -10l-4 96q-27 10 -78 10t-92 -36q-41 -37 -41 -106z" />
    <glyph glyph-name="ordfeminine" unicode="&#xaa;" horiz-adv-x="688" 
d="M197 893q0 -47 53 -47t96 28t64 56l20 28q-41 4 -65 5q-168 0 -168 -70zM70 649q135 -12 282 -12l279 12q-10 -41 -10 -94l10 -88q-131 12 -279 12l-282 -12q8 31 8 88zM551 1102v-238l80 4l-10 -137q-47 4 -93 4l-100 -4v117q-8 -16 -24 -39t-66 -53q-51 -30 -120 -31
q-69 0 -113 39t-44 121t67 131t179 49l121 4q0 65 -26 91t-97 26l-102 -12q-6 -41 -6 -72l-113 -8q0 67 -18 184l-5 41l265 14q137 0 181 -55t44 -176z" />
    <glyph glyph-name="guillemotleft" unicode="&#xab;" horiz-adv-x="1028" 
d="M834 203l-431 444l431 445q68 -73 133 -109l22 -16l-358 -320l358 -319q-87 -53 -155 -125zM430 203l-430 444l430 445q60 -64 131 -109l25 -16l-359 -320l359 -319q-88 -53 -156 -125z" />
    <glyph glyph-name="logicalnot" unicode="&#xac;" horiz-adv-x="1257" 
d="M901 395l-2 123q-139 8 -305 8l-512 -20q8 31 8 108l-8 109q373 -12 512 -12l512 12q-36 -335 -4 -604l4 -51q-31 8 -109 8l-108 -8q12 188 12 327z" />
    <glyph glyph-name="registered" unicode="&#xae;" horiz-adv-x="917" 
d="M139 814q0 -154 94 -236q93 -84 233 -84t234 84t94 237t-83 267q-84 114 -244 114t-244 -114t-84 -268zM25 835q0 224 115 360q116 136 326 136t327 -136t117 -360q0 -225 -124 -351q-122 -126 -320 -126t-320 126q-121 127 -121 351zM600 918q0 74 -92 73q-35 0 -88 -6
q-14 -90 -14 -147q66 -14 100 -15q94 0 94 95zM709 915q0 -121 -148 -170q35 -43 64 -61q41 2 63 2l-12 -111l-101 3l-36 64q-18 30 -37 54l-33 39q-43 8 -70 17q4 -49 13 -80q39 2 67 6l-10 -100l-111 2q-55 0 -102 -2q0 49 -8 100l57 -6q12 57 12 144t-14 169
q-43 -6 -55 -12l2 65q0 29 -2 56l88 -2l176 2q197 0 197 -179z" />
    <glyph glyph-name="macron" unicode="&#xaf;" horiz-adv-x="1345" 
d="M387 1653q147 -12 287 -13l287 13q-8 -47 -9 -97l9 -96q-275 37 -533 6l-41 -6q8 47 8 96z" />
    <glyph glyph-name="degree" unicode="&#xb0;" horiz-adv-x="710" 
d="M360 1397q-58 0 -90 -35t-32 -89t34 -84t87 -30q52 0 87 30t35 84t-31 89q-32 35 -90 35zM360 1032q-104 0 -168 64t-65 185q0 120 61 193q61 72 172 72t172 -72q62 -72 62 -192q0 -118 -65 -184t-169 -66z" />
    <glyph glyph-name="plusminus" unicode="&#xb1;" horiz-adv-x="983" 
d="M881 -20q-250 20 -391 20t-322 -16l-66 -4q8 31 9 108l-9 109q250 -12 390 -13l389 13q-8 -31 -9 -109zM82 825q162 -8 307 -12l-14 330q31 -8 108 -8l109 8q-10 -182 -14 -330l323 12q-8 -31 -8 -108l8 -109q-176 12 -323 19l16 -324q-31 8 -109 8l-108 -8
q10 176 12 324l-307 -19q8 31 8 109z" />
    <glyph glyph-name="twosuperior" unicode="&#xb2;" horiz-adv-x="645" 
d="M563 1143q0 -93 -52 -145t-117 -64q-173 -32 -187 -98h225q4 27 2 73l111 13q-4 -71 8 -164l2 -33h-475v86q0 181 204 225q102 22 127 42q24 20 23 55q0 61 -115 61q-38 0 -98 -12q-4 -27 -4 -105l-113 13q0 93 -22 200l-6 39l241 6q246 0 246 -192z" />
    <glyph glyph-name="threesuperior" unicode="&#xb3;" horiz-adv-x="624" 
d="M555 1162q0 -70 -35 -112t-65 -55q100 -39 100 -117t-61 -123q-61 -46 -183 -46q-66 0 -121 18t-77 37l-23 18q27 43 41 99q79 -51 183 -51t104 50t-139 50h-78q-6 31 -6 53l6 53h78q131 0 131 82q0 76 -121 76l-76 -12q-4 -27 -4 -97l-107 9q0 79 -18 196l-6 39l207 6
q145 0 207 -52q62 -51 63 -121z" />
    <glyph glyph-name="acute" unicode="&#xb4;" horiz-adv-x="1228" 
d="M383 1499q135 74 252 161q118 87 139 105l21 17q25 -68 59 -119q34 -50 47 -61l10 -15q-104 -35 -254 -111q-149 -75 -174 -90l-22 -14q-27 51 -39 74z" />
    <glyph glyph-name="mu" unicode="&#xb5;" horiz-adv-x="1529" 
d="M246 -455q18 248 18 690t-14 732l-4 82l-215 -17q8 72 8 150l-8 149q117 -12 223 -12l235 12q-53 -489 -53 -774q0 -186 67 -261t183 -75q156 0 268 141t113 357q0 150 -18 330l-215 -17q8 72 8 150l-8 149q133 -12 227 -12l231 12q-41 -287 -41 -537t21 -462l6 -74
q43 -8 88 -8l90 8l-20 -258q-86 8 -193 8l-182 -8v270q-22 -43 -72 -101q-49 -58 -94 -93t-122 -66q-77 -30 -166 -30t-165 28v-53q0 -179 17 -344l4 -66q-31 8 -109 9z" />
    <glyph glyph-name="mu" unicode="&#x3bc;" horiz-adv-x="1529" 
d="M246 -455q18 248 18 690t-14 732l-4 82l-215 -17q8 72 8 150l-8 149q117 -12 223 -12l235 12q-53 -489 -53 -774q0 -186 67 -261t183 -75q156 0 268 141t113 357q0 150 -18 330l-215 -17q8 72 8 150l-8 149q133 -12 227 -12l231 12q-41 -287 -41 -537t21 -462l6 -74
q43 -8 88 -8l90 8l-20 -258q-86 8 -193 8l-182 -8v270q-22 -43 -72 -101q-49 -58 -94 -93t-122 -66q-77 -30 -166 -30t-165 28v-53q0 -179 17 -344l4 -66q-31 8 -109 9z" />
    <glyph glyph-name="paragraph" unicode="&#xb6;" horiz-adv-x="1161" 
d="M1059 1321q-23 -66 -23 -144t13 -124l4 -21q-41 10 -152 25q-29 -209 -29 -477t29 -666l8 -135q-100 6 -184 6l-197 -8q0 142 -16 227l-4 35q135 -10 194 -10q33 562 5 944q-14 190 -31 272l-14 82q133 -4 196 -4zM512 408q-174 0 -292 128t-118 354t110 330t337 105
q68 -346 67 -655q0 -135 -12 -228l-4 -30q-53 -4 -88 -4z" />
    <glyph glyph-name="periodcentered" unicode="&#xb7;" horiz-adv-x="444" 
d="M82 621q0 59 41 100t98 41t99 -41t42 -99t-40 -100q-42 -41 -100 -41q-58 1 -99 41t-41 99z" />
    <glyph glyph-name="cedilla" unicode="&#xb8;" horiz-adv-x="1234" 
d="M616 -336q129 0 129 64q0 29 -30 49q-31 20 -99 20l-77 -10l-50 53l84 205l101 -10l-35 -146q123 0 203 -41t80 -122q-1 -166 -271 -166q-139 0 -256 69q21 28 41 78q100 -43 180 -43z" />
    <glyph glyph-name="onesuperior" unicode="&#xb9;" horiz-adv-x="589" 
d="M330 725l-170 -4l-10 125q51 -8 108 -8q12 49 12 145l-10 174q-88 -147 -129 -160l-51 158q100 66 166 180h172q-25 -219 -25 -352l8 -145l107 8q-8 -55 -8 -125q-109 4 -170 4z" />
    <glyph glyph-name="ordmasculine" unicode="&#xba;" horiz-adv-x="651" 
d="M43 649q135 -12 283 -12l278 12q-10 -41 -10 -94l10 -88q-131 12 -278 12l-283 -12q8 31 8 88zM168 1006q0 -142 157 -142t156 142q0 66 -41 102q-42 36 -116 37q-74 -1 -115 -37t-41 -102zM39 1010q0 135 71 229t216 94t216 -94q70 -94 70 -229t-70 -219t-216 -84
q-145 0 -216 84t-71 219z" />
    <glyph glyph-name="guillemotright" unicode="&#xbb;" horiz-adv-x="995" 
d="M592 647l-430 -444q-63 67 -133 108l-23 17l359 319l-359 320q88 53 156 125zM995 647l-430 -444q-62 66 -131 108l-24 17l358 319l-358 320q88 53 155 125z" />
    <glyph glyph-name="onequarter" unicode="&#xbc;" horiz-adv-x="1318" 
d="M946 295l-10 178q-104 -119 -141 -180zM1067 295h98q4 -35 4 -53l-4 -54h-98l8 -84l99 9q-8 -59 -9 -117q-90 4 -161 4l-160 -4l-10 117q51 -8 98 -9q8 45 10 84l-268 -12l-43 127q145 141 291 334l170 -31q-25 -176 -25 -311zM326 725l-170 -4l-11 125q51 -8 109 -8
q12 49 12 145l-10 174q-88 -147 -129 -160l-51 158q100 66 166 180h172q-25 -219 -25 -352l8 -145l107 8q-8 -55 -8 -125q-109 4 -170 4zM160 43q367 598 436 719l403 737q33 -29 76 -53l84 -39q-367 -598 -436 -719l-404 -737q-33 29 -75 53z" />
    <glyph glyph-name="onehalf" unicode="&#xbd;" horiz-adv-x="1423" 
d="M1235 420q0 -92 -52 -144t-117 -65q-173 -32 -187 -98h225q4 27 2 73l111 13q-6 -102 10 -197h-475v86q0 94 51 148t166 79q115 24 131 61q6 13 6 34q0 61 -115 61q-66 0 -98 -12l-4 -105l-113 13q0 96 -28 239l241 6q246 0 246 -192zM326 725l-170 -4l-11 125
q51 -8 109 -8q12 49 12 145l-10 174q-88 -147 -129 -160l-51 158q100 66 166 180h172q-25 -219 -25 -352l8 -145l107 8q-8 -55 -8 -125q-109 4 -170 4zM160 43q367 598 436 719l403 737q33 -29 76 -53l84 -39q-367 -598 -436 -719l-404 -737q-33 29 -75 53z" />
    <glyph glyph-name="threequarters" unicode="&#xbe;" horiz-adv-x="1318" 
d="M530 1162q0 -70 -34 -112t-66 -55q100 -39 100 -117t-61 -123q-61 -46 -182 -46q-66 0 -129 22t-92 51q27 43 40 99l23 -13q71 -37 168 -38t96 51q0 49 -139 49h-78l-6 53q0 23 6 53h78q131 0 131 82q0 76 -121 76q-35 0 -76 -12l-4 -97l-106 9q0 90 -25 235l207 6
q146 0 208 -52q62 -51 62 -121zM946 295l-10 178q-104 -119 -141 -180zM1067 295h98q4 -35 4 -53l-4 -54h-98l8 -84l99 9q-8 -59 -9 -117q-90 4 -161 4l-160 -4l-10 117q51 -8 98 -9q8 45 10 84l-268 -12l-43 127q145 141 291 334l170 -31q-25 -176 -25 -311zM160 43
q367 598 436 719l403 737q33 -29 76 -53l84 -39q-367 -598 -436 -719l-404 -737q-33 29 -75 53z" />
    <glyph glyph-name="questiondown" unicode="&#xbf;" horiz-adv-x="966" 
d="M520 1208q0 56 41 98t101 42t99 -42q40 -42 40 -99q0 -58 -41 -99t-99 -41t-100 42q-41 42 -41 99zM82 412q0 202 132 316t359 114l15 119h157l39 -299h-206q-162 0 -242 -68t-80 -172q0 -219 264 -219q82 0 150 16q14 84 14 178h178q0 -186 23 -413l-318 -13
q-253 0 -369 120t-116 321z" />
    <glyph glyph-name="Agrave" unicode="&#xc0;" horiz-adv-x="1392" 
d="M786 1499q-25 -31 -38 -53l-39 -74q-135 85 -342 172q-57 25 -84 33l-25 10q41 47 70 101l47 94q68 -59 198 -150zM514 573l182 -10q82 0 183 10q-66 199 -183 461l-32 -71q-84 -190 -150 -390zM897 406q-67 10 -202 10q-134 0 -228 -13l-41 -163q109 6 209 18l-4 -37
q-15 -85 -17 -221l-286 8q-139 0 -287 -8q0 127 -21 258l173 -16q71 136 163 384t127 427q-76 0 -217 -21l8 150q0 78 -8 149l287 -12q143 0 287 12l32 -123q171 -667 328 -966q92 6 172 16l-4 -37q-16 -93 -16 -221l-287 8q-140 0 -287 -8q0 127 -20 258l207 -18l-39 163z
" />
    <glyph glyph-name="Aacute" unicode="&#xc1;" horiz-adv-x="1392" 
d="M928 1782q33 -91 116 -195q-104 -35 -254 -111q-149 -75 -172 -90l-24 -14q-27 51 -39 74l-39 53q124 68 247 158q124 90 144 108zM514 573l182 -10q82 0 183 10q-66 199 -183 461l-32 -71q-84 -190 -150 -390zM897 406q-67 10 -202 10q-134 0 -228 -13l-41 -163
q109 6 209 18l-4 -37q-15 -85 -17 -221l-286 8q-139 0 -287 -8q0 127 -21 258l173 -16q71 136 163 384t127 427q-76 0 -217 -21l8 150q0 78 -8 149l287 -12q143 0 287 12l32 -123q171 -667 328 -966q92 6 172 16l-4 -37q-16 -93 -16 -221l-287 8q-140 0 -287 -8
q0 127 -20 258l207 -18l-39 163z" />
    <glyph glyph-name="Acircumflex" unicode="&#xc2;" horiz-adv-x="1392" 
d="M987 1534q-54 -63 -69 -129l-238 135l-238 -135q-16 66 -69 129q190 123 307 240q51 -52 128 -112t128 -93zM514 573l182 -10q82 0 183 10q-66 199 -183 461l-32 -71q-84 -190 -150 -390zM897 406q-67 10 -202 10q-134 0 -228 -13l-41 -163q109 6 209 18l-4 -37
q-15 -85 -17 -221l-286 8q-139 0 -287 -8q0 127 -21 258l173 -16q71 136 163 384t127 427q-76 0 -217 -21l8 150q0 78 -8 149l287 -12q143 0 287 12l32 -123q171 -667 328 -966q92 6 172 16l-4 -37q-16 -93 -16 -221l-287 8q-140 0 -287 -8q0 127 -20 258l207 -18l-39 163z
" />
    <glyph glyph-name="Atilde" unicode="&#xc3;" horiz-adv-x="1392" 
d="M841 1405q-77 1 -160 65t-122 64q-68 0 -96 -119q-33 14 -66 23l-71 12q14 125 83 194q136 136 307 4q83 -65 120 -65q38 1 60 19t38 79q18 -2 61 -2l64 2q-13 -127 -77 -201t-141 -75zM514 573l182 -10q82 0 183 10q-66 199 -183 461l-32 -71q-84 -190 -150 -390z
M897 406q-67 10 -202 10q-134 0 -228 -13l-41 -163q109 6 209 18l-4 -37q-15 -85 -17 -221l-286 8q-139 0 -287 -8q0 127 -21 258l173 -16q71 136 163 384t127 427q-76 0 -217 -21l8 150q0 78 -8 149l287 -12q143 0 287 12l32 -123q171 -667 328 -966q92 6 172 16l-4 -37
q-16 -93 -16 -221l-287 8q-140 0 -287 -8q0 127 -20 258l207 -18l-39 163z" />
    <glyph glyph-name="Adieresis" unicode="&#xc4;" horiz-adv-x="1392" 
d="M721 1584q0 54 38 93t92 39t92 -40t38 -93t-38 -91t-92 -38t-92 38t-38 92zM326 1584q0 54 36 93q38 39 92 39t93 -40t39 -93t-39 -91t-93 -38t-92 38q-36 38 -36 92zM514 573l182 -10q82 0 183 10q-66 199 -183 461l-32 -71q-84 -190 -150 -390zM897 406q-67 10 -202 10
q-134 0 -228 -13l-41 -163q109 6 209 18l-4 -37q-15 -85 -17 -221l-286 8q-139 0 -287 -8q0 127 -21 258l173 -16q71 136 163 384t127 427q-76 0 -217 -21l8 150q0 78 -8 149l287 -12q143 0 287 12l32 -123q171 -667 328 -966q92 6 172 16l-4 -37q-16 -93 -16 -221l-287 8
q-140 0 -287 -8q0 127 -20 258l207 -18l-39 163z" />
    <glyph glyph-name="Aring" unicode="&#xc5;" horiz-adv-x="1392" 
d="M567 1618q-1 -84 97 -84t98 84q0 42 -27 66t-69 24t-71 -24q-28 -24 -28 -66zM446 1618q0 113 66 169t154 56t152 -56t65 -169q-1 -113 -63 -161t-154 -48t-156 48t-64 161zM514 573l182 -10q82 0 183 10q-66 199 -183 461l-32 -71q-84 -190 -150 -390zM897 406
q-67 10 -202 10q-134 0 -228 -13l-41 -163q109 6 209 18l-4 -37q-15 -85 -17 -221l-286 8q-139 0 -287 -8q0 127 -21 258l173 -16q71 136 163 384t127 427q-76 0 -217 -21l8 150q0 78 -8 149l287 -12q143 0 287 12l32 -123q171 -667 328 -966q92 6 172 16l-4 -37
q-16 -93 -16 -221l-287 8q-140 0 -287 -8q0 127 -20 258l207 -18l-39 163z" />
    <glyph glyph-name="AE" unicode="&#xc6;" horiz-adv-x="1781" 
d="M514 573q100 -10 182 -10l183 10q-60 183 -152 390l-31 71q-119 -262 -182 -461zM1489 647h164q8 -33 8 -74l-8 -73h-164q-236 0 -350 -25l-41 -6l110 -248q193 -12 260 -12q14 57 15 156l205 -21q0 -164 24 -299l10 -45q-258 6 -553 6l-391 -6q0 130 -16 221l-4 37
q100 -12 207 -18l-39 163q-156 20 -280 13q-123 -6 -150 -10l-29 -3l-41 -163l209 18q-20 -131 -21 -258q-147 8 -286 8l-287 -8q0 130 -16 221l-5 37q80 -10 173 -16q136 272 234 595q34 112 44 162l12 54q-85 0 -180 -17l-37 -4q8 72 8 150l-8 149q287 -12 686 -12l779 12
q-43 -229 -43 -436l-205 -21q0 129 -17 207l-6 23q-192 0 -459 -27l-88 -10q68 -254 107 -375q184 -45 469 -45z" />
    <glyph glyph-name="Ccedilla" unicode="&#xc7;" horiz-adv-x="1167" 
d="M555 -336q129 0 129 64q0 29 -31 49t-98 20l-78 -10l-49 53l66 160q-207 51 -325 217t-118 426q0 315 164 509t457 194q59 0 209 -8t235 -7q-57 -311 -57 -518l-205 -20q0 154 -10 221l-2 26q-74 25 -170 25q-221 0 -331 -121t-110 -301q0 -227 127 -340t314 -113
q104 0 189 20t118 42l33 20l78 -155q-86 -86 -268 -123q-73 -14 -125 -14t-97 4l-22 -95q122 0 202 -41t80 -122q0 -166 -270 -166q-139 0 -256 69q21 28 41 78q100 -43 180 -43z" />
    <glyph glyph-name="Egrave" unicode="&#xc8;" horiz-adv-x="1228" 
d="M836 1499q-25 -31 -39 -53l-39 -74q-142 89 -342 172q-57 25 -84 33l-25 10q41 47 70 101l47 94q68 -59 199 -150zM936 647h164q8 -33 8 -74l-8 -73h-164q-297 0 -487 -51q8 -121 28 -236q260 -25 430 -25q23 39 23 177l205 -21q0 -164 24 -299l10 -45q-258 20 -550 20
t-478 -16l-69 -4q0 119 -15 221l-6 37q78 -10 191 -22q30 172 30 350t-34 467l-187 -21q8 72 8 150l-8 149q266 -12 563 -12l564 12q-43 -229 -43 -436l-205 -21q0 129 -17 207l-6 23q-141 0 -426 -27q-27 -207 -35 -379q188 -51 490 -51z" />
    <glyph glyph-name="Eacute" unicode="&#xc9;" horiz-adv-x="1228" 
d="M524 1499q124 68 247 158q124 90 144 108l21 17q39 -108 104 -180l13 -15q-117 -40 -260 -113t-166 -88l-25 -14q-27 51 -39 74zM936 647h164q8 -33 8 -74l-8 -73h-164q-297 0 -487 -51q8 -121 28 -236q260 -25 430 -25q23 39 23 177l205 -21q0 -164 24 -299l10 -45
q-258 20 -550 20t-478 -16l-69 -4q0 119 -15 221l-6 37q78 -10 191 -22q30 172 30 350t-34 467l-187 -21q8 72 8 150l-8 149q266 -12 563 -12l564 12q-43 -229 -43 -436l-205 -21q0 129 -17 207l-6 23q-141 0 -426 -27q-27 -207 -35 -379q188 -51 490 -51z" />
    <glyph glyph-name="Ecircumflex" unicode="&#xca;" horiz-adv-x="1228" 
d="M983 1534q-50 -58 -70 -129l-237 135l-238 -135q-16 66 -69 129q190 123 307 240q51 -52 128 -112t128 -93zM936 647h164q8 -33 8 -74l-8 -73h-164q-297 0 -487 -51q8 -121 28 -236q260 -25 430 -25q23 39 23 177l205 -21q0 -164 24 -299l10 -45q-258 20 -550 20
t-478 -16l-69 -4q0 119 -15 221l-6 37q78 -10 191 -22q30 172 30 350t-34 467l-187 -21q8 72 8 150l-8 149q266 -12 563 -12l564 12q-43 -229 -43 -436l-205 -21q0 129 -17 207l-6 23q-141 0 -426 -27q-27 -207 -35 -379q188 -51 490 -51z" />
    <glyph glyph-name="Edieresis" unicode="&#xcb;" horiz-adv-x="1228" 
d="M690 1584q0 54 38 93t92 39t92 -40t38 -93t-38 -91t-92 -38t-92 38t-38 92zM295 1584q0 54 37 93t91 39t93 -40t39 -93t-39 -91t-93 -38t-91 38t-37 92zM936 647h164q8 -33 8 -74l-8 -73h-164q-297 0 -487 -51q8 -121 28 -236q260 -25 430 -25q23 39 23 177l205 -21
q0 -164 24 -299l10 -45q-258 20 -550 20t-478 -16l-69 -4q0 119 -15 221l-6 37q78 -10 191 -22q30 172 30 350t-34 467l-187 -21q8 72 8 150l-8 149q266 -12 563 -12l564 12q-43 -229 -43 -436l-205 -21q0 129 -17 207l-6 23q-141 0 -426 -27q-27 -207 -35 -379
q188 -51 490 -51z" />
    <glyph glyph-name="Igrave" unicode="&#xcc;" horiz-adv-x="716" 
d="M569 1499q-25 -31 -39 -53l-38 -74q-135 85 -342 172q-57 25 -84 33l-25 10q41 47 70 101l47 94q68 -59 198 -150zM444 596q0 -197 29 -356l193 18q-20 -131 -21 -258q-147 8 -287 8l-286 -8q0 119 -15 221l-6 37q90 -12 193 -18q58 322 -6 809l-187 -17q8 72 8 150
l-8 149q168 -12 307 -12l308 12q-8 -72 -9 -149l9 -150q-88 10 -187 17q-35 -256 -35 -453z" />
    <glyph glyph-name="Iacute" unicode="&#xcd;" horiz-adv-x="722" 
d="M143 1499q124 68 247 158q124 90 145 108l20 17q39 -108 104 -180l13 -15q-117 -40 -260 -113t-166 -88l-25 -14q-27 51 -39 74zM444 596q0 -197 29 -356l193 18q-20 -131 -21 -258q-147 8 -287 8l-286 -8q0 119 -15 221l-6 37q90 -12 193 -18q58 322 -6 809l-187 -17
q8 72 8 150l-8 149q168 -12 307 -12l308 12q-8 -72 -9 -149l9 -150q-88 10 -187 17q-35 -256 -35 -453z" />
    <glyph glyph-name="Icircumflex" unicode="&#xce;" horiz-adv-x="716" 
d="M666 1534q-44 -51 -70 -129l-238 135l-237 -135q-16 66 -70 129q190 123 307 240q51 -52 128 -112t128 -93zM444 596q0 -197 29 -356l193 18q-20 -131 -21 -258q-147 8 -287 8l-286 -8q0 119 -15 221l-6 37q90 -12 193 -18q58 322 -6 809l-187 -17q8 72 8 150l-8 149
q168 -12 307 -12l308 12q-8 -72 -9 -149l9 -150q-88 10 -187 17q-35 -256 -35 -453z" />
    <glyph glyph-name="Idieresis" unicode="&#xcf;" horiz-adv-x="739" 
d="M428 1584q0 54 38 93t92 39t92 -40t38 -93t-38 -91t-92 -38t-92 38t-38 92zM33 1584q0 54 37 93t91 39t93 -40t39 -93t-39 -91t-93 -38t-91 38t-37 92zM444 596q0 -197 29 -356l193 18q-20 -131 -21 -258q-147 8 -287 8l-286 -8q0 119 -15 221l-6 37q90 -12 193 -18
q58 322 -6 809l-187 -17q8 72 8 150l-8 149q168 -12 307 -12l308 12q-8 -72 -9 -149l9 -150q-88 10 -187 17q-35 -256 -35 -453z" />
    <glyph glyph-name="Eth" unicode="&#xd0;" horiz-adv-x="1308" 
d="M662 201q180 -1 300 107t119 335q0 172 -114 297q-115 125 -305 125l-183 -6q-29 -248 -33 -348l342 12q-8 -31 -8 -109l8 -108q-197 12 -344 18q2 -156 35 -313q120 -10 183 -10zM662 0l-355 8l-235 -8q0 119 -15 221l-6 37q84 -12 191 -25q27 152 30 291l-200 -18
q8 31 8 108l-8 109q84 -8 196 -12q-8 176 -30 333l-187 -12q8 72 8 150l-8 149q186 -8 256 -8l273 8q678 0 677 -688q-1 -317 -155 -480t-440 -163z" />
    <glyph glyph-name="Ntilde" unicode="&#xd1;" horiz-adv-x="1556" 
d="M914 1405q-78 1 -160 65t-121 64q-68 0 -96 -119q-33 14 -66 23l-72 12q14 125 83 194q136 136 308 4q84 -65 120 -65q36 1 59 19t39 79q18 -2 61 -2l64 2q-14 -127 -78 -201t-141 -75zM1319 1049q-35 -256 -35 -495t16 -468l7 -86q-82 8 -127 8l-127 -8
q-167 362 -277 567t-295 482h-2q-35 -256 -35 -453t29 -356l193 18q-20 -131 -21 -258q-147 8 -287 8l-286 -8q0 119 -15 221l-6 37q90 -12 193 -18q58 322 -6 809l-187 -17q8 72 8 150l-8 149q167 -12 291 -12t252 8l31 4q156 -406 288 -657q49 -96 189 -334q10 116 10 284
t-35 425l-186 -17q8 72 8 150l-8 149q168 -12 307 -12l307 12q-8 -72 -8 -149l8 -150q-88 10 -186 17z" />
    <glyph glyph-name="Ograve" unicode="&#xd2;" 
d="M799 1499q-25 -31 -39 -53l-39 -74q-142 89 -342 172q-57 25 -84 33l-25 10q41 47 70 101l47 94q68 -59 199 -150zM227 643q0 -225 129 -334q130 -109 318 -109t317 110q129 108 129 333q0 176 -115 299q-116 123 -331 123t-331 -123t-116 -299zM51 643q0 315 165 509
t458 194t458 -194q164 -194 164 -509t-171 -489t-451 -174t-452 174q-171 174 -171 489z" />
    <glyph glyph-name="Oacute" unicode="&#xd3;" 
d="M590 1499q135 74 252 161q118 87 139 105l20 17q14 -39 48 -94q27 -56 57 -86l12 -15q-104 -35 -254 -111q-149 -75 -172 -90l-24 -14q-27 51 -39 74zM227 643q0 -225 129 -334q130 -109 318 -109t317 110q129 108 129 333q0 176 -115 299q-116 123 -331 123t-331 -123
t-116 -299zM51 643q0 315 165 509t458 194t458 -194q164 -194 164 -509t-171 -489t-451 -174t-452 174q-171 174 -171 489z" />
    <glyph glyph-name="Ocircumflex" unicode="&#xd4;" 
d="M674 1540l-238 -135q-16 66 -69 129q190 123 307 240q51 -52 128 -112t128 -93l51 -35q-52 -61 -63 -111l-7 -18zM227 643q0 -225 129 -334q130 -109 318 -109t317 110q129 108 129 333q0 176 -115 299q-116 123 -331 123t-331 -123t-116 -299zM51 643q0 315 165 509
t458 194t458 -194q164 -194 164 -509t-171 -489t-451 -174t-452 174q-171 174 -171 489z" />
    <glyph glyph-name="Otilde" unicode="&#xd5;" 
d="M826 1405q-78 1 -160 65t-121 64q-66 0 -96 -119q-33 14 -66 23l-72 12q14 125 83 194q137 137 307 4q83 -65 120 -65q37 1 60 19t39 79q18 -2 61 -2l63 2q-14 -127 -78 -201t-140 -75zM227 643q0 -225 129 -334q130 -109 318 -109t317 110q129 108 129 333
q0 176 -115 299q-116 123 -331 123t-331 -123t-116 -299zM51 643q0 315 165 509t458 194t458 -194q164 -194 164 -509t-171 -489t-451 -174t-452 174q-171 174 -171 489z" />
    <glyph glyph-name="Odieresis" unicode="&#xd6;" 
d="M752 1584q0 54 38 93t92 39t92 -40t38 -93t-38 -91t-92 -38t-92 38t-38 92zM356 1584q0 54 37 93t91 39t94 -40t38 -93q0 -53 -38 -91t-94 -38q-54 0 -91 38t-37 92zM227 643q0 -225 129 -334q130 -109 318 -109t317 110q129 108 129 333q0 176 -115 299
q-116 123 -331 123t-331 -123t-116 -299zM51 643q0 315 165 509t458 194t458 -194q164 -194 164 -509t-171 -489t-451 -174t-452 174q-171 174 -171 489z" />
    <glyph glyph-name="multiply" unicode="&#xd7;" horiz-adv-x="911" 
d="M244 983q109 -121 209 -227q107 112 188 202l35 39q25 -48 115 -121q29 -24 38 -30q-137 -121 -243 -223l237 -220q-29 -16 -84 -71l-69 -82q-117 133 -217 242l-217 -240q-24 47 -115 124q-20 17 -31 23l-8 7q133 117 237 219l-229 204q27 15 67 55t57 62z" />
    <glyph glyph-name="Oslash" unicode="&#xd8;" 
d="M1120 643q0 152 -82 260q-226 -252 -254 -288t-126 -157t-179 -225q90 -33 195 -32q188 1 317 109t129 333zM227 641q0 -178 86 -287q227 256 322 367l246 305q-94 39 -207 39q-215 0 -331 -123t-116 -301zM225 -86q-61 77 -174 145q53 59 129 144q-129 174 -129 440
q0 315 165 509t458 194q217 0 370 -113l140 176q45 -68 174 -145q-74 -84 -170 -191q109 -176 108 -430q0 -315 -171 -489t-451 -174q-186 0 -332 81z" />
    <glyph glyph-name="Ugrave" unicode="&#xd9;" horiz-adv-x="1515" 
d="M848 1499q-25 -31 -39 -53l-39 -74q-142 89 -342 172q-57 25 -84 33l-25 10q41 47 70 101l47 94q68 -59 199 -150zM231 643q0 242 -22 404l-168 -15q8 72 8 150l-8 149q168 -12 307 -12l307 12q-8 -72 -8 -149l8 -150q-100 10 -206 17q-37 -229 -37 -406q0 -240 81 -341
t265 -101t268 101t84 341q0 150 -41 406l-209 -17q8 72 8 150l-8 149q168 -12 307 -12l308 12q-8 -72 -9 -149l9 -150q-78 8 -168 15q-23 -139 -21 -404q2 -358 -116 -511q-118 -152 -412 -152t-411 152q-116 152 -116 511z" />
    <glyph glyph-name="Uacute" unicode="&#xda;" horiz-adv-x="1515" 
d="M653 1499q124 68 247 158q124 90 144 108l21 17q27 -74 60 -121l57 -74q-117 -40 -260 -113t-168 -88l-23 -14q-27 51 -39 74zM231 643q0 242 -22 404l-168 -15q8 72 8 150l-8 149q168 -12 307 -12l307 12q-8 -72 -8 -149l8 -150q-100 10 -206 17q-37 -229 -37 -406
q0 -240 81 -341t265 -101t268 101t84 341q0 150 -41 406l-209 -17q8 72 8 150l-8 149q168 -12 307 -12l308 12q-8 -72 -9 -149l9 -150q-78 8 -168 15q-23 -139 -21 -404q2 -358 -116 -511q-118 -152 -412 -152t-411 152q-116 152 -116 511z" />
    <glyph glyph-name="Ucircumflex" unicode="&#xdb;" horiz-adv-x="1515" 
d="M1059 1534q-44 -51 -70 -129l-237 135l-238 -135q-16 66 -70 129q190 123 308 240q51 -52 128 -112t128 -93zM231 643q0 242 -22 404l-168 -15q8 72 8 150l-8 149q168 -12 307 -12l307 12q-8 -72 -8 -149l8 -150q-100 10 -206 17q-37 -229 -37 -406q0 -240 81 -341
t265 -101t268 101t84 341q0 150 -41 406l-209 -17q8 72 8 150l-8 149q168 -12 307 -12l308 12q-8 -72 -9 -149l9 -150q-78 8 -168 15q-23 -139 -21 -404q2 -358 -116 -511q-118 -152 -412 -152t-411 152q-116 152 -116 511z" />
    <glyph glyph-name="Udieresis" unicode="&#xdc;" horiz-adv-x="1515" 
d="M813 1584q0 54 38 93t92 39t92 -40t38 -93t-38 -91t-92 -38t-92 38t-38 92zM418 1584q0 54 37 93t91 39t93 -40t39 -93t-39 -91t-93 -38t-91 38t-37 92zM231 643q0 242 -22 404l-168 -15q8 72 8 150l-8 149q168 -12 307 -12l307 12q-8 -72 -8 -149l8 -150
q-100 10 -206 17q-37 -229 -37 -406q0 -240 81 -341t265 -101t268 101t84 341q0 150 -41 406l-209 -17q8 72 8 150l-8 149q168 -12 307 -12l308 12q-8 -72 -9 -149l9 -150q-78 8 -168 15q-23 -139 -21 -404q2 -358 -116 -511q-118 -152 -412 -152t-411 152
q-116 152 -116 511z" />
    <glyph glyph-name="Yacute" unicode="&#xdd;" horiz-adv-x="1441" 
d="M610 1499q124 68 247 158q124 90 144 108l21 17q39 -108 104 -180l13 -15q-117 -40 -260 -113t-166 -88l-25 -14q-27 51 -39 74zM840 442q0 -111 14 -200l207 16q-20 -131 -21 -258q-180 8 -319 8l-320 -8q0 130 -16 221l-4 37q100 -10 205 -16q16 82 16 200
q0 51 -383 607l-199 -17q8 72 9 150l-9 149q168 -12 308 -12l307 12q-8 -72 -8 -149l8 -150q-72 8 -156 15q139 -276 242 -420q98 154 237 420l-151 -15q8 72 8 150l-8 149q168 -12 307 -12l307 12q-8 -72 -8 -149l8 -150q-96 10 -200 17q-381 -561 -381 -607z" />
    <glyph glyph-name="Thorn" unicode="&#xde;" horiz-adv-x="1247" 
d="M702 549q289 0 289 180q0 70 -62 120t-207 50t-226 -16l-31 -6q-20 -109 -21 -306q127 -22 258 -22zM711 1126q247 0 375 -100t128 -295t-124 -277t-379 -83q-115 0 -222 22l-38 8q8 -82 22 -161l213 18q-20 -131 -20 -258q-168 8 -308 8l-286 -8q0 119 -15 221l-6 37
q90 -12 193 -18q59 325 -8 821l-185 -29q8 72 8 150l-8 149q176 -8 246 -8l190 6l-10 -223q117 20 234 20z" />
    <glyph glyph-name="germandbls" unicode="&#xdf;" horiz-adv-x="1308" 
d="M1169 967q0 -81 -41 -143t-90 -90t-90 -47t-41 -24t37 -15q324 -83 324 -324q0 -160 -112 -242t-372 -82h-143q4 159 4 317l164 -20q0 -74 8 -117q272 10 273 172q0 72 -69 113t-150 53t-149 47t-69 91q0 92 154 134q57 15 105 51t48 85q0 48 -26 76q-61 63 -354 63
q-63 0 -101 -2q-35 -293 -35 -505t52 -468l18 -84q-16 2 -156 2l-286 -8q0 119 -15 221l-6 37q90 -12 193 -18q28 160 28 338t-34 469l-187 -15q8 72 8 150l-8 149q186 -8 256 -8l273 8q319 0 454 -90t135 -274z" />
    <glyph glyph-name="agrave" unicode="&#xe0;" horiz-adv-x="1339" 
d="M766 1499q-25 -31 -39 -53l-39 -74q-142 89 -342 172q-57 25 -84 33l-24 10q41 47 69 101l47 94q68 -59 199 -150zM582 541q-326 0 -326 -201q0 -141 195 -141q73 -1 143 31t148 102t124 147l21 31q-92 31 -305 31zM403 -8q-164 0 -258 88t-94 259t130 275t394 105
q148 0 277 -21l41 -6v127q0 156 -76 219q-77 64 -221 64t-254 -41q-16 -121 -16 -203l-205 -20q0 139 -27 379l-10 77q82 0 265 18t300 19q117 0 217 -35t152 -102q52 -68 72 -148t20 -190l-10 -416l10 -182q33 -8 84 -8l94 8l-20 -258q-80 8 -187 8l-188 -8v311
q-24 -47 -79 -110q-54 -63 -104 -103t-134 -72q-84 -34 -173 -34z" />
    <glyph glyph-name="aacute" unicode="&#xe1;" horiz-adv-x="1339" 
d="M352 1499q124 68 247 158q124 90 144 108l21 17q39 -108 104 -180l13 -15q-108 -36 -256 -111t-170 -90l-25 -14q-27 51 -39 74zM582 541q-326 0 -326 -201q0 -141 195 -141q73 -1 143 31t148 102t124 147l21 31q-92 31 -305 31zM403 -8q-164 0 -258 88t-94 259t130 275
t394 105q148 0 277 -21l41 -6v127q0 156 -76 219q-77 64 -221 64t-254 -41q-16 -121 -16 -203l-205 -20q0 139 -27 379l-10 77q82 0 265 18t300 19q117 0 217 -35t152 -102q52 -68 72 -148t20 -190l-10 -416l10 -182q33 -8 84 -8l94 8l-20 -258q-80 8 -187 8l-188 -8v311
q-24 -47 -79 -110q-54 -63 -104 -103t-134 -72q-84 -34 -173 -34z" />
    <glyph glyph-name="acircumflex" unicode="&#xe2;" horiz-adv-x="1339" 
d="M885 1534q-56 -65 -70 -129l-237 135l-238 -135q-16 66 -70 129q190 123 308 240q51 -52 128 -112t128 -93zM582 541q-326 0 -326 -201q0 -141 195 -141q73 -1 143 31t148 102t124 147l21 31q-92 31 -305 31zM403 -8q-164 0 -258 88t-94 259t130 275t394 105
q148 0 277 -21l41 -6v127q0 156 -76 219q-77 64 -221 64t-254 -41q-16 -121 -16 -203l-205 -20q0 139 -27 379l-10 77q82 0 265 18t300 19q117 0 217 -35t152 -102q52 -68 72 -148t20 -190l-10 -416l10 -182q33 -8 84 -8l94 8l-20 -258q-80 8 -187 8l-188 -8v311
q-24 -47 -79 -110q-54 -63 -104 -103t-134 -72q-84 -34 -173 -34z" />
    <glyph glyph-name="atilde" unicode="&#xe3;" horiz-adv-x="1339" 
d="M736 1405q-78 1 -160 65t-121 64q-66 0 -97 -119q-33 14 -65 23l-72 12q14 125 83 194q137 137 307 4q83 -65 120 -65q37 1 60 19t38 79q18 -2 62 -2l63 2q-14 -127 -78 -201t-140 -75zM582 541q-326 0 -326 -201q0 -141 195 -141q73 -1 143 31t148 102t124 147l21 31
q-92 31 -305 31zM403 -8q-164 0 -258 88t-94 259t130 275t394 105q148 0 277 -21l41 -6v127q0 156 -76 219q-77 64 -221 64t-254 -41q-16 -121 -16 -203l-205 -20q0 139 -27 379l-10 77q82 0 265 18t300 19q117 0 217 -35t152 -102q52 -68 72 -148t20 -190l-10 -416l10 -182
q33 -8 84 -8l94 8l-20 -258q-80 8 -187 8l-188 -8v311q-24 -47 -79 -110q-54 -63 -104 -103t-134 -72q-84 -34 -173 -34z" />
    <glyph glyph-name="adieresis" unicode="&#xe4;" horiz-adv-x="1339" 
d="M655 1584q0 54 38 93t92 39q55 0 93 -40t38 -93t-38 -91t-92 -38t-93 38q-38 38 -38 92zM260 1584q0 54 37 93t91 39t93 -40t39 -93t-39 -91t-93 -38t-91 38t-37 92zM582 541q-326 0 -326 -201q0 -141 195 -141q73 -1 143 31t148 102t124 147l21 31q-92 31 -305 31z
M403 -8q-164 0 -258 88t-94 259t130 275t394 105q148 0 277 -21l41 -6v127q0 156 -76 219q-77 64 -221 64t-254 -41q-16 -121 -16 -203l-205 -20q0 139 -27 379l-10 77q82 0 265 18t300 19q117 0 217 -35t152 -102q52 -68 72 -148t20 -190l-10 -416l10 -182q33 -8 84 -8
l94 8l-20 -258q-80 8 -187 8l-188 -8v311q-24 -47 -79 -110q-54 -63 -104 -103t-134 -72q-84 -34 -173 -34z" />
    <glyph glyph-name="aring" unicode="&#xe5;" horiz-adv-x="1339" 
d="M526 1618q0 -84 98 -84t97 84q0 42 -27 66q-28 24 -70 24t-70 -24t-28 -66zM406 1618q0 113 65 169q66 56 154 56q89 0 153 -56t64 -169t-62 -161t-155 -48q-92 0 -156 48q-63 48 -63 161zM582 541q-326 0 -326 -201q0 -141 195 -141q73 -1 143 31t148 102t124 147l21 31
q-92 31 -305 31zM403 -8q-164 0 -258 88t-94 259t130 275t394 105q148 0 277 -21l41 -6v127q0 156 -76 219q-77 64 -221 64t-254 -41q-16 -121 -16 -203l-205 -20q0 139 -27 379l-10 77q82 0 265 18t300 19q117 0 217 -35t152 -102q52 -68 72 -148t20 -190l-10 -416l10 -182
q33 -8 84 -8l94 8l-20 -258q-80 8 -187 8l-188 -8v311q-24 -47 -79 -110q-54 -63 -104 -103t-134 -72q-84 -34 -173 -34z" />
    <glyph glyph-name="ae" unicode="&#xe6;" horiz-adv-x="2048" 
d="M582 541q-326 0 -326 -201q0 -141 195 -141q77 -1 149 31t121 78q110 103 147 171l19 31q-115 31 -305 31zM1474 1067q-152 0 -255 -97q-102 -97 -121 -227l680 19q0 127 -76 216t-228 89zM412 -8q-162 0 -261 83t-99 259t129 280q130 104 394 105q148 0 277 -21l41 -6
v127q0 156 -76 219q-77 64 -221 64t-254 -41q-16 -121 -16 -203l-205 -20q0 139 -27 379l-10 77q82 0 265 18t276 19q253 0 374 -117q29 -27 37 -45l11 -18q92 123 275 173q77 22 163 22q248 0 377 -142t129 -389q0 -111 -13 -192l-2 -29l-882 -10q0 -172 116 -278
q117 -105 276 -105t253 51q93 51 121 88l10 16l127 -73q-16 -47 -57 -103q-42 -55 -93 -95t-148 -73q-97 -32 -220 -32t-225 38t-156 86q-53 47 -96 117t-60 131q-23 -51 -81 -122q-57 -70 -115 -117t-148 -84t-186 -37z" />
    <glyph glyph-name="ccedilla" unicode="&#xe7;" horiz-adv-x="1167" 
d="M555 -336q129 0 129 64q0 29 -31 49t-98 20l-78 -10l-49 53l66 160q-207 51 -325 217t-118 426q0 315 164 509t457 194q59 0 209 -8t235 -7q-57 -311 -57 -518l-205 -20q0 154 -10 221l-2 26q-74 25 -170 25q-221 0 -331 -121t-110 -301q0 -227 127 -340t314 -113
q104 0 189 20t118 42l33 20l78 -155q-86 -86 -268 -123q-73 -14 -125 -14t-97 4l-22 -95q122 0 202 -41t80 -122q0 -166 -270 -166q-139 0 -256 69q21 28 41 78q100 -43 180 -43z" />
    <glyph glyph-name="egrave" unicode="&#xe8;" horiz-adv-x="1206" 
d="M784 1499q-25 -31 -39 -53l-38 -74q-135 85 -342 172q-57 25 -82 33l-27 10q41 47 70 101l47 94q68 -59 198 -150zM632 1067q-152 0 -255 -97q-102 -97 -121 -227l680 19q0 127 -76 216t-228 89zM51 658q0 322 164 504q164 184 420 184t385 -142t129 -389
q0 -114 -10 -192l-4 -29l-883 -10q0 -172 117 -278t277 -105q160 0 254 52t116 87l12 16l127 -73q-16 -47 -57 -103q-41 -55 -92 -95q-50 -40 -148 -73t-215 -32q-274 0 -433 178t-159 500z" />
    <glyph glyph-name="eacute" unicode="&#xe9;" horiz-adv-x="1206" 
d="M504 1499q135 74 252 161q118 87 139 105l20 17q14 -39 48 -94q27 -56 57 -86l12 -15q-104 -35 -254 -111q-149 -75 -172 -90l-24 -14q-27 51 -39 74zM632 1067q-152 0 -255 -97q-102 -97 -121 -227l680 19q0 127 -76 216t-228 89zM51 658q0 322 164 504q164 184 420 184
t385 -142t129 -389q0 -114 -10 -192l-4 -29l-883 -10q0 -172 117 -278t277 -105q160 0 254 52t116 87l12 16l127 -73q-16 -47 -57 -103q-41 -55 -92 -95q-50 -40 -148 -73t-215 -32q-274 0 -433 178t-159 500z" />
    <glyph glyph-name="ecircumflex" unicode="&#xea;" horiz-adv-x="1206" 
d="M645 1540l-237 -135q-16 66 -70 129q190 123 307 240q51 -52 128 -112t128 -93l51 -35q-52 -61 -63 -111l-6 -18zM632 1067q-152 0 -255 -97q-102 -97 -121 -227l680 19q0 127 -76 216t-228 89zM51 658q0 322 164 504q164 184 420 184t385 -142t129 -389q0 -114 -10 -192
l-4 -29l-883 -10q0 -172 117 -278t277 -105q160 0 254 52t116 87l12 16l127 -73q-16 -47 -57 -103q-41 -55 -92 -95q-50 -40 -148 -73t-215 -32q-274 0 -433 178t-159 500z" />
    <glyph glyph-name="edieresis" unicode="&#xeb;" horiz-adv-x="1206" 
d="M713 1584q0 54 38 93t92 39t92 -40t38 -93t-38 -91t-92 -38t-92 38t-38 92zM317 1584q0 54 37 93t91 39q53 0 93 -40t40 -93t-39 -91t-93 -38t-92 38q-37 38 -37 92zM632 1067q-152 0 -255 -97q-102 -97 -121 -227l680 19q0 127 -76 216t-228 89zM51 658q0 322 164 504
q164 184 420 184t385 -142t129 -389q0 -114 -10 -192l-4 -29l-883 -10q0 -172 117 -278t277 -105q160 0 254 52t116 87l12 16l127 -73q-16 -47 -57 -103q-41 -55 -92 -95q-50 -40 -148 -73t-215 -32q-274 0 -433 178t-159 500z" />
    <glyph glyph-name="igrave" unicode="&#xec;" horiz-adv-x="716" 
d="M569 1499q-25 -31 -39 -53l-38 -74q-135 85 -342 172q-57 25 -84 33l-25 10q41 47 70 101l47 94q68 -59 198 -150zM444 596q0 -197 29 -356l193 18q-20 -131 -21 -258q-147 8 -287 8l-286 -8q0 119 -15 221l-6 37q90 -12 193 -18q58 322 -6 809l-187 -17q8 72 8 150
l-8 149q168 -12 307 -12l308 12q-8 -72 -9 -149l9 -150q-88 10 -187 17q-35 -256 -35 -453z" />
    <glyph glyph-name="iacute" unicode="&#xed;" horiz-adv-x="722" 
d="M143 1499q124 68 247 158q124 90 145 108l20 17q39 -108 104 -180l13 -15q-117 -40 -260 -113t-166 -88l-25 -14q-27 51 -39 74zM444 596q0 -197 29 -356l193 18q-20 -131 -21 -258q-147 8 -287 8l-286 -8q0 119 -15 221l-6 37q90 -12 193 -18q58 322 -6 809l-187 -17
q8 72 8 150l-8 149q168 -12 307 -12l308 12q-8 -72 -9 -149l9 -150q-88 10 -187 17q-35 -256 -35 -453z" />
    <glyph glyph-name="icircumflex" unicode="&#xee;" horiz-adv-x="716" 
d="M666 1534q-44 -51 -70 -129l-238 135l-237 -135q-16 66 -70 129q190 123 307 240q51 -52 128 -112t128 -93zM444 596q0 -197 29 -356l193 18q-20 -131 -21 -258q-147 8 -287 8l-286 -8q0 119 -15 221l-6 37q90 -12 193 -18q58 322 -6 809l-187 -17q8 72 8 150l-8 149
q168 -12 307 -12l308 12q-8 -72 -9 -149l9 -150q-88 10 -187 17q-35 -256 -35 -453z" />
    <glyph glyph-name="idieresis" unicode="&#xef;" horiz-adv-x="737" 
d="M426 1584q0 54 38 93t92 39t92 -40t38 -93t-38 -91t-92 -38t-92 38t-38 92zM31 1584q0 54 37 93t91 39t93 -40t39 -93t-39 -91t-93 -38t-91 38t-37 92zM444 596q0 -197 29 -356l193 18q-20 -131 -21 -258q-147 8 -287 8l-286 -8q0 119 -15 221l-6 37q90 -12 193 -18
q58 322 -6 809l-187 -17q8 72 8 150l-8 149q168 -12 307 -12l308 12q-8 -72 -9 -149l9 -150q-88 10 -187 17q-35 -256 -35 -453z" />
    <glyph glyph-name="eth" unicode="&#xf0;" horiz-adv-x="1308" 
d="M662 201q180 -1 300 107t119 335q0 172 -114 297q-115 125 -305 125l-183 -6q-29 -248 -33 -348l342 12q-8 -31 -8 -109l8 -108q-197 12 -344 18q2 -156 35 -313q120 -10 183 -10zM662 0l-355 8l-235 -8q0 119 -15 221l-6 37q84 -12 191 -25q27 152 30 291l-200 -18
q8 31 8 108l-8 109q84 -8 196 -12q-8 176 -30 333l-187 -12q8 72 8 150l-8 149q186 -8 256 -8l273 8q678 0 677 -688q-1 -317 -155 -480t-440 -163z" />
    <glyph glyph-name="ntilde" unicode="&#xf1;" horiz-adv-x="1492" 
d="M894 1405q-77 1 -160 65t-122 64q-68 0 -96 -119q-33 14 -65 23l-72 12q14 125 83 194q136 136 307 4q83 -65 120 -65q37 1 59 19t39 79q18 -2 62 -2l63 2q-14 -127 -78 -201t-140 -75zM1006 930q-53 106 -199 106t-264 -123q-29 -29 -43 -49l-15 -18q-20 -68 -20 -230
t16 -317l6 -59l201 18q-20 -131 -20 -258q-158 8 -297 8l-287 -8q0 102 -14 221l-7 37q104 -14 216 -18q14 222 14 396t-21 351l-6 62l-215 -17q8 72 8 150l-8 149q145 -12 217 -12l213 12q-18 -111 -18 -268q56 93 165 175q48 36 126 65t161 28q176 0 251 -105t75 -259
l-10 -396q0 -103 18 -274l6 -57l207 18q-20 -131 -20 -258q-158 8 -297 8l-297 -8q0 138 -17 221l-4 37q102 -12 211 -18q20 205 21 321q0 263 -53 369z" />
    <glyph glyph-name="ograve" unicode="&#xf2;" 
d="M799 1499q-25 -31 -39 -53l-39 -74q-142 89 -342 172q-57 25 -84 33l-25 10q41 47 70 101l47 94q68 -59 199 -150zM227 643q0 -225 129 -334q130 -109 318 -109t317 110q129 108 129 333q0 176 -115 299q-116 123 -331 123t-331 -123t-116 -299zM51 643q0 315 165 509
t458 194t458 -194q164 -194 164 -509t-171 -489t-451 -174t-452 174q-171 174 -171 489z" />
    <glyph glyph-name="oacute" unicode="&#xf3;" 
d="M590 1499q135 74 252 161q118 87 139 105l20 17q14 -39 48 -94q27 -56 57 -86l12 -15q-104 -35 -254 -111q-149 -75 -172 -90l-24 -14q-27 51 -39 74zM227 643q0 -225 129 -334q130 -109 318 -109t317 110q129 108 129 333q0 176 -115 299q-116 123 -331 123t-331 -123
t-116 -299zM51 643q0 315 165 509t458 194t458 -194q164 -194 164 -509t-171 -489t-451 -174t-452 174q-171 174 -171 489z" />
    <glyph glyph-name="ocircumflex" unicode="&#xf4;" 
d="M674 1540l-238 -135q-16 66 -69 129q190 123 307 240q51 -52 128 -112t128 -93l51 -35q-52 -61 -63 -111l-7 -18zM227 643q0 -225 129 -334q130 -109 318 -109t317 110q129 108 129 333q0 176 -115 299q-116 123 -331 123t-331 -123t-116 -299zM51 643q0 315 165 509
t458 194t458 -194q164 -194 164 -509t-171 -489t-451 -174t-452 174q-171 174 -171 489z" />
    <glyph glyph-name="otilde" unicode="&#xf5;" 
d="M822 1405q-78 1 -160 65t-121 64q-66 0 -97 -119q-33 14 -65 23l-72 12q14 125 83 194q137 137 307 4q83 -65 120 -65q37 1 60 19t38 79q18 -2 62 -2l63 2q-14 -127 -78 -201t-140 -75zM227 643q0 -225 129 -334q130 -109 318 -109t317 110q129 108 129 333
q0 176 -115 299q-116 123 -331 123t-331 -123t-116 -299zM51 643q0 315 165 509t458 194t458 -194q164 -194 164 -509t-171 -489t-451 -174t-452 174q-171 174 -171 489z" />
    <glyph glyph-name="odieresis" unicode="&#xf6;" 
d="M741 1584q0 54 38 93t92 39q55 0 93 -40t38 -93t-38 -91t-92 -38t-93 38q-38 38 -38 92zM346 1584q0 54 37 93t91 39t93 -40t39 -93t-39 -91t-93 -38t-91 38t-37 92zM227 643q0 -225 129 -334q130 -109 318 -109t317 110q129 108 129 333q0 176 -115 299
q-116 123 -331 123t-331 -123t-116 -299zM51 643q0 315 165 509t458 194t458 -194q164 -194 164 -509t-171 -489t-451 -174t-452 174q-171 174 -171 489z" />
    <glyph glyph-name="divide" unicode="&#xf7;" horiz-adv-x="962" 
d="M344 948q0 58 41 100t98 42t99 -41t43 -99q0 -58 -41 -100q-42 -41 -100 -41t-99 40t-41 99zM344 281q0 59 41 100t98 41t99 -41t43 -99q0 -58 -41 -100q-42 -42 -100 -41t-99 41t-41 99zM881 506q-260 20 -377 20t-352 -14l-70 -6q8 31 8 108l-8 109q260 -12 399 -12
l400 12q-8 -31 -9 -109z" />
    <glyph glyph-name="oslash" unicode="&#xf8;" 
d="M227 643q0 -272 195 -383l166 426l127 377q-12 2 -41 2q-215 0 -331 -123t-116 -299zM1120 643q0 117 -54 215t-157 154q-117 -297 -149 -383t-144 -426q18 -2 58 -2q188 1 317 109t129 333zM51 643q0 315 165 509t458 194q70 0 131 -13l63 189q31 -20 105 -47l108 -31
q-31 -78 -73 -187q139 -89 214 -247t74 -367q0 -315 -171 -489t-451 -174q-61 0 -129 10l-66 -201q-31 20 -104 47l-109 31q33 82 76 192q-291 166 -291 584z" />
    <glyph glyph-name="ugrave" unicode="&#xf9;" horiz-adv-x="1486" 
d="M864 1499q-25 -31 -39 -53l-39 -74q-142 89 -342 172q-57 25 -84 33l-24 10q41 47 70 101l47 94q68 -59 198 -150zM686 221q156 0 268 141t113 357q0 150 -18 330q-125 -8 -215 -17l8 150q0 78 -8 149l227 -12q74 0 231 12q-41 -287 -41 -545t27 -528l88 -8q55 0 90 8
l-20 -258l-193 8q-119 0 -182 -8v270q-22 -43 -72 -101q-49 -58 -94 -93t-122 -66t-159 -30q-369 0 -368 385l18 366q0 137 -18 318q-90 -4 -215 -17l8 150q0 77 -8 149l223 -12q115 0 235 12l-14 -131q-37 -399 -39 -643q0 -186 67 -261t183 -75z" />
    <glyph glyph-name="uacute" unicode="&#xfa;" horiz-adv-x="1486" 
d="M952 1782q32 -88 117 -195q-104 -35 -254 -111q-149 -75 -172 -90l-25 -14q-27 51 -38 74l-39 53q135 74 252 161q118 87 139 105zM686 221q156 0 268 141t113 357q0 150 -18 330q-125 -8 -215 -17l8 150q0 78 -8 149l227 -12q74 0 231 12q-41 -287 -41 -545t27 -528
l88 -8q55 0 90 8l-20 -258l-193 8q-119 0 -182 -8v270q-22 -43 -72 -101q-49 -58 -94 -93t-122 -66t-159 -30q-369 0 -368 385l18 366q0 137 -18 318q-90 -4 -215 -17l8 150q0 77 -8 149l223 -12q115 0 235 12l-14 -131q-37 -399 -39 -643q0 -186 67 -261t183 -75z" />
    <glyph glyph-name="ucircumflex" unicode="&#xfb;" horiz-adv-x="1486" 
d="M1051 1534q-44 -51 -70 -129l-238 135l-237 -135q-16 66 -70 129q190 123 307 240q51 -52 128 -112t128 -93zM686 221q156 0 268 141t113 357q0 150 -18 330q-125 -8 -215 -17l8 150q0 78 -8 149l227 -12q74 0 231 12q-41 -287 -41 -545t27 -528l88 -8q55 0 90 8
l-20 -258l-193 8q-119 0 -182 -8v270q-22 -43 -72 -101q-49 -58 -94 -93t-122 -66t-159 -30q-369 0 -368 385l18 366q0 137 -18 318q-90 -4 -215 -17l8 150q0 77 -8 149l223 -12q115 0 235 12l-14 -131q-37 -399 -39 -643q0 -186 67 -261t183 -75z" />
    <glyph glyph-name="udieresis" unicode="&#xfc;" horiz-adv-x="1486" 
d="M811 1584q0 54 38 93t92 39t92 -40t38 -93t-38 -91t-92 -38t-92 38t-38 92zM416 1584q0 54 37 93t91 39t93 -40t39 -93t-39 -91t-93 -38t-91 38t-37 92zM686 221q156 0 268 141t113 357q0 150 -18 330q-125 -8 -215 -17l8 150q0 78 -8 149l227 -12q74 0 231 12
q-41 -287 -41 -545t27 -528l88 -8q55 0 90 8l-20 -258l-193 8q-119 0 -182 -8v270q-22 -43 -72 -101q-49 -58 -94 -93t-122 -66t-159 -30q-369 0 -368 385l18 366q0 137 -18 318q-90 -4 -215 -17l8 150q0 77 -8 149l223 -12q115 0 235 12l-14 -131q-37 -399 -39 -643
q0 -186 67 -261t183 -75z" />
    <glyph glyph-name="yacute" unicode="&#xfd;" horiz-adv-x="1441" 
d="M610 1499q124 68 247 158q124 90 144 108l21 17q39 -108 104 -180l13 -15q-117 -40 -260 -113t-166 -88l-25 -14q-27 51 -39 74zM840 442q0 -111 14 -200l207 16q-20 -131 -21 -258q-180 8 -319 8l-320 -8q0 130 -16 221l-4 37q100 -10 205 -16q16 82 16 200
q0 51 -383 607l-199 -17q8 72 9 150l-9 149q168 -12 308 -12l307 12q-8 -72 -8 -149l8 -150q-72 8 -156 15q139 -276 242 -420q98 154 237 420l-151 -15q8 72 8 150l-8 149q168 -12 307 -12l307 12q-8 -72 -8 -149l8 -150q-96 10 -200 17q-381 -561 -381 -607z" />
    <glyph glyph-name="thorn" unicode="&#xfe;" horiz-adv-x="1247" 
d="M702 549q289 0 289 180q0 70 -62 120t-207 50t-226 -16l-31 -6q-20 -109 -21 -306q127 -22 258 -22zM711 1126q247 0 375 -100t128 -295t-124 -277t-379 -83q-115 0 -222 22l-38 8q8 -82 22 -161l213 18q-20 -131 -20 -258q-168 8 -308 8l-286 -8q0 119 -15 221l-6 37
q90 -12 193 -18q59 325 -8 821l-185 -29q8 72 8 150l-8 149q176 -8 246 -8l190 6l-10 -223q117 20 234 20z" />
    <glyph glyph-name="ydieresis" unicode="&#xff;" horiz-adv-x="1441" 
d="M788 1584q0 54 38 93t92 39t93 -40q38 -40 38 -93t-38 -91t-92 -38t-93 38q-38 38 -38 92zM393 1584q0 54 37 93t91 39t93 -40t39 -93t-39 -91t-93 -38t-91 38t-37 92zM840 442q0 -111 14 -200l207 16q-20 -131 -21 -258q-180 8 -319 8l-320 -8q0 130 -16 221l-4 37
q100 -10 205 -16q16 82 16 200q0 51 -383 607l-199 -17q8 72 9 150l-9 149q168 -12 308 -12l307 12q-8 -72 -8 -149l8 -150q-72 8 -156 15q139 -276 242 -420q98 154 237 420l-151 -15q8 72 8 150l-8 149q168 -12 307 -12l307 12q-8 -72 -8 -149l8 -150q-96 10 -200 17
q-381 -561 -381 -607z" />
    <glyph glyph-name="dotlessi" unicode="&#x131;" horiz-adv-x="716" 
d="M444 596q0 -197 29 -356l193 18q-20 -131 -21 -258q-147 8 -287 8l-286 -8q0 119 -15 221l-6 37q90 -12 193 -18q58 322 -6 809l-187 -17q8 72 8 150l-8 149q168 -12 307 -12l308 12q-8 -72 -9 -149l9 -150q-88 10 -187 17q-35 -256 -35 -453z" />
    <glyph glyph-name="Lslash" unicode="&#x141;" horiz-adv-x="1138" 
d="M1108 0q-279 20 -568 20t-419 -16l-49 -4q0 119 -15 221l-6 37q78 -10 191 -22q16 102 26 258q-133 -61 -174 -91q-6 33 -37 103l-49 98q102 20 260 84q-8 193 -30 361l-187 -17q8 72 8 150l-8 149q168 -12 307 -12l308 12q-8 -72 -9 -149l9 -150q-88 10 -187 17
q-18 -141 -28 -304q114 48 211 109l30 20q14 -72 45 -131t41 -69q-231 -76 -323 -125q0 -217 22 -336q221 -20 379 -20q12 117 12 253l205 -20q0 -177 25 -360z" />
    <glyph glyph-name="lslash" unicode="&#x142;" horiz-adv-x="1138" 
d="M1108 0q-279 20 -568 20t-419 -16l-49 -4q0 119 -15 221l-6 37q78 -10 191 -22q16 102 26 258q-133 -61 -174 -91q-6 33 -37 103l-49 98q102 20 260 84q-8 193 -30 361l-187 -17q8 72 8 150l-8 149q168 -12 307 -12l308 12q-8 -72 -9 -149l9 -150q-88 10 -187 17
q-18 -141 -28 -304q114 48 211 109l30 20q14 -72 45 -131t41 -69q-231 -76 -323 -125q0 -217 22 -336q221 -20 379 -20q12 117 12 253l205 -20q0 -177 25 -360z" />
    <glyph glyph-name="OE" unicode="&#x152;" horiz-adv-x="1961" 
d="M227 643q0 -225 129 -334q130 -109 318 -109t317 110q129 108 129 333q0 176 -115 299q-116 123 -331 123t-331 -123t-116 -299zM51 643q0 315 165 509t458 194q78 0 155 -17q248 -10 519 -10l563 12q-43 -229 -43 -436l-205 -21q0 115 -16 207l-7 23q-177 0 -387 -21
l-67 -6q12 -18 30 -50t50 -137q31 -105 30 -216q147 -27 373 -27h164q8 -33 8 -74l-8 -73h-164q-236 0 -389 -29q-21 -127 -84 -229l-20 -27q238 -27 464 -27q23 39 23 177l205 -21q0 -164 24 -299l11 -45q-258 20 -555 20l-476 -14q-96 -27 -198 -26q-281 0 -452 174
t-171 489z" />
    <glyph glyph-name="oe" unicode="&#x153;" horiz-adv-x="2250" 
d="M1676 1067q-152 0 -254 -97t-122 -227l680 19q0 127 -75 216q-77 89 -229 89zM227 643q0 -225 129 -334q130 -109 318 -109t317 110q129 108 129 333q0 176 -115 299q-116 123 -331 123t-331 -123t-116 -299zM51 643q0 315 165 509t458 194q109 0 202 -29t148 -69
q109 -79 152 -150l14 -29q6 9 17 29t55 67t95 84q52 37 141 67t190 30q248 0 376 -142t129 -389q0 -114 -10 -192l-4 -29l-883 -10q0 -172 117 -278t275 -105q200 0 332 100q30 23 40 39l13 16l127 -73q-15 -45 -57 -101q-42 -57 -93 -97t-148 -73q-96 -32 -208 -32t-204 26
t-143 66q-112 84 -139 143l-14 27q-62 -104 -169 -171q-54 -34 -148 -63t-203 -28q-281 0 -452 174t-171 489z" />
    <glyph glyph-name="Scaron" unicode="&#x160;" horiz-adv-x="1138" 
d="M315 1655q25 31 37 51l27 57l237 -135l238 135q12 -35 27 -57l37 -51q-184 -123 -302 -240q-89 89 -251 207zM862 287q0 62 -69 90q-44 18 -199 55q-156 38 -239 73q-83 34 -155 85q-148 104 -149 319t141 326t392 111q68 0 242 -8t261 -7q-57 -311 -57 -518l-205 -20
q0 156 -10 231l-2 29q-45 29 -233 29t-267 -52q-77 -51 -77 -133t74 -137q74 -54 314 -112q238 -58 344 -137t105 -221q0 -142 -121 -232t-371 -89q-250 0 -424 91q-42 22 -61 36l-18 15q14 127 14 292l205 -20l8 -160q43 -20 130 -42t167 -21q260 0 260 127z" />
    <glyph glyph-name="scaron" unicode="&#x161;" horiz-adv-x="1138" 
d="M315 1655q25 31 37 51l27 57l237 -135l238 135q12 -35 27 -57l37 -51q-184 -123 -302 -240q-89 89 -251 207zM862 287q0 62 -69 90q-44 18 -199 55q-156 38 -239 73q-83 34 -155 85q-148 104 -149 319t141 326t392 111q68 0 242 -8t261 -7q-57 -311 -57 -518l-205 -20
q0 156 -10 231l-2 29q-45 29 -233 29t-267 -52q-77 -51 -77 -133t74 -137q74 -54 314 -112q238 -58 344 -137t105 -221q0 -142 -121 -232t-371 -89q-250 0 -424 91q-42 22 -61 36l-18 15q14 127 14 292l205 -20l8 -160q43 -20 130 -42t167 -21q260 0 260 127z" />
    <glyph glyph-name="Ydieresis" unicode="&#x178;" horiz-adv-x="1441" 
d="M788 1584q0 54 38 93t92 39t93 -40q38 -40 38 -93t-38 -91t-92 -38t-93 38q-38 38 -38 92zM393 1584q0 54 37 93t91 39t93 -40t39 -93t-39 -91t-93 -38t-91 38t-37 92zM840 442q0 -111 14 -200l207 16q-20 -131 -21 -258q-180 8 -319 8l-320 -8q0 130 -16 221l-4 37
q100 -10 205 -16q16 82 16 200q0 51 -383 607l-199 -17q8 72 9 150l-9 149q168 -12 308 -12l307 12q-8 -72 -8 -149l8 -150q-72 8 -156 15q139 -276 242 -420q98 154 237 420l-151 -15q8 72 8 150l-8 149q168 -12 307 -12l307 12q-8 -72 -8 -149l8 -150q-96 10 -200 17
q-381 -561 -381 -607z" />
    <glyph glyph-name="Zcaron" unicode="&#x17d;" horiz-adv-x="1245" 
d="M317 1655q25 31 37 51l27 57l237 -135l238 135q12 -35 27 -57l37 -51q-184 -123 -302 -240q-97 97 -251 207zM868 1090q-121 12 -255 12t-248 -12l-41 -7q-18 -145 -19 -229l-205 20q0 170 -37 383l-12 74q336 -10 572 -10l551 8l20 -278q-384 -309 -488 -414
q-182 -185 -313 -354l-49 -62q158 -14 288 -14t253 14l35 4q18 121 18 230l205 -21q0 -220 37 -377l14 -57q-291 8 -567 8l-535 -8l-20 258q388 364 576 577q95 108 159 181z" />
    <glyph glyph-name="zcaron" unicode="&#x17e;" horiz-adv-x="1245" 
d="M322 1655q25 31 36 51l27 57l238 -135l237 135q12 -35 27 -57l37 -51q-184 -123 -301 -240q-94 94 -252 207zM868 1090q-121 12 -255 12t-248 -12l-41 -7q-18 -145 -19 -229l-205 20q0 170 -37 383l-12 74q336 -10 572 -10l551 8l20 -278q-384 -309 -488 -414
q-182 -185 -313 -354l-49 -62q158 -14 288 -14t253 14l35 4q18 121 18 230l205 -21q0 -220 37 -377l14 -57q-291 8 -567 8l-535 -8l-20 258q388 364 576 577q95 108 159 181z" />
    <glyph glyph-name="florin" unicode="&#x192;" horiz-adv-x="1302" 
d="M526 504v4l-323 -16q8 31 8 108l-8 109q190 -8 342 -11q26 315 81 429q24 50 60 101q73 99 219 97l324 6q-20 -150 -21 -379l-182 -16q0 96 -14 145q-12 10 -62 11q-82 0 -120 -98t-58 -298l373 13q-8 -31 -8 -109l8 -108q-233 14 -391 18v-6q-2 -20 -6 -64
q-25 -297 -82 -426q-102 -238 -365 -237q-72 0 -130 15t-81 30l-20 14q4 106 -11 273l183 16q0 -89 12 -131l2 -14q12 -10 57 -10t83 18q38 19 70 97t43 227t17 192z" />
    <glyph glyph-name="circumflex" unicode="&#x2c6;" horiz-adv-x="1011" 
d="M506 1540l-238 -135q-16 66 -69 129q190 123 307 240q51 -52 128 -112t128 -93l51 -35q-52 -61 -63 -111l-7 -18z" />
    <glyph glyph-name="caron" unicode="&#x2c7;" horiz-adv-x="921" 
d="M160 1655q25 31 37 51l26 57l238 -135l237 135q12 -35 27 -57l37 -51q-184 -123 -301 -240q-94 94 -252 207z" />
    <glyph glyph-name="breve" unicode="&#x2d8;" horiz-adv-x="757" 
d="M369 1450q-70 0 -127 28t-109 87t-76 127l-8 26q62 18 107 49q36 -109 131 -153q39 -18 95 -18t108 42q52 43 71 86l19 43q29 -23 108 -49q-5 -27 -37 -83q-31 -56 -63 -92q-32 -37 -91 -65q-58 -28 -128 -28z" />
    <glyph glyph-name="dotaccent" unicode="&#x2d9;" horiz-adv-x="374" 
d="M53 1583q0 59 41 100q40 41 98 41t100 -41t42 -99t-41 -99t-99 -41t-100 40q-41 40 -41 99z" />
    <glyph glyph-name="ring" unicode="&#x2da;" horiz-adv-x="638" 
d="M225 1618q-1 -84 97 -84t98 84q0 42 -27 66t-69 24t-71 -24q-28 -24 -28 -66zM104 1618q0 113 66 169t154 56t152 -56t65 -169q-1 -113 -63 -161t-154 -48t-156 48t-64 161z" />
    <glyph glyph-name="ogonek" unicode="&#x2db;" horiz-adv-x="1705" 
d="M606 -412q-115 0 -176 58t-61 153q0 166 243 289l187 -20q-106 -34 -175 -90t-69 -123q0 -94 107 -95q78 0 143 35q-14 -39 -14 -86l4 -76q-74 -45 -189 -45z" />
    <glyph glyph-name="tilde" unicode="&#x2dc;" horiz-adv-x="1556" 
d="M867 1405q-77 1 -159 65t-122 64q-66 0 -97 -119q-33 14 -65 23l-72 12q14 125 83 194q137 137 307 4q83 -65 120 -65q37 1 60 19t39 79q18 -2 61 -2l63 2q-13 -127 -77 -201t-141 -75z" />
    <glyph glyph-name="hungarumlaut" unicode="&#x2dd;" horiz-adv-x="997" 
d="M98 1516q155 143 302 351q17 24 20 25q0 -10 72 -77q49 -57 90 -78q-31 -14 -167 -130t-192 -175l-18 -21q-39 43 -58 64zM432 1516q155 143 302 351q17 24 20 25q0 -10 71 -77q49 -57 90 -78q-31 -14 -167 -130t-191 -175l-18 -21q-39 43 -58 64z" />
    <glyph glyph-name="endash" unicode="&#x2013;" horiz-adv-x="1560" 
d="M201 723q434 -12 573 -12l574 12q-8 -31 -9 -109l9 -108q-434 20 -574 20l-573 -20q8 31 8 108z" />
    <glyph glyph-name="emdash" unicode="&#x2014;" horiz-adv-x="1757" 
d="M78 723q659 -12 799 -12l798 12q-8 -31 -8 -109l8 -108q-659 20 -798 20l-799 -20q8 31 8 108z" />
    <glyph glyph-name="quoteleft" unicode="&#x2018;" horiz-adv-x="382" 
d="M193 1331q61 0 100 -35t39 -99t-37 -105t-101 -41t-104 43q-39 43 -39 120q0 205 199 281l33 -59q-88 -37 -111 -107q10 2 21 2z" />
    <glyph glyph-name="quoteright" unicode="&#x2019;" horiz-adv-x="382" 
d="M190 1071q-61 0 -100 35t-39 99q0 63 37 105q38 42 102 42t103 -43t39 -121q0 -205 -199 -281l-33 60q88 37 111 106q-10 -2 -21 -2z" />
    <glyph glyph-name="quotesinglbase" unicode="&#x201a;" horiz-adv-x="382" 
d="M190 -12q-61 0 -100 35t-39 99t37 105q38 41 102 41t103 -43t39 -121q0 -205 -199 -280l-33 59q88 37 111 107q-10 -2 -21 -2z" />
    <glyph glyph-name="quotedblleft" unicode="&#x201c;" horiz-adv-x="745" 
d="M555 1331q61 0 100 -35t39 -99t-37 -105t-101 -41t-104 43q-38 43 -38 120q0 205 198 281l33 -59q-88 -37 -110 -107q10 2 20 2zM193 1331q61 0 100 -35t39 -99t-37 -105t-101 -41t-104 43q-39 43 -39 120q0 205 199 281l33 -59q-88 -37 -111 -107q10 2 21 2z" />
    <glyph glyph-name="quotedblright" unicode="&#x201d;" horiz-adv-x="745" 
d="M190 1071q-61 0 -100 35t-39 99q0 63 37 105q38 42 102 42t103 -43t39 -121q0 -205 -199 -281l-33 60q88 37 111 106q-10 -2 -21 -2zM553 1071q-61 0 -100 35t-39 99q0 63 37 105t101 42t104 -43q38 -43 38 -121q0 -205 -198 -281l-33 60q88 37 110 106q-10 -2 -20 -2z
" />
    <glyph glyph-name="quotedblbase" unicode="&#x201e;" horiz-adv-x="745" 
d="M553 -12q-61 0 -100 35t-39 99t37 105t101 41t104 -43q38 -43 38 -121q0 -205 -198 -280l-33 59q88 37 110 107q-10 -2 -20 -2zM190 -12q-61 0 -100 35t-39 99t37 105q38 41 102 41t103 -43t39 -121q0 -205 -199 -280l-33 59q88 37 111 107q-10 -2 -21 -2z" />
    <glyph glyph-name="dagger" unicode="&#x2020;" horiz-adv-x="892" 
d="M57 1022q152 -8 285 -12l-18 321q59 -8 122 -8l123 8q-14 -176 -18 -321l285 12q-8 -31 -9 -109l9 -108q-154 12 -287 18l20 -704q-45 8 -123 8l-122 -8q14 479 18 704l-285 -18q8 31 9 108z" />
    <glyph glyph-name="daggerdbl" unicode="&#x2021;" horiz-adv-x="892" 
d="M330 747q0 10 12 76l-285 -18q8 31 9 108l-9 109q160 -8 293 -12l-26 321q59 -8 122 -8l123 8q-14 -176 -18 -321l285 12q-8 -31 -9 -109l9 -108q-147 10 -279 16q8 -57 8 -80l-16 -100l246 12q-8 -31 -9 -108l9 -109q-131 12 -254 19l28 -336q-45 8 -123 8l-122 -8
q18 160 26 336l-252 -19q8 31 8 109l-8 108q125 -8 246 -12q-14 96 -14 106z" />
    <glyph glyph-name="bullet" unicode="&#x2022;" horiz-adv-x="694" 
d="M106 621q0 100 72 172q72 71 172 71t172 -72t72 -171q0 -100 -72 -172t-172 -72t-172 72t-72 172z" />
    <glyph glyph-name="ellipsis" unicode="&#x2026;" horiz-adv-x="1148" 
d="M817 128q0 58 41 99t99 41q57 0 99 -42t42 -99t-41 -98t-101 -41t-99 41q-40 41 -40 99zM434 128q0 58 41 99t98 41t99 -42t43 -99q0 -57 -41 -98q-42 -41 -100 -41t-99 41t-41 99zM51 128q0 58 41 99t99 41q57 0 99 -42t42 -99t-41 -98t-101 -41t-99 41q-40 41 -40 99z
" />
    <glyph glyph-name="perthousand" unicode="&#x2030;" horiz-adv-x="2064" 
d="M1058 477q-66 0 -100 -46q-36 -46 -36 -124t38 -124t98 -46q62 0 102 47t40 126t-38 123t-104 44zM782 309q0 352 277 353q272 0 272 -353q0 -164 -73 -247q-74 -82 -200 -82t-201 82t-75 247zM358 1171q-66 1 -102 -45t-35 -124q0 -78 38 -124t99 -46q62 0 102 46
q40 48 40 127t-38 123t-104 43zM82 1004q0 352 274 352t275 -352q0 -164 -73 -247t-200 -83q-128 0 -202 83t-74 247zM96 -18q558 686 961 1296l69 102l154 -94q-334 -406 -539 -694l-483 -703zM1710 477q-66 0 -102 -46t-35 -124q0 -78 38 -124t99 -46t101 47t40 126
t-37 123q-38 44 -104 44zM1434 309q0 352 276 353q272 0 272 -353q0 -164 -72 -247q-72 -82 -200 -82q-127 0 -202 82q-74 83 -74 247z" />
    <glyph glyph-name="guilsinglleft" unicode="&#x2039;" horiz-adv-x="630" 
d="M430 203l-430 444l430 445q60 -64 131 -109l25 -16l-359 -320l359 -319q-88 -53 -156 -125z" />
    <glyph glyph-name="guilsinglright" unicode="&#x203a;" horiz-adv-x="620" 
d="M621 647l-431 -444q-66 71 -133 108l-22 17l358 319l-358 320q88 53 155 125z" />
    <glyph glyph-name="fraction" unicode="&#x2044;" horiz-adv-x="903" 
d="M82 -133q272 688 321 819l281 836q31 -20 104 -47l109 -31q-272 -688 -322 -819l-280 -836q-31 20 -105 47z" />
    <glyph glyph-name="foursuperior" unicode="&#x2074;" horiz-adv-x="595" 
d="M352 1020l-10 178q-104 -119 -141 -180zM473 1020h98q4 -35 4 -53l-4 -54h-98l8 -84l99 9q-8 -59 -9 -117q-90 4 -161 4l-160 -4l-10 117q51 -8 98 -9q8 45 10 84l-268 -12l-43 127q145 141 291 334l170 -31q-25 -176 -25 -311z" />
    <glyph glyph-name="Euro" unicode="&#x20ac;" horiz-adv-x="1400" 
d="M854 1325q59 0 209 -7t235 -7q-57 -225 -57 -457l-205 -20l-12 186q-74 25 -170 24q-178 0 -283 -71q-104 -72 -141 -195l584 13q-8 -35 -8 -84l8 -84q-457 20 -600 20q0 -68 8 -115l592 13q-8 -35 -8 -84l8 -84q-360 14 -543 18q57 -100 159 -150q102 -51 214 -51
q114 0 199 20t118 42l33 20l78 -155q-85 -85 -267 -123q-73 -14 -151 -14q-217 0 -371 105t-215 302l-166 -14q8 35 9 84l-9 84q61 -6 138 -9q-6 49 -7 103l-131 -12q8 35 9 84l-9 84q63 -6 140 -9q37 254 195 399q159 144 417 144z" />
    <glyph glyph-name="trademark" unicode="&#x2122;" horiz-adv-x="1505" 
d="M764 842q8 80 8 172t-10 147l-4 23l-96 -8q4 51 4 81l-4 68q111 -4 176 -4l141 4q23 -190 88 -303q59 109 88 303q80 -4 145 -4l173 4q-2 -41 -3 -68l3 -81q-43 8 -97 8q-14 -80 -14 -191l8 -151l94 20q-8 -80 -8 -141q-82 4 -147 4l-148 -4l-8 141l94 -20q8 79 8 151
l-8 183l-123 -281h-114q-37 106 -123 281q-8 -72 -8 -183l8 -151l94 20q-8 -80 -8 -141q-92 4 -148 4l-147 -4l-8 141zM242 842q16 39 16 144t-12 177l-6 25l-90 -8q-6 -59 -7 -127l-108 6l-19 266q133 -10 299 -10l299 10q-18 -170 -18 -266l-109 -6l-6 127q-27 8 -90 8
q-16 -84 -16 -190t14 -156l125 20q-8 -80 -8 -141q-127 4 -191 4l-190 -4l-8 141z" />
    <glyph glyph-name="minus" unicode="&#x2212;" horiz-adv-x="983" 
d="M901 506q-270 20 -383 20t-364 -14l-72 -6q8 31 8 108l-8 109q270 -12 410 -12l409 12q-8 -31 -8 -109z" />
    <glyph glyph-name="fi" unicode="&#xfb01;" horiz-adv-x="1925" 
d="M1481 596q0 196 -35 453l-186 -17q8 72 8 150l-8 149q168 -12 307 -12l307 12q-8 -72 -8 -149l8 -150q-88 10 -186 17q-35 -256 -35 -453t28 -356l193 18q-20 -131 -21 -258q-147 8 -286 8l-287 -8q0 102 -14 221l-6 37q90 -12 192 -18q29 160 29 356zM936 647h164
q8 -33 8 -74l-8 -73h-164q-297 0 -487 -51q4 -104 24 -209l234 18q-20 -131 -21 -258q-188 8 -328 8l-286 -8q0 119 -15 221l-6 37q90 -12 193 -18q28 160 28 342t-34 471l-187 -21q8 72 8 150l-8 149q266 -12 563 -12l564 12q-43 -229 -43 -436l-205 -21q0 129 -17 207
l-6 23q-141 0 -426 -27q-27 -207 -35 -379q188 -51 490 -51z" />
    <glyph glyph-name="fl" unicode="&#xfb02;" horiz-adv-x="2347" 
d="M1481 600q0 192 -35 449l-186 -17q8 72 8 150l-8 149q168 -12 307 -12l307 12q-8 -72 -8 -149l8 -150q-88 10 -186 17q-35 -256 -35 -457t33 -379q221 -20 378 -20q12 117 13 253l204 -20q0 -154 25 -360l10 -66q-279 20 -568 20t-419 -16l-49 -4q0 102 -14 221l-6 37
q78 -10 190 -22q31 172 31 364zM936 647h164q8 -33 8 -74l-8 -73h-164q-297 0 -487 -51q4 -104 24 -209l234 18q-20 -131 -21 -258q-188 8 -328 8l-286 -8q0 119 -15 221l-6 37q90 -12 193 -18q28 160 28 342t-34 471l-187 -21q8 72 8 150l-8 149q266 -12 563 -12l564 12
q-43 -229 -43 -436l-205 -21q0 129 -17 207l-6 23q-141 0 -426 -27q-27 -207 -35 -379q188 -51 490 -51z" />
    <glyph glyph-name="pictograma1" horiz-adv-x="1032" 
d="M696 635l88 -326l-264 213l-266 -213l104 326l-256 141l312 37l94 297l127 -291l293 25z" />
    <glyph glyph-name="pictograma2" horiz-adv-x="1112" 
d="M991 639l-256 -55l88 -271l-211 158l-100 -262l-70 260l-235 -119l162 238l-267 63l260 70l-157 237l239 -131l109 273l61 -273l238 131l-121 -233z" />
    <glyph glyph-name="pictograma3" horiz-adv-x="1155" 
d="M958 403l-282 109l-60 -233l-81 233l-252 -197l127 258l-308 45l273 72l-264 215l319 -74l-55 236l192 -240l154 226l-21 -222l263 95l-220 -228l306 -36l-285 -78z" />
    </font>
</defs>
</svg>
