<?xml version="1.0" standalone="no"?>
<!DOCTYPE svg PUBLIC "-//W3C//DTD SVG 1.1//EN" "http://www.w3.org/Graphics/SVG/1.1/DTD/svg11.dtd" >
<svg xmlns="http://www.w3.org/2000/svg">
<metadata>
Created by FontPrep 20130207 at Thu Jun 19 23:03:45 2014
 By Diego Escares
Copyright (c) 2010 by Alejandro Scaff. Editada por Javier Quintana para el catalogo del proyecto academico www.esostiposdelautem.cl
</metadata>
<defs>
<font id="bc04ad6274dca161b817a26bc1494a55" horiz-adv-x='1024' >
  <font-face 
    font-family="dfdNuevaEstadio"
    font-weight="400"
    font-stretch="normal"
    units-per-em="2048"
    panose-1="2 0 0 0 0 0 0 0 0 0"
    ascent="1536"
    descent="-512"
    x-height="1024"
    cap-height="1434"
    bbox="-31 -410 2107.01 1835"
    underline-thickness="102"
    underline-position="-102"
    unicode-range="U+0020-FB06"
  />
<missing-glyph horiz-adv-x="450" 
 />
    <glyph glyph-name="fi" unicode="fi" 
d="M778 0v819h-225v-942q0 -92 -56 -148t-149 -57h-328v205h82q82 0 82 82v860h-102v205h102v205q0 92 56 148t149 57h696q61 0 62 -62v-82q0 -61 -62 -61h-532v-205h389q92 0 148 -56t57 -149v-819h-369z" />
    <glyph glyph-name="fl" unicode="fl" horiz-adv-x="1331" 
d="M82 819v205h102v205q0 92 56 148t149 57h574q92 0 148 -56t56 -149v-942q0 -82 82 -82h41v-205h-286q-92 0 -149 56q-56 56 -56 149v1024h-246v-205h164v-205h-164v-942q0 -92 -56 -148t-149 -57h-328v205h82q82 0 82 82v860h-102z" />
    <glyph glyph-name="s_t" unicode="st" horiz-adv-x="1742" 
d="M739 0h-667v205h420q-47 70 -169 210t-197 245t-75 182q0 78 55 130t150 52h831q1 92 57 148t148 57h164v-205h246v-205h-246v-532q0 -82 82 -82h123v-205h-369q-92 0 -148 56t-57 149v614h-583q47 -68 169 -209q123 -141 197 -246t74 -182t-55 -130q-56 -52 -150 -52z
" />
    <glyph glyph-name="f_t" unicode="ft" horiz-adv-x="1454" 
d="M553 819v-942q0 -92 -56 -148t-149 -57h-328v205h82q82 0 82 82v860h-102v205h102v205q0 92 56 148t149 57h410v-205h-246v-205h246q0 92 56 148t149 57h163v-205h246v-205h-246v-532q0 -82 82 -82h123v-205h-368q-92 0 -149 56q-56 56 -56 149v614h-246z" />
    <glyph glyph-name=".notdef" horiz-adv-x="450" 
 />
    <glyph glyph-name=".null" horiz-adv-x="0" 
 />
    <glyph glyph-name="nonmarkingreturn" horiz-adv-x="681" 
 />
    <glyph glyph-name="space" unicode=" " horiz-adv-x="450" 
 />
    <glyph glyph-name="exclam" unicode="!" horiz-adv-x="471" 
d="M82 61v123q0 61 61 62h185q61 0 61 -62v-123q0 -61 -61 -61h-185q-61 0 -61 61zM82 471v963h184q123 0 123 -123v-840q0 -61 -61 -61h-185q-61 0 -61 61z" />
    <glyph glyph-name="quotedbl" unicode="&#x22;" horiz-adv-x="737" 
d="M532 1065h-122v307q0 61 61 62h123q61 0 61 -62v-184q0 -53 -35 -88t-88 -35zM205 1065h-123v307q0 61 61 62h123q61 0 62 -62v-184q0 -53 -35 -88t-88 -35z" />
    <glyph glyph-name="numbersign" unicode="#" horiz-adv-x="1146" 
d="M492 666v-164h163v164h-163zM102 727v72q0 61 62 61h133v144q0 61 61 61h72q61 0 62 -61v-144h163v144q0 61 62 61h71q61 0 62 -61v-144h133q61 0 61 -61v-72q0 -61 -61 -61h-133v-164h133q61 0 61 -62v-71q0 -61 -61 -62h-133v-143q0 -61 -62 -62h-71q-61 0 -62 62v143
h-163v-143q0 -61 -62 -62h-72q-61 0 -61 62v143h-133q-61 0 -62 62v71q0 61 62 62h133v164h-133q-62 0 -62 61z" />
    <glyph glyph-name="dollar" unicode="$" horiz-adv-x="1120" 
d="M997 1434v-226h-462l419 -776q126 -253 8 -375q-56 -57 -169 -57h-138v-143q0 -61 -61 -62h-123q-61 0 -61 62v143h-287v225h477l-436 772q-62 123 -62 223t60 157q60 56 155 57h93v143q0 61 61 61h123q61 0 61 -61v-143h342z" />
    <glyph glyph-name="percent" unicode="%" horiz-adv-x="1544" 
d="M1073 143h144v389h-144v-389zM1442 567v-458q0 -51 -29 -80t-80 -29h-377q-48 0 -78 29t-30 80v458q0 49 30 79t78 30h377q51 0 80 -29t29 -80zM1194 1454h104q41 0 41 -27q0 -12 -16 -36l-893 -1375q-27 -37 -84 -36h-102q-33 0 -33 28q0 19 12 33l895 1380q25 33 76 33
zM328 901h143v389h-143v-389zM696 1325v-459q0 -51 -28 -80t-80 -28h-377q-49 0 -79 28t-30 80v459q0 49 30 79t79 30h377q52 0 80 -29t28 -80z" />
    <glyph glyph-name="ampersand" unicode="&#x26;" horiz-adv-x="1167" 
d="M451 225h204v471h-204v-471zM451 922h675v-226h-163v-389q0 -82 81 -82h82v-225h-266q-92 0 -148 53t-57 142v-195h-368q-92 0 -149 56q-56 56 -56 149v393q0 92 56 148t149 57v12q-92 0 -149 56q-56 56 -56 149v209q0 92 56 148t149 57h676v-226h-512v-286z" />
    <glyph glyph-name="quotesingle" unicode="'" horiz-adv-x="409" 
d="M205 1065h-123v307q0 61 61 62h123q61 0 62 -62v-184q0 -53 -35 -88t-88 -35z" />
    <glyph glyph-name="parenleft" unicode="(" horiz-adv-x="737" 
d="M635 -358q0 -52 -51 -52t-130 62q-210 166 -311 505q-61 207 -61 457t61 458t147 325q85 117 164 179t130 62t51 -51v-112q-41 -34 -100 -117q-60 -84 -101 -174t-74 -244q-69 -320 -1 -649q32 -152 77 -246q95 -197 166 -262l33 -29v-112z" />
    <glyph glyph-name="parenright" unicode=")" horiz-adv-x="737" 
d="M102 1587q0 51 52 51t130 -62q209 -164 310 -504q61 -208 61 -458t-61 -458q-60 -208 -146 -324q-86 -117 -164 -179q-78 -63 -130 -63q-51 0 -52 52v112q41 34 100 117q60 84 101 174t74 244q33 153 33 325t-32 324t-77 246q-95 197 -166 262l-33 29v112z" />
    <glyph glyph-name="asterisk" unicode="*" horiz-adv-x="819" 
d="M305 1495q23 0 41 -35l64 -131l63 131q19 35 39 35t45 -12l53 -31q35 -20 35 -42t-12 -42l-74 -111h117q61 0 61 -61v-61q0 -61 -61 -62h-117l74 -110q12 -18 12 -41t-35 -43l-53 -31q-20 -12 -43 -12t-41 34l-63 131l-64 -131q-28 -54 -84 -22l-53 31q-35 17 -35 41
t12 43l74 110h-117q-61 0 -61 62v61q0 61 61 61h117l-74 111q-12 18 -12 42t35 42l53 31q20 12 43 12z" />
    <glyph glyph-name="plus" unicode="+" horiz-adv-x="860" 
d="M543 911v-204h174q61 0 61 -62v-82q0 -61 -61 -61h-174v-205q0 -61 -62 -61h-102q-61 0 -62 61v205h-174q-61 0 -61 61v82q0 61 61 62h174v204q0 61 62 62h102q62 -1 62 -62z" />
    <glyph glyph-name="comma" unicode="," horiz-adv-x="409" 
d="M61 61v123q0 61 62 62h164q61 0 61 -62v-123q0 -41 -16 -79l-27 -68q-23 -57 -92 -57h-74l45 143h-61q-62 0 -62 61z" />
    <glyph glyph-name="hyphen" unicode="-" horiz-adv-x="737" 
d="M82 553v102q0 61 61 62h451q61 0 61 -62v-102q0 -61 -61 -61h-451q-61 0 -61 61z" />
    <glyph glyph-name="period" unicode="." horiz-adv-x="409" 
d="M61 61v123q0 61 62 62h164q61 0 61 -62v-123q0 -61 -61 -61h-164q-62 0 -62 61z" />
    <glyph glyph-name="slash" unicode="/" horiz-adv-x="745" 
d="M578 1638h114q66 0 49 -61l-491 -1925q-16 -61 -82 -62h-111q-67 1 -53 62l492 1925q16 61 82 61z" />
    <glyph glyph-name="zero" unicode="0" horiz-adv-x="1146" 
d="M410 225h327v983h-327v-983zM1065 1229v-1024q0 -93 -56 -149t-149 -56h-573q-92 0 -149 56q-56 56 -56 149v1024q0 92 56 148t149 57h573q92 0 148 -56t57 -149z" />
    <glyph glyph-name="one" unicode="1" horiz-adv-x="716" 
d="M20 1208v226h410q92 0 148 -56t57 -149v-1024q0 -93 -56 -149t-149 -56h-205v1208h-205z" />
    <glyph glyph-name="two" unicode="2" horiz-adv-x="1013" 
d="M41 0v143q0 123 74 242l520 823h-553v226h655q236 0 236 -226q0 -143 -103 -299l-450 -684h512v-225h-891z" />
    <glyph glyph-name="three" unicode="3" horiz-adv-x="1003" 
d="M225 819h307v389h-471v226h656q92 0 148 -56t57 -149v-311q0 -92 -56 -148t-149 -57v-13q92 0 148 -56t57 -148v-291q0 -93 -56 -149t-149 -56h-656v225h471v369h-307v225z" />
    <glyph glyph-name="four" unicode="4" horiz-adv-x="1105" 
d="M348 1434v-738h287v738h184q93 0 149 -56t56 -149v-1024q0 -93 -56 -149t-149 -56h-184v471h-348q-92 0 -149 56q-56 56 -56 149v758h266z" />
    <glyph glyph-name="five" unicode="5" horiz-adv-x="1044" 
d="M573 614h-286q-93 0 -149 56t-56 149v615h860v-226h-594v-368h410q92 0 148 -56t57 -149v-430q-1 -93 -57 -149t-148 -56h-656v225h471v389z" />
    <glyph glyph-name="six" unicode="6" horiz-adv-x="1085" 
d="M758 594h-287v-369h287v369zM82 205v1024q0 92 56 148t149 57h696v-226h-512v-389h348q93 0 149 -56t56 -149v-409q0 -93 -56 -149t-149 -56h-532q-92 0 -149 56q-56 57 -56 149z" />
    <glyph glyph-name="seven" unicode="7" horiz-adv-x="876" 
d="M0 1208v226h635q201 0 201 -185q0 -68 -37 -252l-174 -792q-43 -205 -246 -205h-195l267 1208h-451z" />
    <glyph glyph-name="eight" unicode="8" horiz-adv-x="1105" 
d="M410 225h286v369h-286v-369zM410 819h286v389h-286v-389zM287 1434h532q93 0 149 -56t56 -149v-291q0 -92 -56 -148t-149 -57v-12q93 0 149 -56t56 -149v-311q0 -93 -56 -149t-149 -56h-532q-92 0 -149 56q-56 56 -56 149v311q0 92 56 148t149 57v12q-93 1 -149 57
t-56 148v291q0 93 56 149t149 56z" />
    <glyph glyph-name="nine" unicode="9" horiz-adv-x="1085" 
d="M328 696h286v512h-286v-512zM1004 1229v-1024q0 -93 -56 -149t-149 -56h-185v471h-348q-92 0 -148 56t-57 149v553q1 92 57 148t148 57h533q93 0 149 -56t56 -149z" />
    <glyph glyph-name="colon" unicode=":" horiz-adv-x="409" 
d="M61 756v123q0 61 62 61h164q61 0 61 -61v-123q0 -61 -61 -62h-164q-62 1 -62 62zM61 61v123q0 61 62 62h164q61 0 61 -62v-123q0 -61 -61 -61h-164q-62 0 -62 61z" />
    <glyph glyph-name="semicolon" unicode=";" horiz-adv-x="409" 
d="M61 61v123q0 61 62 62h164q61 0 61 -62v-123q0 -41 -16 -79l-27 -68q-23 -57 -92 -57h-74l45 143h-61q-62 0 -62 61zM61 756v123q0 61 62 61h164q61 0 61 -61v-123q0 -61 -61 -62h-164q-62 1 -62 62z" />
    <glyph glyph-name="less" unicode="&#x3c;" horiz-adv-x="784" 
d="M682 209q0 -66 -64 -66q-39 0 -118 60l-328 258q-70 55 -70 133t70 133l328 258q80 59 118 59q63 0 64 -65v-109l-354 -276l354 -277v-108z" />
    <glyph glyph-name="equal" unicode="=" horiz-adv-x="757" 
d="M82 748v81q0 61 61 62h471q61 0 62 -62v-81q0 -61 -62 -62h-471q-61 1 -61 62zM82 379v82q0 61 61 61h471q61 0 62 -61v-82q0 -61 -62 -62h-471q-61 1 -61 62z" />
    <glyph glyph-name="greater" unicode="&#x3e;" horiz-adv-x="784" 
d="M102 209v108l355 277l-355 276v109q0 66 64 65q39 0 119 -59l327 -258q70 -55 70 -133t-70 -133l-327 -258q-80 -59 -119 -60q-64 0 -64 66z" />
    <glyph glyph-name="question" unicode="?" horiz-adv-x="860" 
d="M225 61v123q0 61 62 62h143q61 0 62 -62v-123q0 -61 -62 -61h-143q-62 0 -62 61zM492 1208h-226v-123q0 -61 -61 -61h-103q-61 0 -61 61v226q0 123 123 123h491q123 0 123 -123v-574q0 -123 -123 -123h-163v-143q0 -61 -62 -61h-143q-61 0 -62 61v225q0 123 123 123h144
v389z" />
    <glyph glyph-name="at" unicode="@" horiz-adv-x="2209" 
d="M907 205h359l77 305zM1327 1393q-455 0 -722 -257t-267 -724q0 -318 183 -478t523 -159q286 0 494 95q209 95 321 209q113 114 142 163l16 28l90 -168q-13 -20 -37 -55t-116 -123t-205 -156t-309 -122q-196 -55 -416 -56q-426 0 -664 205t-237 617q0 549 337 852t908 303
q356 0 548 -119t191 -281q0 -88 -39 -146t-112 -110l-230 -159l-122 -547q-23 -93 -92 -149t-160 -56h-594q-172 0 -172 145q0 80 42 129t130 109l657 436h-657l47 205h967q119 59 118 135q0 94 -141 164t-422 70z" />
    <glyph glyph-name="A" unicode="A" 
d="M512 717h328v491h-328v-491zM512 492v-492h-225q-92 0 -149 56q-56 56 -56 149v1024q0 92 56 148t149 57h655q92 0 148 -56t57 -149v-1024q0 -93 -56 -149t-149 -56h-102v492h-328z" />
    <glyph glyph-name="B" unicode="B" 
d="M512 225h328v267h-328v-267zM512 1208v-491h328v491h-328zM942 596v-4q92 0 148 -53t57 -146v-188q0 -93 -56 -149t-149 -56h-655q-92 0 -149 56q-56 56 -56 149v1024q0 92 56 148t149 57h655q92 0 148 -56t57 -149v-434q0 -92 -56 -146q-57 -53 -149 -53z" />
    <glyph glyph-name="C" unicode="C" horiz-adv-x="1054" 
d="M1004 225v-225h-717q-92 0 -149 56q-56 56 -56 149v1024q0 92 56 148t149 57h717v-226h-492v-983h492z" />
    <glyph glyph-name="D" unicode="D" 
d="M512 225h328v983h-328v-983zM82 1434h860q92 0 148 -56t57 -149v-1024q0 -93 -56 -149t-149 -56h-860v1434z" />
    <glyph glyph-name="E" unicode="E" horiz-adv-x="1054" 
d="M1004 225v-225h-717q-92 0 -149 56q-56 56 -56 149v1024q0 92 56 148t149 57h717v-226h-492v-491h430v-225h-430v-267h492z" />
    <glyph glyph-name="F" unicode="F" horiz-adv-x="1024" 
d="M512 492v-492h-225q-92 0 -149 56q-56 56 -56 149v1024q0 92 56 148t149 57h717v-226h-492v-491h430v-225h-430z" />
    <glyph glyph-name="G" unicode="G" 
d="M1106 1434v-226h-594v-983h328v267h-164v225h266q92 -1 148 -57t57 -148v-307q0 -93 -56 -149t-149 -56h-655q-92 0 -149 56q-56 56 -56 149v1024q0 92 56 148t149 57h819z" />
    <glyph glyph-name="H" unicode="H" 
d="M840 717v717h102q92 0 148 -56t57 -149v-1024q0 -93 -56 -149t-149 -56h-102v492h-328v-492h-225q-92 0 -149 56q-56 56 -56 149v1024q0 92 56 148t149 57h225v-717h328z" />
    <glyph glyph-name="I" unicode="I" horiz-adv-x="593" 
d="M512 1434v-1434h-225q-92 0 -149 56q-56 56 -56 149v1024q0 92 56 148t149 57h225z" />
    <glyph glyph-name="J" unicode="J" horiz-adv-x="880" 
d="M205 1208v226h389q92 0 148 -56t57 -149v-1024q-1 -93 -57 -149t-148 -56h-553v225h328v983h-164z" />
    <glyph glyph-name="K" unicode="K" horiz-adv-x="1249" 
d="M512 492v-492h-225q-92 0 -149 56q-56 56 -56 149v1024q0 92 56 148t149 57h225v-717h123l246 717h327l-317 -830l317 -604h-327l-246 492h-123z" />
    <glyph glyph-name="L" unicode="L" horiz-adv-x="972" 
d="M922 225v-225h-635q-92 0 -149 56q-56 56 -56 149v1024q0 92 56 148t149 57h225v-1209h410z" />
    <glyph glyph-name="M" unicode="M" horiz-adv-x="1445" 
d="M723 205q-113 0 -160 117l-174 426v-748h-102q-96 0 -151 51q-54 51 -54 154v1024q0 106 52 155t136 50h62q98 0 145 -105l246 -633l246 633q25 53 55 79q31 26 90 26h62q84 0 136 -50t52 -155v-1024q0 -101 -54 -153t-151 -52h-102v748l-174 -426q-47 -117 -160 -117z
" />
    <glyph glyph-name="N" unicode="N" 
d="M512 0h-225q-92 0 -149 56q-56 56 -56 149v1024q0 92 56 148t149 57h96q137 0 180 -107l277 -661v768h102q92 0 148 -56t57 -149v-1024q0 -107 -52 -161q-53 -54 -129 -54t-110 26t-63 88l-281 633v-737z" />
    <glyph glyph-name="O" unicode="O" 
d="M512 225h328v983h-328v-983zM1147 1229v-1024q0 -93 -56 -149t-149 -56h-655q-92 0 -149 56q-56 56 -56 149v1024q0 92 56 148t149 57h655q92 0 148 -56t57 -149z" />
    <glyph glyph-name="P" unicode="P" horiz-adv-x="1208" 
d="M512 676h328v532h-328v-532zM512 451v-451h-225q-92 0 -149 56q-56 56 -56 149v1024q0 92 56 148t149 57h655q92 0 148 -56t57 -149v-574q0 -92 -56 -148t-149 -56h-430z" />
    <glyph glyph-name="Q" unicode="Q" 
d="M512 225h328v983h-328v-983zM1147 1229v-1024q0 -93 -56 -149t-149 -56h-102v-31q0 -92 92 -92h133v-205h-256q-143 0 -220 75t-77 212v41h-225q-92 0 -149 56q-56 56 -56 149v1024q0 92 56 148t149 57h655q92 0 148 -56t57 -149z" />
    <glyph glyph-name="R" unicode="R" 
d="M512 676h328v532h-328v-532zM512 451v-451h-225q-92 0 -149 56q-56 56 -56 149v1024q0 92 56 148t149 57h655q92 0 148 -56t57 -149v-574q0 -92 -56 -148t-149 -56l164 -451h-348l-164 451h-82z" />
    <glyph glyph-name="S" unicode="S" horiz-adv-x="1079" 
d="M1018 1434v-226h-504l436 -725q88 -145 88 -253t-56 -168q-56 -62 -169 -62h-752v225h519l-455 729q-84 137 -84 250t58 171t157 59h762z" />
    <glyph glyph-name="T" unicode="T" horiz-adv-x="1044" 
d="M0 1208v226h1044v-226h-307v-1208h-225q-92 0 -148 56t-57 149v1003h-307z" />
    <glyph glyph-name="U" unicode="U" 
d="M840 225v1209h102q92 0 148 -56t57 -149v-1024q0 -93 -56 -149t-149 -56h-655q-92 0 -149 56q-56 56 -56 149v1024q0 92 56 148t149 57h225v-1209h328z" />
    <glyph glyph-name="V" unicode="V" horiz-adv-x="1269" 
d="M799 0h-328q-190 0 -225 205l-205 1229h410l176 -1168h16l176 1168h410l-205 -1229q-35 -205 -225 -205z" />
    <glyph glyph-name="W" unicode="W" horiz-adv-x="1662" 
d="M1292 0h-194q-195 0 -215 205l-41 397h-21l-41 -397q-20 -205 -215 -205h-194q-94 0 -156 52q-61 52 -70 153l-104 1229h412l75 -1168h17l82 666q8 76 63 125t141 49q85 0 141 -49t64 -125l82 -666h17l75 1168h412l-104 -1229q-8 -101 -70 -153t-156 -52z" />
    <glyph glyph-name="X" unicode="X" horiz-adv-x="1126" 
d="M1085 1434q-31 -168 -87 -348t-97 -275l-43 -94q58 -118 127 -332q69 -213 100 -385h-389q-18 137 -50 275t-56 208l-23 70h-8q-88 -248 -129 -553h-389q31 168 87 347t97 276l41 94q-59 122 -127 333q-67 211 -98 384h389q18 -136 50 -274t57 -210l22 -69h8
q88 246 129 553h389z" />
    <glyph glyph-name="Y" unicode="Y" horiz-adv-x="1105" 
d="M768 0h-225q-92 0 -149 56q-56 56 -56 149v375q-36 36 -84 117q-49 81 -87 170t-81 242t-66 325h390q8 -154 43 -297t65 -211l31 -66h8q12 25 33 72q20 46 59 196t47 306h389q-47 -355 -142 -557q-94 -202 -150 -269l-25 -28v-580z" />
    <glyph glyph-name="Z" unicode="Z" horiz-adv-x="1079" 
d="M61 1208v226h762q99 0 157 -58t58 -172q0 -112 -84 -250l-454 -729h518v-225h-752q-113 0 -169 61t-56 169t88 253l436 725h-504z" />
    <glyph glyph-name="bracketleft" unicode="[" horiz-adv-x="655" 
d="M348 -205h205v-205h-266q-105 0 -155 50t-50 155v1639q0 106 49 155t156 49h266v-204h-205v-1639z" />
    <glyph glyph-name="backslash" unicode="\" horiz-adv-x="745" 
d="M578 -410q-66 0 -82 62l-492 1925q-16 61 49 61h115q66 0 82 -61l491 -1925q14 -61 -53 -62h-110z" />
    <glyph glyph-name="bracketright" unicode="]" horiz-adv-x="655" 
d="M102 -205h205v1639h-205v204h267q106 0 155 -49t49 -155v-1639q0 -106 -49 -155t-155 -50h-267v205z" />
    <glyph glyph-name="asciicircum" unicode="^" horiz-adv-x="880" 
d="M440 1470q37 0 58 -24l260 -293q20 -25 20 -41t-33 -52t-59 -36t-45 23l-201 233l-200 -233q-18 -23 -48 -23t-60 36t-30 54t21 39l260 293q20 24 57 24z" />
    <glyph glyph-name="underscore" unicode="_" horiz-adv-x="942" 
d="M82 -123v103q0 61 61 61h656q61 0 61 -61v-103q0 -61 -61 -61h-656q-61 0 -61 61z" />
    <glyph glyph-name="grave" unicode="`" horiz-adv-x="741" 
d="M313 1466q23 0 43 -20l160 -160q43 -43 0 -86l-45 -45q-20 -20 -43 -20t-43 20l-160 160q-20 20 -20 43t20 43l45 45q20 20 43 20z" />
    <glyph glyph-name="a" unicode="a" horiz-adv-x="1136" 
d="M72 819v205h778q92 0 148 -56t57 -149v-614q-1 -93 -57 -149t-148 -56h-594q-102 0 -154 51q-51 51 -51 133q0 106 119 199l547 436h-645zM686 205v280l-328 -280h328z" />
    <glyph glyph-name="b" unicode="b" horiz-adv-x="1187" 
d="M451 205h286v614h-205v205h369q93 0 149 -56t56 -149v-614q0 -93 -56 -149t-149 -56h-614q-92 0 -149 56q-56 56 -56 149v1229h164q92 0 148 -56t57 -149v-1024z" />
    <glyph glyph-name="c" unicode="c" horiz-adv-x="962" 
d="M922 205v-205h-635q-92 0 -149 56q-56 56 -56 149v614q0 93 56 149t149 56h635v-205h-471v-614h471z" />
    <glyph glyph-name="d" unicode="d" horiz-adv-x="1187" 
d="M451 205h286v1229h164q93 0 149 -56t56 -149v-1024q0 -93 -56 -149t-149 -56h-614q-92 0 -149 56q-56 56 -56 149v614q0 93 56 149t149 56h368v-205h-204v-614z" />
    <glyph glyph-name="e" unicode="e" horiz-adv-x="1136" 
d="M1065 205v-205h-778q-92 0 -149 56q-56 56 -56 149v614q0 93 56 149t149 56h594q205 0 204 -182q0 -123 -129 -228l-505 -409h614zM451 819v-313l348 313h-348z" />
    <glyph glyph-name="f" unicode="f" horiz-adv-x="778" 
d="M82 819v205h102v205q0 92 56 148t149 57h492v-205h-328v-205h205v-205h-205v-942q0 -92 -56 -148t-149 -57h-328v205h82q82 0 82 82v860h-102z" />
    <glyph glyph-name="g" unicode="g" horiz-adv-x="1187" 
d="M123 -328v205h614v942h-286v-614h204v-205h-368q-92 0 -149 56q-56 56 -56 149v614q0 93 56 149t149 56h614q93 0 149 -56t56 -149v-942q0 -92 -56 -148t-149 -57h-778z" />
    <glyph glyph-name="h" unicode="h" horiz-adv-x="1187" 
d="M82 0v1434h164q92 0 148 -56t57 -149v-1229h-369zM737 819h-205v205h369q93 0 149 -56t56 -149v-614q0 -93 -56 -149t-149 -56h-164v819z" />
    <glyph glyph-name="i" unicode="i" horiz-adv-x="532" 
d="M82 0v1024h164q92 0 148 -56t57 -149v-819h-369zM72 1270v102q0 61 61 62h256q61 0 62 -62v-102q0 -61 -62 -62h-256q-61 1 -61 62z" />
    <glyph glyph-name="j" unicode="j" horiz-adv-x="614" 
d="M154 1270v102q0 61 61 62h256q61 0 61 -62v-102q0 -61 -61 -62h-256q-61 1 -61 62zM164 -41v1065h164q92 0 148 -56t56 -149v-942q0 -92 -56 -148t-148 -57h-328v205h82q82 0 82 82z" />
    <glyph glyph-name="k" unicode="k" horiz-adv-x="1208" 
d="M82 0v1434h164q92 0 148 -56t57 -149v-1229h-369zM522 410v204h113l143 410h389l-215 -512l215 -512h-389l-143 410h-113z" />
    <glyph glyph-name="l" unicode="l" horiz-adv-x="614" 
d="M82 205v1229h164q92 0 148 -56t57 -149v-942q0 -82 81 -82h41v-205h-286q-92 0 -149 56q-56 57 -56 149z" />
    <glyph glyph-name="m" unicode="m" horiz-adv-x="1802" 
d="M717 819h-266v-819h-369v819q0 93 56 149t149 56h1229q92 0 148 -56t56 -149v-819h-368v819h-267v-819h-368v819z" />
    <glyph glyph-name="n" unicode="n" horiz-adv-x="1187" 
d="M737 819h-286v-819h-369v819q0 93 56 149t149 56h614q93 0 149 -56t56 -149v-819h-369v819z" />
    <glyph glyph-name="o" unicode="o" horiz-adv-x="1187" 
d="M451 205h286v614h-286v-614zM1106 819v-614q0 -93 -56 -149t-149 -56h-614q-92 0 -149 56q-56 56 -56 149v614q0 93 56 149t149 56h614q92 0 149 -56q56 -57 56 -149z" />
    <glyph glyph-name="p" unicode="p" horiz-adv-x="1187" 
d="M737 819h-286v-1147h-369v1147q0 93 56 149t149 56h614q93 0 149 -56t56 -149v-614q0 -93 -56 -149t-149 -56h-369v205h205v614z" />
    <glyph glyph-name="q" unicode="q" horiz-adv-x="1187" 
d="M737 819h-286v-614h204v-205h-368q-92 0 -149 56q-56 56 -56 149v614q0 93 56 149t149 56h614q93 0 149 -56t56 -149v-942q0 -92 -56 -148t-149 -57h-164v1147z" />
    <glyph glyph-name="r" unicode="r" horiz-adv-x="716" 
d="M696 1024v-205h-245v-819h-369v819q0 93 56 149t149 56h409z" />
    <glyph glyph-name="s" unicode="s" horiz-adv-x="995" 
d="M739 0h-667v205h420q-47 70 -169 210t-197 245t-75 182q0 78 55 130t150 52h668v-205h-420q47 -68 169 -209q123 -141 197 -246t74 -182t-55 -130q-56 -52 -150 -52z" />
    <glyph glyph-name="t" unicode="t" horiz-adv-x="778" 
d="M41 819v205h82q0 92 56 148t149 57h164v-205h245v-205h-245v-532q0 -82 81 -82h123v-205h-368q-92 0 -149 56q-56 56 -56 149v614h-82z" />
    <glyph glyph-name="u" unicode="u" horiz-adv-x="1187" 
d="M451 205h286v819h369v-819q0 -93 -56 -149t-149 -56h-614q-92 0 -149 56q-56 56 -56 149v819h369v-819z" />
    <glyph glyph-name="v" unicode="v" horiz-adv-x="1085" 
d="M686 0h-287q-90 0 -136 48t-68 157l-164 819h368l136 -819h16l135 819h369l-164 -819q-23 -109 -69 -157t-136 -48z" />
    <glyph glyph-name="w" unicode="w" horiz-adv-x="1556" 
d="M1178 0h-164q-90 0 -131 49t-54 156l-51 422l-51 -422q-12 -105 -53 -155t-131 -50h-164q-90 0 -136 48t-69 157l-123 819h359l84 -819h16l125 819h287l125 -819h16l84 819h358l-123 -819q-22 -109 -68 -157t-136 -48z" />
    <glyph glyph-name="x" unicode="x" horiz-adv-x="1167" 
d="M61 1024h390q36 -180 108 -336l25 -53q92 184 133 389h389q-18 -90 -66 -218t-90 -212l-39 -82q154 -307 195 -512h-389q-37 187 -109 336l-24 53q-94 -184 -135 -389h-388q18 90 67 218q48 128 89 212l39 82q-154 307 -195 512z" />
    <glyph glyph-name="y" unicode="y" horiz-adv-x="1085" 
d="M594 -328h-395v205h229q68 0 82 82l8 41h-119q-90 0 -136 48t-68 157l-164 819h368l136 -819h16l135 819h369l-228 -1147q-41 -205 -233 -205z" />
    <glyph glyph-name="z" unicode="z" horiz-adv-x="1003" 
d="M942 0h-696q-205 0 -205 174q0 104 115 236l356 409h-451v205h697q205 0 205 -174q0 -104 -113 -236l-358 -409h450v-205z" />
    <glyph glyph-name="braceleft" unicode="{" horiz-adv-x="737" 
d="M164 1434q0 106 49 155t156 49h266v-204h-205v-650q0 -76 -40 -120t-103 -43v-13q63 0 103 -44t40 -120v-649h205v-205h-266q-105 0 -155 50t-50 155v676l-123 31v225l123 31v676z" />
    <glyph glyph-name="bar" unicode="|" horiz-adv-x="409" 
d="M82 -348v1925q0 61 61 61h123q61 0 62 -61v-1925q0 -61 -62 -62h-123q-61 1 -61 62z" />
    <glyph glyph-name="braceright" unicode="}" horiz-adv-x="737" 
d="M573 -205q0 -106 -49 -155t-155 -50h-267v205h205v649q0 76 40 120t104 44v13q-63 0 -104 44q-40 44 -40 119v650h-205v204h267q106 0 155 -49t49 -155v-676l123 -31v-225l-123 -31v-676z" />
    <glyph glyph-name="asciitilde" unicode="~" horiz-adv-x="798" 
d="M102 600q0 123 134 123q48 0 164 -23t179 -22t101 35l16 10v-113q0 -123 -133 -123q-47 0 -164 23t-176 22t-104 -32l-17 -13v113z" />
    <glyph glyph-name="exclamdown" unicode="&#xa1;" horiz-adv-x="471" 
d="M389 963v-123q0 -61 -61 -62h-185q-61 0 -61 62v123q0 61 61 61h185q61 0 61 -61zM389 553v-881h-184q-123 0 -123 123v758q0 61 61 61h185q61 0 61 -61z" />
    <glyph glyph-name="cent" unicode="&#xa2;" horiz-adv-x="972" 
d="M922 205v-205h-267v-143q0 -61 -61 -62h-123q-61 0 -61 62v143h-123q-92 0 -149 56q-56 56 -56 149v614q0 93 56 149t149 56h123v143q0 61 61 62h123q61 0 61 -62v-143h267v-205h-471v-614h471z" />
    <glyph glyph-name="yen" unicode="&#xa5;" horiz-adv-x="1310" 
d="M156 629v61q0 61 61 62h168q-22 28 -86 138q-63 110 -111 267q-47 156 -65 277h389q18 -164 53 -310t62 -211l24 -65h8q98 217 140 586h389q-28 -188 -94 -358t-117 -249l-51 -75h190q61 0 62 -62v-61q0 -61 -62 -62h-256v-102h215q61 0 62 -62v-61q0 -61 -62 -61h-215
v-281h-409v281h-193q-61 0 -61 61v61q0 61 61 62h193v102h-234q-61 1 -61 62z" />
    <glyph glyph-name="brokenbar" unicode="&#xa6;" horiz-adv-x="409" 
d="M82 -348v1925q0 61 61 61h123q61 0 62 -61v-1925q0 -61 -62 -62h-123q-61 1 -61 62z" />
    <glyph glyph-name="dieresis" unicode="&#xa8;" horiz-adv-x="1003" 
d="M563 1239v113q0 61 62 61h112q61 0 62 -61v-113q0 -61 -62 -61h-112q-62 0 -62 61zM205 1239v113q0 61 61 61h113q61 0 61 -61v-113q0 -61 -61 -61h-113q-61 0 -61 61z" />
    <glyph glyph-name="copyright" unicode="&#xa9;" horiz-adv-x="1085" 
d="M205 758h676v758h-676v-758zM1004 1434v-594q0 -92 -56 -148t-149 -57h-512q-92 0 -149 56q-56 56 -56 149v594q0 92 56 148t149 56h512q93 0 149 -56t56 -148zM799 952v-133h-422q-41 0 -66 25t-24 65v455q0 41 24 66q25 25 66 24h422v-133h-267v-369h267z" />
    <glyph glyph-name="ordfeminine" unicode="&#xaa;" horiz-adv-x="798" 
d="M205 819q-123 -1 -123 119q0 58 72 111l338 251h-398v134h500q55 0 89 -34t34 -89v-369q0 -55 -34 -89t-89 -34h-389zM471 952v150l-184 -150h184z" />
    <glyph glyph-name="guillemotleft" unicode="&#xab;" horiz-adv-x="931" 
d="M829 246q0 -51 -51 -51h-22q-41 0 -86 41l-187 184q-53 49 -53 131t53 135l187 188q37 37 86 37h22q51 0 51 -51v-82l-225 -225l225 -225v-82zM502 246q0 -51 -51 -51h-23q-41 0 -86 41l-186 184q-54 49 -54 131t54 135l186 188q37 37 86 37h23q51 0 51 -51v-82
l-226 -225l226 -225v-82z" />
    <glyph glyph-name="registered" unicode="&#xae;" horiz-adv-x="1140" 
d="M205 758h731v758h-731v-758zM1059 1434v-594q-1 -92 -57 -148t-148 -57h-567q-92 0 -149 56q-56 56 -56 149v594q0 92 56 148t149 56h567q92 0 148 -56t57 -148zM532 1139h144v182h-144v-182zM532 1018v-199h-155q-41 0 -66 25t-24 65v455q0 41 24 66q25 25 66 24h385
q40 0 66 -24t26 -66v-254q0 -41 -26 -67t-66 -25l74 -199h-195l-74 199h-35z" />
    <glyph glyph-name="degree" unicode="&#xb0;" horiz-adv-x="638" 
d="M231 1239q0 -41 24 -67q23 -26 63 -26t65 26t25 67t-25 67t-65 26t-64 -26t-23 -67zM102 1239q0 95 62 155t154 60q90 0 154 -60t64 -154t-62 -156q-64 -60 -156 -60t-154 60t-62 155z" />
    <glyph glyph-name="plusminus" unicode="&#xb1;" horiz-adv-x="860" 
d="M543 963v-205h174q61 0 61 -62v-82q0 -61 -61 -61h-174v-205q0 -61 -62 -61h-102q-61 0 -62 61v205h-174q-61 0 -61 61v82q0 61 61 62h174v205q0 61 62 61h102q62 0 62 -61zM82 61v82q0 61 61 62h574q61 0 61 -62v-82q0 -61 -61 -61h-574q-61 0 -61 61z" />
    <glyph glyph-name="acute" unicode="&#xb4;" horiz-adv-x="741" 
d="M313 1135q-23 0 -43 20l-45 45q-20 20 -20 43t20 43l160 160q20 20 43 20t43 -20l45 -45q44 -44 0 -86l-160 -160q-20 -20 -43 -20z" />
    <glyph glyph-name="paragraph" unicode="&#xb6;" horiz-adv-x="1146" 
d="M512 -328v820h-164q-119 0 -182 68t-64 177v451q0 110 64 178t182 68h492q92 0 148 -56t56 -149v-1557h-204v1536h-123v-1536h-205z" />
    <glyph glyph-name="periodcentered" unicode="&#xb7;" horiz-adv-x="409" 
d="M61 543v123q0 61 62 61h164q61 0 61 -61v-123q0 -61 -61 -62h-164q-62 1 -62 62z" />
    <glyph glyph-name="cedilla" unicode="&#xb8;" horiz-adv-x="778" 
d="M410 -266v102h-164v164h184v-82h62q82 0 81 -82v-102q0 -82 -81 -82h-287v82h205z" />
    <glyph glyph-name="ordmasculine" unicode="&#xba;" horiz-adv-x="819" 
d="M328 952h164v348h-164v-348zM737 1300v-348q0 -55 -38 -94t-95 -39h-389q-59 0 -96 38t-37 95v348q0 58 37 96t96 38h389q57 0 95 -40t38 -94z" />
    <glyph glyph-name="guillemotright" unicode="&#xbb;" horiz-adv-x="931" 
d="M430 246v82l225 225l-225 225v82q0 51 51 51h23q49 0 86 -37l186 -188q53 -53 53 -135t-53 -131l-186 -184q-45 -41 -86 -41h-23q-51 0 -51 51zM102 246v82l226 225l-226 225v82q0 51 52 51h22q49 0 86 -37l187 -188q53 -53 53 -135t-53 -131l-187 -184q-45 -41 -86 -41
h-22q-52 0 -52 51z" />
    <glyph glyph-name="questiondown" unicode="&#xbf;" horiz-adv-x="860" 
d="M635 963v-123q0 -61 -62 -62h-143q-61 0 -61 62v123q0 61 61 61h143q62 0 62 -61zM369 -102h225v102q0 61 61 61h103q61 0 61 -61v-205q0 -123 -123 -123h-491q-123 0 -123 123v492q0 123 123 123h164v143q0 61 61 61h143q61 0 62 -61v-225q0 -123 -123 -123h-143v-307z
" />
    <glyph glyph-name="Agrave" unicode="&#xc0;" 
d="M780 1604q0 -22 -20 -43l-45 -45q-44 -44 -86 0l-160 159q-20 20 -20 43t20 43l45 45q44 44 86 0l160 -159q20 -21 20 -43zM512 717h328v491h-328v-491zM512 492v-492h-225q-92 0 -149 56q-56 56 -56 149v1024q0 92 56 148t149 57h655q92 0 148 -56t57 -149v-1024
q0 -93 -56 -149t-149 -56h-102v492h-328z" />
    <glyph glyph-name="Aacute" unicode="&#xc1;" 
d="M555 1604q0 23 20 43l160 159q20 20 43 20t43 -20l45 -45q44 -44 0 -86l-159 -159q-44 -44 -86 0l-46 45q-20 20 -20 43zM512 717h328v491h-328v-491zM512 492v-492h-225q-92 0 -149 56q-56 56 -56 149v1024q0 92 56 148t149 57h655q92 0 148 -56t57 -149v-1024
q0 -93 -56 -149t-149 -56h-102v492h-328z" />
    <glyph glyph-name="Acircumflex" unicode="&#xc2;" 
d="M635 1819q33 0 57 -25l174 -170q20 -18 20 -36t-31 -56q-32 -37 -55 -37t-46 23l-119 120l-119 -120q-22 -23 -46 -23t-56 34t-31 54q0 20 20 41l175 170q24 25 57 25zM512 717h328v491h-328v-491zM512 492v-492h-225q-92 0 -149 56q-56 56 -56 149v1024q0 92 56 148
t149 57h655q92 0 148 -56t57 -149v-1024q0 -93 -56 -149t-149 -56h-102v492h-328z" />
    <glyph glyph-name="Atilde" unicode="&#xc3;" 
d="M476 1561q-61 0 -118 -45v112q0 123 134 123q45 -1 143 -23q97 -22 155 -22t121 45v-113q0 -123 -133 -122q-45 0 -143 22t-159 23zM512 717h328v491h-328v-491zM512 492v-492h-225q-92 0 -149 56q-56 56 -56 149v1024q0 92 56 148t149 57h655q92 0 148 -56t57 -149
v-1024q0 -93 -56 -149t-149 -56h-102v492h-328z" />
    <glyph glyph-name="Adieresis" unicode="&#xc4;" 
d="M696 1556v113q0 61 62 62h112q61 0 62 -62v-113q0 -61 -62 -61h-112q-62 0 -62 61zM338 1556v113q0 61 61 62h113q61 0 61 -62v-113q0 -61 -61 -61h-113q-61 0 -61 61zM512 717h328v491h-328v-491zM512 492v-492h-225q-92 0 -149 56q-56 56 -56 149v1024q0 92 56 148
t149 57h655q92 0 148 -56t57 -149v-1024q0 -93 -56 -149t-149 -56h-102v492h-328z" />
    <glyph glyph-name="Aring" unicode="&#xc5;" 
d="M567 1688v-46q-1 -18 13 -31t32 -14h45q17 1 31 13t14 32v46q0 20 -13 32t-32 13h-45q-18 1 -32 -13t-13 -32zM444 1618v94q0 57 35 90t88 33h135q56 0 90 -32t33 -91v-94q1 -59 -33 -91t-90 -32h-135q-55 0 -89 32t-34 91zM512 717h328v491h-328v-491zM512 492v-492
h-225q-92 0 -149 56q-56 56 -56 149v1024q0 92 56 148t149 57h655q92 0 148 -56t57 -149v-1024q0 -93 -56 -149t-149 -56h-102v492h-328z" />
    <glyph glyph-name="AE" unicode="&#xc6;" horiz-adv-x="1648" 
d="M512 717h287v491h-287v-491zM512 492v-492h-225q-92 0 -149 56q-56 56 -56 149v1024q0 92 56 148t149 57h1310v-226h-491v-491h430v-225h-430v-267h491v-225h-798v492h-287z" />
    <glyph glyph-name="Ccedilla" unicode="&#xc7;" horiz-adv-x="1054" 
d="M614 -164h-163v164h184v-82h61q82 0 82 -82v-102q0 -82 -82 -82h-286v82h204v102zM1004 225v-225h-717q-92 0 -149 56q-56 56 -56 149v1024q0 92 56 148t149 57h717v-226h-492v-983h492z" />
    <glyph glyph-name="Egrave" unicode="&#xc8;" horiz-adv-x="1054" 
d="M692 1604q0 -22 -20 -43l-45 -45q-44 -44 -86 0l-160 159q-20 20 -21 43q1 23 21 43l45 45q44 44 86 0l160 -159q20 -21 20 -43zM1004 225v-225h-717q-92 0 -149 56q-56 56 -56 149v1024q0 92 56 148t149 57h717v-226h-492v-491h430v-225h-430v-267h492z" />
    <glyph glyph-name="Eacute" unicode="&#xc9;" horiz-adv-x="1054" 
d="M512 1604q0 23 20 43l160 159q20 20 43 20t43 -20l45 -45q44 -44 0 -86l-159 -159q-44 -44 -86 0l-46 45q-20 20 -20 43zM1004 225v-225h-717q-92 0 -149 56q-56 56 -56 149v1024q0 92 56 148t149 57h717v-226h-492v-491h430v-225h-430v-267h492z" />
    <glyph glyph-name="Ecircumflex" unicode="&#xca;" horiz-adv-x="1054" 
d="M553 1819q33 0 57 -25l174 -170q20 -18 20 -36t-31 -56q-32 -37 -55 -37t-46 23l-119 120l-119 -120q-22 -23 -46 -23t-56 34t-31 54q0 20 21 41l174 170q24 25 57 25zM1004 225v-225h-717q-92 0 -149 56q-56 56 -56 149v1024q0 92 56 148t149 57h717v-226h-492v-491h430
v-225h-430v-267h492z" />
    <glyph glyph-name="Edieresis" unicode="&#xcb;" horiz-adv-x="1054" 
d="M657 1556v113q0 61 62 62h112q61 0 62 -62v-113q0 -61 -62 -61h-112q-62 0 -62 61zM299 1556v113q0 61 61 62h113q61 0 62 -62v-113q0 -61 -62 -61h-113q-61 0 -61 61zM1004 225v-225h-717q-92 0 -149 56q-56 56 -56 149v1024q0 92 56 148t149 57h717v-226h-492v-491h430
v-225h-430v-267h492z" />
    <glyph glyph-name="Igrave" unicode="&#xcc;" horiz-adv-x="593" 
d="M119 1718q0 23 20 43l45 45q44 44 86 0l160 -159q43 -43 0 -86l-45 -45q-44 -44 -86 0l-160 159q-20 20 -20 43zM512 1434v-1434h-225q-92 0 -149 56q-56 56 -56 149v1024q0 92 56 148t149 57h225z" />
    <glyph glyph-name="Iacute" unicode="&#xcd;" horiz-adv-x="593" 
d="M512 1718q0 -23 -20 -43l-160 -159q-44 -44 -86 0l-45 45q-44 44 0 86l159 159q20 20 43 20t43 -20l46 -45q20 -20 20 -43zM512 1434v-1434h-225q-92 0 -149 56q-56 56 -56 149v1024q0 92 56 148t149 57h225z" />
    <glyph glyph-name="Icircumflex" unicode="&#xce;" horiz-adv-x="593" 
d="M297 1821q33 0 57 -25l174 -170q20 -18 20 -36t-31 -56q-32 -37 -55 -37t-46 23l-119 120l-119 -120q-22 -23 -46 -23t-56 34t-31 54q0 20 21 41l174 170q24 25 57 25zM512 1434v-1434h-225q-92 0 -149 56q-56 56 -56 149v1024q0 92 56 148t149 57h225z" />
    <glyph glyph-name="Idieresis" unicode="&#xcf;" horiz-adv-x="593" 
d="M358 1554v113q0 61 62 62h112q61 0 62 -62v-113q0 -61 -62 -61h-112q-62 0 -62 61zM0 1554v113q0 61 61 62h113q61 0 62 -62v-113q0 -61 -62 -61h-113q-61 0 -61 61zM512 1434v-1434h-225q-92 0 -149 56q-56 56 -56 149v1024q0 92 56 148t149 57h225z" />
    <glyph glyph-name="Eth" unicode="&#xd0;" horiz-adv-x="1269" 
d="M553 225h328v983h-328v-491h225v-225h-225v-267zM20 492v225h103v717h860q93 0 149 -56t56 -149v-1024q0 -93 -56 -149t-149 -56h-860v492h-103z" />
    <glyph glyph-name="Ntilde" unicode="&#xd1;" 
d="M459 1563q-57 0 -121 -45v112q0 123 133 123q45 -1 143 -23t161 -22t116 45v-113q0 -123 -133 -122q-46 0 -144 22t-155 23zM512 0h-225q-92 0 -149 56q-56 56 -56 149v1024q0 92 56 148t149 57h96q137 0 180 -107l277 -661v768h102q92 0 148 -56t57 -149v-1024
q0 -107 -52 -161q-53 -54 -129 -54t-110 26t-63 88l-281 633v-737z" />
    <glyph glyph-name="Ograve" unicode="&#xd2;" 
d="M780 1604q0 -22 -20 -43l-45 -45q-44 -44 -86 0l-160 159q-20 20 -20 43t20 43l45 45q44 44 86 0l160 -159q20 -21 20 -43zM512 225h328v983h-328v-983zM1147 1229v-1024q0 -93 -56 -149t-149 -56h-655q-92 0 -149 56q-56 56 -56 149v1024q0 92 56 148t149 57h655
q92 0 148 -56t57 -149z" />
    <glyph glyph-name="Oacute" unicode="&#xd3;" 
d="M621 1493q-23 0 -43 20l-46 46q-20 21 -20 43t20 43l160 159q20 20 43 20t43 -20l45 -45q44 -44 0 -86l-159 -160q-20 -20 -43 -20zM512 225h328v983h-328v-983zM1147 1229v-1024q0 -93 -56 -149t-149 -56h-655q-92 0 -149 56q-56 56 -56 149v1024q0 92 56 148t149 57
h655q92 0 148 -56t57 -149z" />
    <glyph glyph-name="Ocircumflex" unicode="&#xd4;" 
d="M614 1823q33 0 58 -25l174 -170q20 -18 20 -36t-32 -56q-32 -37 -55 -37t-46 23l-119 120l-118 -120q-22 -23 -46 -23t-56 34t-32 54t21 41l174 170q24 25 57 25zM512 225h328v983h-328v-983zM1147 1229v-1024q0 -93 -56 -149t-149 -56h-655q-92 0 -149 56
q-56 56 -56 149v1024q0 92 56 148t149 57h655q92 0 148 -56t57 -149z" />
    <glyph glyph-name="Otilde" unicode="&#xd5;" 
d="M453 1561q-63 0 -115 -45v112q0 123 133 123q45 -1 143 -23t156 -22t121 45v-113q0 -123 -133 -122q-46 0 -144 22t-161 23zM512 225h328v983h-328v-983zM1147 1229v-1024q0 -93 -56 -149t-149 -56h-655q-92 0 -149 56q-56 56 -56 149v1024q0 92 56 148t149 57h655
q92 0 148 -56t57 -149z" />
    <glyph glyph-name="Odieresis" unicode="&#xd6;" 
d="M696 1575v113q0 61 62 61h112q61 0 62 -61v-113q0 -61 -62 -62h-112q-62 1 -62 62zM338 1575v113q0 61 61 61h113q61 0 61 -61v-113q0 -61 -61 -62h-113q-61 1 -61 62zM512 225h328v983h-328v-983zM1147 1229v-1024q0 -93 -56 -149t-149 -56h-655q-92 0 -149 56
q-56 56 -56 149v1024q0 92 56 148t149 57h655q92 0 148 -56t57 -149z" />
    <glyph glyph-name="multiply" unicode="&#xd7;" horiz-adv-x="753" 
d="M558 326q-24 0 -44 20l-135 148l-148 -154q-44 -44 -86 0l-43 43q-20 20 -20 43t20 43l154 147l-147 136q-45 45 0 88l43 43q20 20 44 20t44 -20l135 -148l147 154q20 20 43 20t43 -20l43 -43q20 -20 20 -43t-20 -43l-153 -148l147 -135q44 -44 0 -88l-43 -43
q-20 -20 -44 -20z" />
    <glyph glyph-name="Oslash" unicode="&#xd8;" 
d="M512 1208v-518l199 518h-199zM840 225v813l-318 -813h318zM1147 1229v-1024q0 -93 -56 -149t-149 -56h-489l-58 -143q-14 -35 -31 -48t-51 -14h-120q-31 1 -43 17t0 45l65 153q-61 20 -97 72t-36 123v1024q0 92 56 148t149 57h493l58 143q12 35 29 48t53 13h114
q33 0 46 -18t-1 -51l-63 -148q131 -45 131 -192z" />
    <glyph glyph-name="Ugrave" unicode="&#xd9;" 
d="M449 1761l45 45q44 44 86 0l159 -159q43 -43 0 -86l-45 -45q-44 -44 -86 0l-159 159q-20 20 -21 43q1 23 21 43zM840 225v1209h102q92 0 148 -56t57 -149v-1024q0 -93 -56 -149t-149 -56h-655q-92 0 -149 56q-56 56 -56 149v1024q0 92 56 148t149 57h225v-1209h328z" />
    <glyph glyph-name="Uacute" unicode="&#xda;" 
d="M512 1606q0 23 20 43l160 159q20 20 43 20t43 -20l45 -45q44 -44 0 -86l-159 -159q-44 -44 -86 0l-46 45q-20 20 -20 43zM840 225v1209h102q92 0 148 -56t57 -149v-1024q0 -93 -56 -149t-149 -56h-655q-92 0 -149 56q-56 56 -56 149v1024q0 92 56 148t149 57h225v-1209
h328z" />
    <glyph glyph-name="Ucircumflex" unicode="&#xdb;" 
d="M625 1821q33 0 57 -25l174 -170q20 -18 20 -36t-31 -56q-31 -37 -55 -37t-47 23l-118 120l-119 -120q-22 -23 -46 -23t-56 34t-31 54q0 20 20 41l174 170q25 25 58 25zM840 225v1209h102q92 0 148 -56t57 -149v-1024q0 -93 -56 -149t-149 -56h-655q-92 0 -149 56
q-56 56 -56 149v1024q0 92 56 148t149 57h225v-1209h328z" />
    <glyph glyph-name="Udieresis" unicode="&#xdc;" 
d="M696 1556v113q0 61 62 62h112q61 0 62 -62v-113q0 -61 -62 -61h-112q-62 0 -62 61zM338 1556v113q0 61 61 62h113q61 0 61 -62v-113q0 -61 -61 -61h-113q-61 0 -61 61zM840 225v1209h102q92 0 148 -56t57 -149v-1024q0 -93 -56 -149t-149 -56h-655q-92 0 -149 56
q-56 56 -56 149v1024q0 92 56 148t149 57h225v-1209h328z" />
    <glyph glyph-name="Yacute" unicode="&#xdd;" horiz-adv-x="1105" 
d="M420 1606q0 23 20 43l160 159q20 20 43 20t43 -20l45 -45q44 -44 0 -86l-160 -159q-44 -44 -86 0l-45 45q-20 20 -20 43zM768 0h-225q-92 0 -149 56q-56 56 -56 149v375q-36 36 -84 117q-49 81 -87 170t-81 242t-66 325h390q8 -154 43 -297t65 -211l31 -66h8q12 25 33 72
q20 46 59 196t47 306h389q-47 -355 -142 -557q-94 -202 -150 -269l-25 -28v-580z" />
    <glyph glyph-name="Thorn" unicode="&#xde;" horiz-adv-x="1208" 
d="M512 553h328v451h-328v-451zM512 328v-328h-225q-92 0 -149 56q-56 56 -56 149v1024q0 92 56 148t149 57h225v-205h430q92 -1 148 -57t57 -148v-492q0 -92 -56 -148t-149 -56h-430z" />
    <glyph glyph-name="germandbls" unicode="&#xdf;" 
d="M532 502v205h205v522h-286v-1229h-164q-92 0 -149 56q-56 56 -56 149v297h-82v205h82v522q0 92 56 148t149 57h614q93 0 149 -56t56 -149v-434q0 -91 -56 -145t-149 -54v-4q93 0 149 -53t56 -146v-188q0 -93 -56 -149t-149 -56h-369v205h205v297h-205z" />
    <glyph glyph-name="agrave" unicode="&#xe0;" horiz-adv-x="1136" 
d="M465 1466q23 0 43 -20l160 -160q20 -20 20 -42t-20 -44l-45 -45q-20 -20 -43 -20t-43 20l-160 160q-20 20 -21 43q1 23 21 43l45 45q20 20 43 20zM72 1024h778q92 0 148 -56t57 -149v-614q-1 -93 -57 -149t-148 -56h-594q-102 0 -154 51q-51 51 -51 133q0 106 119 199
l547 436h-645v205zM686 205v280l-328 -280h328z" />
    <glyph glyph-name="aacute" unicode="&#xe1;" horiz-adv-x="1136" 
d="M774 1358q0 -23 -20 -43l-160 -160q-20 -20 -43 -20t-43 20l-45 45q-44 44 0 86l160 160q20 20 43 20t43 -20l45 -45q20 -20 20 -43zM72 819v205h778q92 0 148 -56t57 -149v-614q-1 -93 -57 -149t-148 -56h-594q-102 0 -154 51q-51 51 -51 133q0 106 119 199l547 436
h-645zM686 205v280l-328 -280h328z" />
    <glyph glyph-name="acircumflex" unicode="&#xe2;" horiz-adv-x="1136" 
d="M553 1470q33 0 57 -24l174 -170q20 -18 20 -36t-31 -56q-32 -37 -55 -37t-46 22l-119 121l-119 -121q-47 -47 -100 11q-33 35 -33 55t21 41l174 170q24 24 57 24zM72 1024h778q92 0 148 -56t57 -149v-614q-1 -93 -57 -149t-148 -56h-594q-102 0 -154 51q-51 51 -51 133
q0 106 119 199l547 436h-645v205zM686 205v280l-328 -280h328z" />
    <glyph glyph-name="atilde" unicode="&#xe3;" horiz-adv-x="1136" 
d="M291 1311q0 123 133 123q47 0 143 -23t156 -22t104 32l17 13v-113q0 -123 -133 -123q-47 0 -143 23t-160 22q-63 -1 -101 -35l-16 -10v113zM72 819v205h778q92 0 148 -56t57 -149v-614q-1 -93 -57 -149t-148 -56h-594q-102 0 -154 51q-51 51 -51 133q0 106 119 199
l547 436h-645zM686 205v280l-328 -280h328z" />
    <glyph glyph-name="adieresis" unicode="&#xe4;" horiz-adv-x="1136" 
d="M614 1239v113q0 61 62 61h112q61 0 62 -61v-113q0 -61 -62 -61h-112q-62 0 -62 61zM256 1239v113q0 61 61 61h113q61 0 62 -61v-113q0 -61 -62 -61h-113q-61 0 -61 61zM72 819v205h778q92 0 148 -56t57 -149v-614q-1 -93 -57 -149t-148 -56h-594q-102 0 -154 51
q-51 51 -51 133q0 106 119 199l547 436h-645zM686 205v280l-328 -280h328z" />
    <glyph glyph-name="aring" unicode="&#xe5;" horiz-adv-x="1136" 
d="M485 1327v-45q-1 -18 13 -32t32 -13h45q18 0 32 12q13 12 14 33v45q1 21 -13 33t-33 12h-45q-18 0 -32 -14t-13 -31zM362 1257v95q0 57 35 90t88 33h136q55 0 89 -32t33 -91v-95q1 -59 -33 -91t-89 -31h-136q-55 -1 -89 31t-34 91zM72 1024h778q92 0 148 -56t57 -149
v-614q-1 -93 -57 -149t-148 -56h-594q-102 0 -154 51q-51 51 -51 133q0 106 119 199l547 436h-645v205zM686 205v280l-328 -280h328z" />
    <glyph glyph-name="ae" unicode="&#xe6;" horiz-adv-x="1740" 
d="M686 205v280l-328 -280h328zM1055 819v-305l348 305h-348zM72 819v205h1413q205 0 205 -182q0 -123 -129 -228l-506 -409h614v-205h-1413q-102 0 -154 51q-51 51 -51 133q0 106 119 199l547 436h-645z" />
    <glyph glyph-name="ccedilla" unicode="&#xe7;" horiz-adv-x="972" 
d="M573 -164h-163v164h184v-82h61q82 0 82 -82v-102q0 -82 -82 -82h-286v82h204v102zM922 205v-205h-635q-92 0 -149 56q-56 56 -56 149v614q0 93 56 149t149 56h635v-205h-471v-614h471z" />
    <glyph glyph-name="egrave" unicode="&#xe8;" horiz-adv-x="1136" 
d="M469 1466q23 0 43 -20l160 -160q20 -20 20 -42t-20 -44l-45 -45q-20 -20 -43 -20t-43 20l-160 160q-20 20 -21 43q1 23 21 43l45 45q20 20 43 20zM1065 0h-778q-92 0 -149 56q-56 56 -56 149v614q0 93 56 149t149 56h594q205 0 204 -182q0 -123 -129 -228l-505 -409h614
v-205zM451 819v-313l348 313h-348z" />
    <glyph glyph-name="eacute" unicode="&#xe9;" horiz-adv-x="1136" 
d="M780 1358q0 -23 -20 -43l-160 -160q-20 -20 -43 -20t-43 20l-45 45q-20 20 -20 43t20 43l160 160q20 20 43 20t43 -20l45 -45q20 -20 20 -43zM1065 205v-205h-778q-92 0 -149 56q-56 56 -56 149v614q0 93 56 149t149 56h594q205 0 204 -182q0 -123 -129 -228l-505 -409
h614zM451 819v-313l348 313h-348z" />
    <glyph glyph-name="ecircumflex" unicode="&#xea;" horiz-adv-x="1136" 
d="M567 1470q33 0 58 -24l174 -170q20 -18 20 -36t-32 -56q-32 -37 -55 -37t-46 22l-119 121l-118 -121q-48 -48 -101 11q-33 35 -33 55t21 41l174 170q24 24 57 24zM1065 0h-778q-92 0 -149 56q-56 56 -56 149v614q0 93 56 149t149 56h594q205 0 204 -182q0 -123 -129 -228
l-505 -409h614v-205zM451 819v-313l348 313h-348z" />
    <glyph glyph-name="edieresis" unicode="&#xeb;" horiz-adv-x="1136" 
d="M629 1239v113q0 61 61 61h113q61 0 61 -61v-113q0 -61 -61 -61h-113q-61 0 -61 61zM270 1239v113q0 61 62 61h112q61 0 62 -61v-113q0 -61 -62 -61h-112q-62 0 -62 61zM1065 205v-205h-778q-92 0 -149 56q-56 56 -56 149v614q0 93 56 149t149 56h594q205 0 204 -182
q0 -123 -129 -228l-505 -409h614zM451 819v-313l348 313h-348z" />
    <glyph glyph-name="igrave" unicode="&#xec;" horiz-adv-x="532" 
d="M150 1466q24 0 43 -20l159 -160q43 -43 0 -86l-45 -45q-20 -20 -43 -20t-43 20l-160 160q-20 20 -20 43t20 43l45 45q20 20 44 20zM82 1024h164q92 0 148 -56t57 -149v-819h-369v1024z" />
    <glyph glyph-name="iacute" unicode="&#xed;" horiz-adv-x="532" 
d="M268 1135q-23 0 -43 20l-45 45q-20 20 -20 43t20 43l160 160q20 20 43 20t43 -20l45 -45q44 -44 0 -86l-160 -160q-20 -20 -43 -20zM82 0v1024h164q92 0 148 -56t57 -149v-819h-369z" />
    <glyph glyph-name="icircumflex" unicode="&#xee;" horiz-adv-x="532" 
d="M266 1470q33 0 58 -24l174 -170q20 -18 20 -36t-32 -56q-32 -37 -55 -37t-46 22l-119 121l-119 -121q-47 -47 -100 11q-33 35 -33 55t21 41l174 170q24 24 57 24zM82 1024h164q92 0 148 -56t57 -149v-819h-369v1024z" />
    <glyph glyph-name="idieresis" unicode="&#xef;" horiz-adv-x="532" 
d="M328 1239v113q0 61 61 61h113q61 0 61 -61v-113q0 -61 -61 -61h-113q-61 0 -61 61zM-31 1239v113q0 61 62 61h112q61 0 62 -61v-113q0 -61 -62 -61h-112q-62 0 -62 61zM82 0v1024h164q92 0 148 -56t57 -149v-819h-369z" />
    <glyph glyph-name="eth" unicode="&#xf0;" horiz-adv-x="1187" 
d="M1106 205q0 -93 -56 -149t-149 -56h-614q-92 0 -149 56q-56 56 -56 149v614q0 93 56 149t149 56h368v-205h-204v-614h286v614l-112 309l-172 -4v185l104 2l-43 123h379l41 -111l172 6v-184l-100 -4l100 -260v-676z" />
    <glyph glyph-name="ntilde" unicode="&#xf1;" horiz-adv-x="1187" 
d="M317 1311q0 123 134 123q47 0 144 -23t142 -22q85 0 133 45v-113q0 -123 -133 -123q-45 0 -142 23t-154 23t-124 -46v113zM737 819h-286v-819h-369v819q0 93 56 149t149 56h614q93 0 149 -56t56 -149v-819h-369v819z" />
    <glyph glyph-name="ograve" unicode="&#xf2;" horiz-adv-x="1187" 
d="M496 1466q23 0 43 -20l159 -160q43 -43 0 -86l-45 -45q-20 -20 -43 -20t-43 20l-159 160q-20 20 -21 43q1 23 21 43l45 45q20 20 43 20zM451 205h286v614h-286v-614zM1106 819v-614q0 -93 -56 -149t-149 -56h-614q-92 0 -149 56q-56 56 -56 149v614q0 93 56 149t149 56
h614q92 0 149 -56q56 -57 56 -149z" />
    <glyph glyph-name="oacute" unicode="&#xf3;" horiz-adv-x="1187" 
d="M578 1135q-23 0 -43 20l-46 45q-20 20 -20 43t20 43l160 160q20 20 43 20t43 -20l45 -45q44 -44 0 -86l-159 -160q-20 -20 -43 -20zM451 205h286v614h-286v-614zM1106 819v-614q0 -93 -56 -149t-149 -56h-614q-92 0 -149 56q-56 56 -56 149v614q0 93 56 149t149 56h614
q92 0 149 -56q56 -57 56 -149z" />
    <glyph glyph-name="ocircumflex" unicode="&#xf4;" horiz-adv-x="1187" 
d="M594 1470q33 0 57 -24l174 -170q21 -18 21 -36t-32 -56q-32 -37 -55 -37t-46 22l-119 121l-119 -121q-47 -47 -100 11q-33 35 -33 55t20 41l175 170q24 24 57 24zM451 205h286v614h-286v-614zM1106 819v-614q0 -93 -56 -149t-149 -56h-614q-92 0 -149 56q-56 56 -56 149
v614q0 93 56 149t149 56h614q92 0 149 -56q56 -57 56 -149z" />
    <glyph glyph-name="otilde" unicode="&#xf5;" horiz-adv-x="1187" 
d="M317 1311q0 123 134 123q47 0 144 -23t142 -22q85 0 133 45v-113q0 -123 -133 -123q-45 0 -142 23t-154 23t-124 -46v113zM451 205h286v614h-286v-614zM1106 819v-614q0 -93 -56 -149t-149 -56h-614q-92 0 -149 56q-56 56 -56 149v614q0 93 56 149t149 56h614
q92 0 149 -56q56 -57 56 -149z" />
    <glyph glyph-name="odieresis" unicode="&#xf6;" horiz-adv-x="1187" 
d="M655 1239v113q0 61 62 61h112q61 0 62 -61v-113q0 -61 -62 -61h-112q-62 0 -62 61zM297 1239v113q0 61 61 61h113q61 0 61 -61v-113q0 -61 -61 -61h-113q-61 0 -61 61zM451 205h286v614h-286v-614zM1106 819v-614q0 -93 -56 -149t-149 -56h-614q-92 0 -149 56
q-56 56 -56 149v614q0 93 56 149t149 56h614q92 0 149 -56q56 -57 56 -149z" />
    <glyph glyph-name="divide" unicode="&#xf7;" horiz-adv-x="901" 
d="M328 266v103q0 61 61 61h123q61 0 61 -61v-103q0 -61 -61 -61h-123q-61 0 -61 61zM82 567v74q0 61 61 61h615q61 0 61 -61v-74q0 -61 -61 -61h-615q-61 0 -61 61zM328 840v102q0 61 61 62h123q61 0 61 -62v-102q0 -61 -61 -62h-123q-61 1 -61 62z" />
    <glyph glyph-name="oslash" unicode="&#xf8;" horiz-adv-x="1187" 
d="M737 205v422l-178 -422h178zM451 819v-432l180 432h-180zM1106 819v-614q0 -93 -56 -149t-149 -56h-424l-82 -184q-27 -61 -82 -62h-90q-37 0 -52 16t-1 46l86 186q-80 10 -127 64t-47 139v614q0 93 56 149t149 56h426l84 184q16 33 31 47t51 15h102q29 0 41 -18t0 -44
l-86 -186q78 -10 124 -66t46 -137z" />
    <glyph glyph-name="ugrave" unicode="&#xf9;" horiz-adv-x="1187" 
d="M471 1466q23 0 43 -20l160 -160q20 -20 20 -42t-20 -44l-45 -45q-20 -20 -43 -20t-43 20l-160 160q-20 20 -21 43q1 23 21 43l45 45q20 20 43 20zM451 205h286v819h369v-819q0 -93 -56 -149t-149 -56h-614q-92 0 -149 56q-56 56 -56 149v819h369v-819z" />
    <glyph glyph-name="uacute" unicode="&#xfa;" horiz-adv-x="1187" 
d="M578 1135q-23 0 -43 20l-46 45q-20 20 -20 43t20 43l160 160q20 20 43 20t43 -20l45 -45q44 -44 0 -86l-159 -160q-20 -20 -43 -20zM451 205h286v819h369v-819q0 -93 -56 -149t-149 -56h-614q-92 0 -149 56q-56 56 -56 149v819h369v-819z" />
    <glyph glyph-name="ucircumflex" unicode="&#xfb;" horiz-adv-x="1187" 
d="M594 1470q33 0 57 -24l174 -170q21 -18 21 -36t-32 -56q-32 -37 -55 -37t-46 22l-119 121l-119 -121q-47 -47 -100 11q-33 35 -33 55t20 41l175 170q24 24 57 24zM451 205h286v819h369v-819q0 -93 -56 -149t-149 -56h-614q-92 0 -149 56q-56 56 -56 149v819h369v-819z
" />
    <glyph glyph-name="udieresis" unicode="&#xfc;" horiz-adv-x="1187" 
d="M655 1239v113q0 61 62 61h112q61 0 62 -61v-113q0 -61 -62 -61h-112q-62 0 -62 61zM297 1239v113q0 61 61 61h113q61 0 61 -61v-113q0 -61 -61 -61h-113q-61 0 -61 61zM451 205h286v819h369v-819q0 -93 -56 -149t-149 -56h-614q-92 0 -149 56q-56 56 -56 149v819h369
v-819z" />
    <glyph glyph-name="yacute" unicode="&#xfd;" horiz-adv-x="1105" 
d="M780 1358q0 -23 -20 -43l-160 -160q-20 -20 -43 -20t-43 20l-45 45q-20 20 -20 43t20 43l160 160q20 20 43 20t43 -20l45 -45q20 -20 20 -43zM604 -328h-395v205h229q68 0 82 82l8 41h-118q-90 0 -137 48q-46 48 -68 157l-164 819h369l135 -819h16l135 819h369
l-227 -1147q-41 -205 -234 -205z" />
    <glyph glyph-name="thorn" unicode="&#xfe;" horiz-adv-x="1187" 
d="M82 1434h164q92 0 148 -56t57 -149v-1557h-369v1762zM532 819v205h369q93 0 149 -56t56 -149v-614q0 -93 -56 -149t-149 -56h-369v205h205v614h-205z" />
    <glyph glyph-name="ydieresis" unicode="&#xff;" horiz-adv-x="1105" 
d="M614 1239v113q0 61 62 61h112q61 0 62 -61v-113q0 -61 -62 -61h-112q-62 0 -62 61zM256 1239v113q0 61 61 61h113q61 0 62 -61v-113q0 -61 -62 -61h-113q-61 0 -61 61zM604 -328h-395v205h229q68 0 82 82l8 41h-118q-90 0 -137 48q-46 48 -68 157l-164 819h369l135 -819
h16l135 819h369l-227 -1147q-41 -205 -234 -205z" />
    <glyph glyph-name="dotlessi" unicode="&#x131;" horiz-adv-x="532" 
d="M82 0v1024h164q92 0 148 -56t57 -149v-819h-369z" />
    <glyph glyph-name="OE" unicode="&#x152;" horiz-adv-x="1648" 
d="M512 225h287v983h-287v-983zM1597 225v-225h-1310q-92 0 -149 56q-56 56 -56 149v1024q0 92 56 148t149 57h1310v-226h-491v-491h430v-225h-430v-267h491z" />
    <glyph glyph-name="oe" unicode="&#x153;" horiz-adv-x="1792" 
d="M1106 819v-313l348 313h-348zM451 205h286v614h-286v-614zM1720 205v-205h-1433q-92 0 -149 56q-56 56 -56 149v614q0 93 56 149t149 56h1249q205 0 205 -182q0 -123 -129 -228l-506 -409h614z" />
    <glyph glyph-name="Scaron" unicode="&#x160;" horiz-adv-x="1079" 
d="M539 1495q-33 0 -58 25l-174 170q-20 20 -20 41q-1 21 31 55t56 33q24 0 46 -23l119 -121l118 121q23 23 47 23t55 -37q32 -37 32 -55t-21 -37l-174 -170q-24 -25 -57 -25zM1018 1434v-226h-504l436 -725q88 -145 88 -253t-56 -168q-56 -62 -169 -62h-752v225h519
l-455 729q-84 137 -84 250t58 171t157 59h762z" />
    <glyph glyph-name="scaron" unicode="&#x161;" horiz-adv-x="995" 
d="M487 1147q-33 0 -57 24l-174 170q-20 20 -20 41t32 55q54 58 101 11l118 -121l119 121q47 47 99 -10q35 -42 35 -60t-21 -37l-174 -170q-25 -24 -58 -24zM739 0h-667v205h420q-47 70 -169 210t-197 245t-75 182q0 78 55 130t150 52h668v-205h-420q47 -68 169 -209
q123 -141 197 -246t74 -182t-55 -130q-56 -52 -150 -52z" />
    <glyph glyph-name="Ydieresis" unicode="&#x178;" horiz-adv-x="1105" 
d="M614 1556v113q0 61 62 62h112q61 0 62 -62v-113q0 -61 -62 -61h-112q-62 0 -62 61zM256 1556v113q0 61 61 62h113q61 0 62 -62v-113q0 -61 -62 -61h-113q-61 0 -61 61zM768 0h-225q-92 0 -149 56q-56 56 -56 149v375q-36 36 -84 117q-49 81 -87 170t-81 242t-66 325h390
q8 -154 43 -297t65 -211l31 -66h8q12 25 33 72q20 46 59 196t47 306h389q-47 -355 -142 -557q-94 -202 -150 -269l-25 -28v-580z" />
    <glyph glyph-name="Zcaron" unicode="&#x17d;" horiz-adv-x="1079" 
d="M539 1495q-33 0 -58 25l-174 170q-20 20 -20 41q-1 21 31 55t56 33q24 0 46 -23l119 -121l118 121q23 23 47 23t55 -37q32 -37 32 -55t-21 -37l-174 -170q-24 -25 -57 -25zM61 1208v226h762q99 0 157 -58t58 -172q0 -112 -84 -250l-454 -729h518v-225h-752
q-113 0 -169 61t-56 169t88 253l436 725h-504z" />
    <glyph glyph-name="zcaron" unicode="&#x17e;" horiz-adv-x="1003" 
d="M502 1147q-33 0 -58 24l-174 170q-20 20 -20 41t32 55q54 58 101 11l119 -121l119 121q48 48 98 -10q35 -42 35 -60t-21 -37l-174 -170q-24 -24 -57 -24zM942 0h-696q-205 0 -205 174q0 104 115 236l356 409h-451v205h697q205 0 205 -174q0 -104 -113 -236l-358 -409h450
v-205z" />
    <glyph glyph-name="circumflex" unicode="&#x2c6;" horiz-adv-x="913" 
d="M457 1470q33 0 57 -24l174 -170q20 -18 20 -36t-31 -56q-31 -37 -55 -37t-47 22l-118 121l-119 -121q-47 -47 -100 11q-33 35 -33 55t20 41l174 170q25 24 58 24z" />
    <glyph glyph-name="caron" unicode="&#x2c7;" horiz-adv-x="913" 
d="M457 1147q-33 0 -58 24l-174 170q-20 20 -20 41t32 55q54 58 101 11l119 -121l118 121q47 47 99 -10q35 -42 35 -60t-21 -37l-174 -170q-24 -24 -57 -24z" />
    <glyph glyph-name="dotaccent" unicode="&#x2d9;" horiz-adv-x="542" 
d="M82 1270v102q0 61 61 62h256q61 0 62 -62v-102q0 -61 -62 -62h-256q-61 1 -61 62z" />
    <glyph glyph-name="ring" unicode="&#x2da;" horiz-adv-x="790" 
d="M328 1327v-45q0 -18 13 -32t32 -13h45q18 0 32 12q13 12 13 33v45q0 21 -13 33t-32 12h-45q-18 0 -32 -13q-13 -14 -13 -32zM205 1257v95q0 57 35 90t88 33h135q55 0 89 -32t34 -91v-95q0 -59 -34 -91t-89 -31h-135q-55 -1 -89 31t-34 91z" />
    <glyph glyph-name="tilde" unicode="&#x2dc;" horiz-adv-x="962" 
d="M205 1311q0 123 133 123q47 0 143 -23t156 -22t104 32l17 13v-113q0 -123 -133 -123q-47 0 -143 23t-160 22q-63 -1 -101 -35l-16 -10v113z" />
    <glyph glyph-name="endash" unicode="&#x2013;" horiz-adv-x="1146" 
d="M82 553v102q0 61 61 62h861q61 0 61 -62v-102q0 -61 -61 -61h-861q-61 0 -61 61z" />
    <glyph glyph-name="emdash" unicode="&#x2014;" horiz-adv-x="1761" 
d="M82 553v102q0 61 61 62h1475q61 0 61 -62v-102q0 -61 -61 -61h-1475q-61 0 -61 61z" />
    <glyph glyph-name="quoteleft" unicode="&#x2018;" horiz-adv-x="409" 
d="M348 1372v-123q0 -61 -61 -61h-164q-61 0 -62 61v123q0 41 17 80l26 68q23 57 93 57h73l-45 -143h62q61 -1 61 -62z" />
    <glyph glyph-name="quoteright" unicode="&#x2019;" horiz-adv-x="409" 
d="M61 1249v123q0 61 62 62h164q61 0 61 -62v-123q0 -41 -16 -80l-27 -67q-23 -57 -92 -58h-74l45 144h-61q-62 0 -62 61z" />
    <glyph glyph-name="quotesinglbase" unicode="&#x201a;" horiz-adv-x="409" 
d="M61 61v123q0 61 62 62h164q61 0 61 -62v-123q0 -41 -16 -79l-27 -68q-23 -57 -92 -57h-74l45 143h-61q-62 0 -62 61z" />
    <glyph glyph-name="quotedblleft" unicode="&#x201c;" horiz-adv-x="757" 
d="M696 1372v-123q0 -61 -61 -61h-164q-61 0 -61 61v123q0 41 16 80l27 68q23 57 92 57h73l-45 -143h62q61 -1 61 -62zM348 1372v-123q0 -61 -61 -61h-164q-61 0 -62 61v123q0 41 17 80l26 68q23 57 93 57h73l-45 -143h62q61 -1 61 -62z" />
    <glyph glyph-name="quotedblright" unicode="&#x201d;" horiz-adv-x="757" 
d="M410 1249v123q0 61 61 62h164q61 0 61 -62v-123q0 -41 -16 -80l-27 -67q-23 -57 -92 -58h-74l45 144h-61q-61 0 -61 61zM61 1249v123q0 61 62 62h164q61 0 61 -62v-123q0 -41 -16 -80l-27 -67q-23 -57 -92 -58h-74l45 144h-61q-62 0 -62 61z" />
    <glyph glyph-name="quotedblbase" unicode="&#x201e;" horiz-adv-x="757" 
d="M410 61v123q0 61 61 62h164q61 0 61 -62v-123q0 -41 -16 -79l-27 -68q-23 -57 -92 -57h-74l45 143h-61q-61 0 -61 61zM61 61v123q0 61 62 62h164q61 0 61 -62v-123q0 -41 -16 -79l-27 -68q-23 -57 -92 -57h-74l45 143h-61q-62 0 -62 61z" />
    <glyph glyph-name="bullet" unicode="&#x2022;" horiz-adv-x="512" 
d="M82 522v164q0 82 82 82h184q82 0 82 -82v-164q0 -82 -82 -82h-184q-82 0 -82 82z" />
    <glyph glyph-name="ellipsis" unicode="&#x2026;" horiz-adv-x="1105" 
d="M758 61v123q0 61 61 62h164q61 0 61 -62v-123q0 -61 -61 -61h-164q-61 0 -61 61zM410 61v123q0 61 61 62h164q61 0 61 -62v-123q0 -61 -61 -61h-164q-61 0 -61 61zM61 61v123q0 61 62 62h164q61 0 61 -62v-123q0 -61 -61 -61h-164q-62 0 -62 61z" />
    <glyph glyph-name="guilsinglleft" unicode="&#x2039;" horiz-adv-x="604" 
d="M502 246q0 -51 -51 -51h-23q-41 0 -86 41l-186 184q-54 49 -54 131t54 135l186 188q37 37 86 37h23q51 0 51 -51v-82l-226 -225l226 -225v-82z" />
    <glyph glyph-name="guilsinglright" unicode="&#x203a;" horiz-adv-x="604" 
d="M102 246v82l226 225l-226 225v82q0 51 52 51h22q49 0 86 -37l187 -188q53 -53 53 -135t-53 -131l-187 -184q-45 -41 -86 -41h-22q-52 0 -52 51z" />
    <glyph glyph-name="Euro" unicode="&#x20ac;" 
d="M1126 225v-225h-696q-92 0 -148 56t-57 149v248h-61q-61 0 -62 61v72q0 61 62 61h61v144h-61q-61 0 -62 61v72q0 61 62 61h61v244q1 92 57 148t148 57h696v-226h-471v-223h369v-194h-369v-144h369v-194h-369v-228h471z" />
    <glyph glyph-name="trademark" unicode="&#x2122;" horiz-adv-x="1452" 
d="M868 819h-127q-88 0 -88 88v414h-174v-502h-157q-39 0 -64 25t-25 63v414h-151v133h762q43 0 63 -45l105 -250l104 250q16 45 64 45h110q80 0 80 -88v-459q0 -88 -88 -88h-127v320l-74 -183q-20 -49 -69 -49t-68 49l-76 183v-320z" />
    </font>
</defs>
</svg>
