<?xml version="1.0" standalone="no"?>
<!DOCTYPE svg PUBLIC "-//W3C//DTD SVG 1.1//EN" "http://www.w3.org/Graphics/SVG/1.1/DTD/svg11.dtd" >
<svg xmlns="http://www.w3.org/2000/svg">
<metadata>
Created by FontPrep 20130207 at Thu Jun 19 23:03:18 2014
 By Diego Escares
Copyright (c) 2011 by Flora Argemi. All rights reserved.
</metadata>
<defs>
<font id="da27dfeb499cc337851142b084eb0f62" horiz-adv-x='1024' >
  <font-face 
    font-family="RakatanNegra"
    font-weight="400"
    font-stretch="normal"
    units-per-em="2048"
    panose-1="2 0 0 0 0 0 0 0 0 0"
    ascent="1536"
    descent="-512"
    x-height="1335"
    cap-height="1331"
    bbox="-102 -360 1855.01 1780"
    underline-thickness="102"
    underline-position="-102"
    unicode-range="U+0020-FB02"
  />
<missing-glyph horiz-adv-x="573" 
 />
    <glyph glyph-name=".notdef" horiz-adv-x="573" 
 />
    <glyph glyph-name=".null" horiz-adv-x="0" 
 />
    <glyph glyph-name="nonmarkingreturn" horiz-adv-x="681" 
 />
    <glyph glyph-name="space" unicode=" " horiz-adv-x="573" 
 />
    <glyph glyph-name="exclam" unicode="!" horiz-adv-x="542" 
d="M121 115q0 77 31 113q32 36 118 36t117 -36t31 -112t-36 -106t-113 -30t-113 30t-35 105zM440 1335q-12 -379 -12 -475t-31 -366l-10 -97l-242 21q-14 295 -14 409l-29 514z" />
    <glyph glyph-name="quotedbl" unicode="&#x22;" horiz-adv-x="604" 
d="M41 1321l238 20q0 -244 -21 -374l-8 -37l-168 -12q0 200 -31 352zM340 1331l223 12q0 -230 -24 -323l-9 -33l-147 -22q0 178 -33 319z" />
    <glyph glyph-name="numbersign" unicode="#" horiz-adv-x="1173" 
d="M485 684l9 -195h184l-8 197zM676 1147l250 16l-8 -254l143 11l8 -220l-154 -8l7 -198l141 4l8 -174l-141 -5l8 -200l-244 -8l-10 204l-184 -4l8 -192l-203 -8l-10 192l-176 -6l-6 195l174 -3l-8 195l-170 -2l-7 231l170 -6l-6 262l236 -8l-13 -260l183 -6z" />
    <glyph glyph-name="dollar" unicode="$" horiz-adv-x="968" 
d="M674 854q-118 0 -176 -35t-58 -90t45 -95t110 -71t131 -65t110 -94q45 -60 45 -140q0 -215 -271 -262l-4 -131l-174 -6l-6 125l-256 10l-18 205q152 -20 243 -21q217 0 217 84q0 72 -143 122q-141 50 -264 145q-61 47 -103 132q-41 85 -41 195q0 166 86 275t238 153
l-8 176l258 9l-6 -154q145 0 227 -23l35 -8l16 -471q-115 35 -233 35z" />
    <glyph glyph-name="percent" unicode="%" horiz-adv-x="1292" 
d="M1001 1354l189 -121l-926 -1260l-143 90zM963 139q88 0 90 133q4 164 -90 164q-57 0 -77 -37t-20 -119t25 -111q25 -30 72 -30zM958 0q-130 0 -200 73t-70 253t73 252t206 72t199 -77q66 -76 65 -249q-1 -324 -273 -324zM336 821q88 0 90 133q4 164 -90 164
q-56 0 -76 -37t-20 -119t24 -111q24 -30 72 -30zM332 682q-129 0 -200 73t-71 253t73 252t206 72t199 -77q66 -76 65 -249q0 -324 -272 -324z" />
    <glyph glyph-name="ampersand" unicode="&#x26;" horiz-adv-x="1073" 
d="M408 264q0 -102 138 -100q68 0 106 42t38 154l-141 -2q-141 -2 -141 -94zM506 -10q-383 0 -383 252q0 59 27 104q43 72 130 101q30 11 44 16h4q-49 12 -98 47q-50 35 -83 78t-59 122q-27 79 -27 175q0 246 114 342t409 104l360 8l-35 -497l-297 -11q-145 -5 -196 -37
t-51 -100q0 -150 321 -149l-6 100l217 21l-4 -115l119 6l-11 -192l-112 -3q-6 -188 -91 -280t-292 -92z" />
    <glyph glyph-name="quotesingle" unicode="'" horiz-adv-x="319" 
d="M41 1321l238 20q0 -244 -21 -374l-8 -37l-168 -12q0 200 -31 352z" />
    <glyph glyph-name="parenleft" unicode="(" horiz-adv-x="722" 
d="M377 643q0 -549 285 -881l-154 -79q-16 13 -46 37t-103 115t-129 197t-102 286t-46 366t32 344t77 258q92 201 169 285l33 33l260 -164q-10 -12 -29 -34q-18 -22 -66 -98q-104 -168 -151 -385q-30 -136 -30 -280z" />
    <glyph glyph-name="parenright" unicode=")" horiz-adv-x="724" 
d="M643 684q0 -186 -44 -364q-44 -176 -106 -288q-125 -226 -231 -315l-45 -34l-156 79q16 16 37 40q20 24 70 105q49 81 85 172t65 244q30 153 30 308t-29 291t-68 224q-84 187 -151 261l-28 33l260 164q12 -12 34 -35t74 -106t94 -179t76 -255t33 -345z" />
    <glyph glyph-name="asterisk" unicode="*" horiz-adv-x="681" 
d="M121 1260l145 83l76 -163l80 166l147 -91l-108 -129l153 15l7 -168l-154 14l98 -123l-131 -84l-90 152l-88 -152l-119 88l96 119l-172 -14l7 160l163 -13z" />
    <glyph glyph-name="plus" unicode="+" horiz-adv-x="862" 
d="M324 649l-9 289l213 -8l-2 -275l275 9l-13 -211l-262 6l11 -279l-218 8l9 273l-267 -8l5 206z" />
    <glyph glyph-name="comma" unicode="," horiz-adv-x="428" 
d="M212 264q155 0 155 -158q0 -133 -45 -192t-95 -86l-61 61q76 45 76 111q-20 -12 -64 -12q-117 0 -117 141q0 61 37 98t114 37z" />
    <glyph glyph-name="hyphen" unicode="-" horiz-adv-x="741" 
d="M674 455l-613 6l11 188l608 21z" />
    <glyph glyph-name="period" unicode="." horiz-adv-x="419" 
d="M61 115q0 77 31 113t118 36t118 -36q30 -36 30 -112t-36 -106t-112 -30q-77 0 -113 30t-36 105z" />
    <glyph glyph-name="slash" unicode="/" horiz-adv-x="802" 
d="M479 1425l262 -36l-465 -1510l-198 23z" />
    <glyph glyph-name="zero" unicode="0" horiz-adv-x="1040" 
d="M523 176q83 0 118 53t39 181l6 249q4 127 -35 187t-128 61q-89 -1 -129 -61t-36 -187l7 -245q4 -129 39 -184q36 -54 119 -54zM523 -20q-239 0 -337 116t-108 400l-15 362q-10 256 104 374q115 118 361 118t350 -121t99 -391l-6 -400q-5 -244 -107 -351t-341 -107z" />
    <glyph glyph-name="one" unicode="1" horiz-adv-x="714" 
d="M131 733l-131 279l412 338l231 -35q-33 -686 -33 -713l15 -596l-258 -24l-27 899z" />
    <glyph glyph-name="two" unicode="2" horiz-adv-x="966" 
d="M926 848q0 -109 -39 -199t-99 -146q-124 -115 -280 -188q-156 -74 -184 -125l522 11l-21 -195l-757 -10q-27 59 -27 154q0 131 135 217l260 159q70 41 100 78t29 92q0 111 -196 119l-312 14l19 510l280 -6q330 -8 450 -110t120 -375z" />
    <glyph glyph-name="three" unicode="3" horiz-adv-x="948" 
d="M551 279q0 43 -47 67t-111 23l-215 8l8 160l160 2q256 4 256 139t-225 141l-311 8l-25 510l307 -6q297 -8 428 -107t131 -360q0 -313 -254 -389q193 -41 193 -215q0 -266 -504 -266q-162 0 -244 10l-30 2l18 199q141 -16 264 -17q201 0 201 91z" />
    <glyph glyph-name="four" unicode="4" horiz-adv-x="1021" 
d="M293 434l305 -8l-6 430zM90 219l-90 305l569 826l320 -33l-29 -893l119 -4l8 -205l-127 6l8 -219l-280 -20l10 243z" />
    <glyph glyph-name="five" unicode="5" horiz-adv-x="980" 
d="M602 291q0 55 -53 81q-54 25 -187 27l-253 4l-68 914l899 26l-31 -497l-551 -15l13 -239l155 -4q162 -4 256 -78t95 -215q0 -303 -504 -303l-223 12l-21 195q315 -30 414 12q59 25 59 80z" />
    <glyph glyph-name="six" unicode="6" horiz-adv-x="985" 
d="M518 336q-92 0 -153 -23q0 -88 46 -126t134 -37q147 0 147 93t-174 93zM537 500q344 0 344 -240q0 -140 -86 -204t-279 -64q-242 0 -358 132t-117 456q0 724 627 753l252 13l24 -525l-196 -6q-201 -6 -292 -91t-96 -247q49 23 177 23z" />
    <glyph glyph-name="seven" unicode="7" horiz-adv-x="919" 
d="M10 1341l877 -28l16 -486l-463 -856l-241 78l415 785l-565 -13z" />
    <glyph glyph-name="eight" unicode="8" 
d="M551 154q184 0 184 96q0 44 -53 68t-131 24q-172 0 -172 -86q0 -62 43 -82t129 -20zM389 700q0 -80 38 -118t129 -39q169 0 169 155q0 76 -38 107t-132 31q-166 0 -166 -136zM958 256q0 -140 -89 -206t-308 -66t-311 74t-92 192q0 74 52 129t124 76q-68 20 -114 48
t-87 78q-80 98 -81 324q-2 225 104 337t395 112t399 -106t109 -334q0 -228 -71 -324t-208 -137q62 -13 120 -65t58 -132z" />
    <glyph glyph-name="nine" unicode="9" horiz-adv-x="1060" 
d="M545 803q-184 0 -185 -133q0 -125 195 -125q112 0 184 24l25 6q0 131 -56 179t-163 49zM514 373q-473 -1 -473 495q0 250 110 363t364 113t372 -98q99 -83 123 -319q10 -99 10 -253q0 -362 -166 -525t-512 -163l-35 170q219 6 324 66q104 60 133 192q-84 -41 -250 -41z
" />
    <glyph glyph-name="colon" unicode=":" horiz-adv-x="419" 
d="M61 795q0 77 31 113t118 36t118 -36q30 -36 30 -112t-36 -106q-36 -31 -112 -31q-77 0 -113 30t-36 106zM61 115q0 77 31 113t118 36t118 -36q30 -36 30 -112t-36 -106t-112 -30q-77 0 -113 30t-36 105z" />
    <glyph glyph-name="semicolon" unicode=";" horiz-adv-x="428" 
d="M61 795q0 77 31 113t118 36t118 -36q30 -36 30 -112t-36 -106q-36 -31 -112 -31q-77 0 -113 30t-36 106zM212 264q155 0 155 -158q0 -133 -45 -192t-95 -86l-61 61q76 45 76 111q-20 -12 -64 -12q-117 0 -117 141q0 61 37 98t114 37z" />
    <glyph glyph-name="less" unicode="&#x3c;" horiz-adv-x="735" 
d="M557 145l-485 326l-11 211l496 354l117 -223l-369 -233l367 -218z" />
    <glyph glyph-name="equal" unicode="=" horiz-adv-x="739" 
d="M670 276l-609 15l9 176l608 25zM670 641l-609 8l9 182l608 25z" />
    <glyph glyph-name="greater" unicode="&#x3e;" horiz-adv-x="735" 
d="M664 471l-486 -326l-115 217l367 218l-369 233l117 223l496 -354z" />
    <glyph glyph-name="question" unicode="?" horiz-adv-x="831" 
d="M127 115q0 150 149 149q147 0 148 -149q0 -135 -148 -135t-149 135zM397 817q0 98 -121 105l-204 10l-11 418l162 -4q295 -8 421 -98t126 -283t-119 -295q-51 -44 -103 -82q-132 -99 -153 -228l-219 15q0 90 35 160q35 71 76 105q110 92 110 177z" />
    <glyph glyph-name="at" unicode="@" horiz-adv-x="1267" 
d="M647 721q-100 0 -100 -146v-83q0 -109 55 -109q39 0 72 38t47 75l12 39l10 159q-45 27 -96 27zM493 -43q-210 0 -314 84q-103 84 -105 260l-11 524q-4 283 113 398t371 104l262 -10q242 -10 326 -122t67 -316l-33 -412q-18 -254 -241 -254q-106 0 -152 49t-51 86l-4 14
q-7 -14 -23 -36t-69 -57q-53 -36 -130 -36q-77 1 -109 59t-32 173v129q0 146 50 206t167 60q47 0 93 -12t65 -25l21 -12l4 49l162 17q-37 -395 -37 -457q0 -84 65 -84q80 0 84 135l10 264q6 139 -52 199t-202 65l-233 11q-309 12 -305 -310l4 -364q2 -246 287 -246
q127 0 250 21l38 8l21 -133q-147 -29 -357 -29z" />
    <glyph glyph-name="A" unicode="A" 
d="M430 926l-129 -545l236 12zM10 39l330 1245l467 47q119 -637 137 -708l156 -562l-488 -79l-41 225l-313 4l-57 -223z" />
    <glyph glyph-name="B" unicode="B" horiz-adv-x="1026" 
d="M647 281q0 45 -49 69t-182 23l-154 -6l-4 -172q45 -7 164 -7t172 24t53 69zM416 827h-144l-10 -276h152q154 0 220 33q66 32 64 104q0 72 -61 106t-221 33zM1006 881q0 -135 -37 -223t-84 -124q-47 -34 -121 -59q82 -25 129 -77t47 -124q0 -150 -129 -216t-395 -62
l-375 4q31 506 31 532l-29 807l395 -8q316 -6 442 -109t126 -341z" />
    <glyph glyph-name="C" unicode="C" horiz-adv-x="935" 
d="M624 -8q-206 0 -338 85q-245 153 -245 619q0 317 141 467t461 166l203 10l39 -538l-187 -10q-174 -8 -256 -81t-82 -214q0 -303 304 -303h151l12 -195q-109 -6 -203 -6z" />
    <glyph glyph-name="D" unicode="D" horiz-adv-x="1009" 
d="M283 471q0 -80 -9 -276q68 -6 103 -7q106 0 167 67q60 67 60 249t-59 250q-60 67 -189 71l-77 2q4 -276 4 -356zM969 659q0 -379 -130 -523t-470 -136l-324 8q23 498 23 524l-27 805l305 -6q194 -4 310 -34q236 -61 287 -310q26 -123 26 -328z" />
    <glyph glyph-name="E" unicode="E" horiz-adv-x="921" 
d="M864 1337l17 -567l-584 6l6 -207h395l-14 -157l-377 4l6 -221l555 -9l-24 -194l-752 8q4 477 4 504l-55 825z" />
    <glyph glyph-name="F" unicode="F" horiz-adv-x="884" 
d="M856 1339l8 -569l-567 6l4 -215h367l-15 -162l-348 4l10 -419l-223 8q4 489 4 516l-55 823z" />
    <glyph glyph-name="G" unicode="G" horiz-adv-x="1009" 
d="M598 -27q-297 1 -421 143t-122 450q1 308 65 468q64 158 202 229t385 76l245 7l27 -519l-272 -10q-170 -6 -251 -86t-81 -250t52 -248t171 -77q82 0 120 24t38 82l-4 64l-187 6l-10 182l397 -10q39 -217 -13 -354q-19 -52 -56 -88t-110 -62t-175 -27z" />
    <glyph glyph-name="H" unicode="H" horiz-adv-x="1026" 
d="M707 1323l278 8l-41 -1347l-239 8q8 201 14 375l-289 4l-10 -387l-379 8q35 594 35 620l-35 711l420 8l-25 -784l289 10q2 31 2 57z" />
    <glyph glyph-name="I" unicode="I" horiz-adv-x="425" 
d="M41 1331l344 -8q-39 -801 -39 -827l35 -504l-289 -8q-29 467 -29 510z" />
    <glyph glyph-name="J" unicode="J" horiz-adv-x="937" 
d="M369 338q1 -106 25 -141t90 -35t90 36t20 140l-12 369l-43 636l356 -12q-14 -580 -14 -631l4 -383q1 -98 -13 -156q-14 -59 -56 -105t-122 -64t-211 -19q-256 0 -346 74t-96 264l-10 295l338 -26v-242z" />
    <glyph glyph-name="K" unicode="K" horiz-adv-x="1040" 
d="M274 -14l-233 16q55 535 55 621l-37 702l234 23l24 -474l428 490l295 -328l-522 -512l440 -356l-163 -213l-482 412z" />
    <glyph glyph-name="L" unicode="L" horiz-adv-x="821" 
d="M426 624q0 -40 -33 -434l418 5l-27 -203l-727 8q33 606 33 633l-49 698l377 10q8 -677 8 -717z" />
    <glyph glyph-name="M" unicode="M" horiz-adv-x="1396" 
d="M41 0l4 1319l422 12l223 -790l266 792l400 -12l-13 -1321l-389 -10l13 745l-205 -536l-324 14l-174 516l-16 -735z" />
    <glyph glyph-name="N" unicode="N" horiz-adv-x="1064" 
d="M1014 1331l10 -1317l-440 -26l-322 852l4 -854l-223 14q20 606 20 641l-22 653l467 31l309 -922l-20 926z" />
    <glyph glyph-name="O" unicode="O" horiz-adv-x="1015" 
d="M727 508q0 188 -39 254t-140 66t-141 -70q-40 -68 -40 -260t45 -258t133 -66t135 73t47 261zM503 -20q-129 0 -217 28q-185 60 -226 338q-19 137 -19 389t44 384q44 133 144 183t301 50q268 0 356 -128t89 -473q-1 -345 -23 -462t-51 -165t-80 -84t-120 -48t-198 -12z
" />
    <glyph glyph-name="P" unicode="P" horiz-adv-x="1032" 
d="M464 498q232 0 232 153q0 78 -46 113t-173 37l-205 4l-8 -301q92 -6 200 -6zM43 1331l455 -6q280 -4 392 -112t111 -400q1 -139 -23 -228t-86 -158t-177 -99t-295 -29l-158 -2l-8 -305l-213 16q31 498 31 524z" />
    <glyph glyph-name="Q" unicode="Q" horiz-adv-x="1015" 
d="M727 508q0 188 -39 254t-140 66t-141 -70q-40 -68 -40 -260t45 -258t133 -66t135 73t47 261zM41 709q0 278 44 410q44 133 144 183t301 50q268 0 356 -128t89 -507q0 -379 -47 -530t-203 -189q19 -99 74 -182l18 -27l-248 -92q-74 102 -120 285q-168 10 -253 78t-120 219
q-35 152 -35 430z" />
    <glyph glyph-name="R" unicode="R" horiz-adv-x="1046" 
d="M487 539q98 0 153 25q54 26 54 119t-54 127t-224 34h-144l-6 -297q123 -8 221 -8zM254 338v-354l-213 20q31 502 31 528l-29 803l494 -6q274 -2 371 -114t98 -386q0 -336 -238 -436l170 -313l-320 -100l-167 358h-197z" />
    <glyph glyph-name="S" unicode="S" horiz-adv-x="929" 
d="M436 702q0 -51 44 -85q44 -33 106 -59t124 -58t106 -90q44 -59 44 -142q0 -150 -96 -214t-373 -64l-235 10l-15 195q338 -24 409 8q42 18 42 59q0 71 -146 125t-262 151q-61 50 -102 141t-41 208q-1 233 117 335t399 109l320 8l12 -516l-268 -8q-185 -7 -185 -113z" />
    <glyph glyph-name="T" unicode="T" horiz-adv-x="1005" 
d="M328 505q0 48 4 306l-312 8l21 506l944 14l-49 -540l-318 6q-12 -201 -12 -311l17 -482l-275 -24q-20 469 -20 517z" />
    <glyph glyph-name="U" unicode="U" horiz-adv-x="1007" 
d="M524 -25q-252 1 -364 101q-113 100 -113 327l2 445l-8 483l442 4l-10 -938q0 -59 5 -95t40 -73t95 -37t94 24q67 48 61 351v19l-6 741l199 -4l4 -834q3 -287 -93 -401t-348 -113z" />
    <glyph glyph-name="V" unicode="V" horiz-adv-x="1136" 
d="M1116 1298l-307 -1298l-428 -12l-361 1310l465 39l205 -1007l211 1009z" />
    <glyph glyph-name="W" unicode="W" horiz-adv-x="1556" 
d="M1464 1313l-155 -1313l-365 -12l-129 551l-139 -537l-383 -12l-232 1294l385 53l144 -1003l155 629l246 8l150 -629l104 993z" />
    <glyph glyph-name="X" unicode="X" horiz-adv-x="1159" 
d="M397 1384l265 -454l258 450l204 -125l-336 -544l351 -559l-381 -220l-252 433l-244 -418l-199 131l314 506l-357 561z" />
    <glyph glyph-name="Y" unicode="Y" horiz-adv-x="1142" 
d="M440 1352l230 -699l241 693l211 -97l-297 -811l4 -438l-493 -16l12 419l-328 824z" />
    <glyph glyph-name="Z" unicode="Z" horiz-adv-x="1030" 
d="M41 1337l948 -16l-24 -485l-535 -623l457 6l6 -213l-774 -10l-6 205l514 622l-566 -10z" />
    <glyph glyph-name="bracketleft" unicode="[" horiz-adv-x="673" 
d="M117 612l-35 928l545 25l6 -154l-250 -16l-6 -774q0 -205 -10 -725l266 -17l-6 -153l-537 24q27 846 27 862z" />
    <glyph glyph-name="backslash" unicode="\" horiz-adv-x="704" 
d="M0 1389l262 36l402 -1523l-199 -23z" />
    <glyph glyph-name="bracketright" unicode="]" horiz-adv-x="673" 
d="M307 -104q-10 520 -10 725l-6 774l-250 16l6 154l545 -25q-4 -232 -19 -571q-16 -340 -16 -346l27 -873l-537 -24l-6 153z" />
    <glyph glyph-name="asciicircum" unicode="^" horiz-adv-x="944" 
d="M102 977l287 362l180 -10l273 -358l-160 -113l-203 279l-207 -275z" />
    <glyph glyph-name="underscore" unicode="_" horiz-adv-x="937" 
d="M870 8l-788 -16l-21 211l816 16z" />
    <glyph glyph-name="grave" unicode="`" horiz-adv-x="765" 
d="M643 1522l-25 -140l-495 84l29 220z" />
    <glyph glyph-name="a" unicode="a" 
d="M430 926l-129 -545l236 12zM10 39l330 1245l467 47q119 -637 137 -708l156 -562l-488 -79l-41 225l-313 4l-57 -223z" />
    <glyph glyph-name="b" unicode="b" horiz-adv-x="1026" 
d="M647 281q0 45 -49 69t-182 23l-154 -6l-4 -172q45 -7 164 -7t172 24t53 69zM416 827h-144l-10 -276h152q154 0 220 33q66 32 64 104q0 72 -61 106t-221 33zM1006 881q0 -135 -37 -223t-84 -124q-47 -34 -121 -59q82 -25 129 -77t47 -124q0 -150 -129 -216t-395 -62
l-375 4q31 506 31 532l-29 807l395 -8q316 -6 442 -109t126 -341z" />
    <glyph glyph-name="c" unicode="c" horiz-adv-x="935" 
d="M624 -8q-206 0 -338 85q-245 153 -245 619q0 317 141 467t461 166l203 10l39 -538l-187 -10q-174 -8 -256 -81t-82 -214q0 -303 304 -303h151l12 -195q-109 -6 -203 -6z" />
    <glyph glyph-name="d" unicode="d" horiz-adv-x="1009" 
d="M283 471q0 -80 -9 -276q68 -6 103 -7q106 0 167 67q60 67 60 249t-59 250q-60 67 -189 71l-77 2q4 -276 4 -356zM969 659q0 -379 -130 -523t-470 -136l-324 8q23 498 23 524l-27 805l305 -6q194 -4 310 -34q236 -61 287 -310q26 -123 26 -328z" />
    <glyph glyph-name="e" unicode="e" horiz-adv-x="921" 
d="M864 1337l17 -567l-584 6l6 -207h395l-14 -157l-377 4l6 -221l555 -9l-24 -194l-752 8q4 477 4 504l-55 825z" />
    <glyph glyph-name="f" unicode="f" horiz-adv-x="884" 
d="M856 1339l8 -569l-567 6l4 -215h367l-15 -162l-348 4l10 -419l-223 8q4 489 4 516l-55 823z" />
    <glyph glyph-name="g" unicode="g" horiz-adv-x="1009" 
d="M598 -27q-297 1 -421 143t-122 450q1 308 65 468q64 158 202 229t385 76l245 7l27 -519l-272 -10q-170 -6 -251 -86t-81 -250t52 -248t171 -77q82 0 120 24t38 82l-4 64l-187 6l-10 182l397 -10q39 -217 -13 -354q-19 -52 -56 -88t-110 -62t-175 -27z" />
    <glyph glyph-name="h" unicode="h" horiz-adv-x="1026" 
d="M707 1323l278 8l-41 -1347l-239 8q8 201 14 375l-289 4l-10 -387l-379 8q35 594 35 620l-35 711l420 8l-25 -784l289 10q2 31 2 57z" />
    <glyph glyph-name="i" unicode="i" horiz-adv-x="425" 
d="M41 1331l344 -8q-39 -801 -39 -827l35 -504l-289 -8q-29 467 -29 510z" />
    <glyph glyph-name="j" unicode="j" horiz-adv-x="937" 
d="M369 338q1 -106 25 -141t90 -35t90 36t20 140l-12 369l-43 636l356 -12q-14 -580 -14 -631l4 -383q1 -98 -13 -156q-14 -59 -56 -105t-122 -64t-211 -19q-256 0 -346 74t-96 264l-10 295l338 -26v-242z" />
    <glyph glyph-name="k" unicode="k" horiz-adv-x="1040" 
d="M274 -14l-233 16q55 535 55 621l-37 702l258 23v-474l428 490l295 -328l-522 -512l440 -356l-163 -213l-482 412z" />
    <glyph glyph-name="l" unicode="l" horiz-adv-x="821" 
d="M426 624q0 -40 -33 -434l418 5l-27 -203l-727 8q33 606 33 633l-49 698l377 10q8 -677 8 -717z" />
    <glyph glyph-name="m" unicode="m" horiz-adv-x="1396" 
d="M41 0l4 1319l422 12l223 -790l266 792l400 -12l-13 -1321l-389 -10l13 745l-205 -536l-324 14l-174 516l-16 -735z" />
    <glyph glyph-name="n" unicode="n" horiz-adv-x="1064" 
d="M1014 1331l10 -1317l-440 -26l-322 852l4 -854l-223 14q20 606 20 641l-22 653l467 31l309 -922l-20 926z" />
    <glyph glyph-name="o" unicode="o" horiz-adv-x="1015" 
d="M727 508q0 188 -39 254t-140 66t-141 -70q-40 -68 -40 -260t45 -258t133 -66t135 73t47 261zM503 -20q-129 0 -217 28q-185 60 -226 338q-19 137 -19 389t44 384q44 133 144 183t301 50q268 0 356 -128t89 -473q-1 -345 -23 -462t-51 -165t-80 -84t-120 -48t-198 -12z
" />
    <glyph glyph-name="p" unicode="p" horiz-adv-x="1032" 
d="M464 498q232 0 232 153q0 78 -46 113t-173 37l-205 4l-8 -301q92 -6 200 -6zM43 1331l455 -6q280 -4 392 -112t111 -400q1 -139 -23 -228t-86 -158t-177 -99t-295 -29l-158 -2l-8 -305l-213 16q31 498 31 524z" />
    <glyph glyph-name="q" unicode="q" horiz-adv-x="1015" 
d="M727 508q0 188 -39 254t-140 66t-141 -70q-40 -68 -40 -260t45 -258t133 -66t135 73t47 261zM41 709q0 278 44 410q44 133 144 183t301 50q268 0 356 -128t89 -507q0 -379 -47 -530t-203 -189q19 -99 74 -182l18 -27l-248 -92q-74 102 -120 285q-168 10 -253 78t-120 219
q-35 152 -35 430z" />
    <glyph glyph-name="r" unicode="r" horiz-adv-x="1046" 
d="M487 539q98 0 153 25q54 26 54 119t-54 127t-224 34h-144l-6 -297q123 -8 221 -8zM254 338v-354l-213 20q31 502 31 528l-29 803l494 -6q274 -2 371 -114t98 -386q0 -336 -238 -436l170 -313l-320 -100l-167 358h-197z" />
    <glyph glyph-name="s" unicode="s" horiz-adv-x="929" 
d="M436 702q0 -51 44 -85q44 -33 106 -59t124 -58t106 -90q44 -59 44 -142q0 -150 -96 -214t-373 -64l-235 10l-15 195q338 -24 409 8q42 18 42 59q0 71 -146 125t-262 151q-61 50 -102 141t-41 208q-1 233 117 335t399 109l320 8l12 -516l-268 -8q-185 -7 -185 -113z" />
    <glyph glyph-name="t" unicode="t" horiz-adv-x="1005" 
d="M328 505q0 48 4 306l-312 8l21 506l944 14l-49 -540l-318 6q-12 -201 -12 -311l17 -482l-275 -24q-20 469 -20 517z" />
    <glyph glyph-name="u" unicode="u" horiz-adv-x="1007" 
d="M524 -25q-252 1 -364 101q-113 100 -113 327l2 445l-8 483l442 4l-10 -938q0 -59 5 -95t40 -73t95 -37t94 24q67 48 61 351v19l-6 741l199 -4l4 -834q3 -287 -93 -401t-348 -113z" />
    <glyph glyph-name="v" unicode="v" horiz-adv-x="1136" 
d="M1116 1298l-307 -1298l-428 -12l-361 1310l465 39l205 -1007l211 1009z" />
    <glyph glyph-name="w" unicode="w" horiz-adv-x="1546" 
d="M1464 1313l-155 -1313l-365 -12l-129 551l-139 -537l-383 -12l-232 1294l385 53l144 -1003l155 629l246 8l150 -629l104 993z" />
    <glyph glyph-name="x" unicode="x" horiz-adv-x="1159" 
d="M397 1384l265 -454l258 450l204 -125l-336 -544l351 -559l-381 -220l-252 433l-244 -418l-199 131l314 506l-357 561z" />
    <glyph glyph-name="y" unicode="y" horiz-adv-x="1142" 
d="M440 1352l230 -699l241 693l211 -97l-297 -811l4 -438l-493 -16l12 419l-328 824z" />
    <glyph glyph-name="z" unicode="z" horiz-adv-x="1030" 
d="M41 1337l948 -16l-24 -485l-535 -623l457 6l6 -213l-774 -10l-6 205l514 622l-566 -10z" />
    <glyph glyph-name="braceleft" unicode="{" horiz-adv-x="800" 
d="M219 920v374q4 117 56 175t188 69l291 21v-152l-150 -12q-135 -12 -139 -170l-8 -355q-2 -59 -24 -107t-64 -82t-76 -42q36 -8 81 -42q89 -68 89 -204l4 -313q2 -90 33 -121t118 -37l142 -10l-10 -150l-299 19q-113 6 -168 69t-58 218l-4 286q-2 223 -160 224l2 149
q156 0 156 193z" />
    <glyph glyph-name="bar" unicode="|" horiz-adv-x="507" 
d="M123 1413l256 -8q-27 -756 -27 -782l33 -709l-223 -8q-10 672 -10 715z" />
    <glyph glyph-name="braceright" unicode="}" horiz-adv-x="800" 
d="M582 920q0 -193 155 -193l2 -149q-158 0 -159 -224l-5 -286q-2 -154 -57 -218t-168 -69l-299 -19l-10 150l141 10q88 6 119 37t33 121l4 313q2 186 164 246q-32 9 -74 43q-78 63 -84 188l-8 355q-4 158 -139 170l-150 12v152l291 -21q135 -10 187 -68t57 -176v-374z" />
    <glyph glyph-name="asciitilde" unicode="~" horiz-adv-x="761" 
d="M233 684q51 0 143 -26t156 -25q63 1 117 33l19 10l32 -184q-134 -98 -372 -33q-92 25 -136 25t-92 -23l-39 180q14 14 67 28q54 15 105 15z" />
    <glyph glyph-name="exclamdown" unicode="&#xa1;" horiz-adv-x="542" 
d="M422 1214q0 -76 -31 -112t-118 -37q-87 0 -117 36q-30 35 -31 111q0 76 36 107q37 31 113 31t112 -30t36 -106zM102 -6l13 469q0 92 41 469l241 -21l15 -409q0 -115 28 -514z" />
    <glyph glyph-name="cent" unicode="&#xa2;" horiz-adv-x="966" 
d="M381 490q0 -144 75 -210t228 -67h152l12 -195q-84 -6 -164 -6l-2 -137l-201 -6l-10 156q-188 32 -299 176t-111 475q1 266 97 410t311 196l-6 184l237 9l-6 -164l172 8l39 -539l-186 -10q-178 -10 -258 -72q-80 -64 -80 -208z" />
    <glyph glyph-name="sterling" unicode="&#xa3;" horiz-adv-x="948" 
d="M84 879q0 246 132 349t435 109l223 4l13 -514l-262 -14q-223 -12 -224 -125q0 -57 25 -123l8 -20l309 10l-8 -184l-268 6q0 -121 -21 -172l-6 -25l375 8l-27 -202l-622 18q0 47 33 171t32 206l-165 4l-5 150l127 4q-39 58 -71 158q-33 100 -33 182z" />
    <glyph glyph-name="currency" unicode="&#xa4;" horiz-adv-x="1249" 
d="M629 766q-156 0 -156 -207t165 -207q159 0 159 207t-168 207zM629 154q-72 0 -131 15t-84 32l-23 16l-125 -160l-194 162l182 199q-31 96 -31 222t21 194l6 22l-189 168l177 193l147 -154q25 25 96 47q143 45 284 7q60 -15 83 -32l22 -14l125 154l193 -185l-172 -159
q37 -82 37 -224t-37 -247l-10 -37l147 -170l-186 -166l-113 166q-63 -49 -225 -49z" />
    <glyph glyph-name="yen" unicode="&#xa5;" horiz-adv-x="1142" 
d="M1032 236l-211 -3l8 -233l-493 -16l6 245l-221 -2l-23 176l248 5l-35 86l-221 -2l-29 206l172 -4l-213 553l420 105l230 -699l241 693l211 -76l-202 -568l161 7l-26 -205l-207 -2l-31 -88l230 4z" />
    <glyph glyph-name="brokenbar" unicode="&#xa6;" horiz-adv-x="616" 
d="M356 508l29 -594l-223 -8l-8 610zM379 1405l-23 -651l-209 8l-24 651z" />
    <glyph glyph-name="section" unicode="&#xa7;" horiz-adv-x="1011" 
d="M344 172q162 0 162 80q0 33 -46 77t-112 97q-66 52 -130 116t-110 157t-47 196q0 231 154 333t473 103l209 -2l-39 -305l-176 -4q-178 -4 -178 -92q0 -41 46 -89q46 -49 112 -101t132 -111t110 -145q46 -86 46 -177q0 -219 -146 -300t-448 -81q-109 0 -184 13l-29 4
l25 249q90 -18 176 -18zM264 898q0 -149 114 -249q156 -133 207 -181t83 -122t32 -164q58 37 58 114q1 136 -115 242q-138 124 -211 194q-49 48 -82 119t-33 150q-53 -23 -53 -103z" />
    <glyph glyph-name="dieresis" unicode="&#xa8;" horiz-adv-x="806" 
d="M232 1405q-76 -1 -104 29t-28 99t25 101t105 31q80 0 107 -33q25 -32 25 -104t-26 -98t-104 -25zM574 1405q-78 0 -104 27q-26 26 -26 94t27 104t107 35q80 0 105 -31q24 -31 24 -101t-28 -99t-105 -29z" />
    <glyph glyph-name="copyright" unicode="&#xa9;" horiz-adv-x="1085" 
d="M195 815q0 -403 358 -403q197 0 277 102t81 301q0 199 -80 293t-273 94t-278 -96t-85 -291zM61 812q0 255 122 397t370 143q491 0 491 -534t-491 -535q-240 0 -366 137t-126 392zM285 807q0 303 331 313l125 4l21 -252l-109 -8q-67 -6 -105 -41t-38 -88t42 -84t97 -35
l96 -4l-8 -120q-76 -6 -112 -7q-340 0 -340 322z" />
    <glyph glyph-name="ordfeminine" unicode="&#xaa;" horiz-adv-x="876" 
d="M365 1108l-78 -311l149 10zM68 575l213 736l299 22q88 -371 94 -411l114 -332l-296 -49l-35 145h-199l-37 -141zM88 309l-20 148l720 14l-16 -174z" />
    <glyph glyph-name="guillemotleft" unicode="&#xab;" horiz-adv-x="829" 
d="M291 102l-291 416l291 416l155 -119l-225 -297l225 -297zM612 102l-290 416l290 416l176 -119l-225 -297l225 -297z" />
    <glyph glyph-name="logicalnot" unicode="&#xac;" horiz-adv-x="858" 
d="M797 283l-234 -4l4 192l-506 6l5 193l727 16z" />
    <glyph glyph-name="registered" unicode="&#xae;" horiz-adv-x="1105" 
d="M195 815q0 -403 358 -403q197 0 277 102t81 301q0 199 -80 293t-273 94t-278 -96t-85 -291zM477 897v-143q29 -4 76 -4q119 0 119 86q0 31 -26 46t-109 15h-60zM586 1110q252 0 252 -229q0 -129 -81 -174q-18 -11 -44 -15l69 -147l-164 -64l-79 176l-62 -4l-6 -155
l-129 6q-6 258 -6 272l-17 322q147 12 267 12zM61 812q0 255 122 397t370 143q491 0 491 -534t-491 -535q-240 0 -366 137t-126 392z" />
    <glyph glyph-name="degree" unicode="&#xb0;" horiz-adv-x="698" 
d="M227 1010q0 -60 35 -94t86 -33q51 0 90 36t39 90t-32 95t-91 41t-93 -37q-34 -38 -34 -98zM350 719q-131 0 -215 79t-84 225t81 228t221 82t217 -84t77 -223t-83 -223t-214 -84z" />
    <glyph glyph-name="plusminus" unicode="&#xb1;" horiz-adv-x="862" 
d="M336 911l-8 252l188 -8l-2 -237l246 8l-8 -187l-238 6l10 -253l-192 8l8 248l-238 -9l2 183zM719 236l-580 6l11 164l575 20z" />
    <glyph glyph-name="twosuperior" unicode="&#xb2;" horiz-adv-x="585" 
d="M35 633q0 78 82 131l155 96q78 47 78 101q0 66 -119 71l-186 8l12 308l168 -5q199 -4 271 -65t71 -225q-1 -79 -33 -139t-81 -97t-99 -65t-94 -51q-43 -24 -55 -44l313 7l-12 -117l-455 -6q-16 37 -16 92z" />
    <glyph glyph-name="threesuperior" unicode="&#xb3;" horiz-adv-x="589" 
d="M340 713q0 27 -29 40t-65 13l-129 4l4 96l96 2q154 0 154 83t-135 85l-187 4l-14 308l184 -5q176 -4 255 -64t79 -216q0 -186 -152 -234q115 -23 115 -129q0 -160 -301 -159l-166 8l12 119q84 -10 158 -11q121 0 121 56z" />
    <glyph glyph-name="acute" unicode="&#xb4;" horiz-adv-x="782" 
d="M147 1382l-24 140l508 166l28 -220z" />
    <glyph glyph-name="mu" unicode="&#xb5;" horiz-adv-x="1396" 
d="M41 0l4 1319l422 12l223 -790l266 792l400 -12l-13 -1321l-389 -10l13 745l-205 -536l-324 14l-174 516l-16 -735z" />
    <glyph glyph-name="mu" unicode="&#x3bc;" horiz-adv-x="1396" 
d="M41 0l4 1319l422 12l223 -790l266 792l400 -12l-13 -1321l-389 -10l13 745l-205 -536l-324 14l-174 516l-16 -735z" />
    <glyph glyph-name="paragraph" unicode="&#xb6;" horiz-adv-x="950" 
d="M889 1311l-47 -817q0 -27 28 -465l-153 -17l-31 488q0 43 21 823zM616 1323q-29 -764 -28 -791l30 -528l-174 -14l-8 516q-375 0 -373 407q3 207 91 300t266 102z" />
    <glyph glyph-name="periodcentered" unicode="&#xb7;" horiz-adv-x="419" 
d="M61 555q0 76 31 113t118 37t118 -36q30 -36 30 -112q0 -77 -36 -107t-112 -30q-77 0 -113 30t-36 105z" />
    <glyph glyph-name="cedilla" unicode="&#xb8;" horiz-adv-x="583" 
d="M221 -219q88 0 88 42t-73 46l-76 4l57 145l113 -2l-37 -82q168 0 168 -112q0 -70 -50 -112t-125 -42q-130 0 -169 31l-15 10l31 92q33 -20 88 -20z" />
    <glyph glyph-name="onesuperior" unicode="&#xb9;" horiz-adv-x="509" 
d="M111 983l-78 166l246 203l139 -21q-18 -412 -19 -428l9 -356l-156 -15l-16 539z" />
    <glyph glyph-name="ordmasculine" unicode="&#xba;" horiz-adv-x="770" 
d="M295 836q0 -160 108 -160q55 0 80 32t25 132t-23 139t-85 39t-84 -41q-21 -41 -21 -141zM396 528q-152 0 -238 92t-86 316q0 225 73 307q74 82 247 82t238 -83q64 -82 64 -314t-74 -316t-224 -84zM94 319l-20 146l620 12l-14 -170z" />
    <glyph glyph-name="guillemotright" unicode="&#xbb;" horiz-adv-x="829" 
d="M829 518l-290 -416l-156 119l225 297l-225 297l156 119zM508 518l-291 -416l-176 119l225 297l-225 297l176 119z" />
    <glyph glyph-name="onequarter" unicode="&#xbc;" horiz-adv-x="1513" 
d="M969 1395l192 -90l-719 -1383l-151 47zM150 989l-78 166l245 203l140 -21q-18 -412 -19 -428l8 -356l-155 -14l-17 538zM915 195l185 -5l-4 259zM795 66l-56 184l342 493l193 -18l-19 -537l72 -2l6 -123l-78 5l7 -131l-168 -13l6 146z" />
    <glyph glyph-name="onehalf" unicode="&#xbd;" horiz-adv-x="1570" 
d="M150 989l-78 166l245 203l140 -21q-18 -412 -19 -428l8 -356l-155 -14l-17 538zM899 16q0 78 82 131l156 97q78 47 77 100q0 66 -118 72l-187 8l13 307l168 -4q198 -4 270 -65t72 -218t-115 -243q-65 -49 -193 -116q-43 -24 -55 -44l313 6l-12 -117l-455 -6
q-16 37 -16 92zM948 1395l193 -90l-719 -1383l-152 47z" />
    <glyph glyph-name="threequarters" unicode="&#xbe;" horiz-adv-x="1460" 
d="M915 195l185 -5l-4 259zM795 66l-56 184l342 493l193 -18l-19 -537l72 -2l6 -123l-78 5l7 -131l-168 -13l6 146zM375 754q0 27 -29 40t-65 13l-129 4l4 96l96 2q154 0 154 83t-136 85l-186 4l-14 308l184 -5q176 -4 255 -64t79 -216q0 -186 -152 -234q115 -23 115 -129
q0 -160 -301 -159l-166 8l12 119q84 -10 158 -11q121 0 121 56zM969 1395l192 -90l-719 -1383l-151 47z" />
    <glyph glyph-name="questiondown" unicode="&#xbf;" horiz-adv-x="831" 
d="M705 1202q0 -150 -150 -149q-147 0 -147 149q0 135 148 135t149 -135zM434 500q0 -98 121 -105l205 -10l10 -418l-162 4q-295 7 -421 97t-126 283t119 295q52 44 104 83q132 98 152 227l219 -14q-1 -90 -35 -160t-75 -104q-111 -94 -111 -178z" />
    <glyph glyph-name="Agrave" unicode="&#xc0;" 
d="M430 926l-129 -545l236 12zM840 1526l-25 -140l-496 84l29 220zM10 39l330 1245l467 47q119 -637 137 -708l156 -562l-488 -79l-41 225l-313 4l-57 -223z" />
    <glyph glyph-name="Aacute" unicode="&#xc1;" 
d="M430 926l-129 -545l236 12zM328 1386l-25 140l508 166l29 -219zM10 39l330 1245l467 47q119 -637 137 -708l156 -562l-488 -79l-41 225l-313 4l-57 -223z" />
    <glyph glyph-name="Acircumflex" unicode="&#xc2;" 
d="M332 1386l-33 150l274 176l275 -176l-33 -150l-242 113zM430 926l-129 -545l236 12zM10 39l330 1245l467 47q119 -637 137 -708l156 -562l-488 -79l-41 225l-313 4l-57 -223z" />
    <glyph glyph-name="Atilde" unicode="&#xc3;" 
d="M430 926l-129 -545l236 12zM458 1655q38 0 140 -28t164 -28t123 29l20 10l-14 -208q-68 -37 -147 -37t-178 40t-151 40t-120 -37l-25 -13l-28 142l4 4q2 4 19 21q65 65 193 65zM10 39l330 1245l467 47q119 -637 137 -708l156 -562l-488 -79l-41 225l-313 4l-57 -223z" />
    <glyph glyph-name="Adieresis" unicode="&#xc4;" 
d="M276 1533q0 69 25 101t106 31q81 0 107 -33q26 -32 25 -104q0 -72 -27 -98q-28 -26 -104 -25q-76 -1 -104 29t-28 99zM621 1526q1 68 27 104t107 35q81 0 105 -31t23 -101q0 -70 -28 -99q-29 -29 -105 -29t-103 27q-26 26 -26 94zM430 926l-129 -545l236 12zM10 39
l330 1245l467 47q119 -637 137 -708l156 -562l-488 -79l-41 225l-313 4l-57 -223z" />
    <glyph glyph-name="Aring" unicode="&#xc5;" 
d="M496 1561q0 -33 22 -56t56 -23q32 0 55 24q23 22 22 55t-23 55t-55 22t-55 -22t-22 -55zM572 1386q-85 0 -142 50t-57 145t55 147t146 52q92 0 144 -50t52 -144t-56 -148q-56 -52 -142 -52zM430 926l-129 -545l236 12zM10 39l330 1245l467 47q119 -637 137 -708l156 -562
l-488 -79l-41 225l-313 4l-57 -223z" />
    <glyph glyph-name="AE" unicode="&#xc6;" horiz-adv-x="1409" 
d="M430 926l-129 -545l236 12zM1352 1337l16 -567l-494 4q23 -131 44 -205h268l-15 -157l-210 2l61 -224l334 -4l-25 -194l-719 -6l-41 221l-313 4l-57 -223l-191 51l330 1245z" />
    <glyph glyph-name="Ccedilla" unicode="&#xc7;" horiz-adv-x="935" 
d="M440 -219q88 0 88 42t-73 46l-76 4l55 139q-393 98 -393 684q0 317 141 467t461 166l203 10l39 -538l-187 -10q-174 -8 -256 -81t-82 -214q0 -303 304 -303h151l12 -195q-109 -6 -168 -6t-120 4l-27 -62q168 0 168 -112q0 -70 -50 -112t-125 -42q-130 0 -169 31l-14 10
l30 92q33 -20 88 -20z" />
    <glyph glyph-name="Egrave" unicode="&#xc8;" horiz-adv-x="921" 
d="M705 1532l-25 -139l-496 84l29 219zM864 1337l17 -567l-584 6l6 -207h395l-14 -157l-377 4l6 -221l555 -9l-24 -194l-752 8q4 477 4 504l-55 825z" />
    <glyph glyph-name="Eacute" unicode="&#xc9;" horiz-adv-x="921" 
d="M270 1393l-24 139l508 166l28 -219zM864 1337l17 -567l-584 6l6 -207h395l-14 -157l-377 4l6 -221l555 -9l-24 -194l-752 8q4 477 4 504l-55 825z" />
    <glyph glyph-name="Ecircumflex" unicode="&#xca;" horiz-adv-x="921" 
d="M233 1386l-32 150l274 176l275 -176l-33 -150l-242 113zM864 1337l17 -567l-584 6l6 -207h395l-14 -157l-377 4l6 -221l555 -9l-24 -194l-752 8q4 477 4 504l-55 825z" />
    <glyph glyph-name="Edieresis" unicode="&#xcb;" horiz-adv-x="921" 
d="M312 1405q-76 -1 -104 29t-28 99t25 101t105 31q80 0 107 -33q25 -32 25 -104t-26 -98t-104 -25zM654 1405q-78 0 -104 27q-26 26 -26 94t27 104t107 35q80 0 105 -31q23 -31 23 -101t-28 -99t-104 -29zM864 1337l17 -567l-584 6l6 -207h395l-14 -157l-377 4l6 -221
l555 -9l-24 -194l-752 8q4 477 4 504l-55 825z" />
    <glyph glyph-name="Igrave" unicode="&#xcc;" horiz-adv-x="428" 
d="M418 1526l-25 -140l-495 84l28 220zM43 1331l344 -8q-39 -801 -39 -827l35 -504l-289 -8q-29 467 -28 510z" />
    <glyph glyph-name="Iacute" unicode="&#xcd;" horiz-adv-x="423" 
d="M35 1386l-25 140l508 166l29 -219zM385 1323l-39 -827q0 -27 35 -504l-289 -8l-29 510q0 43 -22 837z" />
    <glyph glyph-name="Icircumflex" unicode="&#xce;" horiz-adv-x="425" 
d="M-29 1386l-32 150l274 176l274 -176l-32 -150l-242 113zM381 1323l-39 -827q0 -27 35 -504l-289 -8l-29 510q0 43 -22 837z" />
    <glyph glyph-name="Idieresis" unicode="&#xcf;" horiz-adv-x="421" 
d="M50 1405q-76 -1 -104 29t-28 99t25 101t105 31q80 0 107 -33q25 -32 25 -104t-26 -98t-104 -25zM392 1405q-78 0 -104 27q-26 26 -26 94t27 104t107 35q80 0 105 -31q23 -31 23 -101t-28 -99t-104 -29zM383 1323l-39 -827q0 -27 35 -504l-289 -8l-29 510q0 43 -22 837z
" />
    <glyph glyph-name="Eth" unicode="&#xd0;" horiz-adv-x="1040" 
d="M387 825l-78 2l4 -258l189 4l-21 -167l-170 4l-6 -215q53 -6 103 -7q106 0 166 67t60 249t-58 250q-60 68 -189 71zM96 565l-24 772l305 -6q365 -4 500 -174q71 -88 97 -205t25 -293q0 -379 -130 -523t-470 -136l-323 8l18 406l-51 2l-12 149h65z" />
    <glyph glyph-name="Ntilde" unicode="&#xd1;" horiz-adv-x="1064" 
d="M452 1655q38 0 140 -28t164 -28t123 29l20 10l-14 -208q-68 -37 -147 -37t-178 40t-149 40t-124 -37l-23 -13l-28 142l2 4l21 21q65 65 193 65zM1014 1331l10 -1317l-440 -26l-322 852l4 -854l-223 14q20 606 20 641l-22 653l467 31l309 -922l-20 926z" />
    <glyph glyph-name="Ograve" unicode="&#xd2;" horiz-adv-x="1015" 
d="M743 1532l-24 -139l-496 84l29 219zM727 508q0 188 -39 254t-140 66t-141 -70q-40 -68 -40 -260t45 -258t133 -66t135 73t47 261zM503 -20q-129 0 -217 28q-185 60 -226 338q-19 137 -19 389t44 384q44 133 144 183t301 50q268 0 356 -128t89 -473q-1 -345 -23 -462
t-51 -165t-80 -84t-120 -48t-198 -12z" />
    <glyph glyph-name="Oacute" unicode="&#xd3;" horiz-adv-x="1015" 
d="M289 1393l-25 139l508 166l29 -219zM727 508q0 188 -39 254t-140 66t-141 -70q-40 -68 -40 -260t45 -258t133 -66t135 73t47 261zM503 -20q-129 0 -217 28q-185 60 -226 338q-19 137 -19 389t44 384q44 133 144 183t301 50q268 0 356 -128t89 -473q-1 -345 -23 -462
t-51 -165t-80 -84t-120 -48t-198 -12z" />
    <glyph glyph-name="Ocircumflex" unicode="&#xd4;" horiz-adv-x="1015" 
d="M268 1393l-32 149l274 176l274 -176l-32 -149l-242 112zM727 508q0 188 -39 254t-140 66t-141 -70q-40 -68 -40 -260t45 -258t133 -66t135 73t47 261zM503 -20q-129 0 -217 28q-185 60 -226 338q-19 137 -19 389t44 384q44 133 144 183t301 50q268 0 356 -128t89 -473
q-1 -345 -23 -462t-51 -165t-80 -84t-120 -48t-198 -12z" />
    <glyph glyph-name="Otilde" unicode="&#xd5;" horiz-adv-x="1015" 
d="M397 1671q37 1 139 -27t169 -28q66 0 118 29l21 10l-15 -209q-69 -37 -147 -37t-177 40t-153 40t-119 -37l-24 -12l-29 141l4 4q2 4 20 22q64 64 193 64zM727 508q0 188 -39 254t-140 66t-141 -70q-40 -68 -40 -260t45 -258t133 -66t135 73t47 261zM503 -20
q-129 0 -217 28q-185 60 -226 338q-19 137 -19 389t44 384q44 133 144 183t301 50q268 0 356 -128t89 -473q-1 -345 -23 -462t-51 -165t-80 -84t-120 -48t-198 -12z" />
    <glyph glyph-name="Odieresis" unicode="&#xd6;" horiz-adv-x="1015" 
d="M353 1405q-77 -1 -105 29t-27 99q0 69 25 101q26 32 106 31q80 0 106 -33q26 -32 26 -104t-28 -98q-26 -26 -103 -25zM695 1405q-77 0 -103 27q-26 26 -27 94q0 68 27 104q28 36 108 35q80 0 104 -31t24 -101t-28 -99t-105 -29zM727 508q0 188 -39 254t-140 66t-141 -70
q-40 -68 -40 -260t45 -258t133 -66t135 73t47 261zM503 -20q-129 0 -217 28q-185 60 -226 338q-19 137 -19 389t44 384q44 133 144 183t301 50q268 0 356 -128t89 -473q-1 -345 -23 -462t-51 -165t-80 -84t-120 -48t-198 -12z" />
    <glyph glyph-name="multiply" unicode="&#xd7;" horiz-adv-x="860" 
d="M293 551l-232 225l144 154l233 -238l203 230l158 -148l-215 -233l207 -195l-150 -160l-207 220l-198 -226l-160 146z" />
    <glyph glyph-name="Oslash" unicode="&#xd8;" horiz-adv-x="1017" 
d="M735 492q0 200 -40 268q-41 68 -147 68t-144 -67q-38 -66 -37 -263q0 -197 41 -260q40 -64 148 -64t144 59t35 259zM551 1343q117 0 199 -26l81 149l166 -102l-98 -178q64 -64 68 -588q0 -365 -89 -492t-339 -126q-172 0 -236 32l-24 11l-91 -166l-168 102l109 201
q-29 43 -53 169q-25 127 -25 281t6 262q13 226 80 331q68 106 223 129q74 11 191 11z" />
    <glyph glyph-name="Ugrave" unicode="&#xd9;" horiz-adv-x="1007" 
d="M795 1532l-25 -139l-496 84l29 219zM524 -25q-252 1 -364 101q-113 100 -113 327l2 445l-8 483l442 4l-10 -938q0 -59 5 -95t40 -73t95 -37t94 24q67 48 61 351v19l-6 741l199 -4l4 -834q3 -287 -93 -401t-348 -113z" />
    <glyph glyph-name="Uacute" unicode="&#xda;" horiz-adv-x="1007" 
d="M356 1393l-24 139l508 166l28 -219zM524 -25q-252 1 -364 101q-113 100 -113 327l2 445l-8 483l442 4l-10 -938q0 -59 5 -95t40 -73t95 -37t94 24q67 48 61 351v19l-6 741l199 -4l4 -834q3 -287 -93 -401t-348 -113z" />
    <glyph glyph-name="Ucircumflex" unicode="&#xdb;" horiz-adv-x="1007" 
d="M375 1393l-33 149l274 176l275 -176l-33 -149l-242 112zM524 -25q-252 1 -364 101q-113 100 -113 327l2 445l-8 483l442 4l-10 -938q0 -59 5 -95t40 -73t95 -37t94 24q67 48 61 351v19l-6 741l199 -4l4 -834q3 -287 -93 -401t-348 -113z" />
    <glyph glyph-name="Udieresis" unicode="&#xdc;" horiz-adv-x="1007" 
d="M326 1533q0 69 24 101t106 31q80 0 106 -33q26 -32 26 -104t-27 -98t-103 -25q-76 -1 -104 29t-28 99zM670 1526q0 68 26 104t108 35q80 0 104 -31t24 -101t-28 -99t-104 -29t-104 27q-26 26 -26 94zM524 -25q-252 1 -364 101q-113 100 -113 327l2 445l-8 483l442 4
l-10 -938q0 -59 5 -95t40 -73t95 -37t94 24q67 48 61 351v19l-6 741l199 -4l4 -834q3 -287 -93 -401t-348 -113z" />
    <glyph glyph-name="Yacute" unicode="&#xdd;" horiz-adv-x="1142" 
d="M446 1393l-24 139l508 166l28 -219zM440 1352l230 -699l241 693l211 -97l-297 -811l4 -438l-493 -16l12 419l-328 824z" />
    <glyph glyph-name="Thorn" unicode="&#xde;" horiz-adv-x="1042" 
d="M464 385q122 0 177 32q55 31 55 109t-40 114t-152 38l-232 2l-8 -291q78 -4 200 -4zM420 184h-158l-8 -192l-213 16q31 498 31 524l-29 799l240 -2l-7 -143l222 -4q274 -4 389 -115t114 -377q1 -139 -23 -227q-53 -199 -263 -250q-115 -29 -295 -29z" />
    <glyph glyph-name="germandbls" unicode="&#xdf;" horiz-adv-x="1880" 
d="M1366 702q0 -51 44 -85q44 -33 106 -59t123 -58q63 -32 107 -90q44 -59 44 -142q0 -150 -96 -214t-373 -64l-236 10l-14 195q338 -24 409 8q42 18 42 59q0 72 -146 125t-262 151q-61 50 -102 141t-41 208q-1 233 117 335t399 109l319 8l13 -516l-269 -8
q-184 -7 -184 -113zM436 702q0 -51 44 -85q44 -33 106 -59t124 -58t106 -90q44 -59 44 -142q0 -150 -96 -214t-373 -64l-235 10l-15 195q338 -24 409 8q42 18 42 59q0 71 -146 125t-262 151q-61 50 -102 141t-41 208q-1 233 117 335t399 109l320 8l12 -516l-268 -8
q-185 -7 -185 -113z" />
    <glyph glyph-name="agrave" unicode="&#xe0;" 
d="M430 926l-129 -545l236 12zM840 1526l-25 -140l-496 84l29 220zM10 39l330 1245l467 47q119 -637 137 -708l156 -562l-488 -79l-41 225l-313 4l-57 -223z" />
    <glyph glyph-name="aacute" unicode="&#xe1;" 
d="M430 926l-129 -545l236 12zM328 1386l-25 140l508 166l29 -219zM10 39l330 1245l467 47q119 -637 137 -708l156 -562l-488 -79l-41 225l-313 4l-57 -223z" />
    <glyph glyph-name="acircumflex" unicode="&#xe2;" 
d="M332 1386l-33 150l274 176l275 -176l-33 -150l-242 113zM430 926l-129 -545l236 12zM10 39l330 1245l467 47q119 -637 137 -708l156 -562l-488 -79l-41 225l-313 4l-57 -223z" />
    <glyph glyph-name="atilde" unicode="&#xe3;" 
d="M430 926l-129 -545l236 12zM458 1655q38 0 140 -28t164 -28t123 29l20 10l-14 -208q-68 -37 -147 -37t-178 40t-151 40t-120 -37l-25 -13l-28 142l4 4q2 4 19 21q65 65 193 65zM10 39l330 1245l467 47q119 -637 137 -708l156 -562l-488 -79l-41 225l-313 4l-57 -223z" />
    <glyph glyph-name="adieresis" unicode="&#xe4;" horiz-adv-x="1103" 
d="M276 1533q0 69 25 101t106 31q81 0 107 -33q26 -32 25 -104q0 -72 -27 -98q-28 -26 -104 -25q-76 -1 -104 29t-28 99zM621 1526q1 68 27 104t107 35q81 0 105 -31t23 -101q0 -70 -28 -99q-29 -29 -105 -29t-103 27q-26 26 -26 94zM430 926l-129 -545l236 12zM10 39
l330 1245l467 47q119 -637 137 -708l156 -562l-488 -79l-41 225l-313 4l-57 -223z" />
    <glyph glyph-name="aring" unicode="&#xe5;" 
d="M496 1561q0 -33 22 -56t56 -23q32 0 55 24q23 22 22 55t-23 55t-55 22t-55 -22t-22 -55zM572 1386q-85 0 -142 50t-57 145t55 147t146 52q92 0 144 -50t52 -144t-56 -148q-56 -52 -142 -52zM430 926l-129 -545l236 12zM10 39l330 1245l467 47q119 -637 137 -708l156 -562
l-488 -79l-41 225l-313 4l-57 -223z" />
    <glyph glyph-name="ae" unicode="&#xe6;" horiz-adv-x="1409" 
d="M430 926l-129 -545l236 12zM1352 1337l16 -567l-494 4q23 -131 44 -205h268l-15 -157l-210 2l61 -224l334 -4l-25 -194l-719 -6l-41 221l-313 4l-57 -223l-191 51l330 1245z" />
    <glyph glyph-name="ccedilla" unicode="&#xe7;" horiz-adv-x="935" 
d="M440 -219q88 0 88 42t-73 46l-76 4l55 139q-393 98 -393 684q0 317 141 467t461 166l203 10l39 -538l-187 -10q-174 -8 -256 -81t-82 -214q0 -303 304 -303h151l12 -195q-109 -6 -168 -6t-120 4l-27 -62q168 0 168 -112q0 -70 -50 -112t-125 -42q-130 0 -169 31l-14 10
l30 92q33 -20 88 -20z" />
    <glyph glyph-name="egrave" unicode="&#xe8;" horiz-adv-x="921" 
d="M705 1532l-25 -139l-496 84l29 219zM864 1337l17 -567l-584 6l6 -207h395l-14 -157l-377 4l6 -221l555 -9l-24 -194l-752 8q4 477 4 504l-55 825z" />
    <glyph glyph-name="eacute" unicode="&#xe9;" horiz-adv-x="921" 
d="M270 1393l-24 139l508 166l28 -219zM864 1337l17 -567l-584 6l6 -207h395l-14 -157l-377 4l6 -221l555 -9l-24 -194l-752 8q4 477 4 504l-55 825z" />
    <glyph glyph-name="ecircumflex" unicode="&#xea;" horiz-adv-x="921" 
d="M233 1386l-32 150l274 176l275 -176l-33 -150l-242 113zM864 1337l17 -567l-584 6l6 -207h395l-14 -157l-377 4l6 -221l555 -9l-24 -194l-752 8q4 477 4 504l-55 825z" />
    <glyph glyph-name="edieresis" unicode="&#xeb;" horiz-adv-x="921" 
d="M312 1405q-76 -1 -104 29t-28 99t25 101t105 31q80 0 107 -33q25 -32 25 -104t-26 -98t-104 -25zM654 1405q-78 0 -104 27q-26 26 -26 94t27 104t107 35q80 0 105 -31q23 -31 23 -101t-28 -99t-104 -29zM864 1337l17 -567l-584 6l6 -207h395l-14 -157l-377 4l6 -221
l555 -9l-24 -194l-752 8q4 477 4 504l-55 825z" />
    <glyph glyph-name="igrave" unicode="&#xec;" horiz-adv-x="428" 
d="M418 1526l-25 -140l-495 84l28 220zM43 1331l344 -8q-39 -801 -39 -827l35 -504l-289 -8q-29 467 -28 510z" />
    <glyph glyph-name="iacute" unicode="&#xed;" horiz-adv-x="423" 
d="M35 1386l-25 140l508 166l29 -219zM385 1323l-39 -827q0 -27 35 -504l-289 -8l-29 510q0 43 -22 837z" />
    <glyph glyph-name="icircumflex" unicode="&#xee;" horiz-adv-x="425" 
d="M-29 1386l-32 150l274 176l274 -176l-32 -150l-242 113zM381 1323l-39 -827q0 -27 35 -504l-289 -8l-29 510q0 43 -22 837z" />
    <glyph glyph-name="idieresis" unicode="&#xef;" horiz-adv-x="442" 
d="M50 1405q-76 -1 -104 29t-28 99t25 101t105 31q80 0 107 -33q25 -32 25 -104t-26 -98t-104 -25zM392 1405q-78 0 -104 27q-26 26 -26 94t27 104t107 35q80 0 105 -31q23 -31 23 -101t-28 -99t-104 -29zM383 1323l-39 -827q0 -27 35 -504l-289 -8l-29 510q0 43 -22 837z
" />
    <glyph glyph-name="eth" unicode="&#xf0;" horiz-adv-x="1040" 
d="M387 825l-78 2l4 -258l189 4l-21 -167l-170 4l-6 -215q53 -6 103 -7q106 0 166 67t60 249t-58 250q-60 68 -189 71zM96 565l-24 772l305 -6q365 -4 500 -174q71 -88 97 -205t25 -293q0 -379 -130 -523t-470 -136l-323 8l18 406l-51 2l-12 149h65z" />
    <glyph glyph-name="ntilde" unicode="&#xf1;" horiz-adv-x="1064" 
d="M452 1655q38 0 140 -28t164 -28t123 29l20 10l-14 -208q-68 -37 -147 -37t-178 40t-149 40t-124 -37l-23 -13l-28 142l2 4l21 21q65 65 193 65zM1014 1331l10 -1317l-440 -26l-322 852l4 -854l-223 14q20 606 20 641l-22 653l467 31l309 -922l-20 926z" />
    <glyph glyph-name="ograve" unicode="&#xf2;" horiz-adv-x="1015" 
d="M743 1532l-24 -139l-496 84l29 219zM727 508q0 188 -39 254t-140 66t-141 -70q-40 -68 -40 -260t45 -258t133 -66t135 73t47 261zM503 -20q-129 0 -217 28q-185 60 -226 338q-19 137 -19 389t44 384q44 133 144 183t301 50q268 0 356 -128t89 -473q-1 -345 -23 -462
t-51 -165t-80 -84t-120 -48t-198 -12z" />
    <glyph glyph-name="oacute" unicode="&#xf3;" horiz-adv-x="1015" 
d="M289 1393l-25 139l508 166l29 -219zM727 508q0 188 -39 254t-140 66t-141 -70q-40 -68 -40 -260t45 -258t133 -66t135 73t47 261zM503 -20q-129 0 -217 28q-185 60 -226 338q-19 137 -19 389t44 384q44 133 144 183t301 50q268 0 356 -128t89 -473q-1 -345 -23 -462
t-51 -165t-80 -84t-120 -48t-198 -12z" />
    <glyph glyph-name="ocircumflex" unicode="&#xf4;" horiz-adv-x="1015" 
d="M268 1393l-32 149l274 176l274 -176l-32 -149l-242 112zM727 508q0 188 -39 254t-140 66t-141 -70q-40 -68 -40 -260t45 -258t133 -66t135 73t47 261zM503 -20q-129 0 -217 28q-185 60 -226 338q-19 137 -19 389t44 384q44 133 144 183t301 50q268 0 356 -128t89 -473
q-1 -345 -23 -462t-51 -165t-80 -84t-120 -48t-198 -12z" />
    <glyph glyph-name="otilde" unicode="&#xf5;" horiz-adv-x="1015" 
d="M397 1671q37 1 139 -27t169 -28q66 0 118 29l21 10l-15 -209q-69 -37 -147 -37t-177 40t-153 40t-119 -37l-24 -12l-29 141l4 4q2 4 20 22q64 64 193 64zM727 508q0 188 -39 254t-140 66t-141 -70q-40 -68 -40 -260t45 -258t133 -66t135 73t47 261zM503 -20
q-129 0 -217 28q-185 60 -226 338q-19 137 -19 389t44 384q44 133 144 183t301 50q268 0 356 -128t89 -473q-1 -345 -23 -462t-51 -165t-80 -84t-120 -48t-198 -12z" />
    <glyph glyph-name="odieresis" unicode="&#xf6;" horiz-adv-x="1015" 
d="M353 1405q-77 -1 -105 29t-27 99q0 69 25 101q26 32 106 31q80 0 106 -33q26 -32 26 -104t-28 -98q-26 -26 -103 -25zM695 1405q-77 0 -103 27q-26 26 -27 94q0 68 27 104q28 36 108 35q80 0 104 -31t24 -101t-28 -99t-105 -29zM727 508q0 188 -39 254t-140 66t-141 -70
q-40 -68 -40 -260t45 -258t133 -66t135 73t47 261zM503 -20q-129 0 -217 28q-185 60 -226 338q-19 137 -19 389t44 384q44 133 144 183t301 50q268 0 356 -128t89 -473q-1 -345 -23 -462t-51 -165t-80 -84t-120 -48t-198 -12z" />
    <glyph glyph-name="divide" unicode="&#xf7;" horiz-adv-x="880" 
d="M72 467l-11 174l750 14l8 -196zM600 873q0 -79 -40 -111t-121 -31q-81 -1 -122 31t-41 111t35 117t128 38t127 -38t34 -117zM297 243q0 71 30 105q31 34 113 33q82 0 111 -34q29 -33 29 -103t-34 -99t-107 -29t-107 28t-35 99z" />
    <glyph glyph-name="oslash" unicode="&#xf8;" horiz-adv-x="1017" 
d="M735 492q0 200 -40 268q-41 68 -147 68t-144 -67q-38 -66 -37 -263q0 -197 41 -260q40 -64 148 -64t144 59t35 259zM551 1343q117 0 199 -26l81 149l166 -102l-98 -178q64 -64 68 -588q0 -365 -89 -492t-339 -126q-172 0 -236 32l-24 11l-91 -166l-168 102l109 201
q-29 43 -53 169q-25 127 -25 281t6 262q13 226 80 331q68 106 223 129q74 11 191 11z" />
    <glyph glyph-name="ugrave" unicode="&#xf9;" horiz-adv-x="1007" 
d="M795 1532l-25 -139l-496 84l29 219zM524 -25q-252 1 -364 101q-113 100 -113 327l2 445l-8 483l442 4l-10 -938q0 -59 5 -95t40 -73t95 -37t94 24q67 48 61 351v19l-6 741l199 -4l4 -834q3 -287 -93 -401t-348 -113z" />
    <glyph glyph-name="uacute" unicode="&#xfa;" horiz-adv-x="1007" 
d="M356 1393l-24 139l508 166l28 -219zM524 -25q-252 1 -364 101q-113 100 -113 327l2 445l-8 483l442 4l-10 -938q0 -59 5 -95t40 -73t95 -37t94 24q67 48 61 351v19l-6 741l199 -4l4 -834q3 -287 -93 -401t-348 -113z" />
    <glyph glyph-name="ucircumflex" unicode="&#xfb;" horiz-adv-x="1007" 
d="M375 1393l-33 149l274 176l275 -176l-33 -149l-242 112zM524 -25q-252 1 -364 101q-113 100 -113 327l2 445l-8 483l442 4l-10 -938q0 -59 5 -95t40 -73t95 -37t94 24q67 48 61 351v19l-6 741l199 -4l4 -834q3 -287 -93 -401t-348 -113z" />
    <glyph glyph-name="udieresis" unicode="&#xfc;" horiz-adv-x="1007" 
d="M326 1533q0 69 24 101t106 31q80 0 106 -33q26 -32 26 -104t-27 -98t-103 -25q-76 -1 -104 29t-28 99zM670 1526q0 68 26 104t108 35q80 0 104 -31t24 -101t-28 -99t-104 -29t-104 27q-26 26 -26 94zM524 -25q-252 1 -364 101q-113 100 -113 327l2 445l-8 483l442 4
l-10 -938q0 -59 5 -95t40 -73t95 -37t94 24q67 48 61 351v19l-6 741l199 -4l4 -834q3 -287 -93 -401t-348 -113z" />
    <glyph glyph-name="yacute" unicode="&#xfd;" horiz-adv-x="1142" 
d="M446 1393l-24 139l508 166l28 -219zM440 1352l230 -699l241 693l211 -97l-297 -811l4 -438l-493 -16l12 419l-328 824z" />
    <glyph glyph-name="thorn" unicode="&#xfe;" horiz-adv-x="1064" 
d="M464 385q122 0 177 32q55 31 55 109t-40 114t-152 38l-232 2l-8 -291q78 -4 200 -4zM420 184h-158l-8 -192l-213 16q31 498 31 524l-29 799l240 -2l-7 -143l222 -4q274 -4 389 -115t114 -377q1 -139 -23 -227q-53 -199 -263 -250q-115 -29 -295 -29z" />
    <glyph glyph-name="ydieresis" unicode="&#xff;" horiz-adv-x="1142" 
d="M527 1405q-77 -1 -105 29t-27 99q0 69 25 101q26 32 106 31q80 0 106 -33q26 -32 26 -104t-28 -98q-26 -26 -103 -25zM869 1405q-77 0 -103 27q-26 26 -27 94q0 68 27 104q28 36 108 35q80 0 104 -31t24 -101t-28 -99t-105 -29zM440 1352l230 -699l241 693l211 -97
l-297 -811l4 -438l-493 -16l12 419l-328 824z" />
    <glyph glyph-name="dotlessi" unicode="&#x131;" horiz-adv-x="550" 
d="M102 1331l344 -8q-43 -801 -43 -827l46 -504l-289 -8q-35 467 -35 510z" />
    <glyph glyph-name="Lslash" unicode="&#x141;" horiz-adv-x="888" 
d="M109 1331l376 10q4 -379 7 -589l235 45l25 -189l-260 -43q-4 -57 -31 -375l418 5l-27 -203l-727 8q20 369 31 545l-133 -29l-21 166l152 27z" />
    <glyph glyph-name="lslash" unicode="&#x142;" horiz-adv-x="888" 
d="M109 1331l376 10q4 -379 7 -589l235 45l25 -189l-260 -43q-4 -57 -31 -375l418 5l-27 -203l-727 8q20 369 31 545l-133 -29l-21 166l152 27z" />
    <glyph glyph-name="OE" unicode="&#x152;" horiz-adv-x="1538" 
d="M735 492q0 200 -40 268q-41 68 -147 68t-144 -67q-38 -66 -37 -263q0 -197 41 -260q40 -64 148 -64t144 59t35 259zM51 588q0 176 6 284q13 226 80 331q68 106 223 129q74 11 185 11l925 -6l17 -567l-524 4q4 -84 4 -205h338l-15 -157l-327 4q-4 -113 -31 -199l-8 -22
l551 -9l-25 -194l-911 -12q-129 0 -215 26t-151 94q-122 128 -122 488z" />
    <glyph glyph-name="oe" unicode="&#x153;" horiz-adv-x="1538" 
d="M735 492q0 200 -40 268q-41 68 -147 68t-144 -67q-38 -66 -37 -263q0 -197 41 -260q40 -64 148 -64t144 59t35 259zM51 588q0 176 6 284q13 226 80 331q68 106 223 129q74 11 185 11l925 -6l17 -567l-524 4q4 -84 4 -205h338l-15 -157l-327 4q-4 -113 -31 -199l-8 -22
l551 -9l-25 -194l-911 -12q-129 0 -215 26t-151 94q-122 128 -122 488z" />
    <glyph glyph-name="Scaron" unicode="&#x160;" horiz-adv-x="929" 
d="M385 1376l-168 256l186 62l119 -191l113 189l186 -60l-178 -252zM436 702q0 -51 44 -85q44 -33 106 -59t124 -58t106 -90q44 -59 44 -142q0 -150 -96 -214t-373 -64l-235 10l-15 195q338 -24 409 8q42 18 42 59q0 71 -146 125t-262 151q-61 50 -102 141t-41 208
q-1 233 117 335t399 109l320 8l12 -516l-268 -8q-185 -7 -185 -113z" />
    <glyph glyph-name="scaron" unicode="&#x161;" horiz-adv-x="929" 
d="M385 1376l-168 256l186 62l119 -191l113 189l186 -60l-178 -252zM436 702q0 -51 44 -85q44 -33 106 -59t124 -58t106 -90q44 -59 44 -142q0 -150 -96 -214t-373 -64l-235 10l-15 195q338 -24 409 8q42 18 42 59q0 71 -146 125t-262 151q-61 50 -102 141t-41 208
q-1 233 117 335t399 109l320 8l12 -516l-268 -8q-185 -7 -185 -113z" />
    <glyph glyph-name="Ydieresis" unicode="&#x178;" horiz-adv-x="1142" 
d="M527 1405q-77 -1 -105 29t-27 99q0 69 25 101q26 32 106 31q80 0 106 -33q26 -32 26 -104t-28 -98q-26 -26 -103 -25zM869 1405q-77 0 -103 27q-26 26 -27 94q0 68 27 104q28 36 108 35q80 0 104 -31t24 -101t-28 -99t-105 -29zM440 1352l230 -699l241 693l211 -97
l-297 -811l4 -438l-493 -16l12 419l-328 824z" />
    <glyph glyph-name="Zcaron" unicode="&#x17d;" horiz-adv-x="1030" 
d="M393 1376l-168 256l187 62l118 -191l113 189l186 -60l-178 -252zM41 1337l948 -16l-24 -485l-535 -623l457 6l6 -213l-774 -10l-6 205l514 622l-566 -10z" />
    <glyph glyph-name="zcaron" unicode="&#x17e;" horiz-adv-x="1030" 
d="M393 1376l-168 256l187 62l118 -191l113 189l186 -60l-178 -252zM41 1337l948 -16l-24 -485l-535 -623l457 6l6 -213l-774 -10l-6 205l514 622l-566 -10z" />
    <glyph glyph-name="florin" unicode="&#x192;" horiz-adv-x="1056" 
d="M600 209q0 -150 -134 -241t-357 -91l-33 148q114 2 180 50t66 138q0 57 -31 190l-10 43l-220 7l13 133l153 4q-72 162 -71 309q0 221 141 323t448 113l240 8l10 -507l-229 -11q-240 -12 -240 -170l9 -59l335 8l-18 -174l-283 8q31 -160 31 -229z" />
    <glyph glyph-name="circumflex" unicode="&#x2c6;" horiz-adv-x="815" 
d="M166 1382l-33 150l275 176l274 -176l-33 -150l-241 113z" />
    <glyph glyph-name="caron" unicode="&#x2c7;" horiz-adv-x="849" 
d="M291 1376l-168 256l186 62l119 -191l113 189l186 -60l-178 -252z" />
    <glyph glyph-name="breve" unicode="&#x2d8;" horiz-adv-x="1155" 
d="M557 1536q70 0 113 51t47 107l110 -31v-25q1 -114 -73 -186t-198 -72t-197 72t-72 186v25l110 31q4 -54 47 -106t113 -52z" />
    <glyph glyph-name="dotaccent" unicode="&#x2d9;" horiz-adv-x="952" 
d="M328 1550q0 76 30 113q31 37 118 37t118 -36t31 -112t-36 -106t-113 -31q-76 -1 -112 29t-36 106z" />
    <glyph glyph-name="ring" unicode="&#x2da;" horiz-adv-x="581" 
d="M215 1554q0 -34 23 -56q24 -22 56 -22t54 24q22 22 23 54q0 32 -23 56q-24 22 -56 22t-54 -22t-23 -56zM489 1579q0 -95 -56 -147t-141 -52t-142 50q-58 50 -58 145q0 96 55 147q55 52 147 52t143 -50q52 -50 52 -145z" />
    <glyph glyph-name="ogonek" unicode="&#x2db;" horiz-adv-x="489" 
d="M393 -8q-52 0 -105 -26q-97 -47 -95 -109q0 -80 92 -80q41 0 73 17t43 34l13 16l55 -49q-32 -96 -130 -139q-40 -16 -89 -16q-94 0 -152 47q-57 47 -57 123q0 139 124 197q107 49 191 54l37 5v-74z" />
    <glyph glyph-name="tilde" unicode="&#x2dc;" horiz-adv-x="909" 
d="M340 1657q37 0 139 -28t160 -27t127 28l20 10l-14 -208q-68 -37 -147 -37t-178 40t-151 40t-120 -37l-24 -13l-29 142l4 4q2 4 19 21q65 65 194 65z" />
    <glyph glyph-name="hungarumlaut" unicode="&#x2dd;" horiz-adv-x="966" 
d="M225 1382l-61 95l328 278l98 -149zM571 1382l-61 95l328 278l98 -149z" />
    <glyph glyph-name="endash" unicode="&#x2013;" horiz-adv-x="1099" 
d="M1038 455l-977 6v188l977 21v-215z" />
    <glyph glyph-name="emdash" unicode="&#x2014;" horiz-adv-x="1464" 
d="M1403 457l-1342 6v188l1342 21v-215z" />
    <glyph glyph-name="quoteleft" unicode="&#x2018;" horiz-adv-x="428" 
d="M216 1014q-155 0 -155 158q0 133 45 192t95 86l59 -61q-32 -22 -53 -52q-20 -31 -21 -59q20 12 64 12q117 0 117 -141q0 -61 -37 -98t-114 -37z" />
    <glyph glyph-name="quoteright" unicode="&#x2019;" horiz-adv-x="428" 
d="M178 1065q-117 0 -117 141q0 60 37 98t114 38q155 -2 155 -160q0 -133 -45 -191q-45 -59 -95 -86l-61 62q76 45 76 110q-20 -12 -64 -12z" />
    <glyph glyph-name="quotesinglbase" unicode="&#x201a;" horiz-adv-x="428" 
d="M212 264q155 0 155 -158q0 -133 -45 -192t-95 -86l-61 61q76 45 76 111q-20 -12 -64 -12q-117 0 -117 141q0 61 37 98t114 37z" />
    <glyph glyph-name="quotedblleft" unicode="&#x201c;" horiz-adv-x="794" 
d="M216 1014q-155 0 -155 158q0 133 45 192t95 86l59 -61q-32 -22 -53 -52q-20 -31 -21 -59q20 12 64 12q117 0 117 -141q0 -61 -37 -98t-114 -37zM582 1014q-154 0 -154 158q0 134 45 194q45 59 80 76l14 8l60 -61q-74 -49 -74 -111q20 12 63 12q117 0 117 -141
q0 -61 -37 -98q-38 -37 -114 -37z" />
    <glyph glyph-name="quotedblright" unicode="&#x201d;" horiz-adv-x="794" 
d="M545 1065q-117 0 -117 141q0 60 37 98t113 38q154 -2 155 -160q0 -134 -45 -193t-80 -76l-14 -8l-62 62q76 45 76 110q-20 -12 -63 -12zM178 1065q-117 0 -117 141q0 60 37 98t114 38q155 -2 155 -160q0 -133 -45 -191q-45 -59 -95 -86l-61 62q76 45 76 110
q-20 -12 -64 -12z" />
    <glyph glyph-name="quotedblbase" unicode="&#x201e;" horiz-adv-x="794" 
d="M578 264q154 0 155 -158q0 -134 -45 -194q-45 -59 -80 -76l-14 -8l-62 61q76 45 76 111q-20 -12 -63 -12q-117 0 -117 141q0 61 37 98t113 37zM212 264q155 0 155 -158q0 -133 -45 -192t-95 -86l-61 61q76 45 76 111q-20 -12 -64 -12q-117 0 -117 141q0 61 37 98t114 37z
" />
    <glyph glyph-name="dagger" unicode="&#x2020;" horiz-adv-x="815" 
d="M258 1331l311 -8q-35 -182 -57 -301l242 16l-9 -225l-229 23l21 -101l-33 -526l-191 -14l-37 542q14 49 27 101l-242 -23l7 236l245 -27z" />
    <glyph glyph-name="daggerdbl" unicode="&#x2021;" horiz-adv-x="815" 
d="M258 1331l311 -8q-35 -182 -57 -301l242 16l-9 -225l-225 23l27 -101l-27 -92l172 14l-8 -225l-182 23l33 -396l-256 -14l36 412l-192 -23l6 236l172 -23l-29 101q14 43 27 90l-238 -23l7 236l245 -27z" />
    <glyph glyph-name="bullet" unicode="&#x2022;" horiz-adv-x="573" 
d="M82 555q0 101 44 153t161 52t161 -51t44 -153t-52 -143q-52 -42 -153 -42q-102 0 -154 42q-51 42 -51 142z" />
    <glyph glyph-name="ellipsis" unicode="&#x2026;" horiz-adv-x="1177" 
d="M440 115q0 77 31 113t118 36t118 -36t31 -112t-37 -106t-113 -30t-112 30t-36 105zM819 115q0 77 31 113t118 36q88 0 118 -36t30 -112t-36 -106t-112 -30t-113 30q-36 30 -36 105zM61 115q0 77 31 113t118 36t118 -36q30 -36 30 -112t-36 -106t-112 -30q-77 0 -113 30
t-36 105z" />
    <glyph glyph-name="perthousand" unicode="&#x2030;" horiz-adv-x="1916" 
d="M1001 1354l189 -121l-926 -1260l-143 90zM963 139q88 0 90 133q4 164 -90 164q-57 0 -77 -37t-20 -119t25 -111q25 -30 72 -30zM958 0q-130 0 -200 73t-70 253t73 252t206 72t199 -77q66 -76 65 -249q-1 -324 -273 -324zM336 821q88 0 90 133q4 164 -90 164
q-56 0 -76 -37t-20 -119t24 -111q24 -30 72 -30zM332 682q-129 0 -200 73t-71 253t73 252t206 72t199 -77q66 -76 65 -249q0 -324 -272 -324zM1587 139q88 0 90 133q4 164 -90 164q-57 0 -77 -37t-19 -119t25 -111q24 -30 71 -30zM1583 0q-129 0 -200 73t-71 253t73 252
t206 72t199 -77q66 -76 65 -249q0 -324 -272 -324z" />
    <glyph glyph-name="guilsinglleft" unicode="&#x2039;" horiz-adv-x="491" 
d="M291 102l-291 416l291 416l176 -119l-225 -297l225 -297z" />
    <glyph glyph-name="guilsinglright" unicode="&#x203a;" horiz-adv-x="491" 
d="M492 518l-291 -416l-176 119l225 297l-225 297l176 119z" />
    <glyph glyph-name="fraction" unicode="&#x2044;" horiz-adv-x="614" 
d="M0 -217l356 1864l222 -37l-357 -1864z" />
    <glyph glyph-name="foursuperior" unicode="&#x2074;" horiz-adv-x="659" 
d="M207 801l182 -4l-4 256zM84 672l-53 182l342 496l190 -21l-16 -534l71 -2l5 -123l-76 4l4 -131l-168 -13l6 146z" />
    <glyph glyph-name="Euro" unicode="&#x20ac;" horiz-adv-x="1097" 
d="M690 -8q-221 0 -337 79t-152 242l-140 2l9 111l112 2q-4 35 -4 109l-110 2l8 110l102 2q0 362 135 517t473 165l211 6l39 -538l-221 -6q-248 -6 -309 -136l381 11l-8 -144l-398 6v-96l402 10l-9 -143l-374 6q51 -115 243 -114h203l12 -195q-121 -8 -268 -8z" />
    <glyph glyph-name="trademark" unicode="&#x2122;" horiz-adv-x="1105" 
d="M197 1016q0 36 2 90l-138 2l9 219l587 10l82 -284l115 282l190 -12l-14 -535l-178 -10l8 334l-86 -233h-108l-78 241l-15 -334l-112 5l8 309l-131 4q-4 -106 -4 -109l10 -202l-135 -7q-12 194 -12 230z" />
    <glyph glyph-name="minus" unicode="&#x2212;" horiz-adv-x="741" 
d="M674 455l-613 6l11 188l608 21z" />
    <glyph glyph-name="fi" unicode="&#xfb01;" horiz-adv-x="1323" 
d="M1282 1323l-39 -827q0 -27 35 -504l-289 -8l-28 510q0 43 -23 837zM856 1339l8 -569l-567 6l4 -215h367l-15 -162l-348 4l10 -419l-223 8q4 489 4 516l-55 823z" />
    <glyph glyph-name="fl" unicode="&#xfb02;" horiz-adv-x="1705" 
d="M1311 624q0 -40 -33 -434l418 5l-27 -203l-727 8q33 606 33 633l-49 698l377 10q8 -677 8 -717zM856 1339l8 -569l-567 6l4 -215h367l-15 -162l-348 4l10 -419l-223 8q4 489 4 516l-55 823z" />
    <glyph glyph-name="pictograma1" horiz-adv-x="1028" 
d="M696 635l88 -326l-264 213l-266 -213l104 326l-256 141l312 37l94 297l127 -291l293 25z" />
    <glyph glyph-name="pictograma2" horiz-adv-x="1097" 
d="M991 639l-256 -55l88 -271l-211 158l-100 -262l-70 260l-235 -119l162 238l-267 63l260 70l-157 237l239 -131l109 273l61 -273l238 131l-121 -233z" />
    <glyph glyph-name="pictograma3" horiz-adv-x="1208" 
d="M958 403l-282 109l-60 -233l-81 233l-252 -197l127 258l-308 45l273 72l-264 215l319 -74l-55 236l192 -240l154 226l-21 -222l263 95l-220 -228l306 -36l-285 -78z" />
    </font>
</defs>
</svg>
